<?xml version="1.0" standalone="no"?>
<!DOCTYPE svg PUBLIC "-//W3C//DTD SVG 1.1//EN" "http://www.w3.org/Graphics/SVG/1.1/DTD/svg11.dtd" >
<svg xmlns="http://www.w3.org/2000/svg" xmlns:xlink="http://www.w3.org/1999/xlink" version="1.1">
<metadata>
Created by FontForge 20170731 at Wed Apr  3 19:46:51 2019
 By Aleksey,,,
Copyright (c) 2019 by Fontastica. All rights reserved.
</metadata>
<defs>
<font id="Berk-Outline" horiz-adv-x="525" >
  <font-face 
    font-family="Berk Outline"
    font-weight="400"
    font-stretch="normal"
    units-per-em="1000"
    panose-1="0 0 5 0 0 0 0 0 0 0"
    ascent="800"
    descent="-200"
    x-height="807"
    cap-height="807"
    bbox="-294 -246 963 1046"
    underline-thickness="50"
    underline-position="-200"
    unicode-range="U+000D-2265"
  />
<missing-glyph horiz-adv-x="970" 
d="M164 -21h646q31 0 57 6q23 6 33 13q21 15 21 35v722q0 20 -21 34q-14 8 -34 12q-26 6 -56 6h-646q-30 0 -56 -6q-20 -4 -34 -12q-21 -14 -21 -34v-722q0 -20 21 -35q10 -7 33 -13q26 -6 57 -6zM810 -1h-646q-40 0 -65.5 9.5t-25.5 24.5v722q0 14 25.5 23t65.5 9h646
q40 0 65.5 -9t25.5 -23v-722q0 -15 -25.5 -24.5t-65.5 -9.5zM179 732l304 -298l308 298h-612zM483 462l-255 250h514zM137 690v-592l304 295zM529 393l304 -295v592zM157 145v498l255 -250zM813 145l-255 248l255 250v-498zM483 352l-304 -295h612zM228 77l255 247l258 -247
h-513z" />
    <glyph glyph-name=".notdef" horiz-adv-x="970" 
d="M164 -21h646q31 0 57 6q23 6 33 13q21 15 21 35v722q0 20 -21 34q-14 8 -34 12q-26 6 -56 6h-646q-30 0 -56 -6q-20 -4 -34 -12q-21 -14 -21 -34v-722q0 -20 21 -35q10 -7 33 -13q26 -6 57 -6zM810 -1h-646q-40 0 -65.5 9.5t-25.5 24.5v722q0 14 25.5 23t65.5 9h646
q40 0 65.5 -9t25.5 -23v-722q0 -15 -25.5 -24.5t-65.5 -9.5zM179 732l304 -298l308 298h-612zM483 462l-255 250h514zM137 690v-592l304 295zM529 393l304 -295v592zM157 145v498l255 -250zM813 145l-255 248l255 250v-498zM483 352l-304 -295h612zM228 77l255 247l258 -247
h-513z" />
    <glyph glyph-name=".null" horiz-adv-x="0" 
 />
    <glyph glyph-name="nonmarkingreturn" horiz-adv-x="333" 
 />
    <glyph glyph-name="CR" unicode="&#xd;" horiz-adv-x="209" 
 />
    <glyph glyph-name="space" unicode=" " horiz-adv-x="209" 
 />
    <glyph glyph-name="exclam" unicode="!" horiz-adv-x="285" 
d="M98 193q2 -23 18.5 -33t34.5 -10t34 10.5t17 32.5l39 569q1 21 -19 31q-9 6 -28 10q-24 4 -45 4t-46 -4q-17 -4 -28 -10q-20 -10 -19 -31zM182 194q0 -10 -8.5 -17t-22.5 -7t-23.5 7t-9.5 17l-42 569q0 24 73 24q72 0 72 -24zM117 -16q14 -4 37 -4q20 0 35 5q31 10 31 39
v69q0 27 -31 39q-15 5 -35 5t-37 -5q-12 -3 -23 -12.5t-11 -26.5v-69q0 -30 34 -40zM154 0q-51 0 -51 24v69q0 24 51 24q46 0 46 -24v-69q0 -24 -46 -24z" />
    <glyph glyph-name="quotedbl" unicode="&#x22;" horiz-adv-x="441" 
d="M97 516q16 -3 28 -3t27 3q9 2 17 7q13 8 15 21l30 216q2 20 -18 33q-12 7 -27 9q-23 5 -44 5t-46 -4q-17 -4 -28 -10q-21 -11 -19 -33l31 -216q2 -14 16 -22q8 -4 18 -6zM289 516q15 -3 27 -3q17 0 28 3q10 2 18 6q13 7 16 22q1 5 4 26t6 43.5t6 42.5q13 85 13 109
q0 20 -20 30q-12 6 -27 8q-24 4 -44 4q-22 0 -44 -5q-15 -2 -27 -9q-20 -13 -18 -33l30 -216q2 -13 15 -21q8 -5 17 -7zM125 533q-39 0 -42 14l-31 216q0 24 73 24q69 0 69 -24l-30 -216q0 -14 -39 -14zM316 533q-39 0 -39 14l-30 216q0 24 69 24q74 0 71 -24l-29 -216
q-2 -14 -42 -14z" />
    <glyph glyph-name="numbersign" unicode="#" horiz-adv-x="541" 
d="M79 -17q20 -4 36 -4q18 0 38 4q12 2 23 8q16 9 18 25l25 188h50l-22 -183q-2 -17 16 -30q11 -6 23 -8q20 -4 37 -4q18 0 38 4q16 4 24 8q17 11 19 26l21 187h27q23 2 34 13q7 8 8 17q2 4 4 16q3 35 5 47q1 14 -9 23q-5 5 -14 7q-11 4 -27 4q-4 1 -13 1l19 167h10h10h7
q23 0 34 12q7 7 9 16q3 7 3 17q1 5 2 20t3 25l1 7q0 20 -23 28q-16 4 -26 4h-13l19 138q3 22 -17 30q-5 3 -23 8q-23 3 -36 3q-23 0 -38 -3q-14 -2 -23 -7q-18 -10 -20 -26l-18 -143h-50q15 113 15 143q0 15 -18 27q-9 4 -23 6q-14 3 -34 3q-22 0 -36 -3q-14 -2 -23 -7
q-17 -9 -19 -25l-19 -144h-19q-18 -2 -26 -5q-21 -4 -24 -25q0 -4 -3.5 -30.5t-3.5 -39.5t11 -21l13 -5q12 -3 26 -3h13l-20 -168h-27q-22 0 -34 -12q-5 -5 -9 -17l-3 -16q-3 -32 -5 -49q-1 -12 9 -22q6 -5 14 -7q7 -2 25 -4h12l-21 -183q-3 -19 15 -29q7 -4 23 -9zM115 -1
q-54 0 -54 20l24 205h-33q-30 0 -30 11l8 65q0 11 34 11h34l24 208h-34q-15 0 -24 3t-7 8l7 66q0 12 34 12h32l22 161q0 18 58 18t55 -18l-18 -161h91l20 161q0 18 61 18q56 0 56 -18l-22 -161h34q14 0 23.5 -4t6.5 -10l-7 -64q0 -11 -35 -11h-34l-24 -208h33q33 0 33 -11
l-8 -62q0 -14 -34 -14h-34l-23 -205q-7 -20 -61 -20q-56 0 -56 20l25 205h-91l-27 -205q0 -20 -59 -20zM235 519l-25 -208h94l24 208h-93zM233 331l20 168h53l-20 -168h-53z" />
    <glyph glyph-name="dollar" unicode="$" 
d="M217 -78q15 -5 45 -5t46 4q22 5 30 23q6 12 6 33q0 3 -0.5 10.5t-0.5 12.5q76 18 115.5 71.5t39.5 133.5t-40 133t-110 103q-7 5 -25 17.5t-27 19.5q-29 22 -43 37q-39 37 -39 81q0 25 12.5 35.5t40.5 10.5q34 0 44 -13t10 -52q0 -17 16 -25q6 -3 19 -6q12 -2 28 -2h60
q15 0 26 5q8 2 16 8q12 10 12 23q0 79 -40.5 134t-114.5 74v20q-2 22 -9 31q-10 13 -30 18q-16 3 -42 3q-25 0 -41 -3q-21 -5 -29 -20q-8 -10 -8 -30v-19q-73 -21 -112.5 -72t-39.5 -128q0 -42 12.5 -78.5t37 -65t46 -47.5t54.5 -42q6 -5 24 -18t27 -20q24 -17 43 -36
q39 -39 39 -84q0 -51 -56 -51t-56 48v35q0 19 -18 30q-12 7 -27 10q-23 4 -43 4t-44 -4q-17 -4 -26 -10q-19 -11 -19 -30q0 -93 36 -151.5t122 -77.5q-1 -8 -1 -22q0 -22 5 -33q9 -18 29 -23zM262 -63q-58 0 -58 21v58q-77 13 -117.5 62t-40.5 124v27q0 24 69 24
q30 0 49 -6.5t19 -17.5v-35q0 -68 76 -68t76 71q0 43 -26.5 78t-98.5 83q-88 60 -123 112.5t-35 117.5q0 149 152 184v46q0 22 58 22q26 0 43.5 -6t17.5 -16v-46q76 -15 115.5 -66t39.5 -126q0 -5 -10 -10.5t-24 -5.5h-60q-43 0 -43 13v17q0 68 -74 68q-73 0 -73 -66
q0 -40 27 -75.5t98 -83.5q89 -61 124 -113t35 -119q0 -78 -39.5 -127t-115.5 -62v-58q0 -21 -61 -21z" />
    <glyph glyph-name="percent" unicode="%" horiz-adv-x="772" 
d="M430 115q0 -72 42.5 -109t113.5 -37q72 0 118 36t46 110v196q0 74 -46 110t-118 36q-85 0 -127 -51l161 358q3 6 3 12q0 17 -16 25q-4 2 -17 5q-10 1 -24 1q-21 0 -34 -2q-11 -2 -21 -6q-14 -6 -19 -19l-147 -328q1 8 1 23v198q0 74 -44 110t-116 36t-116 -36t-44 -110
v-198q0 -74 44 -110t116 -36q80 0 122 42l-155 -347q-3 -6 -3 -12q0 -14 16 -25q8 -4 18 -6t26 -2q21 0 33 3q28 5 37 26l154 341q-4 -16 -4 -38v-196zM186 349q-68 0 -104 32.5t-36 93.5v198q0 61 36 93.5t104 32.5t104 -32.5t36 -93.5v-198q0 -61 -36 -93.5t-104 -32.5z
M210 -1q-21 0 -31.5 4.5t-7.5 12.5l339 756q5 15 56 15q21 0 30.5 -3.5t5.5 -11.5l-340 -756q-5 -17 -52 -17zM186 421q46 0 46 50v207q0 50 -46 50q-49 0 -49 -50v-207q0 -50 49 -50zM212 471q0 -18 -5.5 -24t-20.5 -6q-17 0 -23 6.5t-6 23.5v207q0 17 6 23.5t23 6.5
q15 0 20.5 -6t5.5 -24v-207zM586 -11q-66 0 -101 32.5t-35 93.5v196q0 61 35 93.5t101 32.5q69 0 106.5 -32.5t37.5 -93.5v-196q0 -61 -37.5 -93.5t-106.5 -32.5zM586 60q49 0 49 49v208q0 49 -49 49q-45 0 -45 -49v-208q0 -49 45 -49zM615 109q0 -17 -6.5 -23t-22.5 -6
q-14 0 -19.5 6t-5.5 23v208q0 17 5.5 23t19.5 6q16 0 22.5 -6t6.5 -23v-208z" />
    <glyph glyph-name="ampersand" unicode="&#x26;" horiz-adv-x="547" 
d="M325 15l2 -6q15 -20 49 -26q23 -4 47 -4q19 0 40 4q12 1 25 8q19 9 19 29v8q-7 32 -7 67v241q6 0 10 1q31 6 31 35v79q0 19 -17 28q-8 6 -12 6q-2 0 -6 0.5t-6 0.5q0 5 0.5 14t0.5 12q-2 26 -8 36q-10 17 -33 22q-16 4 -49 4q-34 0 -51 -4q-23 -4 -34 -21q-8 -13 -8 -36
v-25h-36q-37 0 -52.5 13.5t-15.5 48.5v45q0 20 5 35q7 26 48 26h88q38 2 59 8q18 6 25 12q14 12 14 28v54q0 21 -20 33q-10 7 -31 11q-25 5 -52 5h-83q-109 0 -172 -52t-63 -161q0 -130 72 -178q-78 -47 -78 -164v-82q0 -92 42.5 -146.5t135.5 -54.5q74 0 121 46zM204 -11
q-158 0 -158 181v82q0 127 103 164q-97 35 -97 164v14q0 193 215 193h83q83 0 83 -29v-54q0 -13 -23 -20.5t-60 -7.5h-83q-73 0 -73 -77v-49q0 -46 22 -64t66 -18h56v62q0 11 20.5 17.5t52.5 6.5q69 0 69 -24v-62h10q2 0 10 -1.5t10 -1.5v-3q11 0 11 -11v-79q0 -9 -11 -14
q-5 -3 -20 -3h-10v-260q0 -49 7 -71q2 -11 -14.5 -18t-49.5 -7q-64 0 -80 22v9l-5 32q-48 -73 -134 -73zM259 101q69 0 79 70v184h-56q-48 0 -70.5 -23.5t-22.5 -78.5v-79q0 -73 70 -73zM318 171q0 -21 -17.5 -35.5t-41.5 -14.5q-27 0 -38.5 12t-11.5 41v79q0 45 16 63.5
t57 18.5h36v-164z" />
    <glyph glyph-name="quotesingle" unicode="'" horiz-adv-x="247" 
d="M97 516q16 -3 28 -3t27 3q9 2 17 7q13 8 15 21l30 216q2 20 -18 33q-12 7 -27 9q-23 5 -44 5t-46 -4q-17 -4 -28 -10q-21 -11 -19 -33l31 -216q2 -14 16 -22q8 -4 18 -6zM125 533q-39 0 -42 14l-31 216q0 24 73 24q69 0 69 -24l-30 -216q0 -14 -39 -14z" />
    <glyph glyph-name="parenleft" unicode="(" horiz-adv-x="361" 
d="M49 115q0 -109 56 -151t165 -42q16 0 33 4q10 2 20 9q13 9 13 26q0 1 1 17t1 27q0 3 -0.5 9t-1 10.5t-1.5 8.5q-2 9 -6 15q-4 8 -15 11q-16 6 -35 6q-10 0 -15 1q-7 0 -11 1q-7 1 -10 8q-7 11 -7 40v558q0 32 9 42t37 10h10q0 -1 8 -1l7 1q29 5 29 33v69q0 13 -10 23
q-7 5 -16 9q-13 6 -28 6q-55 0 -93.5 -7t-72 -26.5t-50.5 -59t-17 -99.5v-558zM270 -58q-107 0 -154 39.5t-47 133.5v558q0 94 46.5 133t154.5 39h12q4 0 22 -5q12 -4 12 -13v-69q0 -12 -8 -12q-7 -1 -16 -1h-10q-36 0 -51 -15.5t-15 -56.5v-558q0 -41 15 -56.5t51 -15.5h10
q9 0 16 -3q8 0 8 -10v-69q0 -9 -12 -13q-14 -6 -22 -6h-12z" />
    <glyph glyph-name="parenright" unicode=")" horiz-adv-x="361" 
d="M50 -71q14 -7 29 -7q56 0 94.5 7.5t72 27t50 59t16.5 99.5v558q0 109 -56 150.5t-165 41.5q-20 0 -32 -3q-14 -5 -20 -9q-13 -9 -13 -26q0 -3 -1 -18.5t-1 -25.5q0 -15 3 -28q3 -19 18 -27l6 -2q9 -1 24 -2t17 -1q17 -2 23 -5q14 -6 14 -45v-558q0 -42 -18 -48
q-2 -1 -6 -1t-6 -1h-15q-27 -3 -35 -6q-23 -4 -23 -29v-69q0 -22 24 -32zM79 -58q-8 0 -22 6q-11 4 -11 13v69q0 10 8 10q7 3 19 3h10q35 0 50.5 16t15.5 56v558q0 40 -15.5 56t-50.5 16h-10q-12 0 -19 1q-8 5 -8 12v69q0 9 11 13q18 5 22 5h12q109 0 155 -39t46 -133v-558
q0 -94 -46.5 -133.5t-154.5 -39.5h-12z" />
    <glyph glyph-name="asterisk" unicode="*" horiz-adv-x="322" 
d="M245 676q9 9 16 21q9 16 9 27q0 10 -5 15q-4 6 -6 7l-8 8l-7 5q-6 2 -11 2q-11 0 -26 -10q-12 -8 -18 -14q-2 23 -5 31q-2 8 -6 15q-10 12 -22 12h-15q-12 0 -22 -12q-5 -7 -6 -15q-3 -8 -5 -31q-6 6 -18 14q-15 10 -26 10q-12 0 -23 -11l-7 -8l-5 -7q-2 -6 -2 -11
q0 -11 9 -27q7 -12 16 -21h-1q-14 -1 -30 -5q-9 -2 -14 -7q-12 -7 -12 -21v-17q0 -14 12 -21q5 -5 14 -7q16 -4 30 -5h1q-9 -9 -16 -21q-9 -16 -9 -27q0 -10 5 -15q4 -6 6 -7l8 -8l7 -5q6 -2 11 -2q11 0 26 10q12 8 18 14q2 -23 5 -31q1 -7 6 -15q10 -12 22 -12h15
q12 0 22 12q4 8 6 15q3 8 5 31q6 -6 18 -14q15 -10 26 -10q12 0 23 11l7 8l5 7q2 6 2 11q0 11 -9 27q-7 12 -16 21h1q14 1 30 5q9 2 14 7q12 7 12 21v17q0 14 -12 21q-5 5 -14 7q-16 4 -30 5h-1zM200 612l14 -14q46 -46 35 -57l-12 -12q-10 -10 -54 37l-13 14v-21
q0 -65 -14 -65h-15q-14 0 -14 65v21l-13 -14q-44 -47 -54 -37l-12 12q-11 11 35 57l14 14h-20q-62 0 -62 14v17q0 14 62 14h20l-14 14q-46 46 -35 57l12 12q10 10 54 -37l13 -14v21q0 65 14 65h15q14 0 14 -65v-21l13 14q44 47 54 37l12 -12q11 -11 -35 -57l-14 -14h20
q62 0 62 -14v-17q0 -14 -62 -14h-20z" />
    <glyph glyph-name="plus" unicode="+" 
d="M231 179q12 -2 31 -2t32 2t21 7q18 8 18 26v116q58 0 71 1q42 2 65 9q16 5 26 13q15 11 15 29v27q0 18 -15 29q-8 7 -26 13q-21 7 -64 9t-72 0v113q0 16 -15 27q-8 5 -21 9q-19 4 -35 4q-17 0 -34 -4q-13 -4 -21 -9q-14 -10 -14 -27v-113q-29 2 -72 0q-42 -2 -63 -9
q-41 -13 -41 -42v-27q0 -18 15 -29q8 -7 26 -13q17 -6 64 -10h25h27h19v-116q0 -19 17 -26q9 -5 21 -7zM262 197q-49 0 -49 15v137h-88q-41 0 -64.5 9t-23.5 22v27q0 30 88 30h88v134q0 8 13.5 14t35.5 6t36.5 -6t14.5 -14v-134h89q88 0 88 -30v-27q0 -13 -24 -22t-64 -9
h-89v-137q0 -15 -51 -15z" />
    <glyph glyph-name="comma" unicode="," horiz-adv-x="247" 
d="M55 -13q5 -5 13 -5h5q-2 -6 -7 -20t-8 -22l-14 -40q-1 -3 -3 -8t-2 -6q-2 -7 -2 -12q0 -15 14 -23q4 -2 16 -5q8 -1 21 -1q16 0 25 2q12 2 17 5q11 4 16 15l58 120q7 14 7 43v65q0 19 -18 30q-12 7 -26 9q-20 5 -42 5q-21 0 -45 -4q-16 -4 -27 -10q-19 -12 -19 -30v-76
q0 -24 21 -32zM88 -135q-16 0 -24.5 2.5t-6.5 8.5l43 123h-12q-2 0 -10 1.5t-10 1.5v3q-14 0 -14 14v76q0 11 20 17.5t51 6.5q29 0 47.5 -6.5t18.5 -17.5v-65q0 -19 -5 -34l-58 -120q-4 -11 -40 -11z" />
    <glyph glyph-name="hyphen" unicode="-" horiz-adv-x="356" 
d="M68 321q26 -6 57 -6h107q31 0 57 6q23 6 33 13q21 15 21 35v49q0 21 -21 34q-9 7 -33 13q-26 6 -57 6h-107q-31 0 -57 -6q-19 -3 -33 -12q-21 -15 -21 -35v-49q0 -21 20 -35q11 -7 34 -13zM125 335q-42 0 -66.5 9.5t-24.5 24.5v49q0 14 25 23.5t66 9.5h107
q40 0 65.5 -9.5t25.5 -23.5v-49q0 -15 -25.5 -24.5t-65.5 -9.5h-107z" />
    <glyph glyph-name="period" unicode="." horiz-adv-x="247" 
d="M81 -16q21 -5 44 -5q22 0 42 5q11 2 26 10q18 9 18 29v72q0 18 -18 29q-10 7 -26 10q-20 5 -42 5q-23 0 -44 -5q-23 -5 -28 -9q-19 -14 -19 -30v-72q0 -21 19 -30q8 -5 28 -9zM125 -1q-31 0 -51 7t-20 17v72q0 10 20 17t51 7q29 0 47.5 -7t18.5 -17v-72q0 -10 -18.5 -17
t-47.5 -7z" />
    <glyph glyph-name="slash" unicode="/" horiz-adv-x="511" 
d="M39 -18q14 -3 34 -3q28 0 44 4q36 8 46 30l345 745q3 6 3 12q0 17 -17 27q-6 3 -22 8q-14 2 -34 2q-27 0 -43 -4q-13 -1 -26 -8q-15 -6 -22 -21l-343 -745l-1 -3l-2 -5v-5q0 -17 17 -27q9 -5 21 -7zM73 -1q-56 0 -52 19q0 1 1 3l343 745q11 21 73 21q28 0 42 -5.5
t10 -15.5l-345 -745q-8 -22 -72 -22z" />
    <glyph glyph-name="zero" unicode="0" 
d="M22 185q0 -107 66.5 -161.5t173.5 -54.5q108 0 173 54t65 162v417q0 109 -65 163t-173 54q-107 0 -173.5 -54.5t-66.5 -162.5v-417zM262 -11q-105 0 -162.5 51t-57.5 145v417q0 94 57.5 145.5t162.5 51.5q106 0 162 -51t56 -146v-417q0 -94 -56 -145t-162 -51zM262 119
q76 0 76 71v406q0 73 -76 73q-73 0 -73 -73v-406q0 -71 73 -71zM318 190q0 -27 -13.5 -39t-42.5 -12t-41 11.5t-12 39.5v406q0 28 12.5 40.5t40.5 12.5q56 0 56 -53v-406z" />
    <glyph glyph-name="one" unicode="1" 
d="M282 -16q22 -5 46 -5q23 0 46 5q19 4 28 10q20 9 20 30v748q0 19 -17 26q-9 5 -21 7t-31 2q-22 0 -34 -2q-30 -5 -40 -23q-18 -32 -38.5 -48t-55.5 -24l-24 -5q-10 -2 -30 -10q-45 -17 -45 -53v-38q0 -29 34 -41q22 -8 54 -10q11 -1 61 -1v-528q0 -20 19 -30
q11 -6 28 -10zM328 -1q-31 0 -52 7t-21 18v549h-76q-33 0 -53 8.5t-20 22.5v38q0 32 83 49q76 18 107 81q7 15 57 15q49 0 49 -15v-748q0 -11 -20.5 -18t-53.5 -7z" />
    <glyph glyph-name="two" unicode="2" 
d="M214 132q1 43 40 93q20 24 44 47q8 8 16.5 16t19.5 18t17 16q33 32 54.5 56t46 60t36.5 77t12 87q0 108 -62.5 162.5t-170.5 54.5t-171.5 -54t-63.5 -163v-40q0 -20 8 -33q9 -15 32 -20q18 -3 46 -3q27 0 45 3q17 4 27 10q19 13 19 31q0 7 -0.5 23t-0.5 24q2 27 5 39
q9 31 49 31q32 0 44 -16.5t12 -54.5q0 -62 -41 -118q-16 -23 -44 -49q-8 -8 -52 -50q-45 -43 -72.5 -75.5t-52 -92t-24.5 -127.5v-51q0 -20 21 -35q12 -7 33 -13q28 -6 58 -6h233q31 0 57 6q23 6 33 13q21 13 21 35v45q0 22 -21 35q-10 7 -33 13q-26 6 -57 6h-163zM144 -1
q-42 0 -67 9.5t-25 24.5v51q0 84 31 144.5t111 134.5q83 74 113.5 125t30.5 108q0 50 -19.5 70.5t-56.5 20.5q-73 0 -73 -78v-59q0 -24 -71 -24q-66 0 -66 24v52q0 95 54.5 146t160.5 51q104 0 158.5 -51t54.5 -146q0 -73 -39.5 -142t-136.5 -156q-65 -59 -87.5 -95.5
t-22.5 -79.5v-17h183q42 0 66.5 -9.5t24.5 -24.5v-45q0 -15 -24.5 -24.5t-66.5 -9.5h-233z" />
    <glyph glyph-name="three" unicode="3" 
d="M197 338q10 -3 20 -3h18q43 0 58 -17.5t15 -64.5q0 -8 0.5 -25t0.5 -26q0 -32 -3 -45q-10 -36 -51 -36q-40 0 -50 25q-5 14 -6 34v44q0 17 -17 30q-9 6 -26 10q-21 5 -43 5q-23 0 -45 -5q-16 -2 -27 -10q-19 -11 -19 -30v-39q0 -110 63.5 -163t173.5 -53
q109 0 172.5 52.5t63.5 161.5q0 51 -1 75q-2 44 -10 71q-18 57 -68 87q76 46 76 161v28q0 108 -62.5 161t-170.5 53q-106 0 -169.5 -53.5t-63.5 -160.5v-23q0 -16 18 -29q13 -6 26 -8q21 -4 40 -4q21 0 45 4q19 4 28 10q20 10 20 30q0 47 9.5 64.5t42.5 17.5q51 0 51 -59
v-53q0 -23 -5 -38q-11 -29 -61 -29q-24 0 -38 -4q-36 -9 -36 -39q0 -4 -1 -21t-1 -27q0 -18 4 -31q8 -20 23 -27q4 0 6 -1zM259 -11q-217 0 -217 196v39q0 11 19.5 18t51.5 7q29 0 47.5 -7t18.5 -18v-47q0 -76 76 -76q37 0 55 19.5t18 70.5v62q0 56 -21.5 79t-71.5 23h-14
q-15 0 -20 3h-3q-12 5 -12 17v70q0 13 15 17q10 6 24 6h15q42 0 64 18.5t22 63.5v58q0 79 -71 79q-33 0 -52.5 -18.5t-19.5 -56.5v-27q0 -10 -20.5 -17t-52.5 -7q-64 0 -64 21v23q0 94 55 144t158 50q105 0 159 -49.5t54 -144.5v-28q0 -130 -104 -161q107 -37 107 -163v-70
q0 -95 -54.5 -144.5t-161.5 -49.5z" />
    <glyph glyph-name="four" unicode="4" 
d="M323 -16q23 -5 45 -5t45 5q16 4 27 10q18 11 18 30v97q13 0 20 1q13 0 28 5q23 9 23 29v110q0 12 -11 21q-5 4 -14 6q-4 1 -27 4h-19v463q0 21 -20 32q-11 7 -30 11q-20 4 -50 4q-28 0 -53 -5q-11 -2 -31 -10q-18 -10 -25 -23l-240 -490q-10 -22 -10 -41v-64
q0 -21 21 -34q14 -8 34 -12q26 -6 56 -6h166v-98q0 -17 19 -31q11 -7 28 -9zM368 -1q-33 0 -52.5 7t-19.5 18v118h-186q-41 0 -66 9t-25 23v64q0 19 8 32l240 490q16 27 91 27q80 0 80 -27v-484h37q34 0 34 -10v-110q0 -14 -34 -14h-37v-118q0 -11 -19 -18t-51 -7zM292 564
l-143 -288h147v288h-4zM276 487v-191h-95z" />
    <glyph glyph-name="five" unicode="5" 
d="M29 185q0 -107 64.5 -161.5t171.5 -54.5q108 0 171.5 54t63.5 162v178q0 90 -43 145.5t-134 55.5q-9 0 -27.5 0.5t-27.5 0.5q-32 0 -52 -7l7 98h142q30 0 56 6q20 4 34 12q21 14 21 34v47q0 20 -21 34q-14 8 -34 12q-26 6 -56 6h-201q-28 0 -55 -5q-21 -4 -33 -11
q-22 -11 -23 -32l-21 -386q-1 -20 17 -31q10 -6 27 -10q21 -4 42 -4q23 0 35 1q26 1 43 22q6 8 9 17q4 10 7 15q12 28 50 28q28 0 40.5 -13t12.5 -43v-178q0 -32 -11.5 -44t-41.5 -12q-31 0 -43.5 12.5t-12.5 43.5v38q-2 21 -11 32q-10 14 -31 19q-18 3 -46 3q-23 0 -44 -5
q-17 -4 -27 -10q-18 -11 -18 -30v-39zM265 -11q-105 0 -160.5 51t-55.5 145v39q0 11 19 18t50 7q30 0 49 -7t19 -18v-47q0 -76 76 -76q36 0 54.5 17t18.5 59v178q0 76 -73 76q-60 0 -73 -51q-11 -31 -37 -31l-34 -1q-66 0 -66 24l21 386q5 29 91 29h201q40 0 65.5 -9
t25.5 -23v-47q0 -14 -25.5 -23t-65.5 -9h-161l-11 -162q8 12 17 18.5t23.5 9t23.5 3t32.5 0t33.5 -0.5q77 0 117 -46t40 -135v-178q0 -95 -54.5 -145.5t-160.5 -50.5z" />
    <glyph glyph-name="six" unicode="6" 
d="M26 185q0 -108 66.5 -162t174.5 -54q107 0 173.5 54.5t66.5 161.5v143q0 104 -50.5 152.5t-152.5 48.5q-23 0 -34 -1q-16 0 -34 -5q-14 -3 -25 -10v78q0 41 12.5 58.5t46.5 17.5q56 0 56 -62q0 -23 25 -34q15 -6 29 -6h70q16 0 34.5 10t18.5 33q0 104 -66.5 157.5
t-169.5 53.5q-114 0 -177.5 -55.5t-63.5 -169.5v-409zM267 -11q-106 0 -163.5 51t-57.5 145v409q0 205 221 205q103 0 157.5 -49.5t58.5 -141.5q0 -10 -11 -17q-14 -6 -22 -6h-70q-15 0 -24.5 6.5t-9.5 13.5q0 82 -76 82q-40 0 -59.5 -21.5t-19.5 -74.5v-123q13 20 33 29
t37 10.5t53 1.5h12q79 0 120 -47t41 -134v-143q0 -94 -57.5 -145t-162.5 -51zM267 101q74 0 74 76v140q0 76 -74 76q-76 0 -76 -76v-140q0 -76 76 -76zM321 177q0 -29 -13 -42.5t-41 -13.5q-30 0 -43 13t-13 43v140q0 30 13 43t43 13q29 0 41.5 -13t12.5 -43v-140z" />
    <glyph glyph-name="seven" unicode="7" 
d="M137 -17q23 -4 42 -4q25 0 49 5q24 7 29 10q20 10 24 24l213 643q4 11 4 30v64q0 20 -21 34q-14 8 -34 12q-26 6 -56 6h-250q-30 0 -56 -6q-20 -4 -34 -12q-21 -14 -21 -34v-47q0 -20 21 -34q14 -8 34 -12q26 -6 56 -6h170q-20 -60 -108 -316l-73 -214q-14 -42 -23 -71
l-7 -20q-3 -8 -3 -14q0 -19 19 -29q7 -5 25 -9zM179 -1q-33 0 -50.5 7t-15.5 18l222 652h-198q-40 0 -65.5 9t-25.5 23v47q0 14 25.5 23t65.5 9h250q40 0 65.5 -9t25.5 -23v-64q0 -15 -3 -24l-213 -643q-5 -11 -28.5 -18t-54.5 -7z" />
    <glyph glyph-name="eight" unicode="8" 
d="M17 183q0 -110 67.5 -162t177.5 -52q109 0 178.5 52.5t69.5 161.5v22.5v26.5v22q-2 43 -9 69q-16 59 -66 94q68 50 68 154v34q0 108 -66.5 161t-174.5 53q-107 0 -173.5 -53t-66.5 -161q0 -67 12.5 -112t55.5 -77q-73 -52 -73 -163v-70zM262 -11q-110 0 -167.5 49.5
t-57.5 144.5v70q0 121 93 163q-88 42 -88 155v34q0 94 57 144t163 50t163.5 -50t57.5 -144v-34q0 -114 -88 -155q95 -42 95 -163v-70q0 -94 -59.5 -144t-168.5 -50zM262 468q76 0 76 79v61q0 79 -76 79t-76 -79v-61q0 -79 76 -79zM318 547q0 -31 -13 -45t-43 -14
q-56 0 -56 59v61q0 59 56 59t56 -59v-61zM262 101q81 0 81 90v74q0 90 -81 90q-79 0 -79 -90v-74q0 -90 79 -90zM323 191q0 -36 -14 -53t-47 -17q-32 0 -45.5 17t-13.5 53v74q0 70 59 70q32 0 46.5 -17t14.5 -53v-74z" />
    <glyph glyph-name="nine" unicode="9" 
d="M499 603q0 108 -66.5 162t-174.5 54q-107 0 -173.5 -54.5t-66.5 -161.5v-143q0 -104 50.5 -152.5t152.5 -48.5q23 0 34 1q16 0 34 5q14 3 25 10v-78q0 -41 -12.5 -58.5t-46.5 -17.5q-56 0 -56 62q0 23 -25 34q-15 6 -29 6h-70q-16 0 -34.5 -10t-18.5 -33
q0 -104 66.5 -157.5t169.5 -53.5q114 0 177.5 55.5t63.5 169.5v409zM258 799q106 0 163.5 -51t57.5 -145v-409q0 -205 -221 -205q-103 0 -157.5 49.5t-58.5 141.5q0 12 11 17q14 6 22 6h70q15 0 24.5 -6.5t9.5 -13.5q0 -82 76 -82q40 0 59.5 21.5t19.5 74.5v123
q-13 -20 -33 -29t-37 -10.5t-53 -1.5h-6.5h-5.5q-79 0 -120 47t-41 134v143q0 94 57.5 145t162.5 51zM258 687q-74 0 -74 -76v-140q0 -76 74 -76q76 0 76 76v140q0 76 -76 76zM204 611q0 29 13 42.5t41 13.5q30 0 43 -13t13 -43v-140q0 -30 -13 -43t-43 -13q-29 0 -41.5 13
t-12.5 43v140z" />
    <glyph glyph-name="colon" unicode=":" horiz-adv-x="247" 
d="M80 413q18 -3 45 -3q26 0 43 4q15 2 26 10q17 11 17 30v69q0 19 -17 30q-9 6 -26 10t-43 4q-27 0 -45 -4q-20 -4 -27 -9q-19 -13 -19 -31v-69q0 -18 19 -31q10 -6 27 -10zM125 430q-71 0 -71 24v69q0 24 71 24q66 0 66 -24v-69q0 -24 -66 -24zM80 -16q23 -5 45 -5t43 5
q17 4 26 10q17 13 17 30v71q0 19 -18 30q-12 7 -26 9q-20 5 -42 5q-21 0 -45 -4q-16 -4 -27 -10q-19 -12 -19 -30v-71q0 -18 19 -30q10 -6 27 -10zM125 -1q-31 0 -51 7t-20 18v71q0 11 20 17.5t51 6.5q29 0 47.5 -6.5t18.5 -17.5v-71q0 -11 -18.5 -18t-47.5 -7z" />
    <glyph glyph-name="semicolon" unicode=";" horiz-adv-x="247" 
d="M80 413q18 -3 45 -3q26 0 43 4q15 2 26 10q17 11 17 30v69q0 19 -17 30q-9 6 -26 10t-43 4q-27 0 -45 -4q-20 -4 -27 -9q-19 -13 -19 -31v-69q0 -18 19 -31q10 -6 27 -10zM125 430q-71 0 -71 24v69q0 24 71 24q66 0 66 -24v-69q0 -24 -66 -24zM55 -13q5 -5 13 -5h3
l-40 -98q-2 -2 -2 -8q0 -14 12 -23q7 -5 16 -7q3 0 7 -0.5t7 -0.5h8q16 0 25 2q23 3 31 19l65 117q11 18 11 47v65q0 19 -18 30q-12 7 -26 9q-20 5 -42 5q-21 0 -45 -4q-16 -4 -27 -10q-19 -12 -19 -30v-76q0 -24 21 -32zM79 -135q-30 0 -30 11l51 123h-12q-2 0 -10 1.5
t-10 1.5v3q-14 0 -14 14v76q0 11 20 17.5t51 6.5q29 0 47.5 -6.5t18.5 -17.5v-65q0 -21 -8 -37l-65 -117q-4 -11 -39 -11z" />
    <glyph glyph-name="less" unicode="&#x3c;" 
d="M419 203q19 0 36.5 10.5t17.5 35.5v18q0 13 -2 20q-6 25 -35 36l-200 70l200 72q11 5 20 12q17 11 17 29q0 16 1 23q0 12 -3 24q-10 31 -52 31q-27 0 -61 -12l-286 -108q-1 -1 -5 -2.5t-7.5 -3.5t-7.5 -4q-8 -6 -12 -10q-8 -11 -8 -20v-61q0 -11 9 -20q3 -3 11 -9
q10 -7 20 -11l286 -107q39 -13 61 -13zM453 249q0 -21 -23.5 -25t-64.5 11l-286 107q-27 11 -27 21v61q0 12 27 21l286 108q88 29 88 -14v-33q0 -5 -7 -11.5t-17 -10.5l-253 -91l253 -89q24 -11 24 -23v-32z" />
    <glyph glyph-name="equal" unicode="=" 
d="M84 426q26 -6 56 -6h247q30 0 56 6q20 4 34 12q21 14 21 34v26q0 21 -22 33q-12 7 -34 11q-27 5 -55 5h-247q-28 0 -55 -5q-22 -4 -34 -11q-22 -11 -22 -33v-26q0 -20 21 -34q14 -8 34 -12zM140 440q-41 0 -66 9t-25 23v26q0 29 91 29h247q91 0 91 -29v-26
q0 -14 -25.5 -23t-65.5 -9h-247zM84 244q22 -5 56 -5h247q29 0 56 5q20 4 34 12q21 13 21 34v24q0 20 -21 35q-10 7 -33 13q-26 6 -57 6h-247q-31 0 -57 -6q-23 -6 -33 -13q-21 -13 -21 -35v-24q0 -21 21 -34q14 -8 34 -12zM140 259q-91 0 -91 31v24q0 15 25 24.5t66 9.5
h247q40 0 65.5 -9.5t25.5 -24.5v-24q0 -31 -91 -31h-247z" />
    <glyph glyph-name="greater" unicode="&#x3e;" 
d="M55 234q10 -31 51 -31q23 0 60 13l289 107q10 4 20 11q9 6 11 9q9 9 9 20v61q0 9 -8 20q-4 4 -12 10q-4 2 -7.5 4t-7.5 3.5t-5 2.5l-289 108q-34 12 -60 12q-20 0 -36.5 -10t-16.5 -35q0 -14 -1 -20q0 -13 2 -20q6 -22 37 -34l196 -72l-196 -70q-10 -3 -21 -13
q-5 -3 -10 -10q-7 -9 -7 -19v-22q0 -16 2 -25zM159 235q-40 -15 -63 -11t-23 25v32q0 11 25 23l248 89l-248 91q-11 4 -18 10.5t-7 11.5v33q0 43 86 14l289 -108q27 -9 27 -21v-61q0 -10 -27 -21z" />
    <glyph glyph-name="question" unicode="?" horiz-adv-x="478" 
d="M176 191q16 -3 40 -3q25 0 41 3q19 5 26 9q18 9 18 29v23q0 30 23 68l26 35q20 24 31 37q41 50 65 98.5t24 111.5q0 108 -62.5 162.5t-170.5 54.5q-107 0 -170 -54.5t-63 -162.5v-42q2 -24 10 -34q10 -15 33 -20q18 -3 48 -3q22 0 42 5q14 2 26 9q18 11 18 30
q0 8 -0.5 24t-0.5 24q0 22 5 40q9 32 50 32q28 0 40.5 -13.5t12.5 -44.5q0 -33 -12 -65t-24.5 -51t-37.5 -52q-20 -26 -29 -39q-17 -24 -26 -43q-27 -51 -27 -106v-24q0 -18 18 -29q7 -4 26 -9zM220 208h-4q-64 0 -64 21v24q0 43 15.5 80.5t57.5 87.5q47 58 65 100t18 88
q0 78 -73 78q-74 0 -74 -78v-62q0 -11 -18.5 -17.5t-47.5 -6.5q-32 0 -51.5 6.5t-19.5 17.5v55q0 95 54.5 146t158.5 51t158.5 -51t54.5 -146q0 -53 -21 -100.5t-72 -108.5q-76 -82 -76 -141v-23q0 -21 -61 -21zM171 -16q23 -5 45 -5t45 5q16 4 27 10q18 11 18 30v71
q0 18 -19 30q-10 6 -27 10q-23 4 -44 4q-22 0 -45 -5q-14 -2 -27 -9q-19 -12 -19 -30v-71q0 -18 19 -30q10 -6 27 -10zM216 -1q-30 0 -50.5 7t-20.5 18v71q0 10 20.5 17t50.5 7q70 0 70 -24v-71q0 -11 -19 -18t-51 -7z" />
    <glyph glyph-name="at" unicode="@" horiz-adv-x="913" 
d="M14 325q0 -205 116.5 -309.5t322.5 -104.5q152 0 256 54q18 10 24 18q5 5 8 13q3 6 4 7l2 8q3 42 3 43q0 18 -11 29.5t-29 11.5q-14 0 -36 -6l-30 -10q-89 -32 -181 -32q-139 0 -213.5 68.5t-74.5 204.5q0 86 19.5 157t59.5 126t105 85.5t151 30.5q115 0 178.5 -54.5
t63.5 -164.5q0 -74 -18 -141q-23 -87 -65 -87h-7v2l1 4q1 2 2 6.5t1 6.5l32 292q3 20 -17 30q-6 5 -24 9q-15 3 -37 3q-68 0 -83 -33q-37 37 -99 37q-151 0 -177 -183q-2 -14 -6.5 -40.5t-5.5 -34.5q-7 -45 -7 -78q0 -70 37 -113.5t108 -43.5q72 0 116 45q31 -51 124 -51
q58 0 114 29q87 47 124 140.5t37 203.5q0 178 -102.5 264.5t-282.5 86.5q-236 0 -369.5 -146t-133.5 -383zM453 -69q-212 0 -315.5 105.5t-103.5 288.5q0 107 30 198t88.5 161t152 110t212.5 40q100 0 173 -25.5t114 -72.5t59.5 -104.5t18.5 -128.5q0 -96 -25 -168.5
t-64.5 -110.5t-81.5 -56t-84 -18q-107 0 -117 74q-39 -68 -123 -68q-59 0 -92 35.5t-33 101.5l3 38l16 112q22 166 157 166q81 0 110 -68l6 44q2 8 21 14t45 6q27 0 43.5 -6t14.5 -14l-32 -292l-4 -20q0 -21 27 -21q50 0 76.5 76.5t26.5 171.5q0 110 -65 174.5t-197 64.5
q-170 0 -262.5 -112t-92.5 -307q0 -139 77.5 -216t230.5 -77q111 0 188 33q24 8 38.5 11.5t24.5 2.5t13.5 -7.5t2.5 -18.5l-3 -35q-2 -2 -4.5 -8.5t-4.5 -8.5q-5 -6 -18 -13q-101 -52 -247 -52zM450 259q64 0 74 72l12 109q3 5 3 11q0 25 -17.5 38.5t-43.5 13.5
q-64 0 -74 -72l-12 -96v-18q0 -58 58 -58zM504 333q-6 -54 -54 -54q-38 0 -38 38q0 25 12 111q4 29 16.5 42t37.5 13q41 0 41 -33q-3 -7 -3 -8z" />
    <glyph glyph-name="A" unicode="A" 
d="M44 -18q15 -3 39 -3q28 0 45 4t27 10q17 10 20 28l18 115h131l18 -115q4 -18 22 -27q10 -6 27 -10q24 -5 47 -5q19 0 42 4q16 4 26 9q19 11 19 29v2v4l-140 735q-4 18 -23 29q-12 7 -31 11q-26 5 -54 5q-50 0 -68 -2q-24 -3 -40 -10q-25 -13 -30 -33l-137 -734v-3v-4
q0 -19 17 -30q7 -5 25 -9zM83 -1q-31 0 -47 6t-14 19l137 734q3 29 91 29h27q83 0 88 -29l140 -734q3 -11 -16.5 -18t-50.5 -7q-32 0 -53 7t-23 18l-21 132h-165l-21 -132q-4 -25 -72 -25zM255 650l-62 -365h132l-66 365h-4zM258 546l43 -241h-84z" />
    <glyph glyph-name="B" unicode="B" horiz-adv-x="533" 
d="M145 -21h137q106 0 173 49.5t67 156.5q0 51 -1 75q-2 42 -11 73q-18 60 -71 89q68 48 68 152v34q0 57 -18 97t-52 61.5t-74.5 31t-92.5 9.5h-125q-30 0 -56 -6q-20 -4 -34 -12q-21 -14 -21 -34v-722q0 -20 21 -35q12 -7 33 -13q26 -6 57 -6zM282 -1h-137q-40 0 -65.5 9.5
t-25.5 24.5v722q0 14 25.5 23t65.5 9h125q113 0 165 -44t52 -135v-34q0 -120 -95 -153q110 -34 110 -168v-68q0 -90 -56 -138t-164 -48zM198 663v-181h57q86 0 86 68v44q0 36 -17.5 52.5t-56.5 16.5h-69zM218 502v141h49q30 0 42 -10.5t12 -38.5v-44q0 -48 -66 -48h-37z
M198 343v-223h84q39 0 57 14t18 57v68q0 84 -95 84h-64zM218 140v183h44q39 0 57 -15t18 -49v-68q0 -31 -11 -41t-44 -10h-64z" />
    <glyph glyph-name="C" unicode="C" horiz-adv-x="506" 
d="M26 183q0 -105 62 -159.5t167 -54.5q108 0 172.5 53t64.5 161v87q0 18 -19 30q-7 4 -27 9q-24 4 -44 4q-31 0 -39 -1q-13 0 -26 -5q-22 -6 -22 -28v-92q0 -45 -53 -45t-53 45v409q0 50 53 50q40 0 49 -28q4 -13 4 -36v-14.5v-17v-14.5q0 -16 13 -25q9 -5 19 -7
q5 -1 16 -1h9q48 0 59 1q27 4 36 9q25 11 25 34v58q0 108 -64.5 161t-172.5 53q-105 0 -167 -54.5t-62 -159.5v-422zM255 -11q-102 0 -155.5 50.5t-53.5 143.5v422q0 93 53.5 143.5t155.5 50.5q107 0 162 -50.5t55 -143.5v-58q0 -24 -70 -24h-16q-28 0 -39.5 2t-11.5 11v60
q0 35 -20 52.5t-53 17.5t-53 -17.5t-20 -52.5v-409q0 -65 73 -65t73 65v92q0 14 67 14q70 0 70 -23v-87q0 -93 -55 -143.5t-162 -50.5z" />
    <glyph glyph-name="D" unicode="D" horiz-adv-x="533" 
d="M145 -21h129q109 0 172.5 53t63.5 162v400q0 109 -63.5 161t-172.5 52h-129q-30 0 -56 -6q-20 -4 -34 -12q-21 -14 -21 -34v-722q0 -20 21 -35q12 -7 33 -13q26 -6 57 -6zM274 -1h-129q-40 0 -65.5 9.5t-25.5 24.5v722q0 14 25.5 23t65.5 9h129q216 0 216 -193v-400
q0 -195 -216 -195zM198 657v-526h72q76 0 76 71v383q0 39 -19 55.5t-57 16.5h-72zM218 151v486h52q31 0 43.5 -11.5t12.5 -40.5v-383q0 -28 -13 -39.5t-43 -11.5h-52z" />
    <glyph glyph-name="E" unicode="E" horiz-adv-x="478" 
d="M88 -15q26 -6 57 -6h212q31 0 57 6q23 6 33 13q21 15 21 35v76q0 21 -22 34q-12 7 -33 11q-26 6 -56 6h-139v160h90q33 0 59 7q52 16 52 52v58q0 37 -51 53q-29 8 -60 8h-90v130h139q27 0 55 5q24 7 33 11q23 12 23 33v78q0 20 -21 34q-14 8 -34 12q-26 6 -56 6h-212
q-30 0 -56 -6q-20 -4 -34 -12q-21 -14 -21 -34v-722q0 -20 21 -35q10 -7 33 -13zM145 -1q-40 0 -65.5 9.5t-25.5 24.5v722q0 14 25.5 23t65.5 9h212q40 0 65.5 -9t25.5 -23v-78q0 -12 -25.5 -20.5t-65.5 -8.5h-159v-170h110q40 0 65.5 -11.5t25.5 -29.5v-58q0 -18 -25 -28.5
t-66 -10.5h-110v-200h159q40 0 65.5 -8.5t25.5 -22.5v-76q0 -15 -25.5 -24.5t-65.5 -9.5h-212z" />
    <glyph glyph-name="F" unicode="F" horiz-adv-x="452" 
d="M413 801q-26 6 -56 6h-212q-30 0 -56 -6q-20 -4 -34 -12q-21 -14 -21 -34v-731q0 -20 20 -31q11 -7 28 -9q22 -5 46 -5q23 0 44 5q17 4 28 10q18 11 18 30v296h90q33 0 59 7q52 16 52 52v58q0 37 -51 53q-29 8 -60 8h-90v130h139q27 0 55 5q24 7 33 11q23 12 23 33v78
q0 20 -21 34q-14 8 -34 12zM357 787q40 0 65.5 -9t25.5 -23v-78q0 -12 -25.5 -20.5t-65.5 -8.5h-159v-170h110q40 0 65.5 -11.5t25.5 -29.5v-58q0 -18 -25 -28.5t-66 -10.5h-110v-316q0 -11 -19 -18t-51 -7q-33 0 -53.5 7t-20.5 18v731q0 14 25.5 23t65.5 9h212z" />
    <glyph glyph-name="G" unicode="G" horiz-adv-x="514" 
d="M363 503h9q48 0 59 1q27 4 36 9q25 11 25 34v58q0 108 -64.5 161t-172.5 53q-105 0 -167 -54.5t-62 -159.5v-422q0 -105 62 -159.5t167 -54.5q108 0 172.5 53t64.5 161v258q0 21 -20 35q-12 8 -33 14q-27 7 -58 7q-43 0 -72 -4q-25 -4 -41 -13q-26 -14 -26 -39
q0 -13 -0.5 -30.5t-0.5 -22.5v-19q2 -11 6 -19q9 -15 36 -19q8 -1 32 -1v-143q0 -45 -53 -45t-53 45v409q0 50 53 50q40 0 49 -28q4 -13 4 -36v-14.5v-17v-14.5q0 -16 13 -25q9 -5 19 -7q5 -1 16 -1zM402 523h-16q-28 0 -39.5 2t-11.5 11v60q0 35 -20 52.5t-53 17.5
t-53 -17.5t-20 -52.5v-409q0 -65 73 -65t73 65v163h-37q-36 0 -36 16v75q0 15 25.5 25.5t66.5 10.5h27q40 0 65.5 -10.5t25.5 -25.5v-258q0 -93 -55 -143.5t-162 -50.5q-102 0 -155.5 50.5t-53.5 143.5v422q0 93 53.5 143.5t155.5 50.5q107 0 162 -50.5t55 -143.5v-58
q0 -24 -70 -24z" />
    <glyph glyph-name="H" unicode="H" horiz-adv-x="551" 
d="M82 -16q22 -5 46 -5q22 0 45 5q16 4 27 10q18 11 18 30v284h115v-284q0 -20 19 -30q11 -6 28 -10q22 -5 46 -5t46 5q17 4 28 10q19 10 19 30v739q0 20 -20 30q-9 6 -28 10q-24 4 -45 4t-45 -4q-19 -4 -28 -10q-20 -10 -20 -30v-275h-115v275q0 18 -19 30q-10 6 -27 10
q-23 4 -44 4t-46 -4q-17 -4 -28 -10q-20 -10 -20 -30v-739q0 -20 20 -31q11 -7 28 -9zM128 -1q-33 0 -53.5 7t-20.5 18v739q0 24 74 24q70 0 70 -24v-295h155v295q0 10 20.5 17t52.5 7t52.5 -7t20.5 -17v-739q0 -11 -21 -18t-52 -7t-52 7t-21 18v304h-155v-304
q0 -11 -19 -18t-51 -7z" />
    <glyph glyph-name="I" unicode="I" horiz-adv-x="252" 
d="M82 -16q22 -5 46 -5q22 0 45 5q16 4 27 10q18 11 18 30v739q0 18 -19 30q-10 6 -27 10q-23 4 -44 4t-46 -4q-17 -4 -28 -10q-20 -10 -20 -30v-739q0 -20 20 -31q11 -7 28 -9zM128 -1q-33 0 -53.5 7t-20.5 18v739q0 24 74 24q70 0 70 -24v-739q0 -11 -19 -18t-51 -7z" />
    <glyph glyph-name="J" unicode="J" horiz-adv-x="347" 
d="M48 -24q26 -3 40 -3q108 0 168.5 51.5t60.5 160.5v578q0 21 -20 30q-10 6 -27 10q-24 4 -45 4t-45 -4q-19 -4 -28 -10q-20 -10 -20 -30v-537q0 -30 -11.5 -40t-35.5 -13q-7 0 -23 -0.5t-22 -1.5q-38 -6 -38 -36v-125q0 -19 21 -27q10 -5 25 -7zM88 -7l-36 3q-12 0 -21 5
t-9 9v125q0 10 12 14q5 3 23 3h12q43 0 63 17.5t20 56.5v537q0 10 20.5 17t52.5 7q31 0 51.5 -6.5t20.5 -17.5v-578q0 -192 -209 -192z" />
    <glyph glyph-name="K" unicode="K" horiz-adv-x="545" 
d="M82 -16q22 -5 46 -5q22 0 45 5q16 4 27 10q18 11 18 30v223l32 55l99 -282q10 -25 52 -36q25 -5 52 -5q21 0 44 4q17 4 26 10q19 11 19 30l-3 12q0 2 -1 4t-2 5.5t-2 5.5l-4.5 13.5t-6.5 19t-6 18.5q-8 23 -27 77t-27 78l-84 240q2 4 78 134l51 89q4 7 9.5 17t6.5 12l5 9
q4 7 4 13q0 18 -18 27q-11 5 -24 7q-14 3 -35 3q-26 0 -51 -5q-20 -4 -29 -8q-19 -8 -25 -21l-133 -239v229q0 18 -19 30q-10 6 -27 10q-23 4 -44 4t-46 -4q-17 -4 -28 -10q-20 -10 -20 -30v-739q0 -20 20 -31q7 -4 28 -9zM128 -1q-33 0 -53.5 7t-20.5 18v739q0 24 74 24
q70 0 70 -24v-306l170 306q15 24 88 24q59 0 57 -18q-1 -3 -3 -6l-153 -265l164 -471q4 -13 -14.5 -20.5t-53.5 -7.5q-77 0 -85 28l-113 322l-57 -97v-228q0 -11 -19 -18t-51 -7z" />
    <glyph glyph-name="L" unicode="L" horiz-adv-x="452" 
d="M88 -15q26 -6 57 -6h201q30 0 58 6q21 6 33 13q21 15 21 35v67q0 20 -21 35q-12 7 -33 13q-28 6 -58 6h-128v609q0 18 -19 30q-10 6 -27 10q-23 4 -44 4t-46 -4q-17 -4 -28 -10q-20 -10 -20 -30v-730q0 -20 21 -35q10 -7 33 -13zM145 -1q-40 0 -65.5 9.5t-25.5 24.5v730
q0 24 74 24q70 0 70 -24v-629h148q42 0 67 -9.5t25 -24.5v-67q0 -15 -25 -24.5t-67 -9.5h-201z" />
    <glyph glyph-name="M" unicode="M" horiz-adv-x="706" 
d="M75 -17q21 -4 40 -4q25 0 41 3q15 4 25 10q18 11 18 29l2 350l61 -353q3 -15 19 -26q11 -6 25 -9q20 -4 40 -4q21 0 42 4q19 5 26 9q16 9 20 26l61 353l2 -347q0 -18 17 -31q11 -6 27 -10q17 -4 44 -4t44 4t27 10q18 12 18 31v731q0 20 -21 34q-14 8 -34 12q-26 6 -56 6
q-51 0 -69 -2q-27 -4 -42 -10q-26 -11 -31 -33l-67 -319l-69 319q-5 20 -24 29q-11 7 -32 11q-26 5 -55 5q-48 0 -70 -3q-25 -4 -43 -12q-27 -12 -27 -37v-734q0 -18 17 -29q6 -4 24 -9zM115 -1q-61 0 -61 22v734q0 14 25.5 23t65.5 9h29q85 0 91 -29l89 -410l87 410
q6 29 91 29h31q40 0 65.5 -9t25.5 -23v-731q0 -25 -69 -25q-68 0 -68 25l-3 572l-100 -575q-5 -22 -68 -22q-58 0 -64 22l-99 575l-4 -575q0 -22 -64 -22z" />
    <glyph glyph-name="N" unicode="N" horiz-adv-x="559" 
d="M77 -17q16 -4 41 -4t41 3q16 4 26 9q18 11 18 30v388l128 -391q5 -17 24 -24q12 -7 29 -10q24 -5 49 -5t48 5q14 3 29 11q19 13 19 32v739q0 18 -19 29q-9 5 -27 9q-17 3 -42 3q-24 0 -40 -3q-19 -5 -26 -9q-18 -11 -18 -29v-285l-95 285q-7 18 -26 26q-13 7 -32 10
q-26 5 -55 5q-30 0 -58 -6q-24 -6 -34 -12q-23 -14 -23 -34v-734q0 -18 18 -29q12 -7 25 -9zM118 -1q-64 0 -64 22v734q0 14 27.5 23t67.5 9q84 0 94 -27l134 -402v408q0 21 64 21q68 0 68 -21v-739q0 -13 -21 -20.5t-55 -7.5q-71 0 -83 25l-167 511v-514q0 -22 -65 -22z
" />
    <glyph glyph-name="O" unicode="O" 
d="M22 185q0 -107 66.5 -161.5t173.5 -54.5q108 0 173 54t65 162v417q0 109 -65 163t-173 54q-107 0 -173.5 -54.5t-66.5 -162.5v-417zM262 -11q-105 0 -162.5 51t-57.5 145v417q0 94 57.5 145.5t162.5 51.5q106 0 162 -51t56 -146v-417q0 -94 -56 -145t-162 -51zM262 119
q76 0 76 72v405q0 73 -76 73q-73 0 -73 -73v-405q0 -72 73 -72zM318 191q0 -52 -56 -52q-28 0 -40.5 12t-12.5 40v405q0 53 53 53q56 0 56 -53v-405z" />
    <glyph glyph-name="P" unicode="P" horiz-adv-x="508" 
d="M82 -16q22 -5 46 -5q23 0 44 5q17 4 27 10q19 11 19 30v276h49q109 0 171 53.5t62 162.5v78q0 109 -62 161t-171 52h-122q-30 0 -56 -6q-20 -4 -34 -12q-21 -14 -21 -34v-731q0 -20 20 -31q11 -7 28 -9zM128 -1q-33 0 -53.5 7t-20.5 18v731q0 14 25.5 23t65.5 9h122
q213 0 213 -193v-78q0 -196 -213 -196h-69v-296q0 -11 -19 -18t-51 -7zM198 659v-211h69q36 0 53.5 15.5t17.5 51.5v80q0 64 -71 64h-69zM218 468v171h49q29 0 40 -9.5t11 -34.5v-80q0 -27 -11 -37t-40 -10h-49z" />
    <glyph glyph-name="Q" unicode="Q" horiz-adv-x="544" 
d="M523 123l-25 24q2 26 2 38v417q0 109 -65 163t-173 54q-107 0 -173.5 -54.5t-66.5 -162.5v-417q0 -107 66.5 -161.5t173.5 -54.5q74 0 128 25q5 -6 11 -11q4 -6 15 -14t22 -8q32 0 73.5 42t41.5 74q0 9 -5 16q-6 9 -7 10q-10 12 -18 20zM476 140l54 -54q7 -7 -2 -27
t-32 -43q-22 -22 -41 -30.5t-26 -1.5l-35 35q-51 -30 -132 -30q-105 0 -162.5 51t-57.5 145v417q0 94 57.5 145.5t162.5 51.5q106 0 162 -51t56 -146v-417q0 -26 -4 -45zM262 114q76 0 76 72v414q0 74 -76 74q-73 0 -73 -74v-414q0 -72 73 -72zM318 186q0 -52 -56 -52
q-28 0 -40.5 12t-12.5 40v414q0 28 12.5 41t40.5 13q56 0 56 -54v-414z" />
    <glyph glyph-name="R" unicode="R" horiz-adv-x="529" 
d="M82 -16q22 -5 46 -5q23 0 44 5q17 4 27 10q19 11 19 30v291h32q41 0 54.5 -15t13.5 -60q0 -11 -1 -47.5t-1 -59.5q0 -81 8 -114q3 -16 23 -26q11 -5 29 -9q25 -5 50 -5q26 0 43 4q15 4 25 11q16 12 16 30q0 2 -0.5 5.5t-0.5 4.5q-1 1 -1 3.5t-1 3.5q-2 8 -2 10
q-2 15 -2 44v140q0 125 -68 168q65 47 65 155v50q0 199 -233 199h-122q-30 0 -56 -6q-20 -4 -34 -12q-21 -14 -21 -34v-731q0 -20 20 -31q11 -7 28 -9zM128 -1q-33 0 -53.5 7t-20.5 18v731q0 14 25.5 23t65.5 9h122q111 0 162 -44t51 -135v-50q0 -125 -93 -156
q96 -25 96 -167v-140q0 -49 7 -71q2 -11 -15.5 -18t-48.5 -7q-34 0 -57.5 7t-25.5 18q-5 40 -5 71v145q0 54 -20 74.5t-68 20.5h-52v-311q0 -11 -19 -18t-51 -7zM198 657v-187h54q86 0 86 68v51q0 68 -73 68h-67zM218 490v147h47q29 0 41 -10.5t12 -37.5v-51
q0 -26 -15.5 -37t-50.5 -11h-34z" />
    <glyph glyph-name="S" unicode="S" horiz-adv-x="490" 
d="M10 185q0 -109 62 -162.5t171 -53.5t173 55t64 164q0 47 -12 86.5t-37 71t-46 51.5t-55 46q-42 32 -51 40q-20 16 -44 41q-39 44 -39 98q0 32 54 32q39 0 46 -12q5 -5 6 -18q1 -10 1 -36q0 -16 17 -28q11 -6 23 -8q20 -4 37 -4q37 0 46 1q19 2 28 6q22 10 22 30
q0 117 -55.5 175.5t-173.5 58.5q-107 0 -170 -53.5t-63 -160.5q0 -45 12 -83t37 -69t45.5 -50t54.5 -46l51 -41q24 -21 43 -43q39 -47 39 -105q0 -20 -12.5 -27.5t-43.5 -7.5q-42 0 -50 13q-4 5 -5 21q-1 12 -1 41q0 18 -19 30q-12 7 -27 9q-21 5 -43 5q-20 0 -40 -5
q-13 -1 -26 -8q-19 -9 -19 -28v-26zM243 -11q-106 0 -159.5 50.5t-53.5 145.5v26q0 8 19 14.5t46 6.5q31 0 50 -7t19 -17v-42q0 -53 76 -53t76 55q0 58 -26.5 97t-98.5 93q-88 67 -122.5 122t-34.5 125q0 93 54 143.5t159 50.5q104 0 156.5 -50.5t52.5 -146.5v-17
q0 -17 -45 -17h-31q-57 0 -57 20v34q0 52 -73 52q-74 0 -74 -52q0 -51 26.5 -89.5t98.5 -92.5q91 -68 125 -122.5t34 -129.5q0 -96 -56 -147.5t-161 -51.5z" />
    <glyph glyph-name="T" unicode="T" horiz-adv-x="478" 
d="M192 -16q22 -5 45 -5t46 5q17 2 28 9q20 11 20 31v593q53 0 65 1q37 4 54 12q33 14 33 45v69q0 36 -50 54q-28 9 -61 9h-266q-33 0 -61 -9q-50 -18 -50 -54v-69q0 -29 33 -45q17 -8 54 -12q12 -1 65 -1v-593q0 -19 18 -30q11 -6 27 -10zM237 -1q-32 0 -51 7t-19 18v614
h-76q-34 0 -55 10.5t-21 26.5v69q0 18 25.5 30.5t65.5 12.5h266q40 0 65.5 -12.5t25.5 -30.5v-69q0 -17 -21 -27t-55 -10h-76v-614q0 -11 -20.5 -18t-53.5 -7z" />
    <glyph glyph-name="U" unicode="U" horiz-adv-x="529" 
d="M29 185q0 -109 64 -162.5t172 -53.5q107 0 170 54.5t63 161.5v578q0 19 -17 30q-12 8 -27 10q-16 4 -43 4t-44 -3q-17 -4 -28 -10q-18 -12 -18 -31v-558q0 -31 -12 -43.5t-42 -12.5q-31 0 -43.5 12.5t-12.5 43.5v558q0 19 -19 30q-9 6 -26 10q-24 4 -44 4q-21 0 -45 -4
q-18 -4 -28 -9q-20 -11 -20 -31v-578zM265 -11q-106 0 -161 50.5t-55 145.5v578q0 24 73 24q69 0 69 -24v-558q0 -42 19.5 -59t56.5 -17t55.5 17t18.5 59v558q0 24 70 24q67 0 67 -24v-578q0 -94 -54.5 -145t-158.5 -51z" />
    <glyph glyph-name="V" unicode="V" horiz-adv-x="502" 
d="M184 -16q26 -5 56 -5q46 0 66 3q25 4 39 11q24 12 28 34l127 737v4q0 21 -19 29q-10 5 -24 7q-16 3 -38 3q-26 0 -42 -3q-19 -5 -26 -9q-17 -9 -21 -26l-74 -462l-69 459q-2 16 -23 28q-10 5 -28 9q-25 4 -48 4q-18 0 -41 -4q-13 -2 -26 -8q-19 -11 -19 -30v-3v-2
l127 -733q4 -19 23 -31q14 -8 32 -12zM240 -1q-86 0 -91 31l-127 733q-2 11 16.5 17.5t49.5 6.5q74 0 79 -24l88 -586l95 589q4 21 69 21q31 0 47 -5.5t14 -15.5l-127 -736q-5 -31 -91 -31h-22z" />
    <glyph glyph-name="W" unicode="W" horiz-adv-x="731" 
d="M145 -16q27 -5 56 -5q39 0 65 4q25 4 38 11q24 11 27 33l41 317l42 -317q3 -20 24 -31q9 -5 33 -12q29 -5 58 -5q23 0 57 6q26 7 34 12q22 12 24 31l84 736v5q0 18 -18 28q-9 5 -23 7q-15 3 -36 3q-25 0 -41 -3q-18 -4 -25 -9q-17 -9 -20 -27l-44 -363l-45 357
q-2 19 -22 30q-11 6 -30 10q-25 5 -51 5q-25 0 -50 -4q-14 -3 -29 -11q-20 -11 -22 -29l-51 -361l-40 363q-3 19 -20 29q-9 5 -27 10q-18 3 -46 3q-26 0 -43 -4q-15 -2 -27 -10q-19 -12 -16 -32l88 -733q2 -20 23 -32q8 -6 32 -12zM201 -1q-41 0 -66 9t-25 22l-88 733
q0 24 66 24q73 0 73 -24l58 -521l73 518q3 27 81 27t83 -27l65 -518l64 524q1 21 66 21q29 0 44 -5.5t13 -15.5l-84 -736q-3 -13 -30 -22t-65 -9q-90 0 -95 31l-62 467l-61 -467q-5 -31 -91 -31h-19z" />
    <glyph glyph-name="X" unicode="X" horiz-adv-x="533" 
d="M45 -18q14 -3 38 -3q29 0 47 4q40 10 49 33l80 186l80 -183q10 -24 51 -34q23 -6 51 -6q21 0 44 4q17 4 26 10q19 11 19 30l-3 12q-1 2 -2.5 6t-2.5 6l-17 41q-9 23 -51 123q-17 42 -45.5 110t-33.5 81l76 184q9 21 25.5 61.5t23.5 57.5q3 7 6 14.5l6 15t4 10.5
q1 2 1.5 4.5t1.5 4.5t1 3q3 6 3 11q0 19 -18 29q-10 5 -25 7q-16 3 -39 3q-29 0 -46 -4q-37 -7 -48 -32l-74 -168l-69 165q-10 26 -54 34q-24 5 -52 5q-25 0 -41 -3q-19 -5 -26 -9q-18 -11 -18 -30q0 -5 3 -11l4 -12l16 -40q6 -16 23 -56t26 -62l76 -182q-20 -46 -81 -192
l-52 -124q-7 -17 -17 -42l-5 -12q-3 -10 -3 -12q0 -18 17 -29q7 -5 25 -9zM83 -1q-32 0 -47.5 6.5t-11.5 18.5l159 378l-149 358q-5 13 12 20t52 7q77 0 88 -27l87 -208l92 211q10 24 76 24q33 0 49.5 -6t11.5 -18l-149 -361l156 -375q4 -13 -14.5 -20.5t-53.5 -7.5
q-72 0 -84 28l-98 226l-98 -229q-10 -25 -78 -25z" />
    <glyph glyph-name="Y" unicode="Y" horiz-adv-x="517" 
d="M213 -16q23 -5 46 -5t45 5q17 4 28 10q19 12 19 30v307q11 31 86 224l54 141q14 38 17 47q1 3 5 13l3 12q0 20 -19 29q-4 2 -24 8q-16 2 -39 2q-29 0 -47 -4q-39 -8 -49 -33l-74 -201l-71 198q-6 15 -24 25q-11 6 -29 10q-25 5 -52 5q-25 0 -42 -3q-16 -4 -26 -9
q-19 -12 -19 -30q0 -5 3 -12l5 -14q2 -6 8 -22l9 -24q7 -19 25.5 -66.5t28.5 -73.5q16 -41 36 -92t33 -85.5t17 -44.5v-307q0 -20 19 -30q11 -6 28 -10zM259 -1q-32 0 -52.5 7t-20.5 18v311l-164 425q-5 13 13 20t53 7q76 0 86 -27l90 -249l93 252q8 24 77 24q34 0 50 -6
t11 -18l-164 -428v-311q0 -11 -20.5 -18t-51.5 -7z" />
    <glyph glyph-name="Z" unicode="Z" horiz-adv-x="475" 
d="M54 -11q28 -9 61 -9h242q33 0 61 9q50 15 50 54v57q0 39 -50 54q-28 9 -61 9h-144l246 447q9 20 9 53v81q0 36 -50 54q-28 9 -61 9h-229q-33 0 -61 -9q-50 -15 -50 -54v-62q0 -39 50 -54q28 -9 61 -9h130l-242 -448q-12 -23 -12 -53v-75q0 -39 50 -54zM115 0
q-40 0 -65.5 12t-25.5 31v75q0 24 10 43l258 478h-164q-41 0 -66 12.5t-25 30.5v62q0 18 25 30.5t66 12.5h229q40 0 65.5 -12.5t25.5 -30.5v-81q0 -8 -7 -43l-262 -477h178q40 0 65.5 -12t25.5 -31v-57q0 -19 -25.5 -31t-65.5 -12h-242z" />
    <glyph glyph-name="bracketleft" unicode="[" horiz-adv-x="361" 
d="M110 -72q26 -6 57 -6h58q31 0 57 6q19 3 33 12q21 15 21 35v52q0 15 -11 22q-5 5 -17 9q-17 5 -35 5q-11 1 -32 1v660h32q25 2 35 5q12 5 17 9q11 9 11 22v53q0 21 -21 34q-14 8 -34 12q-26 6 -56 6h-58q-30 0 -56 -6q-20 -4 -34 -12q-21 -14 -21 -34v-838q0 -20 21 -35
q14 -9 33 -12zM167 -58q-41 0 -66 9t-25 24v838q0 14 25.5 23t65.5 9h58q41 0 66 -9t25 -23v-53q0 -15 -46 -15h-49v-702h49q46 0 46 -16v-52q0 -15 -24.5 -24t-66.5 -9h-58z" />
    <glyph glyph-name="backslash" unicode="\" horiz-adv-x="511" 
d="M394 -17q23 -4 44 -4t34 3q14 2 22 8q17 8 17 27q0 6 -3 12l-345 745q-9 22 -47 30q-16 3 -43 3q-20 0 -33 -2q-17 -5 -22 -7q-17 -10 -17 -27q0 -7 3 -13l343 -745q10 -22 47 -30zM438 -1q-62 0 -73 22l-343 745q-5 10 9 15.5t42 5.5q65 0 72 -21l345 -745
q4 -10 -10 -16t-42 -6z" />
    <glyph glyph-name="bracketright" unicode="]" horiz-adv-x="361" 
d="M80 -72q26 -6 57 -6h57q31 0 57 6q19 3 34 12q21 15 21 35v838q0 21 -22 34q-14 9 -33 12q-28 6 -57 6h-57q-30 0 -56 -6q-20 -4 -34 -12q-21 -14 -21 -34v-53q0 -15 11 -22q5 -5 17 -9q9 -3 34 -5h32v-660q-21 0 -32 -1q-17 0 -35 -5q-12 -5 -16 -9q-11 -7 -11 -22v-52
q0 -20 21 -35q14 -9 33 -12zM137 -58q-41 0 -66 9t-25 24v52q0 16 45 16h49v702h-49q-45 0 -45 15v53q0 14 25.5 23t65.5 9h57q41 0 66.5 -9t25.5 -23v-838q0 -15 -25 -24t-67 -9h-57z" />
    <glyph glyph-name="asciicircum" unicode="^" 
d="M54 466q13 -2 31 -2q21 0 41 4q11 1 24 7q15 6 22 17l90 146l89 -145q8 -13 22 -18q13 -6 24 -7q20 -4 41 -4q19 0 32 2q2 1 6 2l8 2t7 3q17 9 17 26q0 6 -4 13l-5 9q-7 12 -18 30q-35 56 -55 89q-88 139 -90 143q-11 17 -40 22q-12 2 -34 2t-34 -2q-30 -5 -41 -22
l-89 -144q-9 -14 -19 -30t-20.5 -33.5t-15.5 -24.5l-18 -30q-1 -2 -3 -5t-2 -4q-4 -7 -4 -13q0 -17 17 -26q3 -2 7 -3l8 -2t6 -2zM85 484q-52 0 -49 16l1 3l167 269q8 15 58 15q49 0 57 -15l168 -269q6 -10 -15 -16q-14 -3 -34 -3q-61 0 -70 19l-106 173l-107 -173
q-10 -19 -70 -19z" />
    <glyph glyph-name="underscore" unicode="_" horiz-adv-x="395" 
d="M34 -117q26 -6 57 -6h213q31 0 57 6q23 6 33 13q21 15 21 35v24q0 20 -21 35q-10 7 -33 13q-26 6 -57 6h-213q-31 0 -57 -6q-23 -6 -33 -13q-21 -15 -21 -35v-24q0 -20 21 -35q10 -7 33 -13zM91 -103q-40 0 -65.5 9.5t-25.5 24.5v24q0 15 25.5 24.5t65.5 9.5h213
q40 0 65.5 -9.5t25.5 -24.5v-24q0 -15 -25.5 -24.5t-65.5 -9.5h-213z" />
    <glyph glyph-name="grave" unicode="`" horiz-adv-x="658" 
d="M268 844q27 -24 85 -24q17 0 28 2t20 7q16 8 16 25q0 10 -6 17l-64 88q-14 20 -55 27q-24 5 -52 5q-22 0 -36 -2q-21 -5 -24 -7q-19 -11 -19 -28q0 -15 12 -25zM353 840q-58 0 -72 19l-95 85q-17 20 24 25l30 2q32 0 58.5 -7t32.5 -17l64 -88q8 -12 -16 -17
q-11 -2 -26 -2z" />
    <glyph glyph-name="a" unicode="a" 
d="M44 -18q15 -3 39 -3q28 0 45 4t27 10q17 10 20 28l18 115h131l18 -115q4 -18 22 -27q10 -6 27 -10q24 -5 47 -5q19 0 42 4q16 4 26 9q19 11 19 29v2v4l-140 735q-4 18 -23 29q-12 7 -31 11q-26 5 -54 5q-50 0 -68 -2q-24 -3 -40 -10q-25 -13 -30 -33l-137 -734v-3v-4
q0 -19 17 -30q7 -5 25 -9zM83 -1q-31 0 -47 6t-14 19l137 734q3 29 91 29h27q83 0 88 -29l140 -734q3 -11 -16.5 -18t-50.5 -7q-32 0 -53 7t-23 18l-21 132h-165l-21 -132q-4 -25 -72 -25zM255 650l-62 -365h132l-66 365h-4zM258 546l43 -241h-84z" />
    <glyph glyph-name="b" unicode="b" horiz-adv-x="533" 
d="M145 -21h137q106 0 173 49.5t67 156.5q0 51 -1 75q-2 42 -11 73q-18 60 -71 89q68 48 68 152v34q0 57 -18 97t-52 61.5t-74.5 31t-92.5 9.5h-125q-30 0 -56 -6q-20 -4 -34 -12q-21 -14 -21 -34v-722q0 -20 21 -35q12 -7 33 -13q26 -6 57 -6zM282 -1h-137q-40 0 -65.5 9.5
t-25.5 24.5v722q0 14 25.5 23t65.5 9h125q113 0 165 -44t52 -135v-34q0 -120 -95 -153q110 -34 110 -168v-68q0 -90 -56 -138t-164 -48zM198 663v-181h57q86 0 86 68v44q0 36 -17.5 52.5t-56.5 16.5h-69zM218 502v141h49q30 0 42 -10.5t12 -38.5v-44q0 -48 -66 -48h-37z
M198 343v-223h84q39 0 57 14t18 57v68q0 84 -95 84h-64zM218 140v183h44q39 0 57 -15t18 -49v-68q0 -31 -11 -41t-44 -10h-64z" />
    <glyph glyph-name="c" unicode="c" horiz-adv-x="506" 
d="M26 183q0 -105 62 -159.5t167 -54.5q108 0 172.5 53t64.5 161v87q0 18 -19 30q-7 4 -27 9q-24 4 -44 4q-31 0 -39 -1q-13 0 -26 -5q-22 -6 -22 -28v-92q0 -45 -53 -45t-53 45v409q0 50 53 50q40 0 49 -28q4 -13 4 -36v-14.5v-17v-14.5q0 -16 13 -25q9 -5 19 -7
q5 -1 16 -1h9q48 0 59 1q27 4 36 9q25 11 25 34v58q0 108 -64.5 161t-172.5 53q-105 0 -167 -54.5t-62 -159.5v-422zM255 -11q-102 0 -155.5 50.5t-53.5 143.5v422q0 93 53.5 143.5t155.5 50.5q107 0 162 -50.5t55 -143.5v-58q0 -24 -70 -24h-16q-28 0 -39.5 2t-11.5 11v60
q0 35 -20 52.5t-53 17.5t-53 -17.5t-20 -52.5v-409q0 -65 73 -65t73 65v92q0 14 67 14q70 0 70 -23v-87q0 -93 -55 -143.5t-162 -50.5z" />
    <glyph glyph-name="d" unicode="d" horiz-adv-x="533" 
d="M145 -21h129q109 0 172.5 53t63.5 162v400q0 109 -63.5 161t-172.5 52h-129q-30 0 -56 -6q-20 -4 -34 -12q-21 -14 -21 -34v-722q0 -20 21 -35q12 -7 33 -13q26 -6 57 -6zM274 -1h-129q-40 0 -65.5 9.5t-25.5 24.5v722q0 14 25.5 23t65.5 9h129q216 0 216 -193v-400
q0 -195 -216 -195zM198 657v-526h72q76 0 76 71v383q0 39 -19 55.5t-57 16.5h-72zM218 151v486h52q31 0 43.5 -11.5t12.5 -40.5v-383q0 -28 -13 -39.5t-43 -11.5h-52z" />
    <glyph glyph-name="e" unicode="e" horiz-adv-x="478" 
d="M88 -15q26 -6 57 -6h212q31 0 57 6q23 6 33 13q21 15 21 35v76q0 21 -22 34q-12 7 -33 11q-26 6 -56 6h-139v160h90q33 0 59 7q52 16 52 52v58q0 37 -51 53q-29 8 -60 8h-90v130h139q27 0 55 5q24 7 33 11q23 12 23 33v78q0 20 -21 34q-14 8 -34 12q-26 6 -56 6h-212
q-30 0 -56 -6q-20 -4 -34 -12q-21 -14 -21 -34v-722q0 -20 21 -35q10 -7 33 -13zM145 -1q-40 0 -65.5 9.5t-25.5 24.5v722q0 14 25.5 23t65.5 9h212q40 0 65.5 -9t25.5 -23v-78q0 -12 -25.5 -20.5t-65.5 -8.5h-159v-170h110q40 0 65.5 -11.5t25.5 -29.5v-58q0 -18 -25 -28.5
t-66 -10.5h-110v-200h159q40 0 65.5 -8.5t25.5 -22.5v-76q0 -15 -25.5 -24.5t-65.5 -9.5h-212z" />
    <glyph glyph-name="f" unicode="f" horiz-adv-x="452" 
d="M413 801q-26 6 -56 6h-212q-30 0 -56 -6q-20 -4 -34 -12q-21 -14 -21 -34v-731q0 -20 20 -31q11 -7 28 -9q22 -5 46 -5q23 0 44 5q17 4 28 10q18 11 18 30v296h90q33 0 59 7q52 16 52 52v58q0 37 -51 53q-29 8 -60 8h-90v130h139q27 0 55 5q24 7 33 11q23 12 23 33v78
q0 20 -21 34q-14 8 -34 12zM357 787q40 0 65.5 -9t25.5 -23v-78q0 -12 -25.5 -20.5t-65.5 -8.5h-159v-170h110q40 0 65.5 -11.5t25.5 -29.5v-58q0 -18 -25 -28.5t-66 -10.5h-110v-316q0 -11 -19 -18t-51 -7q-33 0 -53.5 7t-20.5 18v731q0 14 25.5 23t65.5 9h212z" />
    <glyph glyph-name="g" unicode="g" horiz-adv-x="514" 
d="M363 503h9q48 0 59 1q27 4 36 9q25 11 25 34v58q0 108 -64.5 161t-172.5 53q-105 0 -167 -54.5t-62 -159.5v-422q0 -105 62 -159.5t167 -54.5q108 0 172.5 53t64.5 161v258q0 21 -20 35q-12 8 -33 14q-27 7 -58 7q-43 0 -72 -4q-25 -4 -41 -13q-26 -14 -26 -39
q0 -13 -0.5 -30.5t-0.5 -22.5v-19q2 -11 6 -19q9 -15 36 -19q8 -1 32 -1v-143q0 -45 -53 -45t-53 45v409q0 50 53 50q40 0 49 -28q4 -13 4 -36v-14.5v-17v-14.5q0 -16 13 -25q9 -5 19 -7q5 -1 16 -1zM402 523h-16q-28 0 -39.5 2t-11.5 11v60q0 35 -20 52.5t-53 17.5
t-53 -17.5t-20 -52.5v-409q0 -65 73 -65t73 65v163h-37q-36 0 -36 16v75q0 15 25.5 25.5t66.5 10.5h27q40 0 65.5 -10.5t25.5 -25.5v-258q0 -93 -55 -143.5t-162 -50.5q-102 0 -155.5 50.5t-53.5 143.5v422q0 93 53.5 143.5t155.5 50.5q107 0 162 -50.5t55 -143.5v-58
q0 -24 -70 -24z" />
    <glyph glyph-name="h" unicode="h" horiz-adv-x="551" 
d="M82 -16q22 -5 46 -5q22 0 45 5q16 4 27 10q18 11 18 30v284h115v-284q0 -20 19 -30q11 -6 28 -10q22 -5 46 -5t46 5q17 4 28 10q19 10 19 30v739q0 20 -20 30q-9 6 -28 10q-24 4 -45 4t-45 -4q-19 -4 -28 -10q-20 -10 -20 -30v-275h-115v275q0 18 -19 30q-10 6 -27 10
q-23 4 -44 4t-46 -4q-17 -4 -28 -10q-20 -10 -20 -30v-739q0 -20 20 -31q11 -7 28 -9zM128 -1q-33 0 -53.5 7t-20.5 18v739q0 24 74 24q70 0 70 -24v-295h155v295q0 10 20.5 17t52.5 7t52.5 -7t20.5 -17v-739q0 -11 -21 -18t-52 -7t-52 7t-21 18v304h-155v-304
q0 -11 -19 -18t-51 -7z" />
    <glyph glyph-name="i" unicode="i" horiz-adv-x="252" 
d="M82 -16q22 -5 46 -5q22 0 45 5q16 4 27 10q18 11 18 30v739q0 18 -19 30q-10 6 -27 10q-23 4 -44 4t-46 -4q-17 -4 -28 -10q-20 -10 -20 -30v-739q0 -20 20 -31q11 -7 28 -9zM128 -1q-33 0 -53.5 7t-20.5 18v739q0 24 74 24q70 0 70 -24v-739q0 -11 -19 -18t-51 -7z" />
    <glyph glyph-name="j" unicode="j" horiz-adv-x="347" 
d="M48 -24q26 -3 40 -3q108 0 168.5 51.5t60.5 160.5v578q0 21 -20 30q-10 6 -27 10q-24 4 -45 4t-45 -4q-19 -4 -28 -10q-20 -10 -20 -30v-537q0 -30 -11.5 -40t-35.5 -13q-7 0 -23 -0.5t-22 -1.5q-38 -6 -38 -36v-125q0 -19 21 -27q10 -5 25 -7zM88 -7l-36 3q-12 0 -21 5
t-9 9v125q0 10 12 14q5 3 23 3h12q43 0 63 17.5t20 56.5v537q0 10 20.5 17t52.5 7q31 0 51.5 -6.5t20.5 -17.5v-578q0 -192 -209 -192z" />
    <glyph glyph-name="k" unicode="k" horiz-adv-x="545" 
d="M82 -16q22 -5 46 -5q22 0 45 5q16 4 27 10q18 11 18 30v223l32 55l99 -282q10 -25 52 -36q25 -5 52 -5q21 0 44 4q17 4 26 10q19 11 19 30l-3 12q0 2 -1 4t-2 5.5t-2 5.5l-4.5 13.5t-6.5 19t-6 18.5q-8 23 -27 77t-27 78l-84 240q2 4 78 134l51 89q4 7 9.5 17t6.5 12l5 9
q4 7 4 13q0 18 -18 27q-11 5 -24 7q-14 3 -35 3q-26 0 -51 -5q-20 -4 -29 -8q-19 -8 -25 -21l-133 -239v229q0 18 -19 30q-10 6 -27 10q-23 4 -44 4t-46 -4q-17 -4 -28 -10q-20 -10 -20 -30v-739q0 -20 20 -31q7 -4 28 -9zM128 -1q-33 0 -53.5 7t-20.5 18v739q0 24 74 24
q70 0 70 -24v-306l170 306q15 24 88 24q59 0 57 -18q-1 -3 -3 -6l-153 -265l164 -471q4 -13 -14.5 -20.5t-53.5 -7.5q-77 0 -85 28l-113 322l-57 -97v-228q0 -11 -19 -18t-51 -7z" />
    <glyph glyph-name="l" unicode="l" horiz-adv-x="452" 
d="M88 -15q26 -6 57 -6h201q30 0 58 6q21 6 33 13q21 15 21 35v67q0 20 -21 35q-12 7 -33 13q-28 6 -58 6h-128v609q0 18 -19 30q-10 6 -27 10q-23 4 -44 4t-46 -4q-17 -4 -28 -10q-20 -10 -20 -30v-730q0 -20 21 -35q10 -7 33 -13zM145 -1q-40 0 -65.5 9.5t-25.5 24.5v730
q0 24 74 24q70 0 70 -24v-629h148q42 0 67 -9.5t25 -24.5v-67q0 -15 -25 -24.5t-67 -9.5h-201z" />
    <glyph glyph-name="m" unicode="m" horiz-adv-x="706" 
d="M75 -17q21 -4 40 -4q25 0 41 3q15 4 25 10q18 11 18 29l2 350l61 -353q3 -15 19 -26q11 -6 25 -9q20 -4 40 -4q21 0 42 4q19 5 26 9q16 9 20 26l61 353l2 -347q0 -18 17 -31q11 -6 27 -10q17 -4 44 -4t44 4t27 10q18 12 18 31v731q0 20 -21 34q-14 8 -34 12q-26 6 -56 6
q-51 0 -69 -2q-27 -4 -42 -10q-26 -11 -31 -33l-67 -319l-69 319q-5 20 -24 29q-11 7 -32 11q-26 5 -55 5q-48 0 -70 -3q-25 -4 -43 -12q-27 -12 -27 -37v-734q0 -18 17 -29q6 -4 24 -9zM115 -1q-61 0 -61 22v734q0 14 25.5 23t65.5 9h29q85 0 91 -29l89 -410l87 410
q6 29 91 29h31q40 0 65.5 -9t25.5 -23v-731q0 -25 -69 -25q-68 0 -68 25l-3 572l-100 -575q-5 -22 -68 -22q-58 0 -64 22l-99 575l-4 -575q0 -22 -64 -22z" />
    <glyph glyph-name="n" unicode="n" horiz-adv-x="559" 
d="M77 -17q16 -4 41 -4t41 3q16 4 26 9q18 11 18 30v388l128 -391q5 -17 24 -24q12 -7 29 -10q24 -5 49 -5t48 5q14 3 29 11q19 13 19 32v739q0 18 -19 29q-9 5 -27 9q-17 3 -42 3q-24 0 -40 -3q-19 -5 -26 -9q-18 -11 -18 -29v-285l-95 285q-7 18 -26 26q-13 7 -32 10
q-26 5 -55 5q-30 0 -58 -6q-24 -6 -34 -12q-23 -14 -23 -34v-734q0 -18 18 -29q12 -7 25 -9zM118 -1q-64 0 -64 22v734q0 14 27.5 23t67.5 9q84 0 94 -27l134 -402v408q0 21 64 21q68 0 68 -21v-739q0 -13 -21 -20.5t-55 -7.5q-71 0 -83 25l-167 511v-514q0 -22 -65 -22z
" />
    <glyph glyph-name="o" unicode="o" 
d="M22 185q0 -107 66.5 -161.5t173.5 -54.5q108 0 173 54t65 162v417q0 109 -65 163t-173 54q-107 0 -173.5 -54.5t-66.5 -162.5v-417zM262 -11q-105 0 -162.5 51t-57.5 145v417q0 94 57.5 145.5t162.5 51.5q106 0 162 -51t56 -146v-417q0 -94 -56 -145t-162 -51zM262 119
q76 0 76 72v405q0 73 -76 73q-73 0 -73 -73v-405q0 -72 73 -72zM318 191q0 -52 -56 -52q-28 0 -40.5 12t-12.5 40v405q0 53 53 53q56 0 56 -53v-405z" />
    <glyph glyph-name="p" unicode="p" horiz-adv-x="508" 
d="M82 -16q22 -5 46 -5q23 0 44 5q17 4 27 10q19 11 19 30v276h49q109 0 171 53.5t62 162.5v78q0 109 -62 161t-171 52h-122q-30 0 -56 -6q-20 -4 -34 -12q-21 -14 -21 -34v-731q0 -20 20 -31q11 -7 28 -9zM128 -1q-33 0 -53.5 7t-20.5 18v731q0 14 25.5 23t65.5 9h122
q213 0 213 -193v-78q0 -196 -213 -196h-69v-296q0 -11 -19 -18t-51 -7zM198 659v-211h69q36 0 53.5 15.5t17.5 51.5v80q0 64 -71 64h-69zM218 468v171h49q29 0 40 -9.5t11 -34.5v-80q0 -27 -11 -37t-40 -10h-49z" />
    <glyph glyph-name="q" unicode="q" horiz-adv-x="544" 
d="M523 123l-25 24q2 26 2 38v417q0 109 -65 163t-173 54q-107 0 -173.5 -54.5t-66.5 -162.5v-417q0 -107 66.5 -161.5t173.5 -54.5q74 0 128 25q5 -6 11 -11q4 -6 15 -14t22 -8q32 0 73.5 42t41.5 74q0 9 -5 16q-6 9 -7 10q-10 12 -18 20zM476 140l54 -54q7 -7 -2 -27
t-32 -43q-22 -22 -41 -30.5t-26 -1.5l-35 35q-51 -30 -132 -30q-105 0 -162.5 51t-57.5 145v417q0 94 57.5 145.5t162.5 51.5q106 0 162 -51t56 -146v-417q0 -26 -4 -45zM262 114q76 0 76 72v414q0 74 -76 74q-73 0 -73 -74v-414q0 -72 73 -72zM318 186q0 -52 -56 -52
q-28 0 -40.5 12t-12.5 40v414q0 28 12.5 41t40.5 13q56 0 56 -54v-414z" />
    <glyph glyph-name="r" unicode="r" horiz-adv-x="529" 
d="M82 -16q22 -5 46 -5q23 0 44 5q17 4 27 10q19 11 19 30v291h32q41 0 54.5 -15t13.5 -60q0 -11 -1 -47.5t-1 -59.5q0 -81 8 -114q3 -16 23 -26q11 -5 29 -9q25 -5 50 -5q26 0 43 4q15 4 25 11q16 12 16 30q0 2 -0.5 5.5t-0.5 4.5q-1 1 -1 3.5t-1 3.5q-2 8 -2 10
q-2 15 -2 44v140q0 125 -68 168q65 47 65 155v50q0 199 -233 199h-122q-30 0 -56 -6q-20 -4 -34 -12q-21 -14 -21 -34v-731q0 -20 20 -31q11 -7 28 -9zM128 -1q-33 0 -53.5 7t-20.5 18v731q0 14 25.5 23t65.5 9h122q111 0 162 -44t51 -135v-50q0 -125 -93 -156
q96 -25 96 -167v-140q0 -49 7 -71q2 -11 -15.5 -18t-48.5 -7q-34 0 -57.5 7t-25.5 18q-5 40 -5 71v145q0 54 -20 74.5t-68 20.5h-52v-311q0 -11 -19 -18t-51 -7zM198 657v-187h54q86 0 86 68v51q0 68 -73 68h-67zM218 490v147h47q29 0 41 -10.5t12 -37.5v-51
q0 -26 -15.5 -37t-50.5 -11h-34z" />
    <glyph glyph-name="s" unicode="s" horiz-adv-x="490" 
d="M10 185q0 -109 62 -162.5t171 -53.5t173 55t64 164q0 47 -12 86.5t-37 71t-46 51.5t-55 46q-42 32 -51 40q-20 16 -44 41q-39 44 -39 98q0 32 54 32q39 0 46 -12q5 -5 6 -18q1 -10 1 -36q0 -16 17 -28q11 -6 23 -8q20 -4 37 -4q37 0 46 1q19 2 28 6q22 10 22 30
q0 117 -55.5 175.5t-173.5 58.5q-107 0 -170 -53.5t-63 -160.5q0 -45 12 -83t37 -69t45.5 -50t54.5 -46l51 -41q24 -21 43 -43q39 -47 39 -105q0 -20 -12.5 -27.5t-43.5 -7.5q-42 0 -50 13q-4 5 -5 21q-1 12 -1 41q0 18 -19 30q-12 7 -27 9q-21 5 -43 5q-20 0 -40 -5
q-13 -1 -26 -8q-19 -9 -19 -28v-26zM243 -11q-106 0 -159.5 50.5t-53.5 145.5v26q0 8 19 14.5t46 6.5q31 0 50 -7t19 -17v-42q0 -53 76 -53t76 55q0 58 -26.5 97t-98.5 93q-88 67 -122.5 122t-34.5 125q0 93 54 143.5t159 50.5q104 0 156.5 -50.5t52.5 -146.5v-17
q0 -17 -45 -17h-31q-57 0 -57 20v34q0 52 -73 52q-74 0 -74 -52q0 -51 26.5 -89.5t98.5 -92.5q91 -68 125 -122.5t34 -129.5q0 -96 -56 -147.5t-161 -51.5z" />
    <glyph glyph-name="t" unicode="t" horiz-adv-x="478" 
d="M192 -16q22 -5 45 -5t46 5q17 2 28 9q20 11 20 31v593q53 0 65 1q37 4 54 12q33 14 33 45v69q0 36 -50 54q-28 9 -61 9h-266q-33 0 -61 -9q-50 -18 -50 -54v-69q0 -29 33 -45q17 -8 54 -12q12 -1 65 -1v-593q0 -19 18 -30q11 -6 27 -10zM237 -1q-32 0 -51 7t-19 18v614
h-76q-34 0 -55 10.5t-21 26.5v69q0 18 25.5 30.5t65.5 12.5h266q40 0 65.5 -12.5t25.5 -30.5v-69q0 -17 -21 -27t-55 -10h-76v-614q0 -11 -20.5 -18t-53.5 -7z" />
    <glyph glyph-name="u" unicode="u" horiz-adv-x="529" 
d="M29 185q0 -109 64 -162.5t172 -53.5q107 0 170 54.5t63 161.5v578q0 19 -17 30q-12 8 -27 10q-16 4 -43 4t-44 -3q-17 -4 -28 -10q-18 -12 -18 -31v-558q0 -31 -12 -43.5t-42 -12.5q-31 0 -43.5 12.5t-12.5 43.5v558q0 19 -19 30q-9 6 -26 10q-24 4 -44 4q-21 0 -45 -4
q-18 -4 -28 -9q-20 -11 -20 -31v-578zM265 -11q-106 0 -161 50.5t-55 145.5v578q0 24 73 24q69 0 69 -24v-558q0 -42 19.5 -59t56.5 -17t55.5 17t18.5 59v558q0 24 70 24q67 0 67 -24v-578q0 -94 -54.5 -145t-158.5 -51z" />
    <glyph glyph-name="v" unicode="v" horiz-adv-x="502" 
d="M184 -16q26 -5 56 -5q46 0 66 3q25 4 39 11q24 12 28 34l127 737v4q0 21 -19 29q-10 5 -24 7q-16 3 -38 3q-26 0 -42 -3q-19 -5 -26 -9q-17 -9 -21 -26l-74 -462l-69 459q-2 16 -23 28q-10 5 -28 9q-25 4 -48 4q-18 0 -41 -4q-13 -2 -26 -8q-19 -11 -19 -30v-3v-2
l127 -733q4 -19 23 -31q14 -8 32 -12zM240 -1q-86 0 -91 31l-127 733q-2 11 16.5 17.5t49.5 6.5q74 0 79 -24l88 -586l95 589q4 21 69 21q31 0 47 -5.5t14 -15.5l-127 -736q-5 -31 -91 -31h-22z" />
    <glyph glyph-name="w" unicode="w" horiz-adv-x="731" 
d="M145 -16q27 -5 56 -5q39 0 65 4q25 4 38 11q24 11 27 33l41 317l42 -317q3 -20 24 -31q9 -5 33 -12q29 -5 58 -5q23 0 57 6q26 7 34 12q22 12 24 31l84 736v5q0 18 -18 28q-9 5 -23 7q-15 3 -36 3q-25 0 -41 -3q-18 -4 -25 -9q-17 -9 -20 -27l-44 -363l-45 357
q-2 19 -22 30q-11 6 -30 10q-25 5 -51 5q-25 0 -50 -4q-14 -3 -29 -11q-20 -11 -22 -29l-51 -361l-40 363q-3 19 -20 29q-9 5 -27 10q-18 3 -46 3q-26 0 -43 -4q-15 -2 -27 -10q-19 -12 -16 -32l88 -733q2 -20 23 -32q8 -6 32 -12zM201 -1q-41 0 -66 9t-25 22l-88 733
q0 24 66 24q73 0 73 -24l58 -521l73 518q3 27 81 27t83 -27l65 -518l64 524q1 21 66 21q29 0 44 -5.5t13 -15.5l-84 -736q-3 -13 -30 -22t-65 -9q-90 0 -95 31l-62 467l-61 -467q-5 -31 -91 -31h-19z" />
    <glyph glyph-name="x" unicode="x" horiz-adv-x="533" 
d="M45 -18q14 -3 38 -3q29 0 47 4q40 10 49 33l80 186l80 -183q10 -24 51 -34q23 -6 51 -6q21 0 44 4q17 4 26 10q19 11 19 30l-3 12q-1 2 -2.5 6t-2.5 6l-17 41q-9 23 -51 123q-17 42 -45.5 110t-33.5 81l76 184q9 21 25.5 61.5t23.5 57.5q3 7 6 14.5l6 15t4 10.5
q1 2 1.5 4.5t1.5 4.5t1 3q3 6 3 11q0 19 -18 29q-10 5 -25 7q-16 3 -39 3q-29 0 -46 -4q-37 -7 -48 -32l-74 -168l-69 165q-10 26 -54 34q-24 5 -52 5q-25 0 -41 -3q-19 -5 -26 -9q-18 -11 -18 -30q0 -5 3 -11l4 -12l16 -40q6 -16 23 -56t26 -62l76 -182q-20 -46 -81 -192
l-52 -124q-7 -17 -17 -42l-5 -12q-3 -10 -3 -12q0 -18 17 -29q7 -5 25 -9zM83 -1q-32 0 -47.5 6.5t-11.5 18.5l159 378l-149 358q-5 13 12 20t52 7q77 0 88 -27l87 -208l92 211q10 24 76 24q33 0 49.5 -6t11.5 -18l-149 -361l156 -375q4 -13 -14.5 -20.5t-53.5 -7.5
q-72 0 -84 28l-98 226l-98 -229q-10 -25 -78 -25z" />
    <glyph glyph-name="y" unicode="y" horiz-adv-x="517" 
d="M213 -16q23 -5 46 -5t45 5q17 4 28 10q19 12 19 30v307q11 31 86 224l54 141q14 38 17 47q1 3 5 13l3 12q0 20 -19 29q-4 2 -24 8q-16 2 -39 2q-29 0 -47 -4q-39 -8 -49 -33l-74 -201l-71 198q-6 15 -24 25q-11 6 -29 10q-25 5 -52 5q-25 0 -42 -3q-16 -4 -26 -9
q-19 -12 -19 -30q0 -5 3 -12l5 -14q2 -6 8 -22l9 -24q7 -19 25.5 -66.5t28.5 -73.5q16 -41 36 -92t33 -85.5t17 -44.5v-307q0 -20 19 -30q11 -6 28 -10zM259 -1q-32 0 -52.5 7t-20.5 18v311l-164 425q-5 13 13 20t53 7q76 0 86 -27l90 -249l93 252q8 24 77 24q34 0 50 -6
t11 -18l-164 -428v-311q0 -11 -20.5 -18t-51.5 -7z" />
    <glyph glyph-name="z" unicode="z" horiz-adv-x="475" 
d="M54 -11q28 -9 61 -9h242q33 0 61 9q50 15 50 54v57q0 39 -50 54q-28 9 -61 9h-144l246 447q9 20 9 53v81q0 36 -50 54q-28 9 -61 9h-229q-33 0 -61 -9q-50 -15 -50 -54v-62q0 -39 50 -54q28 -9 61 -9h130l-242 -448q-12 -23 -12 -53v-75q0 -39 50 -54zM115 0
q-40 0 -65.5 12t-25.5 31v75q0 24 10 43l258 478h-164q-41 0 -66 12.5t-25 30.5v62q0 18 25 30.5t66 12.5h229q40 0 65.5 -12.5t25.5 -30.5v-81q0 -8 -7 -43l-262 -477h178q40 0 65.5 -12t25.5 -31v-57q0 -19 -25.5 -31t-65.5 -12h-242z" />
    <glyph glyph-name="braceleft" unicode="{" horiz-adv-x="361" 
d="M90 68q0 -71 48 -108.5t117 -37.5h37q15 0 25 3q11 2 17 6q14 9 14 25l-2 79q-1 14 -9.5 21t-20.5 7h-4l-11 3q-23 0 -32 13.5t-9 46.5v167q0 67 -52 100q52 35 52 102v167q0 62 44 63h7q4 -2 11 0q26 3 26 30v76q0 15 -13 24q-10 7 -17 8q-2 0 -7.5 0.5t-7.5 1.5h-11
h-37q-69 0 -117 -37.5t-48 -108.5v-207q0 -36 -30 -49l-14 -6q-10 -3 -16 -7q-23 -13 -23 -37v-38q0 -25 23 -38q2 -1 7.5 -3.5t8.5 -3.5q5 -1 15 -5q29 -14 29 -49v-208zM255 -58q-63 0 -104 32.5t-41 93.5v208q0 46 -25 58q-2 1 -22 9.5t-28 15.5t-8 16v38q0 5 4 10
t11 9.5t13.5 7.5t16 7.5t13.5 6.5q25 11 25 58v207q0 61 41 93.5t104 32.5h37q36 0 36 -14v-76q0 -8 -5 -10h-19q-64 -5 -64 -83v-167q0 -80 -81 -102q81 -21 81 -100v-167q0 -44 15 -62t46 -18q3 -3 12 -3h3q10 0 10 -9l2 -79q0 -13 -36 -13h-37z" />
    <glyph glyph-name="braceright" unicode="}" horiz-adv-x="361" 
d="M44 -75q10 -3 25 -3h37q70 0 118 37t48 109v208q0 35 29 49q10 4 15 5l16 8q23 13 23 37v38q0 24 -23 37q-2 1 -7.5 3.5t-8.5 3.5q-12 5 -14 6q-30 13 -30 49v207q0 72 -48 109t-118 37h-37q-15 0 -25 -3q-11 -2 -18 -7q-12 -10 -12 -25l3 -79q1 -14 10.5 -20t17.5 -6h15
q45 -1 45 -63v-167q0 -68 49 -102q-49 -32 -49 -100v-167q0 -33 -10.5 -46.5t-37.5 -13.5l-10 -2q0 -1 -7 -1q-2 0 -9 -3t-8 -5q-1 -1 -2.5 -3.5t-2.5 -3.5q-4 -12 -4 -15v-78q0 -15 14 -24q6 -3 16 -6zM69 -58q-35 0 -35 13v78q0 3 5 10q13 0 18 3q68 0 68 80v167
q0 80 79 100q-79 21 -79 102v167q0 78 -64 83h-15q-9 0 -9 7l-3 79q0 14 35 14h37q65 0 105.5 -32.5t40.5 -93.5v-207q0 -47 25 -58q2 -1 21.5 -10t28 -16t8.5 -15v-38q0 -9 -8.5 -16t-27.5 -15t-22 -10q-25 -12 -25 -58v-208q0 -61 -40.5 -93.5t-105.5 -32.5h-37z" />
    <glyph glyph-name="asciitilde" unicode="~" 
d="M2 364q0 -23 32.5 -40.5t50.5 -17.5q20 0 35 12q3 2 6.5 5.5l5.5 5.5l9 11q17 20 35 20q11 0 30 -8q13 -6 41 -22q59 -36 103 -36q56 0 94.5 29.5t73.5 81.5l4 7l1 10q0 23 -31.5 41.5t-49.5 18.5q-19 0 -34 -13q-3 -2 -7 -5.5t-5 -4.5l-9 -11q-21 -21 -37 -21
q-11 0 -30 8q-8 4 -40 22q-61 35 -104 35q-54 0 -97.5 -31t-71.5 -79q-5 -7 -5 -18zM113 338q-23 -24 -59 -3l-20 14q-18 9 -10 23q36 52 70.5 76t81.5 24q36 0 94 -32q57 -33 80 -33q31 0 64 41q9 13 25 14t33 -11l21 -14q13 -9 9 -21q-36 -53 -71 -77.5t-81 -24.5
q-35 0 -95 34q-59 32 -79 32q-32 0 -63 -42z" />
    <glyph glyph-name="uni00A0" unicode="&#xa0;" horiz-adv-x="209" 
 />
    <glyph glyph-name="exclamdown" unicode="&#xa1;" horiz-adv-x="285" 
d="M189 802q-15 5 -35 5q-23 0 -37 -4q-34 -10 -34 -40v-69q0 -30 34 -39q18 -5 37 -5q20 0 35 5q31 12 31 39v69q0 29 -31 39zM154 787q46 0 46 -24v-69q0 -24 -46 -24q-51 0 -51 24v69q0 24 51 24zM222 -6q20 10 19 31l-39 569q-1 22 -17 32.5t-34 10.5t-34.5 -10
t-18.5 -33l-42 -569q-1 -21 19 -31q11 -6 28 -10q25 -4 46 -4t45 4q19 4 28 10zM182 593l39 -569q0 -24 -72 -24q-73 0 -73 24l42 569q0 10 9.5 17t23.5 7t22.5 -7t8.5 -17z" />
    <glyph glyph-name="cent" unicode="&#xa2;" 
d="M478 487q22 9 22 29q0 90 -35 147t-119 78q0 4 0.5 11t0.5 10q-2 24 -7 32q-8 16 -30 21q-15 4 -43 4q-27 0 -44 -3q-21 -5 -30 -21q-7 -12 -7 -32v-22q-73 -20 -112.5 -74t-39.5 -131v-284q0 -77 39.5 -132t112.5 -74q-1 -10 -1 -26q0 -23 5 -34q8 -17 30 -24
q16 -4 47 -4q30 0 46 4q21 6 30 25q6 13 4 34q0 15 -1 25q75 19 114.5 72.5t39.5 133.5q0 51 -13.5 68t-72.5 17q-28 0 -48 -3q-22 -5 -33 -19q-8 -11 -10 -33v-39q0 -28 -12 -40t-41 -12q-26 0 -37.5 12t-11.5 40v301q0 54 49 54q34 0 43.5 -15.5t9.5 -59.5q0 -18 17 -29
q9 -6 26 -10q21 -4 41 -4q35 0 43 1q15 2 28 6zM480 516q0 -16 -51 -16h-22q-64 0 -64 23v21q0 74 -73 74q-69 0 -69 -74v-301q0 -72 69 -72q73 0 73 72v50q0 11 20 17.5t51 6.5q29 0 47.5 -6.5t18.5 -17.5v-41q0 -79 -39.5 -127.5t-114.5 -62.5v-66q0 -8 -17 -13t-42 -5
q-26 0 -43.5 5t-17.5 13v66q-72 14 -112 64t-40 126v284q0 75 40 124.5t112 64.5v55q0 8 17.5 13.5t43.5 5.5q25 0 42 -5.5t17 -13.5v-55q154 -31 154 -189v-20z" />
    <glyph glyph-name="sterling" unicode="&#xa3;" 
d="M46 120q-4 -2 -7 -4q-13 -14 -13 -38v-45q0 -20 21 -35q10 -7 33 -13q26 -6 57 -6h247q31 0 57 6q23 6 33 13q21 15 21 35v45q0 20 -21 35q-10 7 -33 13q-26 6 -57 6h-120q52 59 57 151q35 0 55 1q32 2 49 8q33 9 33 36v44q0 16 -14 27q-7 6 -23 12q-21 6 -57 8
q-35 2 -75 0q-4 8 -19.5 39.5t-23.5 48.5q-22 54 -22 102q0 32 12 45t41 13q33 0 43 -21q3 -8 5 -28q1 -12 1 -38q0 -18 18 -31q11 -6 28 -10q21 -5 45 -5q19 0 42 4q17 4 26 10q18 10 18 29q0 122 -54.5 182t-178.5 60q-98 0 -165.5 -49.5t-67.5 -148.5q0 -69 27 -126
q12 -26 29 -53q7 -12 14 -22q-3 0 -9 -0.5t-9 -0.5q-25 -2 -35 -5q-12 -4 -17 -9q-11 -7 -11 -22v-58q0 -24 31 -35q18 -6 43 -6q18 -1 50 -1q0 -3 0.5 -8t0.5 -8q0 -40 -22 -73t-60 -54l-3 -2zM137 -1q-40 0 -65.5 9.5t-25.5 24.5v45q0 17 8 25h3q4 5 11.5 11t10.5 9
q45 25 68.5 63.5t23.5 80.5l-4 37h-61q-60 0 -60 21v58q0 16 49 16h49q-2 3 -14 21.5t-14 22t-12 19.5t-12 21t-9.5 19.5t-9.5 21.5t-6.5 21t-5.5 24.5t-2.5 24t-1.5 27.5q0 80 55.5 129t157.5 49q107 0 160 -50.5t53 -146.5v-25q0 -10 -18.5 -16.5t-47.5 -6.5q-31 0 -51 7
t-20 19v29q0 78 -69 78q-73 0 -73 -78q0 -31 9 -65.5t18 -54.5t26 -52t20 -38h81q80 0 80 -27v-44q0 -11 -18.5 -17.5t-47.5 -6.5h-71q0 -58 -18 -105t-70 -87h171q40 0 65.5 -9.5t25.5 -24.5v-45q0 -15 -25.5 -24.5t-65.5 -9.5h-247z" />
    <glyph glyph-name="currency" unicode="&#xa4;" 
d="M156 223l24 23q37 -17 82 -17q49 0 84 17q15 -15 23 -22q31 -26 53 -26q19 0 46.5 20t27.5 41q0 7 -7 17q-1 2 -9 10q-7 7 -23 19q-9 8 -22 17q18 30 18 71t-18 73q2 2 10 7.5t13 8.5q7 5 23 19q3 3 9 11q6 9 6 17q0 22 -26 41t-46 19q-26 0 -54 -26q-12 -9 -24 -23
q-38 19 -84 19q-42 0 -82 -19q-16 16 -25 24q-32 25 -55 25q-19 0 -45 -18.5t-26 -39.5q0 -14 14 -28q8 -10 22 -20q5 -5 24 -18q-14 -29 -14 -72q0 -42 14 -71q-19 -13 -24 -18q-14 -10 -22 -20q-5 -5 -8 -11q-6 -6 -6 -17q0 -20 28 -39t45 -19q24 0 54 25zM176 270
l-42 -38q-34 -30 -61 0l-19 14q-6 5 -4.5 12.5t7.5 11.5l58 47q-20 28 -20 76q0 47 20 78l-58 45q-12 16 -3 25l19 17q28 25 61 -4l42 -38q41 23 86 23q49 0 88 -23l42 38q11 13 28.5 14.5t32.5 -10.5l15 -17q14 -11 0 -25l-61 -45q26 -31 26 -78t-26 -76l61 -47
q8 -4 8 -11.5t-8 -12.5l-15 -14q-15 -14 -32 -13.5t-29 13.5l-42 38q-36 -21 -88 -21q-49 0 -86 21zM262 334q31 0 50 16.5t19 42.5q0 28 -19 44.5t-50 16.5q-32 0 -51.5 -16.5t-19.5 -44.5q0 -26 19.5 -42.5t51.5 -16.5zM311 393q0 -18 -13 -28.5t-36 -10.5t-37 11t-14 28
q0 19 14 30t37 11q49 0 49 -41z" />
    <glyph glyph-name="yen" unicode="&#xa5;" 
d="M216 -16q22 -5 46 -5t46 5q17 4 28 10q19 10 19 30v81h45q27 2 44 7q32 9 32 35v36q0 14 -13 25q-10 7 -20 8q-19 6 -45 6q-15 1 -43 1v43h44q27 2 45 7q11 4 19 9q13 9 13 25v38q0 15 -13 24q-8 5 -19 9q-20 5 -42 5q-10 1 -29 1l73 184q12 28 31 77t21 54q6 12 17 44
q2 4 5 13q3 7 3 12q0 19 -18 29q-10 5 -25 7q-16 3 -39 3q-30 0 -47 -4q-16 -2 -28 -9q-18 -8 -23 -25l-73 -213l-75 211q-10 27 -53 35q-24 5 -51 5q-26 0 -43 -4q-14 -2 -26 -9q-19 -11 -19 -30l3 -12q1 -3 5 -13q5 -15 17 -43l52 -131q49 -122 73 -181q-18 0 -28 -1
q-29 -2 -41 -6q-9 -2 -19 -8q-12 -10 -12 -24v-38q0 -14 12 -24q7 -6 19 -10q20 -6 44 -6q14 -1 41 -1v-43q-26 0 -41 -1q-31 -2 -43 -6q-14 -5 -19 -9q-13 -9 -13 -24v-36q0 -23 31 -35q19 -6 43 -6q15 -1 42 -1v-81q0 -20 19 -30q11 -6 28 -10zM262 -1q-31 0 -52 7t-21 18
v102h-59q-57 0 -57 21v36q0 8 16.5 13.5t40.5 5.5h59v85h-59q-57 0 -57 20v38q0 18 55 18h55l-159 397q-4 13 14.5 20t52.5 7q77 0 85 -27l94 -265l92 268q8 24 79 24q33 0 49.5 -6t11.5 -18l-159 -400h59q54 0 54 -18v-38q0 -20 -61 -20h-60v-85h60q61 0 61 -19v-36
q0 -21 -61 -21h-60v-102q0 -11 -21 -18t-52 -7z" />
    <glyph glyph-name="brokenbar" unicode="&#xa6;" horiz-adv-x="658" 
d="M289 435q21 -4 39 -4t38 4q12 2 23 8q18 9 18 28v410q0 18 -18 28q-11 5 -24 7q-20 4 -37 4q-16 0 -38 -3q-18 -4 -24 -8q-19 -11 -19 -28v-410q0 -18 18 -28q13 -6 24 -8zM328 451q-61 0 -61 20v410q0 19 61 19q59 0 59 -19v-410q0 -20 -59 -20zM289 -242q21 -4 39 -4
t38 4q18 5 23 8q18 10 18 28v411q0 18 -18 27q-13 7 -24 8q-20 4 -37 4t-38 -4q-11 -1 -24 -7q-19 -13 -19 -28v-411q0 -18 18 -28q13 -6 24 -8zM328 -226q-27 0 -44 6t-17 14v411q0 8 17.5 13.5t43.5 5.5q25 0 42 -5.5t17 -13.5v-411q0 -8 -17 -14t-42 -6z" />
    <glyph glyph-name="dieresis" unicode="&#xa8;" horiz-adv-x="658" 
d="M186 825q20 -5 42 -5t42 5q15 4 25 10q17 13 17 30v68q0 18 -18 29q-7 4 -26 9q-15 3 -40 3t-40 -3q-19 -5 -26 -9q-18 -11 -18 -29v-68q0 -17 17 -30q10 -6 25 -10zM387 825q20 -5 42 -5t42 5q15 4 25 10q17 13 17 30v68q0 18 -18 29q-7 4 -26 9q-15 3 -40 3t-40 -3
q-19 -5 -26 -9q-18 -11 -18 -29v-68q0 -17 17 -30q8 -6 25 -10zM228 840q-29 0 -46.5 7t-17.5 18v68q0 21 64 21t64 -21v-68q0 -11 -17.5 -18t-46.5 -7zM429 840q-29 0 -46.5 7t-17.5 18v68q0 21 64 21t64 -21v-68q0 -11 -17.5 -18t-46.5 -7z" />
    <glyph glyph-name="copyright" unicode="&#xa9;" horiz-adv-x="970" 
d="M7 393q0 -129 69 -227.5t176 -147.5t231 -49q93 0 178.5 29t153 81.5t108 134t40.5 179.5q0 130 -69.5 229t-177.5 148t-233 49t-232 -49.5t-175.5 -148.5t-68.5 -228zM483 -11q-196 0 -326 115t-130 289q0 175 130 290.5t326 115.5q199 0 329.5 -115.5t130.5 -290.5
q0 -174 -130.5 -289t-329.5 -115zM483 68q160 0 261 91t101 234q0 144 -101 235t-261 91q-157 0 -259 -91.5t-102 -234.5t102 -234t259 -91zM825 393q0 -140 -98.5 -222.5t-243.5 -82.5q-144 0 -242.5 83t-98.5 222t98.5 222.5t242.5 83.5q146 0 244 -83t98 -223zM311 284
q0 -78 45 -117.5t122 -39.5q78 0 123.5 39t45.5 118q0 6 0.5 15.5t0.5 13.5q0 17 -5 28q-11 27 -62 27q-26 0 -40 -5q-19 -7 -26 -23q-4 -9 -4 -29q0 -4 0.5 -14.5t0.5 -17.5q0 -19 -6.5 -26t-25.5 -7q-15 0 -21 7t-6 26v230q0 35 27 35q24 0 28 -14q2 -6 4 -22v-30
q0 -15 16 -26q9 -5 21 -7q13 -3 32 -3t30 3q13 2 20 7q16 9 16 26q0 92 -37.5 138.5t-131.5 46.5q-79 0 -123 -40.5t-44 -119.5v-219zM478 147q-73 0 -110 35.5t-37 101.5v219q0 140 147 140q149 0 149 -140v-25q0 -16 -46 -16q-49 0 -49 16v31q0 55 -52 55q-47 0 -47 -55
v-230q0 -53 47 -53q52 0 52 53v52q0 6 14 11.5t35 5.5q19 0 32.5 -5.5t13.5 -11.5v-47q0 -66 -37.5 -101.5t-111.5 -35.5z" />
    <glyph glyph-name="guillemotleft" unicode="&#xab;" horiz-adv-x="441" 
d="M134 242q23 -3 40 -3t28 2q12 2 19 6q16 11 16 25q0 6 -5 16q-1 2 -3 6.5t-4 6.5l-22 38q-5 8 -16 25.5t-15 24.5q23 36 29 47l22 36l3.5 7t3.5 6q5 10 5 15q0 14 -16 25q-8 4 -18 6q-11 2 -27 2q-19 0 -40 -3q-31 -7 -43 -22l-76 -91q-4 -5 -8 -17l-3 -12q1 -14 10 -25
l76 -99q13 -17 44 -22zM327 242q21 -3 38 -3q16 0 27 2q14 2 20 5q17 10 17 25q0 5 -5 15q-1 3 -7 13q-12 24 -20 38q-14 28 -28 52q3 5 12.5 22t15.5 26q11 17 20 36l7 12q5 10 5 15q0 16 -17 25q-9 4 -19 6q-11 2 -28 2q-21 0 -38 -4q-28 -4 -42 -21l-73 -91
q0 -1 -2.5 -4.5t-3.5 -6.5q-5 -7 -5 -17q0 -7 1 -11q0 -9 9 -17l74 -97q12 -15 42 -22zM174 259q-54 0 -68 17l-76 99q-6 4 -6 14q1 2 2.5 8t3.5 7l76 91q11 18 68 18q44 0 40 -15q0 -1 -1 -3l-64 -106l67 -113q5 -12 -20 -16zM365 259q-53 0 -64 17l-76 99q-4 2 -4 14
q0 10 7 15l73 91q11 18 64 18q48 0 43 -15q0 -1 -1 -3l-61 -106l61 -113q9 -14 -29 -17h-13z" />
    <glyph glyph-name="uni00AD" unicode="&#xad;" horiz-adv-x="356" 
d="M68 321q26 -6 57 -6h107q31 0 57 6q23 6 33 13q21 15 21 35v49q0 21 -21 34q-9 7 -33 13q-26 6 -57 6h-107q-31 0 -57 -6q-19 -3 -33 -12q-21 -15 -21 -35v-49q0 -21 20 -35q11 -7 34 -13zM125 335q-42 0 -66.5 9.5t-24.5 24.5v49q0 14 25 23.5t66 9.5h107
q40 0 65.5 -9.5t25.5 -23.5v-49q0 -15 -25.5 -24.5t-65.5 -9.5h-107z" />
    <glyph glyph-name="registered" unicode="&#xae;" horiz-adv-x="970" 
d="M7 393q0 -129 69 -227.5t176 -147.5t231 -49q93 0 178.5 29t153 81.5t108 134t40.5 179.5q0 130 -69.5 229t-177.5 148t-233 49t-232 -49.5t-175.5 -148.5t-68.5 -228zM483 -11q-196 0 -326 115t-130 289q0 175 130 290.5t326 115.5q199 0 329.5 -115.5t130.5 -290.5
q0 -174 -130.5 -289t-329.5 -115zM483 68q160 0 261 91t101 234q0 144 -101 235t-261 91q-157 0 -259 -91.5t-102 -234.5t102 -234t259 -91zM825 393q0 -140 -98.5 -222.5t-243.5 -82.5q-144 0 -242.5 83t-98.5 222t98.5 222.5t242.5 83.5q146 0 244 -83t98 -223zM357 136
q20 -3 32 -3q13 0 32 3q17 6 21 8q16 11 16 26v158h17q28 0 37 -10t9 -39q0 -53 3 -106q2 -14 10 -20q11 -13 36 -18q12 -2 32 -2q18 0 30 3q16 5 20 8q15 11 14 28q0 7 -1.5 23t-2.5 24v16.5v19v16.5q-2 38 -5 55q-10 44 -43 67q48 37 48 110q0 79 -45.5 115.5t-123.5 36.5
h-76q-24 0 -48 -5q-15 -3 -29 -11q-19 -12 -19 -31v-438q0 -17 16 -26q4 -3 20 -8zM389 153q-48 0 -48 17v438q0 11 21.5 19t54.5 8h76q149 0 149 -132q0 -85 -71 -110q71 -24 71 -117v-58l4 -48q2 -17 -44 -17t-54 14q-4 3 -4 7l-3 47v58q0 38 -15.5 53.5t-50.5 15.5h-37
v-178q0 -17 -49 -17zM438 554v-127h42q61 0 61 57v14q0 31 -12.5 43.5t-41.5 12.5h-49zM458 447v87h29q21 0 27.5 -7t6.5 -29v-14q0 -21 -9 -29t-32 -8h-22z" />
    <glyph glyph-name="macron" unicode="&#xaf;" horiz-adv-x="658" 
d="M211 837q26 -6 56 -6h120q30 0 56 6q20 4 34 12q21 14 21 34v26q0 21 -22 33q-12 7 -34 11q-28 5 -55 5h-120q-27 0 -55 -5q-22 -4 -34 -11q-22 -12 -22 -33v-26q0 -20 21 -34q14 -8 34 -12zM267 851q-40 0 -65.5 9t-25.5 23v26q0 29 91 29h120q91 0 91 -29v-26
q0 -14 -25.5 -23t-65.5 -9h-120z" />
    <glyph glyph-name="degree" unicode="&#xb0;" 
d="M78 656q0 -73 56.5 -118t127.5 -45q72 0 129.5 44.5t57.5 118.5t-57.5 118.5t-129.5 44.5q-71 0 -127.5 -45t-56.5 -118zM262 513q-68 0 -116 42t-48 101t48 101t116 42q71 0 119 -41.5t48 -101.5t-48 -101.5t-119 -41.5zM262 599q29 0 49 16t20 41q0 26 -20 43.5
t-49 17.5q-28 0 -48 -18t-20 -43q0 -24 20 -40.5t48 -16.5zM311 656q0 -16 -13.5 -26.5t-35.5 -10.5q-20 0 -34 11t-14 26q0 17 14.5 29t33.5 12q21 0 35 -12t14 -29z" />
    <glyph glyph-name="plusminus" unicode="&#xb1;" 
d="M81 170q27 -5 56 -5h247q28 0 56 5q17 3 33 11q22 13 22 34v28q0 27 -38 41q-25 7 -58 9q-12 1 -66 1v81h65q34 2 59 9q18 7 24 12q14 10 14 28v30q0 28 -38 41q-15 6 -58 10h-66v89q0 16 -16 27q-4 2 -21 8q-21 3 -34 3q-14 0 -34 -3q-16 -5 -22 -8q-16 -11 -16 -27v-89
q-54 0 -67 -1q-39 -2 -59 -9q-38 -14 -38 -41v-30q0 -16 14 -28q7 -6 25 -12q21 -6 59 -8q12 -1 66 -1v-81q-54 0 -66 -1q-33 -2 -60 -9q-38 -14 -38 -41v-28q0 -21 22 -34q16 -8 33 -11zM137 185q-41 0 -66 8.5t-25 21.5v28q0 12 23 21t59 9h82v123h-82q-37 0 -59.5 7.5
t-22.5 20.5v30q0 13 22.5 21.5t59.5 8.5h82v110q0 18 52 18q51 0 51 -18v-110h82q37 0 58.5 -8t21.5 -22v-30q0 -28 -80 -28h-82v-123h82q36 0 58 -9t22 -21v-28q0 -13 -25 -21.5t-66 -8.5h-247z" />
    <glyph glyph-name="acute" unicode="&#xb4;" horiz-adv-x="658" 
d="M276 822q11 -2 28 -2q60 0 86 24l95 85q12 10 12 25q0 19 -19 27q-10 5 -24 7q-15 3 -37 3q-28 0 -52 -5q-41 -7 -55 -27l-64 -88q-3 -5 -3 -6l-2 -5l-1 -6q0 -17 16 -25q9 -5 20 -7zM304 840q-46 0 -44 15l2 4l64 88q15 24 91 24q64 0 59 -19q0 -4 -4 -8l-95 -85
q-16 -19 -73 -19z" />
    <glyph glyph-name="paragraph" unicode="&#xb6;" horiz-adv-x="590" 
d="M246 -127q14 -3 36 -3q21 0 35 4q10 1 23 8q15 13 15 28v767h39v-767q0 -18 16 -28q6 -5 22 -9q15 -3 36 -3q22 0 37 3q16 5 23 9q16 11 16 28v845q0 20 -21 34q-14 8 -34 12q-26 6 -56 6h-156q-51 0 -95.5 -11.5t-83.5 -35t-61.5 -66.5t-22.5 -100v-58q0 -86 55 -146
t139 -67v-413q0 -18 16 -28q10 -5 22 -9zM282 -110q-54 0 -54 20v432q-83 0 -138.5 55t-55.5 139v58q0 92 65.5 142.5t177.5 50.5h156q40 0 65.5 -9t25.5 -23v-845q0 -20 -56 -20q-54 0 -54 20v787h-79v-787q0 -20 -53 -20z" />
    <glyph glyph-name="periodcentered" unicode="&#xb7;" horiz-adv-x="247" 
d="M81 319q21 -5 44 -5q22 0 42 5q16 3 26 10q18 9 18 29v72q0 20 -18 29q-10 7 -26 10q-20 5 -42 5q-23 0 -44 -5q-20 -4 -28 -9q-19 -14 -19 -30v-72q0 -16 19 -30q8 -5 28 -9zM125 334q-31 0 -51 7t-20 17v72q0 10 20 17t51 7q29 0 47.5 -7t18.5 -17v-72q0 -10 -18.5 -17
t-47.5 -7z" />
    <glyph glyph-name="cedilla" unicode="&#xb8;" horiz-adv-x="658" 
d="M242 -177q38 -11 84 -11q29 0 44 1q25 2 49 9q61 21 61 81q0 46 -45 63q-24 8 -46 8v7q1 4 1 12t-1 13q-8 30 -54 30q-9 0 -22 -3q-11 -3 -15 -5q-15 -11 -14 -25q2 -32 2 -35q0 -8 1 -12q0 -6 3 -12q5 -11 18 -19q2 -2 9 -5.5t12 -6.5l8 -12l-1 -1q-2 0 -4.5 -0.5
t-5.5 -0.5q-2 0 -10 4q0 4 -4 10t-7 8l-14 7l-9 2h-57q-16 0 -26 -4q-21 -10 -21 -33q0 -49 64 -70zM326 -168q-120 0 -128 61q0 8 8 14q4 3 19 3h57l14 -7q0 -11 9 -17.5t21 -6.5q32 0 32 28l-15 21q-3 2 -14.5 7.5t-16 9.5t-4.5 10l-4 50q0 11 31 11q33 0 33 -11v-50
q92 0 92 -52q0 -43 -34 -57t-100 -14z" />
    <glyph glyph-name="guillemotright" unicode="&#xbb;" horiz-adv-x="438" 
d="M47 241q10 -2 26 -2q25 0 39 3q31 4 44 22l74 97q6 5 9 15q2 5 2 13t-1 13q-4 11 -10 16l-70 89q-14 17 -46 22q-20 4 -41 4q-16 0 -27 -2q-10 -2 -18 -6q-16 -11 -16 -25q0 -5 5 -15q1 -1 3.5 -6l3.5 -7l22 -36q6 -11 29 -47q-24 -42 -30 -52q-4 -8 -12 -22t-9 -16
t-3.5 -6.5t-3.5 -6.5q-5 -10 -5 -15q0 -15 16 -25q7 -3 19 -5zM239 241q11 -2 28 -2t40 3q31 5 44 22l76 99q6 7 6 16q1 3 1 10v10q-2 11 -8 18l-76 91q-12 15 -43 22q-21 3 -40 3q-16 0 -27 -2q-10 -2 -18 -6q-16 -8 -16 -25q0 -5 5 -15q1 -2 3 -6.5t4 -6.5l21 -35l30 -48
q-4 -6 -31 -51l-22 -37q-1 -3 -3.5 -7t-3.5 -6q-5 -10 -5 -16q0 -14 16 -25q7 -4 19 -6zM140 276q-9 -17 -67 -17q-44 0 -40 14q0 1 1 3l64 113l-64 106q-7 12 15 16q10 2 24 2q55 0 71 -18l72 -91q5 -2 5 -15q0 -11 -5 -14zM335 276q-14 -17 -68 -17q-46 2 -42 17l67 113
l-64 106q-8 12 15 16q10 2 24 2q57 0 68 -18l76 -91q3 -2 3 -15q0 -12 -3 -14z" />
    <glyph glyph-name="questiondown" unicode="&#xbf;" horiz-adv-x="478" 
d="M303 804q-17 3 -44 3t-44 -4q-15 -2 -28 -9q-18 -14 -18 -31v-69q0 -19 18 -31q7 -4 27 -11q21 -5 45 -5t45 5q15 3 27 11q17 13 17 31v69q0 19 -18 31q-10 6 -27 10zM259 787q69 0 69 -24v-69q0 -12 -19 -19.5t-50 -7.5q-30 0 -50 7.5t-20 19.5v69q0 24 70 24zM300 596
q-21 4 -41 4q-19 0 -39 -4q-18 -4 -25 -9q-17 -11 -17 -29v-22q0 -30 -24 -68q-9 -16 -26 -36q-4 -5 -14.5 -18t-16.5 -20q-42 -51 -66 -99.5t-24 -109.5q0 -107 63 -161.5t170 -54.5t170 54.5t63 161.5v41q0 20 -9 34q-9 16 -32 21q-17 4 -48 4q-34 0 -50 -5
q-22 -6 -32 -24q-7 -14 -7 -37q0 -5 0.5 -19t0.5 -23q0 -30 -12.5 -43t-40.5 -13t-40 13.5t-12 42.5q0 34 11.5 66.5t24 52t36.5 51.5q10 12 28 38t26 42q26 49 26 106v25q0 18 -18 29q-7 5 -25 9zM259 580q64 0 64 -22v-25q0 -81 -71 -167q-46 -58 -63.5 -100t-17.5 -89
q0 -76 72 -76q73 0 73 76v63q0 10 19 17.5t49 7.5t49.5 -7.5t19.5 -17.5v-55q0 -94 -54.5 -145t-158.5 -51t-158.5 51t-54.5 145q0 52 21.5 99.5t73.5 108.5q76 88 76 143v22q0 22 61 22z" />
    <glyph glyph-name="multiply" unicode="&#xd7;" 
d="M40 270q0 -24 31.5 -44t52.5 -20q27 0 48 19l90 82l93 -82q21 -19 48 -19q23 0 51.5 20.5t28.5 45.5q0 9 -4 13q-1 4 -5 8q-8 11 -15 16q-21 21 -42 38q-40 34 -55 46q34 27 55 46q24 21 42 39q11 11 15 17q2 2 6 8q3 6 3 13q0 24 -29.5 45t-50.5 21q-26 0 -48 -20
l-93 -81l-90 81q-20 18 -48 18q-24 0 -43 -14l-15 -12q-8 -8 -12 -13q-5 -5 -7 -8q-4 -7 -4 -16q0 -18 12 -29l106 -95q-35 -30 -54 -47q-32 -28 -43 -40q-11 -11 -14 -15q-10 -11 -10 -21zM159 240q-35 -31 -71 0l-20 16q-8 7 -8 14t8 11l123 112l-123 110q-13 17 0 24
l20 20q36 27 71 0l103 -93l106 93q16 15 35 15t35 -15l18 -17q14 -11 4 -24l-129 -113l129 -112q10 -11 -4 -25l-18 -16q-16 -14 -35 -14t-35 14l-106 94z" />
    <glyph glyph-name="divide" unicode="&#xf7;" 
d="M217 490q18 -4 45 -4t44 3q17 4 27 10q18 12 18 31v69q0 20 -18 30q-11 8 -27 10q-17 4 -44 4t-45 -4q-19 -4 -27 -10q-19 -11 -19 -30v-69q0 -18 19 -31q12 -7 27 -9zM262 506q-71 0 -71 24v69q0 24 71 24q69 0 69 -24v-69q0 -24 -69 -24zM71 335q26 -6 57 -6h271
q31 0 57 6q23 6 33 13q21 15 21 35v21q0 20 -21 35q-14 9 -33 12q-26 6 -57 6h-271q-31 0 -57 -6q-19 -3 -33 -12q-21 -15 -21 -35v-21q0 -22 21 -35q10 -7 33 -13zM128 349q-41 0 -66 9.5t-25 24.5v21q0 15 25 24t66 9h271q41 0 66 -9t25 -24v-21q0 -15 -25.5 -24.5
t-65.5 -9.5h-271zM217 145q24 -4 45 -4t44 4q17 4 26 10q19 11 19 30v71q0 19 -18 30q-10 6 -27 10q-21 5 -44 5q-22 0 -45 -5q-17 -4 -27 -10q-19 -12 -19 -30v-71q0 -18 19 -30q11 -6 27 -10zM262 161q-31 0 -51 7t-20 17v71q0 11 20 18t51 7t50 -7t19 -18v-71
q0 -24 -69 -24z" />
    <glyph glyph-name="uni02BC" unicode="&#x2bc;" horiz-adv-x="0" 
d="M-45 537q12 -3 21 -3q13 0 25 4q8 2 14 6q9 4 15 14l49 97q10 19 10 42v66q0 19 -18 31q-10 6 -27 10q-17 3 -44 3t-44 -3q-17 -4 -27 -10q-18 -12 -18 -31v-72q0 -29 36 -40q6 -2 11 -2q-1 -3 -4.5 -13t-5.5 -16l-11 -33q-1 -2 -4 -11q-2 -6 -2 -11q0 -12 11 -21
q2 -2 13 -7zM-24 554q-11 0 -19 4t-6 9l34 100h-12q-17 0 -27 6q-15 5 -15 18v72q0 24 69 24t69 -24v-66q0 -19 -8 -33l-49 -97q-9 -13 -36 -13z" />
    <glyph glyph-name="circumflex" unicode="&#x2c6;" horiz-adv-x="658" 
d="M179 822q11 -2 27 -2q49 0 78 18q15 9 27 21q3 2 5.5 5t6 6.5l5.5 5.5l17 -16q18 -16 27 -22q29 -18 78 -18q16 0 28 2q10 2 18 6q16 8 16 25q0 12 -7 19l-73 88q-14 17 -53 26q-24 5 -51 5t-51 -5q-38 -9 -52 -26l-73 -88q-7 -7 -7 -19q0 -17 15 -24q8 -5 19 -7z
M206 840q-44 0 -41 15q0 2 2 4l73 88q21 24 88 24t89 -24l73 -88q10 -13 -17 -17l-23 -2q-52 0 -73 19l-49 44l-47 -44q-24 -19 -75 -19z" />
    <glyph glyph-name="caron" unicode="&#x2c7;" horiz-adv-x="658" 
d="M277 826q22 -6 51 -6q24 0 52 6q38 9 52 26l73 86q7 9 7 20q0 15 -15 25q-10 4 -19 6q-11 2 -28 2q-49 0 -77 -18q-4 -3 -8.5 -6.5t-10 -8t-8.5 -6.5l-18 -16q-3 3 -9 8.5t-8 7.5q-18 16 -28 22q-28 17 -77 17q-17 0 -27 -2q-11 -2 -19 -7q-15 -8 -15 -25q0 -11 7 -19
l73 -86q18 -20 52 -26zM328 840q-67 0 -88 25l-73 86q-9 15 18 19l21 1q53 0 75 -20l47 -42l49 42q18 20 73 20q46 0 42 -15q0 -3 -2 -5l-73 -86q-23 -25 -89 -25z" />
    <glyph glyph-name="uni02C9" unicode="&#x2c9;" horiz-adv-x="658" 
d="M211 837q26 -6 56 -6h120q30 0 56 6q20 4 34 12q21 14 21 34v26q0 21 -22 33q-12 7 -34 11q-28 5 -55 5h-120q-27 0 -55 -5q-22 -4 -34 -11q-22 -12 -22 -33v-26q0 -20 21 -34q14 -8 34 -12zM267 851q-40 0 -65.5 9t-25.5 23v26q0 29 91 29h120q91 0 91 -29v-26
q0 -14 -25.5 -23t-65.5 -9h-120z" />
    <glyph glyph-name="breve" unicode="&#x2d8;" horiz-adv-x="658" 
d="M166 907q37 -90 162 -90t163 90q12 26 12 47q0 14 -13 25q-4 3 -19 9q-12 3 -30 3q-22 0 -37 -6.5t-20 -12.5t-13 -18q-4 -9 -10 -12q-10 -6 -33 -6q-24 0 -32 6q-4 2 -10 12q-8 12 -13 18t-20 12.5t-37 6.5q-18 0 -30 -3q-16 -6 -19 -9q-13 -11 -13 -25q0 -21 12 -47z
M328 837q-69 0 -108 30.5t-46 86.5q0 17 42 17q41 0 46 -17q15 -38 66 -38q53 0 67 38q6 17 46 17q42 0 42 -17q-6 -55 -46.5 -86t-108.5 -31z" />
    <glyph glyph-name="dotaccent" unicode="&#x2d9;" horiz-adv-x="658" 
d="M285 825q21 -5 43 -5t43 5q16 3 26 10q18 11 18 30v68q0 19 -19 29q-7 4 -26 9q-17 3 -42 3t-41 -3q-19 -5 -26 -9q-19 -10 -19 -29v-68q0 -17 17 -30q9 -6 26 -10zM328 840q-29 0 -47.5 7t-18.5 18v68q0 21 66 21q67 0 67 -21v-68q0 -11 -18.5 -18t-48.5 -7z" />
    <glyph glyph-name="ring" unicode="&#x2da;" horiz-adv-x="658" 
d="M193 927q0 -54 41.5 -86.5t93.5 -32.5t94 32t42 87t-42 87t-94 32t-93.5 -32.5t-41.5 -86.5zM328 828q-49 0 -82 28.5t-33 70.5t33 70.5t82 28.5q50 0 83 -28.5t33 -70.5t-33 -70.5t-83 -28.5zM328 889q19 0 31.5 10t12.5 28t-12.5 29.5t-31.5 11.5q-18 0 -30 -11.5
t-12 -29.5t12 -28t30 -10zM352 927q0 -18 -24 -18q-22 0 -22 18q0 9 6 15t16 6q24 0 24 -21z" />
    <glyph glyph-name="ogonek" unicode="&#x2db;" horiz-adv-x="658" 
d="M258 -173q34 -15 83 -15q11 0 35 3l22 3q2 0 5 0.5t4 1.5q2 0 6 2q11 2 20 7q20 11 20 30v31q0 26 -28 29q-6 3 -12 3q-2 1 -7 1.5t-7 0.5q-17 0 -26 1q-10 0 -14 4l-1 1v4q0 22 20 40l5 6l2 4l2 9q0 14 -12 22q-8 5 -14 5q-6 2 -11 2h-7q-46 0 -92 -35.5t-46 -83.5
q0 -53 53 -76zM341 -168q-54 0 -85 18t-31 53q0 49 71 89q15 3 23 7l24 3q15 0 19 -3q9 -4 3 -10q-27 -25 -27 -55q0 -31 46 -31h15q15 0 20 -3q14 0 14 -10v-31q0 -6 -7.5 -11.5t-18.5 -6.5q-5 -3 -12 -3z" />
    <glyph glyph-name="tilde" unicode="&#x2dc;" horiz-adv-x="658" 
d="M131 882q0 -23 29 -39t46 -16q14 0 27 9q3 2 8 7l7 7q11 11 19 11q5 0 16 -4q12 -6 27 -12q44 -20 82 -20q43 0 78.5 27.5t52.5 66.5q3 5 3 12q0 14 -12 26q-9 10 -20 14q-24 13 -42 13q-15 0 -28 -9q-2 -1 -5.5 -4t-4.5 -3q-2 -3 -6 -7q-10 -11 -19 -11q-5 0 -16 4
q-18 9 -28 13q-44 21 -80 21q-41 0 -78.5 -28.5t-53.5 -66.5q-2 -6 -2 -11zM228 859q-6 -11 -18.5 -12.5t-26.5 7.5l-16 8q-20 10 -15 24q46 82 113 82q27 0 78 -21q36 -17 46 -17q22 0 40 24q16 20 46 4l15 -8q9 -4 13.5 -11t1.5 -12q-45 -82 -113 -82q-39 0 -79 20
q-39 16 -46 16q-19 0 -39 -22z" />
    <glyph glyph-name="hungarumlaut" unicode="&#x2dd;" horiz-adv-x="658" 
d="M180 822q11 -2 26 -2q20 0 41 4l23 6q13 4 21 12l95 91q2 1 6.5 8t4.5 14q0 19 -19 27q-10 4 -22 6q-13 3 -33 3q-73 0 -104 -30q-12 -11 -30 -38q-3 -4 -9 -14t-12.5 -20t-12.5 -19q-7 -9 -7 -17q0 -15 15 -25q9 -4 17 -6zM377 822q10 -2 27 -2q19 0 39 4q30 5 43 18
l94 91q4 4 6 7q5 8 5 16q0 19 -19 27q-10 4 -22 6q-13 2 -33 2q-27 0 -51 -5q-39 -7 -53 -27l-64 -88q-3 -5 -3 -6l-2 -5l-1 -6q0 -15 15 -25q2 -1 19 -7zM206 840q-40 0 -38 14q0 2 3 5l61 88q19 24 91 24q56 0 54 -17l-5 -7l-95 -91q-24 -16 -71 -16zM404 840
q-43 0 -41 15l2 4l64 88q15 24 88 24q56 0 54 -16q0 -4 -5 -8l-94 -91q-18 -16 -68 -16z" />
    <glyph glyph-name="uni0302" unicode="&#x302;" horiz-adv-x="0" 
d="M-149 822q11 -2 27 -2q49 0 77 18q10 6 28 22l17 16q3 -3 9 -8.5t8 -7.5q18 -16 28 -22q28 -18 77 -18q16 0 27 2q10 2 19 6q16 10 16 25q0 9 -8 19l-73 88q-14 17 -52 26q-24 5 -51 5t-51 -5q-38 -9 -52 -26l-73 -88q-8 -8 -8 -19q0 -15 16 -25q8 -4 19 -6zM-122 840
q-45 0 -42 14q1 2 3 5l73 88q21 24 88 24t88 -24l73 -88q12 -13 -17 -18q-9 -1 -22 -1q-52 0 -73 19l-49 44l-49 -44q-21 -19 -73 -19z" />
    <glyph glyph-name="uni0304" unicode="&#x304;" horiz-adv-x="0" 
d="M-117 837q26 -6 56 -6h118q29 0 57 6q19 3 33 12q22 13 22 34v26q0 19 -22 34q-14 6 -34 10q-23 5 -56 5h-118q-27 0 -55 -5q-22 -4 -34 -11q-22 -12 -22 -33v-26q0 -20 21 -34q14 -8 34 -12zM-61 851q-40 0 -65.5 9t-25.5 23v26q0 29 91 29h118q92 0 92 -29v-26
q0 -14 -25.5 -23t-66.5 -9h-118z" />
    <glyph glyph-name="uni0306" unicode="&#x306;" horiz-adv-x="0" 
d="M-163 907q38 -90 163 -90q123 0 163 90q12 27 12 47q0 14 -13 25q-4 3 -19 9q-12 3 -30 3q-30 0 -48 -12q-7 -4 -13 -13q-6 -8 -8 -12q-8 -10 -12 -12q-10 -6 -32 -6q-23 0 -33 6q-5 2 -11 12q-7 11 -12.5 17.5t-20.5 13t-36 6.5q-18 0 -30 -3q-15 -6 -19 -9
q-13 -11 -13 -25q0 -17 12 -47zM0 837q-139 0 -155 117q0 17 42 17q43 0 45 -17q10 -22 25.5 -30t42.5 -8q50 0 68 38q2 17 45 17q42 0 42 -17q-8 -55 -48 -86t-107 -31z" />
    <glyph glyph-name="uni0307" unicode="&#x307;" horiz-adv-x="0" 
d="M-44 825q21 -5 44 -5t44 5q17 4 26 10q18 11 18 30v68q0 18 -19 29q-9 5 -27 9q-17 3 -42 3t-42 -3q-18 -4 -27 -9q-19 -11 -19 -29v-68q0 -19 18 -30q9 -6 26 -10zM0 840q-29 0 -48.5 7t-19.5 18v68q0 21 68 21t68 -21v-68q0 -11 -19.5 -18t-48.5 -7z" />
    <glyph glyph-name="uni0308" unicode="&#x308;" horiz-adv-x="0" 
d="M-142 825q20 -5 42 -5q21 0 42 5q16 4 25 11q16 10 16 29v68q0 18 -18 29q-7 5 -25 9q-16 3 -40 3q-25 0 -40 -3q-19 -5 -26 -9q-18 -11 -18 -29v-68q0 -17 17 -30q8 -6 25 -10zM58 825q21 -5 42 -5q22 0 42 5q17 4 25 10q17 13 17 30v68q0 18 -18 29q-7 4 -26 9
q-15 3 -40 3q-24 0 -40 -3q-18 -4 -25 -9q-18 -11 -18 -29v-68q0 -19 16 -29q9 -7 25 -11zM-100 840q-29 0 -46.5 7t-17.5 18v68q0 21 64 21q63 0 63 -21v-68q0 -11 -17 -18t-46 -7zM100 840q-29 0 -46 7t-17 18v68q0 21 63 21q64 0 64 -21v-68q0 -11 -17.5 -18t-46.5 -7z
" />
    <glyph glyph-name="uni030A" unicode="&#x30a;" horiz-adv-x="0" 
d="M-135 927q0 -55 41 -87t94 -32t94 32t41 87t-41 87t-94 32t-94 -32t-41 -87zM0 828q-50 0 -82.5 28.5t-32.5 70.5t32.5 70.5t82.5 28.5t82.5 -28.5t32.5 -70.5t-32.5 -70.5t-82.5 -28.5zM0 889q18 0 30 10t12 28t-12 29.5t-30 11.5t-30 -11.5t-12 -29.5t12 -28t30 -10z
M22 927q0 -18 -22 -18t-22 18q0 9 6 15t16 6t16 -6t6 -15z" />
    <glyph glyph-name="uni030B" unicode="&#x30b;" horiz-adv-x="0" 
d="M-148 822q10 -2 26 -2q19 0 40 4l23 6q13 4 21 12l94 91q11 11 11 23q0 18 -19 26q-9 5 -22 7t-33 2q-71 0 -104 -30q-10 -10 -30 -38q-12 -20 -34 -53q-6 -6 -6 -17q0 -17 15 -24q8 -5 18 -7zM49 823q10 -3 27 -3q19 0 39 4q16 4 22 6q13 4 21 12l93 91q4 4 6 7
q5 7 5 16q0 18 -18 27q-10 4 -22 6q-14 2 -33 2q-27 0 -51 -5q-40 -7 -54 -27l-63 -88l-3 -6l-2 -5l-1 -6q0 -15 15 -25q8 -4 19 -6zM-122 840q-42 0 -39 15q0 2 2 4l61 88q22 24 91 24q57 0 54 -17l-5 -7l-94 -91q-24 -16 -70 -16zM76 840q-42 0 -41 15l2 4l63 88
q17 24 89 24q57 0 53 -17q-1 -3 -5 -7l-93 -91q-20 -16 -68 -16z" />
    <glyph glyph-name="uni030C" unicode="&#x30c;" horiz-adv-x="0" 
d="M-51 826q22 -6 51 -6q22 0 51 6q38 9 52 26l73 86q8 8 8 20q0 17 -16 25q-8 4 -19 6t-27 2q-49 0 -77 -18q-10 -6 -27 -21q-2 -2 -8 -7.5t-10 -8.5q-4 3 -10 8.5t-8 7.5q-17 15 -27 21q-28 18 -77 18q-16 0 -27 -2q-10 -2 -19 -6q-16 -8 -16 -25q0 -12 8 -20l73 -86
q18 -20 52 -26zM0 840q-67 0 -88 25l-73 86q-11 14 17 19q9 1 22 1q55 0 73 -20l49 -42l49 42q18 20 73 20q45 0 42 -14q-1 -3 -3 -6l-73 -86q-21 -25 -88 -25z" />
    <glyph glyph-name="uni0312" unicode="&#x312;" horiz-adv-x="0" 
d="M46 962q3 8 6 12q6 12 6 18q0 17 -13 24.5t-24 7.5q-33 0 -54 -23q-8 -10 -14 -20q-4 -6 -12 -20q-22 -36 -22 -99q0 -18 17 -29q12 -7 24 -9q16 -4 40 -4t40 4q12 2 24 9q17 11 17 29v62q0 30 -35 38zM0 840q-61 0 -61 22l4 47q0 27 15 42l20 34q17 14 29 17h1
q14 4 22 0q11 -5 7 -14l-25 -44h12q15 0 25 -3q12 -7 12 -17v-62q0 -22 -61 -22z" />
    <glyph glyph-name="uni0326" unicode="&#x326;" horiz-adv-x="0" 
d="M4 -227q24 8 35 24q15 23 22 35q9 13 13 27q2 10 4 28q0 3 1 17.5t2 24.5q1 19 -18 30q-13 6 -24 8q-21 4 -39 4t-39 -4q-11 -2 -24 -8q-18 -10 -18 -28v-63q0 -29 36 -38l-9 -15l-3 -6q0 -1 -0.5 -3.5t-0.5 -4.5q0 -25 27 -31q8 -2 13 -2h10q5 0 12 5zM-8 -212
q-16 0 -22 3q-11 5 -7 14l25 41h-12q-5 0 -25 6q-12 7 -12 16v63q0 8 17 14t44 6t44 -6t17 -14l-4 -49q0 -23 -15 -44l-20 -30q-12 -13 -29 -17z" />
    <glyph glyph-name="uni0327" unicode="&#x327;" horiz-adv-x="0" 
d="M-92 -176q37 -12 84 -12q29 0 44 1q26 2 48 9q61 18 61 81q0 46 -45 63q-22 8 -45 8v7q1 4 1 12q0 3 -2 13q-7 30 -54 30q-8 0 -22 -3q-10 -3 -15 -5q-13 -10 -13 -23v-50q0 -12 11 -23q10 -8 15 -10l18 -9l9 -12l-1 -1q-2 0 -4.5 -0.5t-5.5 -0.5t-11 4q0 10 -11 18
l-13 7l-9 2h-61q-15 0 -26 -6q-18 -12 -18 -31q0 -50 65 -69zM-8 -168q-119 0 -129 61q0 8 9 14q3 3 15 3h61l13 -7q0 -24 31 -24q32 0 32 28l-16 21l-15 7.5t-16.5 9.5t-6.5 10v50q0 11 30 11q14 0 24 -3.5t10 -7.5v-50q91 0 91 -52q0 -43 -33.5 -57t-99.5 -14z" />
    <glyph glyph-name="uni0328" unicode="&#x328;" horiz-adv-x="0" 
d="M-71 -173q34 -15 83 -15q23 0 52 5q21 4 34 9q25 11 25 33v31q0 13 -8 20.5t-19 9.5q-8 2 -12 2q-2 1 -7 1.5t-7 0.5q-18 0 -26 1q-12 1 -15 4l-1 1v4q0 20 22 40q6 6 6 9q2 4 2 10q0 22 -25 27q-6 2 -11 2h-7q-10 0 -30 -5q-14 -4 -22 -5l-7 -3q-79 -44 -79 -106
q0 -52 52 -76zM12 -168q-53 0 -84 18.5t-31 52.5q0 49 69 89q14 2 26 7l23 3q15 0 19 -3q7 -4 3 -10q-29 -26 -29 -55q0 -16 14 -23.5t32 -7.5h15q16 0 22 -3q12 0 12 -10v-31q0 -15 -24 -18q-6 -3 -11 -3z" />
    <glyph glyph-name="uni0335" unicode="&#x335;" horiz-adv-x="0" 
d="M-105 327q22 -5 56 -5h98q34 0 56 5q21 4 33 11q22 13 22 34v44q0 21 -22 33q-12 7 -34 11q-27 5 -55 5h-98q-27 0 -55 -5q-22 -4 -34 -11q-22 -12 -22 -33v-44q0 -21 22 -34q12 -7 33 -11zM-49 342q-91 0 -91 30v44q0 29 91 29h98q91 0 91 -29v-44q0 -30 -91 -30h-98z
" />
    <glyph glyph-name="uni0336" unicode="&#x336;" horiz-adv-x="0" 
d="M-240 328q26 -6 57 -6h366q31 0 57 6q19 3 33 12q21 15 21 35v38q0 20 -21 34q-14 8 -34 12q-26 6 -56 6h-366q-30 0 -56 -6q-20 -4 -34 -12q-21 -14 -21 -34v-38q0 -20 21 -35q14 -9 33 -12zM-183 342q-41 0 -66 9t-25 24v38q0 14 25.5 23t65.5 9h366q40 0 65.5 -9
t25.5 -23v-38q0 -15 -25 -24t-66 -9h-366z" />
    <glyph glyph-name="uni0337" unicode="&#x337;" horiz-adv-x="0" 
d="M-202 -36q22 -9 38 -9q6 0 17 3q13 3 20 17q3 7 33 73.5t74 163.5t82 182q103 231 117 262q6 14 19.5 44t19.5 42l10 25q1 2 2 5q1 1 1 2l3 10q0 15 -13 26q-7 7 -19 13q-23 9 -39 9q-10 0 -17 -3q-14 -5 -19 -17q-3 -7 -33 -73.5t-74 -163.5t-82 -182
q-103 -231 -117 -262q-18 -40 -38 -86q-8 -16 -11 -25l-3 -7q-3 -8 -3 -10q0 -12 12 -26q8 -8 20 -13zM-145 -17q-3 -6 -15 -7.5t-26 4.5q-32 10 -27 27l358 797q8 17 41 3q32 -10 27 -27z" />
    <glyph glyph-name="uni0338" unicode="&#x338;" horiz-adv-x="0" 
d="M-211 -30q21 -9 43 -9q32 0 42 22l195 411q66 141 121 256q32 70 39 84q3 6 6.5 14t4.5 10l5 17q0 18 -13 29q-7 6 -23 14q-25 10 -44 10q-8 0 -17 -3q-16 -5 -22 -17l-195 -413q-22 -47 -121 -257q-6 -14 -19.5 -43.5t-19.5 -40.5q-3 -6 -6.5 -14t-4.5 -10l-5 -17
q0 -27 34 -43zM-144 -8q-8 -21 -54 -6q-32 12 -27 30l369 783q4 8 20 8.5t34 -6.5q31 -14 27 -29z" />
    <glyph glyph-name="uni2002" unicode="&#x2002;" horiz-adv-x="395" 
 />
    <glyph glyph-name="uni2003" unicode="&#x2003;" horiz-adv-x="658" 
 />
    <glyph glyph-name="uni2007" unicode="&#x2007;" 
 />
    <glyph glyph-name="figuredash" unicode="&#x2012;" 
d="M34 328q26 -6 57 -6h343q31 0 57 6q19 3 34 12q21 15 21 35v38q0 21 -22 34q-14 9 -33 12q-28 6 -57 6h-343q-30 0 -56 -6q-20 -4 -34 -12q-21 -14 -21 -34v-38q0 -20 21 -35q14 -9 33 -12zM91 342q-41 0 -66 9t-25 24v38q0 14 25.5 23t65.5 9h343q41 0 66.5 -9t25.5 -23
v-38q0 -15 -25 -24t-67 -9h-343z" />
    <glyph glyph-name="endash" unicode="&#x2013;" horiz-adv-x="395" 
d="M34 328q26 -6 57 -6h213q31 0 57 6q19 3 33 12q21 15 21 35v38q0 20 -21 34q-14 8 -34 12q-26 6 -56 6h-213q-30 0 -56 -6q-20 -4 -34 -12q-21 -14 -21 -34v-38q0 -20 21 -35q14 -9 33 -12zM91 342q-41 0 -66 9t-25 24v38q0 14 25.5 23t65.5 9h213q40 0 65.5 -9t25.5 -23
v-38q0 -15 -25 -24t-66 -9h-213z" />
    <glyph glyph-name="emdash" unicode="&#x2014;" horiz-adv-x="658" 
d="M34 328q26 -6 57 -6h475q31 0 57 6q19 3 33 12q21 15 21 35v38q0 20 -21 34q-14 8 -34 12q-26 6 -56 6h-475q-30 0 -56 -6q-20 -4 -34 -12q-21 -14 -21 -34v-38q0 -20 21 -35q14 -9 33 -12zM91 342q-41 0 -66 9t-25 24v38q0 14 25.5 23t65.5 9h475q40 0 65.5 -9t25.5 -23
v-38q0 -15 -25 -24t-66 -9h-475z" />
    <glyph glyph-name="quoteleft" unicode="&#x2018;" horiz-adv-x="247" 
d="M174 669q13 32 18 42q12 30 17 41q4 10 6 13l3 13q0 16 -15 23q-4 2 -15 5q-9 1 -21 1q-15 0 -24 -2q-12 -2 -16 -4q-12 -6 -17 -15l-64 -121q-12 -22 -12 -44v-63q0 -18 19 -30q10 -6 27 -10q23 -5 45 -5t43 5q17 4 26 10q17 13 17 30v77q0 22 -19 32l-11 2h-5h-2z
M125 533q-31 0 -51 7t-20 18v63q0 25 10 35l64 121q3 10 39 10q33 -1 31 -10l-53 -124h14q2 0 6 -0.5t8.5 -2t5.5 -1.5h4q8 -4 8 -14v-77q0 -11 -18.5 -18t-47.5 -7z" />
    <glyph glyph-name="quoteright" unicode="&#x2019;" horiz-adv-x="247" 
d="M57 515q9 -2 22 -2q10 0 25 3q10 2 15 4q11 4 17 14l65 120q10 21 10 46v63q0 19 -17 30q-11 8 -26 10q-17 4 -43 4q-27 0 -45 -3q-17 -4 -27 -10q-19 -13 -19 -31v-73q0 -28 31 -38q1 0 3 -1t3 -1l-40 -98l-2 -8q0 -13 13 -23q6 -4 15 -6zM79 533q-30 0 -30 11l51 123
h-12q-10 0 -20 6q-14 4 -14 17v73q0 24 71 24q66 0 66 -24v-63q0 -20 -8 -36l-65 -120q-7 -11 -39 -11z" />
    <glyph glyph-name="quotesinglbase" unicode="&#x201a;" horiz-adv-x="247" 
d="M53 -11q7 -7 15 -7q5 0 8 -1q-2 -6 -7 -20t-8 -22l-14 -40q0 -3 -1 -5.5t-2 -5.5t-1 -4q-3 -9 -3 -12q0 -14 16 -22q3 -1 14 -4q7 -1 18 -1q16 0 25 2q24 3 33 20l58 120q10 22 10 43v65q0 19 -19 30q-9 6 -26 10q-23 4 -44 4t-45 -4q-16 -4 -27 -10q-19 -12 -19 -30v-76
q0 -21 19 -30zM88 -135q-15 0 -22.5 2.5t-4.5 8.5l42 123h-12q-4 0 -12.5 1.5t-10.5 1.5v3q-5 0 -9.5 4.5t-4.5 9.5v76q0 11 20 17.5t51 6.5q69 0 69 -24v-65q0 -20 -8 -34l-58 -120q-4 -11 -40 -11z" />
    <glyph glyph-name="quotedblleft" unicode="&#x201c;" horiz-adv-x="441" 
d="M174 669q13 32 18 42q12 30 17 41q4 10 6 13l3 13q0 16 -15 23q-4 2 -15 5q-9 1 -21 1q-15 0 -24 -2q-12 -2 -16 -4q-12 -6 -17 -15l-64 -121q-12 -22 -12 -44v-63q0 -18 19 -30q10 -6 27 -10q23 -5 45 -5t43 5q17 4 26 10q17 13 17 30v77q0 22 -19 32l-11 2h-5h-2z
M273 518q21 -5 43 -5t45 5q17 4 27 10q19 12 19 30v77q0 16 -14 26q-5 4 -20 9q-2 0 -4 1q12 28 16 41q14 35 16 41l5 13q4 11 4 13q0 14 -14 22q-4 2 -15 5q-7 1 -19 1q-15 0 -24 -2q-12 -2 -16 -4q-11 -4 -17 -15l-64 -121q-11 -22 -11 -44v-63q0 -17 17 -30q9 -6 26 -10z
M125 533q-31 0 -51 7t-20 18v63q0 25 10 35l64 121q3 10 39 10q33 -1 31 -10l-53 -124h14q2 0 6 -0.5t8.5 -2t5.5 -1.5h4q8 -4 8 -14v-77q0 -11 -18.5 -18t-47.5 -7zM316 533q-29 0 -47.5 7t-18.5 18v63q0 26 9 35l64 121q5 10 39 10q29 -1 27 -10l-48 -124h12l20 -4
q14 -4 14 -14v-77q0 -11 -20 -18t-51 -7z" />
    <glyph glyph-name="quotedblright" unicode="&#x201d;" horiz-adv-x="441" 
d="M57 515q9 -2 22 -2q10 0 25 3q10 2 15 4q11 4 17 14l65 120q10 21 10 46v63q0 19 -17 30q-11 8 -26 10q-17 4 -43 4q-27 0 -45 -3q-17 -4 -27 -10q-19 -13 -19 -31v-73q0 -28 31 -38q1 0 3 -1t3 -1l-40 -98l-2 -8q0 -13 13 -23q6 -4 15 -6zM256 654q8 -4 11 -5
q-4 -12 -16 -40l-16 -41q-1 -2 -2.5 -7t-2.5 -7q-4 -9 -4 -13q0 -5 2 -9t4.5 -6.5t5.5 -4.5l3 -2q3 -1 14 -4q8 -2 19 -2q5 0 25 2q5 1 15 5t17 15l64 120q12 22 12 45v63q0 18 -19 31q-10 6 -27 10q-18 3 -45 3q-26 0 -43 -4q-15 -2 -26 -10q-17 -11 -17 -30v-73
q0 -26 21 -35q1 -1 5 -1zM79 533q-30 0 -30 11l51 123h-12q-10 0 -20 6q-14 4 -14 17v73q0 24 71 24q66 0 66 -24v-63q0 -20 -8 -36l-65 -120q-7 -11 -39 -11zM274 533q-27 0 -28 9q0 1 1 2l49 123h-14q-10 0 -20 6h-3q-9 4 -9 17v73q0 24 66 24q71 0 71 -24v-63
q0 -19 -10 -36l-64 -120q-4 -11 -39 -11z" />
    <glyph glyph-name="quotedblbase" unicode="&#x201e;" horiz-adv-x="441" 
d="M55 -13q5 -5 13 -5h3l-40 -98q-2 -2 -2 -8q0 -14 12 -23q7 -5 16 -7q3 0 7 -0.5t7 -0.5h8q16 0 25 2q23 3 31 19l65 117q11 18 11 47v65q0 19 -18 30q-12 7 -26 9q-20 5 -42 5q-21 0 -45 -4q-16 -4 -27 -10q-19 -12 -19 -30v-76q0 -24 21 -32zM251 -14q6 -4 11 -4h5
q-4 -12 -16 -42l-16 -40q-2 -3 -3.5 -8t-2.5 -7q-3 -10 -3 -13q0 -14 16 -22q3 -1 14 -4q7 -1 18 -1q16 0 25 1q24 5 32 20l64 117q12 24 12 47v65q0 18 -19 30q-11 6 -27 10q-24 4 -45 4q-22 0 -42 -5q-14 -2 -26 -9q-18 -11 -18 -30v-76q0 -9 4 -18q7 -12 17 -15zM79 -135
q-30 0 -30 11l51 123h-12q-2 0 -10 1.5t-10 1.5v3q-14 0 -14 14v76q0 11 20 17.5t51 6.5q29 0 47.5 -6.5t18.5 -17.5v-65q0 -21 -8 -37l-65 -117q-4 -11 -39 -11zM274 -135q-15 0 -22.5 2.5t-4.5 8.5l49 123h-14q-2 0 -10 1.5t-10 1.5l-3 3q-9 0 -9 14v76q0 11 18.5 17.5
t47.5 6.5q31 0 51 -6.5t20 -17.5v-65q0 -20 -10 -37l-64 -117q-3 -11 -39 -11z" />
    <glyph glyph-name="bullet" unicode="&#x2022;" horiz-adv-x="395" 
d="M26 393q0 -67 53.5 -107.5t118.5 -40.5t116.5 40.5t51.5 107.5q0 68 -51.5 109t-116.5 41q-66 0 -119 -41t-53 -109zM198 265q-64 0 -108 37.5t-44 90.5q0 54 44 92t108 38q63 0 105.5 -38t42.5 -92t-42.5 -91t-105.5 -37z" />
    <glyph glyph-name="ellipsis" unicode="&#x2026;" horiz-adv-x="658" 
d="M65 -16q23 -5 45 -5q23 0 44 5q17 4 27 10q18 11 18 30v71q0 19 -19 30q-9 6 -26 10q-23 4 -44 4t-45 -4q-16 -4 -27 -10q-19 -12 -19 -30v-71q0 -18 19 -30q10 -6 27 -10zM284 -16q21 -5 44 -5q22 0 45 5q17 4 27 10q19 11 19 30v71q0 18 -19 30q-11 6 -27 10
q-24 4 -45 4t-44 -4q-17 -4 -26 -10q-19 -11 -19 -30v-71q0 -19 18 -30q10 -6 27 -10zM503 -16q23 -5 45 -5q23 0 44 5q15 3 27 10q18 13 18 30v71q0 18 -19 30q-10 5 -26 9q-22 5 -44 5q-21 0 -44 -4q-17 -4 -27 -10q-19 -12 -19 -30v-71q0 -19 18 -30q11 -6 27 -10z
M110 -1q-31 0 -51 7t-20 18v71q0 10 20 17t51 7q69 0 69 -24v-71q0 -11 -19 -18t-50 -7zM328 -1q-31 0 -50 7t-19 18v71q0 24 69 24q71 0 71 -24v-71q0 -11 -19.5 -18t-51.5 -7zM548 -1q-32 0 -51 7t-19 18v71q0 24 70 24q29 0 49 -7t20 -17v-71q0 -10 -20 -17.5t-49 -7.5z
" />
    <glyph glyph-name="guilsinglleft" unicode="&#x2039;" horiz-adv-x="247" 
d="M134 242q23 -3 40 -3t28 2q12 2 19 6q16 11 16 25q0 6 -5 16q-1 2 -3 6.5t-4 6.5l-22 38q-5 8 -16 25.5t-15 24.5q23 36 29 47l22 36l3.5 7t3.5 6q5 10 5 15q0 14 -16 25q-8 4 -18 6q-11 2 -27 2q-19 0 -40 -3q-31 -7 -43 -22l-76 -91q-4 -5 -8 -17l-3 -12q1 -14 10 -25
l76 -99q13 -17 44 -22zM174 259q-54 0 -68 17l-76 99q-6 4 -6 14q1 2 2.5 8t3.5 7l76 91q11 18 68 18q44 0 40 -15q0 -1 -1 -3l-64 -106l67 -113q5 -12 -20 -16z" />
    <glyph glyph-name="guilsinglright" unicode="&#x203a;" horiz-adv-x="247" 
d="M47 241q10 -2 26 -2q25 0 39 3q31 4 44 22l74 96q8 6 10 16q1 6 1 13q0 8 -1 13q-4 11 -10 16l-70 89q-14 17 -46 22q-20 4 -41 4q-16 0 -27 -2q-10 -2 -18 -6q-16 -11 -16 -25q0 -5 5 -15q1 -1 3.5 -6l3.5 -7l22 -36q6 -11 29 -47q-24 -42 -30 -52q-4 -8 -12 -22t-9 -16
t-3.5 -6.5t-3.5 -6.5q-5 -10 -5 -15q0 -15 16 -25q7 -3 19 -5zM140 276q-9 -17 -67 -17q-44 0 -40 14q0 1 1 3l64 113l-64 106q-7 12 15 16q10 2 24 2q55 0 71 -18l72 -91q5 -2 5 -15q0 -11 -5 -14z" />
    <glyph glyph-name="fraction" unicode="&#x2044;" horiz-adv-x="114" 
d="M-146 -18q11 -3 28 -3q21 0 33 3q26 5 35 26l342 756q4 8 4 13q0 17 -17 24q-6 3 -18 5q-10 1 -24 1q-21 0 -33 -2q-31 -6 -39 -25l-342 -756q-2 -4 -2 -10q0 -16 14 -25q8 -5 19 -7zM-118 -1q-44 0 -41 17l342 756q4 15 54 15q41 0 38 -12q0 -1 -1 -3l-342 -756
q-2 -17 -50 -17z" />
    <glyph glyph-name="Euro" unicode="&#x20ac;" 
d="M48 520q-2 -1 -7 -1q-31 -7 -31 -33q0 -2 -0.5 -11t-0.5 -15q4 -18 4 -19q7 -15 21 -18l14 -3v-24q-3 -1 -10 -1l-10 -3q-18 -13 -18 -31q0 -3 -0.5 -12t-0.5 -13q3 -26 20 -36q0 -3 9 -3l10 -1v-111q0 -109 62 -162.5t171 -53.5q107 0 168 54.5t61 161.5q0 53 -14 70
t-73 17q-28 0 -46 -3q-21 -4 -33 -18q-10 -13 -10 -33q-1 -11 -1 -41q0 -32 -11 -44t-40 -12q-28 0 -38.5 12t-10.5 44v117h93q30 0 56 7q20 4 32 13q20 12 20 34q0 18 -18 30q-13 8 -28 11q-31 7 -73 9q-51 2 -82 0v22h93q29 0 55 5q19 3 32 12q21 13 21 34q0 17 -17 30
q-7 5 -29 12q-26 6 -72 8q-37 2 -83 0v88q0 31 11 44.5t38 13.5q34 0 43 -19q8 -16 8 -63q0 -18 18 -29q7 -4 26 -9q16 -3 40 -3q26 0 44 2q15 2 28 6q21 10 21 30q0 117 -55.5 177t-173.5 60q-109 0 -171 -53.5t-62 -163.5v-82zM281 -11q-107 0 -160 50.5t-53 145.5v129
h-11q-2 0 -8 1.5t-10 1.5q-9 5 -9 14v30q0 9 9 14q4 0 10 1t8 1h11v63h-11q-11 0 -18 3q-9 0 -9 11v32q0 7 9 12q7 2 18 2h11v102q0 96 53 146.5t160 50.5q103 0 156 -51t53 -146v-20q0 -18 -52 -18h-21q-64 0 -64 21v24q0 78 -71 78q-69 0 -69 -78v-109h113q39 0 63.5 -8
t24.5 -21q0 -31 -88 -31h-113v-63h113q37 0 62.5 -8.5t25.5 -20.5q0 -15 -25 -24.5t-63 -9.5h-113v-137q0 -42 17 -59t52 -17q36 0 53.5 17t17.5 59v49q0 26 70 26q67 0 67 -26v-41q0 -95 -53 -145.5t-156 -50.5z" />
    <glyph glyph-name="trademark" unicode="&#x2122;" horiz-adv-x="784" 
d="M125 371q12 -2 30 -2t30 2q13 2 20 7q16 9 16 26v292q20 0 31 1q22 0 36 5q10 2 16 7q12 10 12 23v23q0 21 -22 34q-14 9 -33 12q-28 6 -57 6h-101q-30 0 -56 -6q-20 -4 -34 -12q-21 -14 -21 -34v-23q0 -13 12 -23q8 -5 17 -7q18 -5 37 -5q11 -1 32 -1v-292q0 -17 15 -26
q9 -5 20 -7zM366 371q10 -2 26 -2t27 2q9 2 19 6q15 10 15 25v117l30 -125q3 -14 17 -19q4 -2 17 -5q9 -1 24 -1t25 1q13 2 17 4q15 7 18 21l28 127l2 -120q0 -18 16 -25q6 -4 19 -6q10 -2 27 -2t28 2q13 2 20 6q16 8 16 25v361q0 20 -18 30q-11 8 -26 10q-17 4 -44 4
q-29 0 -46 -4q-17 -2 -28 -9q-18 -10 -22 -27l-29 -138l-29 138q-4 17 -22 27q-10 6 -27 10q-18 3 -47 3q-26 0 -43 -4q-15 -2 -26 -10q-17 -11 -17 -30v-361q0 -16 15 -25q8 -4 18 -6zM155 389q-45 0 -45 15v313h-49q-49 0 -49 15v23q0 14 25.5 23t65.5 9h101q41 0 66.5 -9
t25.5 -23v-23q0 -15 -46 -15h-49v-313q0 -15 -46 -15zM392 389q-39 0 -39 13v361q0 24 66 24q73 0 76 -24l49 -230l49 230q6 24 76 24q68 0 68 -24v-361q0 -13 -44 -13q-42 0 -42 13l-4 289l-66 -292q-3 -10 -40 -10q-36 0 -39 10l-68 292l-1 -289q0 -13 -41 -13z" />
    <glyph glyph-name="minus" unicode="&#x2212;" 
d="M71 335q26 -6 57 -6h271q31 0 57 6q23 6 33 13q21 15 21 35v21q0 20 -21 35q-14 9 -33 12q-26 6 -57 6h-271q-31 0 -57 -6q-19 -3 -33 -12q-21 -15 -21 -35v-21q0 -22 21 -35q10 -7 33 -13zM128 349q-41 0 -66 9.5t-25 24.5v21q0 15 25 24t66 9h271q41 0 66 -9t25 -24
v-21q0 -15 -25.5 -24.5t-65.5 -9.5h-271z" />
    <glyph glyph-name="uni2215" unicode="&#x2215;" 
d="M45 -18q12 -3 31 -3q20 0 41 4q16 4 24 8q15 6 21 20l351 750l2 4v2l1 4q0 15 -16 26q-9 5 -21 7q-12 3 -31 3q-17 0 -38 -3q-16 -4 -23 -7q-16 -9 -21 -19l-354 -750q-3 -9 -3 -13q0 -19 16 -26q9 -5 20 -7zM76 -1q-50 0 -47 17l1 3l354 750q8 18 64 18q24 0 37 -5
t10 -13l-351 -750q-12 -20 -68 -20z" />
    <glyph glyph-name="uni2219" unicode="&#x2219;" horiz-adv-x="289" 
d="M92 307q26 -5 53 -5t52 5q24 7 31 12q20 12 20 33v82q0 19 -19 34q-9 5 -31 12q-26 5 -53 5t-53 -5q-18 -3 -31 -12q-20 -14 -20 -34v-82q0 -20 20 -33q9 -5 31 -12zM145 322q-38 0 -61 8.5t-23 21.5v82q0 31 84 31q83 0 83 -31v-82q0 -13 -23 -21.5t-60 -8.5z" />
    <glyph glyph-name="approxequal" unicode="&#x2248;" 
d="M2 461q1 -23 32.5 -41t50.5 -18q20 0 35 12l11 11l9 10q18 20 36 20q13 0 32 -8l39 -20q57 -34 103 -34q56 0 94.5 28.5t73.5 79.5l4 7q0 2 0.5 5t0.5 4q0 26 -31 44.5t-51 18.5q-19 0 -34 -13q-4 -3 -11 -10q-1 -2 -3 -3.5t-4 -3.5l-3 -3q-18 -21 -36 -21q-15 0 -34 8
l-38 20q-57 34 -102 34q-52 0 -98 -31.5t-72 -78.5l-3 -9q-1 -7 -1 -8zM113 434q-23 -24 -59 -3l-20 14q-18 13 -10 23q36 52 70.5 76t81.5 24q43 0 94 -32q57 -30 80 -30q32 0 64 41q9 13 25.5 13.5t32.5 -10.5l21 -14q13 -14 9 -24q-36 -52 -70.5 -75.5t-81.5 -23.5
q-40 0 -95 32q-59 30 -79 30q-19 0 -32.5 -9.5t-30.5 -31.5zM2 268q0 -23 32.5 -41.5t50.5 -18.5q20 0 35 12q3 2 6.5 6t5.5 5q1 1 3.5 4.5t4.5 5.5q17 20 36 20q12 0 33 -8q17 -8 40 -21q61 -34 101 -34q56 0 94.5 29.5t73.5 81.5l3 6q2 6 2 10q0 25 -31 42.5t-51 17.5
q-19 0 -34 -13q-4 -3 -11 -10l-10 -10q-19 -21 -36 -21q-13 0 -32 8l-39 21q-61 35 -103 35q-105 0 -169 -109q-5 -7 -5 -18zM113 240q-23 -25 -59 -2l-20 14q-18 10 -10 24q35 52 69.5 75.5t82.5 23.5q39 0 94 -33q59 -31 80 -31q31 0 64 41q9 13 25.5 13.5t32.5 -10.5
l21 -13q15 -12 9 -22q-36 -53 -71 -77.5t-81 -24.5q-39 0 -95 34q-7 3 -20.5 9.5t-18.5 9t-13.5 5.5t-14.5 4t-12 1q-19 0 -32.5 -9.5t-30.5 -31.5z" />
    <glyph glyph-name="notequal" unicode="&#x2260;" 
d="M74 139q10 -2 26 -2t37 3q30 7 40 23l53 76h157q29 0 56 5q20 4 34 12q21 13 21 34v24q0 20 -21 35q-10 7 -33 13q-26 6 -57 6h-67l36 52q32 -2 60 0q31 2 49 8q33 11 33 37v51q0 11 -10 21q-10 6 -14 7q-5 1 -28 4q1 1 4.5 6t5.5 8l19 29q2 2 4 6t3 5q5 9 5 15
q0 14 -16 24q-6 4 -19 6q-10 2 -26 2q-24 0 -38 -3q-29 -5 -43 -23l-52 -76h-153q-28 0 -55 -5q-22 -4 -34 -11q-22 -11 -22 -33v-26q0 -20 21 -34q14 -8 34 -12q26 -6 56 -6h65l-36 -52q-32 2 -60 0q-31 -2 -48 -8q-32 -13 -32 -38v-52q0 -12 10 -20q3 -3 14 -8
q12 -3 27 -3l-10 -15q-3 -5 -9.5 -15t-9.5 -14q-1 -2 -3.5 -5.5t-3.5 -4.5q-2 -3 -3 -7l-2 -3v-6q0 -15 16 -25q5 -3 19 -5zM100 157q-43 0 -41 13q0 2 2 4l57 85h-35q-34 0 -34 11v52q0 10 17.5 18t46.5 8h66l64 92h-103q-41 0 -66 9t-25 23v26q0 29 91 29h164l58 85
q9 17 64 17q44 0 40 -14q0 -1 -1 -3l-58 -85h34q37 0 37 -11v-51q0 -11 -18.5 -18t-45.5 -7h-68l-64 -92h105q40 0 65.5 -9.5t25.5 -24.5v-24q0 -31 -91 -31h-167l-59 -85q-10 -17 -61 -17z" />
    <glyph glyph-name="lessequal" unicode="&#x2264;" 
d="M473 584q-13 23 -55 23q-27 0 -62 -11l-274 -82q-21 -9 -24 -10q-21 -15 -21 -33v-53q0 -18 21 -33q10 -6 24 -11l274 -82q32 -10 62 -10q20 0 36 6q26 12 26 40q0 34 -8.5 49t-43.5 25l-154 43l154 42q13 2 28 11q8 4 15 12q9 11 9 23v26q-3 18 -7 25zM362 577
q43 14 70.5 9t27.5 -25v-28q0 -16 -37 -27l-225 -61l225 -62q37 -11 37 -28v-27q0 -21 -27.5 -25.5t-70.5 8.5l-274 82q-31 10 -31 25v53q0 14 31 24zM91 157q28 -6 58 -6h219q30 0 58 6q21 6 33 13q21 15 21 35v24q0 21 -22 34q-10 6 -34 12q-22 4 -56 4h-219q-34 0 -56 -5
q-22 -4 -34 -11q-22 -13 -22 -34v-24q0 -20 21 -35q12 -7 33 -13zM149 171q-41 0 -66.5 9.5t-25.5 24.5v24q0 30 92 30h219q92 0 92 -30v-24q0 -15 -25.5 -24.5t-66.5 -9.5h-219z" />
    <glyph glyph-name="greaterequal" unicode="&#x2265;" 
d="M54 305q13 -23 54 -23q30 0 62 10l274 82q14 5 24 12q20 13 20 32v53q0 19 -20 33q-9 5 -24 10l-274 82q-33 11 -62 11q-21 0 -35 -7q-25 -12 -25 -39v-23q2 -15 6 -23q9 -19 44 -28l154 -42l-154 -43q-14 -3 -28 -12q-22 -14 -22 -35v-25q2 -17 6 -25zM164 311
q-44 -13 -70 -8.5t-26 25.5v27q0 17 35 28l225 62l-225 61q-35 10 -35 27v28q0 21 26 25.5t70 -9.5l274 -82q30 -10 30 -24v-53q0 -15 -30 -25zM102 157q26 -6 57 -6h218q31 0 57 6q23 6 34 13q20 14 20 35v24q0 22 -22 34q-14 9 -33 12q-22 4 -56 4h-218q-34 0 -56 -4
q-19 -3 -33 -12q-22 -12 -22 -34v-24q0 -21 20 -35q11 -7 34 -13zM159 171q-42 0 -66.5 9.5t-24.5 24.5v24q0 30 91 30h218q91 0 91 -30v-24q0 -15 -24.5 -24.5t-66.5 -9.5h-218z" />
    <glyph glyph-name="caroncomb.alt" horiz-adv-x="0" 
d="M-41 656q-2 -4 -3.5 -9.5t-4 -12.5t-3.5 -11q-8 -26 -12 -35l-3 -12q-2 -6 -2 -11q0 -12 11 -21q2 -2 13 -7q12 -3 21 -3q13 0 25 4q7 2 15 6t14 14l49 103q9 19 9 43v59q0 20 -18 30q-11 8 -26 10q-17 4 -44 4t-44 -4q-15 -2 -26 -10q-18 -10 -18 -30v-69q0 -26 38 -36
q1 0 2.5 -0.5l3 -1t3.5 -0.5zM-24 554q-11 0 -19 4t-6 9l34 106h-12q-10 0 -25 5h-2q-14 6 -14 16v69q0 24 68 24t68 -24v-59q0 -15 -7 -34l-49 -103q-9 -13 -36 -13z" />
    <glyph glyph-name="_FSHallmark" horiz-adv-x="980" 
d="M92 784h819v-96h-819v96zM805 505q0 10 -7 22q-9 10 -18 17q-16 8 -23 10q-3 0 -11.5 1.5t-12.5 1.5q-25 0 -47 -12q-20 -13 -20 -29q0 -30 18 -40q25 -13 44 -17l65 -15q17 -6 29 -7q5 -1 24 -6q3 -2 10.5 -5.5t10.5 -5.5q21 -13 31 -27q11 -18 12 -43q1 -26 -10 -49
q-25 -41 -72 -58q-48 -15 -93 -15q-39 0 -67 9q-26 7 -57 27q-25 18 -42 47q-15 27 -15 64l95 -2q0 -5 4 -14q2 -15 14 -26q11 -11 25 -17q17 -9 46 -9q32 0 52 12q20 9 20 25q0 30 -78 46q-74 18 -120 43q-49 26 -49 82q0 48 32 74q31 25 72 39q34 8 68 8q48 0 93 -18
q44 -18 65 -65q11 -27 11 -48h-99zM200 228h-108v407h345v-93h-237v-91h197v-91h-197v-132zM428 277q0 21 14 35q13 13 35 13q20 0 39 -14q16 -13 16 -34q0 -19 -16 -34q-17 -13 -39 -13q-19 0 -34 15q-15 13 -15 32zM90 177h820v-97h-820v97z" />
    <glyph glyph-name="_Fontastica" horiz-adv-x="980" 
d="M283 147h-113q-1 2 -1 5v664h497v-102h-383v-273h384v-103h-384v-191zM355 626h385v190h113v-667h-498v101h385v273h-385v103zM740 82q-7 -4 -7 -10q0 -9 5 -14q4 -6 12 -6q9 0 18 6l6 -6q-9 -11 -24 -11q-10 0 -21 6q-6 7 -9 21q-1 13 8 22q10 10 22 10q14 0 24 -10
l-6 -8q-1 1 -3 2.5t-3 2.5q-1 2 -9 2h-3q-9 -4 -10 -7zM170 99h42v-10h-27v-16h26v-9h-26v-22h-15v57zM264 99q18 0 29 -15q8 -11 2 -26q-6 -16 -25 -17l-7 -3q-8 0 -12 4q-18 8 -18 25q0 15 9 23q6 9 22 9zM374 42h-3q-2 -1 -4 -1q-5 0 -9 6l-6 8q0 2 -2 4.5t-3 3.5l-12 14
v-35h-13v57h11q4 -1 6 -8q9 -9 13 -14q1 -2 5 -8l6 -9v39h11v-57zM399 99h48v-10h-18v-47h-12v47h-18v10zM577 72q12 -2 12 -13q1 -12 -10 -17q-2 -1 -11 -1q-19 0 -27 9q1 1 1 2l1 2q0 2 2 4l18 -6h8q4 6 4 3q0 9 -13 12q-2 0 -3 1t-5 1q-9 3 -9 13q-3 9 8 15q6 2 13 2
q14 0 23 -5l-5 -10q-2 1 -4 1q-1 0 -3 1q-1 1 -4 1q-1 0 -2 2h-8q-4 0 -4 -4q-2 -2 4 -8q6 -1 14 -5zM608 99h50v-10h-18v-47h-13v47h-19v10zM681 99h15v-57h-15v57zM832 99l12 -27q0 -2 6 -16q4 -10 7 -14h-13l-5 12h-28l-5 -12h-13q15 29 23 57h16zM497 97q2 -6 6 -13
q2 -2 4 -7t3 -6q0 -2 2 -7t3 -8t3 -7.5t2 -6.5h-13q-1 1 -1 5l-1 2q-1 1 -1.5 2t-0.5 3h-26q-1 -2 -1 -7q-1 -1 -1 -2l-3 -3h-12l24 55h13zM281 71q0 8 -4 13q-7 5 -14 5q-2 -2 -4 -2q-6 -1 -11 -9q-6 -7 -1 -14q4 -13 17 -13q4 0 5 1q12 3 12 17v2zM499 64q-1 0 -1 2t-1 3
t-2 3l-1 2q-1 2 -1 6q-1 1 -2 3l-1 2l-10 -21h19zM833 64q-1 1 -1 5q-2 5 -3 5q-1 1 -1 3t-1 3l-1 2q-1 2 -2 3l-9 -21h18z" />
    </font>
</defs>
</svg>
