<?xml version="1.0" standalone="no"?>
<!DOCTYPE svg PUBLIC "-//W3C//DTD SVG 1.1//EN" "http://www.w3.org/Graphics/SVG/1.1/DTD/svg11.dtd" >
<svg xmlns="http://www.w3.org/2000/svg" xmlns:xlink="http://www.w3.org/1999/xlink" version="1.1">
<metadata>
Created by FontForge 20170731 at Wed Apr  3 19:46:01 2019
 By Aleksey,,,
Copyright (c) 2019 by Fontastica. All rights reserved.
</metadata>
<defs>
<font id="Berk-Regular" horiz-adv-x="525" >
  <font-face 
    font-family="Berk"
    font-weight="400"
    font-stretch="normal"
    units-per-em="1000"
    panose-1="0 0 5 0 0 0 0 0 0 0"
    ascent="800"
    descent="-200"
    x-height="787"
    cap-height="787"
    bbox="-274 -226 943 1026"
    underline-thickness="50"
    underline-position="-200"
    unicode-range="U+000D-2265"
  />
<missing-glyph horiz-adv-x="970" 
d="M164 -1q-40 0 -65.5 9.5t-25.5 24.5v722q0 14 25.5 23t65.5 9h646q40 0 65.5 -9t25.5 -23v-722q0 -15 -25.5 -24.5t-65.5 -9.5h-646zM483 434l308 298h-612zM137 98l304 295l-304 297v-592zM833 98v592l-304 -297zM179 57h612l-308 295z" />
    <glyph glyph-name=".notdef" horiz-adv-x="970" 
d="M164 -1q-40 0 -65.5 9.5t-25.5 24.5v722q0 14 25.5 23t65.5 9h646q40 0 65.5 -9t25.5 -23v-722q0 -15 -25.5 -24.5t-65.5 -9.5h-646zM483 434l308 298h-612zM137 98l304 295l-304 297v-592zM833 98v592l-304 -297zM179 57h612l-308 295z" />
    <glyph glyph-name=".null" horiz-adv-x="0" 
 />
    <glyph glyph-name="nonmarkingreturn" horiz-adv-x="333" 
 />
    <glyph glyph-name="CR" unicode="&#xd;" horiz-adv-x="209" 
 />
    <glyph glyph-name="space" unicode=" " horiz-adv-x="209" 
 />
    <glyph glyph-name="exclam" unicode="!" horiz-adv-x="285" 
d="M182 194q0 -10 -8.5 -17t-22.5 -7t-23.5 7t-9.5 17l-42 569q0 24 73 24q72 0 72 -24zM154 0q-51 0 -51 24v69q0 24 51 24q46 0 46 -24v-69q0 -24 -46 -24z" />
    <glyph glyph-name="quotedbl" unicode="&#x22;" horiz-adv-x="441" 
d="M125 533q-39 0 -42 14l-31 216q0 24 73 24q69 0 69 -24l-30 -216q0 -14 -39 -14zM316 533q-39 0 -39 14l-30 216q0 24 69 24q74 0 71 -24l-29 -216q-2 -14 -42 -14z" />
    <glyph glyph-name="numbersign" unicode="#" horiz-adv-x="541" 
d="M115 -1q-54 0 -54 20l24 205h-33q-30 0 -30 11l8 65q0 11 34 11h34l24 208h-34q-15 0 -24 3t-7 8l7 66q0 12 34 12h32l22 161q0 18 58 18t55 -18l-18 -161h91l20 161q0 18 61 18q56 0 56 -18l-22 -161h34q14 0 23.5 -4t6.5 -10l-7 -64q0 -11 -35 -11h-34l-24 -208h33
q33 0 33 -11l-8 -62q0 -14 -34 -14h-34l-23 -205q-7 -20 -61 -20q-56 0 -56 20l25 205h-91l-27 -205q0 -20 -59 -20zM210 311h94l24 208h-93z" />
    <glyph glyph-name="dollar" unicode="$" 
d="M262 -63q-58 0 -58 21v58q-77 13 -117.5 62t-40.5 124v27q0 24 69 24q30 0 49 -6.5t19 -17.5v-35q0 -68 76 -68t76 71q0 43 -26.5 78t-98.5 83q-88 60 -123 112.5t-35 117.5q0 149 152 184v46q0 22 58 22q26 0 43.5 -6t17.5 -16v-46q76 -15 115.5 -66t39.5 -126
q0 -5 -10 -10.5t-24 -5.5h-60q-43 0 -43 13v17q0 68 -74 68q-73 0 -73 -66q0 -40 27 -75.5t98 -83.5q89 -61 124 -113t35 -119q0 -78 -39.5 -127t-115.5 -62v-58q0 -21 -61 -21z" />
    <glyph glyph-name="percent" unicode="%" horiz-adv-x="772" 
d="M186 349q-68 0 -104 32.5t-36 93.5v198q0 61 36 93.5t104 32.5t104 -32.5t36 -93.5v-198q0 -61 -36 -93.5t-104 -32.5zM210 -1q-21 0 -31.5 4.5t-7.5 12.5l339 756q5 15 56 15q21 0 30.5 -3.5t5.5 -11.5l-340 -756q-5 -17 -52 -17zM186 421q46 0 46 50v207q0 50 -46 50
q-49 0 -49 -50v-207q0 -50 49 -50zM586 -11q-66 0 -101 32.5t-35 93.5v196q0 61 35 93.5t101 32.5q69 0 106.5 -32.5t37.5 -93.5v-196q0 -61 -37.5 -93.5t-106.5 -32.5zM586 60q49 0 49 49v208q0 49 -49 49q-45 0 -45 -49v-208q0 -49 45 -49z" />
    <glyph glyph-name="ampersand" unicode="&#x26;" horiz-adv-x="547" 
d="M204 -11q-158 0 -158 181v82q0 127 103 164q-97 35 -97 164v14q0 193 215 193h83q83 0 83 -29v-54q0 -13 -23 -20.5t-60 -7.5h-83q-73 0 -73 -77v-49q0 -46 22 -64t66 -18h56v62q0 11 20.5 17.5t52.5 6.5q69 0 69 -24v-62h10q2 0 10 -1.5t10 -1.5v-3q11 0 11 -11v-79
q0 -9 -11 -14q-5 -3 -20 -3h-10v-260q0 -49 7 -71q2 -11 -14.5 -18t-49.5 -7q-64 0 -80 22v9l-5 32q-48 -73 -134 -73zM259 101q69 0 79 70v184h-56q-48 0 -70.5 -23.5t-22.5 -78.5v-79q0 -73 70 -73z" />
    <glyph glyph-name="quotesingle" unicode="'" horiz-adv-x="247" 
d="M125 533q-39 0 -42 14l-31 216q0 24 73 24q69 0 69 -24l-30 -216q0 -14 -39 -14z" />
    <glyph glyph-name="parenleft" unicode="(" horiz-adv-x="361" 
d="M270 -58q-107 0 -154 39.5t-47 133.5v558q0 94 46.5 133t154.5 39h12q4 0 22 -5q12 -4 12 -13v-69q0 -12 -8 -12q-7 -1 -16 -1h-10q-36 0 -51 -15.5t-15 -56.5v-558q0 -41 15 -56.5t51 -15.5h10q9 0 16 -3q8 0 8 -10v-69q0 -9 -12 -13q-14 -6 -22 -6h-12z" />
    <glyph glyph-name="parenright" unicode=")" horiz-adv-x="361" 
d="M79 -58q-8 0 -22 6q-11 4 -11 13v69q0 10 8 10q7 3 19 3h10q35 0 50.5 16t15.5 56v558q0 40 -15.5 56t-50.5 16h-10q-12 0 -19 1q-8 5 -8 12v69q0 9 11 13q18 5 22 5h12q109 0 155 -39t46 -133v-558q0 -94 -46.5 -133.5t-154.5 -39.5h-12z" />
    <glyph glyph-name="asterisk" unicode="*" horiz-adv-x="322" 
d="M200 612l14 -14q46 -46 35 -57l-12 -12q-10 -10 -54 37l-13 14v-21q0 -65 -14 -65h-15q-14 0 -14 65v21l-13 -14q-44 -47 -54 -37l-12 12q-11 11 35 57l14 14h-20q-62 0 -62 14v17q0 14 62 14h20l-14 14q-46 46 -35 57l12 12q10 10 54 -37l13 -14v21q0 65 14 65h15
q14 0 14 -65v-21l13 14q44 47 54 37l12 -12q11 -11 -35 -57l-14 -14h20q62 0 62 -14v-17q0 -14 -62 -14h-20z" />
    <glyph glyph-name="plus" unicode="+" 
d="M262 197q-49 0 -49 15v137h-88q-41 0 -64.5 9t-23.5 22v27q0 30 88 30h88v134q0 8 13.5 14t35.5 6t36.5 -6t14.5 -14v-134h89q88 0 88 -30v-27q0 -13 -24 -22t-64 -9h-89v-137q0 -15 -51 -15z" />
    <glyph glyph-name="comma" unicode="," horiz-adv-x="247" 
d="M88 -135q-16 0 -24.5 2.5t-6.5 8.5l43 123h-12q-2 0 -10 1.5t-10 1.5v3q-14 0 -14 14v76q0 11 20 17.5t51 6.5q29 0 47.5 -6.5t18.5 -17.5v-65q0 -19 -5 -34l-58 -120q-4 -11 -40 -11z" />
    <glyph glyph-name="hyphen" unicode="-" horiz-adv-x="356" 
d="M125 335q-42 0 -66.5 9.5t-24.5 24.5v49q0 14 25 23.5t66 9.5h107q40 0 65.5 -9.5t25.5 -23.5v-49q0 -15 -25.5 -24.5t-65.5 -9.5h-107z" />
    <glyph glyph-name="period" unicode="." horiz-adv-x="247" 
d="M125 119q29 0 47.5 -6.5t18.5 -17.5v-71q0 -11 -18.5 -17.5t-47.5 -6.5q-31 0 -51 6.5t-20 17.5v71q0 11 20 17.5t51 6.5z" />
    <glyph glyph-name="slash" unicode="/" horiz-adv-x="511" 
d="M73 -1q-56 0 -52 19q0 1 1 3l343 745q11 21 73 21q28 0 42 -5.5t10 -15.5l-345 -745q-8 -22 -72 -22z" />
    <glyph glyph-name="zero" unicode="0" 
d="M262 -11q-105 0 -162.5 51t-57.5 145v417q0 94 57.5 145.5t162.5 51.5q106 0 162 -51t56 -146v-417q0 -94 -56 -145t-162 -51zM262 119q76 0 76 71v406q0 73 -76 73q-73 0 -73 -73v-406q0 -71 73 -71z" />
    <glyph glyph-name="one" unicode="1" 
d="M328 -1q-31 0 -52 7t-21 18v549h-76q-33 0 -53 8.5t-20 22.5v38q0 32 83 49q76 18 107 81q7 15 57 15q49 0 49 -15v-748q0 -11 -20.5 -18t-53.5 -7z" />
    <glyph glyph-name="two" unicode="2" 
d="M144 -1q-42 0 -67 9.5t-25 24.5v51q0 84 31 144.5t111 134.5q83 74 113.5 125t30.5 108q0 50 -19.5 70.5t-56.5 20.5q-73 0 -73 -78v-59q0 -24 -71 -24q-66 0 -66 24v52q0 95 54.5 146t160.5 51q104 0 158.5 -51t54.5 -146q0 -73 -39.5 -142t-136.5 -156
q-65 -59 -87.5 -95.5t-22.5 -79.5v-17h183q42 0 66.5 -9.5t24.5 -24.5v-45q0 -15 -24.5 -24.5t-66.5 -9.5h-233z" />
    <glyph glyph-name="three" unicode="3" 
d="M259 -11q-217 0 -217 196v39q0 11 19.5 18t51.5 7q29 0 47.5 -7t18.5 -18v-47q0 -76 76 -76q37 0 55 19.5t18 70.5v62q0 56 -21.5 79t-71.5 23h-14q-15 0 -20 3h-3q-12 5 -12 17v70q0 13 15 17q10 6 24 6h15q42 0 64 18.5t22 63.5v58q0 79 -71 79q-33 0 -52.5 -18.5
t-19.5 -56.5v-27q0 -10 -20.5 -17t-52.5 -7q-64 0 -64 21v23q0 94 55 144t158 50q105 0 159 -49.5t54 -144.5v-28q0 -130 -104 -161q107 -37 107 -163v-70q0 -95 -54.5 -144.5t-161.5 -49.5z" />
    <glyph glyph-name="four" unicode="4" 
d="M368 -1q-33 0 -52.5 7t-19.5 18v118h-186q-41 0 -66 9t-25 23v64q0 19 8 32l240 490q16 27 91 27q80 0 80 -27v-484h37q34 0 34 -10v-110q0 -14 -34 -14h-37v-118q0 -11 -19 -18t-51 -7zM149 276h147v288h-4z" />
    <glyph glyph-name="five" unicode="5" 
d="M265 -11q-105 0 -160.5 51t-55.5 145v39q0 11 19 18t50 7q30 0 49 -7t19 -18v-47q0 -76 76 -76q36 0 54.5 17t18.5 59v178q0 76 -73 76q-60 0 -73 -51q-11 -31 -37 -31l-34 -1q-66 0 -66 24l21 386q5 29 91 29h201q40 0 65.5 -9t25.5 -23v-47q0 -14 -25.5 -23t-65.5 -9
h-161l-11 -162q8 12 17 18.5t23.5 9t23.5 3t32.5 0t33.5 -0.5q77 0 117 -46t40 -135v-178q0 -95 -54.5 -145.5t-160.5 -50.5z" />
    <glyph glyph-name="six" unicode="6" 
d="M267 -11q-106 0 -163.5 51t-57.5 145v409q0 205 221 205q103 0 157.5 -49.5t58.5 -141.5q0 -10 -11 -17q-14 -6 -22 -6h-70q-15 0 -24.5 6.5t-9.5 13.5q0 82 -76 82q-40 0 -59.5 -21.5t-19.5 -74.5v-123q13 20 33 29t37 10.5t53 1.5h12q79 0 120 -47t41 -134v-143
q0 -94 -57.5 -145t-162.5 -51zM267 101q74 0 74 76v140q0 76 -74 76q-76 0 -76 -76v-140q0 -76 76 -76z" />
    <glyph glyph-name="seven" unicode="7" 
d="M179 -1q-33 0 -50.5 7t-15.5 18l222 652h-198q-40 0 -65.5 9t-25.5 23v47q0 14 25.5 23t65.5 9h250q40 0 65.5 -9t25.5 -23v-64q0 -15 -3 -24l-213 -643q-5 -11 -28.5 -18t-54.5 -7z" />
    <glyph glyph-name="eight" unicode="8" 
d="M262 -11q-110 0 -167.5 49.5t-57.5 144.5v70q0 121 93 163q-88 42 -88 155v34q0 94 57 144t163 50t163.5 -50t57.5 -144v-34q0 -114 -88 -155q95 -42 95 -163v-70q0 -94 -59.5 -144t-168.5 -50zM262 468q76 0 76 79v61q0 79 -76 79t-76 -79v-61q0 -79 76 -79zM262 101
q81 0 81 90v74q0 90 -81 90q-79 0 -79 -90v-74q0 -90 79 -90z" />
    <glyph glyph-name="nine" unicode="9" 
d="M258 799q106 0 163.5 -51t57.5 -145v-409q0 -205 -221 -205q-103 0 -157.5 49.5t-58.5 141.5q0 12 11 17q14 6 22 6h70q15 0 24.5 -6.5t9.5 -13.5q0 -82 76 -82q40 0 59.5 21.5t19.5 74.5v123q-13 -20 -33 -29t-37 -10.5t-53 -1.5h-6.5h-5.5q-79 0 -120 47t-41 134v143
q0 94 57.5 145t162.5 51zM258 687q-74 0 -74 -76v-140q0 -76 74 -76q76 0 76 76v140q0 76 -76 76z" />
    <glyph glyph-name="colon" unicode=":" horiz-adv-x="247" 
d="M125 430q-71 0 -71 24v69q0 24 71 24q66 0 66 -24v-69q0 -24 -66 -24zM125 -1q-31 0 -51 7t-20 18v71q0 11 20 17.5t51 6.5q29 0 47.5 -6.5t18.5 -17.5v-71q0 -11 -18.5 -18t-47.5 -7z" />
    <glyph glyph-name="semicolon" unicode=";" horiz-adv-x="247" 
d="M125 430q-71 0 -71 24v69q0 24 71 24q66 0 66 -24v-69q0 -24 -66 -24zM79 -135q-30 0 -30 11l51 123h-12q-2 0 -10 1.5t-10 1.5v3q-14 0 -14 14v76q0 11 20 17.5t51 6.5q29 0 47.5 -6.5t18.5 -17.5v-65q0 -21 -8 -37l-65 -117q-4 -11 -39 -11z" />
    <glyph glyph-name="less" unicode="&#x3c;" 
d="M453 249q0 -21 -23.5 -25t-64.5 11l-286 107q-27 11 -27 21v61q0 12 27 21l286 108q88 29 88 -14v-33q0 -5 -7 -11.5t-17 -10.5l-253 -91l253 -89q24 -11 24 -23v-32z" />
    <glyph glyph-name="equal" unicode="=" 
d="M140 440q-41 0 -66 9t-25 23v26q0 29 91 29h247q91 0 91 -29v-26q0 -14 -25.5 -23t-65.5 -9h-247zM140 259q-91 0 -91 31v24q0 15 25 24.5t66 9.5h247q40 0 65.5 -9.5t25.5 -24.5v-24q0 -31 -91 -31h-247z" />
    <glyph glyph-name="greater" unicode="&#x3e;" 
d="M159 235q-40 -15 -63 -11t-23 25v32q0 11 25 23l248 89l-248 91q-11 4 -18 10.5t-7 11.5v33q0 43 86 14l289 -108q27 -9 27 -21v-61q0 -10 -27 -21z" />
    <glyph glyph-name="question" unicode="?" horiz-adv-x="478" 
d="M220 208h-4q-64 0 -64 21v24q0 43 15.5 80.5t57.5 87.5q47 58 65 100t18 88q0 78 -73 78q-74 0 -74 -78v-62q0 -11 -18.5 -17.5t-47.5 -6.5q-32 0 -51.5 6.5t-19.5 17.5v55q0 95 54.5 146t158.5 51t158.5 -51t54.5 -146q0 -53 -21 -100.5t-72 -108.5q-76 -82 -76 -141
v-23q0 -21 -61 -21zM216 -1q-30 0 -50.5 7t-20.5 18v71q0 10 20.5 17t50.5 7q70 0 70 -24v-71q0 -11 -19 -18t-51 -7z" />
    <glyph glyph-name="at" unicode="@" horiz-adv-x="913" 
d="M453 -69q-212 0 -315.5 105.5t-103.5 288.5q0 107 30 198t88.5 161t152 110t212.5 40q100 0 173 -25.5t114 -72.5t59.5 -104.5t18.5 -128.5q0 -96 -25 -168.5t-64.5 -110.5t-81.5 -56t-84 -18q-107 0 -117 74q-39 -68 -123 -68q-59 0 -92 35.5t-33 101.5l3 38l16 112
q22 166 157 166q81 0 110 -68l6 44q2 8 21 14t45 6q27 0 43.5 -6t14.5 -14l-32 -292l-4 -20q0 -21 27 -21q50 0 76.5 76.5t26.5 171.5q0 110 -65 174.5t-197 64.5q-170 0 -262.5 -112t-92.5 -307q0 -139 77.5 -216t230.5 -77q111 0 188 33q24 8 38.5 11.5t24.5 2.5
t13.5 -7.5t2.5 -18.5l-3 -35q-2 -2 -4.5 -8.5t-4.5 -8.5q-5 -6 -18 -13q-101 -52 -247 -52zM450 259q64 0 74 72l12 109q3 5 3 11q0 25 -17.5 38.5t-43.5 13.5q-64 0 -74 -72l-12 -96v-18q0 -58 58 -58z" />
    <glyph glyph-name="A" unicode="A" 
d="M83 -1q-31 0 -47 6t-14 19l137 734q3 29 91 29h27q83 0 88 -29l140 -734q3 -11 -16.5 -18t-50.5 -7q-32 0 -53 7t-23 18l-21 132h-165l-21 -132q-4 -25 -72 -25zM193 285h132l-66 365h-4z" />
    <glyph glyph-name="B" unicode="B" horiz-adv-x="533" 
d="M145 -1q-40 0 -65.5 9.5t-25.5 24.5v722q0 14 25.5 23t65.5 9h125q113 0 165 -44t52 -135v-34q0 -120 -95 -153q110 -34 110 -168v-68q0 -90 -56 -138t-164 -48h-137zM198 482h57q86 0 86 68v44q0 36 -17.5 52.5t-56.5 16.5h-69v-181zM198 120h84q39 0 57 14t18 57v68
q0 84 -95 84h-64v-223z" />
    <glyph glyph-name="C" unicode="C" horiz-adv-x="506" 
d="M255 -11q-102 0 -155.5 50.5t-53.5 143.5v422q0 93 53.5 143.5t155.5 50.5q107 0 162 -50.5t55 -143.5v-58q0 -24 -70 -24h-16q-28 0 -39.5 2t-11.5 11v60q0 35 -20 52.5t-53 17.5t-53 -17.5t-20 -52.5v-409q0 -65 73 -65t73 65v92q0 14 67 14q70 0 70 -23v-87
q0 -93 -55 -143.5t-162 -50.5z" />
    <glyph glyph-name="D" unicode="D" horiz-adv-x="533" 
d="M145 -1q-40 0 -65.5 9.5t-25.5 24.5v722q0 14 25.5 23t65.5 9h129q216 0 216 -193v-400q0 -195 -216 -195h-129zM198 131h72q76 0 76 71v383q0 39 -19 55.5t-57 16.5h-72v-526z" />
    <glyph glyph-name="E" unicode="E" horiz-adv-x="478" 
d="M145 -1q-40 0 -65.5 9.5t-25.5 24.5v722q0 14 25.5 23t65.5 9h212q40 0 65.5 -9t25.5 -23v-78q0 -12 -25.5 -20.5t-65.5 -8.5h-159v-170h110q40 0 65.5 -11.5t25.5 -29.5v-58q0 -18 -25 -28.5t-66 -10.5h-110v-200h159q40 0 65.5 -8.5t25.5 -22.5v-76q0 -15 -25.5 -24.5
t-65.5 -9.5h-212z" />
    <glyph glyph-name="F" unicode="F" horiz-adv-x="452" 
d="M357 787q40 0 65.5 -9t25.5 -23v-78q0 -12 -25.5 -20.5t-65.5 -8.5h-159v-170h110q40 0 65.5 -11.5t25.5 -29.5v-58q0 -18 -25 -28.5t-66 -10.5h-110v-316q0 -11 -19 -18t-51 -7q-33 0 -53.5 7t-20.5 18v731q0 14 25.5 23t65.5 9h212z" />
    <glyph glyph-name="G" unicode="G" horiz-adv-x="514" 
d="M402 523h-16q-28 0 -39.5 2t-11.5 11v60q0 35 -20 52.5t-53 17.5t-53 -17.5t-20 -52.5v-409q0 -65 73 -65t73 65v163h-37q-36 0 -36 16v75q0 15 25.5 25.5t66.5 10.5h27q40 0 65.5 -10.5t25.5 -25.5v-258q0 -93 -55 -143.5t-162 -50.5q-102 0 -155.5 50.5t-53.5 143.5
v422q0 93 53.5 143.5t155.5 50.5q107 0 162 -50.5t55 -143.5v-58q0 -24 -70 -24z" />
    <glyph glyph-name="H" unicode="H" horiz-adv-x="551" 
d="M128 -1q-33 0 -53.5 7t-20.5 18v739q0 24 74 24q70 0 70 -24v-295h155v295q0 10 20.5 17t52.5 7t52.5 -7t20.5 -17v-739q0 -11 -21 -18t-52 -7t-52 7t-21 18v304h-155v-304q0 -11 -19 -18t-51 -7z" />
    <glyph glyph-name="I" unicode="I" horiz-adv-x="252" 
d="M128 -1q-33 0 -53.5 7t-20.5 18v739q0 24 74 24q70 0 70 -24v-739q0 -11 -19 -18t-51 -7z" />
    <glyph glyph-name="J" unicode="J" horiz-adv-x="347" 
d="M88 -7l-36 3q-12 0 -21 5t-9 9v125q0 10 12 14q5 3 23 3h12q43 0 63 17.5t20 56.5v537q0 10 20.5 17t52.5 7q31 0 51.5 -6.5t20.5 -17.5v-578q0 -192 -209 -192z" />
    <glyph glyph-name="K" unicode="K" horiz-adv-x="545" 
d="M128 -1q-33 0 -53.5 7t-20.5 18v739q0 24 74 24q70 0 70 -24v-306l170 306q15 24 88 24q59 0 57 -18q-1 -3 -3 -6l-153 -265l164 -471q4 -13 -14.5 -20.5t-53.5 -7.5q-77 0 -85 28l-113 322l-57 -97v-228q0 -11 -19 -18t-51 -7z" />
    <glyph glyph-name="L" unicode="L" horiz-adv-x="452" 
d="M145 -1q-40 0 -65.5 9.5t-25.5 24.5v730q0 24 74 24q70 0 70 -24v-629h148q42 0 67 -9.5t25 -24.5v-67q0 -15 -25 -24.5t-67 -9.5h-201z" />
    <glyph glyph-name="M" unicode="M" horiz-adv-x="706" 
d="M115 -1q-61 0 -61 22v734q0 14 25.5 23t65.5 9h29q85 0 91 -29l89 -410l87 410q6 29 91 29h31q40 0 65.5 -9t25.5 -23v-731q0 -25 -69 -25q-68 0 -68 25l-3 572l-100 -575q-5 -22 -68 -22q-58 0 -64 22l-99 575l-4 -575q0 -22 -64 -22z" />
    <glyph glyph-name="N" unicode="N" horiz-adv-x="559" 
d="M118 -1q-64 0 -64 22v734q0 14 27.5 23t67.5 9q84 0 94 -27l134 -402v408q0 21 64 21q68 0 68 -21v-739q0 -13 -21 -20.5t-55 -7.5q-71 0 -83 25l-167 511v-514q0 -22 -65 -22z" />
    <glyph glyph-name="O" unicode="O" 
d="M262 -11q-105 0 -162.5 51t-57.5 145v417q0 94 57.5 145.5t162.5 51.5q106 0 162 -51t56 -146v-417q0 -94 -56 -145t-162 -51zM262 119q76 0 76 72v405q0 73 -76 73q-73 0 -73 -73v-405q0 -72 73 -72z" />
    <glyph glyph-name="P" unicode="P" horiz-adv-x="508" 
d="M128 -1q-33 0 -53.5 7t-20.5 18v731q0 14 25.5 23t65.5 9h122q213 0 213 -193v-78q0 -196 -213 -196h-69v-296q0 -11 -19 -18t-51 -7zM198 448h69q36 0 53.5 15.5t17.5 51.5v80q0 64 -71 64h-69v-211z" />
    <glyph glyph-name="Q" unicode="Q" horiz-adv-x="544" 
d="M530 86q7 -7 -2 -27t-32 -43q-22 -22 -41 -30.5t-26 -1.5l-35 35q-51 -30 -132 -30q-105 0 -162.5 51t-57.5 145v417q0 94 57.5 145.5t162.5 51.5q106 0 162 -51t56 -146v-417q0 -26 -4 -45zM262 114q76 0 76 72v414q0 74 -76 74q-73 0 -73 -74v-414q0 -72 73 -72z" />
    <glyph glyph-name="R" unicode="R" horiz-adv-x="529" 
d="M128 -1q-33 0 -53.5 7t-20.5 18v731q0 14 25.5 23t65.5 9h122q111 0 162 -44t51 -135v-50q0 -125 -93 -156q96 -25 96 -167v-140q0 -49 7 -71q2 -11 -15.5 -18t-48.5 -7q-34 0 -57.5 7t-25.5 18q-5 40 -5 71v145q0 54 -20 74.5t-68 20.5h-52v-311q0 -11 -19 -18t-51 -7z
M198 470h54q86 0 86 68v51q0 68 -73 68h-67v-187z" />
    <glyph glyph-name="S" unicode="S" horiz-adv-x="490" 
d="M243 -11q-106 0 -159.5 50.5t-53.5 145.5v26q0 8 19 14.5t46 6.5q31 0 50 -7t19 -17v-42q0 -53 76 -53t76 55q0 58 -26.5 97t-98.5 93q-88 67 -122.5 122t-34.5 125q0 93 54 143.5t159 50.5q104 0 156.5 -50.5t52.5 -146.5v-17q0 -17 -45 -17h-31q-57 0 -57 20v34
q0 52 -73 52q-74 0 -74 -52q0 -51 26.5 -89.5t98.5 -92.5q91 -68 125 -122.5t34 -129.5q0 -96 -56 -147.5t-161 -51.5z" />
    <glyph glyph-name="T" unicode="T" horiz-adv-x="478" 
d="M237 -1q-32 0 -51 7t-19 18v614h-76q-34 0 -55 10.5t-21 26.5v69q0 18 25.5 30.5t65.5 12.5h266q40 0 65.5 -12.5t25.5 -30.5v-69q0 -17 -21 -27t-55 -10h-76v-614q0 -11 -20.5 -18t-53.5 -7z" />
    <glyph glyph-name="U" unicode="U" horiz-adv-x="529" 
d="M265 -11q-106 0 -161 50.5t-55 145.5v578q0 24 73 24q69 0 69 -24v-558q0 -42 19.5 -59t56.5 -17t55.5 17t18.5 59v558q0 24 70 24q67 0 67 -24v-578q0 -94 -54.5 -145t-158.5 -51z" />
    <glyph glyph-name="V" unicode="V" horiz-adv-x="502" 
d="M240 -1q-86 0 -91 31l-127 733q-2 11 16.5 17.5t49.5 6.5q74 0 79 -24l88 -586l95 589q4 21 69 21q31 0 47 -5.5t14 -15.5l-127 -736q-5 -31 -91 -31h-22z" />
    <glyph glyph-name="W" unicode="W" horiz-adv-x="731" 
d="M201 -1q-41 0 -66 9t-25 22l-88 733q0 24 66 24q73 0 73 -24l58 -521l73 518q3 27 81 27t83 -27l65 -518l64 524q1 21 66 21q29 0 44 -5.5t13 -15.5l-84 -736q-3 -13 -30 -22t-65 -9q-90 0 -95 31l-62 467l-61 -467q-5 -31 -91 -31h-19z" />
    <glyph glyph-name="X" unicode="X" horiz-adv-x="533" 
d="M83 -1q-32 0 -47.5 6.5t-11.5 18.5l159 378l-149 358q-5 13 12 20t52 7q77 0 88 -27l87 -208l92 211q10 24 76 24q33 0 49.5 -6t11.5 -18l-149 -361l156 -375q4 -13 -14.5 -20.5t-53.5 -7.5q-72 0 -84 28l-98 226l-98 -229q-10 -25 -78 -25z" />
    <glyph glyph-name="Y" unicode="Y" horiz-adv-x="517" 
d="M259 -1q-32 0 -52.5 7t-20.5 18v311l-164 425q-5 13 13 20t53 7q76 0 86 -27l90 -249l93 252q8 24 77 24q34 0 50 -6t11 -18l-164 -428v-311q0 -11 -20.5 -18t-51.5 -7z" />
    <glyph glyph-name="Z" unicode="Z" horiz-adv-x="475" 
d="M115 0q-40 0 -65.5 12t-25.5 31v75q0 24 10 43l258 478h-164q-41 0 -66 12.5t-25 30.5v62q0 18 25 30.5t66 12.5h229q40 0 65.5 -12.5t25.5 -30.5v-81q0 -8 -7 -43l-262 -477h178q40 0 65.5 -12t25.5 -31v-57q0 -19 -25.5 -31t-65.5 -12h-242z" />
    <glyph glyph-name="bracketleft" unicode="[" horiz-adv-x="361" 
d="M167 -58q-41 0 -66 9t-25 24v838q0 14 25.5 23t65.5 9h58q41 0 66 -9t25 -23v-53q0 -15 -46 -15h-49v-702h49q46 0 46 -16v-52q0 -15 -24.5 -24t-66.5 -9h-58z" />
    <glyph glyph-name="backslash" unicode="\" horiz-adv-x="511" 
d="M438 -1q-62 0 -73 22l-343 745q-5 10 9 15.5t42 5.5q65 0 72 -21l345 -745q4 -10 -10 -16t-42 -6z" />
    <glyph glyph-name="bracketright" unicode="]" horiz-adv-x="361" 
d="M137 -58q-41 0 -66 9t-25 24v52q0 16 45 16h49v702h-49q-45 0 -45 15v53q0 14 25.5 23t65.5 9h57q41 0 66.5 -9t25.5 -23v-838q0 -15 -25 -24t-67 -9h-57z" />
    <glyph glyph-name="asciicircum" unicode="^" 
d="M85 484q-52 0 -49 16l1 3l167 269q8 15 58 15q49 0 57 -15l168 -269q6 -10 -15 -16q-14 -3 -34 -3q-61 0 -70 19l-106 173l-107 -173q-10 -19 -70 -19z" />
    <glyph glyph-name="underscore" unicode="_" horiz-adv-x="395" 
d="M91 -103q-40 0 -65.5 9.5t-25.5 24.5v24q0 15 25.5 24.5t65.5 9.5h213q40 0 65.5 -9.5t25.5 -24.5v-24q0 -15 -25.5 -24.5t-65.5 -9.5h-213z" />
    <glyph glyph-name="grave" unicode="`" horiz-adv-x="658" 
d="M353 840q-58 0 -72 19l-95 85q-17 20 24 25l30 2q32 0 58.5 -7t32.5 -17l64 -88q8 -12 -16 -17q-11 -2 -26 -2z" />
    <glyph glyph-name="a" unicode="a" 
d="M83 -1q-31 0 -47 6t-14 19l137 734q3 29 91 29h27q83 0 88 -29l140 -734q3 -11 -16.5 -18t-50.5 -7q-32 0 -53 7t-23 18l-21 132h-165l-21 -132q-4 -25 -72 -25zM193 285h132l-66 365h-4z" />
    <glyph glyph-name="b" unicode="b" horiz-adv-x="533" 
d="M145 -1q-40 0 -65.5 9.5t-25.5 24.5v722q0 14 25.5 23t65.5 9h125q113 0 165 -44t52 -135v-34q0 -120 -95 -153q110 -34 110 -168v-68q0 -90 -56 -138t-164 -48h-137zM198 482h57q86 0 86 68v44q0 36 -17.5 52.5t-56.5 16.5h-69v-181zM198 120h84q39 0 57 14t18 57v68
q0 84 -95 84h-64v-223z" />
    <glyph glyph-name="c" unicode="c" horiz-adv-x="506" 
d="M255 -11q-102 0 -155.5 50.5t-53.5 143.5v422q0 93 53.5 143.5t155.5 50.5q107 0 162 -50.5t55 -143.5v-58q0 -24 -70 -24h-16q-28 0 -39.5 2t-11.5 11v60q0 35 -20 52.5t-53 17.5t-53 -17.5t-20 -52.5v-409q0 -65 73 -65t73 65v92q0 14 67 14q70 0 70 -23v-87
q0 -93 -55 -143.5t-162 -50.5z" />
    <glyph glyph-name="d" unicode="d" horiz-adv-x="533" 
d="M145 -1q-40 0 -65.5 9.5t-25.5 24.5v722q0 14 25.5 23t65.5 9h129q216 0 216 -193v-400q0 -195 -216 -195h-129zM198 131h72q76 0 76 71v383q0 39 -19 55.5t-57 16.5h-72v-526z" />
    <glyph glyph-name="e" unicode="e" horiz-adv-x="478" 
d="M145 -1q-40 0 -65.5 9.5t-25.5 24.5v722q0 14 25.5 23t65.5 9h212q40 0 65.5 -9t25.5 -23v-78q0 -12 -25.5 -20.5t-65.5 -8.5h-159v-170h110q40 0 65.5 -11.5t25.5 -29.5v-58q0 -18 -25 -28.5t-66 -10.5h-110v-200h159q40 0 65.5 -8.5t25.5 -22.5v-76q0 -15 -25.5 -24.5
t-65.5 -9.5h-212z" />
    <glyph glyph-name="f" unicode="f" horiz-adv-x="452" 
d="M357 787q40 0 65.5 -9t25.5 -23v-78q0 -12 -25.5 -20.5t-65.5 -8.5h-159v-170h110q40 0 65.5 -11.5t25.5 -29.5v-58q0 -18 -25 -28.5t-66 -10.5h-110v-316q0 -11 -19 -18t-51 -7q-33 0 -53.5 7t-20.5 18v731q0 14 25.5 23t65.5 9h212z" />
    <glyph glyph-name="g" unicode="g" horiz-adv-x="514" 
d="M402 523h-16q-28 0 -39.5 2t-11.5 11v60q0 35 -20 52.5t-53 17.5t-53 -17.5t-20 -52.5v-409q0 -65 73 -65t73 65v163h-37q-36 0 -36 16v75q0 15 25.5 25.5t66.5 10.5h27q40 0 65.5 -10.5t25.5 -25.5v-258q0 -93 -55 -143.5t-162 -50.5q-102 0 -155.5 50.5t-53.5 143.5
v422q0 93 53.5 143.5t155.5 50.5q107 0 162 -50.5t55 -143.5v-58q0 -24 -70 -24z" />
    <glyph glyph-name="h" unicode="h" horiz-adv-x="551" 
d="M128 -1q-33 0 -53.5 7t-20.5 18v739q0 24 74 24q70 0 70 -24v-295h155v295q0 10 20.5 17t52.5 7t52.5 -7t20.5 -17v-739q0 -11 -21 -18t-52 -7t-52 7t-21 18v304h-155v-304q0 -11 -19 -18t-51 -7z" />
    <glyph glyph-name="i" unicode="i" horiz-adv-x="252" 
d="M128 -1q-33 0 -53.5 7t-20.5 18v739q0 24 74 24q70 0 70 -24v-739q0 -11 -19 -18t-51 -7z" />
    <glyph glyph-name="j" unicode="j" horiz-adv-x="347" 
d="M88 -7l-36 3q-12 0 -21 5t-9 9v125q0 10 12 14q5 3 23 3h12q43 0 63 17.5t20 56.5v537q0 10 20.5 17t52.5 7q31 0 51.5 -6.5t20.5 -17.5v-578q0 -192 -209 -192z" />
    <glyph glyph-name="k" unicode="k" horiz-adv-x="545" 
d="M128 -1q-33 0 -53.5 7t-20.5 18v739q0 24 74 24q70 0 70 -24v-306l170 306q15 24 88 24q59 0 57 -18q-1 -3 -3 -6l-153 -265l164 -471q4 -13 -14.5 -20.5t-53.5 -7.5q-77 0 -85 28l-113 322l-57 -97v-228q0 -11 -19 -18t-51 -7z" />
    <glyph glyph-name="l" unicode="l" horiz-adv-x="452" 
d="M145 -1q-40 0 -65.5 9.5t-25.5 24.5v730q0 24 74 24q70 0 70 -24v-629h148q42 0 67 -9.5t25 -24.5v-67q0 -15 -25 -24.5t-67 -9.5h-201z" />
    <glyph glyph-name="m" unicode="m" horiz-adv-x="706" 
d="M115 -1q-61 0 -61 22v734q0 14 25.5 23t65.5 9h29q85 0 91 -29l89 -410l87 410q6 29 91 29h31q40 0 65.5 -9t25.5 -23v-731q0 -25 -69 -25q-68 0 -68 25l-3 572l-100 -575q-5 -22 -68 -22q-58 0 -64 22l-99 575l-4 -575q0 -22 -64 -22z" />
    <glyph glyph-name="n" unicode="n" horiz-adv-x="559" 
d="M118 -1q-64 0 -64 22v734q0 14 27.5 23t67.5 9q84 0 94 -27l134 -402v408q0 21 64 21q68 0 68 -21v-739q0 -13 -21 -20.5t-55 -7.5q-71 0 -83 25l-167 511v-514q0 -22 -65 -22z" />
    <glyph glyph-name="o" unicode="o" 
d="M262 -11q-105 0 -162.5 51t-57.5 145v417q0 94 57.5 145.5t162.5 51.5q106 0 162 -51t56 -146v-417q0 -94 -56 -145t-162 -51zM262 119q76 0 76 72v405q0 73 -76 73q-73 0 -73 -73v-405q0 -72 73 -72z" />
    <glyph glyph-name="p" unicode="p" horiz-adv-x="508" 
d="M128 -1q-33 0 -53.5 7t-20.5 18v731q0 14 25.5 23t65.5 9h122q213 0 213 -193v-78q0 -196 -213 -196h-69v-296q0 -11 -19 -18t-51 -7zM198 448h69q36 0 53.5 15.5t17.5 51.5v80q0 64 -71 64h-69v-211z" />
    <glyph glyph-name="q" unicode="q" horiz-adv-x="544" 
d="M530 86q7 -7 -2 -27t-32 -43q-22 -22 -41 -30.5t-26 -1.5l-35 35q-51 -30 -132 -30q-105 0 -162.5 51t-57.5 145v417q0 94 57.5 145.5t162.5 51.5q106 0 162 -51t56 -146v-417q0 -26 -4 -45zM262 114q76 0 76 72v414q0 74 -76 74q-73 0 -73 -74v-414q0 -72 73 -72z" />
    <glyph glyph-name="r" unicode="r" horiz-adv-x="529" 
d="M128 -1q-33 0 -53.5 7t-20.5 18v731q0 14 25.5 23t65.5 9h122q111 0 162 -44t51 -135v-50q0 -125 -93 -156q96 -25 96 -167v-140q0 -49 7 -71q2 -11 -15.5 -18t-48.5 -7q-34 0 -57.5 7t-25.5 18q-5 40 -5 71v145q0 54 -20 74.5t-68 20.5h-52v-311q0 -11 -19 -18t-51 -7z
M198 470h54q86 0 86 68v51q0 68 -73 68h-67v-187z" />
    <glyph glyph-name="s" unicode="s" horiz-adv-x="490" 
d="M243 -11q-106 0 -159.5 50.5t-53.5 145.5v26q0 8 19 14.5t46 6.5q31 0 50 -7t19 -17v-42q0 -53 76 -53t76 55q0 58 -26.5 97t-98.5 93q-88 67 -122.5 122t-34.5 125q0 93 54 143.5t159 50.5q104 0 156.5 -50.5t52.5 -146.5v-17q0 -17 -45 -17h-31q-57 0 -57 20v34
q0 52 -73 52q-74 0 -74 -52q0 -51 26.5 -89.5t98.5 -92.5q91 -68 125 -122.5t34 -129.5q0 -96 -56 -147.5t-161 -51.5z" />
    <glyph glyph-name="t" unicode="t" horiz-adv-x="478" 
d="M237 -1q-32 0 -51 7t-19 18v614h-76q-34 0 -55 10.5t-21 26.5v69q0 18 25.5 30.5t65.5 12.5h266q40 0 65.5 -12.5t25.5 -30.5v-69q0 -17 -21 -27t-55 -10h-76v-614q0 -11 -20.5 -18t-53.5 -7z" />
    <glyph glyph-name="u" unicode="u" horiz-adv-x="529" 
d="M265 -11q-106 0 -161 50.5t-55 145.5v578q0 24 73 24q69 0 69 -24v-558q0 -42 19.5 -59t56.5 -17t55.5 17t18.5 59v558q0 24 70 24q67 0 67 -24v-578q0 -94 -54.5 -145t-158.5 -51z" />
    <glyph glyph-name="v" unicode="v" horiz-adv-x="502" 
d="M240 -1q-86 0 -91 31l-127 733q-2 11 16.5 17.5t49.5 6.5q74 0 79 -24l88 -586l95 589q4 21 69 21q31 0 47 -5.5t14 -15.5l-127 -736q-5 -31 -91 -31h-22z" />
    <glyph glyph-name="w" unicode="w" horiz-adv-x="731" 
d="M201 -1q-41 0 -66 9t-25 22l-88 733q0 24 66 24q73 0 73 -24l58 -521l73 518q3 27 81 27t83 -27l65 -518l64 524q1 21 66 21q29 0 44 -5.5t13 -15.5l-84 -736q-3 -13 -30 -22t-65 -9q-90 0 -95 31l-62 467l-61 -467q-5 -31 -91 -31h-19z" />
    <glyph glyph-name="x" unicode="x" horiz-adv-x="533" 
d="M83 -1q-32 0 -47.5 6.5t-11.5 18.5l159 378l-149 358q-5 13 12 20t52 7q77 0 88 -27l87 -208l92 211q10 24 76 24q33 0 49.5 -6t11.5 -18l-149 -361l156 -375q4 -13 -14.5 -20.5t-53.5 -7.5q-72 0 -84 28l-98 226l-98 -229q-10 -25 -78 -25z" />
    <glyph glyph-name="y" unicode="y" horiz-adv-x="517" 
d="M259 -1q-32 0 -52.5 7t-20.5 18v311l-164 425q-5 13 13 20t53 7q76 0 86 -27l90 -249l93 252q8 24 77 24q34 0 50 -6t11 -18l-164 -428v-311q0 -11 -20.5 -18t-51.5 -7z" />
    <glyph glyph-name="z" unicode="z" horiz-adv-x="475" 
d="M115 0q-40 0 -65.5 12t-25.5 31v75q0 24 10 43l258 478h-164q-41 0 -66 12.5t-25 30.5v62q0 18 25 30.5t66 12.5h229q40 0 65.5 -12.5t25.5 -30.5v-81q0 -8 -7 -43l-262 -477h178q40 0 65.5 -12t25.5 -31v-57q0 -19 -25.5 -31t-65.5 -12h-242z" />
    <glyph glyph-name="braceleft" unicode="{" horiz-adv-x="361" 
d="M255 -58q-63 0 -104 32.5t-41 93.5v208q0 46 -25 58q-2 1 -22 9.5t-28 15.5t-8 16v38q0 5 4 10t11 9.5t13.5 7.5t16 7.5t13.5 6.5q25 11 25 58v207q0 61 41 93.5t104 32.5h37q36 0 36 -14v-76q0 -8 -5 -10h-19q-64 -5 -64 -83v-167q0 -80 -81 -102q81 -21 81 -100v-167
q0 -44 15 -62t46 -18q3 -3 12 -3h3q10 0 10 -9l2 -79q0 -13 -36 -13h-37z" />
    <glyph glyph-name="braceright" unicode="}" horiz-adv-x="361" 
d="M69 -58q-35 0 -35 13v78q0 3 5 10q13 0 18 3q68 0 68 80v167q0 80 79 100q-79 21 -79 102v167q0 78 -64 83h-12h-3q-9 0 -9 7l-3 79q0 14 35 14h37q65 0 105.5 -32.5t40.5 -93.5v-207q0 -47 25 -58q2 -1 21.5 -10t28 -16t8.5 -15v-38q0 -9 -8.5 -16t-27.5 -15t-22 -10
q-25 -12 -25 -58v-208q0 -61 -40.5 -93.5t-105.5 -32.5h-37z" />
    <glyph glyph-name="asciitilde" unicode="~" 
d="M113 338q-23 -24 -59 -3l-20 14q-18 9 -10 23q36 52 70.5 76t81.5 24q36 0 94 -32q57 -33 80 -33q31 0 64 41q9 13 25 14t33 -11l21 -14q13 -9 9 -21q-36 -53 -71 -77.5t-81 -24.5q-35 0 -95 34q-59 32 -79 32q-32 0 -63 -42z" />
    <glyph glyph-name="uni00A0" unicode="&#xa0;" horiz-adv-x="209" 
 />
    <glyph glyph-name="exclamdown" unicode="&#xa1;" horiz-adv-x="285" 
d="M154 787q46 0 46 -24v-69q0 -24 -46 -24q-51 0 -51 24v69q0 24 51 24zM182 593l39 -569q0 -24 -72 -24q-73 0 -73 24l42 569q0 10 9.5 17t23.5 7t22.5 -7t8.5 -17z" />
    <glyph glyph-name="cent" unicode="&#xa2;" 
d="M480 516q0 -16 -51 -16h-22q-64 0 -64 23v21q0 74 -73 74q-69 0 -69 -74v-301q0 -72 69 -72q73 0 73 72v50q0 11 20 17.5t51 6.5q29 0 47.5 -6.5t18.5 -17.5v-41q0 -79 -39.5 -127.5t-114.5 -62.5v-66q0 -8 -17 -13t-42 -5q-26 0 -43.5 5t-17.5 13v66q-72 14 -112 64
t-40 126v284q0 75 40 124.5t112 64.5v55q0 8 17.5 13.5t43.5 5.5q25 0 42 -5.5t17 -13.5v-55q154 -31 154 -189v-20z" />
    <glyph glyph-name="sterling" unicode="&#xa3;" 
d="M137 -1q-40 0 -65.5 9.5t-25.5 24.5v45q0 17 8 25h3q4 5 11.5 11t10.5 9q45 25 68.5 63.5t23.5 80.5l-4 37h-61q-60 0 -60 21v58q0 16 49 16h49q-2 3 -14 21.5t-14 22t-12 19.5t-12 21t-9.5 19.5t-9.5 21.5t-6.5 21t-5.5 24.5t-2.5 24t-1.5 27.5q0 80 55.5 129t157.5 49
q107 0 160 -50.5t53 -146.5v-25q0 -10 -18.5 -16.5t-47.5 -6.5q-31 0 -51 7t-20 19v29q0 78 -69 78q-73 0 -73 -78q0 -31 9 -65.5t18 -54.5t26 -52t20 -38h81q80 0 80 -27v-44q0 -11 -18.5 -17.5t-47.5 -6.5h-71q0 -58 -18 -105t-70 -87h171q40 0 65.5 -9.5t25.5 -24.5v-45
q0 -15 -25.5 -24.5t-65.5 -9.5h-247z" />
    <glyph glyph-name="currency" unicode="&#xa4;" 
d="M134 232q-34 -30 -61 0l-19 14q-6 5 -4.5 12.5t7.5 11.5l58 47q-20 28 -20 76q0 47 20 78l-58 45q-12 16 -3 25l19 17q28 25 61 -4l42 -38q41 23 86 23q49 0 88 -23l42 38q11 13 28.5 14.5t32.5 -10.5l15 -17q14 -11 0 -25l-61 -45q26 -31 26 -78t-26 -76l61 -47
q8 -4 8 -11.5t-8 -12.5l-15 -14q-15 -14 -32 -13.5t-29 13.5l-42 38q-36 -21 -88 -21q-49 0 -86 21zM262 334q31 0 50 16.5t19 42.5q0 28 -19 44.5t-50 16.5q-32 0 -51.5 -16.5t-19.5 -44.5q0 -26 19.5 -42.5t51.5 -16.5z" />
    <glyph glyph-name="yen" unicode="&#xa5;" 
d="M262 -1q-31 0 -52 7t-21 18v102h-59q-57 0 -57 21v36q0 8 16.5 13.5t40.5 5.5h59v85h-59q-57 0 -57 20v38q0 18 55 18h55l-159 397q-4 13 14.5 20t52.5 7q77 0 85 -27l94 -265l92 268q8 24 79 24q33 0 49.5 -6t11.5 -18l-159 -400h59q54 0 54 -18v-38q0 -20 -61 -20h-60
v-85h60q61 0 61 -19v-36q0 -21 -61 -21h-60v-102q0 -11 -21 -18t-52 -7z" />
    <glyph glyph-name="brokenbar" unicode="&#xa6;" horiz-adv-x="658" 
d="M328 451q-61 0 -61 20v410q0 19 61 19q59 0 59 -19v-410q0 -20 -59 -20zM328 -226q-27 0 -44 6t-17 14v411q0 8 17.5 13.5t43.5 5.5q25 0 42 -5.5t17 -13.5v-411q0 -8 -17 -14t-42 -6z" />
    <glyph glyph-name="dieresis" unicode="&#xa8;" horiz-adv-x="658" 
d="M228 840q-29 0 -46.5 7t-17.5 18v68q0 21 64 21t64 -21v-68q0 -11 -17.5 -18t-46.5 -7zM429 840q-29 0 -46.5 7t-17.5 18v68q0 21 64 21t64 -21v-68q0 -11 -17.5 -18t-46.5 -7z" />
    <glyph glyph-name="copyright" unicode="&#xa9;" horiz-adv-x="970" 
d="M483 -11q-196 0 -326 115t-130 289q0 175 130 290.5t326 115.5q199 0 329.5 -115.5t130.5 -290.5q0 -174 -130.5 -289t-329.5 -115zM483 68q160 0 261 91t101 234q0 144 -101 235t-261 91q-157 0 -259 -91.5t-102 -234.5t102 -234t259 -91zM478 147q-73 0 -110 35.5
t-37 101.5v219q0 140 147 140q149 0 149 -140v-25q0 -16 -46 -16q-49 0 -49 16v31q0 55 -52 55q-47 0 -47 -55v-230q0 -53 47 -53q52 0 52 53v52q0 6 14 11.5t35 5.5q19 0 32.5 -5.5t13.5 -11.5v-47q0 -66 -37.5 -101.5t-111.5 -35.5z" />
    <glyph glyph-name="guillemotleft" unicode="&#xab;" horiz-adv-x="441" 
d="M174 259q-54 0 -68 17l-76 99q-6 4 -6 14q1 2 2.5 8t3.5 7l76 91q11 18 68 18q44 0 40 -15q0 -1 -1 -3l-64 -106l67 -113q5 -12 -20 -16zM365 259q-53 0 -64 17l-76 99q-4 2 -4 14q0 10 7 15l73 91q11 18 64 18q48 0 43 -15q0 -1 -1 -3l-61 -106l61 -113q9 -14 -29 -17
h-13z" />
    <glyph glyph-name="uni00AD" unicode="&#xad;" horiz-adv-x="356" 
d="M125 335q-42 0 -66.5 9.5t-24.5 24.5v49q0 14 25 23.5t66 9.5h107q40 0 65.5 -9.5t25.5 -23.5v-49q0 -15 -25.5 -24.5t-65.5 -9.5h-107z" />
    <glyph glyph-name="registered" unicode="&#xae;" horiz-adv-x="970" 
d="M483 -11q-196 0 -326 115t-130 289q0 175 130 290.5t326 115.5q199 0 329.5 -115.5t130.5 -290.5q0 -174 -130.5 -289t-329.5 -115zM483 68q160 0 261 91t101 234q0 144 -101 235t-261 91q-157 0 -259 -91.5t-102 -234.5t102 -234t259 -91zM389 153q-48 0 -48 17v438
q0 11 21.5 19t54.5 8h76q149 0 149 -132q0 -85 -71 -110q71 -24 71 -117v-58l4 -48q2 -17 -44 -17t-54 14q-4 3 -4 7l-3 47v58q0 38 -15.5 53.5t-50.5 15.5h-37v-178q0 -17 -49 -17zM438 427h42q61 0 61 57v14q0 31 -12.5 43.5t-41.5 12.5h-49v-127z" />
    <glyph glyph-name="macron" unicode="&#xaf;" horiz-adv-x="658" 
d="M267 851q-40 0 -65.5 9t-25.5 23v26q0 29 91 29h120q91 0 91 -29v-26q0 -14 -25.5 -23t-65.5 -9h-120z" />
    <glyph glyph-name="degree" unicode="&#xb0;" 
d="M262 513q-68 0 -116 42t-48 101t48 101t116 42q71 0 119 -41.5t48 -101.5t-48 -101.5t-119 -41.5zM262 599q29 0 49 16t20 41q0 26 -20 43.5t-49 17.5q-28 0 -48 -18t-20 -43q0 -24 20 -40.5t48 -16.5z" />
    <glyph glyph-name="plusminus" unicode="&#xb1;" 
d="M137 185q-41 0 -66 8.5t-25 21.5v28q0 12 23 21t59 9h82v123h-82q-37 0 -59.5 7.5t-22.5 20.5v30q0 13 22.5 21.5t59.5 8.5h82v110q0 18 52 18q51 0 51 -18v-110h82q37 0 58.5 -8t21.5 -22v-30q0 -28 -80 -28h-82v-123h82q36 0 58 -9t22 -21v-28q0 -13 -25 -21.5
t-66 -8.5h-247z" />
    <glyph glyph-name="acute" unicode="&#xb4;" horiz-adv-x="658" 
d="M304 840q-46 0 -44 15l2 4l64 88q15 24 91 24q64 0 59 -19q0 -4 -4 -8l-95 -85q-16 -19 -73 -19z" />
    <glyph glyph-name="paragraph" unicode="&#xb6;" horiz-adv-x="590" 
d="M282 -110q-54 0 -54 20v432q-83 0 -138.5 55t-55.5 139v58q0 92 65.5 142.5t177.5 50.5h156q40 0 65.5 -9t25.5 -23v-845q0 -20 -56 -20q-54 0 -54 20v787h-79v-787q0 -20 -53 -20z" />
    <glyph glyph-name="periodcentered" unicode="&#xb7;" horiz-adv-x="247" 
d="M125 334q-31 0 -51 7t-20 17v72q0 10 20 17t51 7q29 0 47.5 -7t18.5 -17v-72q0 -10 -18.5 -17t-47.5 -7z" />
    <glyph glyph-name="cedilla" unicode="&#xb8;" horiz-adv-x="658" 
d="M326 -168q-120 0 -128 61q0 8 8 14q4 3 19 3h57l14 -7q0 -11 9 -17.5t21 -6.5q32 0 32 28l-15 21q-3 2 -14.5 7.5t-16 9.5t-4.5 10l-4 50q0 11 31 11q33 0 33 -11v-50q92 0 92 -52q0 -43 -34 -57t-100 -14z" />
    <glyph glyph-name="guillemotright" unicode="&#xbb;" horiz-adv-x="438" 
d="M140 276q-9 -17 -67 -17q-44 0 -40 14q0 1 1 3l64 113l-64 106q-7 12 15 16q10 2 24 2q55 0 71 -18l72 -91q5 -2 5 -15q0 -11 -5 -14zM335 276q-14 -17 -68 -17q-46 2 -42 17l67 113l-64 106q-8 12 15 16q10 2 24 2q57 0 68 -18l76 -91q3 -2 3 -15q0 -12 -3 -14z" />
    <glyph glyph-name="questiondown" unicode="&#xbf;" horiz-adv-x="478" 
d="M259 787q69 0 69 -24v-69q0 -12 -19 -19.5t-50 -7.5q-30 0 -50 7.5t-20 19.5v69q0 24 70 24zM259 580q64 0 64 -22v-25q0 -81 -71 -167q-46 -58 -63.5 -100t-17.5 -89q0 -76 72 -76q73 0 73 76v63q0 10 19 17.5t49 7.5t49.5 -7.5t19.5 -17.5v-55q0 -94 -54.5 -145
t-158.5 -51t-158.5 51t-54.5 145q0 52 21.5 99.5t73.5 108.5q76 88 76 143v22q0 22 61 22z" />
    <glyph glyph-name="multiply" unicode="&#xd7;" 
d="M159 240q-35 -31 -71 0l-20 16q-8 7 -8 14t8 11l123 112l-123 110q-13 17 0 24l20 20q36 27 71 0l103 -93l106 93q16 15 35 15t35 -15l18 -17q14 -11 4 -24l-129 -113l129 -112q10 -11 -4 -25l-18 -16q-16 -14 -35 -14t-35 14l-106 94z" />
    <glyph glyph-name="divide" unicode="&#xf7;" 
d="M262 506q-71 0 -71 24v69q0 24 71 24q69 0 69 -24v-69q0 -24 -69 -24zM128 349q-41 0 -66 9.5t-25 24.5v21q0 15 25 24t66 9h271q41 0 66 -9t25 -24v-21q0 -15 -25.5 -24.5t-65.5 -9.5h-271zM262 161q-31 0 -51 7t-20 17v71q0 11 20 18t51 7t50 -7t19 -18v-71
q0 -24 -69 -24z" />
    <glyph glyph-name="uni02BC" unicode="&#x2bc;" horiz-adv-x="0" 
d="M-24 554q-11 0 -19 4t-6 9l34 100h-12q-17 0 -27 6q-15 5 -15 18v72q0 24 69 24t69 -24v-66q0 -19 -8 -33l-49 -97q-9 -13 -36 -13z" />
    <glyph glyph-name="circumflex" unicode="&#x2c6;" horiz-adv-x="658" 
d="M206 840q-44 0 -41 15q0 2 2 4l73 88q21 24 88 24t89 -24l73 -88q10 -13 -17 -17l-23 -2q-52 0 -73 19l-49 44l-47 -44q-24 -19 -75 -19z" />
    <glyph glyph-name="caron" unicode="&#x2c7;" horiz-adv-x="658" 
d="M328 840q-67 0 -88 25l-73 86q-9 15 18 19l21 1q53 0 75 -20l47 -42l49 42q18 20 73 20q46 0 42 -15q0 -3 -2 -5l-73 -86q-23 -25 -89 -25z" />
    <glyph glyph-name="uni02C9" unicode="&#x2c9;" horiz-adv-x="658" 
d="M267 851q-40 0 -65.5 9t-25.5 23v26q0 29 91 29h120q91 0 91 -29v-26q0 -14 -25.5 -23t-65.5 -9h-120z" />
    <glyph glyph-name="breve" unicode="&#x2d8;" horiz-adv-x="658" 
d="M328 837q-69 0 -108 30.5t-46 86.5q0 17 42 17q41 0 46 -17q15 -38 66 -38q53 0 67 38q6 17 46 17q42 0 42 -17q-6 -55 -46.5 -86t-108.5 -31z" />
    <glyph glyph-name="dotaccent" unicode="&#x2d9;" horiz-adv-x="658" 
d="M328 840q-29 0 -47.5 7t-18.5 18v68q0 21 66 21q67 0 67 -21v-68q0 -11 -18.5 -18t-48.5 -7z" />
    <glyph glyph-name="ring" unicode="&#x2da;" horiz-adv-x="658" 
d="M328 828q-49 0 -82 28.5t-33 70.5t33 70.5t82 28.5q50 0 83 -28.5t33 -70.5t-33 -70.5t-83 -28.5zM328 889q19 0 31.5 10t12.5 28t-12.5 29.5t-31.5 11.5q-18 0 -30 -11.5t-12 -29.5t12 -28t30 -10z" />
    <glyph glyph-name="ogonek" unicode="&#x2db;" horiz-adv-x="658" 
d="M341 -168q-54 0 -85 18t-31 53q0 49 71 89q15 3 23 7l24 3q15 0 19 -3q9 -4 3 -10q-27 -25 -27 -55q0 -31 46 -31h15q15 0 20 -3q14 0 14 -10v-31q0 -6 -7.5 -11.5t-18.5 -6.5q-5 -3 -12 -3z" />
    <glyph glyph-name="tilde" unicode="&#x2dc;" horiz-adv-x="658" 
d="M228 859q-6 -11 -18.5 -12.5t-26.5 7.5l-16 8q-20 10 -15 24q46 82 113 82q27 0 78 -21q36 -17 46 -17q22 0 40 24q16 20 46 4l15 -8q9 -4 13.5 -11t1.5 -12q-45 -82 -113 -82q-39 0 -79 20q-39 16 -46 16q-19 0 -39 -22z" />
    <glyph glyph-name="hungarumlaut" unicode="&#x2dd;" horiz-adv-x="658" 
d="M206 840q-40 0 -38 14q0 2 3 5l61 88q19 24 91 24q56 0 54 -17l-5 -7l-95 -91q-24 -16 -71 -16zM404 840q-43 0 -41 15l2 4l64 88q15 24 88 24q56 0 54 -16q0 -4 -5 -8l-94 -91q-18 -16 -68 -16z" />
    <glyph glyph-name="uni0302" unicode="&#x302;" horiz-adv-x="0" 
d="M-122 840q-45 0 -42 14q1 2 3 5l73 88q21 24 88 24t88 -24l73 -88q12 -13 -17 -18q-9 -1 -22 -1q-52 0 -73 19l-49 44l-49 -44q-21 -19 -73 -19z" />
    <glyph glyph-name="uni0304" unicode="&#x304;" horiz-adv-x="0" 
d="M-61 851q-40 0 -65.5 9t-25.5 23v26q0 29 91 29h118q92 0 92 -29v-26q0 -14 -25.5 -23t-66.5 -9h-118z" />
    <glyph glyph-name="uni0306" unicode="&#x306;" horiz-adv-x="0" 
d="M0 837q-139 0 -155 117q0 17 42 17q43 0 45 -17q10 -22 25.5 -30t42.5 -8q50 0 68 38q2 17 45 17q42 0 42 -17q-8 -55 -48 -86t-107 -31z" />
    <glyph glyph-name="uni0307" unicode="&#x307;" horiz-adv-x="0" 
d="M0 840q-29 0 -48.5 7t-19.5 18v68q0 21 68 21t68 -21v-68q0 -11 -19.5 -18t-48.5 -7z" />
    <glyph glyph-name="uni0308" unicode="&#x308;" horiz-adv-x="0" 
d="M-100 840q-29 0 -46.5 7t-17.5 18v68q0 21 64 21q63 0 63 -21v-68q0 -11 -17 -18t-46 -7zM100 840q-29 0 -46 7t-17 18v68q0 21 63 21q64 0 64 -21v-68q0 -11 -17.5 -18t-46.5 -7z" />
    <glyph glyph-name="uni030A" unicode="&#x30a;" horiz-adv-x="0" 
d="M0 828q-50 0 -82.5 28.5t-32.5 70.5t32.5 70.5t82.5 28.5t82.5 -28.5t32.5 -70.5t-32.5 -70.5t-82.5 -28.5zM0 889q18 0 30 10t12 28t-12 29.5t-30 11.5t-30 -11.5t-12 -29.5t12 -28t30 -10z" />
    <glyph glyph-name="uni030B" unicode="&#x30b;" horiz-adv-x="0" 
d="M-122 840q-42 0 -39 15q0 2 2 4l61 88q22 24 91 24q57 0 54 -17l-5 -7l-94 -91q-24 -16 -70 -16zM76 840q-42 0 -41 15l2 4l63 88q17 24 89 24q57 0 53 -17q-1 -3 -5 -7l-93 -91q-20 -16 -68 -16z" />
    <glyph glyph-name="uni030C" unicode="&#x30c;" horiz-adv-x="0" 
d="M0 840q-67 0 -88 25l-73 86q-11 14 17 19q9 1 22 1q55 0 73 -20l49 -42l49 42q18 20 73 20q45 0 42 -14q-1 -3 -3 -6l-73 -86q-21 -25 -88 -25z" />
    <glyph glyph-name="uni0312" unicode="&#x312;" horiz-adv-x="0" 
d="M0 840q-61 0 -61 22l4 47q0 27 15 42l20 34q17 14 29 17h1q14 4 22 0q11 -5 7 -14l-25 -44h12q15 0 25 -3q12 -7 12 -17v-62q0 -22 -61 -22z" />
    <glyph glyph-name="uni0326" unicode="&#x326;" horiz-adv-x="0" 
d="M-8 -212q-16 0 -22 3q-11 5 -7 14l25 41h-12q-5 0 -25 6q-12 7 -12 16v63q0 8 17 14t44 6t44 -6t17 -14l-4 -49q0 -23 -15 -44l-20 -30q-12 -13 -29 -17z" />
    <glyph glyph-name="uni0327" unicode="&#x327;" horiz-adv-x="0" 
d="M-8 -168q-119 0 -129 61q0 8 9 14q3 3 15 3h61l13 -7q0 -24 31 -24q32 0 32 28l-16 21l-15 7.5t-16.5 9.5t-6.5 10v50q0 11 30 11q14 0 24 -3.5t10 -7.5v-50q91 0 91 -52q0 -43 -33.5 -57t-99.5 -14z" />
    <glyph glyph-name="uni0328" unicode="&#x328;" horiz-adv-x="0" 
d="M12 -168q-53 0 -84 18.5t-31 52.5q0 49 69 89q14 2 26 7l23 3q15 0 19 -3q7 -4 3 -10q-29 -26 -29 -55q0 -16 14 -23.5t32 -7.5h15q16 0 22 -3q12 0 12 -10v-31q0 -15 -24 -18q-6 -3 -11 -3z" />
    <glyph glyph-name="uni0335" unicode="&#x335;" horiz-adv-x="0" 
d="M-49 342q-91 0 -91 30v44q0 29 91 29h98q91 0 91 -29v-44q0 -30 -91 -30h-98z" />
    <glyph glyph-name="uni0336" unicode="&#x336;" horiz-adv-x="0" 
d="M-183 342q-41 0 -66 9t-25 24v38q0 14 25.5 23t65.5 9h366q40 0 65.5 -9t25.5 -23v-38q0 -15 -25 -24t-66 -9h-366z" />
    <glyph glyph-name="uni0337" unicode="&#x337;" horiz-adv-x="0" 
d="M-145 -17q-3 -6 -15 -7.5t-26 4.5q-32 10 -27 27l358 797q8 17 41 3q32 -10 27 -27z" />
    <glyph glyph-name="uni0338" unicode="&#x338;" horiz-adv-x="0" 
d="M-144 -8q-8 -21 -54 -6q-32 12 -27 30l369 783q4 8 20 8.5t34 -6.5q31 -14 27 -29z" />
    <glyph glyph-name="uni2002" unicode="&#x2002;" horiz-adv-x="395" 
 />
    <glyph glyph-name="uni2003" unicode="&#x2003;" horiz-adv-x="658" 
 />
    <glyph glyph-name="uni2007" unicode="&#x2007;" 
 />
    <glyph glyph-name="figuredash" unicode="&#x2012;" 
d="M91 342q-41 0 -66 9t-25 24v38q0 14 25.5 23t65.5 9h343q41 0 66.5 -9t25.5 -23v-38q0 -15 -25 -24t-67 -9h-343z" />
    <glyph glyph-name="endash" unicode="&#x2013;" horiz-adv-x="395" 
d="M91 342q-41 0 -66 9t-25 24v38q0 14 25.5 23t65.5 9h213q40 0 65.5 -9t25.5 -23v-38q0 -15 -25 -24t-66 -9h-213z" />
    <glyph glyph-name="emdash" unicode="&#x2014;" horiz-adv-x="658" 
d="M91 342q-41 0 -66 9t-25 24v38q0 14 25.5 23t65.5 9h475q40 0 65.5 -9t25.5 -23v-38q0 -15 -25 -24t-66 -9h-475z" />
    <glyph glyph-name="quoteleft" unicode="&#x2018;" horiz-adv-x="247" 
d="M125 533q-31 0 -51 7t-20 18v63q0 25 10 35l64 121q3 10 39 10q33 -1 31 -10l-53 -124h14q2 0 6 -0.5t8.5 -2t5.5 -1.5h4q8 -4 8 -14v-77q0 -11 -18.5 -18t-47.5 -7z" />
    <glyph glyph-name="quoteright" unicode="&#x2019;" horiz-adv-x="247" 
d="M79 533q-30 0 -30 11l51 123h-12q-10 0 -20 6q-14 4 -14 17v73q0 24 71 24q66 0 66 -24v-63q0 -20 -8 -36l-65 -120q-7 -11 -39 -11z" />
    <glyph glyph-name="quotesinglbase" unicode="&#x201a;" horiz-adv-x="247" 
d="M88 -135q-15 0 -22.5 2.5t-4.5 8.5l42 123h-12q-4 0 -12.5 1.5t-10.5 1.5v3q-5 0 -9.5 4.5t-4.5 9.5v76q0 11 20 17.5t51 6.5q69 0 69 -24v-65q0 -20 -8 -34l-58 -120q-4 -11 -40 -11z" />
    <glyph glyph-name="quotedblleft" unicode="&#x201c;" horiz-adv-x="441" 
d="M125 533q-31 0 -51 7t-20 18v63q0 25 10 35l64 121q3 10 39 10q33 -1 31 -10l-53 -124h14q2 0 6 -0.5t8.5 -2t5.5 -1.5h4q8 -4 8 -14v-77q0 -11 -18.5 -18t-47.5 -7zM316 533q-29 0 -47.5 7t-18.5 18v63q0 26 9 35l64 121q5 10 39 10q29 -1 27 -10l-48 -124h12l20 -4
q14 -4 14 -14v-77q0 -11 -20 -18t-51 -7z" />
    <glyph glyph-name="quotedblright" unicode="&#x201d;" horiz-adv-x="441" 
d="M79 533q-30 0 -30 11l51 123h-12q-10 0 -20 6q-14 4 -14 17v73q0 24 71 24q66 0 66 -24v-63q0 -20 -8 -36l-65 -120q-7 -11 -39 -11zM274 533q-27 0 -28 9q0 1 1 2l49 123h-14q-10 0 -20 6h-3q-9 4 -9 17v73q0 24 66 24q71 0 71 -24v-63q0 -19 -10 -36l-64 -120
q-4 -11 -39 -11z" />
    <glyph glyph-name="quotedblbase" unicode="&#x201e;" horiz-adv-x="441" 
d="M79 -135q-30 0 -30 11l51 123h-12q-2 0 -10 1.5t-10 1.5v3q-14 0 -14 14v76q0 11 20 17.5t51 6.5q29 0 47.5 -6.5t18.5 -17.5v-65q0 -21 -8 -37l-65 -117q-4 -11 -39 -11zM274 -135q-15 0 -22.5 2.5t-4.5 8.5l49 123h-14q-2 0 -10 1.5t-10 1.5l-3 3q-9 0 -9 14v76
q0 11 18.5 17.5t47.5 6.5q31 0 51 -6.5t20 -17.5v-65q0 -20 -10 -37l-64 -117q-3 -11 -39 -11z" />
    <glyph glyph-name="bullet" unicode="&#x2022;" horiz-adv-x="395" 
d="M198 265q-64 0 -108 37.5t-44 90.5q0 54 44 92t108 38q63 0 105.5 -38t42.5 -92t-42.5 -91t-105.5 -37z" />
    <glyph glyph-name="ellipsis" unicode="&#x2026;" horiz-adv-x="658" 
d="M110 -1q-31 0 -51 7t-20 18v71q0 10 20 17t51 7q69 0 69 -24v-71q0 -11 -19 -18t-50 -7zM328 -1q-31 0 -50 7t-19 18v71q0 24 69 24q71 0 71 -24v-71q0 -11 -19.5 -18t-51.5 -7zM548 -1q-32 0 -51 7t-19 18v71q0 24 70 24q29 0 49 -7t20 -17v-71q0 -10 -20 -17.5
t-49 -7.5z" />
    <glyph glyph-name="guilsinglleft" unicode="&#x2039;" horiz-adv-x="247" 
d="M174 259q-54 0 -68 17l-76 99q-6 4 -6 14q1 2 2.5 8t3.5 7l76 91q11 18 68 18q44 0 40 -15q0 -1 -1 -3l-64 -106l67 -113q5 -12 -20 -16z" />
    <glyph glyph-name="guilsinglright" unicode="&#x203a;" horiz-adv-x="247" 
d="M140 276q-9 -17 -67 -17q-44 0 -40 14q0 1 1 3l64 113l-64 106q-7 12 15 16q10 2 24 2q55 0 71 -18l72 -91q5 -2 5 -15q0 -11 -5 -14z" />
    <glyph glyph-name="fraction" unicode="&#x2044;" horiz-adv-x="114" 
d="M-118 -1q-44 0 -41 17l342 756q4 15 54 15q41 0 38 -12q0 -1 -1 -3l-342 -756q-2 -17 -50 -17z" />
    <glyph glyph-name="Euro" unicode="&#x20ac;" 
d="M281 -11q-107 0 -160 50.5t-53 145.5v129h-11q-2 0 -8 1.5t-10 1.5q-9 5 -9 14v30q0 9 9 14q4 0 10 1t8 1h11v63h-11q-11 0 -18 3q-9 0 -9 11v32q0 7 9 12q7 2 18 2h11v102q0 96 53 146.5t160 50.5q103 0 156 -51t53 -146v-20q0 -18 -52 -18h-21q-64 0 -64 21v24
q0 78 -71 78q-69 0 -69 -78v-109h113q39 0 63.5 -8t24.5 -21q0 -31 -88 -31h-113v-63h113q37 0 62.5 -8.5t25.5 -20.5q0 -15 -25 -24.5t-63 -9.5h-113v-137q0 -42 17 -59t52 -17q36 0 53.5 17t17.5 59v49q0 26 70 26q67 0 67 -26v-41q0 -95 -53 -145.5t-156 -50.5z" />
    <glyph glyph-name="trademark" unicode="&#x2122;" horiz-adv-x="784" 
d="M155 389q-45 0 -45 15v313h-49q-49 0 -49 15v23q0 14 25.5 23t65.5 9h101q41 0 66.5 -9t25.5 -23v-23q0 -15 -46 -15h-49v-313q0 -15 -46 -15zM392 389q-39 0 -39 13v361q0 24 66 24q73 0 76 -24l49 -230l49 230q6 24 76 24q68 0 68 -24v-361q0 -13 -44 -13q-42 0 -42 13
l-4 289l-66 -292q-3 -10 -40 -10q-36 0 -39 10l-68 292l-1 -289q0 -13 -41 -13z" />
    <glyph glyph-name="minus" unicode="&#x2212;" 
d="M128 349q-41 0 -66 9.5t-25 24.5v21q0 15 25 24t66 9h271q41 0 66 -9t25 -24v-21q0 -15 -25.5 -24.5t-65.5 -9.5h-271z" />
    <glyph glyph-name="uni2215" unicode="&#x2215;" 
d="M76 -1q-50 0 -47 17l1 3l354 750q8 18 64 18q24 0 37 -5t10 -13l-351 -750q-12 -20 -68 -20z" />
    <glyph glyph-name="uni2219" unicode="&#x2219;" horiz-adv-x="289" 
d="M145 322q-38 0 -61 8.5t-23 21.5v82q0 31 84 31q83 0 83 -31v-82q0 -13 -23 -21.5t-60 -8.5z" />
    <glyph glyph-name="approxequal" unicode="&#x2248;" 
d="M113 434q-23 -24 -59 -3l-20 14q-18 13 -10 23q36 52 70.5 76t81.5 24q43 0 94 -32q57 -30 80 -30q32 0 64 41q9 13 25.5 13.5t32.5 -10.5l21 -14q13 -14 9 -24q-36 -52 -70.5 -75.5t-81.5 -23.5q-40 0 -95 32q-59 30 -79 30q-19 0 -32.5 -9.5t-30.5 -31.5zM113 240
q-23 -25 -59 -2l-20 14q-18 10 -10 24q35 52 69.5 75.5t82.5 23.5q39 0 94 -33q59 -31 80 -31q31 0 64 41q9 13 25.5 13.5t32.5 -10.5l21 -13q15 -12 9 -22q-36 -53 -71 -77.5t-81 -24.5q-39 0 -95 34q-7 3 -20.5 9.5t-18.5 9t-13.5 5.5t-14.5 4t-12 1q-19 0 -32.5 -9.5
t-30.5 -31.5z" />
    <glyph glyph-name="notequal" unicode="&#x2260;" 
d="M100 157q-43 0 -41 13q0 2 2 4l57 85h-35q-34 0 -34 11v52q0 10 17.5 18t46.5 8h66l64 92h-103q-41 0 -66 9t-25 23v26q0 29 91 29h164l58 85q9 17 64 17q44 0 40 -14q0 -1 -1 -3l-58 -85h34q37 0 37 -11v-51q0 -11 -18.5 -18t-45.5 -7h-68l-64 -92h105q40 0 65.5 -9.5
t25.5 -24.5v-24q0 -31 -91 -31h-167l-59 -85q-10 -17 -61 -17z" />
    <glyph glyph-name="lessequal" unicode="&#x2264;" 
d="M362 577q43 14 70.5 9t27.5 -25v-28q0 -16 -37 -27l-225 -61l225 -62q37 -11 37 -28v-27q0 -21 -27.5 -25.5t-70.5 8.5l-274 82q-31 10 -31 25v53q0 14 31 24zM149 171q-41 0 -66.5 9.5t-25.5 24.5v24q0 30 92 30h219q92 0 92 -30v-24q0 -15 -25.5 -24.5t-66.5 -9.5h-219
z" />
    <glyph glyph-name="greaterequal" unicode="&#x2265;" 
d="M164 311q-44 -13 -70 -8.5t-26 25.5v27q0 17 35 28l225 62l-225 61q-35 10 -35 27v28q0 21 26 25.5t70 -9.5l274 -82q30 -10 30 -24v-53q0 -15 -30 -25zM159 171q-42 0 -66.5 9.5t-24.5 24.5v24q0 30 91 30h218q91 0 91 -30v-24q0 -15 -24.5 -24.5t-66.5 -9.5h-218z" />
    <glyph glyph-name="caroncomb.alt" horiz-adv-x="0" 
d="M-24 554q-11 0 -19 4t-6 9l34 106h-12q-10 0 -25 5h-2q-14 6 -14 16v69q0 24 68 24t68 -24v-59q0 -15 -7 -34l-49 -103q-9 -13 -36 -13z" />
    <glyph glyph-name="_FSHallmark" horiz-adv-x="980" 
d="M92 784h819v-96h-819v96zM805 505q0 10 -7 22q-9 10 -18 17q-16 8 -23 10q-3 0 -11.5 1.5t-12.5 1.5q-25 0 -47 -12q-20 -13 -20 -29q0 -30 18 -40q25 -13 44 -17l65 -15q17 -6 29 -7q5 -1 24 -6q3 -2 10.5 -5.5t10.5 -5.5q21 -13 31 -27q11 -18 12 -43q1 -26 -10 -49
q-25 -41 -72 -58q-48 -15 -93 -15q-39 0 -67 9q-26 7 -57 27q-25 18 -42 47q-15 27 -15 64l95 -2q0 -5 4 -14q2 -15 14 -26q11 -11 25 -17q17 -9 46 -9q32 0 52 12q20 9 20 25q0 30 -78 46q-74 18 -120 43q-49 26 -49 82q0 48 32 74q31 25 72 39q34 8 68 8q48 0 93 -18
q44 -18 65 -65q11 -27 11 -48h-99zM200 228h-108v407h345v-93h-237v-91h197v-91h-197v-132zM428 277q0 21 14 35q13 13 35 13q20 0 39 -14q16 -13 16 -34q0 -19 -16 -34q-17 -13 -39 -13q-19 0 -34 15q-15 13 -15 32zM90 177h820v-97h-820v97z" />
    <glyph glyph-name="_Fontastica" horiz-adv-x="980" 
d="M283 147h-113q-1 2 -1 5v664h497v-102h-383v-273h384v-103h-384v-191zM355 626h385v190h113v-667h-498v101h385v273h-385v103zM740 82q-7 -4 -7 -10q0 -9 5 -14q4 -6 12 -6q9 0 18 6l6 -6q-9 -11 -24 -11q-10 0 -21 6q-6 7 -9 21q-1 13 8 22q10 10 22 10q14 0 24 -10
l-6 -8q-1 1 -3 2.5t-3 2.5q-1 2 -9 2h-3q-9 -4 -10 -7zM170 99h42v-10h-27v-16h26v-9h-26v-22h-15v57zM264 99q18 0 29 -15q8 -11 2 -26q-6 -16 -25 -17l-7 -3q-8 0 -12 4q-18 8 -18 25q0 15 9 23q6 9 22 9zM374 42h-3q-2 -1 -4 -1q-5 0 -9 6l-6 8q0 2 -2 4.5t-3 3.5l-12 14
v-35h-13v57h11q4 -1 6 -8q9 -9 13 -14q1 -2 5 -8l6 -9v39h11v-57zM399 99h48v-10h-18v-47h-12v47h-18v10zM577 72q12 -2 12 -13q1 -12 -10 -17q-2 -1 -11 -1q-19 0 -27 9q1 1 1 2l1 2q0 2 2 4l18 -6h8q4 6 4 3q0 9 -13 12q-2 0 -3 1t-5 1q-9 3 -9 13q-3 9 8 15q6 2 13 2
q14 0 23 -5l-5 -10q-2 1 -4 1q-1 0 -3 1q-1 1 -4 1q-1 0 -2 2h-8q-4 0 -4 -4q-2 -2 4 -8q6 -1 14 -5zM608 99h50v-10h-18v-47h-13v47h-19v10zM681 99h15v-57h-15v57zM832 99l12 -27q0 -2 6 -16q4 -10 7 -14h-13l-5 12h-28l-5 -12h-13q15 29 23 57h16zM497 97q2 -6 6 -13
q2 -2 4 -7t3 -6q0 -2 2 -7t3 -8t3 -7.5t2 -6.5h-13q-1 1 -1 5l-1 2q-1 1 -1.5 2t-0.5 3h-26q-1 -2 -1 -7q-1 -1 -1 -2l-3 -3h-12l24 55h13zM281 71q0 8 -4 13q-7 5 -14 5q-2 -2 -4 -2q-6 -1 -11 -9q-6 -7 -1 -14q4 -13 17 -13q4 0 5 1q12 3 12 17v2zM499 64q-1 0 -1 2t-1 3
t-2 3l-1 2q-1 2 -1 6q-1 1 -2 3l-1 2l-10 -21h19zM833 64q-1 1 -1 5q-2 5 -3 5q-1 1 -1 3t-1 3l-1 2q-1 2 -2 3l-9 -21h18z" />
    </font>
</defs>
</svg>
