<?xml version="1.0" standalone="no"?>
<!DOCTYPE svg PUBLIC "-//W3C//DTD SVG 1.1//EN" "http://www.w3.org/Graphics/SVG/1.1/DTD/svg11.dtd" >
<svg xmlns="http://www.w3.org/2000/svg" xmlns:xlink="http://www.w3.org/1999/xlink" version="1.1">
<metadata>
Created by FontForge 20170731 at Wed Apr  3 19:47:51 2019
 By Aleksey,,,
Copyright (c) 2019 by Fontastica. All rights reserved.
</metadata>
<defs>
<font id="Berk-Retro" horiz-adv-x="525" >
  <font-face 
    font-family="Berk Retro"
    font-weight="400"
    font-stretch="normal"
    units-per-em="1000"
    panose-1="0 0 5 0 0 0 0 0 0 0"
    ascent="800"
    descent="-200"
    x-height="797"
    cap-height="797"
    bbox="-284 -262 984 1036"
    underline-thickness="50"
    underline-position="-200"
    unicode-range="U+000D-2265"
  />
<missing-glyph horiz-adv-x="970" 
d="M195 -37h646q29 0 55 6q22 7 30 12q16 12 16 26v722q0 15 -17 26q-6 3 -15 6q-3 11 -16 19t-30 11q-25 6 -54 6h-646q-29 0 -54 -6q-17 -3 -30 -11q-17 -9 -17 -25v-722q0 -17 16 -26q10 -6 16 -8q3 -11 15 -18q8 -6 30 -12q25 -6 55 -6zM810 -1h-646q-40 0 -65.5 9.5
t-25.5 24.5v722q0 14 25.5 23t65.5 9h646q40 0 65.5 -9t25.5 -23v-722q0 -15 -25.5 -24.5t-65.5 -9.5zM179 732l304 -298l308 298h-612zM740 696l-255 -246l-251 246h506zM137 690v-592l304 295zM529 393l304 -295v592zM178 636l249 -243l-249 -242v485zM823 611v-485
l-249 241zM483 352l-304 -295h612zM512 311l254 -244h-505z" />
    <glyph glyph-name=".notdef" horiz-adv-x="970" 
d="M195 -37h646q29 0 55 6q22 7 30 12q16 12 16 26v722q0 15 -17 26q-6 3 -15 6q-3 11 -16 19t-30 11q-25 6 -54 6h-646q-29 0 -54 -6q-17 -3 -30 -11q-17 -9 -17 -25v-722q0 -17 16 -26q10 -6 16 -8q3 -11 15 -18q8 -6 30 -12q25 -6 55 -6zM810 -1h-646q-40 0 -65.5 9.5
t-25.5 24.5v722q0 14 25.5 23t65.5 9h646q40 0 65.5 -9t25.5 -23v-722q0 -15 -25.5 -24.5t-65.5 -9.5zM179 732l304 -298l308 298h-612zM740 696l-255 -246l-251 246h506zM137 690v-592l304 295zM529 393l304 -295v592zM178 636l249 -243l-249 -242v485zM823 611v-485
l-249 241zM483 352l-304 -295h612zM512 311l254 -244h-505z" />
    <glyph glyph-name=".null" horiz-adv-x="0" 
 />
    <glyph glyph-name="nonmarkingreturn" horiz-adv-x="333" 
 />
    <glyph glyph-name="CR" unicode="&#xd;" horiz-adv-x="209" 
 />
    <glyph glyph-name="space" unicode=" " horiz-adv-x="209" 
 />
    <glyph glyph-name="exclam" unicode="!" horiz-adv-x="285" 
d="M231 765q-1 13 -14 19q-7 5 -25 9q-23 4 -43 4t-44 -4q-16 -4 -25 -9q-15 -7 -14 -22l42 -569q3 -26 32 -32q7 -27 42 -27q15 0 27.5 8.5t13.5 25.5l39 569q0 14 -14 22q-7 4 -17 6zM182 194q0 -10 -8.5 -17t-22.5 -7t-23.5 7t-9.5 17l-42 569q0 24 73 24q72 0 72 -24z
M150 -32q17 -4 35 -4t32 5q24 9 24 29v69q0 21 -24 30q-2 0 -8 2q-3 17 -23 23q-14 5 -32 5t-34 -4q-27 -9 -27 -30v-69q0 -21 27 -30l4 -1q4 -18 26 -25zM154 0q-51 0 -51 24v69q0 24 51 24q46 0 46 -24v-69q0 -24 -46 -24z" />
    <glyph glyph-name="quotedbl" unicode="&#x22;" horiz-adv-x="441" 
d="M130 500q15 -3 26 -3q10 0 24 3q8 2 14 6q10 4 11 14l30 216q1 13 -13 22q-9 6 -18 7q0 13 -13 19q-9 5 -24 9q-23 4 -42 4q-20 0 -44 -4q-18 -4 -25 -8q-16 -9 -14 -23l31 -216q1 -10 11 -15q5 -3 15 -5q2 -1 4 -1l1 -5q1 -9 11 -15q10 -4 15 -5zM322 500q13 -3 25 -3
q10 0 25 3q12 2 16 5q10 8 11 15l29 216v3q0 15 -15 21q-3 2 -16 6q0 11 -15 20q-13 6 -24 7q-23 4 -42 4t-42 -4q-15 -4 -24 -9q-14 -8 -13 -22l30 -216q1 -8 10 -15q10 -4 14 -5q2 -1 6 -1l1 -5q1 -10 10 -14q6 -4 14 -6zM125 533q-39 0 -42 14l-31 216q0 24 73 24
q69 0 69 -24l-30 -216q0 -14 -39 -14zM316 533q-39 0 -39 14l-30 216q0 24 69 24q74 0 71 -24l-29 -216q-2 -14 -42 -14z" />
    <glyph glyph-name="numbersign" unicode="#" horiz-adv-x="541" 
d="M112 -33q17 -4 34 -4q18 0 35 4q12 2 20 7q11 6 14 18l25 196h38l-21 -168q-1 -12 11 -20q8 -5 20 -7q-1 -11 11 -19q12 -6 20 -7q19 -4 35 -4t36 4q16 5 21 7q13 8 14 18l22 196h35q19 2 27 10q7 8 9 28q1 6 3 21.5t3 25.5q0 9 -6 14q-2 3 -10 5q-1 1 -16 3q1 1 1 4
q1 7 -5 13q-6 5 -11 6l-15 3l19 162h28q21 3 24 4q8 3 10 4q7 5 8 12q0 8 3.5 33.5t3.5 34.5q0 12 -16 18l-15 3q1 1 1 4q0 15 -17 18q-1 1 -13 3l18 125q1 12 -12 20q-8 4 -19 6q1 12 -12 19q-8 5 -20 7q-14 3 -34 3q-22 0 -36 -3q-13 -2 -21 -6q-13 -6 -14 -18l-19 -152
h-37l14 124v3q0 10 -13 18q-2 1 -5 2t-7 2t-6 2v1q0 12 -13 19q-3 2 -10.5 4t-8.5 2q-14 2 -33 2q-21 0 -35 -3q-10 -2 -19 -6q-13 -6 -14 -18l-21 -152h-27q-16 -2 -23 -4q-16 -5 -17 -17q-7 -67 -7 -69q0 -7 7 -12q2 -1 10 -4q8 -2 13 -2v-8q0 -7 7 -12q2 -1 10 -4
q8 -2 14 -2l-19 -163h-36q-18 0 -27 -9q-7 -8 -9 -28q-3 -34 -5 -48q-1 -8 6 -13q3 -3 10 -5q6 -3 15 -3v-4q-1 -8 5 -14q2 -3 10 -5l13 -3l-20 -169q-1 -12 11 -20q11 -6 19 -7h1q-1 -10 10 -19q6 -3 20 -7zM115 -1q-54 0 -54 20l24 205h-33q-30 0 -30 11l8 65q0 11 34 11
h34l24 208h-34q-15 0 -24 3t-7 8l7 66q0 12 34 12h32l22 161q0 18 58 18t55 -18l-18 -161h91l20 161q0 18 61 18q56 0 56 -18l-22 -161h34q14 0 23.5 -4t6.5 -10l-7 -64q0 -11 -35 -11h-34l-24 -208h33q33 0 33 -11l-8 -62q0 -14 -34 -14h-34l-23 -205q-7 -20 -61 -20
q-56 0 -56 20l25 205h-91l-27 -205q0 -20 -59 -20zM235 519l-25 -208h94l24 208h-93zM314 483l-19 -162h-40l20 162h39z" />
    <glyph glyph-name="dollar" unicode="$" 
d="M257 -95q19 -4 36 -4t37 4q10 1 21 7q13 9 13 20v50q76 16 115.5 67t39.5 130q0 68 -31 115.5t-85 89.5q-23 22 -61 49q-24 16 -52 37l-8 6l-6 6q-41 41 -41 88q0 30 15.5 43t47.5 13q13 0 27 -2q6 -14 6 -47q0 -12 11 -16q5 -3 16 -5q1 -1 4 -1v-4q0 -12 11 -16
q4 -3 16 -5q10 -2 26 -2h60q5 0 23 4q11 6 13 7q8 8 8 15q0 115 -83 170q-29 31 -72 47v21q0 14 -13 20q-4 3 -18 8q-1 10 -13 18q-7 4 -21 8q-19 4 -37 4q-22 0 -36 -4q-10 -1 -20 -8q-12 -8 -12 -20v-38q-152 -40 -152 -192q0 -66 30.5 -113t83.5 -89q25 -23 62 -49
q7 -5 25 -17.5t27 -19.5l6 -5l3.5 -3.5t4.5 -3.5q41 -43 41 -91q0 -61 -66 -61q-18 0 -30 4q-5 13 -5 28v35q0 12 -14 22q-5 3 -17 7q-2 13 -14 18q-8 5 -23 9q-21 4 -41 4q-19 0 -42 -4q-16 -4 -23 -9q-14 -8 -14 -21v-27q0 -111 80 -163q29 -32 78 -49v-32q0 -12 12 -20
q7 -5 19 -7q0 -11 12 -19q8 -5 20 -7zM262 -63q-58 0 -58 21v58q-77 13 -117.5 62t-40.5 124v27q0 24 69 24q30 0 49 -6.5t19 -17.5v-35q0 -68 76 -68t76 71q0 43 -26.5 78t-98.5 83q-88 60 -123 112.5t-35 117.5q0 149 152 184v46q0 22 58 22q26 0 43.5 -6t17.5 -16v-46
q76 -15 115.5 -66t39.5 -126q0 -5 -10 -10.5t-24 -5.5h-60q-43 0 -43 13v17q0 68 -74 68q-73 0 -73 -66q0 -40 27 -75.5t98 -83.5q89 -61 124 -113t35 -119q0 -78 -39.5 -127t-115.5 -62v-58q0 -21 -61 -21z" />
    <glyph glyph-name="percent" unicode="%" horiz-adv-x="772" 
d="M216 -35q9 -2 25 -2q13 0 31 3q22 4 30 20l138 308v-179q0 -83 59 -116q37 -46 118 -46q69 0 111.5 33.5t42.5 102.5v196q0 80 -59 114q-41 48 -126 48q-51 0 -86 -19l142 314q2 6 2 9q0 10 -10 15q-5 2 -15 4q-1 0 -3 0.5t-4 0.5q1 2 1 5q0 8 -10 16q-2 1 -14 4
q-9 1 -23 1q-20 0 -32 -2q-26 -5 -33 -19l-134 -299v170q0 81 -59 115q-38 47 -122 47q-69 0 -109.5 -33.5t-40.5 -102.5v-198q0 -81 58 -115q40 -47 123 -47q47 0 84 17l-139 -310q-2 -4 -2 -7q0 -10 10 -16q8 -5 15 -6q1 0 3 -0.5t3 -0.5v-3q0 -10 10 -16q5 -4 15 -6z
M186 349q-68 0 -104 32.5t-36 93.5v198q0 61 36 93.5t104 32.5t104 -32.5t36 -93.5v-198q0 -61 -36 -93.5t-104 -32.5zM210 -1q-21 0 -31.5 4.5t-7.5 12.5l339 756q5 15 56 15q21 0 30.5 -3.5t5.5 -11.5l-340 -756q-5 -17 -52 -17zM186 421q46 0 46 50v207q0 50 -46 50
q-49 0 -49 -50v-207q0 -50 49 -50zM221 692q1 -4 1 -14v-207q0 -22 -8 -31t-28 -9h-7q-1 4 -1 14v207q0 40 39 40h4zM586 -11q-66 0 -101 32.5t-35 93.5v196q0 61 35 93.5t101 32.5q69 0 106.5 -32.5t37.5 -93.5v-196q0 -61 -37.5 -93.5t-106.5 -32.5zM586 60q49 0 49 49
v208q0 49 -49 49q-45 0 -45 -49v-208q0 -49 45 -49zM624 330q1 -4 1 -13v-208q0 -39 -39 -39h-3q-1 4 -1 13v208q0 21 8 30t27 9h7z" />
    <glyph glyph-name="ampersand" unicode="&#x26;" horiz-adv-x="547" 
d="M353 1q5 -3 11 -4v-1l-1 -3l3 -4q11 -16 43 -22q21 -4 45 -4q18 0 39 4q16 5 22 8q13 9 13 21q0 3 -1 5q-6 22 -6 68v250h2q3 1 8 1t7 1q24 5 24 25v79q0 12 -11 19v4l-10 1q-3 1 -10 1v1q0 13 -10 18v35q0 14 -14 22q-5 3 -17 7q-1 12 -14 18q-7 5 -23 9q-23 4 -42 4
q-20 0 -43 -4q-18 -4 -25 -8q-15 -9 -15 -22v-52h-46q-22 0 -40 5q-7 15 -7 41q0 8 -0.5 23.5t-0.5 22.5q2 27 6 37q10 33 58 33h83q25 0 49 5q18 4 28 10q16 8 16 23v54q0 15 -16 25q-4 3 -16 7q-2 9 -14 19q-15 7 -28 10q-19 4 -50 4h-83q-106 0 -165.5 -49.5
t-59.5 -153.5q0 -128 72 -172q3 -4 7 -7q-85 -45 -85 -163v-82q0 -124 73 -168q43 -49 126 -49q71 0 118 48zM204 -11q-158 0 -158 181v82q0 127 103 164q-97 35 -97 164v14q0 193 215 193h83q83 0 83 -29v-54q0 -13 -23 -20.5t-60 -7.5h-83q-73 0 -73 -77v-49q0 -46 22 -64
t66 -18h56v62q0 11 20.5 17.5t52.5 6.5q69 0 69 -24v-62h10q2 0 10 -1.5t10 -1.5v-3q11 0 11 -11v-79q0 -9 -11 -14q-5 -3 -20 -3h-10v-260q0 -49 7 -71q2 -11 -14.5 -18t-49.5 -7q-64 0 -80 22v9l-5 32q-48 -73 -134 -73zM259 101q69 0 79 70v184h-56q-48 0 -70.5 -23.5
t-22.5 -78.5v-79q0 -73 70 -73zM328 319v-148v-2q-1 -2 -1 -5q-1 -6 -3 -9q-15 -44 -65 -44q-13 0 -24 3q-5 11 -5 34v79q0 49 18.5 70.5t64.5 21.5h15z" />
    <glyph glyph-name="quotesingle" unicode="'" horiz-adv-x="247" 
d="M130 500q15 -3 26 -3q10 0 24 3q8 2 14 6q10 4 11 14l30 216q1 13 -13 22q-9 6 -18 7q0 13 -13 19q-9 5 -24 9q-23 4 -42 4q-20 0 -44 -4q-18 -4 -25 -8q-16 -9 -14 -23l31 -216q1 -10 11 -15q5 -3 15 -5q2 -1 4 -1l1 -5q1 -9 11 -15q10 -4 15 -5zM125 533q-39 0 -42 14
l-31 216q0 24 73 24q69 0 69 -24l-30 -216q0 -14 -39 -14z" />
    <glyph glyph-name="parenleft" unicode="(" horiz-adv-x="361" 
d="M326 828q0 13 -20 22q-13 5 -24 5q-54 0 -91 -7t-69 -25.5t-47.5 -55.5t-15.5 -94v-558q0 -112 68 -154q48 -55 174 -55q15 0 30 4q7 1 16 7q10 8 10 18v69q0 16 -22 22q-3 1 -9 1v3q0 16 -21 22q-4 1 -13 1h-10q-9 0 -21 2q-4 12 -4 34v558q0 35 11.5 48.5t44.5 13.5h10
h13q21 5 21 23v69q0 14 -20 23q-5 2 -11 4zM270 -58q-107 0 -154 39.5t-47 133.5v558q0 94 46.5 133t154.5 39h12q4 0 22 -5q12 -4 12 -13v-69q0 -12 -8 -12q-7 -1 -16 -1h-10q-36 0 -51 -15.5t-15 -56.5v-558q0 -41 15 -56.5t51 -15.5h10q9 0 16 -3q8 0 8 -10v-69
q0 -9 -12 -13q-14 -6 -22 -6h-12z" />
    <glyph glyph-name="parenright" unicode=")" horiz-adv-x="361" 
d="M85 -88q12 -6 25 -6q55 0 92 7t68.5 26t47 56t15.5 94v558q0 114 -68 154q-47 54 -174 54q-18 0 -29 -3q-26 -5 -26 -25v-69q0 -18 23 -23h8v-3q0 -20 22 -22q5 -1 14 -1h11q15 0 21 -2q4 -11 4 -34v-558q0 -35 -12 -48.5t-44 -13.5h-10q-10 0 -14 -1q-23 -3 -23 -22v-69
q0 -16 19 -23q2 -2 12 -4q1 -15 18 -22zM79 -58q-8 0 -22 6q-11 4 -11 13v69q0 10 8 10q7 3 19 3h10q35 0 50.5 16t15.5 56v558q0 40 -15.5 56t-50.5 16h-10q-12 0 -19 1q-8 5 -8 12v69q0 9 11 13q18 5 22 5h12q109 0 155 -39t46 -133v-558q0 -94 -46.5 -133.5t-154.5 -39.5
h-12z" />
    <glyph glyph-name="asterisk" unicode="*" horiz-adv-x="322" 
d="M268 562q-2 2 -4.5 5t-5 5t-4.5 4q4 1 11 1.5t11 0.5q12 0 28 4q6 1 11 5q8 4 8 13v17q0 9 -8 13q-1 1 -11 6q-2 0 -6 1t-6 1v5q0 8 -7 13q-4 3 -12 5q2 3 5.5 8t4.5 7q8 14 8 22t-10 18t-17 10q-3 0 -4 -1q-1 8 -10.5 17t-16.5 9q-9 0 -21 -8q-1 -1 -7 -5v2q-1 4 -5 12
q-5 7 -13 7h-11q0 1 -1 3t-1 3q-2 9 -5 12q-4 8 -13 8h-15q-9 0 -13 -8q-3 -3 -5 -12q-3 -8 -5 -29q0 -4 -0.5 -10.5t-0.5 -9.5q-1 1 -2 1l-3 3q-4 3 -7 7q-4 3 -10.5 8.5t-9.5 7.5q-12 8 -21 8q-8 0 -17.5 -9.5t-9.5 -17.5q0 -10 7 -22q10 -14 16 -21q4 -5 13 -14
q-3 0 -10 -0.5t-11 -0.5q-20 -2 -28 -5q-8 -2 -12 -5q-7 -5 -7 -13v-17q0 -8 7 -13q4 -3 12 -5l12 -3v-5q0 -8 7 -13q4 -3 11 -5h1q-8 -10 -11 -15q-7 -12 -7 -22q0 -7 9.5 -17t17.5 -10h3q2 -8 11 -17t16 -9q9 0 21 8q1 1 3.5 2.5t3.5 2.5l1 -1q2 -9 5 -12q4 -8 13 -8h11
q0 -1 0.5 -3t0.5 -3q1 -4 5 -12q8 -8 14 -8h15q8 0 13 8q4 8 5 12q4 16 4 29q1 7 1 20l2 -1q2 -2 4 -2q1 -1 2 -2.5t2.5 -2.5t2.5 -2q9 -9 20 -17q12 -8 21 -8q7 0 17 10t10 17q0 10 -8 22q-6 11 -15 21zM200 612l14 -14q46 -46 35 -57l-12 -12q-10 -10 -54 37l-13 14v-21
q0 -65 -14 -65h-15q-14 0 -14 65v21l-13 -14q-44 -47 -54 -37l-12 12q-11 11 35 57l14 14h-20q-62 0 -62 14v17q0 14 62 14h20l-14 14q-46 46 -35 57l12 12q10 10 54 -37l13 -14v21q0 65 14 65h15q14 0 14 -65v-21l13 14q44 47 54 37l12 -12q11 -11 -35 -57l-14 -14h20
q62 0 62 -14v-17q0 -14 -62 -14h-20z" />
    <glyph glyph-name="plus" unicode="+" 
d="M263 163q12 -2 30 -2t30 2q11 2 18 6q13 7 13 17v127h79q27 0 52 6q19 4 29 10q17 9 17 25v27q0 16 -16 26q-6 4 -16 7q-3 10 -15 19q-10 6 -29 10q-21 4 -53 4h-48v98q0 10 -11 19q-9 6 -18 7q-1 0 -1 0.5t-1 0.5q0 9 -11 18q-4 2 -18 7q-16 4 -32 4q-15 0 -31 -4
q-10 -2 -18 -8q-10 -6 -10 -18v-124h-78q-32 0 -53 -4q-19 -4 -29 -10q-16 -11 -16 -26v-27q0 -15 16 -25q5 -3 15 -7q4 -12 16 -19q10 -6 29 -10q25 -6 53 -6h47v-101q0 -13 12 -17q7 -4 17 -6h2v-3q0 -10 11 -17q9 -5 18 -6zM262 197q-49 0 -49 15v137h-88q-41 0 -64.5 9
t-23.5 22v27q0 30 88 30h88v134q0 8 13.5 14t35.5 6t36.5 -6t14.5 -14v-134h89q88 0 88 -30v-27q0 -13 -24 -22t-64 -9h-89v-137q0 -15 -51 -15z" />
    <glyph glyph-name="comma" unicode="," horiz-adv-x="247" 
d="M99 -170q8 -1 20 -1q5 0 23 2q10 2 14 4q9 4 12 11l58 120q6 13 6 38v65q0 12 -13 21q-6 4 -18 8q-1 10 -13 18q-10 6 -23 9q-20 4 -40 4t-43 -4q-15 -4 -24 -9q-14 -8 -14 -21v-76q0 -17 14 -22v-5h10h7q0 -10 6 -16q-9 -24 -13 -39q-1 -3 -15 -41q-1 -3 -4 -13l-2 -4
v-5q0 -8 9 -14q3 -2 13 -4l10 -1l-1 -2q-1 -3 -1 -5q0 -9 10 -14q4 -2 12 -4zM88 -135q-16 0 -24.5 2.5t-6.5 8.5l43 123h-12q-2 0 -10 1.5t-10 1.5v3q-14 0 -14 14v76q0 11 20 17.5t51 6.5q29 0 47.5 -6.5t18.5 -17.5v-65q0 -19 -5 -34l-58 -120q-4 -11 -40 -11z" />
    <glyph glyph-name="hyphen" unicode="-" horiz-adv-x="356" 
d="M101 305q25 -6 55 -6h107q29 0 55 6q22 7 30 12q16 12 16 26v49q0 17 -17 26q-5 4 -15 7q-2 11 -15 19q-14 8 -30 11q-26 6 -55 6h-107q-29 0 -55 -6q-16 -3 -30 -11q-16 -10 -16 -26v-49q0 -16 16 -27q6 -4 16 -7q3 -11 15 -18q8 -6 30 -12zM125 335q-42 0 -66.5 9.5
t-24.5 24.5v49q0 14 25 23.5t66 9.5h107q40 0 65.5 -9.5t25.5 -23.5v-49q0 -15 -25.5 -24.5t-65.5 -9.5h-107z" />
    <glyph glyph-name="period" unicode="." horiz-adv-x="247" 
d="M113 -31q21 -5 43 -5q20 0 40 5q16 4 22 8q14 8 14 21v72q0 13 -14 21q-10 6 -17 7q-1 11 -13 19q-7 4 -23 8q-20 5 -40 5q-25 0 -42 -4q-15 -3 -25 -9q-14 -9 -14 -21v-72q0 -12 14 -21q5 -3 17 -7q1 -10 14 -19q6 -4 24 -8zM125 0q-31 0 -51 7t-20 17v72q0 10 20 17
t51 7q29 0 47.5 -7t18.5 -17v-72q0 -10 -18.5 -17t-47.5 -7z" />
    <glyph glyph-name="slash" unicode="/" horiz-adv-x="511" 
d="M72 -34q18 -3 32 -3q21 0 41 4q32 6 40 24l345 745q1 3 1 8q0 10 -11 19q-9 4 -19 6v1q0 12 -12 18q-8 5 -19 7q-13 2 -32 2q-26 0 -42 -3q-32 -7 -40 -24l-343 -745q-2 -4 -2 -9q0 -12 12 -18q7 -4 18 -6v-2q0 -11 12 -18q8 -4 19 -6zM73 -1q-56 0 -52 19q0 1 1 3
l343 745q11 21 73 21q28 0 42 -5.5t10 -15.5l-345 -745q-8 -22 -72 -22z" />
    <glyph glyph-name="zero" unicode="0" 
d="M441 746q-60 63 -179 63q-104 0 -167 -52t-63 -155v-417q0 -113 80 -167q62 -65 181 -65q104 0 166 51.5t62 154.5v417q0 117 -80 170zM262 -11q-105 0 -162.5 51t-57.5 145v417q0 94 57.5 145.5t162.5 51.5q106 0 162 -51t56 -146v-417q0 -94 -56 -145t-162 -51z
M262 119q76 0 76 71v406q0 73 -76 73q-73 0 -73 -73v-406q0 -71 73 -71zM322 629q6 -13 6 -33v-406q0 -61 -66 -61q-15 0 -27 3q-5 11 -5 32v406q0 33 15 48t48 15q17 0 29 -4z" />
    <glyph glyph-name="one" unicode="1" 
d="M315 -32q21 -5 44 -5q21 0 44 5q18 4 25 8q15 11 15 22v748q0 11 -12 18q-5 3 -18 5h-1v3q0 13 -12 17q-7 4 -17 6q-12 2 -30 2q-21 0 -33 -2q-25 -5 -33 -18q-18 -34 -40.5 -51t-59.5 -25q-3 -1 -10.5 -2.5t-12.5 -3.5q-16 -3 -29 -9q-39 -17 -39 -44v-38q0 -23 32 -34
q4 -18 36 -27q20 -6 46 -6h35v-513q0 -13 14 -22q14 -5 17 -6q1 -13 14 -19q10 -6 25 -9zM328 -1q-31 0 -52 7t-21 18v549h-76q-33 0 -53 8.5t-20 22.5v38q0 32 83 49q76 18 107 81q7 15 57 15q49 0 49 -15v-748q0 -11 -20.5 -18t-53.5 -7z" />
    <glyph glyph-name="two" unicode="2" 
d="M119 -31q26 -6 56 -6h233q29 0 55 6q17 3 30 12q16 10 16 26v45q0 15 -16 27q-3 2 -16 7q-4 9 -15 19q-13 8 -30 11q-25 6 -55 6h-141q5 36 32 74q13 17 34 38q13 13 39 37q40 36 66.5 64t55.5 67.5t43.5 83t14.5 90.5q0 118 -80 171q-58 62 -174 62q-105 0 -165 -51.5
t-60 -155.5v-52q0 -13 13 -22q4 -3 18 -8q1 -11 12 -18t23 -8q16 -4 41 -4q26 0 42 3q15 3 25 9q14 8 14 22q0 8 -0.5 24t-0.5 23q0 27 5 42q10 38 59 38q15 0 26 -3q9 -17 9 -52q0 -66 -44 -125q-13 -18 -45 -52q-25 -25 -52 -49q-76 -70 -110.5 -132t-34.5 -154v-51
q0 -15 16 -27q6 -4 16 -7q3 -11 15 -18q8 -6 30 -12zM144 -1q-42 0 -67 9.5t-25 24.5v51q0 84 31 144.5t111 134.5q83 74 113.5 125t30.5 108q0 50 -19.5 70.5t-56.5 20.5q-73 0 -73 -78v-59q0 -24 -71 -24q-66 0 -66 24v52q0 95 54.5 146t160.5 51q104 0 158.5 -51
t54.5 -146q0 -73 -39.5 -142t-136.5 -156q-65 -59 -87.5 -95.5t-22.5 -79.5v-17h183q42 0 66.5 -9.5t24.5 -24.5v-45q0 -15 -24.5 -24.5t-66.5 -9.5h-233z" />
    <glyph glyph-name="three" unicode="3" 
d="M189 227q-1 12 -13 18q-6 5 -23 9q-19 5 -40 5q-20 0 -43 -4q-15 -4 -24 -9q-14 -8 -14 -22v-39q0 -118 79 -169q57 -63 179 -63q105 0 165.5 50t60.5 154q0 51 -1 75q-2 39 -10 68q-16 51 -60 80q-9 9 -14 13q82 42 82 158v28q0 117 -79 168q-56 62 -175 62
q-103 0 -163 -51t-60 -153v-23q0 -11 13 -20q7 -4 18 -6q0 -11 13 -20q11 -5 22 -7q20 -4 39 -4q22 0 43 5q14 2 25 8q15 9 15 21v27q0 65 62 65q12 0 22 -3q8 -18 8 -40v-17.5v-20v-16.5q0 -24 -6 -41q-12 -35 -70 -35q-23 0 -35 -4q-29 -7 -29 -29v-70q0 -8 6 -18
q10 -10 18 -9q4 -2 7 -2q2 -8 6 -14q8 -11 18 -10q7 -3 17 -3h18q23 0 41 -5q11 -21 11 -61v-62q0 -42 -13 -61t-50 -19q-16 0 -28 3q0 2 -1 3q-4 10 -6 36q-1 0 0 23v22q0 11 -13 22q-12 6 -18 7zM259 -11q-217 0 -217 196v39q0 11 19.5 18t51.5 7q29 0 47.5 -7t18.5 -18
v-47q0 -76 76 -76q37 0 55 19.5t18 70.5v62q0 56 -21.5 79t-71.5 23h-14q-15 0 -20 3h-3q-12 5 -12 17v70q0 13 15 17q10 6 24 6h15q42 0 64 18.5t22 63.5v58q0 79 -71 79q-33 0 -52.5 -18.5t-19.5 -56.5v-27q0 -10 -20.5 -17t-52.5 -7q-64 0 -64 21v23q0 94 55 144t158 50
q105 0 159 -49.5t54 -144.5v-28q0 -130 -104 -161q107 -37 107 -163v-70q0 -95 -54.5 -144.5t-161.5 -49.5z" />
    <glyph glyph-name="four" unicode="4" 
d="M355 -32q21 -5 44 -5q21 0 42 5q18 4 24 9q14 8 14 21v108h29q18 2 25 5q17 5 17 19v110q0 6 -7 13q-5 4 -11 5q-8 2 -13 2v6q0 8 -7 13q-5 3 -10 5l-23 3v447q0 14 -16 24q-5 4 -15 6q-3 13 -15 20q-11 5 -27 9q-19 4 -48 4q-27 0 -51 -5q-40 -9 -49 -28l-240 -490
q-9 -16 -9 -36v-64q0 -15 17 -26l14 -6q4 -12 16 -19q14 -8 30 -11q26 -6 55 -6h145v-82q0 -14 14 -22q5 -3 17 -7q1 -12 14 -19q11 -6 24 -8zM368 -1q-33 0 -52.5 7t-19.5 18v118h-186q-41 0 -66 9t-25 23v64q0 19 8 32l240 490q16 27 91 27q80 0 80 -27v-484h37
q34 0 34 -10v-110q0 -14 -34 -14h-37v-118q0 -11 -19 -18t-51 -7zM292 564l-143 -288h147v288h-4zM286 442v-156h-77z" />
    <glyph glyph-name="five" unicode="5" 
d="M196 227q-1 11 -13 19q-11 6 -24 8q-20 5 -41 5q-19 0 -42 -4q-15 -4 -23 -9q-14 -10 -14 -22v-39q0 -116 80 -169q59 -63 177 -63q104 0 164.5 51.5t60.5 154.5v178q0 124 -74 168q-43 49 -124 49q-9 0 -27.5 0.5t-27.5 0.5q-20 0 -30 -2l6 87h152q28 0 54 6q15 3 30 11
q17 11 17 25v47q0 15 -17 26q-6 3 -15 6q-3 11 -16 19t-30 11q-25 6 -54 6h-201q-27 0 -53 -5q-20 -4 -30 -10q-17 -7 -18 -23l-21 -386q-1 -14 13 -22q6 -4 18 -8q1 -11 12 -18q10 -6 23 -9q21 -4 41 -4q5 0 17 0.5t17 0.5q23 1 35 18l9 15l6 15q15 34 60 34q14 0 26 -3
q6 -15 6 -37v-178q0 -35 -14.5 -50.5t-48.5 -15.5q-17 0 -29 3q-6 15 -6 37v47q0 14 -14 22q-5 3 -17 7zM265 -11q-105 0 -160.5 51t-55.5 145v39q0 11 19 18t50 7q30 0 49 -7t19 -18v-47q0 -76 76 -76q36 0 54.5 17t18.5 59v178q0 76 -73 76q-60 0 -73 -51q-11 -31 -37 -31
l-34 -1q-66 0 -66 24l21 386q5 29 91 29h201q40 0 65.5 -9t25.5 -23v-47q0 -14 -25.5 -23t-65.5 -9h-161l-11 -162q8 12 17 18.5t23.5 9t23.5 3t32.5 0t33.5 -0.5q77 0 117 -46t40 -135v-178q0 -95 -54.5 -145.5t-160.5 -50.5z" />
    <glyph glyph-name="six" unicode="6" 
d="M442 747q-58 62 -175 62q-110 0 -170.5 -53t-60.5 -162v-409q0 -113 80 -167q61 -65 182 -65q104 0 167 51.5t63 154.5v143q0 121 -75 167q-44 50 -127 50h-22q-23 0 -33 -1q-11 0 -33 -4q-4 -2 -6 -2v53q0 44 15 65t54 21q17 0 26 -4q9 -17 9 -42q0 -15 19 -25
q1 0 3.5 -1t4.5 -1.5t4 -0.5q1 -14 19 -23q13 -5 25 -5h70q13 0 28 8.5t15 24.5q0 33 -12 71q-21 61 -70 94zM267 -11q-106 0 -163.5 51t-57.5 145v409q0 205 221 205q103 0 157.5 -49.5t58.5 -141.5q0 -10 -11 -17q-14 -6 -22 -6h-70q-15 0 -24.5 6.5t-9.5 13.5
q0 82 -76 82q-40 0 -59.5 -21.5t-19.5 -74.5v-123q13 20 33 29t37 10.5t53 1.5h12q79 0 120 -47t41 -134v-143q0 -94 -57.5 -145t-162.5 -51zM267 101q74 0 74 76v140q0 76 -74 76q-76 0 -76 -76v-140q0 -76 76 -76zM324 354q7 -14 7 -37v-140q0 -66 -64 -66q-18 0 -29 4
q-6 13 -6 36v140q0 35 16 50.5t50 15.5q16 0 26 -3z" />
    <glyph glyph-name="seven" unicode="7" 
d="M170 -33q20 -4 40 -4q18 0 47 6q20 4 27 8q15 8 18 18l213 643q4 13 4 27v64q0 15 -17 26q-6 3 -15 6q-3 11 -16 19t-30 11q-25 6 -54 6h-250q-29 0 -54 -6q-17 -3 -30 -11q-17 -9 -17 -25v-47q0 -16 17 -25q4 -3 14 -7q4 -12 16 -19q14 -8 30 -11q26 -6 55 -6h144
q-3 -8 -41 -120t-62 -183q-62 -181 -73 -215l-24 -70q-4 -11 -6 -20q-2 -4 -2 -5l-1 -5q0 -12 13 -21q5 -3 17 -7q1 -10 14 -19q5 -4 23 -8zM179 -1q-33 0 -50.5 7t-15.5 18l222 652h-198q-40 0 -65.5 9t-25.5 23v47q0 14 25.5 23t65.5 9h250q40 0 65.5 -9t25.5 -23v-64
q0 -15 -3 -24l-213 -643q-5 -11 -28.5 -18t-54.5 -7z" />
    <glyph glyph-name="eight" unicode="8" 
d="M108 416q-81 -48 -81 -163v-70q0 -113 79 -165q59 -65 187 -65q106 0 172 50t66 154q0 48 -1 71q-2 41 -8 67q-17 59 -65 90l-7 7q74 47 74 153v34q0 112 -80 166q-60 64 -182 64q-104 0 -167 -50.5t-63 -153.5v-34q0 -106 74 -153zM262 -11q-110 0 -167.5 49.5
t-57.5 144.5v70q0 121 93 163q-88 42 -88 155v34q0 94 57 144t163 50t163.5 -50t57.5 -144v-34q0 -114 -88 -155q95 -42 95 -163v-70q0 -94 -59.5 -144t-168.5 -50zM262 468q76 0 76 79v61q0 79 -76 79t-76 -79v-61q0 -79 76 -79zM320 647q8 -16 8 -39v-61q0 -69 -66 -69
q-18 0 -27 4q-8 13 -8 39v61q0 69 66 69q16 0 27 -4zM262 101q81 0 81 90v74q0 90 -81 90q-79 0 -79 -90v-74q0 -90 79 -90zM323 315q10 -19 10 -50v-74q0 -80 -71 -80q-17 0 -28 4q-10 19 -10 50v74q0 80 69 80q18 0 30 -4z" />
    <glyph glyph-name="nine" unicode="9" 
d="M520 577q0 114 -80 168q-61 64 -182 64q-104 0 -167 -51.5t-63 -154.5v-143q0 -121 75 -167q44 -50 127 -50h22q22 0 33 1q22 2 32 5q3 0 7 2v-54q0 -44 -15 -65t-54 -21q-16 0 -27 4q-8 15 -8 42q0 18 -20 25q-3 2 -11 4q-2 15 -19 22q-11 5 -25 5h-70q-14 0 -28.5 -8
t-14.5 -25q0 -33 12 -71q20 -61 70 -93q59 -63 175 -63q110 0 170.5 53t60.5 162v409zM258 799q106 0 163.5 -51t57.5 -145v-409q0 -205 -221 -205q-103 0 -157.5 49.5t-58.5 141.5q0 12 11 17q14 6 22 6h70q15 0 24.5 -6.5t9.5 -13.5q0 -82 76 -82q40 0 59.5 21.5
t19.5 74.5v123q-13 -20 -33 -29t-37 -10.5t-53 -1.5h-6.5h-5.5q-79 0 -120 47t-41 134v143q0 94 57.5 145t162.5 51zM258 687q-74 0 -74 -76v-140q0 -76 74 -76q76 0 76 76v140q0 76 -76 76zM225 585q0 66 64 66q16 0 28 -3q7 -14 7 -37v-140q0 -35 -16 -50.5t-50 -15.5
q-15 0 -27 3q-6 15 -6 37v140z" />
    <glyph glyph-name="colon" unicode=":" horiz-adv-x="247" 
d="M113 398q16 -4 43 -4q25 0 40 4q12 1 23 8q13 9 13 22v69q0 15 -13 22q-9 6 -18 7q-1 11 -13 19q-9 6 -22 8q-16 4 -41 4q-26 0 -43 -4q-13 -2 -24 -8q-14 -8 -14 -22v-69q0 -14 14 -22q10 -6 17 -7q1 -11 13 -19q11 -6 25 -8zM125 430q-71 0 -71 24v69q0 24 71 24
q66 0 66 -24v-69q0 -24 -66 -24zM113 -32q21 -5 43 -5q20 0 40 5q13 3 23 9q13 9 13 21v71q0 12 -13 21q-6 4 -18 8q-1 10 -13 18q-10 6 -23 9q-20 4 -40 4t-43 -4q-15 -4 -24 -9q-14 -8 -14 -21v-71q0 -14 14 -22q5 -3 17 -7q1 -13 14 -18q7 -5 24 -9zM125 -1q-31 0 -51 7
t-20 18v71q0 11 20 17.5t51 6.5q29 0 47.5 -6.5t18.5 -17.5v-71q0 -11 -18.5 -18t-47.5 -7z" />
    <glyph glyph-name="semicolon" unicode=";" horiz-adv-x="247" 
d="M113 398q16 -4 43 -4q25 0 40 4q12 1 23 8q13 9 13 22v69q0 15 -13 22q-9 6 -18 7q-1 11 -13 19q-9 6 -22 8q-16 4 -41 4q-26 0 -43 -4q-13 -2 -24 -8q-14 -8 -14 -22v-69q0 -14 14 -22q10 -6 17 -7q1 -11 13 -19q11 -6 25 -8zM125 430q-71 0 -71 24v69q0 24 71 24
q66 0 66 -24v-69q0 -24 -66 -24zM90 -169q8 -2 20 -2q15 0 23 2q17 2 24 14l65 117q10 19 10 42v65q0 12 -13 21q-6 4 -18 8q-1 10 -13 18q-10 6 -23 9q-20 4 -40 4t-43 -4q-15 -4 -24 -9q-14 -8 -14 -21v-76q0 -17 14 -22v-5h10h7q0 -8 5 -15l-40 -97q-5 -10 6 -19
q8 -4 13 -4q8 -2 12 -2l-1 -1q-4 -11 6 -18q4 -3 14 -5zM79 -135q-30 0 -30 11l51 123h-12q-2 0 -10 1.5t-10 1.5v3q-14 0 -14 14v76q0 11 20 17.5t51 6.5q29 0 47.5 -6.5t18.5 -17.5v-65q0 -21 -8 -37l-65 -117q-4 -11 -39 -11z" />
    <glyph glyph-name="less" unicode="&#x3c;" 
d="M450 188q44 0 44 35v18q0 12 -2 18q-5 20 -29 29l-2 1q-6 17 -29 24l-175 62l206 74q12 5 18 10q13 10 13 21v23q0 15 -2 21q-6 20 -30 23v1l-1 2q-7 24 -42 24q-29 0 -58 -12l-286 -108q-10 -3 -18 -9q-6 -4 -9 -7q-6 -6 -6 -14v-61q0 -7 6 -13t10 -8q12 -7 15 -8
q1 -5 6 -10l9 -8q14 -8 18 -9l286 -107q34 -12 58 -12zM453 249q0 -21 -23.5 -25t-64.5 11l-286 107q-27 11 -27 21v61q0 12 27 21l286 108q88 29 88 -14v-33q0 -5 -7 -11.5t-17 -10.5l-253 -91l253 -89q24 -11 24 -23v-32z" />
    <glyph glyph-name="equal" unicode="=" 
d="M116 410q26 -6 55 -6h247q28 0 54 6q17 3 30 11q17 11 17 25v26q0 14 -17 25l-14 6q-3 12 -17 20q-12 5 -30 9q-27 5 -54 5h-247q-32 0 -54 -4q-14 -3 -30 -10q-17 -11 -17 -25v-26q0 -16 17 -25q4 -3 14 -7q4 -12 16 -19q14 -8 30 -11zM140 440q-41 0 -66 9t-25 23v26
q0 29 91 29h247q91 0 91 -29v-26q0 -14 -25.5 -23t-65.5 -9h-247zM116 228q28 -5 55 -5h247q28 0 54 5q20 4 30 11q17 9 17 25v24q0 15 -16 27q-3 2 -16 7q-4 11 -15 18q-14 9 -30 12q-25 6 -55 6h-247q-30 0 -55 -6q-18 -3 -30 -12q-16 -9 -16 -26v-24q0 -16 16 -26l5 -2.5
t5.5 -2.5t4.5 -1q4 -12 16 -19q11 -7 30 -11zM140 259q-91 0 -91 31v24q0 15 25 24.5t66 9.5h247q40 0 65.5 -9.5t25.5 -24.5v-24q0 -31 -91 -31h-247z" />
    <glyph glyph-name="greater" unicode="&#x3e;" 
d="M96 212q8 -24 41 -24q22 0 56 12l289 107q4 1 18 9q1 1 4.5 3.5t4.5 4.5q7 7 7 13v61q0 8 -6 14q-4 4 -10 8l-15 8q0 2 -6 10q-3 3 -9 7q-8 6 -18 9l-289 108q-29 12 -57 12q-43 0 -43 -35q0 -14 -1 -20q0 -7 2 -17q6 -18 31 -27v-1q5 -16 30 -25l172 -63l-202 -73
q-4 -1 -18 -10l-2.5 -2.5t-2.5 -2t-2 -2t-2 -2.5q-5 -8 -5 -13v-22q0 -15 2 -22q6 -20 30 -23q0 -2 1 -2zM159 235q-40 -15 -63 -11t-23 25v32q0 11 25 23l248 89l-248 91q-11 4 -18 10.5t-7 11.5v33q0 43 86 14l289 -108q27 -9 27 -21v-61q0 -10 -27 -21z" />
    <glyph glyph-name="question" unicode="?" horiz-adv-x="478" 
d="M208 175q23 -3 39 -3q23 0 39 3q18 5 22 8q14 6 14 20v23q0 36 24 73q12 18 27 36q4 5 14.5 18t16.5 20q40 49 63.5 96t23.5 107q0 118 -80 171q-58 62 -174 62q-104 0 -163.5 -52t-59.5 -155v-55q0 -14 14 -22l17 -6q2 -14 14 -19q9 -5 24 -9q23 -4 43 -4t40 5
q12 1 23 8q13 9 13 21q0 8 -0.5 24.5t-0.5 24.5q0 27 5 42q10 39 60 39q14 0 25 -3q7 -14 7 -39q0 -35 -12.5 -68.5t-25.5 -53.5t-38 -52q-20 -26 -29 -39q-16 -23 -25 -41q-26 -49 -26 -102v-24q0 -13 13 -20q4 -2 18 -7q0 -10 13 -19q5 -3 22 -8zM220 208h-4q-64 0 -64 21
v24q0 43 15.5 80.5t57.5 87.5q47 58 65 100t18 88q0 78 -73 78q-74 0 -74 -78v-62q0 -11 -18.5 -17.5t-47.5 -6.5q-32 0 -51.5 6.5t-19.5 17.5v55q0 95 54.5 146t158.5 51t158.5 -51t54.5 -146q0 -53 -21 -100.5t-72 -108.5q-76 -82 -76 -141v-23q0 -21 -61 -21zM204 -32
q21 -5 43 -5q21 0 42 5q18 4 24 9q14 8 14 21v71q0 14 -14 22q-5 3 -17 7q-1 10 -14 19q-6 4 -24 8q-23 4 -42 4q-21 0 -42 -4q-15 -3 -25 -9q-14 -8 -14 -21v-71q0 -13 14 -21q10 -6 17 -7q1 -10 14 -19q10 -6 24 -9zM216 -1q-30 0 -50.5 7t-20.5 18v71q0 10 20.5 17
t50.5 7q70 0 70 -24v-71q0 -11 -19 -18t-51 -7z" />
    <glyph glyph-name="at" unicode="@" horiz-adv-x="913" 
d="M740 59q-3 26 -30 26q-25 0 -62 -16q-3 -1 -7 -2t-5.5 -2t-2.5 -1l-5 -2h1q-11 -3 -14 -5q-65 -20 -152 -20q-121 0 -196 51q-71 73 -71 206q0 182 86 295.5t259 113.5q104 0 165 -42q56 -58 56 -161q0 -76 -18 -144q-22 -76 -58 -91l1 1l32 292q1 12 -12 21q-7 4 -19 7
q0 11 -12 19q-5 2 -21 7q-14 3 -35 3q-18 0 -38 -4q-14 -2 -22 -7q-14 -7 -16 -17q0 -2 -1 -6t-1 -6q-2 0 -4 2q-35 42 -100 42q-79 0 -117 -47t-50 -128q-2 -17 -7.5 -54.5t-8.5 -57.5q-3 -36 -3 -39q0 -95 63 -130q35 -43 103 -43q72 0 112 46q10 -8 16 -10
q29 -42 112 -42q53 0 105 26q86 45 123 136.5t37 200.5q0 187 -120 274q-94 93 -286 93q-232 0 -362.5 -143t-130.5 -376q0 -221 140 -324q110 -106 320 -106q148 0 251 53q14 8 21 16q9 9 13 32q2 11 2 32q0 31 -31 31zM453 -69q-212 0 -315.5 105.5t-103.5 288.5
q0 107 30 198t88.5 161t152 110t212.5 40q100 0 173 -25.5t114 -72.5t59.5 -104.5t18.5 -128.5q0 -96 -25 -168.5t-64.5 -110.5t-81.5 -56t-84 -18q-107 0 -117 74q-39 -68 -123 -68q-59 0 -92 35.5t-33 101.5l3 38l16 112q22 166 157 166q81 0 110 -68l6 44q2 8 21 14t45 6
q27 0 43.5 -6t14.5 -14l-32 -292l-4 -20q0 -21 27 -21q50 0 76.5 76.5t26.5 171.5q0 110 -65 174.5t-197 64.5q-170 0 -262.5 -112t-92.5 -307q0 -139 77.5 -216t230.5 -77q111 0 188 33q24 8 38.5 11.5t24.5 2.5t13.5 -7.5t2.5 -18.5l-3 -35q-2 -2 -4.5 -8.5t-4.5 -8.5
q-5 -6 -18 -13q-101 -52 -247 -52zM450 259q64 0 74 72l12 109q3 5 3 11q0 25 -17.5 38.5t-43.5 13.5q-64 0 -74 -72l-12 -96v-18q0 -58 58 -58zM527 465q2 -8 2 -14q0 -1 -1 -2q0 -2 -1 -3l-1 -2v-3l-12 -109q-6 -63 -64 -63q-10 0 -14 1q-3 9 -3 21q0 24 12 113
q8 63 64 63q12 0 18 -2z" />
    <glyph glyph-name="A" unicode="A" 
d="M76 -34q15 -3 38 -3q20 0 43 4q34 7 39 30l19 123h122l15 -98q3 -12 16 -20l15 -6q1 -13 16 -19q10 -6 25 -9q22 -5 45 -5q19 0 40 4q16 4 23 8q14 8 14 21q0 3 -1 4l-140 734q-3 14 -17 23l-14 6q-3 10 -17 20q-11 6 -28 9q-25 5 -52 5q-49 0 -67 -2q-21 -3 -37 -9
q-20 -9 -24 -26l-137 -735v-3q0 -15 12 -22q7 -5 19 -7q1 -11 11 -19q6 -3 22 -8zM83 -1q-31 0 -47 6t-14 19l137 734q3 29 91 29h27q83 0 88 -29l140 -734q3 -11 -16.5 -18t-50.5 -7q-32 0 -53 7t-23 18l-21 132h-165l-21 -132q-4 -25 -72 -25zM255 650l-62 -365h132
l-66 365h-4zM275 504l38 -209h-73z" />
    <glyph glyph-name="B" unicode="B" horiz-adv-x="533" 
d="M176 -37h137q103 0 166.5 47t63.5 149q0 51 -1 75q-2 41 -11 70q-16 52 -60 81q-10 10 -15 14q72 42 72 149v34q0 109 -72 155q-55 60 -186 60h-125q-29 0 -54 -6q-20 -4 -30 -11q-17 -9 -17 -25v-722q0 -16 16 -26q10 -6 16 -8q3 -11 15 -18q8 -6 30 -12q25 -6 55 -6z
M282 -1h-137q-40 0 -65.5 9.5t-25.5 24.5v722q0 14 25.5 23t65.5 9h125q113 0 165 -44t52 -135v-34q0 -120 -95 -153q110 -34 110 -168v-68q0 -90 -56 -138t-164 -48zM198 663v-181h57q86 0 86 68v44q0 36 -17.5 52.5t-56.5 16.5h-69zM326 624q5 -13 5 -30v-44
q0 -58 -76 -58h-16v135h59q16 0 28 -3zM198 343v-223h84q39 0 57 14t18 57v68q0 84 -95 84h-64zM338 300q9 -15 9 -41v-68q0 -36 -14 -48.5t-51 -12.5h-43v177h54q28 0 45 -7z" />
    <glyph glyph-name="C" unicode="C" horiz-adv-x="506" 
d="M434 746q-60 63 -179 63q-102 0 -160.5 -51.5t-58.5 -152.5v-422q0 -117 79 -168q58 -62 171 -62q104 0 165.5 50.5t61.5 153.5v87q0 13 -15 22q-4 2 -16 6q-1 13 -14 19q-11 6 -24 8q-17 4 -42 4q-30 0 -38 -1q-10 0 -24 -4q-15 -8 -15 -19v-92q0 -55 -63 -55
q-16 0 -28 3q-4 11 -4 26v409q0 60 63 60q15 0 25 -3q2 -4 2 -6q5 -14 5 -39v-14.5v-17v-14.5q0 -10 9 -17q5 -3 15 -5q1 0 3 -0.5t4 -0.5v-3q0 -11 9 -16q3 -3 14 -6q5 -1 14 -1h10q43 0 58 2q21 2 33 7q19 11 19 25v58q0 115 -79 167zM255 -11q-102 0 -155.5 50.5
t-53.5 143.5v422q0 93 53.5 143.5t155.5 50.5q107 0 162 -50.5t55 -143.5v-58q0 -24 -70 -24h-16q-28 0 -39.5 2t-11.5 11v60q0 35 -20 52.5t-53 17.5t-53 -17.5t-20 -52.5v-409q0 -65 73 -65t73 65v92q0 14 67 14q70 0 70 -23v-87q0 -93 -55 -143.5t-162 -50.5z" />
    <glyph glyph-name="D" unicode="D" horiz-adv-x="533" 
d="M176 -37h129q105 0 165.5 50t60.5 155v400q0 116 -78 167q-58 62 -179 62h-129q-29 0 -54 -6q-20 -4 -30 -11q-17 -9 -17 -25v-722q0 -16 16 -26q10 -6 16 -8q3 -11 15 -18q8 -6 30 -12q25 -6 55 -6zM274 -1h-129q-40 0 -65.5 9.5t-25.5 24.5v722q0 14 25.5 23t65.5 9
h129q216 0 216 -193v-400q0 -195 -216 -195zM198 657v-526h72q76 0 76 71v383q0 39 -19 55.5t-57 16.5h-72zM331 618q5 -15 5 -33v-383q0 -33 -16 -47t-50 -14h-31v480h62q17 0 30 -3z" />
    <glyph glyph-name="E" unicode="E" horiz-adv-x="478" 
d="M121 -31q25 -6 55 -6h212q29 0 55 6q22 7 30 12q16 12 16 26v76q0 14 -17 25q-5 4 -15 7q-3 11 -16 19q-8 5 -30 11q-26 5 -54 5h-118v154h100q31 0 56 7q45 13 45 42v58q0 26 -34 40q-9 21 -41 29q-28 8 -57 8h-69v124h149q26 0 53 5q22 6 30 10q18 10 18 24v78
q0 15 -17 26q-6 3 -15 6q-3 11 -16 19t-30 11q-25 6 -54 6h-212q-29 0 -54 -6q-17 -3 -30 -11q-17 -9 -17 -25v-722q0 -17 16 -26q10 -6 16 -8q3 -11 15 -18q8 -6 30 -12zM145 -1q-40 0 -65.5 9.5t-25.5 24.5v722q0 14 25.5 23t65.5 9h212q40 0 65.5 -9t25.5 -23v-78
q0 -12 -25.5 -20.5t-65.5 -8.5h-159v-170h110q40 0 65.5 -11.5t25.5 -29.5v-58q0 -18 -25 -28.5t-66 -10.5h-110v-200h159q40 0 65.5 -8.5t25.5 -22.5v-76q0 -15 -25.5 -24.5t-65.5 -9.5h-212z" />
    <glyph glyph-name="F" unicode="F" horiz-adv-x="452" 
d="M457 761q-3 11 -16 19t-30 11q-25 6 -54 6h-212q-29 0 -54 -6q-17 -3 -30 -11q-17 -9 -17 -25v-731q0 -13 15 -22q6 -4 16 -6q1 -11 14 -20q13 -6 25 -8q22 -5 45 -5q21 0 42 5q18 4 24 9q14 8 14 21v306h100q31 0 56 7q45 13 45 42v58q0 26 -34 40q-9 21 -41 29
q-28 8 -57 8h-69v124h149q26 0 53 5q22 6 30 10q18 10 18 24v78q0 15 -17 26q-6 3 -15 6zM357 787q40 0 65.5 -9t25.5 -23v-78q0 -12 -25.5 -20.5t-65.5 -8.5h-159v-170h110q40 0 65.5 -11.5t25.5 -29.5v-58q0 -18 -25 -28.5t-66 -10.5h-110v-316q0 -11 -19 -18t-51 -7
q-33 0 -53.5 7t-20.5 18v731q0 14 25.5 23t65.5 9h212z" />
    <glyph glyph-name="G" unicode="G" horiz-adv-x="514" 
d="M393 487h10q43 0 58 2q21 2 33 7q19 11 19 25v58q0 115 -79 167q-60 63 -179 63q-102 0 -160.5 -51.5t-58.5 -152.5v-422q0 -117 79 -168q58 -62 171 -62q104 0 165.5 50.5t61.5 153.5v258q0 15 -16 27q-9 5 -17 8q-3 10 -14 18q-8 6 -30 12q-25 7 -55 7q-43 0 -70 -4
q-23 -3 -39 -12q-20 -12 -20 -30v-75q0 -12 15 -21q6 -2 16 -4v-1q0 -14 15 -20q9 -4 25 -6h2v-127q0 -55 -63 -55q-16 0 -28 3q-4 11 -4 26v409q0 60 63 60q15 0 25 -3q2 -4 2 -6q5 -14 5 -39v-14.5v-17v-14.5q0 -10 9 -17q5 -3 15 -5q1 0 3 -0.5t4 -0.5v-3q0 -11 9 -16
q3 -3 14 -6q5 -1 14 -1zM402 523h-16q-28 0 -39.5 2t-11.5 11v60q0 35 -20 52.5t-53 17.5t-53 -17.5t-20 -52.5v-409q0 -65 73 -65t73 65v163h-37q-36 0 -36 16v75q0 15 25.5 25.5t66.5 10.5h27q40 0 65.5 -10.5t25.5 -25.5v-258q0 -93 -55 -143.5t-162 -50.5
q-102 0 -155.5 50.5t-53.5 143.5v422q0 93 53.5 143.5t155.5 50.5q107 0 162 -50.5t55 -143.5v-58q0 -24 -70 -24z" />
    <glyph glyph-name="H" unicode="H" horiz-adv-x="551" 
d="M114 -32q22 -5 45 -5q21 0 42 5q18 4 24 9q14 8 14 21v294h104v-268q0 -13 14 -22q14 -5 17 -6q1 -13 14 -19q10 -6 25 -9q21 -5 44 -5q22 0 43 5q15 3 25 9q15 9 15 21v739q0 13 -15 22l-16 6q-1 13 -15 19q-10 6 -25 9q-23 4 -43 4t-43 -4q-15 -3 -25 -9
q-15 -6 -15 -21v-285h-104v259q0 14 -14 22q-5 3 -17 7q-1 10 -14 19q-6 4 -24 8q-23 4 -42 4q-20 0 -44 -4q-18 -4 -25 -8q-15 -9 -15 -22v-739q0 -13 15 -22q6 -4 16 -6q1 -11 14 -20q7 -4 25 -8zM128 -1q-33 0 -53.5 7t-20.5 18v739q0 24 74 24q70 0 70 -24v-295h155v295
q0 10 20.5 17t52.5 7t52.5 -7t20.5 -17v-739q0 -11 -21 -18t-52 -7t-52 7t-21 18v304h-155v-304q0 -11 -19 -18t-51 -7z" />
    <glyph glyph-name="I" unicode="I" horiz-adv-x="252" 
d="M114 -32q22 -5 45 -5q21 0 42 5q18 4 24 9q14 8 14 21v739q0 14 -14 22q-5 3 -17 7q-1 10 -14 19q-6 4 -24 8q-23 4 -42 4q-20 0 -44 -4q-18 -4 -25 -8q-15 -9 -15 -22v-739q0 -13 15 -22q6 -4 16 -6q1 -11 14 -20q7 -4 25 -8zM128 -1q-33 0 -53.5 7t-20.5 18v739
q0 24 74 24q70 0 70 -24v-739q0 -11 -19 -18t-51 -7z" />
    <glyph glyph-name="J" unicode="J" horiz-adv-x="347" 
d="M81 -40q23 -3 38 -3q219 0 219 202v578q0 13 -15 22q-14 6 -16 6q-1 13 -14 19q-12 6 -25 9q-23 4 -43 4t-43 -4q-15 -3 -25 -9q-15 -6 -15 -21v-537q0 -34 -14.5 -47t-41.5 -16q-7 0 -23 -0.5t-22 -1.5q-29 -5 -29 -26v-125q0 -12 15 -18q10 -4 16 -5v-3q0 -13 15 -18
q8 -4 23 -6zM88 -7l-36 3q-12 0 -21 5t-9 9v125q0 10 12 14q5 3 23 3h12q43 0 63 17.5t20 56.5v537q0 10 20.5 17t52.5 7q31 0 51.5 -6.5t20.5 -17.5v-578q0 -192 -209 -192z" />
    <glyph glyph-name="K" unicode="K" horiz-adv-x="545" 
d="M114 -32q22 -5 45 -5q21 0 42 5q18 4 24 9q14 8 14 21v226l31 53l89 -253q5 -16 30 -26q8 -21 45 -30q24 -5 50 -5q20 0 41 4q18 4 24 9q13 7 13 21q0 6 -78 230q-15 43 -35.5 101t-33 94.5t-16.5 48.5q1 2 80 139q11 19 29.5 50.5t21.5 37.5q4 8 16 29l5 9q2 4 2 8
q0 12 -12 19q-12 4 -18 5v2q0 12 -13 18q-9 4 -20 6q-14 3 -34 3q-25 0 -49 -5q-39 -7 -48 -24l-120 -217v186q0 14 -14 22q-5 3 -17 7q-1 10 -14 19q-6 4 -24 8q-23 4 -42 4q-20 0 -44 -4q-18 -4 -25 -8q-15 -9 -15 -22v-739q0 -13 15 -22q6 -4 16 -6q1 -11 14 -20
q7 -4 25 -8zM128 -1q-33 0 -53.5 7t-20.5 18v739q0 24 74 24q70 0 70 -24v-306l170 306q15 24 88 24q59 0 57 -18q-1 -3 -3 -6l-153 -265l164 -471q4 -13 -14.5 -20.5t-53.5 -7.5q-77 0 -85 28l-113 322l-57 -97v-228q0 -11 -19 -18t-51 -7z" />
    <glyph glyph-name="L" unicode="L" horiz-adv-x="452" 
d="M121 -31q25 -6 55 -6h201q30 0 55 6q22 6 30 12q17 9 17 26v67q0 16 -17 27q-3 2 -15 7q-4 9 -15 19q-14 8 -31 11q-25 6 -55 6h-107v593q0 14 -14 22q-5 3 -17 7q-1 10 -14 19q-6 4 -24 8q-23 4 -42 4q-20 0 -44 -4q-18 -4 -25 -8q-15 -9 -15 -22v-730q0 -17 16 -26
q10 -6 16 -8q3 -11 15 -18q8 -6 30 -12zM145 -1q-40 0 -65.5 9.5t-25.5 24.5v730q0 24 74 24q70 0 70 -24v-629h148q42 0 67 -9.5t25 -24.5v-67q0 -15 -25 -24.5t-67 -9.5h-201z" />
    <glyph glyph-name="M" unicode="M" horiz-adv-x="706" 
d="M108 -33q20 -4 38 -4t38 4q14 2 23 7q13 9 13 21l2 316l50 -292q2 -10 14 -18q7 -4 17 -6v-1q1 -10 14 -19q11 -6 22 -7q17 -5 38 -5q19 0 40 4q16 4 22 8q14 6 15 19l52 294l1 -264q0 -15 13 -22q4 -3 18 -8q1 -10 13 -18q6 -5 23 -9q16 -4 42 -4t42 4q18 4 24 9
q13 7 13 22v731q0 15 -17 26q-6 3 -15 6q-3 11 -16 19t-30 11q-25 6 -54 6q-50 0 -68 -2q-28 -4 -39 -9q-21 -10 -25 -26l-65 -306l-61 280q-2 13 -18 23q-8 4 -13 5q-4 12 -18 21q-13 6 -29 9q-25 5 -53 5q-48 0 -69 -3q-26 -4 -39 -11q-22 -10 -22 -28v-734q0 -12 12 -20
q7 -5 19 -8q0 -10 12 -18q10 -6 21 -8zM115 -1q-61 0 -61 22v734q0 14 25.5 23t65.5 9h29q85 0 91 -29l89 -410l87 410q6 29 91 29h31q40 0 65.5 -9t25.5 -23v-731q0 -25 -69 -25q-68 0 -68 25l-3 572l-100 -575q-5 -22 -68 -22q-58 0 -64 22l-99 575l-4 -575q0 -22 -64 -22
z" />
    <glyph glyph-name="N" unicode="N" horiz-adv-x="559" 
d="M110 -33q20 -4 39 -4t39 4q14 2 22 7q14 8 14 21v383l116 -357q4 -11 19 -18q9 -5 11 -5l1 -3q4 -12 19 -18q12 -6 26 -9q24 -5 48 -5t46 5q16 4 25 10q15 9 15 23v739q0 12 -15 21q-4 2 -16 6q0 11 -14 20q-6 2 -24 7q-16 3 -40 3q-23 0 -39 -3q-16 -5 -22 -8
q-13 -6 -13 -20v-280l-84 251q-4 13 -20 21q-8 3 -10 4l-1 1q-4 13 -20 20q-9 5 -30 9q-25 5 -53 5q-30 0 -56 -6q-18 -3 -32 -11q-17 -11 -17 -25v-734q0 -14 13 -21q6 -4 18 -7q0 -11 13 -18q10 -6 22 -8zM118 -1q-64 0 -64 22v734q0 14 27.5 23t67.5 9q84 0 94 -27
l134 -402v408q0 21 64 21q68 0 68 -21v-739q0 -13 -21 -20.5t-55 -7.5q-71 0 -83 25l-167 511v-514q0 -22 -65 -22z" />
    <glyph glyph-name="O" unicode="O" 
d="M441 746q-60 63 -179 63q-104 0 -167 -52t-63 -155v-417q0 -113 80 -167q62 -65 181 -65q104 0 166 51.5t62 154.5v417q0 117 -80 170zM262 -11q-105 0 -162.5 51t-57.5 145v417q0 94 57.5 145.5t162.5 51.5q106 0 162 -51t56 -146v-417q0 -94 -56 -145t-162 -51z
M262 119q76 0 76 72v405q0 73 -76 73q-73 0 -73 -73v-405q0 -72 73 -72zM321 629q7 -13 7 -33v-405q0 -62 -66 -62q-15 0 -27 3q-5 15 -5 33v405q0 63 63 63q17 0 28 -4z" />
    <glyph glyph-name="P" unicode="P" horiz-adv-x="508" 
d="M115 -32q21 -5 44 -5q21 0 42 5q18 4 24 9q14 8 14 21v286h59q106 0 164.5 50.5t58.5 155.5v78q0 117 -78 168q-57 61 -176 61h-122q-29 0 -54 -6q-17 -3 -30 -11q-17 -9 -17 -25v-731q0 -13 15 -22q6 -4 16 -6q1 -11 14 -20q13 -7 26 -8zM128 -1q-33 0 -53.5 7t-20.5 18
v731q0 14 25.5 23t65.5 9h122q213 0 213 -193v-78q0 -196 -213 -196h-69v-296q0 -11 -19 -18t-51 -7zM198 659v-211h69q36 0 53.5 15.5t17.5 51.5v80q0 64 -71 64h-69zM324 621q4 -9 4 -26v-80q0 -31 -14 -44t-47 -13h-28v165h59q12 0 26 -2z" />
    <glyph glyph-name="Q" unicode="Q" horiz-adv-x="544" 
d="M568 67l-51 51q4 17 4 41v417q0 117 -80 170q-60 63 -179 63q-104 0 -167 -52t-63 -155v-417q0 -113 80 -167q62 -65 181 -65q75 0 127 26l2 -2l8 -4l9 -9q9 -9 13 -12q9 -7 17 -7q28 0 66.5 39t38.5 67q0 10 -6 16zM476 140l54 -54q7 -7 -2 -27t-32 -43
q-22 -22 -41 -30.5t-26 -1.5l-35 35q-51 -30 -132 -30q-105 0 -162.5 51t-57.5 145v417q0 94 57.5 145.5t162.5 51.5q106 0 162 -51t56 -146v-417q0 -26 -4 -45zM262 114q76 0 76 72v414q0 74 -76 74q-73 0 -73 -74v-414q0 -72 73 -72zM321 634q7 -13 7 -34v-414
q0 -62 -66 -62q-15 0 -27 3q-5 15 -5 33v414q0 64 63 64q17 0 28 -4z" />
    <glyph glyph-name="R" unicode="R" horiz-adv-x="529" 
d="M114 -32q22 -5 45 -5q21 0 42 5q18 4 24 9q14 8 14 21v301h42q24 0 39 -4q8 -17 8 -55v-145q0 -24 1 -36q0 -15 4 -37q4 -12 18 -20q2 -1 6.5 -2.5t6.5 -2.5v-1q2 -12 18 -20q7 -4 27 -8q24 -5 48 -5q18 0 39 4q16 5 22 8q13 9 13 21q0 3 -1 5q-6 22 -6 68v140
q0 124 -68 163l-7 7q72 42 72 153v50q0 110 -72 156q-54 59 -182 59h-122q-29 0 -54 -6q-17 -3 -30 -11q-17 -9 -17 -25v-731q0 -13 15 -22q6 -4 16 -6q1 -11 14 -20q13 -6 25 -8zM128 -1q-33 0 -53.5 7t-20.5 18v731q0 14 25.5 23t65.5 9h122q111 0 162 -44t51 -135v-50
q0 -125 -93 -156q96 -25 96 -167v-140q0 -49 7 -71q2 -11 -15.5 -18t-48.5 -7q-34 0 -57.5 7t-25.5 18q-5 40 -5 71v145q0 54 -20 74.5t-68 20.5h-52v-311q0 -11 -19 -18t-51 -7zM198 657v-187h54q86 0 86 68v51q0 68 -73 68h-67zM323 618q5 -13 5 -29v-51q0 -58 -76 -58
h-13v141h57q16 0 27 -3z" />
    <glyph glyph-name="S" unicode="S" horiz-adv-x="490" 
d="M174 210q-1 13 -14 19q-10 6 -24 9q-21 4 -41 4q-18 0 -38 -4q-16 -4 -23 -8q-14 -7 -14 -19v-26q0 -119 79 -170q58 -62 175 -62q105 0 166 52.5t61 156.5q0 80 -34.5 132.5t-96.5 102.5q-9 8 -46 38q-8 6 -23 17.5t-17 13.5q-14 12 -25 25q-42 47 -42 105q0 42 64 42
q17 0 30 -3q2 -8 2 -13v-34q0 -13 12 -19q8 -5 19 -7q0 -13 12 -19q8 -5 20 -7q19 -4 35 -4q35 0 44 1q19 2 26 6q16 7 16 20v17q0 120 -80 172q-57 61 -170 61q-103 0 -163 -51t-60 -153q0 -75 36 -129.5t102 -107.5q15 -13 54 -44l27 -21q19 -17 29 -31q34 -44 34 -104
q0 -26 -16.5 -35.5t-49.5 -9.5q-20 0 -33 3q-1 2 -1.5 7t-0.5 8v41q0 14 -14 21q-10 6 -17 7zM243 -11q-106 0 -159.5 50.5t-53.5 145.5v26q0 8 19 14.5t46 6.5q31 0 50 -7t19 -17v-42q0 -53 76 -53t76 55q0 58 -26.5 97t-98.5 93q-88 67 -122.5 122t-34.5 125
q0 93 54 143.5t159 50.5q104 0 156.5 -50.5t52.5 -146.5v-17q0 -17 -45 -17h-31q-57 0 -57 20v34q0 52 -73 52q-74 0 -74 -52q0 -51 26.5 -89.5t98.5 -92.5q91 -68 125 -122.5t34 -129.5q0 -96 -56 -147.5t-161 -51.5z" />
    <glyph glyph-name="T" unicode="T" horiz-adv-x="478" 
d="M225 -32q21 -5 43 -5t44 5q14 2 25 8q15 9 15 22v604h66q24 0 49 7q37 13 37 40v69q0 27 -34 41q-8 18 -40 29q-27 9 -58 9h-266q-31 0 -58 -9q-43 -14 -43 -44v-69q0 -26 33 -38q8 -19 34 -27q24 -8 50 -8h35v-578q0 -14 14 -22q5 -3 17 -7q1 -12 13 -18q6 -5 24 -9z
M237 -1q-32 0 -51 7t-19 18v614h-76q-34 0 -55 10.5t-21 26.5v69q0 18 25.5 30.5t65.5 12.5h266q40 0 65.5 -12.5t25.5 -30.5v-69q0 -17 -21 -27t-55 -10h-76v-614q0 -11 -20.5 -18t-53.5 -7z" />
    <glyph glyph-name="U" unicode="U" horiz-adv-x="529" 
d="M201 766q-1 12 -14 18q-7 5 -23 9q-23 4 -42 4q-26 0 -43 -4q-18 -4 -25 -8q-15 -7 -15 -22v-578q0 -116 79 -169q59 -63 178 -63q103 0 163 52t60 154v578q0 15 -13 22q-6 4 -18 8q-3 11 -13 18q-10 6 -23 9q-16 3 -41 3q-26 0 -42 -3q-18 -4 -24 -9q-14 -7 -14 -22
v-558q0 -35 -15 -50.5t-49 -15.5q-17 0 -29 3q-6 15 -6 37v558q0 14 -14 22q-5 3 -17 7zM265 -11q-106 0 -161 50.5t-55 145.5v578q0 24 73 24q69 0 69 -24v-558q0 -42 19.5 -59t56.5 -17t55.5 17t18.5 59v558q0 24 70 24q67 0 67 -24v-578q0 -94 -54.5 -145t-158.5 -51z
" />
    <glyph glyph-name="V" unicode="V" horiz-adv-x="502" 
d="M217 -32q25 -5 54 -5q39 0 64 3q23 4 36 10q19 11 22 27l128 736v4q0 13 -13 19q-7 4 -18 6q0 14 -13 20q-6 3 -22 7q-14 2 -36 2q-24 0 -40 -3q-18 -4 -23 -8q-13 -6 -16 -18l-71 -440l-61 411q-2 12 -17 20q-11 4 -14 5q-2 13 -17 21q-8 4 -26 8q-25 4 -46 4
q-19 0 -40 -4q-9 -1 -23 -7q-13 -9 -13 -21v-3l127 -734q2 -13 18 -23q4 -3 14 -7q4 -11 17 -19q7 -4 29 -11zM240 -1q-86 0 -91 31l-127 733q-2 11 16.5 17.5t49.5 6.5q74 0 79 -24l88 -586l95 589q4 21 69 21q31 0 47 -5.5t14 -15.5l-127 -736q-5 -31 -91 -31h-22z" />
    <glyph glyph-name="W" unicode="W" horiz-adv-x="731" 
d="M178 -32q26 -5 54 -5q38 0 63 4q23 4 35 10q20 10 22 26l37 288l35 -262q2 -15 19 -24l13 -6q3 -12 17 -20q12 -6 31 -10q26 -6 56 -6q24 0 55 7q19 4 31 10q16 8 19 23l84 736v4q0 11 -12 19q-9 5 -19 6q0 12 -12 20q-8 4 -20 6q-14 3 -35 3q-24 0 -39 -3q-9 -1 -23 -7
q-13 -9 -14 -20l-41 -333l-37 302q-3 13 -17 21q-8 5 -14 6q-2 12 -17 20q-7 5 -27 9q-24 5 -49 5q-23 0 -48 -4q-17 -4 -26 -10q-14 -7 -17 -22l-46 -329l-34 306q-2 13 -15 22q-7 4 -16 6q-3 12 -15 19q-6 5 -24 9q-17 3 -44 3q-25 0 -41 -3q-15 -4 -23 -9q-13 -9 -12 -23
l88 -733q1 -15 18 -24q4 -3 14 -7q3 -12 16 -19q8 -4 30 -11zM201 -1q-41 0 -66 9t-25 22l-88 733q0 24 66 24q73 0 73 -24l58 -521l73 518q3 27 81 27t83 -27l65 -518l64 524q1 21 66 21q29 0 44 -5.5t13 -15.5l-84 -736q-3 -13 -30 -22t-65 -9q-90 0 -95 31l-62 467
l-61 -467q-5 -31 -91 -31h-19z" />
    <glyph glyph-name="X" unicode="X" horiz-adv-x="533" 
d="M77 -34q14 -3 37 -3q22 0 45 4q34 8 42 27l79 185l68 -156q7 -17 30 -24v-2q9 -20 45 -28q22 -6 49 -6q20 0 41 4q18 4 24 9q13 7 13 21q0 4 -74 185q-54 130 -82 194q22 51 78 188q72 170 72 179q0 13 -14 19q-7 4 -17 6q0 14 -13 20q-5 2 -22 7q-15 2 -37 2
q-28 0 -44 -4q-32 -6 -41 -26l-73 -166l-57 137q-6 15 -30 24l-1 2q-9 22 -47 28q-24 5 -50 5q-24 0 -39 -3q-16 -4 -23 -8q-13 -9 -13 -21q0 -7 71 -177q66 -155 78 -186l-83 -196q-76 -183 -76 -186q0 -14 13 -21q4 -2 18 -7q1 -13 12 -18q5 -4 21 -8zM83 -1
q-32 0 -47.5 6.5t-11.5 18.5l159 378l-149 358q-5 13 12 20t52 7q77 0 88 -27l87 -208l92 211q10 24 76 24q33 0 49.5 -6t11.5 -18l-149 -361l156 -375q4 -13 -14.5 -20.5t-53.5 -7.5q-72 0 -84 28l-98 226l-98 -229q-10 -25 -78 -25z" />
    <glyph glyph-name="Y" unicode="Y" horiz-adv-x="517" 
d="M246 -32q21 -5 44 -5q22 0 43 5q15 4 24 9q15 9 15 21v29.5t-0.5 63t-0.5 70.5v146q9 36 24 71q3 6 14 30t17 40l109 286q2 4 2 9q0 13 -14 19q-7 4 -17 6q0 14 -13 20q-9 5 -22 7q-15 2 -37 2q-28 0 -45 -4q-34 -7 -41 -27l-73 -197l-61 169q-7 17 -30 24l-1 1
q-8 23 -46 29q-22 5 -49 5q-24 0 -40 -3q-18 -4 -23 -8q-14 -8 -14 -21q0 -3 2 -9l109 -283q11 -28 31 -70q16 -37 23 -70q1 -2 1 -146q-1 -74 -1 -163q0 -14 14 -22q7 -4 17 -6q1 -13 14 -19q7 -5 25 -9zM259 -1q-32 0 -52.5 7t-20.5 18v311l-164 425q-5 13 13 20t53 7
q76 0 86 -27l90 -249l93 252q8 24 77 24q34 0 50 -6t11 -18l-164 -428v-311q0 -11 -20.5 -18t-51.5 -7z" />
    <glyph glyph-name="Z" unicode="Z" horiz-adv-x="475" 
d="M88 -27q27 -9 58 -9h242q31 0 58 9q43 14 43 44v57q0 26 -34 42q-9 19 -40 29q-28 8 -58 8h-116l239 436q3 5 6 23.5t3 24.5v81q0 27 -34 41q-8 18 -40 29q-27 9 -58 9h-229q-31 0 -58 -9q-43 -14 -43 -44v-62q0 -27 34 -41q9 -19 40 -29q27 -9 58 -9h102l-236 -437
q-11 -21 -11 -48v-75q0 -27 34 -41q8 -19 40 -29zM115 0q-40 0 -65.5 12t-25.5 31v75q0 24 10 43l258 478h-164q-41 0 -66 12.5t-25 30.5v62q0 18 25 30.5t66 12.5h229q40 0 65.5 -12.5t25.5 -30.5v-81q0 -8 -7 -43l-262 -477h178q40 0 65.5 -12t25.5 -31v-57
q0 -19 -25.5 -31t-65.5 -12h-242z" />
    <glyph glyph-name="bracketleft" unicode="[" horiz-adv-x="361" 
d="M143 -88q25 -6 55 -6h58q29 0 54 6q20 4 31 11q16 10 16 26v52q0 14 -21 22q-2 1 -5 1.5t-5 0.5v2q0 16 -21 21q-15 5 -32 5q-2 0 -6 0.5t-5 0.5v655h11h15.5h14.5q15 0 33 4q8 3 13 7q8 6 8 14v53q0 17 -17 26q-5 4 -15 7q-2 9 -16 19q-10 6 -30 10q-25 6 -54 6h-58
q-29 0 -54 -6q-17 -3 -30 -11q-17 -9 -17 -25v-838q0 -16 16 -26q6 -4 16 -7q3 -12 15 -19q13 -8 30 -11zM167 -58q-41 0 -66 9t-25 24v838q0 14 25.5 23t65.5 9h58q41 0 66 -9t25 -23v-53q0 -15 -46 -15h-49v-702h49q46 0 46 -16v-52q0 -15 -24.5 -24t-66.5 -9h-58z" />
    <glyph glyph-name="backslash" unicode="\" horiz-adv-x="511" 
d="M427 -33q20 -4 42 -4q19 0 32 3q11 2 19 7q11 5 11 18q0 5 -1 8l-345 745q-7 15 -29 22l-2 4q-8 18 -40 24q-15 3 -41 3q-19 0 -31 -2t-19 -6q-12 -6 -12 -18q0 -5 2 -9l343 -745q6 -13 28 -21l3 -5q7 -17 40 -24zM438 -1q-62 0 -73 22l-343 745q-5 10 9 15.5t42 5.5
q65 0 72 -21l345 -745q4 -10 -10 -16t-42 -6z" />
    <glyph glyph-name="bracketright" unicode="]" horiz-adv-x="361" 
d="M113 -88q25 -6 55 -6h57q29 0 55 6q17 3 30 11q17 9 17 26v838q0 15 -17 26q-10 5 -15 6q-2 10 -16 20q-10 6 -30 10q-26 6 -55 6h-57q-29 0 -54 -6q-17 -3 -30 -11q-17 -9 -17 -25v-53q0 -15 20 -21q8 -2 11 -2v-3q0 -14 20 -21q12 -4 33 -4l10 -1v-655q-16 2 -41 0
q-16 0 -33 -5q-20 -6 -20 -21v-52q0 -16 16 -26q6 -4 16 -7q3 -12 15 -19q13 -8 30 -11zM137 -58q-41 0 -66 9t-25 24v52q0 16 45 16h49v702h-49q-45 0 -45 15v53q0 14 25.5 23t65.5 9h57q41 0 66.5 -9t25.5 -23v-838q0 -15 -25 -24t-67 -9h-57z" />
    <glyph glyph-name="asciicircum" unicode="^" 
d="M86 451q18 -3 30 -3q19 0 39 4q31 7 39 20l91 147l74 -121q8 -12 26 -17l5 -9q9 -14 39 -20q20 -4 40 -4q17 0 30 3q12 2 18 5q12 7 12 17q0 1 -3 9l-5 9q-6 8 -18 29q-35 56 -55 89q-88 139 -90 143q-6 9 -24 15q-4 7 -7 10q-8 14 -33 18q-11 2 -32 2t-33 -2
q-25 -5 -33 -18l-90 -143l-55 -88q-2 -4 -17 -30q-1 -2 -5 -9l-3 -8q0 -12 12 -17q7 -4 18 -6h1l-1 -3q0 -12 12 -17q6 -3 18 -5zM85 484q-52 0 -49 16l1 3l167 269q8 15 58 15q49 0 57 -15l168 -269q6 -10 -15 -16q-14 -3 -34 -3q-61 0 -70 19l-106 173l-107 -173
q-10 -19 -70 -19z" />
    <glyph glyph-name="underscore" unicode="_" horiz-adv-x="395" 
d="M67 -133q25 -6 55 -6h213q29 0 55 6q22 7 30 12q16 12 16 26v24q0 15 -16 27q-3 2 -16 7q-4 11 -15 18q-13 9 -30 12q-25 6 -55 6h-213q-30 0 -55 -6q-16 -3 -30 -12q-16 -9 -16 -26v-24q0 -17 16 -26q10 -6 16 -8q3 -11 15 -18q8 -6 30 -12zM91 -103q-40 0 -65.5 9.5
t-25.5 24.5v24q0 15 25.5 24.5t65.5 9.5h213q40 0 65.5 -9.5t25.5 -24.5v-24q0 -15 -25.5 -24.5t-65.5 -9.5h-213z" />
    <glyph glyph-name="grave" unicode="`" horiz-adv-x="658" 
d="M305 826q24 -22 79 -22q16 0 26 2t16 6q11 4 11 16q0 6 -3 11l-64 88q-7 9 -24 17l-7 9q-13 17 -49 23q-23 5 -50 5q-21 0 -35 -2q-11 -1 -21 -6q-13 -8 -13 -19t8 -17l95 -85q10 -8 11 -8zM353 840q-58 0 -72 19l-95 85q-17 20 24 25l30 2q32 0 58.5 -7t32.5 -17l64 -88
q8 -12 -16 -17q-11 -2 -26 -2z" />
    <glyph glyph-name="a" unicode="a" 
d="M76 -34q15 -3 38 -3q20 0 43 4q34 7 39 30l19 123h122l15 -98q3 -12 16 -20l15 -6q1 -13 16 -19q10 -6 25 -9q22 -5 45 -5q19 0 40 4q16 4 23 8q14 8 14 21q0 3 -1 4l-140 734q-3 14 -17 23l-14 6q-3 10 -17 20q-11 6 -28 9q-25 5 -52 5q-49 0 -67 -2q-21 -3 -37 -9
q-20 -9 -24 -26l-137 -735v-3q0 -15 12 -22q7 -5 19 -7q1 -11 11 -19q6 -3 22 -8zM83 -1q-31 0 -47 6t-14 19l137 734q3 29 91 29h27q83 0 88 -29l140 -734q3 -11 -16.5 -18t-50.5 -7q-32 0 -53 7t-23 18l-21 132h-165l-21 -132q-4 -25 -72 -25zM255 650l-62 -365h132
l-66 365h-4zM275 504l38 -209h-73z" />
    <glyph glyph-name="b" unicode="b" horiz-adv-x="533" 
d="M176 -37h137q103 0 166.5 47t63.5 149q0 51 -1 75q-2 41 -11 70q-16 52 -60 81q-10 10 -15 14q72 42 72 149v34q0 109 -72 155q-55 60 -186 60h-125q-29 0 -54 -6q-20 -4 -30 -11q-17 -9 -17 -25v-722q0 -16 16 -26q10 -6 16 -8q3 -11 15 -18q8 -6 30 -12q25 -6 55 -6z
M282 -1h-137q-40 0 -65.5 9.5t-25.5 24.5v722q0 14 25.5 23t65.5 9h125q113 0 165 -44t52 -135v-34q0 -120 -95 -153q110 -34 110 -168v-68q0 -90 -56 -138t-164 -48zM198 663v-181h57q86 0 86 68v44q0 36 -17.5 52.5t-56.5 16.5h-69zM326 624q5 -13 5 -30v-44
q0 -58 -76 -58h-16v135h59q16 0 28 -3zM198 343v-223h84q39 0 57 14t18 57v68q0 84 -95 84h-64zM338 300q9 -15 9 -41v-68q0 -36 -14 -48.5t-51 -12.5h-43v177h54q28 0 45 -7z" />
    <glyph glyph-name="c" unicode="c" horiz-adv-x="506" 
d="M434 746q-60 63 -179 63q-102 0 -160.5 -51.5t-58.5 -152.5v-422q0 -117 79 -168q58 -62 171 -62q104 0 165.5 50.5t61.5 153.5v87q0 13 -15 22q-4 2 -16 6q-1 13 -14 19q-11 6 -24 8q-17 4 -42 4q-30 0 -38 -1q-10 0 -24 -4q-15 -8 -15 -19v-92q0 -55 -63 -55
q-16 0 -28 3q-4 11 -4 26v409q0 60 63 60q15 0 25 -3q2 -4 2 -6q5 -14 5 -39v-14.5v-17v-14.5q0 -10 9 -17q5 -3 15 -5q1 0 3 -0.5t4 -0.5v-3q0 -11 9 -16q3 -3 14 -6q5 -1 14 -1h10q43 0 58 2q21 2 33 7q19 11 19 25v58q0 115 -79 167zM255 -11q-102 0 -155.5 50.5
t-53.5 143.5v422q0 93 53.5 143.5t155.5 50.5q107 0 162 -50.5t55 -143.5v-58q0 -24 -70 -24h-16q-28 0 -39.5 2t-11.5 11v60q0 35 -20 52.5t-53 17.5t-53 -17.5t-20 -52.5v-409q0 -65 73 -65t73 65v92q0 14 67 14q70 0 70 -23v-87q0 -93 -55 -143.5t-162 -50.5z" />
    <glyph glyph-name="d" unicode="d" horiz-adv-x="533" 
d="M176 -37h129q105 0 165.5 50t60.5 155v400q0 116 -78 167q-58 62 -179 62h-129q-29 0 -54 -6q-20 -4 -30 -11q-17 -9 -17 -25v-722q0 -16 16 -26q10 -6 16 -8q3 -11 15 -18q8 -6 30 -12q25 -6 55 -6zM274 -1h-129q-40 0 -65.5 9.5t-25.5 24.5v722q0 14 25.5 23t65.5 9
h129q216 0 216 -193v-400q0 -195 -216 -195zM198 657v-526h72q76 0 76 71v383q0 39 -19 55.5t-57 16.5h-72zM331 618q5 -15 5 -33v-383q0 -33 -16 -47t-50 -14h-31v480h62q17 0 30 -3z" />
    <glyph glyph-name="e" unicode="e" horiz-adv-x="478" 
d="M121 -31q25 -6 55 -6h212q29 0 55 6q22 7 30 12q16 12 16 26v76q0 14 -17 25q-5 4 -15 7q-3 11 -16 19q-8 5 -30 11q-26 5 -54 5h-118v154h100q31 0 56 7q45 13 45 42v58q0 26 -34 40q-9 21 -41 29q-28 8 -57 8h-69v124h149q26 0 53 5q22 6 30 10q18 10 18 24v78
q0 15 -17 26q-6 3 -15 6q-3 11 -16 19t-30 11q-25 6 -54 6h-212q-29 0 -54 -6q-17 -3 -30 -11q-17 -9 -17 -25v-722q0 -17 16 -26q10 -6 16 -8q3 -11 15 -18q8 -6 30 -12zM145 -1q-40 0 -65.5 9.5t-25.5 24.5v722q0 14 25.5 23t65.5 9h212q40 0 65.5 -9t25.5 -23v-78
q0 -12 -25.5 -20.5t-65.5 -8.5h-159v-170h110q40 0 65.5 -11.5t25.5 -29.5v-58q0 -18 -25 -28.5t-66 -10.5h-110v-200h159q40 0 65.5 -8.5t25.5 -22.5v-76q0 -15 -25.5 -24.5t-65.5 -9.5h-212z" />
    <glyph glyph-name="f" unicode="f" horiz-adv-x="452" 
d="M457 761q-3 11 -16 19t-30 11q-25 6 -54 6h-212q-29 0 -54 -6q-17 -3 -30 -11q-17 -9 -17 -25v-731q0 -13 15 -22q6 -4 16 -6q1 -11 14 -20q13 -6 25 -8q22 -5 45 -5q21 0 42 5q18 4 24 9q14 8 14 21v306h100q31 0 56 7q45 13 45 42v58q0 26 -34 40q-9 21 -41 29
q-28 8 -57 8h-69v124h149q26 0 53 5q22 6 30 10q18 10 18 24v78q0 15 -17 26q-6 3 -15 6zM357 787q40 0 65.5 -9t25.5 -23v-78q0 -12 -25.5 -20.5t-65.5 -8.5h-159v-170h110q40 0 65.5 -11.5t25.5 -29.5v-58q0 -18 -25 -28.5t-66 -10.5h-110v-316q0 -11 -19 -18t-51 -7
q-33 0 -53.5 7t-20.5 18v731q0 14 25.5 23t65.5 9h212z" />
    <glyph glyph-name="g" unicode="g" horiz-adv-x="514" 
d="M393 487h10q43 0 58 2q21 2 33 7q19 11 19 25v58q0 115 -79 167q-60 63 -179 63q-102 0 -160.5 -51.5t-58.5 -152.5v-422q0 -117 79 -168q58 -62 171 -62q104 0 165.5 50.5t61.5 153.5v258q0 15 -16 27q-9 5 -17 8q-3 10 -14 18q-8 6 -30 12q-25 7 -55 7q-43 0 -70 -4
q-23 -3 -39 -12q-20 -12 -20 -30v-75q0 -12 15 -21q6 -2 16 -4v-1q0 -14 15 -20q9 -4 25 -6h2v-127q0 -55 -63 -55q-16 0 -28 3q-4 11 -4 26v409q0 60 63 60q15 0 25 -3q2 -4 2 -6q5 -14 5 -39v-14.5v-17v-14.5q0 -10 9 -17q5 -3 15 -5q1 0 3 -0.5t4 -0.5v-3q0 -11 9 -16
q3 -3 14 -6q5 -1 14 -1zM402 523h-16q-28 0 -39.5 2t-11.5 11v60q0 35 -20 52.5t-53 17.5t-53 -17.5t-20 -52.5v-409q0 -65 73 -65t73 65v163h-37q-36 0 -36 16v75q0 15 25.5 25.5t66.5 10.5h27q40 0 65.5 -10.5t25.5 -25.5v-258q0 -93 -55 -143.5t-162 -50.5
q-102 0 -155.5 50.5t-53.5 143.5v422q0 93 53.5 143.5t155.5 50.5q107 0 162 -50.5t55 -143.5v-58q0 -24 -70 -24z" />
    <glyph glyph-name="h" unicode="h" horiz-adv-x="551" 
d="M114 -32q22 -5 45 -5q21 0 42 5q18 4 24 9q14 8 14 21v294h104v-268q0 -13 14 -22q14 -5 17 -6q1 -13 14 -19q10 -6 25 -9q21 -5 44 -5q22 0 43 5q15 3 25 9q15 9 15 21v739q0 13 -15 22l-16 6q-1 13 -15 19q-10 6 -25 9q-23 4 -43 4t-43 -4q-15 -3 -25 -9
q-15 -6 -15 -21v-285h-104v259q0 14 -14 22q-5 3 -17 7q-1 10 -14 19q-6 4 -24 8q-23 4 -42 4q-20 0 -44 -4q-18 -4 -25 -8q-15 -9 -15 -22v-739q0 -13 15 -22q6 -4 16 -6q1 -11 14 -20q7 -4 25 -8zM128 -1q-33 0 -53.5 7t-20.5 18v739q0 24 74 24q70 0 70 -24v-295h155v295
q0 10 20.5 17t52.5 7t52.5 -7t20.5 -17v-739q0 -11 -21 -18t-52 -7t-52 7t-21 18v304h-155v-304q0 -11 -19 -18t-51 -7z" />
    <glyph glyph-name="i" unicode="i" horiz-adv-x="252" 
d="M114 -32q22 -5 45 -5q21 0 42 5q18 4 24 9q14 8 14 21v739q0 14 -14 22q-5 3 -17 7q-1 10 -14 19q-6 4 -24 8q-23 4 -42 4q-20 0 -44 -4q-18 -4 -25 -8q-15 -9 -15 -22v-739q0 -13 15 -22q6 -4 16 -6q1 -11 14 -20q7 -4 25 -8zM128 -1q-33 0 -53.5 7t-20.5 18v739
q0 24 74 24q70 0 70 -24v-739q0 -11 -19 -18t-51 -7z" />
    <glyph glyph-name="j" unicode="j" horiz-adv-x="347" 
d="M81 -40q23 -3 38 -3q219 0 219 202v578q0 13 -15 22q-14 6 -16 6q-1 13 -14 19q-12 6 -25 9q-23 4 -43 4t-43 -4q-15 -3 -25 -9q-15 -6 -15 -21v-537q0 -34 -14.5 -47t-41.5 -16q-7 0 -23 -0.5t-22 -1.5q-29 -5 -29 -26v-125q0 -12 15 -18q10 -4 16 -5v-3q0 -13 15 -18
q8 -4 23 -6zM88 -7l-36 3q-12 0 -21 5t-9 9v125q0 10 12 14q5 3 23 3h12q43 0 63 17.5t20 56.5v537q0 10 20.5 17t52.5 7q31 0 51.5 -6.5t20.5 -17.5v-578q0 -192 -209 -192z" />
    <glyph glyph-name="k" unicode="k" horiz-adv-x="545" 
d="M114 -32q22 -5 45 -5q21 0 42 5q18 4 24 9q14 8 14 21v226l31 53l89 -253q5 -16 30 -26q8 -21 45 -30q24 -5 50 -5q20 0 41 4q18 4 24 9q13 7 13 21q0 6 -78 230q-15 43 -35.5 101t-33 94.5t-16.5 48.5q1 2 80 139q11 19 29.5 50.5t21.5 37.5q4 8 16 29l5 9q2 4 2 8
q0 12 -12 19q-12 4 -18 5v2q0 12 -13 18q-9 4 -20 6q-14 3 -34 3q-25 0 -49 -5q-39 -7 -48 -24l-120 -217v186q0 14 -14 22q-5 3 -17 7q-1 10 -14 19q-6 4 -24 8q-23 4 -42 4q-20 0 -44 -4q-18 -4 -25 -8q-15 -9 -15 -22v-739q0 -13 15 -22q6 -4 16 -6q1 -11 14 -20
q7 -4 25 -8zM128 -1q-33 0 -53.5 7t-20.5 18v739q0 24 74 24q70 0 70 -24v-306l170 306q15 24 88 24q59 0 57 -18q-1 -3 -3 -6l-153 -265l164 -471q4 -13 -14.5 -20.5t-53.5 -7.5q-77 0 -85 28l-113 322l-57 -97v-228q0 -11 -19 -18t-51 -7z" />
    <glyph glyph-name="l" unicode="l" horiz-adv-x="452" 
d="M121 -31q25 -6 55 -6h201q30 0 55 6q22 6 30 12q17 9 17 26v67q0 16 -17 27q-3 2 -15 7q-4 9 -15 19q-14 8 -31 11q-25 6 -55 6h-107v593q0 14 -14 22q-5 3 -17 7q-1 10 -14 19q-6 4 -24 8q-23 4 -42 4q-20 0 -44 -4q-18 -4 -25 -8q-15 -9 -15 -22v-730q0 -17 16 -26
q10 -6 16 -8q3 -11 15 -18q8 -6 30 -12zM145 -1q-40 0 -65.5 9.5t-25.5 24.5v730q0 24 74 24q70 0 70 -24v-629h148q42 0 67 -9.5t25 -24.5v-67q0 -15 -25 -24.5t-67 -9.5h-201z" />
    <glyph glyph-name="m" unicode="m" horiz-adv-x="706" 
d="M108 -33q20 -4 38 -4t38 4q14 2 23 7q13 9 13 21l2 316l50 -292q2 -10 14 -18q7 -4 17 -6v-1q1 -10 14 -19q11 -6 22 -7q17 -5 38 -5q19 0 40 4q16 4 22 8q14 6 15 19l52 294l1 -264q0 -15 13 -22q4 -3 18 -8q1 -10 13 -18q6 -5 23 -9q16 -4 42 -4t42 4q18 4 24 9
q13 7 13 22v731q0 15 -17 26q-6 3 -15 6q-3 11 -16 19t-30 11q-25 6 -54 6q-50 0 -68 -2q-28 -4 -39 -9q-21 -10 -25 -26l-65 -306l-61 280q-2 13 -18 23q-8 4 -13 5q-4 12 -18 21q-13 6 -29 9q-25 5 -53 5q-48 0 -69 -3q-26 -4 -39 -11q-22 -10 -22 -28v-734q0 -12 12 -20
q7 -5 19 -8q0 -10 12 -18q10 -6 21 -8zM115 -1q-61 0 -61 22v734q0 14 25.5 23t65.5 9h29q85 0 91 -29l89 -410l87 410q6 29 91 29h31q40 0 65.5 -9t25.5 -23v-731q0 -25 -69 -25q-68 0 -68 25l-3 572l-100 -575q-5 -22 -68 -22q-58 0 -64 22l-99 575l-4 -575q0 -22 -64 -22
z" />
    <glyph glyph-name="n" unicode="n" horiz-adv-x="559" 
d="M110 -33q20 -4 39 -4t39 4q14 2 22 7q14 8 14 21v383l116 -357q4 -11 19 -18q9 -5 11 -5l1 -3q4 -12 19 -18q12 -6 26 -9q24 -5 48 -5t46 5q16 4 25 10q15 9 15 23v739q0 12 -15 21q-4 2 -16 6q0 11 -14 20q-6 2 -24 7q-16 3 -40 3q-23 0 -39 -3q-16 -5 -22 -8
q-13 -6 -13 -20v-280l-84 251q-4 13 -20 21q-8 3 -10 4l-1 1q-4 13 -20 20q-9 5 -30 9q-25 5 -53 5q-30 0 -56 -6q-18 -3 -32 -11q-17 -11 -17 -25v-734q0 -14 13 -21q6 -4 18 -7q0 -11 13 -18q10 -6 22 -8zM118 -1q-64 0 -64 22v734q0 14 27.5 23t67.5 9q84 0 94 -27
l134 -402v408q0 21 64 21q68 0 68 -21v-739q0 -13 -21 -20.5t-55 -7.5q-71 0 -83 25l-167 511v-514q0 -22 -65 -22z" />
    <glyph glyph-name="o" unicode="o" 
d="M441 746q-60 63 -179 63q-104 0 -167 -52t-63 -155v-417q0 -113 80 -167q62 -65 181 -65q104 0 166 51.5t62 154.5v417q0 117 -80 170zM262 -11q-105 0 -162.5 51t-57.5 145v417q0 94 57.5 145.5t162.5 51.5q106 0 162 -51t56 -146v-417q0 -94 -56 -145t-162 -51z
M262 119q76 0 76 72v405q0 73 -76 73q-73 0 -73 -73v-405q0 -72 73 -72zM321 629q7 -13 7 -33v-405q0 -62 -66 -62q-15 0 -27 3q-5 15 -5 33v405q0 63 63 63q17 0 28 -4z" />
    <glyph glyph-name="p" unicode="p" horiz-adv-x="508" 
d="M115 -32q21 -5 44 -5q21 0 42 5q18 4 24 9q14 8 14 21v286h59q106 0 164.5 50.5t58.5 155.5v78q0 117 -78 168q-57 61 -176 61h-122q-29 0 -54 -6q-17 -3 -30 -11q-17 -9 -17 -25v-731q0 -13 15 -22q6 -4 16 -6q1 -11 14 -20q13 -7 26 -8zM128 -1q-33 0 -53.5 7t-20.5 18
v731q0 14 25.5 23t65.5 9h122q213 0 213 -193v-78q0 -196 -213 -196h-69v-296q0 -11 -19 -18t-51 -7zM198 659v-211h69q36 0 53.5 15.5t17.5 51.5v80q0 64 -71 64h-69zM324 621q4 -9 4 -26v-80q0 -31 -14 -44t-47 -13h-28v165h59q12 0 26 -2z" />
    <glyph glyph-name="q" unicode="q" horiz-adv-x="544" 
d="M568 67l-51 51q4 17 4 41v417q0 117 -80 170q-60 63 -179 63q-104 0 -167 -52t-63 -155v-417q0 -113 80 -167q62 -65 181 -65q75 0 127 26l2 -2l8 -4l9 -9q9 -9 13 -12q9 -7 17 -7q28 0 66.5 39t38.5 67q0 10 -6 16zM476 140l54 -54q7 -7 -2 -27t-32 -43
q-22 -22 -41 -30.5t-26 -1.5l-35 35q-51 -30 -132 -30q-105 0 -162.5 51t-57.5 145v417q0 94 57.5 145.5t162.5 51.5q106 0 162 -51t56 -146v-417q0 -26 -4 -45zM262 114q76 0 76 72v414q0 74 -76 74q-73 0 -73 -74v-414q0 -72 73 -72zM321 634q7 -13 7 -34v-414
q0 -62 -66 -62q-15 0 -27 3q-5 15 -5 33v414q0 64 63 64q17 0 28 -4z" />
    <glyph glyph-name="r" unicode="r" horiz-adv-x="529" 
d="M114 -32q22 -5 45 -5q21 0 42 5q18 4 24 9q14 8 14 21v301h42q24 0 39 -4q8 -17 8 -55v-145q0 -24 1 -36q0 -15 4 -37q4 -12 18 -20q2 -1 6.5 -2.5t6.5 -2.5v-1q2 -12 18 -20q7 -4 27 -8q24 -5 48 -5q18 0 39 4q16 5 22 8q13 9 13 21q0 3 -1 5q-6 22 -6 68v140
q0 124 -68 163l-7 7q72 42 72 153v50q0 110 -72 156q-54 59 -182 59h-122q-29 0 -54 -6q-17 -3 -30 -11q-17 -9 -17 -25v-731q0 -13 15 -22q6 -4 16 -6q1 -11 14 -20q13 -6 25 -8zM128 -1q-33 0 -53.5 7t-20.5 18v731q0 14 25.5 23t65.5 9h122q111 0 162 -44t51 -135v-50
q0 -125 -93 -156q96 -25 96 -167v-140q0 -49 7 -71q2 -11 -15.5 -18t-48.5 -7q-34 0 -57.5 7t-25.5 18q-5 40 -5 71v145q0 54 -20 74.5t-68 20.5h-52v-311q0 -11 -19 -18t-51 -7zM198 657v-187h54q86 0 86 68v51q0 68 -73 68h-67zM323 618q5 -13 5 -29v-51q0 -58 -76 -58
h-13v141h57q16 0 27 -3z" />
    <glyph glyph-name="s" unicode="s" horiz-adv-x="490" 
d="M174 210q-1 13 -14 19q-10 6 -24 9q-21 4 -41 4q-18 0 -38 -4q-16 -4 -23 -8q-14 -7 -14 -19v-26q0 -119 79 -170q58 -62 175 -62q105 0 166 52.5t61 156.5q0 80 -34.5 132.5t-96.5 102.5q-9 8 -46 38q-8 6 -23 17.5t-17 13.5q-14 12 -25 25q-42 47 -42 105q0 42 64 42
q17 0 30 -3q2 -8 2 -13v-34q0 -13 12 -19q8 -5 19 -7q0 -13 12 -19q8 -5 20 -7q19 -4 35 -4q35 0 44 1q19 2 26 6q16 7 16 20v17q0 120 -80 172q-57 61 -170 61q-103 0 -163 -51t-60 -153q0 -75 36 -129.5t102 -107.5q15 -13 54 -44l27 -21q19 -17 29 -31q34 -44 34 -104
q0 -26 -16.5 -35.5t-49.5 -9.5q-20 0 -33 3q-1 2 -1.5 7t-0.5 8v41q0 14 -14 21q-10 6 -17 7zM243 -11q-106 0 -159.5 50.5t-53.5 145.5v26q0 8 19 14.5t46 6.5q31 0 50 -7t19 -17v-42q0 -53 76 -53t76 55q0 58 -26.5 97t-98.5 93q-88 67 -122.5 122t-34.5 125
q0 93 54 143.5t159 50.5q104 0 156.5 -50.5t52.5 -146.5v-17q0 -17 -45 -17h-31q-57 0 -57 20v34q0 52 -73 52q-74 0 -74 -52q0 -51 26.5 -89.5t98.5 -92.5q91 -68 125 -122.5t34 -129.5q0 -96 -56 -147.5t-161 -51.5z" />
    <glyph glyph-name="t" unicode="t" horiz-adv-x="478" 
d="M225 -32q21 -5 43 -5t44 5q14 2 25 8q15 9 15 22v604h66q24 0 49 7q37 13 37 40v69q0 27 -34 41q-8 18 -40 29q-27 9 -58 9h-266q-31 0 -58 -9q-43 -14 -43 -44v-69q0 -26 33 -38q8 -19 34 -27q24 -8 50 -8h35v-578q0 -14 14 -22q5 -3 17 -7q1 -12 13 -18q6 -5 24 -9z
M237 -1q-32 0 -51 7t-19 18v614h-76q-34 0 -55 10.5t-21 26.5v69q0 18 25.5 30.5t65.5 12.5h266q40 0 65.5 -12.5t25.5 -30.5v-69q0 -17 -21 -27t-55 -10h-76v-614q0 -11 -20.5 -18t-53.5 -7z" />
    <glyph glyph-name="u" unicode="u" horiz-adv-x="529" 
d="M201 766q-1 12 -14 18q-7 5 -23 9q-23 4 -42 4q-26 0 -43 -4q-18 -4 -25 -8q-15 -7 -15 -22v-578q0 -116 79 -169q59 -63 178 -63q103 0 163 52t60 154v578q0 15 -13 22q-6 4 -18 8q-3 11 -13 18q-10 6 -23 9q-16 3 -41 3q-26 0 -42 -3q-18 -4 -24 -9q-14 -7 -14 -22
v-558q0 -35 -15 -50.5t-49 -15.5q-17 0 -29 3q-6 15 -6 37v558q0 14 -14 22q-5 3 -17 7zM265 -11q-106 0 -161 50.5t-55 145.5v578q0 24 73 24q69 0 69 -24v-558q0 -42 19.5 -59t56.5 -17t55.5 17t18.5 59v558q0 24 70 24q67 0 67 -24v-578q0 -94 -54.5 -145t-158.5 -51z
" />
    <glyph glyph-name="v" unicode="v" horiz-adv-x="502" 
d="M217 -32q25 -5 54 -5q39 0 64 3q23 4 36 10q19 11 22 27l128 736v4q0 13 -13 19q-7 4 -18 6q0 14 -13 20q-6 3 -22 7q-14 2 -36 2q-24 0 -40 -3q-18 -4 -23 -8q-13 -6 -16 -18l-71 -440l-61 411q-2 12 -17 20q-11 4 -14 5q-2 13 -17 21q-8 4 -26 8q-25 4 -46 4
q-19 0 -40 -4q-9 -1 -23 -7q-13 -9 -13 -21v-3l127 -734q2 -13 18 -23q4 -3 14 -7q4 -11 17 -19q7 -4 29 -11zM240 -1q-86 0 -91 31l-127 733q-2 11 16.5 17.5t49.5 6.5q74 0 79 -24l88 -586l95 589q4 21 69 21q31 0 47 -5.5t14 -15.5l-127 -736q-5 -31 -91 -31h-22z" />
    <glyph glyph-name="w" unicode="w" horiz-adv-x="731" 
d="M178 -32q26 -5 54 -5q38 0 63 4q23 4 35 10q20 10 22 26l37 288l35 -262q2 -15 19 -24l13 -6q3 -12 17 -20q12 -6 31 -10q26 -6 56 -6q24 0 55 7q19 4 31 10q16 8 19 23l84 736v4q0 11 -12 19q-9 5 -19 6q0 12 -12 20q-8 4 -20 6q-14 3 -35 3q-24 0 -39 -3q-9 -1 -23 -7
q-13 -9 -14 -20l-41 -333l-37 302q-3 13 -17 21q-8 5 -14 6q-2 12 -17 20q-7 5 -27 9q-24 5 -49 5q-23 0 -48 -4q-17 -4 -26 -10q-14 -7 -17 -22l-46 -329l-34 306q-2 13 -15 22q-7 4 -16 6q-3 12 -15 19q-6 5 -24 9q-17 3 -44 3q-25 0 -41 -3q-15 -4 -23 -9q-13 -9 -12 -23
l88 -733q1 -15 18 -24q4 -3 14 -7q3 -12 16 -19q8 -4 30 -11zM201 -1q-41 0 -66 9t-25 22l-88 733q0 24 66 24q73 0 73 -24l58 -521l73 518q3 27 81 27t83 -27l65 -518l64 524q1 21 66 21q29 0 44 -5.5t13 -15.5l-84 -736q-3 -13 -30 -22t-65 -9q-90 0 -95 31l-62 467
l-61 -467q-5 -31 -91 -31h-19z" />
    <glyph glyph-name="x" unicode="x" horiz-adv-x="533" 
d="M77 -34q14 -3 37 -3q22 0 45 4q34 8 42 27l79 185l68 -156q7 -17 30 -24v-2q9 -20 45 -28q22 -6 49 -6q20 0 41 4q18 4 24 9q13 7 13 21q0 4 -74 185q-54 130 -82 194q22 51 78 188q72 170 72 179q0 13 -14 19q-7 4 -17 6q0 14 -13 20q-5 2 -22 7q-15 2 -37 2
q-28 0 -44 -4q-32 -6 -41 -26l-73 -166l-57 137q-6 15 -30 24l-1 2q-9 22 -47 28q-24 5 -50 5q-24 0 -39 -3q-16 -4 -23 -8q-13 -9 -13 -21q0 -7 71 -177q66 -155 78 -186l-83 -196q-76 -183 -76 -186q0 -14 13 -21q4 -2 18 -7q1 -13 12 -18q5 -4 21 -8zM83 -1
q-32 0 -47.5 6.5t-11.5 18.5l159 378l-149 358q-5 13 12 20t52 7q77 0 88 -27l87 -208l92 211q10 24 76 24q33 0 49.5 -6t11.5 -18l-149 -361l156 -375q4 -13 -14.5 -20.5t-53.5 -7.5q-72 0 -84 28l-98 226l-98 -229q-10 -25 -78 -25z" />
    <glyph glyph-name="y" unicode="y" horiz-adv-x="517" 
d="M246 -32q21 -5 44 -5q22 0 43 5q15 4 24 9q15 9 15 21v29.5t-0.5 63t-0.5 70.5v146q9 36 24 71q3 6 14 30t17 40l109 286q2 4 2 9q0 13 -14 19q-7 4 -17 6q0 14 -13 20q-9 5 -22 7q-15 2 -37 2q-28 0 -45 -4q-34 -7 -41 -27l-73 -197l-61 169q-7 17 -30 24l-1 1
q-8 23 -46 29q-22 5 -49 5q-24 0 -40 -3q-18 -4 -23 -8q-14 -8 -14 -21q0 -3 2 -9l109 -283q11 -28 31 -70q16 -37 23 -70q1 -2 1 -146q-1 -74 -1 -163q0 -14 14 -22q7 -4 17 -6q1 -13 14 -19q7 -5 25 -9zM259 -1q-32 0 -52.5 7t-20.5 18v311l-164 425q-5 13 13 20t53 7
q76 0 86 -27l90 -249l93 252q8 24 77 24q34 0 50 -6t11 -18l-164 -428v-311q0 -11 -20.5 -18t-51.5 -7z" />
    <glyph glyph-name="z" unicode="z" horiz-adv-x="475" 
d="M88 -27q27 -9 58 -9h242q31 0 58 9q43 14 43 44v57q0 26 -34 42q-9 19 -40 29q-28 8 -58 8h-116l239 436q3 5 6 23.5t3 24.5v81q0 27 -34 41q-8 18 -40 29q-27 9 -58 9h-229q-31 0 -58 -9q-43 -14 -43 -44v-62q0 -27 34 -41q9 -19 40 -29q27 -9 58 -9h102l-236 -437
q-11 -21 -11 -48v-75q0 -27 34 -41q8 -19 40 -29zM115 0q-40 0 -65.5 12t-25.5 31v75q0 24 10 43l258 478h-164q-41 0 -66 12.5t-25 30.5v62q0 18 25 30.5t66 12.5h229q40 0 65.5 -12.5t25.5 -30.5v-81q0 -8 -7 -43l-262 -477h178q40 0 65.5 -12t25.5 -31v-57
q0 -19 -25.5 -31t-65.5 -12h-242z" />
    <glyph glyph-name="braceleft" unicode="{" horiz-adv-x="361" 
d="M96 306q4 -11 4 -30v-208q0 -75 60 -112q43 -50 126 -50h37q9 0 22 3q10 2 14 5q10 6 10 16l-2 79q-1 18 -20 18h-7l-2 1l-2 1v5q0 19 -20 19h-6l-3 1l-3 2h-3q-10 0 -15 1q-5 15 -5 43v167q0 66 -54 96l-5 6q59 32 59 100v167q0 72 54 73h7h10q17 2 17 20v76q0 11 -9 16
q-6 4 -14 6l-8 2v2q0 11 -9 16q-6 4 -14 6q-9 2 -23 2h-37q-66 0 -110.5 -35t-44.5 -101v-207q0 -40 -20 -49q-2 -1 -14.5 -6.5t-19.5 -10.5q-11 -4 -19 -13q-10 -8 -10 -20v-38q0 -11 10 -21q5 -5 19 -13q0 -1 2 -1q1 0 2 -1q3 -6 8 -11q3 -3 18 -13zM255 -58
q-63 0 -104 32.5t-41 93.5v208q0 46 -25 58q-2 1 -22 9.5t-28 15.5t-8 16v38q0 5 4 10t11 9.5t13.5 7.5t16 7.5t13.5 6.5q25 11 25 58v207q0 61 41 93.5t104 32.5h37q36 0 36 -14v-76q0 -8 -5 -10h-19q-64 -5 -64 -83v-167q0 -80 -81 -102q81 -21 81 -100v-167q0 -44 15 -62
t46 -18q3 -3 12 -3h3q10 0 10 -9l2 -79q0 -13 -36 -13h-37z" />
    <glyph glyph-name="braceright" unicode="}" horiz-adv-x="361" 
d="M77 -91q14 -3 23 -3h37q67 0 111.5 34.5t44.5 101.5v208q0 38 19 50q4 2 16.5 7t18.5 8q11 6 19 13q10 10 10 21v38q0 10 -11 21q-3 3 -18 13q-2 0 -4 2q-2 4 -8 10q-12 10 -19 13l-20 10q-3 8 -3 30v207q0 76 -60 113q-42 49 -127 49h-37q-14 0 -23 -2t-14 -6
q-8 -8 -8 -16l3 -79q1 -17 19 -17h11l1 -9q0 -13 18 -17h15q6 0 16 -2q8 -16 8 -45v-167q0 -69 53 -98q1 -2 4 -5q-57 -28 -57 -99v-167q0 -35 -13 -52.5t-45 -17.5h-3l-2 -1q-3 -2 -13 -2h-5l-3 -4l-2 -2l-2 -4q-3 -6 -3 -10v-78q0 -11 9 -15q6 -4 14 -6q1 0 3.5 -0.5
t4.5 -0.5v-4q0 -10 9 -15q4 -3 13 -5zM69 -58q-35 0 -35 13v78q0 3 5 10q13 0 18 3q68 0 68 80v167q0 80 79 100q-79 21 -79 102v167q0 78 -64 83h-15q-9 0 -9 7l-3 79q0 14 35 14h37q65 0 105.5 -32.5t40.5 -93.5v-207q0 -47 25 -58q2 -1 21.5 -10t28 -16t8.5 -15v-38
q0 -9 -8.5 -16t-27.5 -15t-22 -10q-25 -12 -25 -58v-208q0 -61 -40.5 -93.5t-105.5 -32.5h-37z" />
    <glyph glyph-name="asciitilde" unicode="~" 
d="M83 299q16 -9 32 -9q17 0 30 11q4 3 10 9l9 11q19 23 43 23q15 0 34 -9q13 -6 41 -22q60 -35 99 -35q77 0 137 76l12 15q6 7 11 16q3 4 3 11q0 20 -35 37q-8 14 -31.5 26.5t-35.5 12.5q-17 0 -28 -11q-4 -3 -10 -9q-7 -7 -10 -11q-22 -24 -44 -24q-16 0 -34 9
q-13 6 -41 22q-60 34 -99 34q-96 0 -160 -105q-4 -5 -4 -13q0 -11 7 -16q1 -1 3 -2l2 -2q2 -1 4 -3q2 -1 7.5 -5t8.5 -6q2 -5 5 -8q2 -2 6 -4l4 -3q16 -12 24 -16zM113 338q-23 -24 -59 -3l-20 14q-18 9 -10 23q36 52 70.5 76t81.5 24q36 0 94 -32q57 -33 80 -33q31 0 64 41
q9 13 25 14t33 -11l21 -14q13 -9 9 -21q-36 -53 -71 -77.5t-81 -24.5q-35 0 -95 34q-59 32 -79 32q-32 0 -63 -42z" />
    <glyph glyph-name="uni00A0" unicode="&#xa0;" horiz-adv-x="209" 
 />
    <glyph glyph-name="exclamdown" unicode="&#xa1;" horiz-adv-x="285" 
d="M217 767l-8 2q-2 16 -23 24q-15 4 -32 4q-22 0 -34 -4q-27 -9 -27 -30v-69q0 -21 27 -30q3 0 4 -1q4 -18 27 -24q15 -5 34 -5q17 0 32 5q24 9 24 29v69q0 21 -24 30zM154 787q46 0 46 -24v-69q0 -24 -46 -24q-51 0 -51 24v69q0 24 51 24zM248 -23q14 8 14 22l-39 569
q-3 28 -32 32q-7 27 -40 27q-40 0 -43 -33l-42 -569q-1 -15 14 -22q5 -3 17 -7q0 -13 14 -19q10 -6 25 -9q24 -4 44 -4q19 0 43 4q16 4 25 9zM182 593l39 -569q0 -24 -72 -24q-73 0 -73 24l42 569q0 10 9.5 17t23.5 7t22.5 -7t8.5 -17z" />
    <glyph glyph-name="cent" unicode="&#xa2;" 
d="M505 471q16 5 16 19v20q0 113 -80 167q-31 31 -74 47v30q0 11 -13 19q-9 5 -18 6v1q0 11 -13 19q-8 4 -21 6q-19 4 -35 4t-36 -4q-13 -2 -21 -6q-14 -7 -14 -19v-47q-72 -17 -112 -69t-40 -128v-284q0 -113 82 -169q30 -30 70 -46v-41q0 -13 14 -18q7 -4 17 -6v-2
q0 -10 13 -18q11 -5 22 -6q20 -4 36 -4q15 0 35 4q11 2 20 6q14 7 14 18v58q75 16 114.5 67.5t39.5 130.5v41q0 12 -13 21q-6 4 -18 8q-1 10 -13 18q-10 6 -23 9q-20 4 -40 4q-21 0 -42 -4q-15 -3 -25 -9q-14 -8 -14 -21v-50q0 -33 -15 -47.5t-48 -14.5q-12 0 -23 3
q-5 15 -5 33v301q0 64 59 64q11 0 25 -2q7 -16 7 -57q0 -14 13 -21q10 -6 18 -7q1 -12 12 -19q7 -4 23 -8q20 -4 39 -4q25 0 42 1q15 2 25 6zM480 516q0 -16 -51 -16h-22q-64 0 -64 23v21q0 74 -73 74q-69 0 -69 -74v-301q0 -72 69 -72q73 0 73 72v50q0 11 20 17.5t51 6.5
q29 0 47.5 -6.5t18.5 -17.5v-41q0 -79 -39.5 -127.5t-114.5 -62.5v-66q0 -8 -17 -13t-42 -5q-26 0 -43.5 5t-17.5 13v66q-72 14 -112 64t-40 126v284q0 75 40 124.5t112 64.5v55q0 8 17.5 13.5t43.5 5.5q25 0 42 -5.5t17 -13.5v-55q154 -31 154 -189v-20z" />
    <glyph glyph-name="sterling" unicode="&#xa3;" 
d="M113 -31q25 -6 55 -6h247q29 0 55 6q22 7 30 12q16 12 16 26v45q0 15 -16 27q-3 2 -16 7q-4 11 -15 18q-13 9 -30 12q-25 6 -55 6h-89q44 56 47 146h64q30 2 46 7q27 9 27 27v44q0 14 -16 24l-15 6q-2 11 -15 19q-10 6 -27 10q-25 4 -48 4h-57q-24 46 -33 69
q-23 53 -23 105q0 36 14.5 52t48.5 16q15 0 21 -2q4 -8 6 -30q1 -12 1 -39q0 -14 14 -22q9 -5 17 -8q1 -10 13 -18q9 -5 24 -9q21 -5 44 -5q19 0 39 4q15 4 23 9q14 6 14 20v25q0 120 -79 172q-57 61 -175 61q-95 0 -159 -47t-64 -141q0 -65 26 -122q8 -18 28 -52
q8 -12 24 -38q-16 2 -36 0q-23 -2 -33 -5q-20 -6 -20 -21v-58q0 -12 12 -20q8 -5 19 -7q0 -11 12 -19q5 -3 21 -8q14 -3 37 -3h24v-1q0 -68 -57 -115q-11 -8 -14 -10q-2 -1 -8 -5l-9 -6q-12 -10 -20 -18h-3l-3 -3q-11 -12 -11 -32v-45q0 -16 16 -26q10 -6 16 -8
q3 -11 15 -18q8 -6 30 -12zM137 -1q-40 0 -65.5 9.5t-25.5 24.5v45q0 17 8 25h3q4 5 11.5 11t10.5 9q45 25 68.5 63.5t23.5 80.5l-4 37h-61q-60 0 -60 21v58q0 16 49 16h49q-2 3 -14 21.5t-14 22t-12 19.5t-12 21t-9.5 19.5t-9.5 21.5t-6.5 21t-5.5 24.5t-2.5 24t-1.5 27.5
q0 80 55.5 129t157.5 49q107 0 160 -50.5t53 -146.5v-25q0 -10 -18.5 -16.5t-47.5 -6.5q-31 0 -51 7t-20 19v29q0 78 -69 78q-73 0 -73 -78q0 -31 9 -65.5t18 -54.5t26 -52t20 -38h81q80 0 80 -27v-44q0 -11 -18.5 -17.5t-47.5 -6.5h-71q0 -58 -18 -105t-70 -87h171
q40 0 65.5 -9.5t25.5 -24.5v-45q0 -15 -25.5 -24.5t-65.5 -9.5h-247z" />
    <glyph glyph-name="currency" unicode="&#xa4;" 
d="M171 199l37 33q39 -19 85 -19q48 0 85 18l7 -6q7 -7 15 -11l16 -15q19 -17 37 -17q17 0 31 12q4 2 11 9q2 1 3.5 3t3.5 4l3 3q2 1 4 3t3 4q4 5 4 13t-4 13l-4 4l-1 1q-1 1 -2 1l-22 17l-2 3l-4 4q-1 0 -3 2l-21 16q21 31 21 73q0 44 -22 76l53 39q11 9 11 22q0 6 -5 13
l-3 3l-2 2l-5.5 5.5t-4.5 5.5l-3 3t-3.5 4t-3.5 3q-4 3 -12 7l-8 8q-3 4 -11 10q-13 11 -31 11q-19 0 -39 -18l-36 -33q-41 21 -87 21q-43 0 -83 -20l-8 7q-5 5 -12 8l-18 17q-20 18 -41 18q-17 0 -31 -12l-12 -9l-10 -10q-8 -6 -8 -17q0 -13 12 -23l25 -20l6 -6l19 -15
q-16 -31 -16 -74q0 -44 17 -74l-51 -41q-12 -10 -12 -22q0 -9 13 -22q3 -2 8 -5.5t7 -4.5l6 -5q5 -7 10 -10l15 -11q1 -1 3 -2.5t3 -2.5t3.5 -2.5t3.5 -2.5q9 -6 21 -6q20 0 39 17zM176 270l-42 -38q-34 -30 -61 0l-19 14q-6 5 -4.5 12.5t7.5 11.5l58 47q-20 28 -20 76
q0 47 20 78l-58 45q-12 16 -3 25l19 17q28 25 61 -4l42 -38q41 23 86 23q49 0 88 -23l42 38q11 13 28.5 14.5t32.5 -10.5l15 -17q14 -11 0 -25l-61 -45q26 -31 26 -78t-26 -76l61 -47q8 -4 8 -11.5t-8 -12.5l-15 -14q-15 -14 -32 -13.5t-29 13.5l-42 38q-36 -21 -88 -21
q-49 0 -86 21zM262 334q31 0 50 16.5t19 42.5q0 28 -19 44.5t-50 16.5q-32 0 -51.5 -16.5t-19.5 -44.5q0 -26 19.5 -42.5t51.5 -16.5zM317 415q4 -12 4 -22q0 -23 -16.5 -36t-42.5 -13q-15 0 -26 4q-4 8 -4 19q0 24 17 37.5t44 13.5q12 0 24 -3z" />
    <glyph glyph-name="yen" unicode="&#xa5;" 
d="M249 -32q21 -5 44 -5q22 0 43 5q15 3 25 9q15 9 15 21v92h50q22 0 37 3q16 5 21 8q13 7 13 20v36q0 9 -10 17q-4 3 -16 7q-1 0 -2.5 0.5t-2.5 0.5v1q0 11 -9 16q-5 4 -17 8q-20 5 -42 5q-8 1 -22 1v38h50q22 0 36 3q16 4 22 7q13 9 13 20v38q0 9 -9 16q-7 5 -16 7
q-1 0 -3 1t-3 1v1q0 11 -9 16q-4 3 -16 7q-18 5 -40 5h-2q4 11 69 173q76 193 76 197q0 13 -14 19q-7 4 -17 6q0 14 -13 20q-5 2 -22 7q-15 2 -37 2q-28 0 -46 -4q-35 -7 -42 -27l-73 -210l-64 182q-6 16 -30 25h-1q-7 22 -45 29q-23 5 -49 5q-25 0 -41 -4q-12 -1 -23 -8
q-14 -8 -14 -21q0 -4 76 -195q44 -110 79 -195q-27 0 -42 -1q-28 -2 -39 -5q-10 -3 -15 -7q-9 -7 -9 -16v-38q0 -13 12 -19q7 -5 19 -7q0 -11 12 -19q8 -5 20 -7q17 -4 35 -4h18v-39q-18 2 -50 0q-29 -2 -41 -5q-12 -4 -16 -8q-9 -5 -9 -16v-36q0 -12 12 -20q9 -6 19 -7
q0 -10 11 -19q12 -6 20 -7q19 -4 36 -4h18v-66q0 -13 14 -22q14 -5 17 -6q1 -13 14 -19q10 -6 25 -9zM262 -1q-31 0 -52 7t-21 18v102h-59q-57 0 -57 21v36q0 8 16.5 13.5t40.5 5.5h59v85h-59q-57 0 -57 20v38q0 18 55 18h55l-159 397q-4 13 14.5 20t52.5 7q77 0 85 -27
l94 -265l92 268q8 24 79 24q33 0 49.5 -6t11.5 -18l-159 -400h59q54 0 54 -18v-38q0 -20 -61 -20h-60v-85h60q61 0 61 -19v-36q0 -21 -61 -21h-60v-102q0 -11 -21 -18t-52 -7z" />
    <glyph glyph-name="brokenbar" unicode="&#xa6;" horiz-adv-x="658" 
d="M322 419q20 -4 37 -4q16 0 35 4q13 2 21 7q13 6 13 19v410q0 11 -13 19q-9 4 -18 6v1q0 13 -13 19q-5 2 -21 7q-21 3 -35 3q-15 0 -36 -3q-14 -3 -22 -7q-13 -8 -13 -19v-410q0 -13 13 -19q6 -4 18 -7q0 -13 13 -19q8 -5 21 -7zM328 451q-61 0 -61 20v410q0 19 61 19
q59 0 59 -19v-410q0 -20 -59 -20zM322 -258q20 -4 37 -4q16 0 35 4q16 5 21 7q13 9 13 19v411q0 11 -13 19l-6 2t-6.5 2t-5.5 2v1q0 11 -13 19q-8 4 -21 6q-19 4 -35 4t-36 -4q-13 -2 -21 -6q-14 -7 -14 -19v-411q0 -12 13 -19q7 -4 18 -6v-1q0 -12 13 -19q11 -6 21 -7z
M328 -226q-27 0 -44 6t-17 14v411q0 8 17.5 13.5t43.5 5.5q25 0 42 -5.5t17 -13.5v-411q0 -8 -17 -14t-42 -6z" />
    <glyph glyph-name="dieresis" unicode="&#xa8;" horiz-adv-x="658" 
d="M219 809q19 -5 40 -5q20 0 39 5q14 3 22 9q13 7 13 21v68q0 13 -14 21q-7 4 -17 6q-1 12 -13 20q-13 6 -22 7q-16 3 -39 3t-39 -3q-9 -1 -22 -7q-13 -9 -13 -21v-68q0 -13 12 -21q10 -7 19 -8q1 -11 12 -18q8 -6 22 -9zM420 809q19 -5 40 -5q20 0 39 5q14 3 22 9
q13 7 13 21v68q0 13 -14 21q-7 4 -17 6q-1 12 -13 20q-13 6 -22 7q-16 3 -39 3t-39 -3q-8 -1 -22 -7q-13 -9 -13 -21v-68q0 -13 12 -21q9 -6 19 -9q1 -10 12 -17q6 -5 22 -9zM228 840q-29 0 -46.5 7t-17.5 18v68q0 21 64 21t64 -21v-68q0 -11 -17.5 -18t-46.5 -7zM429 840
q-29 0 -46.5 7t-17.5 18v68q0 21 64 21t64 -21v-68q0 -11 -17.5 -18t-46.5 -7z" />
    <glyph glyph-name="copyright" unicode="&#xa9;" horiz-adv-x="970" 
d="M828 683q-65 61 -155.5 93.5t-189.5 32.5q-123 0 -228 -48.5t-171.5 -145t-66.5 -222.5q0 -196 155 -314q66 -60 155.5 -93t186.5 -33q123 0 228.5 47.5t173.5 144t68 222.5q0 198 -156 316zM483 -11q-196 0 -326 115t-130 289q0 175 130 290.5t326 115.5
q199 0 329.5 -115.5t130.5 -290.5q0 -174 -130.5 -289t-329.5 -115zM483 68q160 0 261 91t101 234q0 144 -101 235t-261 91q-157 0 -259 -91.5t-102 -234.5t102 -234t259 -91zM745 613q90 -85 90 -220q0 -145 -101.5 -230t-250.5 -85q-134 0 -230 70q-90 87 -90 219
q0 144 101.5 230t249.5 86q137 0 231 -70zM606 605q-41 48 -128 48q-75 0 -116 -37.5t-41 -112.5v-219q0 -88 62 -125q41 -48 126 -48q74 0 116.5 36.5t42.5 110.5v47q0 9 -11 17q-7 4 -17 6q-1 1 -3 1v2q0 10 -11 17q-7 4 -17 6q-15 4 -28 4q-14 0 -30 -4q-10 -2 -17 -6
q-12 -7 -12 -17v-52q0 -23 -9.5 -33t-32.5 -10h-5q-1 5 -1 17v230q0 45 37 45h9q2 -12 2 -19v-31q0 -11 11 -18l18 -6h2v-2q0 -10 11 -17q7 -4 18 -6q18 -3 30 -3t28 3q10 2 17 6q11 7 11 17v25q0 91 -62 128zM478 147q-73 0 -110 35.5t-37 101.5v219q0 140 147 140
q149 0 149 -140v-25q0 -16 -46 -16q-49 0 -49 16v31q0 55 -52 55q-47 0 -47 -55v-230q0 -53 47 -53q52 0 52 53v52q0 6 14 11.5t35 5.5q19 0 32.5 -5.5t13.5 -11.5v-47q0 -66 -37.5 -101.5t-111.5 -35.5z" />
    <glyph glyph-name="guillemotleft" unicode="&#xab;" horiz-adv-x="441" 
d="M167 226q21 -3 38 -3q15 0 26 2q7 1 16 5q11 8 11 17q0 1 -1 3t-1 3l-2 4l-7 13q-3 6 -11 19.5t-11 18.5q-24 41 -34 55l22 35q-2 -6 -2 -9q0 -13 6 -20l76 -99q6 -9 22 -14l9 -12q8 -12 36 -18q19 -3 36 -3q15 0 26 2q12 2 16 4q11 8 11 16q0 3 -1 6q-1 1 -1 2
q-1 2 -1 3q-2 3 -7 13q-12 24 -20 38q-26 48 -31 56l31 53q11 17 20 36l7 12l2 4q1 3 1 6q0 10 -11 17q-10 4 -16 4q-1 1 -4 1q1 2 1 4q0 10 -11 16q-5 3 -17 5q-10 2 -26 2q-17 0 -36 -3q-25 -6 -36 -19l-73 -91q2 4 4 6q3 6 7 12t8 13t6 10q1 2 3.5 6.5t3.5 6.5l2 4
q1 3 1 6q0 11 -10 16q-5 3 -15 5q-2 1 -6 1q1 2 1 4q0 9 -11 16q-4 3 -15 5q-10 2 -25 2q-25 0 -38 -3q-28 -6 -38 -19l-76 -91l-3 -6l-2 -5q0 -2 -1 -3v-1l-2 -3v-3q0 -9 8 -20l76 -99q6 -9 22 -14l9 -12q8 -11 38 -18zM174 259q-54 0 -68 17l-76 99q-6 4 -6 14q1 2 2.5 8
t3.5 7l76 91q11 18 68 18q44 0 40 -15q0 -1 -1 -3l-64 -106l67 -113q5 -12 -20 -16zM365 259q-53 0 -64 17l-76 99q-4 2 -4 14q0 10 7 15l73 91q11 18 64 18q48 0 43 -15q0 -1 -1 -3l-61 -106l61 -113q9 -14 -29 -17h-13z" />
    <glyph glyph-name="uni00AD" unicode="&#xad;" horiz-adv-x="356" 
d="M101 305q25 -6 55 -6h107q29 0 55 6q22 7 30 12q16 12 16 26v49q0 17 -17 26q-5 4 -15 7q-2 11 -15 19q-14 8 -30 11q-26 6 -55 6h-107q-29 0 -55 -6q-16 -3 -30 -11q-16 -10 -16 -26v-49q0 -16 16 -27q6 -4 16 -7q3 -11 15 -18q8 -6 30 -12zM125 335q-42 0 -66.5 9.5
t-24.5 24.5v49q0 14 25 23.5t66 9.5h107q40 0 65.5 -9.5t25.5 -23.5v-49q0 -15 -25.5 -24.5t-65.5 -9.5h-107z" />
    <glyph glyph-name="registered" unicode="&#xae;" horiz-adv-x="970" 
d="M828 683q-65 61 -155.5 93.5t-189.5 32.5q-123 0 -228 -48.5t-171.5 -145t-66.5 -222.5q0 -196 155 -314q66 -60 155.5 -93t186.5 -33q123 0 228.5 47.5t173.5 144t68 222.5q0 198 -156 316zM483 -11q-196 0 -326 115t-130 289q0 175 130 290.5t326 115.5
q199 0 329.5 -115.5t130.5 -290.5q0 -174 -130.5 -289t-329.5 -115zM483 68q160 0 261 91t101 234q0 144 -101 235t-261 91q-157 0 -259 -91.5t-102 -234.5t102 -234t259 -91zM745 613q90 -85 90 -220q0 -145 -101.5 -230t-250.5 -85q-134 0 -230 70q-90 87 -90 219
q0 144 101.5 230t249.5 86q137 0 231 -70zM390 120q18 -3 30 -3q14 0 30 4q10 2 17 6q12 7 12 17v168h27q15 0 21 -2q1 -1 1 -2t0.5 -1.5t0.5 -1.5q3 -16 3 -38q-1 -15 -1 -46l3 -48q0 -6 3 -9l4 -4q9 -9 24 -14q0 -6 3 -8l1 -1q1 -1 2 -3q11 -11 31 -15q10 -2 31 -2
q11 0 28 3q13 5 16 7q10 6 10 18q-4 32 -4 48q-1 17 -1 53q0 31 -5 52q-10 48 -50 69v1q56 32 56 109q0 87 -60 120q-38 48 -130 48h-76q-23 0 -46 -5q-15 -3 -25 -9q-15 -9 -15 -23v-438q0 -9 11 -18q6 -4 17 -6h3v-2q0 -12 11 -17q5 -3 17 -7zM389 153q-48 0 -48 17v438
q0 11 21.5 19t54.5 8h76q149 0 149 -132q0 -85 -71 -110q71 -24 71 -117v-58l4 -48q2 -17 -44 -17t-54 14q-4 3 -4 7l-3 47v58q0 38 -15.5 53.5t-50.5 15.5h-37v-178q0 -17 -49 -17zM438 554v-127h42q61 0 61 57v14q0 31 -12.5 43.5t-41.5 12.5h-49zM529 518q2 -6 2 -20v-14
q0 -26 -12 -36.5t-39 -10.5h-1v81h39h11z" />
    <glyph glyph-name="macron" unicode="&#xaf;" horiz-adv-x="658" 
d="M243 821q26 -6 55 -6h120q28 0 54 6q17 3 30 11q17 11 17 25v26q0 14 -17 25l-14 6q-3 12 -17 20q-12 5 -30 9q-27 5 -54 5h-120q-27 0 -54 -5q-18 -4 -30 -9q-17 -11 -17 -25v-26q0 -16 17 -25q4 -3 14 -7q4 -12 16 -19q14 -8 30 -11zM267 851q-40 0 -65.5 9t-25.5 23
v26q0 29 91 29h120q91 0 91 -29v-26q0 -14 -25.5 -23t-65.5 -9h-120z" />
    <glyph glyph-name="degree" unicode="&#xb0;" 
d="M402 751q-53 58 -140 58q-67 0 -120.5 -42.5t-53.5 -110.5q0 -75 69 -122q54 -57 136 -57q69 0 123 42t54 111q0 76 -68 121zM262 513q-68 0 -116 42t-48 101t48 101t116 42q71 0 119 -41.5t48 -101.5t-48 -101.5t-119 -41.5zM262 599q29 0 49 16t20 41q0 26 -20 43.5
t-49 17.5q-28 0 -48 -18t-20 -43q0 -24 20 -40.5t48 -16.5zM316 677q5 -10 5 -21q0 -21 -17.5 -34t-41.5 -13q-13 0 -24 4q-3 8 -3 17q0 22 17 36.5t41 14.5q14 0 23 -4z" />
    <glyph glyph-name="plusminus" unicode="&#xb1;" 
d="M114 154q26 -5 54 -5h247q27 0 53 5q14 3 31 10q17 11 17 25v28q0 13 -15 24q-9 5 -17 8q-3 10 -14 18q-9 6 -27 10q-22 6 -48 6h-41v77h72q24 0 48 5q17 4 27 10q15 9 15 23v30q0 16 -15 25q-9 5 -17 8q-3 11 -14 17q-8 7 -26 11q-24 5 -49 5h-41v74q0 12 -12 18
q-6 5 -18 7h-1v1q0 11 -11 18q-8 5 -19 7q-12 3 -31 3t-32 -3q-12 -2 -18 -7q-12 -6 -12 -18v-100h-72q-25 0 -50 -5q-15 -3 -27 -11q-15 -9 -15 -24v-30q0 -13 15 -24q14 -6 16 -6q3 -12 15 -19q10 -6 28 -10q24 -5 49 -5h41v-77h-72q-26 0 -49 -6q-18 -4 -28 -10
q-15 -11 -15 -24v-28q0 -16 17 -25l14 -6q3 -13 17 -20t30 -10zM137 185q-41 0 -66 8.5t-25 21.5v28q0 12 23 21t59 9h82v123h-82q-37 0 -59.5 7.5t-22.5 20.5v30q0 13 22.5 21.5t59.5 8.5h82v110q0 18 52 18q51 0 51 -18v-110h82q37 0 58.5 -8t21.5 -22v-30q0 -28 -80 -28
h-82v-123h82q36 0 58 -9t22 -21v-28q0 -13 -25 -21.5t-66 -8.5h-247z" />
    <glyph glyph-name="acute" unicode="&#xb4;" horiz-adv-x="658" 
d="M308 806q11 -2 27 -2q55 0 79 22l95 85q8 6 8 17q0 12 -13 19q-9 4 -17 5v2q0 12 -14 19q-3 1 -6.5 2t-8 2t-6.5 2q-14 2 -35 2q-27 0 -50 -5q-37 -6 -49 -23l-64 -88q-4 -6 -4 -11q0 -10 11 -17q9 -4 16 -5q3 0 4 -1v-3q0 -12 11 -16q7 -4 16 -6zM304 840q-46 0 -44 15
l2 4l64 88q15 24 91 24q64 0 59 -19q0 -4 -4 -8l-95 -85q-16 -19 -73 -19z" />
    <glyph glyph-name="paragraph" unicode="&#xb6;" horiz-adv-x="590" 
d="M279 -142q17 -4 34 -4q16 0 33 4q11 2 19 7q11 9 11 19v777h28v-751q0 -13 11 -20q11 -6 19 -7h1q0 -11 11 -18q4 -3 19 -8q13 -3 34 -3q15 0 34 3q14 4 20 8q12 8 12 19v845q0 15 -17 26q-6 3 -15 6q-3 11 -16 19t-30 11q-25 6 -54 6h-156q-68 0 -122.5 -18.5t-92.5 -66
t-38 -118.5v-58q0 -53 23.5 -97t63.5 -72q43 -45 107 -57v-400q0 -12 11 -19q5 -3 19 -8h1q0 -11 11 -18q8 -5 19 -7zM282 -110q-54 0 -54 20v432q-83 0 -138.5 55t-55.5 139v58q0 92 65.5 142.5t177.5 50.5h156q40 0 65.5 -9t25.5 -23v-845q0 -20 -56 -20q-54 0 -54 20v787
h-79v-787q0 -20 -53 -20z" />
    <glyph glyph-name="periodcentered" unicode="&#xb7;" horiz-adv-x="247" 
d="M113 303q21 -5 43 -5q20 0 40 5q16 4 22 8q14 8 14 21v72q0 13 -14 21q-10 6 -17 7q-1 11 -13 19q-11 7 -23 8q-20 5 -40 5q-19 0 -42 -4q-15 -3 -25 -9q-14 -9 -14 -21v-72q0 -12 14 -21q5 -3 17 -7q1 -10 14 -19q6 -4 24 -8zM125 334q-31 0 -51 7t-20 17v72q0 10 20 17
t51 7q29 0 47.5 -7t18.5 -17v-72q0 -10 -18.5 -17t-47.5 -7z" />
    <glyph glyph-name="cedilla" unicode="&#xb8;" horiz-adv-x="658" 
d="M310 -106q-4 4 -4 9v6l-22 11h-59q-14 0 -22 -4q-15 -6 -15 -23q0 -11 8 -24q10 -18 33 -30q29 -43 128 -43q28 0 43 1q32 4 46 9q55 16 55 71q0 38 -37 53q-10 19 -33 27q-13 4 -22 5v17q0 10 -10 15q-3 2 -13 4q-2 1 -8 1v6q0 9 -10 14q-3 3 -12 5t-21 2l-20 -2
q-4 -1 -12 -5q-10 -7 -9 -15l4 -50q1 -15 21 -25q2 -1 5.5 -2.5t4.5 -1.5q3 -12 19 -21q-1 -15 -22 -15l-11 5h-5zM326 -168q-120 0 -128 61q0 8 8 14q4 3 19 3h57l14 -7q0 -11 9 -17.5t21 -6.5q32 0 32 28l-15 21q-3 2 -14.5 7.5t-16 9.5t-4.5 10l-4 50q0 11 31 11
q33 0 33 -11v-50q92 0 92 -52q0 -43 -34 -57t-100 -14z" />
    <glyph glyph-name="guillemotright" unicode="&#xbb;" horiz-adv-x="438" 
d="M79 225q10 -2 25 -2q18 0 37 3q27 4 38 18l68 89l-22 -37l-3.5 -7t-3.5 -6q-2 -4 -2 -5q-2 -3 -2 -6q0 -9 11 -16q5 -3 16 -5l4 -1v-3q0 -10 11 -17q7 -4 16 -5q10 -2 26 -2t37 3q29 6 39 18l76 99q4 8 4 11q1 3 1 9t-1 9q0 8 -5 13l-76 91q-8 9 -20 14l-10 11
q-10 13 -38 19q-13 3 -38 3q-15 0 -25 -2q-11 -2 -15 -5q-11 -4 -11 -16q0 -3 2 -6l2 -4q1 -3 7 -13q5 -9 21 -35l32 -53q-1 -3 -7.5 -13.5t-11.5 -18.5q0 1 0.5 3t0.5 3q0 13 -8 21l-72 91q-5 8 -20 14l-10 12q-11 14 -40 18q-19 4 -39 4q-15 0 -25 -2q-11 -2 -15 -5
q-11 -7 -11 -16l2 -6q0 -2 2 -4l7 -13q2 -3 6 -10t7.5 -13t7.5 -12l32 -53q-6 -11 -32 -57q-4 -7 -11.5 -20t-9.5 -17l-7 -14q-2 -2 -2 -4l-2 -6q0 -8 11 -16q10 -4 15 -4q2 -1 6 -1q-1 -2 -1 -5q0 -11 11 -15q4 -3 15 -5zM140 276q-9 -17 -67 -17q-44 0 -40 14q0 1 1 3
l64 113l-64 106q-7 12 15 16q10 2 24 2q55 0 71 -18l72 -91q5 -2 5 -15q0 -11 -5 -14zM335 276q-14 -17 -68 -17q-46 2 -42 17l67 113l-64 106q-8 12 15 16q10 2 24 2q57 0 68 -18l76 -91q3 -2 3 -15q0 -12 -3 -14z" />
    <glyph glyph-name="questiondown" unicode="&#xbf;" horiz-adv-x="478" 
d="M338 767q-3 11 -13 18q-6 5 -24 9q-16 3 -42 3t-42 -4q-12 -1 -24 -8q-14 -8 -14 -22v-69q0 -15 13 -22q4 -3 18 -8q3 -11 13 -18q9 -7 24 -10q20 -5 43 -5q22 0 42 5q15 4 24 10q13 9 13 22v69q0 13 -14 23q-5 3 -17 7zM259 787q69 0 69 -24v-69q0 -12 -19 -19.5
t-50 -7.5q-30 0 -50 7.5t-20 19.5v69q0 24 70 24zM333 559q-1 13 -13 19q-11 6 -22 8q-21 4 -39 4t-37 -4q-10 -1 -22 -8q-12 -8 -12 -20v-22q0 -33 -25 -73q-15 -23 -27 -37q-23 -28 -31 -38q-41 -51 -64.5 -97.5t-23.5 -105.5q0 -118 80 -170q58 -62 174 -62
q103 0 163 51.5t60 154.5v55q0 14 -14 22q-5 3 -17 7q-1 12 -14 18q-7 5 -23 9q-21 5 -42 5t-41 -5q-15 -4 -24 -9q-13 -9 -13 -21v-63q0 -66 -63 -66q-15 0 -25 3q-6 15 -6 37q0 36 12 70t25 54t37 52q4 6 14 18.5t14 19.5q9 13 25 41q25 48 25 101v25q0 13 -14 21
q-7 4 -17 6zM259 580q64 0 64 -22v-25q0 -81 -71 -167q-46 -58 -63.5 -100t-17.5 -89q0 -76 72 -76q73 0 73 76v63q0 10 19 17.5t49 7.5t49.5 -7.5t19.5 -17.5v-55q0 -94 -54.5 -145t-158.5 -51t-158.5 51t-54.5 145q0 52 21.5 99.5t73.5 108.5q76 88 76 143v22q0 22 61 22z
" />
    <glyph glyph-name="multiply" unicode="&#xd7;" 
d="M119 202q15 -12 35 -12q23 0 42 17l96 87l69 -61q10 -7 11 -8l20 -18q19 -17 42 -17q22 0 41 17q2 2 8 6q3 2 9 8q12 14 12 25t-7 17l-120 104l120 106q7 6 7 17t-11 22l-11 11q-5 5 -13 11q-7 5 -8 5l-3 3t-4 3.5t-3 3.5q-3 3 -13 11q-15 12 -35 12q-19 0 -42 -17
l-98 -87l-67 61q-4 5 -9 6l-21 19q-18 16 -42 16q-20 0 -37 -12q-1 -1 -14 -11l-12 -13l-2 -2q-2 -2 -3 -4q-3 -4 -3 -11q0 -13 8 -21l115 -103l-115 -105q-1 0 -2 -1l-3 -3q-6 -4 -6 -14q0 -12 12 -22l12 -10l12 -9l3.5 -3.5t2.5 -3.5q8 -5 13 -10q4 -4 14 -10zM159 240
q-35 -31 -71 0l-20 16q-8 7 -8 14t8 11l123 112l-123 110q-13 17 0 24l20 20q36 27 71 0l103 -93l106 93q16 15 35 15t35 -15l18 -17q14 -11 4 -24l-129 -113l129 -112q10 -11 -4 -25l-18 -16q-16 -14 -35 -14t-35 14l-106 94z" />
    <glyph glyph-name="divide" unicode="&#xf7;" 
d="M250 474q16 -4 43 -4q26 0 42 4q12 1 23 8q14 10 14 22v69q0 14 -14 22q-10 6 -17 7q-1 11 -13 19q-11 6 -24 8q-16 4 -42 4t-43 -4q-13 -2 -24 -8q-14 -8 -14 -22v-69q0 -14 14 -22q5 -3 17 -7q1 -11 13 -19q11 -6 25 -8zM262 506q-71 0 -71 24v69q0 24 71 24
q69 0 69 -24v-69q0 -24 -69 -24zM104 319q25 -6 55 -6h271q29 0 55 6q22 7 30 12q16 12 16 26v21q0 17 -17 26q-7 5 -15 8q-2 10 -15 18q-11 7 -30 11q-25 6 -55 6h-271q-29 0 -55 -5q-22 -7 -30 -12q-16 -10 -16 -26v-21q0 -17 16 -26q6 -5 16 -8q3 -11 15 -18q8 -6 30 -12
zM128 349q-41 0 -66 9.5t-25 24.5v21q0 15 25 24t66 9h271q41 0 66 -9t25 -24v-21q0 -15 -25.5 -24.5t-65.5 -9.5h-271zM250 130q21 -5 43 -5q20 0 41 4q15 4 24 9q14 8 14 21v71q0 14 -14 22q-5 3 -17 7q-1 12 -14 19q-9 6 -23 8q-20 5 -42 5t-43 -5q-18 -4 -24 -8
q-14 -10 -14 -22v-71q0 -13 14 -21q5 -3 17 -7q1 -10 14 -19q11 -6 24 -8zM262 161q-31 0 -51 7t-20 17v71q0 11 20 18t51 7t50 -7t19 -18v-71q0 -24 -69 -24z" />
    <glyph glyph-name="uni02BC" unicode="&#x2bc;" horiz-adv-x="0" 
d="M-11 521q9 -3 18 -3q6 0 22 4q4 1 12 5q7 4 11 10l49 97q9 18 9 37v66q0 13 -14 23q-5 3 -17 7q-3 11 -13 18q-6 5 -24 9q-16 3 -42 3t-42 -3q-18 -4 -24 -9q-13 -7 -13 -22v-72q0 -23 29 -30q1 -1 2 -1q3 -13 14 -19q-1 -3 -2.5 -7t-3.5 -9t-3 -8l-11 -33q-1 -5 -4 -11
q-1 -5 -1 -8q0 -8 7 -13q5 -3 10 -5q3 -1 8 -2t6 -1l-1 -4q0 -7 7 -14q8 -4 11 -5zM-24 554q-11 0 -19 4t-6 9l34 100h-12q-17 0 -27 6q-15 5 -15 18v72q0 24 69 24t69 -24v-66q0 -19 -8 -33l-49 -97q-9 -13 -36 -13z" />
    <glyph glyph-name="circumflex" unicode="&#x2c6;" horiz-adv-x="658" 
d="M211 806q20 -2 26 -2q46 0 72 16q15 10 26 21q7 6 22 21q12 -10 18 -14q3 -2 7 -6q17 -15 26 -21q27 -17 73 -17q15 0 25 2q6 1 16 5q11 7 11 17q0 4 -5 12l-73 88q-8 10 -21 14l-9 11q-11 15 -48 23q-22 5 -49 5q-26 0 -49 -5q-36 -8 -47 -23l-73 -88q-4 -6 -4 -12
q0 -9 10 -16q9 -4 16 -5q3 0 5 -1v-3q0 -12 10 -16q8 -4 15 -6zM206 840q-44 0 -41 15q0 2 2 4l73 88q21 24 88 24t89 -24l73 -88q10 -13 -17 -17l-23 -2q-52 0 -73 19l-49 44l-47 -44q-24 -19 -75 -19z" />
    <glyph glyph-name="caron" unicode="&#x2c7;" horiz-adv-x="658" 
d="M263 833q24 -29 96 -29q24 0 53.5 7t42.5 22l73 86q5 5 5 13q0 12 -11 16q-4 3 -15 5q-2 1 -5 1v4q0 10 -10 16q-4 3 -16 5q-10 2 -26 2q-45 0 -72 -17q-9 -5 -26 -20q-6 -6 -22 -20q-6 5 -18 13l-8 8q-17 15 -26 20q-26 16 -72 16q-16 0 -25 -2q-11 -2 -16 -5
q-10 -6 -10 -17q0 -8 4 -12l73 -86q9 -10 22 -16zM328 840q-67 0 -88 25l-73 86q-9 15 18 19l21 1q53 0 75 -20l47 -42l49 42q18 20 73 20q46 0 42 -15q0 -3 -2 -5l-73 -86q-23 -25 -89 -25z" />
    <glyph glyph-name="uni02C9" unicode="&#x2c9;" horiz-adv-x="658" 
d="M243 821q26 -6 55 -6h120q28 0 54 6q17 3 30 11q17 11 17 25v26q0 14 -17 25l-14 6q-3 12 -17 20q-12 5 -30 9q-27 5 -54 5h-120q-27 0 -54 -5q-18 -4 -30 -9q-17 -11 -17 -25v-26q0 -16 17 -25q4 -3 14 -7q4 -12 16 -19q14 -8 30 -11zM267 851q-40 0 -65.5 9t-25.5 23
v26q0 29 91 29h120q91 0 91 -29v-26q0 -14 -25.5 -23t-65.5 -9h-120z" />
    <glyph glyph-name="breve" unicode="&#x2d8;" horiz-adv-x="658" 
d="M274 953q-1 1 -3 5q-6 14 -27 20q-10 3 -28 3q-17 0 -27 -3q-10 -2 -16 -7q-9 -5 -9 -17q0 -16 11 -43q16 -39 51 -60q45 -50 133 -50q119 0 154 84q11 30 11 43q0 11 -10 17q-5 5 -15 7q-2 1 -6 1v1q0 12 -9 17q-6 5 -16 7q-10 3 -27 3q-18 0 -28 -3q-21 -6 -27 -20
q-9 -19 -21.5 -25.5t-36.5 -6.5q-10 0 -24 2l-2 4q-8 16 -27 20q-1 0 -1 1zM328 837q-69 0 -108 30.5t-46 86.5q0 17 42 17q41 0 46 -17q15 -38 66 -38q53 0 67 38q6 17 46 17q42 0 42 -17q-6 -55 -46.5 -86t-108.5 -31z" />
    <glyph glyph-name="dotaccent" unicode="&#x2d9;" horiz-adv-x="658" 
d="M318 809q20 -5 41 -5t41 5q13 3 23 9q13 9 13 21v68q0 12 -14 21q-7 4 -17 6q0 12 -14 20q-14 6 -23 7q-16 3 -40 3t-39 -3q-18 -5 -23 -7q-14 -8 -14 -21v-68q0 -14 13 -21q4 -3 18 -8q1 -10 13 -18q8 -6 22 -9zM328 840q-29 0 -47.5 7t-18.5 18v68q0 21 66 21
q67 0 67 -21v-68q0 -11 -18.5 -18t-48.5 -7z" />
    <glyph glyph-name="ring" unicode="&#x2da;" horiz-adv-x="658" 
d="M431 991q-37 45 -103 45q-49 0 -87 -29.5t-38 -79.5q0 -58 53 -90q39 -45 103 -45q49 0 87.5 29.5t38.5 79.5q0 59 -54 90zM328 828q-49 0 -82 28.5t-33 70.5t33 70.5t82 28.5q50 0 83 -28.5t33 -70.5t-33 -70.5t-83 -28.5zM328 889q19 0 31.5 10t12.5 28t-12.5 29.5
t-31.5 11.5q-18 0 -30 -11.5t-12 -29.5t12 -28t30 -10zM362 932v-5q0 -28 -34 -28h-1v2q0 14 9 22.5t23 8.5h3z" />
    <glyph glyph-name="ogonek" unicode="&#x2db;" horiz-adv-x="658" 
d="M292 -190q32 -14 80 -14q1 0 55 6q17 3 25 7q10 4 14 8q8 8 8 16v31q0 17 -22 20l-9 3v3q0 17 -21 20q-8 2 -10 2q-4 1 -13 1q-6 1 -20 1q1 11 12 29q8 10 10 12l3 4q4 5 4 8q0 8 -8 14q-2 1 -10 4q-6 1 -15 1q2 3 2 7q0 8 -7 13q-3 2 -11 5q-6 1 -16 1q-27 0 -51 -11
q-29 -13 -53 -40.5t-24 -57.5q0 -43 42 -65q13 -17 35 -28zM341 -168q-54 0 -85 18t-31 53q0 49 71 89q15 3 23 7l24 3q15 0 19 -3q9 -4 3 -10q-27 -25 -27 -55q0 -31 46 -31h15q15 0 20 -3q14 0 14 -10v-31q0 -6 -7.5 -11.5t-18.5 -6.5q-5 -3 -12 -3z" />
    <glyph glyph-name="tilde" unicode="&#x2dc;" horiz-adv-x="658" 
d="M514 939q-3 7 -7 11q-7 8 -18 12q-21 12 -37 12q-12 0 -23 -7q-4 -3 -7 -7q-3 -2 -7 -6q-12 -14 -26 -14q-5 0 -20 5q-4 2 -13.5 6t-14.5 7q-42 20 -76 20q-40 0 -71.5 -25t-50.5 -62q-2 -4 -2 -9q0 -20 33 -36q7 -14 28.5 -24.5t33.5 -10.5t21 7q6 4 8 7l6 6
q14 14 27 14q9 0 19 -5q12 -4 28 -12q44 -19 78 -19q73 0 121 87q3 4 3 9q0 11 -10 19q-5 5 -17 13q-4 2 -6 2zM228 859q-6 -11 -18.5 -12.5t-26.5 7.5l-16 8q-20 10 -15 24q46 82 113 82q27 0 78 -21q36 -17 46 -17q22 0 40 24q16 20 46 4l15 -8q9 -4 13.5 -11t1.5 -12
q-45 -82 -113 -82q-39 0 -79 20q-39 16 -46 16q-19 0 -39 -22z" />
    <glyph glyph-name="hungarumlaut" unicode="&#x2dd;" horiz-adv-x="658" 
d="M213 806q18 -2 24 -2q8 0 38 4q30 7 40 15l40 39q-2 -4 -2 -8q0 -11 10 -16q7 -4 16 -6q3 0 5 -1v-3q0 -10 10 -16q5 -3 15 -5q15 -3 26 -3q18 0 37 4q29 7 38 15l94 91q3 3 4 6q4 4 4 10q0 10 -13 18q-9 3 -18 5v3q0 10 -13 18q-11 4 -19 5q-13 2 -32 2q-27 0 -49 -5
q-34 -6 -47 -23l-8 -12q-4 4 -8 6q-9 5 -18 6v2q0 10 -13 18l-6 2t-7 2t-6 2q-13 2 -32 2q-26 0 -50 -5q-39 -9 -49 -23l-61 -88q-1 -2 -3 -4q-2 -4 -2 -8q0 -11 10 -16q3 -2 14 -5q2 0 4 -0.5t3 -0.5v-4q0 -10 10 -16q7 -4 14 -5zM206 840q-40 0 -38 14q0 2 3 5l61 88
q19 24 91 24q56 0 54 -17l-5 -7l-95 -91q-24 -16 -71 -16zM404 840q-43 0 -41 15l2 4l64 88q15 24 88 24q56 0 54 -16q0 -4 -5 -8l-94 -91q-18 -16 -68 -16z" />
    <glyph glyph-name="uni0302" unicode="&#x302;" horiz-adv-x="0" 
d="M-117 806q10 -2 26 -2q45 0 72 17q9 6 26 21q6 6 22 20q12 -10 18 -14q3 -2 7 -6q17 -15 26 -21q27 -17 73 -17q15 0 25 2q7 1 16 5q11 8 11 16q0 5 -3 8q-2 4 -3 5l-73 88q-7 9 -21 14l-9 11q-11 15 -47 23q-22 5 -49 5q-26 0 -49 -5q-36 -8 -47 -23l-73 -88q0 -1 -1 -2
q-2 -1 -2 -2q-2 -4 -2 -8q0 -12 11 -16q5 -3 16 -5q3 0 4 -1v-4q0 -9 11 -16q7 -3 15 -5zM-122 840q-45 0 -42 14q1 2 3 5l73 88q21 24 88 24t88 -24l73 -88q12 -13 -17 -18q-9 -1 -22 -1q-52 0 -73 19l-49 44l-49 -44q-21 -19 -73 -19z" />
    <glyph glyph-name="uni0304" unicode="&#x304;" horiz-adv-x="0" 
d="M-85 821q26 -6 55 -6h118q29 0 54 6q17 3 31 11q17 11 17 25v26q0 15 -18 25l-13 6q-3 12 -17 20q-12 6 -31 10q-22 4 -54 4h-118q-27 0 -54 -5q-18 -4 -30 -9q-17 -11 -17 -25v-26q0 -16 17 -25q4 -3 14 -7q4 -12 16 -19q14 -8 30 -11zM-61 851q-40 0 -65.5 9t-25.5 23
v26q0 29 91 29h118q92 0 92 -29v-26q0 -14 -25.5 -23t-66.5 -9h-118z" />
    <glyph glyph-name="uni0306" unicode="&#x306;" horiz-adv-x="0" 
d="M-57 953q0 1 -2 5q-7 16 -26 20q-9 3 -28 3q-17 0 -27 -3q-10 -2 -16 -7q-9 -5 -9 -17q0 -18 11 -43q18 -40 52 -60q42 -50 133 -50q116 0 153 84q12 30 12 43q0 11 -10 17q-5 5 -15 7q-2 1 -6 1v1q0 12 -9 17q-6 5 -16 7q-10 3 -27 3q-19 0 -28 -3q-19 -4 -26 -20
q-15 -32 -59 -32q-15 0 -27 3q0 1 -1 3q-6 15 -26 21h-3zM0 837q-139 0 -155 117q0 17 42 17q43 0 45 -17q10 -22 25.5 -30t42.5 -8q50 0 68 38q2 17 45 17q42 0 42 -17q-8 -55 -48 -86t-107 -31z" />
    <glyph glyph-name="uni0307" unicode="&#x307;" horiz-adv-x="0" 
d="M-11 809q20 -5 42 -5q21 0 41 5q15 4 23 9q14 8 14 21v68q0 12 -15 21q-4 2 -16 6q0 11 -14 20q-6 2 -24 7q-16 3 -40 3t-40 -3q-18 -5 -24 -7q-14 -9 -14 -21v-68q0 -12 13 -21q4 -3 18 -8q1 -10 13 -18q10 -6 23 -9zM0 840q-29 0 -48.5 7t-19.5 18v68q0 21 68 21
t68 -21v-68q0 -11 -19.5 -18t-48.5 -7z" />
    <glyph glyph-name="uni0308" unicode="&#x308;" horiz-adv-x="0" 
d="M-109 809q19 -5 40 -5q20 0 39 5q12 4 22 9q12 8 12 21v68q0 12 -13 21q-9 4 -18 6q-1 12 -13 20q-11 6 -22 7q-15 3 -38 3t-39 -3q-8 -1 -22 -7q-13 -9 -13 -21v-68q0 -13 12 -21q9 -6 19 -9q1 -10 12 -17q6 -5 22 -9zM91 809q20 -5 40 -5t39 5q16 4 22 9q13 7 13 21v68
q0 13 -14 21q-7 4 -17 6q-1 12 -13 20q-13 6 -22 7q-16 3 -39 3t-38 -3q-11 -1 -22 -7q-13 -7 -13 -21v-68q0 -13 12 -21q9 -6 19 -9q1 -10 12 -17q8 -5 21 -9zM-100 840q-29 0 -46.5 7t-17.5 18v68q0 21 64 21q63 0 63 -21v-68q0 -11 -17 -18t-46 -7zM100 840q-29 0 -46 7
t-17 18v68q0 21 63 21q64 0 64 -21v-68q0 -11 -17.5 -18t-46.5 -7z" />
    <glyph glyph-name="uni030A" unicode="&#x30a;" horiz-adv-x="0" 
d="M103 992q-36 44 -103 44q-50 0 -87.5 -29.5t-37.5 -79.5q0 -59 53 -90q37 -45 103 -45q49 0 87 29.5t38 79.5q0 59 -53 91zM0 828q-50 0 -82.5 28.5t-32.5 70.5t32.5 70.5t82.5 28.5t82.5 -28.5t32.5 -70.5t-32.5 -70.5t-82.5 -28.5zM0 889q18 0 30 10t12 28t-12 29.5
t-30 11.5t-30 -11.5t-12 -29.5t12 -28t30 -10zM32 932v-5q0 -28 -32 -28h-1v2q0 14 9 22.5t23 8.5h1z" />
    <glyph glyph-name="uni030B" unicode="&#x30b;" horiz-adv-x="0" 
d="M-116 807q15 -3 25 -3q8 0 38 4q29 6 39 15l43 42q-4 -6 -4 -11q0 -8 10 -16q7 -4 16 -6q3 0 5 -1v-3q0 -10 10 -16q5 -3 15 -5q15 -3 26 -3q18 0 37 4q29 7 38 15l93 91q3 3 5 6q3 6 3 10q0 10 -13 18q-5 3 -18 5v3q0 12 -13 18q-9 4 -19 5q-13 2 -31 2q-26 0 -49 -5
q-35 -6 -48 -23l-9 -12q-1 2 -4 4.5t-4 2.5q-12 4 -18 5v3q0 12 -13 17q-8 4 -19 6q-13 2 -32 2q-26 0 -50 -5q-39 -9 -49 -23l-61 -88q-4 -4 -4 -12q0 -10 10 -16q7 -3 15 -5q1 0 3 -0.5t3 -0.5v-3q0 -12 9 -16q8 -5 15 -5zM-122 840q-42 0 -39 15q0 2 2 4l61 88
q22 24 91 24q57 0 54 -17l-5 -7l-94 -91q-24 -16 -70 -16zM76 840q-42 0 -41 15l2 4l63 88q17 24 89 24q57 0 53 -17q-1 -3 -5 -7l-93 -91q-20 -16 -68 -16z" />
    <glyph glyph-name="uni030C" unicode="&#x30c;" horiz-adv-x="0" 
d="M-65 833q24 -29 96 -29q71 0 95 29l73 86q6 6 6 13q0 10 -11 17q-10 4 -16 4q-1 1 -4 1v4q0 12 -11 16q-5 3 -15 5q-11 2 -26 2q-46 0 -72 -17q-9 -5 -26 -20q-5 -5 -23 -21l-16 13q-4 3 -9 8q-17 15 -26 20q-26 17 -72 17q-15 0 -26 -2q-10 -2 -15 -5q-11 -4 -11 -16
q0 -8 5 -13l73 -86q9 -10 22 -16zM0 840q-67 0 -88 25l-73 86q-11 14 17 19q9 1 22 1q55 0 73 -20l49 -42l49 42q18 20 73 20q45 0 42 -14q-1 -3 -3 -6l-73 -86q-21 -25 -88 -25z" />
    <glyph glyph-name="uni0312" unicode="&#x312;" horiz-adv-x="0" 
d="M71 927q-2 9 -4 12l7 14l3 6q1 3 1 7q0 11 -9 17t-17 6q-1 0 -2.5 -0.5t-2.5 -0.5q1 2 1 4q0 11 -9 16.5t-18 5.5q-12 0 -29 -7t-23 -17q-10 -18 -20 -34l-1 -1v-1q-3 -3 -4 -5q-9 -15 -11 -39q0 -6 -2 -22.5t-2 -25.5q0 -11 12 -21q7 -4 19 -7q1 -11 12 -18q10 -6 21 -8
q20 -4 38 -4t37 4q11 2 21 8q13 7 13 20v62q0 22 -27 29h-4zM0 840q-61 0 -61 22l4 47q0 27 15 42l20 34q17 14 29 17h1q14 4 22 0q11 -5 7 -14l-25 -44h12q15 0 25 -3q12 -7 12 -17v-62q0 -22 -61 -22z" />
    <glyph glyph-name="uni0326" unicode="&#x326;" horiz-adv-x="0" 
d="M31 -243q20 5 30 20q19 28 22 34q6 9 12 25q2 9 4 26q0 15 3 42q0 14 -13 20q-4 2 -18 7q1 12 -13 19q-8 5 -21 7q-20 4 -37 4t-37 -4q-13 -2 -21 -7q-13 -6 -13 -19v-63q0 -21 27 -28q1 -1 4 -1q0 -6 4 -12l-7 -13l-3 -6q-2 -6 -2 -7q0 -16 19 -21q8 -2 12 -2v-2
q0 -17 19 -22q2 0 6 -1t6 -1h9h7zM-8 -212q-16 0 -22 3q-11 5 -7 14l25 41h-12q-5 0 -25 6q-12 7 -12 16v63q0 8 17 14t44 6t44 -6t17 -14l-4 -49q0 -23 -15 -44l-20 -30q-12 -13 -29 -17z" />
    <glyph glyph-name="uni0327" unicode="&#x327;" horiz-adv-x="0" 
d="M-25 -106q-4 4 -4 9v6l-5 3l-3 1q-3 1 -4 2q-2 1 -4 3l-7 2h-61q-34 0 -34 -27q0 -8 8 -24q12 -19 33 -30q30 -43 129 -43q28 0 43 1q21 1 46 8q54 18 54 72q0 38 -37 53q-9 17 -32 26q-10 4 -22 6v17q0 11 -10 14q-3 3 -13 5q-1 0 -3.5 0.5t-4.5 0.5v6q0 11 -10 14
q-8 4 -13 4q-14 3 -21 3q-5 0 -19 -2q-7 -2 -12 -5q-9 -5 -9 -14v-50q0 -10 9 -17q6 -4 13 -8q6 -2 9 -4q1 -6 8 -13q2 -1 14 -9h1q-1 -15 -22 -15h-1l-1 1l-5 2l-6 2h-4zM-8 -168q-119 0 -129 61q0 8 9 14q3 3 15 3h61l13 -7q0 -24 31 -24q32 0 32 28l-16 21l-15 7.5
t-16.5 9.5t-6.5 10v50q0 11 30 11q14 0 24 -3.5t10 -7.5v-50q91 0 91 -52q0 -43 -33.5 -57t-99.5 -14z" />
    <glyph glyph-name="uni0328" unicode="&#x328;" horiz-adv-x="0" 
d="M-36 -189q31 -15 79 -15q3 0 57 6q13 2 24 7q20 8 20 24v31q0 11 -9 16q-7 5 -15 5q-2 1 -7 1v4q0 10 -8 16q-5 3 -15 5q-9 2 -34 2l-7 1q3 14 13 27q1 2 4.5 6.5t5.5 6.5q0 1 2 2.5t2 2.5q3 5 3 8q0 15 -17 18q-3 1 -10 1h-6q2 3 2 7q0 15 -17 18q-2 0 -5 0.5t-4 0.5h-7
q-6 0 -26.5 -4t-26.5 -7q-8 -4 -12 -7q-9 -6 -10 -7q-53 -37 -53 -84q0 -43 42 -65q13 -18 35 -27zM12 -168q-53 0 -84 18.5t-31 52.5q0 49 69 89q14 2 26 7l23 3q15 0 19 -3q7 -4 3 -10q-29 -26 -29 -55q0 -16 14 -23.5t32 -7.5h15q16 0 22 -3q12 0 12 -10v-31
q0 -15 -24 -18q-6 -3 -11 -3z" />
    <glyph glyph-name="uni0335" unicode="&#x335;" horiz-adv-x="0" 
d="M-72 311q26 -5 54 -5h98q26 0 54 5q19 4 30 10q17 9 17 25v44q0 14 -17 25l-14 6q-3 12 -17 20q-12 5 -30 9q-27 5 -54 5h-98q-27 0 -54 -5q-18 -4 -30 -9q-17 -11 -17 -25v-44q0 -16 17 -25q4 -3 14 -7q3 -11 16 -19q12 -6 31 -10zM-49 342q-91 0 -91 30v44q0 29 91 29
h98q91 0 91 -29v-44q0 -30 -91 -30h-98z" />
    <glyph glyph-name="uni0336" unicode="&#x336;" horiz-adv-x="0" 
d="M-207 312q25 -6 55 -6h366q29 0 54 6q17 3 30 11q17 11 17 26v38q0 15 -17 26q-6 3 -15 6q-3 11 -16 19t-30 11q-25 6 -54 6h-366q-29 0 -54 -6q-17 -3 -30 -11q-17 -9 -17 -25v-38q0 -16 16 -26q6 -4 16 -7q3 -12 15 -19q13 -8 30 -11zM-183 342q-41 0 -66 9t-25 24v38
q0 14 25.5 23t65.5 9h366q40 0 65.5 -9t25.5 -23v-38q0 -15 -25 -24t-66 -9h-366z" />
    <glyph glyph-name="uni0337" unicode="&#x337;" horiz-adv-x="0" 
d="M-167 -52q18 -8 34 -8q8 0 13 2q11 2 15 11l189 420q170 378 170 385q0 18 -26 30q-1 1 -2 1t-1.5 0.5t-1.5 0.5q-5 14 -25 23q-18 9 -35 9q-9 0 -13 -2q-11 -4 -14 -12q-3 -7 -33 -73.5t-74 -163.5t-82 -182q-171 -382 -171 -386q0 -19 26 -29l6 -3q3 -13 25 -23z
M-145 -17q-3 -6 -15 -7.5t-26 4.5q-32 10 -27 27l358 797q8 17 41 3q32 -10 27 -27z" />
    <glyph glyph-name="uni0338" unicode="&#x338;" horiz-adv-x="0" 
d="M-176 -46q20 -9 39 -9q24 0 33 17l369 781l1 6v1q0 19 -30 33h-2q-5 16 -29 25q-23 10 -40 10q-3 0 -15 -2q-12 -5 -15 -13q-5 -11 -34.5 -72.5t-76 -160t-84.5 -179.5l-121 -257q-32 -70 -39 -84q-7 -17 -11 -24l-3 -7l-1 -6q0 -20 28 -34l1 -1h3q5 -16 27 -24zM-144 -8
q-8 -21 -54 -6q-32 12 -27 30l369 783q4 8 20 8.5t34 -6.5q31 -14 27 -29z" />
    <glyph glyph-name="uni2002" unicode="&#x2002;" horiz-adv-x="395" 
 />
    <glyph glyph-name="uni2003" unicode="&#x2003;" horiz-adv-x="658" 
 />
    <glyph glyph-name="uni2007" unicode="&#x2007;" 
 />
    <glyph glyph-name="figuredash" unicode="&#x2012;" 
d="M67 312q25 -6 55 -6h343q29 0 55 6q17 3 30 11q17 9 17 26v38q0 15 -17 26l-5 2.5t-5.5 2.5t-4.5 1q-2 10 -16 20q-10 6 -30 10q-26 6 -55 6h-343q-29 0 -54 -6q-17 -3 -30 -11q-17 -9 -17 -25v-38q0 -16 16 -26q6 -4 16 -7q3 -12 15 -19q13 -8 30 -11zM91 342
q-41 0 -66 9t-25 24v38q0 14 25.5 23t65.5 9h343q41 0 66.5 -9t25.5 -23v-38q0 -15 -25 -24t-67 -9h-343z" />
    <glyph glyph-name="endash" unicode="&#x2013;" horiz-adv-x="395" 
d="M67 312q25 -6 55 -6h213q29 0 54 6q17 3 30 11q17 11 17 26v38q0 15 -17 26q-6 3 -15 6q-3 11 -16 19t-30 11q-25 6 -54 6h-213q-29 0 -54 -6q-17 -3 -30 -11q-17 -9 -17 -25v-38q0 -16 16 -26q6 -4 16 -7q3 -12 15 -19q13 -8 30 -11zM91 342q-41 0 -66 9t-25 24v38
q0 14 25.5 23t65.5 9h213q40 0 65.5 -9t25.5 -23v-38q0 -15 -25 -24t-66 -9h-213z" />
    <glyph glyph-name="emdash" unicode="&#x2014;" horiz-adv-x="658" 
d="M67 312q25 -6 55 -6h475q29 0 54 6q17 3 30 11q17 11 17 26v38q0 15 -17 26q-6 3 -15 6q-3 11 -16 19t-30 11q-25 6 -54 6h-475q-29 0 -54 -6q-17 -3 -30 -11q-17 -9 -17 -25v-38q0 -16 16 -26q6 -4 16 -7q3 -12 15 -19q13 -8 30 -11zM91 342q-41 0 -66 9t-25 24v38
q0 14 25.5 23t65.5 9h475q40 0 65.5 -9t25.5 -23v-38q0 -15 -25 -24t-66 -9h-475z" />
    <glyph glyph-name="quoteleft" unicode="&#x2018;" horiz-adv-x="247" 
d="M113 502q21 -5 43 -5q20 0 40 5q13 3 23 9q13 9 13 21v77q0 20 -16 24l-15 3q0 8 -5 14q9 22 17 39q2 6 8.5 20.5t8.5 20.5q5 10 6 14l1 2q0 1 1 1q1 4 1 6q0 9 -10 14l-12 3q-4 1 -11 1l1 2l1 5q0 11 -9 14q-3 2 -13 4q-8 1 -19 1q-14 0 -23 -2q-10 -3 -13 -4
q-8 -2 -12 -9l-64 -121q-11 -20 -11 -40v-63q0 -14 14 -22q5 -3 17 -7q1 -13 14 -18q7 -5 24 -9zM125 533q-31 0 -51 7t-20 18v63q0 25 10 35l64 121q3 10 39 10q33 -1 31 -10l-53 -124h14q2 0 6 -0.5t8.5 -2t5.5 -1.5h4q8 -4 8 -14v-77q0 -11 -18.5 -18t-47.5 -7z" />
    <glyph glyph-name="quoteright" unicode="&#x2019;" horiz-adv-x="247" 
d="M90 500q12 -3 20 -3q10 0 23 3q10 2 13 4q9 5 11 10l65 120q10 16 10 40v63q0 15 -13 22q-4 3 -18 8q-3 11 -13 18q-7 5 -22 9q-16 3 -41 3q-26 0 -43 -3q-18 -4 -24 -9q-14 -8 -14 -22v-73q0 -20 24 -29q3 0 7 -2q1 -7 6 -12l-41 -99q-5 -12 7 -18q5 -3 12 -5
q2 0 6.5 -0.5t5.5 -0.5l-1 -2q-4 -11 7 -18q3 -2 13 -4zM79 533q-30 0 -30 11l51 123h-12q-10 0 -20 6q-14 4 -14 17v73q0 24 71 24q66 0 66 -24v-63q0 -20 -8 -36l-65 -120q-7 -11 -39 -11z" />
    <glyph glyph-name="quotesinglbase" unicode="&#x201a;" horiz-adv-x="247" 
d="M101 -170q7 -1 18 -1q15 0 23 2q20 3 26 15l58 120q9 22 9 38v65q0 14 -14 22q-5 3 -17 7q-1 13 -14 18q-7 5 -23 9q-23 4 -42 4q-20 0 -43 -4q-15 -4 -24 -9q-14 -8 -14 -21v-76q0 -14 14 -21v-6h10h7q0 -10 9 -17q-1 -4 -3.5 -11.5t-5 -14.5t-4.5 -13l-14 -41
q-1 -2 -1.5 -4t-1 -3.5l-1 -3t-1.5 -2.5v-2l-1 -2l-1 -5q0 -10 9 -13q4 -2 12 -4q4 -1 12 -1q-1 -1 -1 -3q-1 -3 -1 -5q0 -9 9 -13q2 -1 11 -4zM88 -135q-15 0 -22.5 2.5t-4.5 8.5l42 123h-12q-4 0 -12.5 1.5t-10.5 1.5v3q-5 0 -9.5 4.5t-4.5 9.5v76q0 11 20 17.5t51 6.5
q69 0 69 -24v-65q0 -20 -8 -34l-58 -120q-4 -11 -40 -11z" />
    <glyph glyph-name="quotedblleft" unicode="&#x201c;" horiz-adv-x="441" 
d="M113 502q21 -5 43 -5q20 0 40 5q13 3 23 9q13 9 13 21v77q0 20 -16 24l-15 3q0 8 -5 14q9 22 17 39q2 6 8.5 20.5t8.5 20.5q5 10 6 14l1 2q0 1 1 1q1 4 1 6q0 9 -10 14l-12 3q-4 1 -11 1l1 2l1 5q0 11 -9 14q-3 2 -13 4q-8 1 -19 1q-14 0 -23 -2q-10 -3 -13 -4
q-8 -2 -12 -9l-64 -121q-11 -20 -11 -40v-63q0 -14 14 -22q5 -3 17 -7q1 -13 14 -18q7 -5 24 -9zM306 502q20 -5 41 -5q22 0 42 5q18 4 25 9q14 9 14 21v77q0 10 -10 18q-7 5 -17 7q-1 1 -4 1q0 9 -6 15q2 5 7.5 18.5t8.5 21.5q2 5 7.5 20t8.5 21q4 12 5 14l1 4q1 2 1 5
q0 7 -9 13q-6 3 -11 3q-5 1 -13 1q1 3 2 3l1 5q0 9 -10 14q-2 1 -6 2t-5 1q-7 1 -17 1q-14 0 -23 -2q-1 0 -13 -3q-9 -4 -12 -10l-64 -121q-10 -20 -10 -40v-63q0 -14 13 -21q4 -3 18 -8q1 -10 13 -18q8 -6 22 -9zM125 533q-31 0 -51 7t-20 18v63q0 25 10 35l64 121
q3 10 39 10q33 -1 31 -10l-53 -124h14q2 0 6 -0.5t8.5 -2t5.5 -1.5h4q8 -4 8 -14v-77q0 -11 -18.5 -18t-47.5 -7zM316 533q-29 0 -47.5 7t-18.5 18v63q0 26 9 35l64 121q5 10 39 10q29 -1 27 -10l-48 -124h12l20 -4q14 -4 14 -14v-77q0 -11 -20 -18t-51 -7z" />
    <glyph glyph-name="quotedblright" unicode="&#x201d;" horiz-adv-x="441" 
d="M90 500q12 -3 20 -3q10 0 23 3q10 2 13 4q9 5 11 10l65 120q10 16 10 40v63q0 15 -13 22q-4 3 -18 8q-3 11 -13 18q-7 5 -22 9q-16 3 -41 3q-26 0 -43 -3q-18 -4 -24 -9q-14 -8 -14 -22v-73q0 -20 24 -29q3 0 7 -2q1 -7 6 -12l-41 -99q-5 -12 7 -18q5 -3 12 -5
q2 0 6.5 -0.5t5.5 -0.5l-1 -2q-4 -11 7 -18q3 -2 13 -4zM287 499q14 -2 18 -2q9 0 23 3q5 0 13 4q8 2 11 10l64 120q12 21 12 40v63q0 13 -14 23q-7 4 -17 6q-1 12 -14 19q-6 5 -24 9q-17 3 -43 3q-25 0 -41 -3q-15 -4 -22 -9q-13 -9 -13 -22v-73q0 -9 4 -16q4 -11 16 -11
q5 -3 11 -4l3 -11q2 -2 2 -3q-2 -7 -7.5 -20.5t-7.5 -19.5q-12 -30 -17 -41l-5 -13l-2 -4l-1 -5q0 -10 9 -13q2 -1 11 -4q10 -2 13 -2q0 -1 -0.5 -1t-0.5 -1l-1 -5q0 -7 9 -13q3 -2 11 -4zM79 533q-30 0 -30 11l51 123h-12q-10 0 -20 6q-14 4 -14 17v73q0 24 71 24
q66 0 66 -24v-63q0 -20 -8 -36l-65 -120q-7 -11 -39 -11zM274 533q-27 0 -28 9q0 1 1 2l49 123h-14q-10 0 -20 6h-3q-9 4 -9 17v73q0 24 66 24q71 0 71 -24v-63q0 -19 -10 -36l-64 -120q-4 -11 -39 -11z" />
    <glyph glyph-name="quotedblbase" unicode="&#x201e;" horiz-adv-x="441" 
d="M90 -169q8 -2 20 -2q15 0 23 2q17 2 24 14l65 117q10 19 10 42v65q0 12 -13 21q-6 4 -18 8q-1 10 -13 18q-10 6 -23 9q-20 4 -40 4t-43 -4q-15 -4 -24 -9q-14 -8 -14 -21v-76q0 -17 14 -22v-5h10h7q0 -8 5 -15l-40 -97q-5 -10 6 -19q8 -4 13 -4q8 -2 12 -2l-1 -1
q-4 -11 6 -18q4 -3 14 -5zM287 -170q7 -1 18 -1q15 0 23 1q19 5 24 15l64 117q12 22 12 42v65q0 13 -15 22q-6 4 -16 6q-1 13 -14 19q-9 5 -24 9q-23 4 -43 4t-40 -4q-13 -3 -23 -9q-13 -9 -13 -21v-76q0 -7 3 -13q3 -9 11 -10l4 -4h4q6 0 9 -1q0 -3 2 -11q1 -2 3 -4
q-1 -2 -6.5 -16.5t-9.5 -22.5l-16 -41q-1 -2 -2.5 -7t-2.5 -7q-1 0 -1 -2q0 -1 -1 -2q-1 -3 -1 -5q0 -10 9 -13q4 -2 12 -4q4 -1 12 -1q0 -1 -1 -3t-1 -5q0 -9 9 -13q2 -1 11 -4zM79 -135q-30 0 -30 11l51 123h-12q-2 0 -10 1.5t-10 1.5v3q-14 0 -14 14v76q0 11 20 17.5
t51 6.5q29 0 47.5 -6.5t18.5 -17.5v-65q0 -21 -8 -37l-65 -117q-4 -11 -39 -11zM274 -135q-15 0 -22.5 2.5t-4.5 8.5l49 123h-14q-2 0 -10 1.5t-10 1.5l-3 3q-9 0 -9 14v76q0 11 18.5 17.5t47.5 6.5q31 0 51 -6.5t20 -17.5v-65q0 -20 -10 -37l-64 -117q-3 -11 -39 -11z" />
    <glyph glyph-name="bullet" unicode="&#x2022;" horiz-adv-x="395" 
d="M323 480q-48 53 -125 53q-62 0 -112 -39t-50 -101q0 -70 63 -109q49 -55 130 -55q61 0 109.5 38t48.5 100q0 71 -64 113zM198 265q-64 0 -108 37.5t-44 90.5q0 54 44 92t108 38q63 0 105.5 -38t42.5 -92t-42.5 -91t-105.5 -37z" />
    <glyph glyph-name="ellipsis" unicode="&#x2026;" horiz-adv-x="658" 
d="M98 -32q21 -5 43 -5q21 0 42 5q16 4 23 9q14 8 14 21v71q0 14 -14 22q-5 3 -17 7q-1 13 -14 18q-7 5 -23 9q-23 4 -42 4q-20 0 -43 -4q-15 -4 -24 -9q-14 -8 -14 -21v-71q0 -12 14 -22q14 -5 17 -6q2 -14 14 -19q10 -6 24 -9zM317 -32q20 -5 42 -5t42 5q14 2 25 8
q14 10 14 22v71q0 13 -14 22q-5 3 -17 7q-1 10 -14 19q-6 4 -24 8q-23 4 -43 4q-19 0 -42 -4q-16 -4 -23 -9q-14 -8 -14 -21v-71q0 -12 14 -22q5 -3 17 -7q1 -12 13 -18q6 -5 24 -9zM536 -32q21 -5 43 -5q21 0 41 5q14 3 24 9q14 8 14 21v71q0 12 -14 21q-5 3 -17 7
q-1 10 -14 19q-11 7 -23 8q-21 5 -42 5q-19 0 -42 -4q-18 -4 -24 -8q-14 -10 -14 -22v-71q0 -14 14 -22q5 -3 17 -7q1 -12 13 -18q6 -5 24 -9zM110 -1q-31 0 -51 7t-20 18v71q0 10 20 17t51 7q69 0 69 -24v-71q0 -11 -19 -18t-50 -7zM328 -1q-31 0 -50 7t-19 18v71
q0 24 69 24q71 0 71 -24v-71q0 -11 -19.5 -18t-51.5 -7zM548 -1q-32 0 -51 7t-19 18v71q0 24 70 24q29 0 49 -7t20 -17v-71q0 -10 -20 -17.5t-49 -7.5z" />
    <glyph glyph-name="guilsinglleft" unicode="&#x2039;" horiz-adv-x="247" 
d="M167 226q21 -3 38 -3q15 0 26 2q7 1 16 5q11 8 11 17q0 1 -1 3t-1 3l-2 4l-7 13q-3 6 -11 19.5t-11 18.5q-24 41 -34 55q2 2 33 53q3 6 7 12t8 13t6 10q1 2 3.5 6.5t3.5 6.5l2 4q1 3 1 6q0 11 -10 16q-5 3 -15 5q-2 1 -6 1q1 2 1 4q0 9 -11 16q-4 3 -15 5q-10 2 -25 2
q-25 0 -38 -3q-28 -6 -38 -19l-76 -91l-3 -6l-2 -5q0 -2 -1 -3v-1l-2 -3v-3q0 -9 8 -20l76 -99q6 -9 22 -14l9 -12q8 -11 38 -18zM174 259q-54 0 -68 17l-76 99q-6 4 -6 14q1 2 2.5 8t3.5 7l76 91q11 18 68 18q44 0 40 -15q0 -1 -1 -3l-64 -106l67 -113q5 -12 -20 -16z" />
    <glyph glyph-name="guilsinglright" unicode="&#x203a;" horiz-adv-x="247" 
d="M79 225q10 -2 25 -2q18 0 37 3q27 4 38 18l76 99q7 10 7 20q0 13 -8 21l-72 91q-5 8 -20 14l-10 12q-11 14 -40 18q-19 4 -39 4q-15 0 -25 -2q-11 -2 -15 -5q-11 -7 -11 -16l2 -6q0 -2 2 -4l7 -13q2 -3 6 -10t7.5 -13t7.5 -12l32 -53q-6 -11 -32 -57q-4 -7 -11.5 -20
t-9.5 -17l-7 -14q-2 -2 -2 -4l-2 -6q0 -8 11 -16q10 -4 15 -4q2 -1 6 -1q-1 -2 -1 -5q0 -11 11 -15q4 -3 15 -5zM140 276q-9 -17 -67 -17q-44 0 -40 14q0 1 1 3l64 113l-64 106q-7 12 15 16q10 2 24 2q55 0 71 -18l72 -91q5 -2 5 -15q0 -11 -5 -14z" />
    <glyph glyph-name="fraction" unicode="&#x2044;" horiz-adv-x="114" 
d="M-114 -34q11 -3 27 -3q19 0 30 3q21 4 29 20l342 756q2 6 2 9q0 11 -11 15q-2 1 -14 4l-7 1q2 4 2 6q0 9 -11 15q-5 2 -15 4q-9 1 -23 1q-20 0 -31 -2q-24 -2 -32 -19l-342 -756q-1 -2 -1 -6q0 -8 9 -17q3 -2 9 -4t7 -2q4 0 6 -1l-1 -1q0 -11 10 -17q7 -4 15 -6zM-118 -1
q-44 0 -41 17l342 756q4 15 54 15q41 0 38 -12q0 -1 -1 -3l-342 -756q-2 -17 -50 -17z" />
    <glyph glyph-name="Euro" unicode="&#x20ac;" 
d="M58 288v-103q0 -119 79 -170q58 -62 175 -62q103 0 161 52t58 154v41q0 14 -13 23q-4 3 -18 8q-2 10 -13 17q-8 6 -22 10q-16 4 -42 4t-43 -4q-15 -4 -24 -9q-13 -9 -13 -23v-49q0 -36 -13.5 -51t-47.5 -15q-9 0 -23 2q-5 12 -5 38v127h103q30 0 53 7q17 3 29 11
q16 12 16 26q0 16 -17 24l-14 6q-3 12 -17 20q-11 5 -29 9q-25 6 -52 6h-72v17h103q27 0 53 5q14 3 29 11q16 10 16 25q0 14 -17 25l-14 6q-3 11 -16 19q-11 6 -30 10q-26 5 -52 5h-72v73q0 35 13.5 51.5t45.5 16.5q9 0 23 -2q7 -19 7 -64q0 -13 13 -20q4 -2 18 -7
q0 -10 13 -19q5 -3 22 -8q22 -3 39 -3q25 0 42 2q15 2 25 6q16 7 16 20v20q0 120 -80 172q-57 61 -170 61q-106 0 -164.5 -51t-58.5 -156l-1 -92q-9 0 -14 -1q-23 -6 -23 -23v-25q0 -14 4 -19q4 -7 18 -11q5 0 9 -1q0 -9 4 -14q1 -2 3 -4v-25q-12 -2 -19 -2h-3l-2 -2
q-14 -7 -14 -22q0 -3 -0.5 -11.5t-0.5 -13.5q2 -20 15 -28l2 -1h2q3 0 7 -0.5t6 -0.5q0 -11 7 -18zM281 -11q-107 0 -160 50.5t-53 145.5v129h-11q-2 0 -8 1.5t-10 1.5q-9 5 -9 14v30q0 9 9 14q4 0 10 1t8 1h11v63h-11q-11 0 -18 3q-9 0 -9 11v32q0 7 9 12q7 2 18 2h11v102
q0 96 53 146.5t160 50.5q103 0 156 -51t53 -146v-20q0 -18 -52 -18h-21q-64 0 -64 21v24q0 78 -71 78q-69 0 -69 -78v-109h113q39 0 63.5 -8t24.5 -21q0 -31 -88 -31h-113v-63h113q37 0 62.5 -8.5t25.5 -20.5q0 -15 -25 -24.5t-63 -9.5h-113v-137q0 -42 17 -59t52 -17
q36 0 53.5 17t17.5 59v49q0 26 70 26q67 0 67 -26v-41q0 -95 -53 -145.5t-156 -50.5z" />
    <glyph glyph-name="trademark" unicode="&#x2122;" horiz-adv-x="784" 
d="M158 355q11 -2 28 -2t28 2q10 2 17 6q11 7 11 17v303h40q14 0 34 4q11 5 13 7q8 6 8 14v23q0 15 -17 26l-15 6q-3 11 -16 19q-10 7 -30 11q-26 6 -55 6h-101q-29 0 -54 -6q-17 -3 -30 -11q-17 -9 -17 -25v-23q0 -9 8 -15q1 -1 14 -6q3 0 9 -2v-3q0 -8 8 -14q6 -4 14 -6
q9 -3 34 -5h11v-277q0 -11 10 -17q9 -4 17 -6q2 0 4 -1v-2q0 -11 10 -17q7 -4 17 -6zM398 355q10 -2 25 -2t25 2q11 2 15 5q11 7 11 16v99l18 -78q2 -8 12 -13q4 -2 14 -4h3l2 -9q3 -9 12 -13q4 -2 14 -4q9 -1 23 -1t23 1q10 2 15 4q10 5 11 13l19 84l1 -53q0 -12 11 -16
q7 -5 15 -5q2 -1 5 -1v-4q0 -10 10 -16q5 -3 16 -5q10 -2 26 -2t26 2q12 2 17 5q11 4 11 16v361q0 14 -14 22q-5 4 -17 8q-1 10 -13 18q-10 6 -23 9q-16 3 -42 3q-28 0 -45 -4q-13 -2 -24 -8q-14 -7 -17 -20l-26 -125l-22 99q-4 19 -30 27q-6 21 -41 28q-17 3 -45 3
q-25 0 -41 -3q-15 -4 -22 -9q-13 -9 -13 -22v-361q0 -10 10 -16q4 -3 15 -5q2 -1 6 -1v-4q0 -9 9 -16q4 -2 15 -5zM155 389q-45 0 -45 15v313h-49q-49 0 -49 15v23q0 14 25.5 23t65.5 9h101q41 0 66.5 -9t25.5 -23v-23q0 -15 -46 -15h-49v-313q0 -15 -46 -15zM392 389
q-39 0 -39 13v361q0 24 66 24q73 0 76 -24l49 -230l49 230q6 24 76 24q68 0 68 -24v-361q0 -13 -44 -13q-42 0 -42 13l-4 289l-66 -292q-3 -10 -40 -10q-36 0 -39 10l-68 292l-1 -289q0 -13 -41 -13z" />
    <glyph glyph-name="minus" unicode="&#x2212;" 
d="M104 319q25 -6 55 -6h271q29 0 55 6q22 7 30 12q16 12 16 26v21q0 17 -17 26q-7 5 -15 8q-2 10 -15 18q-11 7 -30 11q-25 6 -55 6h-271q-29 0 -55 -5q-22 -7 -30 -12q-16 -10 -16 -26v-21q0 -17 16 -26q6 -5 16 -8q3 -11 15 -18q8 -6 30 -12zM128 349q-41 0 -66 9.5
t-25 24.5v21q0 15 25 24t66 9h271q41 0 66 -9t25 -24v-21q0 -15 -25.5 -24.5t-65.5 -9.5h-271z" />
    <glyph glyph-name="uni2215" unicode="&#x2215;" 
d="M78 -34q16 -3 29 -3q19 0 38 4q16 4 22 7q11 5 17 15l351 750q1 2 1 7q0 10 -11 17q-7 4 -17 6h-3q0 1 1 3q0 10 -12 17q-7 4 -17 6q-12 2 -29 2q-16 0 -37 -3q-11 -2 -20 -6q-12 -6 -16 -15l-354 -750q-2 -4 -2 -8q0 -11 11 -18q1 -1 17 -6h3v-2q0 -11 11 -17
q7 -4 17 -6zM76 -1q-50 0 -47 17l1 3l354 750q8 18 64 18q24 0 37 -5t10 -13l-351 -750q-12 -20 -68 -20z" />
    <glyph glyph-name="uni2219" unicode="&#x2219;" horiz-adv-x="289" 
d="M125 291q25 -5 51 -5q25 0 50 5q22 7 27 11q16 10 16 24v82q0 15 -15 26q-5 3 -17 7q-3 10 -14 18q-12 8 -27 11q-25 5 -51 5t-51 -5q-18 -4 -28 -11q-15 -9 -15 -25v-82q0 -16 15 -25l16 -7q2 -10 15 -18q8 -5 28 -11zM145 322q-38 0 -61 8.5t-23 21.5v82q0 31 84 31
q83 0 83 -31v-82q0 -13 -23 -21.5t-60 -8.5z" />
    <glyph glyph-name="approxequal" unicode="&#x2248;" 
d="M508 533q-9 15 -31 26t-36 11q-15 0 -28 -11q-2 -1 -10 -9l-9 -10q-22 -24 -44 -24q-19 0 -37 9q-19 9 -39 21q-60 32 -98 32q-53 0 -89 -27t-71 -77q-4 -6 -4 -12q0 -20 34 -37q8 -15 32 -27t37 -12q17 0 30 10l10 10q2 2 4.5 5.5t3.5 4.5q19 23 44 23q15 0 35 -9
q6 -2 12.5 -5.5t14.5 -8t13 -6.5q58 -33 99 -33q96 0 160 104q3 4 3 11q0 22 -36 41zM113 434q-23 -24 -59 -3l-20 14q-18 13 -10 23q36 52 70.5 76t81.5 24q43 0 94 -32q57 -30 80 -30q32 0 64 41q9 13 25.5 13.5t32.5 -10.5l21 -14q13 -14 9 -24q-36 -52 -70.5 -75.5
t-81.5 -23.5q-40 0 -95 32q-59 30 -79 30q-19 0 -32.5 -9.5t-30.5 -31.5zM509 337q-8 15 -31.5 26.5t-36.5 11.5q-14 0 -28 -10l-10 -10l-10 -10q-22 -24 -43 -24q-16 0 -36 9q-8 4 -40 22q-58 33 -98 33q-97 0 -160 -104q-4 -5 -4 -13q0 -18 34 -37q8 -14 32.5 -26.5
t37.5 -12.5q16 0 29 11q2 1 10 9l9 10q19 23 43 23q17 0 36 -9q22 -10 41 -21q58 -33 97 -33q91 0 160 107q3 4 3 10q0 21 -35 38zM113 240q-23 -25 -59 -2l-20 14q-18 10 -10 24q35 52 69.5 75.5t82.5 23.5q39 0 94 -33q59 -31 80 -31q31 0 64 41q9 13 25.5 13.5
t32.5 -10.5l21 -13q15 -12 9 -22q-36 -53 -71 -77.5t-81 -24.5q-39 0 -95 34q-7 3 -20.5 9.5t-18.5 9t-13.5 5.5t-14.5 4t-12 1q-19 0 -32.5 -9.5t-30.5 -31.5z" />
    <glyph glyph-name="notequal" unicode="&#x2260;" 
d="M106 123q10 -2 25 -2q18 0 34 4q25 4 35 18l56 80h162q28 0 54 5q20 4 30 11q17 9 17 25v24q0 15 -16 27q-3 2 -16 7q-4 11 -15 18q-12 9 -30 12q-25 6 -55 6h-37l32 46h63q20 0 39 5q14 3 22 9q13 11 13 21v51q0 12 -17 19q-10 2 -14 2v5q0 13 -16 18l6 8q3 6 9.5 15.5
t9.5 13.5l7 10l2 4q1 3 1 6q0 11 -10 16q-9 4 -16 5h-5v3l1 2q0 8 -11 16q-5 2 -15 4t-25 2q-23 0 -36 -3q-26 -4 -36 -18l-55 -81h-159q-32 0 -54 -4q-14 -3 -30 -10q-17 -11 -17 -25v-26q0 -16 17 -25q4 -3 14 -7q4 -12 16 -19q14 -8 30 -11q26 -6 55 -6h35l-32 -46
q-29 3 -64 0q-29 -2 -45 -8q-26 -9 -26 -28v-52q0 -7 6 -13q5 -4 11 -5l14 -3v-5q0 -8 6 -12q3 -4 8 -5l-6 -9q-4 -5 -10 -15t-9 -14q-1 -2 -3.5 -5.5t-3.5 -4.5l-2 -4q-1 -3 -1 -6q0 -11 11 -16q3 -2 15 -4q1 0 3 -1h2q-1 -2 -1 -5q0 -9 11 -15q4 -3 16 -5zM100 157
q-43 0 -41 13q0 2 2 4l57 85h-35q-34 0 -34 11v52q0 10 17.5 18t46.5 8h66l64 92h-103q-41 0 -66 9t-25 23v26q0 29 91 29h164l58 85q9 17 64 17q44 0 40 -14q0 -1 -1 -3l-58 -85h34q37 0 37 -11v-51q0 -11 -18.5 -18t-45.5 -7h-68l-64 -92h105q40 0 65.5 -9.5t25.5 -24.5
v-24q0 -31 -91 -31h-167l-59 -85q-10 -17 -61 -17z" />
    <glyph glyph-name="lessequal" unicode="&#x2264;" 
d="M495 553q-8 14 -27 17q-2 6 -4 9q-10 18 -46 18q-23 0 -59 -10l-274 -82q-17 -7 -22 -10q-16 -11 -16 -24v-53q0 -13 16 -24q4 -3 16 -8q2 -8 15 -18q14 -9 22 -10l274 -82q30 -10 58 -10q20 0 32 6q21 10 21 30v27q0 15 -19 27l-13 7q-3 9 -18 19q-12 7 -25 11l-128 35
l158 43q10 2 25 10q20 13 20 26q0 18 -1 25q0 11 -5 21zM362 577q43 14 70.5 9t27.5 -25v-28q0 -16 -37 -27l-225 -61l225 -62q37 -11 37 -28v-27q0 -21 -27.5 -25.5t-70.5 8.5l-274 82q-31 10 -31 25v53q0 14 31 24zM124 141q26 -6 56 -6h219q30 0 55 6q22 6 30 12
q17 9 17 26v24q0 15 -17 26l-15 6q-2 10 -16 20q-11 6 -30 10q-22 4 -55 4h-219q-33 0 -55 -4q-16 -3 -30 -11q-17 -9 -17 -25v-24q0 -16 16 -26q10 -6 16 -8q3 -11 15 -18q8 -6 30 -12zM149 171q-41 0 -66.5 9.5t-25.5 24.5v24q0 30 92 30h219q92 0 92 -30v-24
q0 -15 -25.5 -24.5t-66.5 -9.5h-219z" />
    <glyph glyph-name="greaterequal" unicode="&#x2265;" 
d="M94 284q7 -14 27 -17q-6 0 -16 -2q-20 -4 -30 -10q-17 -9 -17 -26v-24q0 -16 16 -27q6 -4 16 -7q3 -11 15 -18q8 -6 30 -12q25 -6 55 -6h218q29 0 55 6q22 7 30 12q16 10 16 26v24q0 17 -17 26q-6 5 -15 6q-2 10 -16 20q-10 6 -30 10q-21 4 -54 4h-207q18 3 28 7l274 82
q10 2 21 10q16 13 16 24v53q0 13 -16 24q-4 3 -16 8q-2 9 -15 18q-5 4 -21 10l-274 82q-36 10 -59 10q-19 0 -31 -6q-19 -9 -19 -30v-28q0 -13 18 -26q7 -4 14 -7q3 -10 17 -19q13 -8 24 -10l127 -35l-158 -43q-14 -5 -24 -11q-18 -11 -18 -27v-24q2 -15 5 -21q8 -14 28 -17
q0 -5 3 -9zM164 311q-44 -13 -70 -8.5t-26 25.5v27q0 17 35 28l225 62l-225 61q-35 10 -35 27v28q0 21 26 25.5t70 -9.5l274 -82q30 -10 30 -24v-53q0 -15 -30 -25zM159 171q-42 0 -66.5 9.5t-24.5 24.5v24q0 30 91 30h218q91 0 91 -30v-24q0 -15 -24.5 -24.5t-66.5 -9.5
h-218z" />
    <glyph glyph-name="caroncomb.alt" horiz-adv-x="0" 
d="M-11 521q9 -3 18 -3q6 0 22 4q7 2 12 5q7 4 11 10l49 103q8 16 8 38v59q0 14 -14 22q-5 4 -17 8q-1 10 -13 18q-10 6 -23 9q-16 3 -42 3t-42 -3q-13 -3 -23 -9q-13 -7 -13 -22v-69q0 -13 11 -20q4 -3 18 -8h2q0 -10 10 -18h1l2 -1l-9 -27q-8 -26 -11 -35q0 -2 -1 -4.5
t-2 -4.5t-1 -3q-1 -5 -1 -8q0 -8 7 -13q5 -3 10 -5q3 -1 8 -2t6 -1l-1 -4q0 -7 7 -14q8 -4 11 -5zM-24 554q-11 0 -19 4t-6 9l34 106h-12q-10 0 -25 5h-2q-14 6 -14 16v69q0 24 68 24t68 -24v-59q0 -15 -7 -34l-49 -103q-9 -13 -36 -13z" />
    <glyph glyph-name="_FSHallmark" horiz-adv-x="980" 
d="M92 784h819v-96h-819v96zM805 505q0 10 -7 22q-9 10 -18 17q-16 8 -23 10q-3 0 -11.5 1.5t-12.5 1.5q-25 0 -47 -12q-20 -13 -20 -29q0 -30 18 -40q25 -13 44 -17l65 -15q17 -6 29 -7q5 -1 24 -6q3 -2 10.5 -5.5t10.5 -5.5q21 -13 31 -27q11 -18 12 -43q1 -26 -10 -49
q-25 -41 -72 -58q-48 -15 -93 -15q-39 0 -67 9q-26 7 -57 27q-25 18 -42 47q-15 27 -15 64l95 -2q0 -5 4 -14q2 -15 14 -26q11 -11 25 -17q17 -9 46 -9q32 0 52 12q20 9 20 25q0 30 -78 46q-74 18 -120 43q-49 26 -49 82q0 48 32 74q31 25 72 39q34 8 68 8q48 0 93 -18
q44 -18 65 -65q11 -27 11 -48h-99zM200 228h-108v407h345v-93h-237v-91h197v-91h-197v-132zM428 277q0 21 14 35q13 13 35 13q20 0 39 -14q16 -13 16 -34q0 -19 -16 -34q-17 -13 -39 -13q-19 0 -34 15q-15 13 -15 32zM90 177h820v-97h-820v97z" />
    <glyph glyph-name="_Fontastica" horiz-adv-x="980" 
d="M283 147h-113q-1 2 -1 5v664h497v-102h-383v-273h384v-103h-384v-191zM355 626h385v190h113v-667h-498v101h385v273h-385v103zM740 82q-7 -4 -7 -10q0 -9 5 -14q4 -6 12 -6q9 0 18 6l6 -6q-9 -11 -24 -11q-10 0 -21 6q-6 7 -9 21q-1 13 8 22q10 10 22 10q14 0 24 -10
l-6 -8q-1 1 -3 2.5t-3 2.5q-1 2 -9 2h-3q-9 -4 -10 -7zM170 99h42v-10h-27v-16h26v-9h-26v-22h-15v57zM264 99q18 0 29 -15q8 -11 2 -26q-6 -16 -25 -17l-7 -3q-8 0 -12 4q-18 8 -18 25q0 15 9 23q6 9 22 9zM374 42h-3q-2 -1 -4 -1q-5 0 -9 6l-6 8q0 2 -2 4.5t-3 3.5l-12 14
v-35h-13v57h11q4 -1 6 -8q9 -9 13 -14q1 -2 5 -8l6 -9v39h11v-57zM399 99h48v-10h-18v-47h-12v47h-18v10zM577 72q12 -2 12 -13q1 -12 -10 -17q-2 -1 -11 -1q-19 0 -27 9q1 1 1 2l1 2q0 2 2 4l18 -6h8q4 6 4 3q0 9 -13 12q-2 0 -3 1t-5 1q-9 3 -9 13q-3 9 8 15q6 2 13 2
q14 0 23 -5l-5 -10q-2 1 -4 1q-1 0 -3 1q-1 1 -4 1q-1 0 -2 2h-8q-4 0 -4 -4q-2 -2 4 -8q6 -1 14 -5zM608 99h50v-10h-18v-47h-13v47h-19v10zM681 99h15v-57h-15v57zM832 99l12 -27q0 -2 6 -16q4 -10 7 -14h-13l-5 12h-28l-5 -12h-13q15 29 23 57h16zM497 97q2 -6 6 -13
q2 -2 4 -7t3 -6q0 -2 2 -7t3 -8t3 -7.5t2 -6.5h-13q-1 1 -1 5l-1 2q-1 1 -1.5 2t-0.5 3h-26q-1 -2 -1 -7q-1 -1 -1 -2l-3 -3h-12l24 55h13zM281 71q0 8 -4 13q-7 5 -14 5q-2 -2 -4 -2q-6 -1 -11 -9q-6 -7 -1 -14q4 -13 17 -13q4 0 5 1q12 3 12 17v2zM499 64q-1 0 -1 2t-1 3
t-2 3l-1 2q-1 2 -1 6q-1 1 -2 3l-1 2l-10 -21h19zM833 64q-1 1 -1 5q-2 5 -3 5q-1 1 -1 3t-1 3l-1 2q-1 2 -2 3l-9 -21h18z" />
    </font>
</defs>
</svg>
