<svg width="589" height="392" viewBox="0 0 589 392" fill="none" xmlns="http://www.w3.org/2000/svg">
<path d="M250.49 102.885C278.623 83.4105 354.923 31.1916 432.602 74.5591C510.28 117.927 486.401 256.073 455.33 292.261C424.259 328.449 327.557 331.034 250.325 334.049C173.093 337.065 136.426 295.707 113.549 256.504C90.6707 217.3 110.958 149.532 164.038 138.828C217.117 128.125 232.807 115.127 250.49 102.885Z" fill="#EDF3FF"/>
<path opacity="0.51" d="M304.426 315.002C328.721 315.002 348.416 310.141 348.416 304.144C348.416 298.148 328.721 293.286 304.426 293.286C280.131 293.286 260.436 298.148 260.436 304.144C260.436 310.141 280.131 315.002 304.426 315.002Z" fill="#3177DB"/>
<path opacity="0.51" d="M398.03 305.119C428.014 305.119 452.322 300.258 452.322 294.261C452.322 288.265 428.014 283.403 398.03 283.403C368.045 283.403 343.737 288.265 343.737 294.261C343.737 300.258 368.045 305.119 398.03 305.119Z" fill="#3177DB"/>
<path d="M499.437 277.611H89.4626V281.067H499.437V277.611Z" fill="#6980E0"/>
<path opacity="0.37" d="M94.9915 147.521C94.9915 147.521 98.0296 185.572 174.835 185.496C251.64 185.421 302.462 152.942 352.655 172.694C402.848 192.446 492.441 156.737 492.441 156.737L510.133 209.082L464.53 280.342H106.211L60.9037 201.313L94.9915 147.521Z" fill="#A4C5FF"/>
<path opacity="0.37" d="M80.751 224.646C80.751 224.646 141.161 263.91 229.202 239.095C317.242 214.28 368.397 198.272 426.542 209.079C484.687 219.887 493.742 193.071 493.742 193.071L468.712 279.341H114.843L80.751 224.646Z" fill="#A4C5FF"/>
<path d="M187.176 301.097L186.879 300.128C186.949 300.459 187.048 300.783 187.176 301.097Z" fill="#8C98D3"/>
<path d="M255.877 299.083L255.751 300.196C255.833 299.831 255.876 299.458 255.877 299.083Z" fill="#8C98D3"/>
<path d="M221.323 285.99C202.24 285.99 186.77 291.852 186.77 299.083C186.77 299.434 186.807 299.784 186.879 300.128L187.176 301.096C189.732 307.371 204.041 312.175 221.323 312.175C239.417 312.175 254.26 306.905 255.751 300.195L255.876 299.083C255.876 291.852 240.406 285.99 221.323 285.99Z" fill="#8C98D3"/>
<path opacity="0.62" d="M224.834 255.471C201.885 244.925 195.569 234.014 171.769 241.65L186.872 300.513V300.519C186.941 300.851 187.041 301.175 187.169 301.488C189.725 307.763 204.033 312.567 221.315 312.567C239.41 312.567 254.253 307.297 255.743 300.587C255.826 300.222 255.868 299.849 255.869 299.475L268.787 239.104C268.787 239.104 247.785 266.017 224.834 255.471Z" fill="url(#paint0_linear)"/>
<path d="M173.344 280.878C173.344 280.878 181.165 215.061 123.649 184.421C123.649 184.421 120.191 249.532 173.344 280.878Z" fill="#A4B2F7"/>
<path d="M173.701 282.548C173.614 282.548 173.529 282.522 173.458 282.472C173.386 282.423 173.332 282.354 173.301 282.273C163.203 256.014 152.679 235.107 145.629 222.191C137.988 208.196 132.666 200.311 132.614 200.233C132.556 200.139 132.536 200.025 132.56 199.917C132.583 199.809 132.647 199.713 132.739 199.651C132.831 199.589 132.944 199.565 133.053 199.584C133.163 199.602 133.261 199.663 133.327 199.752C133.38 199.831 138.717 207.741 146.375 221.768C153.441 234.709 163.986 255.657 174.102 281.966C174.142 282.073 174.138 282.191 174.091 282.295C174.044 282.399 173.958 282.48 173.851 282.52C173.803 282.538 173.752 282.547 173.701 282.548Z" fill="white"/>
<path d="M171.169 280.526C171.169 280.526 167.873 277.69 164.719 268.751C161.446 259.478 157.69 249.056 144.291 232.456C130.893 215.856 115.822 204.226 106.788 208.815C97.754 213.405 116.043 218.168 112.604 224.911C109.164 231.654 108.404 238.33 119.777 245.102C131.151 251.874 119.109 258.168 128.461 264.959C137.814 271.75 140.278 267.427 151.074 271.805C161.869 276.184 171.169 280.526 171.169 280.526Z" fill="#8491EF"/>
<g opacity="0.69">
<path opacity="0.69" d="M168.156 279.56C152.434 249.071 138.706 232.803 129.965 224.529C120.545 215.609 114.801 213.85 114.744 213.831L115.019 212.906C115.259 212.977 121.042 214.752 130.625 223.829C136.229 229.134 141.979 235.855 147.716 243.806C154.879 253.732 162.043 265.615 169.009 279.127L168.156 279.56Z" fill="#3147AF"/>
</g>
<path d="M234.623 69.7885L132.242 84.4671C131.641 84.5532 131.066 84.7729 130.561 85.1099C130.057 85.447 129.634 85.8928 129.324 86.4146L122.976 97.1204C122.689 97.6059 122.506 98.146 122.439 98.7061C122.372 99.2662 122.423 99.834 122.589 100.373L166.925 243.331C167.323 244.628 168.172 245.74 169.318 246.466C170.465 247.192 171.834 247.486 173.179 247.293L274.597 233.567C275.199 233.48 275.773 233.261 276.278 232.924C276.783 232.587 277.205 232.141 277.515 231.619L283.178 220.781C283.466 220.296 283.649 219.756 283.715 219.196C283.782 218.636 283.731 218.068 283.566 217.529L239.082 72.6129C238.799 71.6885 238.194 70.8957 237.376 70.3778C236.558 69.8598 235.582 69.6508 234.623 69.7885Z" fill="url(#paint1_linear)"/>
<path d="M280.369 221.976L177.826 236.676C176.931 236.804 176.02 236.609 175.257 236.125C174.494 235.641 173.929 234.901 173.664 234.038L129.225 89.3081C129.065 88.7858 129.02 88.235 129.093 87.6937C129.166 87.1524 129.356 86.6332 129.649 86.172C129.943 85.7108 130.332 85.3184 130.792 85.0217C131.251 84.725 131.769 84.5311 132.311 84.4534L234.852 69.7534C235.748 69.6251 236.659 69.8205 237.423 70.3044C238.186 70.7882 238.751 71.5286 239.016 72.3918L283.454 217.12C283.614 217.643 283.66 218.193 283.587 218.735C283.514 219.276 283.324 219.796 283.031 220.257C282.738 220.718 282.348 221.111 281.889 221.408C281.429 221.705 280.911 221.899 280.369 221.976Z" fill="#F7AAAA"/>
<path d="M266.048 214.997L185.342 226.565C183.358 226.849 181.336 226.417 179.641 225.348C177.946 224.278 176.688 222.64 176.093 220.729L141.461 109.293C141.1 108.13 140.996 106.903 141.156 105.696C141.316 104.49 141.736 103.332 142.387 102.303C143.039 101.274 143.906 100.399 144.929 99.7367C145.952 99.0747 147.107 98.642 148.314 98.4686L229.019 86.9008C231.004 86.6169 233.026 87.0486 234.721 88.1184C236.416 89.1882 237.674 90.8261 238.268 92.7381L272.896 204.174C273.256 205.336 273.361 206.563 273.201 207.769C273.041 208.975 272.621 210.132 271.97 211.161C271.32 212.19 270.453 213.065 269.431 213.728C268.408 214.39 267.254 214.823 266.048 214.997Z" fill="#FFF5F5"/>
<path d="M228.23 84.4319C230.698 83.824 232.144 81.0839 231.458 78.3117C230.773 75.5394 228.217 73.7849 225.749 74.3928C223.281 75.0006 221.836 77.7408 222.521 80.513C223.207 83.2852 225.763 85.0398 228.23 84.4319Z" fill="#E5CACA"/>
<path d="M229.869 83.9316C232.337 83.3237 233.782 80.5836 233.097 77.8113C232.411 75.0391 229.855 73.2845 227.388 73.8924C224.92 74.5003 223.474 77.2404 224.16 80.0126C224.845 82.7849 227.401 84.5394 229.869 83.9316Z" fill="white"/>
<path d="M215.315 78.748L151.317 88.0343C150.172 88.2004 149.379 89.2613 149.545 90.404L149.546 90.4052C149.712 91.5478 150.775 92.3395 151.919 92.1734L215.917 82.8871C217.062 82.721 217.855 81.6601 217.688 80.5175L217.688 80.5162C217.522 79.3736 216.459 78.5819 215.315 78.748Z" fill="#E5CACA"/>
<path d="M216.269 78.5516L152.245 87.5901C151.1 87.7518 150.303 88.8095 150.465 89.9526L150.465 89.9538C150.627 91.0969 151.687 91.8925 152.832 91.7309L216.855 82.6924C218.001 82.5307 218.797 81.473 218.636 80.3299L218.635 80.3287C218.473 79.1856 217.414 78.39 216.269 78.5516Z" fill="white"/>
<path d="M209.513 91.2154C209.513 91.2154 216.938 90.6073 218.808 98.8531C220.679 107.099 213.212 110.529 213.212 110.529C213.212 110.529 212.244 118.297 219.993 129.626C227.742 140.955 240.15 150.71 229.477 169.423C218.805 188.136 185.748 180.515 169.455 171.515C153.161 162.515 148.689 150.127 157.539 139.061C166.389 127.994 171.855 128.726 172.562 120.751C173.269 112.777 172.137 107.49 174.178 101.35C176.219 95.2095 182.141 95.1367 182.141 95.1367C182.141 95.1367 183.857 87.21 194.51 86.5554C205.162 85.9008 209.513 91.2154 209.513 91.2154Z" fill="url(#paint2_linear)"/>
<path opacity="0.55" d="M170.835 167.003C170.835 167.003 160.263 163.126 164.146 150.095C168.029 137.063 171.267 138.033 180.113 133.186C188.959 128.339 186.694 125 184.969 119.722C183.243 114.444 185.184 109.502 190.884 110.173C196.584 110.844 196.974 103.137 193.342 101.269C193.342 101.269 199.869 103.387 203.815 101.449C207.762 99.5102 208.589 99.906 212.041 100.013C215.493 100.12 213.624 92.3311 209.506 91.2179L216.218 91.0018L222.907 97.6432L222.584 106.941L217.082 112.397C217.082 112.397 210.932 119.172 213.186 124.636C215.441 130.1 218.743 133.682 220.208 139.81C221.673 145.937 229.632 168.051 210.932 173.508C192.233 178.964 170.835 167.003 170.835 167.003Z" fill="#132660"/>
<path d="M223.673 174.946C223.673 174.946 223.925 189.127 225.13 189.117C226.336 189.107 249.583 190.36 252.944 189.243C256.306 188.126 268.403 184.288 269.294 190.751C270.185 197.214 254.123 195.212 254.123 195.212C254.123 195.212 228.664 197.452 222.073 197.309C215.482 197.166 215.473 187.082 215.005 183.751C214.537 180.421 214.163 175.943 214.163 175.943C214.163 175.943 219.04 173.814 223.673 174.946Z" fill="#EF8626"/>
<path d="M217.906 210.304C216.61 214.616 209.014 213.871 202.576 211.138C196.678 208.636 193.44 208.014 184.416 205.279C184.373 202.325 184.246 199.499 184.055 197C190.7 199.737 197.943 202.403 200.059 203.017C204.338 204.257 207.13 203.017 210.658 203.419C214.186 203.821 219.201 205.993 217.906 210.304Z" fill="#F37375"/>
<path d="M245.668 217.918L185.34 226.565C184.505 226.686 183.656 226.68 182.823 226.547C182.854 226.399 182.886 226.252 182.918 226.104C184.119 220.568 184.519 212.552 184.41 205.279C193.434 208.014 196.672 208.636 202.569 211.139C209.008 213.871 216.603 214.616 217.9 210.304C219.196 205.992 214.178 203.825 210.652 203.419C207.125 203.013 204.331 204.257 200.052 203.017C197.937 202.404 190.694 199.737 184.049 197C183.787 193.618 183.411 190.858 182.963 189.262C181.377 183.597 178.156 167.542 178.156 167.542L175.673 174.73C175.097 174.915 174.512 175.066 173.919 175.184C168.884 176.17 165.169 174.154 163.249 172.694C162.715 172.3 162.22 171.856 161.77 171.368C161.77 171.368 165.136 161.38 168.007 152.506C170.878 143.632 174.825 137.715 179.586 136.897C184.347 136.079 192.948 134.912 192.948 134.912L204.973 136.515C204.973 136.515 213.465 137.431 217.204 138.375C220.943 139.318 225.868 143.82 225.603 152.267C225.339 160.714 225.154 175.269 225.154 175.269L218.187 176.739C215.836 184.026 216.648 191.027 217.18 196.465C217.712 201.903 221.735 204.225 237.704 213.467C240.361 215.011 243.046 216.501 245.668 217.918Z" fill="#FF5F76"/>
<path d="M221.182 197.005C219.563 198.063 178.566 198.243 178.566 198.243L175.42 238.541L259.844 227.932L264.447 216.013L221.182 197.005Z" fill="#CC1944"/>
<path d="M181.012 191.74C181.012 191.74 199.816 201.741 220.57 189.873L221.434 199.924C221.434 199.924 203.883 210.837 179.43 202.077L181.012 191.74Z" fill="#FFDAB6"/>
<path opacity="0.49" d="M217.657 149.987C217.657 149.987 220.786 156.449 221.109 162.157C221.432 167.865 218.185 176.732 218.185 176.732L219.419 177.444C219.419 177.444 220.048 176.14 220.929 172.687C221.81 169.235 224.359 164.377 222.417 158.034C220.475 151.69 217.657 149.987 217.657 149.987Z" fill="#DD223D"/>
<path opacity="0.16" d="M178.222 170.357L178.162 167.542C178.162 167.542 183.027 157.742 183.242 150.526C183.242 150.526 180.328 167.398 188.096 172.694C195.864 177.989 187.557 179.713 188.204 185.205C188.851 190.697 189.715 197 189.715 197C189.715 197 189.499 204.268 195.325 205.776C201.151 207.284 211.751 210.927 211.899 213.361C212.048 215.795 210.72 217.193 203.718 215.255C196.717 213.316 182.59 205.884 182.59 205.884C182.59 205.884 179.569 188.867 179.569 187.683C179.569 186.498 178.222 170.357 178.222 170.357Z" fill="#680019"/>
<g opacity="0.71">
<path opacity="0.71" d="M206.34 176.473C206.275 176.473 206.211 176.458 206.153 176.429C206.095 176.4 206.044 176.359 206.004 176.307C205.965 176.256 205.937 176.196 205.925 176.132C205.912 176.069 205.914 176.003 205.931 175.94C205.955 175.855 208.261 167.191 207.205 158.602C206.149 150.013 200.016 139.347 199.954 139.24C199.923 139.192 199.902 139.139 199.892 139.082C199.883 139.026 199.885 138.968 199.898 138.912C199.911 138.857 199.936 138.804 199.97 138.759C200.005 138.713 200.048 138.674 200.098 138.646C200.147 138.617 200.202 138.599 200.259 138.592C200.316 138.585 200.374 138.59 200.429 138.606C200.484 138.622 200.535 138.649 200.579 138.686C200.623 138.722 200.659 138.767 200.685 138.818C200.748 138.926 206.967 149.738 208.043 158.499C209.119 167.26 206.772 176.075 206.748 176.163C206.723 176.252 206.67 176.33 206.596 176.386C206.523 176.442 206.433 176.473 206.34 176.473Z" fill="white"/>
</g>
<path opacity="0.16" d="M212.946 211.592C212.946 211.592 224.021 215.685 227.694 224.407C227.694 224.407 229.421 221.787 226.004 217.803C222.587 213.818 216.678 211.592 212.946 211.592Z" fill="#680019"/>
<path d="M213.686 103.927C213.686 103.927 215.118 114.213 214.644 120.819C214.169 127.425 210.187 131.642 205.499 129.376C203.863 128.6 203.722 137.719 203.722 137.719C203.722 137.719 200.207 141.459 193.826 136.305C193.826 136.305 195.544 128.536 196.379 126.939C197.213 125.342 197.675 122.793 195.246 120.154C192.817 117.516 191.901 113.244 194.339 112.627C196.776 112.01 204.91 108.672 205.586 105.214C205.584 105.212 212.389 105.796 213.686 103.927Z" fill="#FFB966"/>
<path d="M194.85 123.337C194.85 123.337 198.897 123.863 200.6 119.269C202.303 114.674 198.083 112.303 198.083 112.303C198.083 112.303 203.717 111.609 206.833 107.373C206.833 107.373 213.715 108.354 215.178 105.722L214.045 102.323L202.023 103.926L190.718 111.591L193.575 118.856L194.85 123.337Z" fill="#EF8626"/>
<path d="M205.772 130.223L205.342 129.332C205.342 129.332 199.227 126.705 198.867 125.862C198.507 125.019 200.648 134.065 205.25 134.1L205.772 130.223Z" fill="#F4983D"/>
<path d="M206.602 125.187C199.242 125.187 196.049 120.363 194.968 118.135L194.925 118.046C194.872 117.969 194.845 117.876 194.851 117.783C194.856 117.689 194.892 117.6 194.953 117.529C195.015 117.459 195.098 117.41 195.19 117.392C195.282 117.373 195.377 117.386 195.461 117.428C195.597 117.496 195.641 117.586 195.729 117.767C196.834 120.045 200.314 125.234 208.733 124.211C208.844 124.198 208.956 124.229 209.044 124.298C209.132 124.367 209.189 124.468 209.203 124.579C209.216 124.69 209.185 124.801 209.116 124.89C209.047 124.978 208.946 125.035 208.835 125.048C208.094 125.14 207.348 125.186 206.602 125.187Z" fill="white"/>
<path d="M194.749 121.412C197.368 121.412 199.491 119.292 199.491 116.678C199.491 114.063 197.368 111.944 194.749 111.944C192.13 111.944 190.007 114.063 190.007 116.678C190.007 119.292 192.13 121.412 194.749 121.412Z" fill="#E1E5FF"/>
<path d="M210.219 125.759C211.694 125.613 212.822 124.814 212.738 123.976C212.655 123.138 211.392 122.577 209.917 122.724C208.442 122.87 207.315 123.668 207.398 124.506C207.482 125.345 208.745 125.906 210.219 125.759Z" fill="#E1E5FF"/>
<path d="M197.18 131.972C198.247 132.834 199.396 133.589 200.611 134.226C200.611 134.226 198.561 140.257 199.461 144.673C199.461 144.673 191.229 138.483 191.33 136.081C191.432 133.678 194.272 129.304 195.19 129.934C195.751 130.319 196.459 131.367 197.18 131.972Z" fill="white"/>
<path d="M201.734 134.059C201.734 134.059 204.11 132.928 204.548 132.407C204.986 131.885 206.137 134.668 206.334 136.844C206.53 139.021 204.387 143.88 204.387 143.88C204.387 143.88 203.56 138.113 201.734 134.059Z" fill="white"/>
<path d="M277.96 197.168L254.234 196.435L212.942 207.759L212.949 209.743L237.831 211.004L278.577 198.949L277.96 197.168Z" fill="#061D66"/>
<path d="M212.942 207.759L237.638 209.078L277.96 197.168L254.234 196.435L212.942 207.759Z" fill="#15299E"/>
<path d="M234.845 205.281L243.413 169.231C243.514 168.806 243.737 168.42 244.053 168.119C244.369 167.818 244.766 167.615 245.195 167.533L285.331 160.005C285.629 159.948 285.936 159.952 286.232 160.017C286.528 160.081 286.808 160.206 287.054 160.382C287.117 160.426 287.177 160.473 287.234 160.524L288.688 161.667C288.992 161.813 289.26 162.023 289.473 162.284C289.702 162.563 289.86 162.892 289.933 163.244C290.007 163.597 289.994 163.962 289.896 164.308L281.028 196.29C280.925 196.661 280.729 196.999 280.459 197.272C280.188 197.546 279.853 197.746 279.483 197.854L239.646 209.452C239.341 209.543 239.02 209.568 238.704 209.525C238.388 209.481 238.086 209.371 237.816 209.201C237.698 209.128 237.588 209.044 237.485 208.95L235.989 207.803C235.77 207.68 235.569 207.526 235.394 207.347C235.136 207.076 234.952 206.744 234.856 206.384C234.76 206.023 234.756 205.644 234.845 205.281Z" fill="#315ADD"/>
<path d="M289.892 164.307L281.025 196.289C280.922 196.659 280.725 196.997 280.455 197.271C280.185 197.545 279.849 197.745 279.479 197.853L239.642 209.451C239.263 209.56 238.861 209.568 238.478 209.475C238.094 209.381 237.741 209.189 237.455 208.917C237.169 208.646 236.958 208.304 236.845 207.926C236.732 207.549 236.72 207.148 236.809 206.764L245.378 170.714C245.479 170.289 245.701 169.903 246.017 169.602C246.334 169.301 246.73 169.097 247.16 169.016L287.297 161.488C287.674 161.419 288.062 161.446 288.426 161.567C288.789 161.689 289.116 161.9 289.375 162.182C289.634 162.463 289.818 162.806 289.908 163.178C289.999 163.55 289.993 163.938 289.892 164.307Z" fill="#4D86F7"/>
<path d="M232.15 212.131C232.15 212.131 260.342 205.095 271.996 188.58C283.65 172.064 284.295 159.645 284.295 159.645C284.295 159.645 295.946 160.219 296.665 160.29C297.383 160.362 280.985 209.078 280.985 209.078L238.551 211.004L232.15 212.131Z" fill="#347AEA"/>
<path d="M270.393 186.384C271.574 183.016 270.455 179.561 267.895 178.666C265.334 177.772 262.301 179.776 261.121 183.144C259.94 186.512 261.059 189.967 263.619 190.862C266.18 191.757 269.213 189.752 270.393 186.384Z" fill="white"/>
<path d="M217.906 210.304C216.61 214.616 209.014 213.871 202.576 211.138C196.678 208.636 193.44 208.014 184.416 205.279C183.589 205.027 182.711 204.758 181.783 204.471C170.863 201.078 161.809 198.256 160.69 195.676C159.015 191.821 162.716 175.071 163.255 172.684C165.175 174.143 168.891 176.16 173.925 175.174L174.583 175.029C174.583 175.029 170.785 188.587 171.643 190.734C172.057 191.777 177.791 194.419 184.055 197C190.7 199.737 197.943 202.403 200.059 203.017C204.338 204.257 207.13 203.017 210.658 203.419C214.186 203.821 219.201 205.993 217.906 210.304Z" fill="#FFB966"/>
<path d="M172.957 172.282C172.957 172.282 170.367 181.558 169.648 185.966C168.93 190.375 167.563 193.159 175.546 196.435C183.529 199.71 203.077 203.722 203.077 203.722L199.713 199.066L173.68 190.375L177.995 172.21L172.957 172.282Z" fill="#F4983D"/>
<path d="M353.978 233.975C353.978 233.975 345.365 294.739 348.538 296.571C351.711 298.402 359.418 234.92 359.418 234.92L353.978 233.975Z" fill="#8C98D3"/>
<path d="M348.579 240.821C348.579 240.821 355.649 247.355 361.487 246.13L363.296 235.701L351.127 235.538L348.579 240.821Z" fill="#5E71B7"/>
<path d="M403.469 236.708C403.469 236.708 412.082 297.471 408.909 299.303C405.737 301.135 398.029 237.653 398.029 237.653L403.469 236.708Z" fill="#8C98D3"/>
<path d="M398.029 249.331C398.029 249.331 405.396 250.645 408.601 248.182L405.641 240.821L394.622 242.846L398.029 249.331Z" fill="#5E71B7"/>
<path d="M427.749 232.408C427.749 232.408 446.316 290.912 443.491 293.242C440.665 295.573 422.541 234.24 422.541 234.24L427.749 232.408Z" fill="#6C75AD"/>
<path d="M422.541 244.324C422.541 244.324 432.483 243.504 433.162 238.743L429.98 231.848L423.155 235.954L422.541 244.324Z" fill="#4D5999"/>
<path d="M377.69 224.646C377.69 224.646 373.105 285.845 376.392 287.467C379.68 289.089 383.18 225.234 383.18 225.234L377.69 224.646Z" fill="#6C75AD"/>
<path d="M373.821 249.249C373.821 249.249 379.823 252.369 384.099 250.316L383.847 242.024L375.541 242.927L373.821 249.249Z" fill="#4D5999"/>
<path d="M402.573 134.371C402.709 134.006 414.763 119.938 435.586 123.817C456.408 127.695 462.77 144.171 460.399 158.281C458.028 172.392 444.366 225.612 425.249 236.822C406.132 248.032 350.441 252.709 341.025 224.195C333.267 200.7 355.221 193.36 373.621 189.042C386.751 185.959 393.258 159.142 402.573 134.371Z" fill="#505CD4"/>
<path d="M339.891 229.687C339.891 229.687 358.986 241.534 389.729 238.841C420.472 236.149 429.97 223.547 439.248 198.238C448.526 172.929 456.905 152.183 451.439 130.173L468.125 143.776L460.868 196L427.709 246.165L393.477 250.761L370.157 245.557L348.454 240.821L339.891 229.687Z" fill="#3647C1"/>
<path d="M336.67 229.383C336.67 229.383 337.659 234.593 353.628 232.408C369.596 230.223 372.305 226.347 384.759 225.485C397.214 224.624 410.586 213.019 411.454 199.637C412.323 186.255 417.508 193.189 422.825 183.417C428.142 173.645 429.255 167.674 432.581 164.557C435.908 161.44 451.3 138.463 443.245 124.677C435.19 110.892 394.481 123.959 394.05 127.979C393.618 132 341.257 216.731 341.833 216.731C342.408 216.731 336.673 229.388 336.673 229.388" fill="#3647C1"/>
<path d="M320.938 277.05C320.938 277.05 323.097 284.986 322.635 286.867L327.299 289.026L333.7 286.44L331.315 275.214L320.938 277.05Z" fill="#FCAE41"/>
<path d="M327.658 286.703C330.277 286.537 332.01 285.269 333.392 284.99C334.773 284.711 335.302 286.827 336.201 290.659C337.099 294.491 339.231 299.061 335.332 300.097C331.433 301.134 312.769 305.382 308.294 304.828C303.818 304.274 304.109 299.541 308.078 297.742C312.048 295.942 321.973 287.88 322.318 286.646C322.662 285.412 324.558 286.899 327.658 286.703Z" fill="#0F3CB8"/>
<path d="M303.947 302.834C303.947 302.834 330.828 300.428 338.917 296.268L338.876 300.354L307.624 306.627L303.947 302.834Z" fill="#0535A0"/>
<path d="M360.929 185.959C360.929 185.959 325.759 194.36 318.314 196.945C310.87 199.529 305.044 201.468 306.016 213.529C306.987 225.591 318.961 278.474 318.961 278.474C318.961 278.474 327.268 281.705 332.878 275.674C332.878 275.674 328.671 226.993 325.865 216.874L376.141 203.224L360.929 185.959Z" fill="#00259B"/>
<path opacity="0.72" d="M323.78 282.119C323.78 282.119 326.945 283.583 327.952 275.209C328.959 266.835 325.794 246.374 325.794 246.374C325.794 246.374 322.701 224.835 321.766 219.306C320.831 213.778 320.328 212.098 326.154 210.999C331.98 209.9 325.507 201.576 323.061 198.699L363.266 190.513C363.266 190.513 374.853 196.457 375.209 196.43C375.566 196.402 372.472 205.377 372.472 205.377L327.851 219.244L339.42 267.49L338.091 279.34L323.78 282.119Z" fill="#001760"/>
<path d="M295.781 274.245C295.781 274.245 290.758 280.766 288.985 281.533L290.088 286.546L296.024 290.064L303.531 281.372L295.781 274.245Z" fill="#FCAE41"/>
<path d="M292.152 285.429C293.869 287.41 295.927 288.019 296.988 288.947C298.049 289.874 296.68 291.576 294.169 294.611C291.658 297.645 289.305 302.104 286.114 299.636C282.924 297.169 268.243 284.907 265.978 281.015C263.712 277.123 267.66 274.49 271.498 276.555C275.335 278.619 287.771 281.626 288.964 281.152C290.157 280.678 290.119 283.084 292.152 285.429Z" fill="#0F3CB8"/>
<path d="M265.314 275.831C265.314 275.831 282.867 294.374 291.896 300.195L288.3 302.304L263.83 283.096C263.83 283.096 262.32 277.672 262.446 277.549C262.572 277.425 265.314 275.831 265.314 275.831Z" fill="#0535A0"/>
<path d="M368.577 198.238C368.577 198.238 335.792 212.023 330.721 215.9C325.65 219.778 291.127 276.752 291.127 276.752C291.127 276.752 297.061 284.723 304.504 283.214C304.504 283.214 323.168 258.442 327.158 252.412C331.148 246.381 339.721 235.443 343.412 233.671C347.103 231.899 365.673 225.81 374.624 222.901C383.575 219.992 396.489 214.483 398.023 209.402L368.577 198.238Z" fill="#00259B"/>
<path opacity="0.72" d="M292.301 282.158C292.446 282.209 300.214 280.629 304.816 276.369C309.419 272.108 316.995 261.483 320.208 254.733C323.421 247.984 330.326 234.631 334.737 230.799C339.148 226.967 344.902 226.619 352.909 224.642C360.916 222.666 359.047 218.164 354.156 215.101C349.266 212.038 340.646 208.256 340.646 208.256L358.987 200.718L383.183 200.395L401.278 207.719L395.02 222.474L357.05 237.225L334.61 266.951L305.024 286.661L292.301 282.158Z" fill="#001760"/>
<path d="M370.88 152.851L370.154 154.172C370.154 154.172 371.961 155.158 374.433 154.581C376.905 154.004 386.746 145.86 386.746 145.86L382.537 140.282L370.88 152.851Z" fill="#E88B1C"/>
<path opacity="0.63" d="M404.401 122.845C404.401 122.845 402.68 121.84 399.983 123.097C397.286 124.353 380.815 136.524 380.815 136.524C380.815 136.524 380.767 144.829 387.528 147.222L404.401 122.845Z" fill="#FFD2DD"/>
<path d="M419.258 124.677L419.762 125.108C419.762 125.108 427.922 126.72 432.599 129.991C442.724 137.067 435.549 152.517 433.679 157.041C431.809 161.566 424.24 175.234 415.755 187.195C411.429 193.285 406.994 200.718 398.261 210.196C398.261 210.196 368.268 213.428 359.422 185.748C359.422 185.748 370.175 176.665 376.648 165.176C383.121 153.688 392.04 137.318 395.636 131.86C399.231 126.402 401.641 121.989 404.625 122.491C407.609 122.994 411.746 123.388 411.746 123.388L419.258 124.677Z" fill="white"/>
<path opacity="0.63" d="M429.322 134.844C429.322 134.844 417.755 153.261 412.252 162.523C406.75 171.785 381.249 193.864 371.742 193.972C362.235 194.08 361.007 191.282 361.007 191.282L367.696 209.067L389.646 215.932L406.75 209.067L422.825 183.418L430.017 142.061L429.322 134.844Z" fill="#FFD2DD"/>
<path d="M386.564 207.936L386.756 205.988C386.777 205.89 386.763 205.787 386.717 205.697C386.672 205.607 386.597 205.535 386.505 205.493L352.722 189.592C352.648 189.558 352.566 189.544 352.485 189.552L325.992 192.088C325.932 192.093 325.874 192.11 325.82 192.138C325.766 192.166 325.719 192.205 325.681 192.252C325.643 192.299 325.615 192.353 325.598 192.411C325.581 192.469 325.576 192.53 325.583 192.59L325.404 194.437C325.368 194.544 325.374 194.66 325.421 194.763C325.468 194.865 325.551 194.946 325.655 194.99L352.077 206.51L352.114 206.527L359.341 210.377C359.418 210.419 359.506 210.437 359.593 210.43L386.141 208.384C386.255 208.377 386.362 208.326 386.44 208.242C386.518 208.159 386.562 208.049 386.561 207.935L386.564 207.936Z" fill="#C4334C"/>
<path d="M352.316 204.498L359.544 208.349C359.621 208.39 359.709 208.408 359.796 208.401L386.344 206.355C386.444 206.347 386.538 206.307 386.613 206.239C386.687 206.172 386.737 206.082 386.755 205.984C386.773 205.885 386.758 205.784 386.713 205.694C386.667 205.605 386.593 205.534 386.502 205.491L356.667 191.574C356.593 191.539 356.512 191.524 356.431 191.532L329.938 194.068C329.838 194.078 329.743 194.121 329.67 194.19C329.596 194.259 329.548 194.351 329.533 194.451C329.517 194.551 329.535 194.653 329.584 194.741C329.634 194.829 329.711 194.899 329.803 194.938L352.282 204.487L352.316 204.498Z" fill="#C9415E"/>
<path d="M361.292 206.276L358.722 175.637C358.692 175.277 358.558 174.932 358.335 174.646C358.113 174.36 357.812 174.144 357.47 174.025L325.468 162.897C325.23 162.813 324.978 162.779 324.727 162.795C324.476 162.812 324.231 162.879 324.006 162.993C323.95 163.022 323.894 163.053 323.842 163.087L322.508 163.841C322.24 163.923 321.994 164.063 321.786 164.251C321.564 164.451 321.394 164.702 321.29 164.982C321.186 165.262 321.151 165.563 321.189 165.86L324.507 193.196C324.547 193.512 324.666 193.814 324.854 194.072C325.042 194.33 325.293 194.536 325.582 194.671L356.836 209.101C357.075 209.213 357.336 209.273 357.6 209.276C357.864 209.279 358.127 209.226 358.368 209.119C358.475 209.073 358.576 209.017 358.672 208.952L360.041 208.198C360.236 208.125 360.42 208.023 360.586 207.897C360.83 207.707 361.022 207.459 361.145 207.176C361.268 206.893 361.319 206.584 361.292 206.276Z" fill="#F2707C"/>
<path d="M321.189 165.865L324.507 193.201C324.547 193.517 324.666 193.819 324.854 194.077C325.042 194.335 325.293 194.541 325.582 194.676L356.836 209.106C357.134 209.243 357.462 209.301 357.789 209.272C358.116 209.243 358.43 209.129 358.699 208.941C358.968 208.753 359.183 208.498 359.322 208.201C359.461 207.905 359.52 207.577 359.493 207.25L356.924 176.611C356.893 176.25 356.759 175.906 356.537 175.62C356.315 175.334 356.014 175.118 355.672 174.999L323.668 163.871C323.367 163.767 323.045 163.74 322.731 163.795C322.417 163.849 322.122 163.982 321.874 164.182C321.626 164.381 321.433 164.64 321.313 164.935C321.193 165.229 321.15 165.549 321.189 165.865Z" fill="#F49298"/>
<path opacity="0.15" d="M356.924 173.029C356.924 173.029 351.053 190.996 320.512 195.172L334.957 205.988L362.804 214.972L368.807 203.425C368.807 203.425 361.772 177.756 361.922 177.337C362.072 176.919 358.714 172.805 358.714 172.805L356.924 173.029Z" fill="#B20D60"/>
<path d="M340.305 189.259C342.525 188.893 343.934 186.228 343.451 183.307C342.968 180.385 340.777 178.314 338.556 178.68C336.335 179.045 334.927 181.71 335.41 184.631C335.892 187.553 338.084 189.624 340.305 189.259Z" fill="white"/>
<path d="M420.48 159.807C420.48 159.807 412.593 177.135 410.051 179.05C407.508 180.965 381.162 193.904 381.162 193.904C381.162 193.904 373.633 193.666 368.647 197.782C363.661 201.898 366.058 206.972 372.004 205.297C377.949 203.623 383.319 201.277 384.23 199.17C384.23 199.17 398.351 193.936 404.493 191.447C410.635 188.958 417.104 186.948 418.254 185.368C419.404 183.789 430.045 163.062 430.045 163.062L420.48 159.807Z" fill="#FFB966"/>
<path d="M427.41 162.645C427.41 162.645 419.588 182.134 417.484 183.501C415.38 184.868 383.842 198.429 383.842 198.429C383.842 198.429 382.128 200.565 380.074 201.12C378.02 201.675 367.174 206.197 367.174 206.197L376.487 205.627L387.149 199.766L420.117 186.928L431.57 162.625L427.416 162.646" fill="#E88B1C"/>
<path d="M424.137 143.559C426.15 138.391 430.013 133.438 432.18 132.879C434.347 132.32 436.891 132.664 438.258 137.211C439.624 141.758 434.206 158.417 431.545 164.664C431.545 164.664 424.353 166.817 418.671 160.284C418.671 160.289 422.195 148.549 424.137 143.559Z" fill="white"/>
<path opacity="0.63" d="M435.357 131.923C435.357 131.923 437.035 136.039 435.357 141.831C433.678 147.623 426.391 167.588 426.391 167.588L434.398 167.923L442.309 137.355L435.357 131.923Z" fill="#FFD2DD"/>
<path d="M397.472 103.151C399.017 103.175 400.996 104.973 399.76 111.147C398.524 117.321 397.108 121.806 396.213 122.178C396.213 122.178 377.444 157.339 370.627 154.438C365.215 152.136 370.561 144.188 373.558 140.379C376.737 136.338 392.448 119.723 392.448 119.723C392.448 119.723 392.309 114.99 392.931 110.929C393.553 106.867 395.083 103.111 397.472 103.151Z" fill="#FFB966"/>
<path d="M399.244 98.4754L393.243 113.962C392.942 114.739 393.329 115.613 394.107 115.913L402.816 119.277C403.594 119.577 404.469 119.191 404.771 118.414L410.772 102.928C411.073 102.15 410.686 101.276 409.908 100.976L401.199 97.6125C400.421 97.3118 399.546 97.6982 399.244 98.4754Z" fill="#505CD4"/>
<path d="M399.862 99.7524L394.56 113.432C394.303 114.096 394.634 114.844 395.299 115.101L402.481 117.874C403.146 118.131 403.895 117.801 404.152 117.136L409.454 103.457C409.711 102.792 409.38 102.045 408.714 101.788L401.533 99.0145C400.868 98.7574 400.119 99.0877 399.862 99.7524Z" fill="white"/>
<path opacity="0.27" d="M406.405 100.19L394.027 108.952L394.19 110.291L407.385 100.917L406.405 100.19Z" fill="#8C98F4"/>
<path opacity="0.27" d="M408.53 109.04L396.15 117.802L396.314 119.142L409.51 109.767L408.53 109.04Z" fill="#8C98F4"/>
<path opacity="0.27" d="M393.475 113.361L412.416 102.037L412.615 104.405L394.446 116.043L393.475 113.361Z" fill="#8C98F4"/>
<path d="M410.52 98.2513C410.52 98.2513 404.191 97.1029 404.406 90.5683C404.622 84.0337 409.809 81.4782 413.277 80.8751C416.585 80.301 420.374 82.0247 420.157 83.4244C420.157 83.4244 424.473 82.6705 431.414 85.8304C438.354 88.9903 440.464 94.614 439.073 101.554C437.682 108.495 425.696 121.154 421.957 119.457L420.229 119.005L420.444 114.482L422.171 110.102L420.732 103.496L410.52 98.2513Z" fill="#1D1D89"/>
<path opacity="0.66" d="M403.639 86.818C403.639 86.818 404.166 93.0887 412.174 92.0346C420.182 90.9805 421.524 91.174 425.121 95.05C428.718 98.926 429.244 98.6936 430.443 98.0654C431.643 97.4372 426.223 107.782 432.505 108.692C438.786 109.602 440.182 106.203 440.182 106.203C440.182 106.203 430.831 120.228 430.687 120.228C430.544 120.228 421.577 123.142 421.577 123.142L417.208 117.593L421.62 103.71C421.62 103.71 406.707 101.015 406.511 100.935C406.314 100.855 400.622 91.5044 400.622 91.5044L403.639 86.818Z" fill="#101F51"/>
<path d="M408.626 95.3339C408.626 95.3339 402.297 113.739 406.42 116.372C410.543 119.006 414.231 116.939 414.231 117.801C414.231 118.663 411.743 123.38 411.743 123.38C411.743 123.38 414.535 127.879 419.762 125.103L421.956 119.449C421.956 119.449 421.044 117.391 421.716 115.524C422.389 113.657 423.538 112.94 425.408 112.795C427.278 112.651 428.321 111.539 428.554 109.654C428.787 107.77 426.72 106.334 424.922 107.248C424.922 107.248 425.516 103.641 426.864 101.541C426.864 101.541 424.023 101.504 422.316 99.3871C420.608 97.27 420.283 95.707 418.162 94.8275C416.042 93.9481 415.198 95.4558 414.062 95.6882C412.851 95.9533 408.626 95.3339 408.626 95.3339Z" fill="#FFB966"/>
<path d="M407.159 96.6984C407.159 96.6984 411.143 98.1583 413.661 97.8706C416.178 97.5829 418.239 96.8655 419.439 98.7501C420.638 100.635 423.592 102.508 424.617 102.268C424.617 102.268 422.507 106.791 423.778 107.796C425.049 108.801 428.189 107.15 428.189 107.15L429.076 100.042L421.309 94.1541L413.181 92.1753L409.441 94.1139L407.159 96.6984Z" fill="#EA8B1B"/>
<path d="M413.038 118.49L414.062 117.6C414.062 117.6 419.152 116.703 420.374 115.967C420.374 115.967 415.182 121.118 412.557 121.198L413.038 118.49Z" fill="#EA8B1B"/>
<path d="M353.075 61.0553H279.559C271.932 61.0553 265.75 67.2272 265.75 74.8406V74.8419C265.75 82.4553 271.932 88.6272 279.559 88.6272H353.075C360.702 88.6272 366.884 82.4553 366.884 74.8419V74.8406C366.884 67.2272 360.702 61.0553 353.075 61.0553Z" fill="#8C98F4"/>
<path d="M261.257 81.2257C261.257 81.2257 283.562 84.7675 317.878 82.0762C352.193 79.385 360.7 63.607 353.872 57.1164L371.925 63.9689L371.557 85.8693L358.934 100.192L288.581 95.3326L268.359 92.0308L261.257 81.2257Z" fill="#6A7EEF"/>
<path opacity="0.65" d="M378.568 82.6191C380.451 82.6191 381.977 81.0958 381.977 79.2167C381.977 77.3376 380.451 75.8143 378.568 75.8143C376.686 75.8143 375.16 77.3376 375.16 79.2167C375.16 81.0958 376.686 82.6191 378.568 82.6191Z" fill="#8C98F4"/>
<path opacity="0.27" d="M388.679 90.6337C390.562 90.6337 392.088 89.1104 392.088 87.2313C392.088 85.3523 390.562 83.829 388.679 83.829C386.797 83.829 385.271 85.3523 385.271 87.2313C385.271 89.1104 386.797 90.6337 388.679 90.6337Z" fill="#8C98F4"/>
<path d="M347.588 77.2089H284.58C283.469 77.2089 282.568 78.1084 282.568 79.2179C282.568 80.3275 283.469 81.2269 284.58 81.2269H347.588C348.699 81.2269 349.6 80.3275 349.6 79.2179C349.6 78.1084 348.699 77.2089 347.588 77.2089Z" fill="white"/>
<path d="M347.588 67.811H284.58C283.469 67.811 282.568 68.7104 282.568 69.82C282.568 70.9295 283.469 71.829 284.58 71.829H347.588C348.699 71.829 349.6 70.9295 349.6 69.82C349.6 68.7104 348.699 67.811 347.588 67.811Z" fill="white"/>
<path d="M334.077 141.451C346.95 141.451 357.386 131.033 357.386 118.182C357.386 105.331 346.95 94.913 334.077 94.913C321.205 94.913 310.769 105.331 310.769 118.182C310.769 131.033 321.205 141.451 334.077 141.451Z" fill="#B0CAFF"/>
<path d="M334.078 137.944C345.01 137.944 353.873 129.096 353.873 118.182C353.873 107.267 345.01 98.4197 334.078 98.4197C323.145 98.4197 314.282 107.267 314.282 118.182C314.282 129.096 323.145 137.944 334.078 137.944Z" fill="white"/>
<g opacity="0.47">
<path opacity="0.47" d="M334.076 118.605C333.972 118.605 333.872 118.566 333.795 118.497C333.718 118.427 333.669 118.331 333.658 118.228L332.056 101.371C332.046 101.26 332.08 101.15 332.151 101.064C332.222 100.979 332.324 100.925 332.435 100.914C332.545 100.904 332.656 100.938 332.742 101.008C332.827 101.079 332.882 101.181 332.892 101.292L334.495 118.149C334.506 118.259 334.472 118.37 334.401 118.455C334.33 118.541 334.229 118.595 334.118 118.605H334.076Z" fill="#1D1D89"/>
</g>
<g opacity="0.47">
<path opacity="0.47" d="M345.286 126.664C345.199 126.663 345.113 126.636 345.042 126.585L333.832 118.522C333.786 118.491 333.746 118.45 333.715 118.403C333.685 118.356 333.664 118.303 333.654 118.248C333.644 118.193 333.646 118.136 333.658 118.082C333.67 118.027 333.694 117.975 333.727 117.93C333.759 117.884 333.801 117.846 333.849 117.816C333.897 117.787 333.95 117.768 334.006 117.76C334.062 117.751 334.118 117.754 334.173 117.768C334.227 117.782 334.278 117.807 334.323 117.841L345.533 125.904C345.603 125.957 345.654 126.03 345.68 126.114C345.706 126.198 345.705 126.287 345.677 126.37C345.65 126.454 345.597 126.526 345.525 126.577C345.454 126.629 345.369 126.657 345.281 126.657L345.286 126.664Z" fill="#FF5F76"/>
</g>
<path d="M334.077 119.614C334.87 119.614 335.512 118.973 335.512 118.182C335.512 117.391 334.87 116.749 334.077 116.749C333.285 116.749 332.643 117.391 332.643 118.182C332.643 118.973 333.285 119.614 334.077 119.614Z" fill="#8A9BFF"/>
<path opacity="0.72" d="M402.042 70.8615L397.52 76.4927L404.401 77.2441L402.042 70.8615Z" fill="#FF5F76"/>
<path opacity="0.72" d="M453.746 98.4561L446.774 96.5438L448.812 103.149L453.746 98.4561Z" stroke="#1D1D89" stroke-width="5" stroke-linecap="round" stroke-linejoin="round"/>
<path opacity="0.72" d="M421.594 68.1871L417.607 64.207L413.62 68.1871L417.607 72.1672L421.594 68.1871Z" stroke="#1D1D89" stroke-width="5" stroke-linecap="round" stroke-linejoin="round"/>
<path opacity="0.72" d="M458.77 84.5506L460.48 81.2298L457.154 79.5224L455.443 82.8432L458.77 84.5506Z" stroke="#1D1D89" stroke-width="5" stroke-linecap="round" stroke-linejoin="round"/>
<path opacity="0.72" d="M438.044 79.63C439.363 79.63 440.433 78.5618 440.433 77.2441C440.433 75.9264 439.363 74.8582 438.044 74.8582C436.724 74.8582 435.654 75.9264 435.654 77.2441C435.654 78.5618 436.724 79.63 438.044 79.63Z" fill="#FF5F76"/>
<path fill-rule="evenodd" clip-rule="evenodd" d="M392.879 7H233.121C225.872 7 220 11.1491 220 16.2693V30.7499C220 35.8701 225.872 40.0192 233.121 40.0192H234.01C233.724 42.4037 232.552 45.5775 228.541 46.9289C228.541 46.9289 240.199 48.1976 242.41 40.0192H392.879C400.123 40.0192 406 35.8701 406 30.7499V16.2693C406 11.1491 400.128 7 392.879 7Z" fill="#EDF3FF"/>
<path d="M259.128 18.6L256.32 27H255.06L252.768 20.292L250.476 27H249.192L246.384 18.6H247.62L249.888 25.428L252.252 18.6H253.356L255.672 25.464L257.988 18.6H259.128ZM261.963 20.58C262.843 20.58 263.515 20.796 263.979 21.228C264.451 21.66 264.687 22.304 264.687 23.16V27H263.595V26.16C263.403 26.456 263.127 26.684 262.767 26.844C262.415 26.996 261.995 27.072 261.507 27.072C260.795 27.072 260.223 26.9 259.791 26.556C259.367 26.212 259.155 25.76 259.155 25.2C259.155 24.64 259.359 24.192 259.767 23.856C260.175 23.512 260.823 23.34 261.711 23.34H263.535V23.112C263.535 22.616 263.391 22.236 263.103 21.972C262.815 21.708 262.391 21.576 261.831 21.576C261.455 21.576 261.087 21.64 260.727 21.768C260.367 21.888 260.063 22.052 259.815 22.26L259.335 21.396C259.663 21.132 260.055 20.932 260.511 20.796C260.967 20.652 261.451 20.58 261.963 20.58ZM261.699 26.184C262.139 26.184 262.519 26.088 262.839 25.896C263.159 25.696 263.391 25.416 263.535 25.056V24.168H261.759C260.783 24.168 260.295 24.496 260.295 25.152C260.295 25.472 260.419 25.724 260.667 25.908C260.915 26.092 261.259 26.184 261.699 26.184ZM269.915 20.58C270.723 20.58 271.363 20.816 271.835 21.288C272.315 21.752 272.555 22.436 272.555 23.34V27H271.403V23.472C271.403 22.856 271.255 22.392 270.959 22.08C270.663 21.768 270.239 21.612 269.687 21.612C269.063 21.612 268.571 21.796 268.211 22.164C267.851 22.524 267.671 23.044 267.671 23.724V27H266.519V20.64H267.623V21.6C267.855 21.272 268.167 21.02 268.559 20.844C268.959 20.668 269.411 20.58 269.915 20.58ZM277.963 26.628C277.795 26.772 277.587 26.884 277.339 26.964C277.091 27.036 276.835 27.072 276.571 27.072C275.931 27.072 275.435 26.9 275.083 26.556C274.731 26.212 274.555 25.72 274.555 25.08V21.588H273.475V20.64H274.555V19.248H275.707V20.64H277.531V21.588H275.707V25.032C275.707 25.376 275.791 25.64 275.959 25.824C276.135 26.008 276.383 26.1 276.703 26.1C277.055 26.1 277.355 26 277.603 25.8L277.963 26.628ZM285.555 26.628C285.387 26.772 285.179 26.884 284.931 26.964C284.683 27.036 284.427 27.072 284.163 27.072C283.523 27.072 283.027 26.9 282.675 26.556C282.323 26.212 282.147 25.72 282.147 25.08V21.588H281.067V20.64H282.147V19.248H283.299V20.64H285.123V21.588H283.299V25.032C283.299 25.376 283.383 25.64 283.551 25.824C283.727 26.008 283.975 26.1 284.295 26.1C284.647 26.1 284.947 26 285.195 25.8L285.555 26.628ZM289.161 27.072C288.529 27.072 287.961 26.932 287.457 26.652C286.953 26.372 286.557 25.988 286.269 25.5C285.989 25.004 285.849 24.444 285.849 23.82C285.849 23.196 285.989 22.64 286.269 22.152C286.557 21.656 286.953 21.272 287.457 21C287.961 20.72 288.529 20.58 289.161 20.58C289.793 20.58 290.357 20.72 290.853 21C291.357 21.272 291.749 21.656 292.029 22.152C292.317 22.64 292.461 23.196 292.461 23.82C292.461 24.444 292.317 25.004 292.029 25.5C291.749 25.988 291.357 26.372 290.853 26.652C290.357 26.932 289.793 27.072 289.161 27.072ZM289.161 26.064C289.569 26.064 289.933 25.972 290.253 25.788C290.581 25.596 290.837 25.332 291.021 24.996C291.205 24.652 291.297 24.26 291.297 23.82C291.297 23.38 291.205 22.992 291.021 22.656C290.837 22.312 290.581 22.048 290.253 21.864C289.933 21.68 289.569 21.588 289.161 21.588C288.753 21.588 288.385 21.68 288.057 21.864C287.737 22.048 287.481 22.312 287.289 22.656C287.105 22.992 287.013 23.38 287.013 23.82C287.013 24.26 287.105 24.652 287.289 24.996C287.481 25.332 287.737 25.596 288.057 25.788C288.385 25.972 288.753 26.064 289.161 26.064ZM300.048 20.58C300.664 20.58 301.216 20.716 301.704 20.988C302.192 21.26 302.572 21.64 302.844 22.128C303.124 22.616 303.264 23.18 303.264 23.82C303.264 24.46 303.124 25.028 302.844 25.524C302.572 26.012 302.192 26.392 301.704 26.664C301.216 26.936 300.664 27.072 300.048 27.072C299.576 27.072 299.144 26.98 298.752 26.796C298.36 26.612 298.036 26.344 297.78 25.992V27H296.676V18.096H297.828V21.6C298.084 21.264 298.404 21.012 298.788 20.844C299.172 20.668 299.592 20.58 300.048 20.58ZM299.952 26.064C300.36 26.064 300.724 25.972 301.044 25.788C301.372 25.596 301.628 25.332 301.812 24.996C302.004 24.652 302.1 24.26 302.1 23.82C302.1 23.38 302.004 22.992 301.812 22.656C301.628 22.312 301.372 22.048 301.044 21.864C300.724 21.68 300.36 21.588 299.952 21.588C299.552 21.588 299.188 21.68 298.86 21.864C298.532 22.048 298.276 22.312 298.092 22.656C297.908 22.992 297.816 23.38 297.816 23.82C297.816 24.26 297.908 24.652 298.092 24.996C298.276 25.332 298.532 25.596 298.86 25.788C299.188 25.972 299.552 26.064 299.952 26.064ZM310.304 23.856C310.304 23.944 310.296 24.06 310.28 24.204H305.12C305.192 24.764 305.436 25.216 305.852 25.56C306.276 25.896 306.8 26.064 307.424 26.064C308.184 26.064 308.796 25.808 309.26 25.296L309.896 26.04C309.608 26.376 309.248 26.632 308.816 26.808C308.392 26.984 307.916 27.072 307.388 27.072C306.716 27.072 306.12 26.936 305.6 26.664C305.08 26.384 304.676 25.996 304.388 25.5C304.108 25.004 303.968 24.444 303.968 23.82C303.968 23.204 304.104 22.648 304.376 22.152C304.656 21.656 305.036 21.272 305.516 21C306.004 20.72 306.552 20.58 307.16 20.58C307.768 20.58 308.308 20.72 308.78 21C309.26 21.272 309.632 21.656 309.896 22.152C310.168 22.648 310.304 23.216 310.304 23.856ZM307.16 21.552C306.608 21.552 306.144 21.72 305.768 22.056C305.4 22.392 305.184 22.832 305.12 23.376H309.2C309.136 22.84 308.916 22.404 308.54 22.068C308.172 21.724 307.712 21.552 307.16 21.552ZM316.842 20.58C317.722 20.58 318.394 20.796 318.858 21.228C319.33 21.66 319.566 22.304 319.566 23.16V27H318.474V26.16C318.282 26.456 318.006 26.684 317.646 26.844C317.294 26.996 316.874 27.072 316.386 27.072C315.674 27.072 315.102 26.9 314.67 26.556C314.246 26.212 314.034 25.76 314.034 25.2C314.034 24.64 314.238 24.192 314.646 23.856C315.054 23.512 315.702 23.34 316.59 23.34H318.414V23.112C318.414 22.616 318.27 22.236 317.982 21.972C317.694 21.708 317.27 21.576 316.71 21.576C316.334 21.576 315.966 21.64 315.606 21.768C315.246 21.888 314.942 22.052 314.694 22.26L314.214 21.396C314.542 21.132 314.934 20.932 315.39 20.796C315.846 20.652 316.33 20.58 316.842 20.58ZM316.578 26.184C317.018 26.184 317.398 26.088 317.718 25.896C318.038 25.696 318.27 25.416 318.414 25.056V24.168H316.638C315.662 24.168 315.174 24.496 315.174 25.152C315.174 25.472 315.298 25.724 315.546 25.908C315.794 26.092 316.138 26.184 316.578 26.184ZM327.693 20.58C328.309 20.58 328.861 20.716 329.349 20.988C329.837 21.26 330.217 21.64 330.489 22.128C330.769 22.616 330.909 23.18 330.909 23.82C330.909 24.46 330.769 25.028 330.489 25.524C330.217 26.012 329.837 26.392 329.349 26.664C328.861 26.936 328.309 27.072 327.693 27.072C327.237 27.072 326.817 26.984 326.433 26.808C326.057 26.632 325.737 26.376 325.473 26.04V29.328H324.321V20.64H325.425V21.648C325.681 21.296 326.005 21.032 326.397 20.856C326.789 20.672 327.221 20.58 327.693 20.58ZM327.597 26.064C328.005 26.064 328.369 25.972 328.689 25.788C329.017 25.596 329.273 25.332 329.457 24.996C329.649 24.652 329.745 24.26 329.745 23.82C329.745 23.38 329.649 22.992 329.457 22.656C329.273 22.312 329.017 22.048 328.689 21.864C328.369 21.68 328.005 21.588 327.597 21.588C327.197 21.588 326.833 21.684 326.505 21.876C326.185 22.06 325.929 22.32 325.737 22.656C325.553 22.992 325.461 23.38 325.461 23.82C325.461 24.26 325.553 24.652 325.737 24.996C325.921 25.332 326.177 25.596 326.505 25.788C326.833 25.972 327.197 26.064 327.597 26.064ZM334.458 20.58C335.338 20.58 336.01 20.796 336.474 21.228C336.946 21.66 337.182 22.304 337.182 23.16V27H336.09V26.16C335.898 26.456 335.622 26.684 335.262 26.844C334.91 26.996 334.49 27.072 334.002 27.072C333.29 27.072 332.718 26.9 332.286 26.556C331.862 26.212 331.65 25.76 331.65 25.2C331.65 24.64 331.854 24.192 332.262 23.856C332.67 23.512 333.318 23.34 334.206 23.34H336.03V23.112C336.03 22.616 335.886 22.236 335.598 21.972C335.31 21.708 334.886 21.576 334.326 21.576C333.95 21.576 333.582 21.64 333.222 21.768C332.862 21.888 332.558 22.052 332.31 22.26L331.83 21.396C332.158 21.132 332.55 20.932 333.006 20.796C333.462 20.652 333.946 20.58 334.458 20.58ZM334.194 26.184C334.634 26.184 335.014 26.088 335.334 25.896C335.654 25.696 335.886 25.416 336.03 25.056V24.168H334.254C333.278 24.168 332.79 24.496 332.79 25.152C332.79 25.472 332.914 25.724 333.162 25.908C333.41 26.092 333.754 26.184 334.194 26.184ZM340.118 21.708C340.318 21.34 340.614 21.06 341.006 20.868C341.398 20.676 341.874 20.58 342.434 20.58V21.696C342.37 21.688 342.282 21.684 342.17 21.684C341.546 21.684 341.054 21.872 340.694 22.248C340.342 22.616 340.166 23.144 340.166 23.832V27H339.014V20.64H340.118V21.708ZM347.388 26.628C347.22 26.772 347.012 26.884 346.764 26.964C346.516 27.036 346.26 27.072 345.996 27.072C345.356 27.072 344.86 26.9 344.508 26.556C344.156 26.212 343.98 25.72 343.98 25.08V21.588H342.9V20.64H343.98V19.248H345.132V20.64H346.956V21.588H345.132V25.032C345.132 25.376 345.216 25.64 345.384 25.824C345.56 26.008 345.808 26.1 346.128 26.1C346.48 26.1 346.78 26 347.028 25.8L347.388 26.628ZM354.127 27.072C353.495 27.072 352.927 26.932 352.423 26.652C351.919 26.372 351.523 25.988 351.235 25.5C350.955 25.004 350.815 24.444 350.815 23.82C350.815 23.196 350.955 22.64 351.235 22.152C351.523 21.656 351.919 21.272 352.423 21C352.927 20.72 353.495 20.58 354.127 20.58C354.759 20.58 355.323 20.72 355.819 21C356.323 21.272 356.715 21.656 356.995 22.152C357.283 22.64 357.427 23.196 357.427 23.82C357.427 24.444 357.283 25.004 356.995 25.5C356.715 25.988 356.323 26.372 355.819 26.652C355.323 26.932 354.759 27.072 354.127 27.072ZM354.127 26.064C354.535 26.064 354.899 25.972 355.219 25.788C355.547 25.596 355.803 25.332 355.987 24.996C356.171 24.652 356.263 24.26 356.263 23.82C356.263 23.38 356.171 22.992 355.987 22.656C355.803 22.312 355.547 22.048 355.219 21.864C354.899 21.68 354.535 21.588 354.127 21.588C353.719 21.588 353.351 21.68 353.023 21.864C352.703 22.048 352.447 22.312 352.255 22.656C352.071 22.992 351.979 23.38 351.979 23.82C351.979 24.26 352.071 24.652 352.255 24.996C352.447 25.332 352.703 25.596 353.023 25.788C353.351 25.972 353.719 26.064 354.127 26.064ZM361.048 18.972C360.36 18.972 360.016 19.344 360.016 20.088V20.64H361.864V21.588H360.04V27H358.888V21.588H357.808V20.64H358.888V20.076C358.888 19.444 359.072 18.944 359.44 18.576C359.808 18.208 360.324 18.024 360.988 18.024C361.244 18.024 361.484 18.056 361.708 18.12C361.932 18.184 362.124 18.276 362.284 18.396L361.936 19.272C361.672 19.072 361.376 18.972 361.048 18.972ZM371.501 20.64V27H370.409V26.04C370.177 26.368 369.869 26.624 369.485 26.808C369.109 26.984 368.697 27.072 368.249 27.072C367.401 27.072 366.733 26.84 366.245 26.376C365.757 25.904 365.513 25.212 365.513 24.3V20.64H366.665V24.168C366.665 24.784 366.813 25.252 367.109 25.572C367.405 25.884 367.829 26.04 368.381 26.04C368.989 26.04 369.469 25.856 369.821 25.488C370.173 25.12 370.349 24.6 370.349 23.928V20.64H371.501ZM375.218 27.072C374.698 27.072 374.198 27.004 373.718 26.868C373.238 26.724 372.862 26.544 372.59 26.328L373.07 25.416C373.35 25.616 373.69 25.776 374.09 25.896C374.49 26.016 374.894 26.076 375.302 26.076C376.31 26.076 376.814 25.788 376.814 25.212C376.814 25.02 376.746 24.868 376.61 24.756C376.474 24.644 376.302 24.564 376.094 24.516C375.894 24.46 375.606 24.4 375.23 24.336C374.718 24.256 374.298 24.164 373.97 24.06C373.65 23.956 373.374 23.78 373.142 23.532C372.91 23.284 372.794 22.936 372.794 22.488C372.794 21.912 373.034 21.452 373.514 21.108C373.994 20.756 374.638 20.58 375.446 20.58C375.87 20.58 376.294 20.632 376.718 20.736C377.142 20.84 377.49 20.98 377.762 21.156L377.27 22.068C376.75 21.732 376.138 21.564 375.434 21.564C374.946 21.564 374.574 21.644 374.318 21.804C374.062 21.964 373.934 22.176 373.934 22.44C373.934 22.648 374.006 22.812 374.15 22.932C374.294 23.052 374.47 23.14 374.678 23.196C374.894 23.252 375.194 23.316 375.578 23.388C376.09 23.476 376.502 23.572 376.814 23.676C377.134 23.772 377.406 23.94 377.63 24.18C377.854 24.42 377.966 24.756 377.966 25.188C377.966 25.764 377.718 26.224 377.222 26.568C376.734 26.904 376.066 27.072 375.218 27.072ZM380.551 24.348C380.551 24.028 380.603 23.748 380.707 23.508C380.819 23.26 380.951 23.052 381.103 22.884C381.263 22.716 381.471 22.516 381.727 22.284C382.047 22.004 382.283 21.764 382.435 21.564C382.587 21.356 382.663 21.108 382.663 20.82C382.663 20.428 382.511 20.116 382.207 19.884C381.903 19.644 381.483 19.524 380.947 19.524C380.011 19.524 379.295 19.84 378.799 20.472L377.923 19.848C378.259 19.416 378.687 19.084 379.207 18.852C379.735 18.62 380.343 18.504 381.031 18.504C381.903 18.504 382.595 18.696 383.107 19.08C383.619 19.456 383.875 19.976 383.875 20.64C383.875 20.968 383.819 21.26 383.707 21.516C383.603 21.764 383.475 21.972 383.323 22.14C383.171 22.308 382.967 22.508 382.711 22.74C382.383 23.036 382.139 23.296 381.979 23.52C381.827 23.744 381.751 24.02 381.751 24.348H380.551ZM381.163 27.072C380.939 27.072 380.751 27 380.599 26.856C380.455 26.704 380.383 26.52 380.383 26.304C380.383 26.088 380.455 25.908 380.599 25.764C380.751 25.612 380.939 25.536 381.163 25.536C381.387 25.536 381.571 25.612 381.715 25.764C381.859 25.908 381.931 26.088 381.931 26.304C381.931 26.52 381.855 26.704 381.703 26.856C381.559 27 381.379 27.072 381.163 27.072Z" fill="#292929"/>
<defs>
<linearGradient id="paint0_linear" x1="220.343" y1="230.189" x2="219.858" y2="311.331" gradientUnits="userSpaceOnUse">
<stop stop-color="white" stop-opacity="0"/>
<stop offset="1" stop-color="#F49298"/>
</linearGradient>
<linearGradient id="paint1_linear" x1="157.106" y1="85.657" x2="259.034" y2="246.919" gradientUnits="userSpaceOnUse">
<stop stop-color="#FF9497"/>
<stop offset="1" stop-color="#E86464"/>
</linearGradient>
<linearGradient id="paint2_linear" x1="153.072" y1="133.736" x2="233.623" y2="133.736" gradientUnits="userSpaceOnUse">
<stop stop-color="#605FE1"/>
<stop offset="1" stop-color="#3449BC"/>
</linearGradient>
</defs>
</svg>
