<svg width="17" height="17" viewBox="0 0 17 17" fill="none" xmlns="http://www.w3.org/2000/svg">
<path fill-rule="evenodd" clip-rule="evenodd" d="M16.6667 8.33333C16.6667 12.9357 12.9357 16.6667 8.33333 16.6667C3.73096 16.6667 0 12.9357 0 8.33333C0 3.73096 3.73096 0 8.33333 0C12.9357 0 16.6667 3.73096 16.6667 8.33333ZM13.4853 4.80745C13.1488 4.49343 12.6215 4.51161 12.3075 4.84807L7.01916 10.5141L4.70899 8.53395C4.35955 8.23443 3.83347 8.2749 3.53395 8.62434C3.23443 8.97378 3.2749 9.49986 3.62434 9.79938L6.54101 12.2994C6.88004 12.59 7.38787 12.5617 7.69255 12.2353L13.5259 5.98527C13.8399 5.64881 13.8217 5.12148 13.4853 4.80745Z" fill="#00CD98"/>
</svg>
