<svg width="30" height="31" viewBox="0 0 30 31" fill="none" xmlns="http://www.w3.org/2000/svg">
<path d="M23.7083 30.7967H-30V10.364C-29.996 9.37028 -29.5984 8.41868 -28.8943 7.71747C-28.1902 7.01625 -27.237 6.62256 -26.2433 6.62256H23.7083C24.5278 6.62457 25.3397 6.4649 26.0974 6.15268C26.855 5.84047 27.5437 5.38184 28.1239 4.80308C28.7041 4.22431 29.1644 3.53677 29.4785 2.77984C29.7925 2.02291 29.9542 1.21147 29.9542 0.391968V24.5661C29.9501 26.2199 29.2903 27.8047 28.1194 28.9727C26.9485 30.1407 25.3622 30.7967 23.7083 30.7967Z" fill="url(#paint0_linear)"/>
<defs>
<linearGradient id="paint0_linear" x1="-8.95648" y1="33.2858" x2="15.9812" y2="-9.91599" gradientUnits="userSpaceOnUse">
<stop stop-color="#7743FA"/>
<stop offset="0.44" stop-color="#341E6E"/>
</linearGradient>
</defs>
</svg>
