<svg width="60" height="30" viewBox="0 0 60 30" fill="none" xmlns="http://www.w3.org/2000/svg">
<path d="M6.29078 7.15297e-09H59.9991V19.1346C59.9951 20.1283 59.5975 21.0799 58.8934 21.7811C58.1893 22.4824 57.2361 22.8761 56.2424 22.876H6.29078C5.47257 22.874 4.66197 23.0332 3.90527 23.3445C3.14857 23.6557 2.46059 24.113 1.88061 24.6901C1.30063 25.2673 0.840001 25.953 0.525032 26.7082C0.210063 27.4633 0.0469248 28.2732 0.0449219 29.0914V6.18478C0.0610194 4.53888 0.726162 2.96587 1.89575 1.80772C3.06533 0.64957 4.6448 -7.87114e-05 6.29078 7.15297e-09Z" fill="url(#paint0_linear)"/>
<defs>
<linearGradient id="paint0_linear" x1="21.852" y1="26.4953" x2="37.9019" y2="-1.29804" gradientUnits="userSpaceOnUse">
<stop offset="0.07" stop-color="#341E6E"/>
<stop offset="0.87" stop-color="#7542F6"/>
<stop offset="0.89" stop-color="#7743FA"/>
</linearGradient>
</defs>
</svg>
