<svg width="432" height="358" viewBox="0 0 432 358" fill="none" xmlns="http://www.w3.org/2000/svg">
<path d="M60.5272 313.773H62.8642V319.074C62.1802 319.619 61.3822 320.037 60.4702 320.328C59.5582 320.62 58.6208 320.765 57.6582 320.765C56.3028 320.765 55.0805 320.474 53.9912 319.891C52.9018 319.296 52.0468 318.479 51.4262 317.44C50.8055 316.402 50.4952 315.23 50.4952 313.925C50.4952 312.621 50.8055 311.449 51.4262 310.41C52.0468 309.372 52.9018 308.561 53.9912 307.978C55.0932 307.383 56.3282 307.085 57.6962 307.085C58.8108 307.085 59.8242 307.269 60.7362 307.636C61.6482 308.004 62.4145 308.542 63.0352 309.251L61.4772 310.771C60.4638 309.758 59.2415 309.251 57.8102 309.251C56.8728 309.251 56.0368 309.448 55.3022 309.84C54.5802 310.233 54.0102 310.784 53.5922 311.493C53.1868 312.203 52.9842 313.013 52.9842 313.925C52.9842 314.812 53.1868 315.61 53.5922 316.319C54.0102 317.029 54.5802 317.586 55.3022 317.991C56.0368 318.397 56.8665 318.599 57.7912 318.599C58.8298 318.599 59.7418 318.371 60.5272 317.915V313.773ZM75.7319 315.559C75.7319 315.724 75.7193 315.958 75.6939 316.262H67.7329C67.8723 317.01 68.2333 317.605 68.8159 318.048C69.4113 318.479 70.1459 318.694 71.0199 318.694C72.1346 318.694 73.0529 318.327 73.7749 317.592L75.0479 319.055C74.5919 319.6 74.0156 320.012 73.3189 320.29C72.6223 320.569 71.8369 320.708 70.9629 320.708C69.8483 320.708 68.8666 320.487 68.0179 320.043C67.1693 319.6 66.5106 318.986 66.0419 318.2C65.5859 317.402 65.3579 316.503 65.3579 315.502C65.3579 314.514 65.5796 313.628 66.0229 312.842C66.4789 312.044 67.1059 311.424 67.9039 310.98C68.7019 310.537 69.6013 310.315 70.6019 310.315C71.5899 310.315 72.4703 310.537 73.2429 310.98C74.0283 311.411 74.6363 312.025 75.0669 312.823C75.5103 313.609 75.7319 314.521 75.7319 315.559ZM70.6019 312.215C69.8419 312.215 69.1959 312.443 68.6639 312.899C68.1446 313.343 67.8279 313.938 67.7139 314.685H73.4709C73.3696 313.951 73.0593 313.355 72.5399 312.899C72.0206 312.443 71.3746 312.215 70.6019 312.215ZM84.4123 320.024C84.1336 320.252 83.7916 320.423 83.3863 320.537C82.9936 320.651 82.5756 320.708 82.1323 320.708C81.0176 320.708 80.1563 320.417 79.5483 319.834C78.9403 319.252 78.6363 318.403 78.6363 317.288V312.405H76.9643V310.505H78.6363V308.187H81.0113V310.505H83.7283V312.405H81.0113V317.231C81.0113 317.725 81.1316 318.105 81.3723 318.371C81.6129 318.625 81.9613 318.751 82.4173 318.751C82.9493 318.751 83.3926 318.612 83.7473 318.333L84.4123 320.024ZM98.316 320.024C98.0373 320.252 97.6953 320.423 97.29 320.537C96.8973 320.651 96.4793 320.708 96.036 320.708C94.9213 320.708 94.06 320.417 93.452 319.834C92.844 319.252 92.54 318.403 92.54 317.288V312.405H90.868V310.505H92.54V308.187H94.915V310.505H97.632V312.405H94.915V317.231C94.915 317.725 95.0353 318.105 95.276 318.371C95.5167 318.625 95.865 318.751 96.321 318.751C96.853 318.751 97.2963 318.612 97.651 318.333L98.316 320.024ZM106.327 310.315C107.606 310.315 108.632 310.689 109.405 311.436C110.177 312.184 110.564 313.292 110.564 314.761V320.575H108.189V315.065C108.189 314.179 107.98 313.514 107.562 313.07C107.144 312.614 106.548 312.386 105.776 312.386C104.902 312.386 104.211 312.652 103.705 313.184C103.198 313.704 102.945 314.457 102.945 315.445V320.575H100.57V306.477H102.945V311.607C103.337 311.189 103.819 310.873 104.389 310.657C104.971 310.429 105.617 310.315 106.327 310.315ZM113.877 310.429H116.252V320.575H113.877V310.429ZM115.074 308.757C114.643 308.757 114.282 308.624 113.991 308.358C113.699 308.08 113.554 307.738 113.554 307.332C113.554 306.927 113.699 306.591 113.991 306.325C114.282 306.047 114.643 305.907 115.074 305.907C115.504 305.907 115.865 306.04 116.157 306.306C116.448 306.56 116.594 306.883 116.594 307.275C116.594 307.693 116.448 308.048 116.157 308.339C115.878 308.618 115.517 308.757 115.074 308.757ZM125.426 310.315C126.705 310.315 127.731 310.689 128.504 311.436C129.276 312.184 129.663 313.292 129.663 314.761V320.575H127.288V315.065C127.288 314.179 127.079 313.514 126.661 313.07C126.243 312.614 125.647 312.386 124.875 312.386C124.001 312.386 123.31 312.652 122.804 313.184C122.297 313.704 122.044 314.457 122.044 315.445V320.575H119.669V310.429H121.93V311.74C122.322 311.272 122.816 310.917 123.412 310.676C124.007 310.436 124.678 310.315 125.426 310.315ZM143.138 310.429V319.036C143.138 322.608 141.314 324.394 137.666 324.394C136.691 324.394 135.766 324.268 134.892 324.014C134.018 323.774 133.296 323.419 132.726 322.95L133.79 321.164C134.234 321.532 134.791 321.823 135.462 322.038C136.146 322.266 136.837 322.38 137.533 322.38C138.648 322.38 139.465 322.127 139.984 321.62C140.504 321.114 140.763 320.341 140.763 319.302V318.77C140.358 319.214 139.864 319.549 139.281 319.777C138.699 320.005 138.059 320.119 137.362 320.119C136.4 320.119 135.526 319.917 134.74 319.511C133.968 319.093 133.353 318.511 132.897 317.763C132.454 317.016 132.232 316.161 132.232 315.198C132.232 314.236 132.454 313.387 132.897 312.652C133.353 311.905 133.968 311.329 134.74 310.923C135.526 310.518 136.4 310.315 137.362 310.315C138.097 310.315 138.762 310.436 139.357 310.676C139.965 310.917 140.472 311.284 140.877 311.778V310.429H143.138ZM137.723 318.105C138.623 318.105 139.357 317.839 139.927 317.307C140.51 316.763 140.801 316.06 140.801 315.198C140.801 314.35 140.51 313.659 139.927 313.127C139.357 312.595 138.623 312.329 137.723 312.329C136.811 312.329 136.064 312.595 135.481 313.127C134.911 313.659 134.626 314.35 134.626 315.198C134.626 316.06 134.911 316.763 135.481 317.307C136.064 317.839 136.811 318.105 137.723 318.105ZM149.696 320.708C148.872 320.708 148.068 320.601 147.283 320.385C146.497 320.17 145.87 319.898 145.402 319.568L146.314 317.763C146.77 318.067 147.314 318.314 147.948 318.504C148.594 318.682 149.227 318.77 149.848 318.77C151.266 318.77 151.976 318.397 151.976 317.649C151.976 317.295 151.792 317.048 151.425 316.908C151.07 316.769 150.494 316.636 149.696 316.509C148.86 316.383 148.176 316.237 147.644 316.072C147.124 315.908 146.668 315.623 146.276 315.217C145.896 314.799 145.706 314.223 145.706 313.488C145.706 312.526 146.105 311.759 146.903 311.189C147.713 310.607 148.803 310.315 150.171 310.315C150.867 310.315 151.564 310.398 152.261 310.562C152.957 310.714 153.527 310.923 153.971 311.189L153.059 312.994C152.197 312.488 151.228 312.234 150.152 312.234C149.455 312.234 148.923 312.342 148.556 312.557C148.201 312.76 148.024 313.032 148.024 313.374C148.024 313.754 148.214 314.027 148.594 314.191C148.986 314.343 149.588 314.489 150.399 314.628C151.209 314.755 151.874 314.901 152.394 315.065C152.913 315.23 153.356 315.509 153.724 315.901C154.104 316.294 154.294 316.851 154.294 317.573C154.294 318.523 153.882 319.283 153.059 319.853C152.235 320.423 151.114 320.708 149.696 320.708ZM172.127 306.477V320.575H169.847V319.264C169.454 319.746 168.967 320.107 168.384 320.347C167.814 320.588 167.181 320.708 166.484 320.708C165.509 320.708 164.628 320.493 163.843 320.062C163.07 319.632 162.462 319.024 162.019 318.238C161.576 317.44 161.354 316.528 161.354 315.502C161.354 314.476 161.576 313.571 162.019 312.785C162.462 312 163.07 311.392 163.843 310.961C164.628 310.531 165.509 310.315 166.484 310.315C167.155 310.315 167.77 310.429 168.327 310.657C168.884 310.885 169.359 311.227 169.752 311.683V306.477H172.127ZM166.769 318.675C167.339 318.675 167.852 318.549 168.308 318.295C168.764 318.029 169.125 317.656 169.391 317.174C169.657 316.693 169.79 316.136 169.79 315.502C169.79 314.869 169.657 314.312 169.391 313.83C169.125 313.349 168.764 312.982 168.308 312.728C167.852 312.462 167.339 312.329 166.769 312.329C166.199 312.329 165.686 312.462 165.23 312.728C164.774 312.982 164.413 313.349 164.147 313.83C163.881 314.312 163.748 314.869 163.748 315.502C163.748 316.136 163.881 316.693 164.147 317.174C164.413 317.656 164.774 318.029 165.23 318.295C165.686 318.549 166.199 318.675 166.769 318.675ZM180.094 320.708C179.068 320.708 178.143 320.487 177.32 320.043C176.497 319.6 175.851 318.986 175.382 318.2C174.926 317.402 174.698 316.503 174.698 315.502C174.698 314.502 174.926 313.609 175.382 312.823C175.851 312.038 176.497 311.424 177.32 310.98C178.143 310.537 179.068 310.315 180.094 310.315C181.133 310.315 182.064 310.537 182.887 310.98C183.71 311.424 184.35 312.038 184.806 312.823C185.275 313.609 185.509 314.502 185.509 315.502C185.509 316.503 185.275 317.402 184.806 318.2C184.35 318.986 183.71 319.6 182.887 320.043C182.064 320.487 181.133 320.708 180.094 320.708ZM180.094 318.675C180.968 318.675 181.69 318.384 182.26 317.801C182.83 317.219 183.115 316.452 183.115 315.502C183.115 314.552 182.83 313.786 182.26 313.203C181.69 312.621 180.968 312.329 180.094 312.329C179.22 312.329 178.498 312.621 177.928 313.203C177.371 313.786 177.092 314.552 177.092 315.502C177.092 316.452 177.371 317.219 177.928 317.801C178.498 318.384 179.22 318.675 180.094 318.675ZM193.837 310.315C195.116 310.315 196.142 310.689 196.915 311.436C197.688 312.184 198.074 313.292 198.074 314.761V320.575H195.699V315.065C195.699 314.179 195.49 313.514 195.072 313.07C194.654 312.614 194.059 312.386 193.286 312.386C192.412 312.386 191.722 312.652 191.215 313.184C190.708 313.704 190.455 314.457 190.455 315.445V320.575H188.08V310.429H190.341V311.74C190.734 311.272 191.228 310.917 191.823 310.676C192.418 310.436 193.09 310.315 193.837 310.315ZM211.018 315.559C211.018 315.724 211.005 315.958 210.98 316.262H203.019C203.158 317.01 203.519 317.605 204.102 318.048C204.697 318.479 205.432 318.694 206.306 318.694C207.42 318.694 208.339 318.327 209.061 317.592L210.334 319.055C209.878 319.6 209.301 320.012 208.605 320.29C207.908 320.569 207.123 320.708 206.249 320.708C205.134 320.708 204.152 320.487 203.304 320.043C202.455 319.6 201.796 318.986 201.328 318.2C200.872 317.402 200.644 316.503 200.644 315.502C200.644 314.514 200.865 313.628 201.309 312.842C201.765 312.044 202.392 311.424 203.19 310.98C203.988 310.537 204.887 310.315 205.888 310.315C206.876 310.315 207.756 310.537 208.529 310.98C209.314 311.411 209.922 312.025 210.353 312.823C210.796 313.609 211.018 314.521 211.018 315.559ZM205.888 312.215C205.128 312.215 204.482 312.443 203.95 312.899C203.43 313.343 203.114 313.938 203 314.685H208.757C208.655 313.951 208.345 313.355 207.826 312.899C207.306 312.443 206.66 312.215 205.888 312.215ZM234.977 310.429L231.234 320.575H228.954L226.332 313.583L223.672 320.575H221.392L217.668 310.429H219.91L222.589 317.915L225.382 310.429H227.377L230.113 317.953L232.868 310.429H234.977ZM236.91 310.429H239.285V320.575H236.91V310.429ZM238.107 308.757C237.676 308.757 237.315 308.624 237.024 308.358C236.733 308.08 236.587 307.738 236.587 307.332C236.587 306.927 236.733 306.591 237.024 306.325C237.315 306.047 237.676 305.907 238.107 305.907C238.538 305.907 238.899 306.04 239.19 306.306C239.481 306.56 239.627 306.883 239.627 307.275C239.627 307.693 239.481 308.048 239.19 308.339C238.911 308.618 238.55 308.757 238.107 308.757ZM248.801 320.024C248.522 320.252 248.18 320.423 247.775 320.537C247.382 320.651 246.964 320.708 246.521 320.708C245.406 320.708 244.545 320.417 243.937 319.834C243.329 319.252 243.025 318.403 243.025 317.288V312.405H241.353V310.505H243.025V308.187H245.4V310.505H248.117V312.405H245.4V317.231C245.4 317.725 245.52 318.105 245.761 318.371C246.002 318.625 246.35 318.751 246.806 318.751C247.338 318.751 247.781 318.612 248.136 318.333L248.801 320.024ZM256.812 310.315C258.091 310.315 259.117 310.689 259.89 311.436C260.663 312.184 261.049 313.292 261.049 314.761V320.575H258.674V315.065C258.674 314.179 258.465 313.514 258.047 313.07C257.629 312.614 257.034 312.386 256.261 312.386C255.387 312.386 254.697 312.652 254.19 313.184C253.683 313.704 253.43 314.457 253.43 315.445V320.575H251.055V306.477H253.43V311.607C253.823 311.189 254.304 310.873 254.874 310.657C255.457 310.429 256.103 310.315 256.812 310.315ZM279.736 310.429V320.575H277.475V319.283C277.095 319.739 276.62 320.094 276.05 320.347C275.48 320.588 274.865 320.708 274.207 320.708C272.851 320.708 271.781 320.335 270.996 319.587C270.223 318.827 269.837 317.706 269.837 316.224V310.429H272.212V315.901C272.212 316.813 272.414 317.497 272.82 317.953C273.238 318.397 273.827 318.618 274.587 318.618C275.435 318.618 276.107 318.359 276.601 317.839C277.107 317.307 277.361 316.547 277.361 315.559V310.429H279.736ZM286.28 320.708C285.457 320.708 284.653 320.601 283.867 320.385C283.082 320.17 282.455 319.898 281.986 319.568L282.898 317.763C283.354 318.067 283.899 318.314 284.532 318.504C285.178 318.682 285.812 318.77 286.432 318.77C287.851 318.77 288.56 318.397 288.56 317.649C288.56 317.295 288.377 317.048 288.009 316.908C287.655 316.769 287.078 316.636 286.28 316.509C285.444 316.383 284.76 316.237 284.228 316.072C283.709 315.908 283.253 315.623 282.86 315.217C282.48 314.799 282.29 314.223 282.29 313.488C282.29 312.526 282.689 311.759 283.487 311.189C284.298 310.607 285.387 310.315 286.755 310.315C287.452 310.315 288.149 310.398 288.845 310.562C289.542 310.714 290.112 310.923 290.555 311.189L289.643 312.994C288.782 312.488 287.813 312.234 286.736 312.234C286.04 312.234 285.508 312.342 285.14 312.557C284.786 312.76 284.608 313.032 284.608 313.374C284.608 313.754 284.798 314.027 285.178 314.191C285.571 314.343 286.173 314.489 286.983 314.628C287.794 314.755 288.459 314.901 288.978 315.065C289.498 315.23 289.941 315.509 290.308 315.901C290.688 316.294 290.878 316.851 290.878 317.573C290.878 318.523 290.467 319.283 289.643 319.853C288.82 320.423 287.699 320.708 286.28 320.708Z" fill="#272727"/>
<path d="M63.6342 341.475L60.5662 350.575H59.5522L56.8872 342.814L54.2092 350.575H53.2082L50.1402 341.475H51.1282L53.7542 349.301L56.4712 341.475H57.3682L60.0462 349.34L62.7112 341.475H63.6342ZM70.899 347.442H65.179C65.231 348.153 65.504 348.729 65.998 349.171C66.492 349.605 67.116 349.821 67.87 349.821C68.2947 349.821 68.6847 349.748 69.04 349.6C69.3953 349.444 69.703 349.219 69.963 348.924L70.483 349.522C70.1797 349.886 69.7983 350.164 69.339 350.354C68.8883 350.545 68.39 350.64 67.844 350.64C67.142 350.64 66.518 350.493 65.972 350.198C65.4347 349.895 65.0143 349.479 64.711 348.95C64.4077 348.422 64.256 347.824 64.256 347.156C64.256 346.489 64.399 345.891 64.685 345.362C64.9797 344.834 65.3783 344.422 65.881 344.127C66.3923 343.833 66.9643 343.685 67.597 343.685C68.2297 343.685 68.7973 343.833 69.3 344.127C69.8027 344.422 70.197 344.834 70.483 345.362C70.769 345.882 70.912 346.48 70.912 347.156L70.899 347.442ZM67.597 344.478C66.9383 344.478 66.3837 344.691 65.933 345.115C65.491 345.531 65.2397 346.077 65.179 346.753H70.028C69.9673 346.077 69.7117 345.531 69.261 345.115C68.819 344.691 68.2643 344.478 67.597 344.478ZM73.1191 340.864C73.3185 340.864 73.4831 340.934 73.6131 341.072C73.7431 341.202 73.8081 341.367 73.8081 341.566C73.8081 341.67 73.7908 341.783 73.7561 341.904C73.7301 342.017 73.6911 342.151 73.6391 342.307L73.0801 344.101H72.4561L72.9111 342.229C72.7638 342.186 72.6468 342.108 72.5601 341.995C72.4735 341.874 72.4301 341.731 72.4301 341.566C72.4301 341.358 72.4951 341.189 72.6251 341.059C72.7551 340.929 72.9198 340.864 73.1191 340.864ZM76.0325 340.929H76.9555V350.575H76.0325V340.929ZM79.7862 340.929H80.7092V350.575H79.7862V340.929ZM95.7328 343.685C96.5908 343.685 97.2624 343.932 97.7478 344.426C98.2418 344.92 98.4888 345.648 98.4888 346.61V350.575H97.5658V346.701C97.5658 345.991 97.3924 345.449 97.0458 345.076C96.7078 344.704 96.2268 344.517 95.6028 344.517C94.8921 344.517 94.3331 344.738 93.9258 345.18C93.5184 345.614 93.3148 346.216 93.3148 346.987V350.575H92.3918V346.701C92.3918 345.991 92.2184 345.449 91.8718 345.076C91.5338 344.704 91.0484 344.517 90.4158 344.517C89.7138 344.517 89.1548 344.738 88.7388 345.18C88.3314 345.614 88.1278 346.216 88.1278 346.987V350.575H87.2048V343.737H88.0888V344.985C88.3314 344.569 88.6694 344.249 89.1028 344.023C89.5361 343.798 90.0344 343.685 90.5978 343.685C91.1698 343.685 91.6638 343.807 92.0798 344.049C92.5044 344.292 92.8208 344.652 93.0288 345.128C93.2801 344.678 93.6398 344.327 94.1078 344.075C94.5844 343.815 95.1261 343.685 95.7328 343.685ZM103.646 343.685C104.539 343.685 105.224 343.911 105.7 344.361C106.177 344.803 106.415 345.462 106.415 346.337V350.575H105.531V349.509C105.323 349.865 105.016 350.142 104.608 350.341C104.21 350.541 103.733 350.64 103.178 350.64C102.416 350.64 101.809 350.458 101.358 350.094C100.908 349.73 100.682 349.249 100.682 348.651C100.682 348.071 100.89 347.603 101.306 347.247C101.731 346.892 102.403 346.714 103.321 346.714H105.492V346.298C105.492 345.709 105.328 345.263 104.998 344.959C104.669 344.647 104.188 344.491 103.555 344.491C103.122 344.491 102.706 344.565 102.307 344.712C101.909 344.851 101.566 345.046 101.28 345.297L100.864 344.608C101.211 344.314 101.627 344.088 102.112 343.932C102.598 343.768 103.109 343.685 103.646 343.685ZM103.321 349.912C103.841 349.912 104.288 349.795 104.66 349.561C105.033 349.319 105.31 348.972 105.492 348.521V347.403H103.347C102.177 347.403 101.592 347.811 101.592 348.625C101.592 349.024 101.744 349.34 102.047 349.574C102.351 349.8 102.775 349.912 103.321 349.912ZM111.72 347.143L110.108 348.625V350.575H109.185V340.929H110.108V347.468L114.19 343.737H115.334L112.409 346.532L115.607 350.575H114.476L111.72 347.143ZM122.93 347.442H117.21C117.262 348.153 117.535 348.729 118.029 349.171C118.523 349.605 119.147 349.821 119.901 349.821C120.325 349.821 120.715 349.748 121.071 349.6C121.426 349.444 121.734 349.219 121.994 348.924L122.514 349.522C122.21 349.886 121.829 350.164 121.37 350.354C120.919 350.545 120.421 350.64 119.875 350.64C119.173 350.64 118.549 350.493 118.003 350.198C117.465 349.895 117.045 349.479 116.742 348.95C116.438 348.422 116.287 347.824 116.287 347.156C116.287 346.489 116.43 345.891 116.716 345.362C117.01 344.834 117.409 344.422 117.912 344.127C118.423 343.833 118.995 343.685 119.628 343.685C120.26 343.685 120.828 343.833 121.331 344.127C121.833 344.422 122.228 344.834 122.514 345.362C122.8 345.882 122.943 346.48 122.943 347.156L122.93 347.442ZM119.628 344.478C118.969 344.478 118.414 344.691 117.964 345.115C117.522 345.531 117.27 346.077 117.21 346.753H122.059C121.998 346.077 121.742 345.531 121.292 345.115C120.85 344.691 120.295 344.478 119.628 344.478ZM128.749 343.737H129.672V350.575H128.749V343.737ZM129.217 342.242C129.026 342.242 128.866 342.177 128.736 342.047C128.606 341.917 128.541 341.761 128.541 341.579C128.541 341.406 128.606 341.254 128.736 341.124C128.866 340.994 129.026 340.929 129.217 340.929C129.407 340.929 129.568 340.994 129.698 341.124C129.828 341.246 129.893 341.393 129.893 341.566C129.893 341.757 129.828 341.917 129.698 342.047C129.568 342.177 129.407 342.242 129.217 342.242ZM136.103 350.159C135.93 350.315 135.713 350.437 135.453 350.523C135.202 350.601 134.938 350.64 134.66 350.64C134.019 350.64 133.525 350.467 133.178 350.12C132.832 349.774 132.658 349.284 132.658 348.651V344.517H131.436V343.737H132.658V342.242H133.581V343.737H135.661V344.517H133.581V348.599C133.581 349.007 133.681 349.319 133.88 349.535C134.088 349.743 134.383 349.847 134.764 349.847C134.955 349.847 135.137 349.817 135.31 349.756C135.492 349.696 135.648 349.609 135.778 349.496L136.103 350.159ZM147.665 347.442H141.945C141.997 348.153 142.27 348.729 142.764 349.171C143.258 349.605 143.882 349.821 144.636 349.821C145.061 349.821 145.451 349.748 145.806 349.6C146.161 349.444 146.469 349.219 146.729 348.924L147.249 349.522C146.946 349.886 146.564 350.164 146.105 350.354C145.654 350.545 145.156 350.64 144.61 350.64C143.908 350.64 143.284 350.493 142.738 350.198C142.201 349.895 141.78 349.479 141.477 348.95C141.174 348.422 141.022 347.824 141.022 347.156C141.022 346.489 141.165 345.891 141.451 345.362C141.746 344.834 142.144 344.422 142.647 344.127C143.158 343.833 143.73 343.685 144.363 343.685C144.996 343.685 145.563 343.833 146.066 344.127C146.569 344.422 146.963 344.834 147.249 345.362C147.535 345.882 147.678 346.48 147.678 347.156L147.665 347.442ZM144.363 344.478C143.704 344.478 143.15 344.691 142.699 345.115C142.257 345.531 142.006 346.077 141.945 346.753H146.794C146.733 346.077 146.478 345.531 146.027 345.115C145.585 344.691 145.03 344.478 144.363 344.478ZM155.438 343.737L152.396 350.575H151.447L148.418 343.737H149.38L151.941 349.561L154.528 343.737H155.438ZM162.764 347.442H157.044C157.096 348.153 157.369 348.729 157.863 349.171C158.357 349.605 158.981 349.821 159.735 349.821C160.16 349.821 160.55 349.748 160.905 349.6C161.261 349.444 161.568 349.219 161.828 348.924L162.348 349.522C162.045 349.886 161.664 350.164 161.204 350.354C160.754 350.545 160.255 350.64 159.709 350.64C159.007 350.64 158.383 350.493 157.837 350.198C157.3 349.895 156.88 349.479 156.576 348.95C156.273 348.422 156.121 347.824 156.121 347.156C156.121 346.489 156.264 345.891 156.55 345.362C156.845 344.834 157.244 344.422 157.746 344.127C158.258 343.833 158.83 343.685 159.462 343.685C160.095 343.685 160.663 343.833 161.165 344.127C161.668 344.422 162.062 344.834 162.348 345.362C162.634 345.882 162.777 346.48 162.777 347.156L162.764 347.442ZM159.462 344.478C158.804 344.478 158.249 344.691 157.798 345.115C157.356 345.531 157.105 346.077 157.044 346.753H161.893C161.833 346.077 161.577 345.531 161.126 345.115C160.684 344.691 160.13 344.478 159.462 344.478ZM168.402 343.685C169.26 343.685 169.941 343.937 170.443 344.439C170.955 344.933 171.21 345.657 171.21 346.61V350.575H170.287V346.701C170.287 345.991 170.11 345.449 169.754 345.076C169.399 344.704 168.892 344.517 168.233 344.517C167.497 344.517 166.912 344.738 166.478 345.18C166.054 345.614 165.841 346.216 165.841 346.987V350.575H164.918V343.737H165.802V344.998C166.054 344.582 166.4 344.262 166.842 344.036C167.293 343.802 167.813 343.685 168.402 343.685ZM183.598 347.442H177.878C177.93 348.153 178.203 348.729 178.697 349.171C179.191 349.605 179.815 349.821 180.569 349.821C180.993 349.821 181.383 349.748 181.739 349.6C182.094 349.444 182.402 349.219 182.662 348.924L183.182 349.522C182.878 349.886 182.497 350.164 182.038 350.354C181.587 350.545 181.089 350.64 180.543 350.64C179.841 350.64 179.217 350.493 178.671 350.198C178.133 349.895 177.713 349.479 177.41 348.95C177.106 348.422 176.955 347.824 176.955 347.156C176.955 346.489 177.098 345.891 177.384 345.362C177.678 344.834 178.077 344.422 178.58 344.127C179.091 343.833 179.663 343.685 180.296 343.685C180.928 343.685 181.496 343.833 181.999 344.127C182.501 344.422 182.896 344.834 183.182 345.362C183.468 345.882 183.611 346.48 183.611 347.156L183.598 347.442ZM180.296 344.478C179.637 344.478 179.082 344.691 178.632 345.115C178.19 345.531 177.938 346.077 177.878 346.753H182.727C182.666 346.077 182.41 345.531 181.96 345.115C181.518 344.691 180.963 344.478 180.296 344.478ZM187.953 343.685C188.846 343.685 189.531 343.911 190.007 344.361C190.484 344.803 190.722 345.462 190.722 346.337V350.575H189.838V349.509C189.63 349.865 189.323 350.142 188.915 350.341C188.517 350.541 188.04 350.64 187.485 350.64C186.723 350.64 186.116 350.458 185.665 350.094C185.215 349.73 184.989 349.249 184.989 348.651C184.989 348.071 185.197 347.603 185.613 347.247C186.038 346.892 186.71 346.714 187.628 346.714H189.799V346.298C189.799 345.709 189.635 345.263 189.305 344.959C188.976 344.647 188.495 344.491 187.862 344.491C187.429 344.491 187.013 344.565 186.614 344.712C186.216 344.851 185.873 345.046 185.587 345.297L185.171 344.608C185.518 344.314 185.934 344.088 186.419 343.932C186.905 343.768 187.416 343.685 187.953 343.685ZM187.628 349.912C188.148 349.912 188.595 349.795 188.967 349.561C189.34 349.319 189.617 348.972 189.799 348.521V347.403H187.654C186.484 347.403 185.899 347.811 185.899 348.625C185.899 349.024 186.051 349.34 186.354 349.574C186.658 349.8 187.082 349.912 187.628 349.912ZM195.325 350.64C194.77 350.64 194.237 350.562 193.726 350.406C193.223 350.242 192.829 350.038 192.543 349.795L192.959 349.067C193.245 349.293 193.605 349.479 194.038 349.626C194.471 349.765 194.922 349.834 195.39 349.834C196.014 349.834 196.473 349.739 196.768 349.548C197.071 349.349 197.223 349.072 197.223 348.716C197.223 348.465 197.141 348.27 196.976 348.131C196.811 347.984 196.603 347.876 196.352 347.806C196.101 347.728 195.767 347.655 195.351 347.585C194.796 347.481 194.35 347.377 194.012 347.273C193.674 347.161 193.384 346.974 193.141 346.714C192.907 346.454 192.79 346.095 192.79 345.635C192.79 345.063 193.028 344.595 193.505 344.231C193.982 343.867 194.645 343.685 195.494 343.685C195.936 343.685 196.378 343.746 196.82 343.867C197.262 343.98 197.626 344.132 197.912 344.322L197.509 345.063C196.946 344.673 196.274 344.478 195.494 344.478C194.905 344.478 194.458 344.582 194.155 344.79C193.86 344.998 193.713 345.271 193.713 345.609C193.713 345.869 193.795 346.077 193.96 346.233C194.133 346.389 194.346 346.506 194.597 346.584C194.848 346.654 195.195 346.727 195.637 346.805C196.183 346.909 196.621 347.013 196.95 347.117C197.279 347.221 197.561 347.399 197.795 347.65C198.029 347.902 198.146 348.248 198.146 348.69C198.146 349.288 197.895 349.765 197.392 350.12C196.898 350.467 196.209 350.64 195.325 350.64ZM200.115 343.737H201.038V350.575H200.115V343.737ZM200.583 342.242C200.392 342.242 200.232 342.177 200.102 342.047C199.972 341.917 199.907 341.761 199.907 341.579C199.907 341.406 199.972 341.254 200.102 341.124C200.232 340.994 200.392 340.929 200.583 340.929C200.773 340.929 200.934 340.994 201.064 341.124C201.194 341.246 201.259 341.393 201.259 341.566C201.259 341.757 201.194 341.917 201.064 342.047C200.934 342.177 200.773 342.242 200.583 342.242ZM209.822 347.442H204.102C204.154 348.153 204.427 348.729 204.921 349.171C205.415 349.605 206.039 349.821 206.793 349.821C207.218 349.821 207.608 349.748 207.963 349.6C208.319 349.444 208.626 349.219 208.886 348.924L209.406 349.522C209.103 349.886 208.722 350.164 208.262 350.354C207.812 350.545 207.313 350.64 206.767 350.64C206.065 350.64 205.441 350.493 204.895 350.198C204.358 349.895 203.938 349.479 203.634 348.95C203.331 348.422 203.179 347.824 203.179 347.156C203.179 346.489 203.322 345.891 203.608 345.362C203.903 344.834 204.302 344.422 204.804 344.127C205.316 343.833 205.888 343.685 206.52 343.685C207.153 343.685 207.721 343.833 208.223 344.127C208.726 344.422 209.12 344.834 209.406 345.362C209.692 345.882 209.835 346.48 209.835 347.156L209.822 347.442ZM206.52 344.478C205.862 344.478 205.307 344.691 204.856 345.115C204.414 345.531 204.163 346.077 204.102 346.753H208.951C208.891 346.077 208.635 345.531 208.184 345.115C207.742 344.691 207.188 344.478 206.52 344.478ZM212.861 345.076C213.077 344.617 213.398 344.27 213.823 344.036C214.256 343.802 214.789 343.685 215.422 343.685V344.582L215.201 344.569C214.481 344.569 213.918 344.79 213.511 345.232C213.103 345.674 212.9 346.294 212.9 347.091V350.575H211.977V343.737H212.861V345.076ZM224.723 350.159C224.549 350.315 224.333 350.437 224.073 350.523C223.821 350.601 223.557 350.64 223.28 350.64C222.638 350.64 222.144 350.467 221.798 350.12C221.451 349.774 221.278 349.284 221.278 348.651V344.517H220.056V343.737H221.278V342.242H222.201V343.737H224.281V344.517H222.201V348.599C222.201 349.007 222.3 349.319 222.5 349.535C222.708 349.743 223.002 349.847 223.384 349.847C223.574 349.847 223.756 349.817 223.93 349.756C224.112 349.696 224.268 349.609 224.398 349.496L224.723 350.159ZM229.219 350.64C228.561 350.64 227.967 350.493 227.438 350.198C226.91 349.895 226.494 349.479 226.19 348.95C225.887 348.422 225.735 347.824 225.735 347.156C225.735 346.489 225.887 345.891 226.19 345.362C226.494 344.834 226.91 344.422 227.438 344.127C227.967 343.833 228.561 343.685 229.219 343.685C229.878 343.685 230.472 343.833 231 344.127C231.529 344.422 231.941 344.834 232.235 345.362C232.539 345.891 232.69 346.489 232.69 347.156C232.69 347.824 232.539 348.422 232.235 348.95C231.941 349.479 231.529 349.895 231 350.198C230.472 350.493 229.878 350.64 229.219 350.64ZM229.219 349.821C229.705 349.821 230.138 349.713 230.519 349.496C230.909 349.271 231.213 348.955 231.429 348.547C231.646 348.14 231.754 347.676 231.754 347.156C231.754 346.636 231.646 346.173 231.429 345.765C231.213 345.358 230.909 345.046 230.519 344.829C230.138 344.604 229.705 344.491 229.219 344.491C228.734 344.491 228.296 344.604 227.906 344.829C227.525 345.046 227.222 345.358 226.996 345.765C226.78 346.173 226.671 346.636 226.671 347.156C226.671 347.676 226.78 348.14 226.996 348.547C227.222 348.955 227.525 349.271 227.906 349.496C228.296 349.713 228.734 349.821 229.219 349.821ZM244.742 340.929V350.575H243.858V349.223C243.581 349.683 243.212 350.034 242.753 350.276C242.302 350.519 241.791 350.64 241.219 350.64C240.578 350.64 239.997 350.493 239.477 350.198C238.957 349.904 238.55 349.492 238.255 348.963C237.96 348.435 237.813 347.832 237.813 347.156C237.813 346.48 237.96 345.878 238.255 345.349C238.55 344.821 238.957 344.413 239.477 344.127C239.997 343.833 240.578 343.685 241.219 343.685C241.774 343.685 242.272 343.802 242.714 344.036C243.165 344.262 243.533 344.595 243.819 345.037V340.929H244.742ZM241.297 349.821C241.774 349.821 242.203 349.713 242.584 349.496C242.974 349.271 243.277 348.955 243.494 348.547C243.719 348.14 243.832 347.676 243.832 347.156C243.832 346.636 243.719 346.173 243.494 345.765C243.277 345.358 242.974 345.046 242.584 344.829C242.203 344.604 241.774 344.491 241.297 344.491C240.812 344.491 240.374 344.604 239.984 344.829C239.603 345.046 239.299 345.358 239.074 345.765C238.857 346.173 238.749 346.636 238.749 347.156C238.749 347.676 238.857 348.14 239.074 348.547C239.299 348.955 239.603 349.271 239.984 349.496C240.374 349.713 240.812 349.821 241.297 349.821ZM250.37 350.64C249.711 350.64 249.118 350.493 248.589 350.198C248.06 349.895 247.644 349.479 247.341 348.95C247.038 348.422 246.886 347.824 246.886 347.156C246.886 346.489 247.038 345.891 247.341 345.362C247.644 344.834 248.06 344.422 248.589 344.127C249.118 343.833 249.711 343.685 250.37 343.685C251.029 343.685 251.622 343.833 252.151 344.127C252.68 344.422 253.091 344.834 253.386 345.362C253.689 345.891 253.841 346.489 253.841 347.156C253.841 347.824 253.689 348.422 253.386 348.95C253.091 349.479 252.68 349.895 252.151 350.198C251.622 350.493 251.029 350.64 250.37 350.64ZM250.37 349.821C250.855 349.821 251.289 349.713 251.67 349.496C252.06 349.271 252.363 348.955 252.58 348.547C252.797 348.14 252.905 347.676 252.905 347.156C252.905 346.636 252.797 346.173 252.58 345.765C252.363 345.358 252.06 345.046 251.67 344.829C251.289 344.604 250.855 344.491 250.37 344.491C249.885 344.491 249.447 344.604 249.057 344.829C248.676 345.046 248.372 345.358 248.147 345.765C247.93 346.173 247.822 346.636 247.822 347.156C247.822 347.676 247.93 348.14 248.147 348.547C248.372 348.955 248.676 349.271 249.057 349.496C249.447 349.713 249.885 349.821 250.37 349.821ZM265.399 343.737L261.98 351.394C261.702 352.036 261.382 352.491 261.018 352.759C260.654 353.028 260.216 353.162 259.705 353.162C259.375 353.162 259.068 353.11 258.782 353.006C258.496 352.902 258.249 352.746 258.041 352.538L258.47 351.849C258.816 352.196 259.232 352.369 259.718 352.369C260.03 352.369 260.294 352.283 260.511 352.109C260.736 351.936 260.944 351.641 261.135 351.225L261.434 350.562L258.379 343.737H259.341L261.915 349.548L264.489 343.737H265.399ZM269.566 350.64C268.907 350.64 268.313 350.493 267.785 350.198C267.256 349.895 266.84 349.479 266.537 348.95C266.233 348.422 266.082 347.824 266.082 347.156C266.082 346.489 266.233 345.891 266.537 345.362C266.84 344.834 267.256 344.422 267.785 344.127C268.313 343.833 268.907 343.685 269.566 343.685C270.224 343.685 270.818 343.833 271.347 344.127C271.875 344.422 272.287 344.834 272.582 345.362C272.885 345.891 273.037 346.489 273.037 347.156C273.037 347.824 272.885 348.422 272.582 348.95C272.287 349.479 271.875 349.895 271.347 350.198C270.818 350.493 270.224 350.64 269.566 350.64ZM269.566 349.821C270.051 349.821 270.484 349.713 270.866 349.496C271.256 349.271 271.559 348.955 271.776 348.547C271.992 348.14 272.101 347.676 272.101 347.156C272.101 346.636 271.992 346.173 271.776 345.765C271.559 345.358 271.256 345.046 270.866 344.829C270.484 344.604 270.051 344.491 269.566 344.491C269.08 344.491 268.643 344.604 268.253 344.829C267.871 345.046 267.568 345.358 267.343 345.765C267.126 346.173 267.018 346.636 267.018 347.156C267.018 347.676 267.126 348.14 267.343 348.547C267.568 348.955 267.871 349.271 268.253 349.496C268.643 349.713 269.08 349.821 269.566 349.821ZM281.346 343.737V350.575H280.462V349.327C280.219 349.743 279.885 350.068 279.461 350.302C279.036 350.528 278.551 350.64 278.005 350.64C277.112 350.64 276.406 350.393 275.886 349.899C275.374 349.397 275.119 348.664 275.119 347.702V343.737H276.042V347.611C276.042 348.331 276.219 348.877 276.575 349.249C276.93 349.622 277.437 349.808 278.096 349.808C278.815 349.808 279.383 349.592 279.799 349.158C280.215 348.716 280.423 348.105 280.423 347.325V343.737H281.346ZM285.077 345.076C285.294 344.617 285.615 344.27 286.039 344.036C286.473 343.802 287.006 343.685 287.638 343.685V344.582L287.417 344.569C286.698 344.569 286.135 344.79 285.727 345.232C285.32 345.674 285.116 346.294 285.116 347.091V350.575H284.193V343.737H285.077V345.076ZM303.374 343.737L300.787 350.575H299.916L297.758 344.972L295.6 350.575H294.729L292.155 343.737H293.039L295.184 349.548L297.381 343.737H298.174L300.358 349.548L302.529 343.737H303.374ZM307.631 350.64C306.973 350.64 306.379 350.493 305.85 350.198C305.322 349.895 304.906 349.479 304.602 348.95C304.299 348.422 304.147 347.824 304.147 347.156C304.147 346.489 304.299 345.891 304.602 345.362C304.906 344.834 305.322 344.422 305.85 344.127C306.379 343.833 306.973 343.685 307.631 343.685C308.29 343.685 308.884 343.833 309.412 344.127C309.941 344.422 310.353 344.834 310.647 345.362C310.951 345.891 311.102 346.489 311.102 347.156C311.102 347.824 310.951 348.422 310.647 348.95C310.353 349.479 309.941 349.895 309.412 350.198C308.884 350.493 308.29 350.64 307.631 350.64ZM307.631 349.821C308.117 349.821 308.55 349.713 308.931 349.496C309.321 349.271 309.625 348.955 309.841 348.547C310.058 348.14 310.166 347.676 310.166 347.156C310.166 346.636 310.058 346.173 309.841 345.765C309.625 345.358 309.321 345.046 308.931 344.829C308.55 344.604 308.117 344.491 307.631 344.491C307.146 344.491 306.708 344.604 306.318 344.829C305.937 345.046 305.634 345.358 305.408 345.765C305.192 346.173 305.083 346.636 305.083 347.156C305.083 347.676 305.192 348.14 305.408 348.547C305.634 348.955 305.937 349.271 306.318 349.496C306.708 349.713 307.146 349.821 307.631 349.821ZM314.133 345.076C314.35 344.617 314.67 344.27 315.095 344.036C315.528 343.802 316.061 343.685 316.694 343.685V344.582L316.473 344.569C315.754 344.569 315.19 344.79 314.783 345.232C314.376 345.674 314.172 346.294 314.172 347.091V350.575H313.249V343.737H314.133V345.076ZM321.163 347.143L319.551 348.625V350.575H318.628V340.929H319.551V347.468L323.633 343.737H324.777L321.852 346.532L325.05 350.575H323.919L321.163 347.143ZM326.916 350.64C326.725 350.64 326.561 350.571 326.422 350.432C326.292 350.294 326.227 350.125 326.227 349.925C326.227 349.726 326.292 349.561 326.422 349.431C326.561 349.293 326.725 349.223 326.916 349.223C327.107 349.223 327.271 349.293 327.41 349.431C327.549 349.561 327.618 349.726 327.618 349.925C327.618 350.125 327.549 350.294 327.41 350.432C327.271 350.571 327.107 350.64 326.916 350.64Z" fill="#272727" fill-opacity="0.85"/>
<path d="M96.2903 267.019C110.441 267.019 121.913 264.107 121.913 260.515C121.913 256.923 110.441 254.011 96.2903 254.011C82.1395 254.011 70.668 256.923 70.668 260.515C70.668 264.107 82.1395 267.019 96.2903 267.019Z" fill="#99A1DB" fill-opacity="0.57"/>
<path d="M231.586 255.378C306.544 255.378 367.309 252.466 367.309 248.874C367.309 245.282 306.544 242.37 231.586 242.37C156.629 242.37 95.8643 245.282 95.8643 248.874C95.8643 252.466 156.629 255.378 231.586 255.378Z" fill="#99A1DB" fill-opacity="0.57"/>
<path d="M347.927 55.9414H115.245C111.864 55.9414 109.123 58.6825 109.123 62.0639V226.003C109.123 229.384 111.864 232.125 115.245 232.125H347.927C351.308 232.125 354.049 229.384 354.049 226.003V62.0639C354.049 58.6825 351.308 55.9414 347.927 55.9414Z" fill="#434D97"/>
<path d="M99.0435 230.937H367.309V242.046C367.309 243.856 366.59 245.591 365.31 246.871C364.031 248.151 362.295 248.869 360.486 248.869H105.867C104.057 248.869 102.321 248.151 101.042 246.871C99.7623 245.591 99.0435 243.856 99.0435 242.046V230.937Z" fill="#7A83C2"/>
<path d="M117.318 101.123V208.151C117.318 210.161 117.714 212.151 118.483 214.008C119.252 215.865 120.38 217.552 121.801 218.973C123.222 220.395 124.909 221.522 126.766 222.291C128.623 223.06 130.613 223.456 132.623 223.456H231.586V101.123H117.318Z" fill="white"/>
<path d="M231.586 64.6106H132.623C128.564 64.6106 124.671 66.2231 121.801 69.0934C118.931 71.9636 117.318 75.8566 117.318 79.9157V101.123H231.586V64.6106Z" fill="#7A89FC"/>
<path d="M345.854 101.123V79.9157C345.854 75.8566 344.242 71.9636 341.372 69.0934C338.501 66.2231 334.608 64.6106 330.549 64.6106H231.586V101.123H345.854Z" fill="#FF5F76"/>
<path d="M231.586 101.123V223.456H330.549C332.559 223.456 334.549 223.06 336.406 222.291C338.263 221.522 339.95 220.395 341.372 218.973C342.793 217.552 343.92 215.865 344.689 214.008C345.459 212.151 345.854 210.161 345.854 208.151V101.123H231.586Z" fill="white"/>
<path d="M120.948 153.934V106.194H164.873V153.934H120.948Z" fill="white" stroke="#7A89FC" stroke-width="2" stroke-miterlimit="10"/>
<path d="M120.948 184.34V158.988H227.207V184.34H120.948Z" fill="white" stroke="#7A89FC" stroke-width="2" stroke-miterlimit="10"/>
<path d="M235.342 131.35V105.999H341.6V131.35H235.342Z" fill="white" stroke="#FF5F76" stroke-width="2" stroke-linecap="round" stroke-linejoin="round"/>
<path d="M227.596 105.21H170.244C169.903 105.21 169.625 105.389 169.625 105.61V106.811C169.625 107.031 169.903 107.21 170.244 107.21H227.596C227.938 107.21 228.215 107.031 228.215 106.811V105.61C228.215 105.389 227.938 105.21 227.596 105.21Z" fill="#7A89FC"/>
<path d="M227.592 111.79H170.241C169.899 111.79 169.622 111.969 169.622 112.19V113.391C169.622 113.611 169.899 113.79 170.241 113.79H227.592C227.934 113.79 228.211 113.611 228.211 113.391V112.19C228.211 111.969 227.934 111.79 227.592 111.79Z" fill="#7A89FC"/>
<path d="M227.59 118.371H170.238C169.896 118.371 169.619 118.55 169.619 118.771V119.972C169.619 120.192 169.896 120.371 170.238 120.371H227.59C227.932 120.371 228.209 120.192 228.209 119.972V118.771C228.209 118.55 227.932 118.371 227.59 118.371Z" fill="#7A89FC"/>
<path d="M227.586 124.951H170.234C169.892 124.951 169.615 125.13 169.615 125.351V126.552C169.615 126.772 169.892 126.951 170.234 126.951H227.586C227.928 126.951 228.205 126.772 228.205 126.552V125.351C228.205 125.13 227.928 124.951 227.586 124.951Z" fill="#7A89FC"/>
<path d="M227.581 131.531H170.23C169.888 131.531 169.611 131.71 169.611 131.931V133.132C169.611 133.352 169.888 133.531 170.23 133.531H227.581C227.923 133.531 228.2 133.352 228.2 133.132V131.931C228.2 131.71 227.923 131.531 227.581 131.531Z" fill="#7A89FC"/>
<path d="M227.596 137.905H170.244C169.903 137.905 169.625 138.084 169.625 138.305V139.505C169.625 139.726 169.903 139.905 170.244 139.905H227.596C227.938 139.905 228.215 139.726 228.215 139.505V138.305C228.215 138.084 227.938 137.905 227.596 137.905Z" fill="#7A89FC"/>
<path d="M227.592 144.485H170.241C169.899 144.485 169.622 144.664 169.622 144.885V146.085C169.622 146.306 169.899 146.485 170.241 146.485H227.592C227.934 146.485 228.211 146.306 228.211 146.085V144.885C228.211 144.664 227.934 144.485 227.592 144.485Z" fill="#7A89FC"/>
<path d="M227.59 151.065H170.238C169.896 151.065 169.619 151.244 169.619 151.464V152.665C169.619 152.886 169.896 153.065 170.238 153.065H227.59C227.932 153.065 228.209 152.886 228.209 152.665V151.464C228.209 151.244 227.932 151.065 227.59 151.065Z" fill="#7A89FC"/>
<path d="M341.726 138.42V186.16H297.801V138.42H341.726Z" fill="white" stroke="#FF5F76" stroke-width="2" stroke-linecap="round" stroke-linejoin="round"/>
<path d="M235.095 140.529L292.447 140.499C292.789 140.499 293.066 140.32 293.066 140.099L293.065 138.898C293.065 138.678 292.788 138.499 292.446 138.499L235.094 138.529C234.752 138.529 234.475 138.708 234.475 138.929L234.476 140.129C234.476 140.35 234.753 140.529 235.095 140.529Z" fill="#FF5F76"/>
<path d="M235.1 147.108L292.451 147.078C292.793 147.078 293.07 146.899 293.07 146.678L293.069 145.477C293.069 145.257 292.792 145.078 292.45 145.078L235.099 145.108C234.757 145.108 234.48 145.287 234.48 145.508L234.481 146.709C234.481 146.929 234.758 147.108 235.1 147.108Z" fill="#FF5F76"/>
<path d="M235.104 153.689L292.455 153.659C292.797 153.659 293.074 153.479 293.074 153.259L293.073 152.058C293.073 151.837 292.796 151.659 292.454 151.659L235.103 151.689C234.761 151.689 234.484 151.868 234.484 152.089L234.485 153.289C234.485 153.51 234.762 153.689 235.104 153.689Z" fill="#FF5F76"/>
<path d="M235.108 160.269L292.459 160.239C292.801 160.239 293.078 160.06 293.078 159.839L293.078 158.638C293.077 158.418 292.8 158.239 292.458 158.239L235.107 158.269C234.765 158.269 234.488 158.448 234.489 158.669L234.489 159.869C234.489 160.09 234.766 160.269 235.108 160.269Z" fill="#FF5F76"/>
<path d="M235.113 166.85L292.464 166.82C292.806 166.82 293.083 166.641 293.083 166.42L293.082 165.219C293.082 164.999 292.805 164.82 292.463 164.82L235.112 164.85C234.77 164.85 234.493 165.029 234.493 165.25L234.494 166.451C234.494 166.671 234.771 166.85 235.113 166.85Z" fill="#FF5F76"/>
<path d="M235.097 173.222L292.449 173.192C292.791 173.192 293.068 173.013 293.067 172.792L293.067 171.592C293.067 171.371 292.789 171.192 292.448 171.192L235.096 171.222C234.754 171.222 234.477 171.402 234.477 171.622L234.478 172.823C234.478 173.044 234.755 173.222 235.097 173.222Z" fill="#FF5F76"/>
<path d="M235.102 179.802L292.453 179.772C292.794 179.772 293.071 179.593 293.071 179.372L293.071 178.172C293.071 177.951 292.793 177.772 292.452 177.772L235.1 177.802C234.759 177.803 234.482 177.982 234.482 178.202L234.482 179.403C234.482 179.624 234.76 179.803 235.102 179.802Z" fill="#FF5F76"/>
<path d="M235.105 186.383L292.457 186.353C292.799 186.353 293.076 186.174 293.075 185.953L293.075 184.753C293.075 184.532 292.798 184.353 292.456 184.353L235.104 184.383C234.762 184.383 234.485 184.562 234.485 184.783L234.486 185.984C234.486 186.204 234.763 186.383 235.105 186.383Z" fill="#FF5F76"/>
<path d="M227.596 189.358H120.574C120.233 189.358 119.956 189.537 119.956 189.758V190.958C119.956 191.179 120.233 191.358 120.574 191.358H227.596C227.938 191.358 228.215 191.179 228.215 190.958V189.758C228.215 189.537 227.938 189.358 227.596 189.358Z" fill="#7A89FC"/>
<path d="M227.593 195.938H120.57C120.229 195.938 119.951 196.117 119.951 196.338V197.538C119.951 197.759 120.229 197.938 120.57 197.938H227.593C227.934 197.938 228.212 197.759 228.212 197.538V196.338C228.212 196.117 227.934 195.938 227.593 195.938Z" fill="#7A89FC"/>
<path d="M227.588 202.519H120.567C120.225 202.519 119.948 202.698 119.948 202.919V204.119C119.948 204.34 120.225 204.519 120.567 204.519H227.588C227.93 204.519 228.207 204.34 228.207 204.119V202.919C228.207 202.698 227.93 202.519 227.588 202.519Z" fill="#7A89FC"/>
<path d="M227.584 209.099H120.563C120.221 209.099 119.944 209.278 119.944 209.499V210.699C119.944 210.92 120.221 211.099 120.563 211.099H227.584C227.926 211.099 228.203 210.92 228.203 210.699V209.499C228.203 209.278 227.926 209.099 227.584 209.099Z" fill="#7A89FC"/>
<path d="M227.581 215.679H120.559C120.217 215.679 119.94 215.858 119.94 216.079V217.279C119.94 217.5 120.217 217.679 120.559 217.679H227.581C227.923 217.679 228.2 217.5 228.2 217.279V216.079C228.2 215.858 227.923 215.679 227.581 215.679Z" fill="#7A89FC"/>
<path d="M249.261 215.757C255.717 215.757 260.951 210.523 260.951 204.067C260.951 197.611 255.717 192.377 249.261 192.377C242.805 192.377 237.571 197.611 237.571 204.067C237.571 210.523 242.805 215.757 249.261 215.757Z" fill="#FF5F76"/>
<path d="M288.72 215.757C295.176 215.757 300.41 210.523 300.41 204.067C300.41 197.611 295.176 192.377 288.72 192.377C282.264 192.377 277.03 197.611 277.03 204.067C277.03 210.523 282.264 215.757 288.72 215.757Z" fill="#FF5F76"/>
<path d="M328.178 215.757C334.635 215.757 339.868 210.523 339.868 204.067C339.868 197.611 334.635 192.377 328.178 192.377C321.722 192.377 316.489 197.611 316.489 204.067C316.489 210.523 321.722 215.757 328.178 215.757Z" fill="#FF5F76"/>
<path d="M105.8 200.772H69.731V232.914H105.8V200.772Z" stroke="white" stroke-width="5.62" stroke-linecap="round" stroke-linejoin="round"/>
<path d="M62.6029 217.877C63.5577 217.877 64.3318 217.103 64.3318 216.149C64.3318 215.194 63.5577 214.42 62.6029 214.42C61.6481 214.42 60.874 215.194 60.874 216.149C60.874 217.103 61.6481 217.877 62.6029 217.877Z" fill="white"/>
<path d="M77.0707 217.877C78.0255 217.877 78.7996 217.103 78.7996 216.149C78.7996 215.194 78.0255 214.42 77.0707 214.42C76.1158 214.42 75.3418 215.194 75.3418 216.149C75.3418 217.103 76.1158 217.877 77.0707 217.877Z" fill="white"/>
<path d="M84.1664 176.845H78.5193V195.126H84.1664V176.845Z" fill="#4B5FF7" fill-opacity="0.54" stroke="white" stroke-width="0.84" stroke-miterlimit="10"/>
<path d="M89.8135 176.845H84.1663V195.126H89.8135V176.845Z" fill="#4B5FF7" fill-opacity="0.54" stroke="white" stroke-width="0.84" stroke-miterlimit="10"/>
<path d="M95.4599 176.845H89.8127V195.126H95.4599V176.845Z" fill="#4B5FF7" fill-opacity="0.54" stroke="white" stroke-width="0.84" stroke-miterlimit="10"/>
<path d="M93.372 68.3457H60.4197V110.343H93.372V68.3457Z" fill="white"/>
<path d="M252.917 44.3813V55.9414H225.107V46.2342L225.883 44.3813H252.917Z" fill="white"/>
<path d="M233.749 16.541C233.749 16.541 230.922 16.8923 229.457 14.2572C227.992 11.622 228.577 7.69295 229.812 6.98743C229.812 6.98743 229.248 4.65833 231.101 3.03474C232.954 1.41115 234.011 1.83426 234.89 2.14914C234.89 2.14914 235.267 0.349413 236.9 0.0670072C238.534 -0.215399 239.475 1.1612 241.297 0.702663C243.118 0.244122 245.286 -0.956349 246.573 1.47904C247.86 3.91442 250.594 4.23422 251.316 6.91363C252.038 9.59305 251.409 13.7603 247.484 15.3839C243.559 17.0074 243.37 17.0074 243.37 17.0074L233.749 16.541Z" fill="#19236C"/>
<path d="M243.717 31.1596C243.688 31.0366 243.66 30.9146 243.633 30.7925C240.143 29.2782 237.904 29.35 236.653 29.6639C236.372 30.5328 235.892 31.3249 235.094 31.8188C232.412 33.4769 229.2 33.654 229.2 33.654L231.631 41.9825L240.847 43.5352L247.94 39.4418L251.361 34.2395C251.361 34.2395 244.353 33.6353 243.717 31.1596Z" fill="#FEA587"/>
<path d="M243.633 30.7923C243.214 28.9319 242.966 27.037 242.894 25.1313H236.874C236.874 25.1313 237.318 27.612 236.653 29.6637C237.904 29.3498 240.143 29.2779 243.633 30.7923Z" fill="#E2907B"/>
<path d="M232.659 15.2078C232.659 15.2078 231.13 13.2782 230.259 14.949C229.388 16.6199 230.8 19.2787 232.024 19.2315C233.248 19.1842 233.271 18.7601 233.271 18.7601L232.659 15.2078Z" fill="#E2907B"/>
<path d="M246.912 15.2078C246.912 15.2078 248.441 13.2782 249.312 14.949C250.183 16.6199 248.771 19.2787 247.547 19.2315C246.323 19.1842 246.3 18.7601 246.3 18.7601L246.912 15.2078Z" fill="#E2907B"/>
<path d="M232.024 12.6556C232.024 12.6556 232.516 20.4547 234.318 23.5602C236.12 26.6657 239.365 27.0898 240.07 27.0898C241.094 27.0898 245.187 26.3833 246.141 23.1017C247.094 19.8201 247.376 12.8317 247.376 12.1262C247.376 12.1262 245.905 12.8081 245.082 11.3262C244.258 9.84433 242.07 9.20866 240.517 10.4318C238.964 11.6549 236.918 12.5257 234.706 11.3725C232.494 10.2192 232.024 12.6556 232.024 12.6556Z" fill="#FEA587"/>
<path d="M239.882 55.9395H230.594C233.591 53.9273 236.081 52.1472 236.081 52.1472C236.081 52.1472 239.413 52.8655 239.882 55.9395Z" fill="#D6E1FE"/>
<path d="M252.517 44.3814C252.517 45.5504 252.622 46.7499 252.918 47.8175V55.9395H239.882C239.413 52.8655 236.081 52.1471 236.081 52.1471C236.081 52.1471 233.591 53.9272 230.594 55.9395H225.106V48.7297C225.105 48.7278 225.105 48.7257 225.106 48.7238C225.147 48.6333 225.835 47.0963 225.974 44.3814C226.052 42.6211 225.914 40.8578 225.564 39.1308C225.633 39.2833 226.719 41.7797 227.198 44.3814C227.242 44.6166 227.278 44.8537 227.309 45.0889C227.456 46.1418 227.477 47.1789 227.265 48.0527C226.469 51.3481 226.421 54.4054 232.442 51.6296C238.464 48.8537 247.031 49.4648 248.961 49.6999C249.953 49.822 250.495 47.7044 251.068 45.2247C251.128 44.9482 251.195 44.6658 251.258 44.3814C251.742 42.2609 252.281 40.0322 253.149 38.7825C253.149 38.7825 252.517 41.4865 252.517 44.3814Z" fill="#CAD0FF"/>
<path d="M236.612 52.9217C236.612 52.9217 241.129 50.8396 245.082 51.0521C249.035 51.2646 252.387 52.3933 251.893 54.0159C251.399 55.6385 248.505 55.8166 246.284 55.6749C244.063 55.5332 239.121 55.9406 239.121 55.9406L236.612 52.9217Z" fill="#FEA587"/>
<path d="M97.6315 101.803C97.6315 101.803 99.8199 100.885 99.0435 96.7204C98.2672 92.5561 97.2084 91.3566 95.7609 89.8737C94.3135 88.3909 89.7261 85.0738 86.3382 87.8625C86.3382 87.8625 82.291 86.6157 79.2534 88.2856C76.2158 89.9554 73.065 93.796 74.1238 102.544C75.1826 111.292 74.1946 117.649 73.1595 120.378C72.1243 123.106 66.0068 136.095 60.3606 144.847C60.3606 144.847 68.6419 153.035 81.1121 151.341L93.5853 149.649C93.5853 149.649 99.8908 113.202 97.6315 101.803Z" fill="#153077"/>
<path d="M99.0857 97.8961C99.0857 97.8961 91.9127 94.5211 90.086 92.3936C88.2593 90.2661 88.3949 97.3875 85.2651 98.8729C82.1352 100.358 78.0701 101.601 79.3035 108.307C80.5369 115.012 67 149.188 67 149.188L74.5972 153.443L92.7811 154L100 151.357V114.475L99.0857 97.8961Z" fill="#0E265B"/>
<path d="M112.073 142.21L115.368 139.237C115.974 138.69 116.022 137.755 115.475 137.148L98.4518 118.281C97.9046 117.675 96.9694 117.627 96.363 118.174L93.0681 121.147C92.4617 121.694 92.4137 122.629 92.9609 123.236L109.984 142.103C110.532 142.709 111.467 142.757 112.073 142.21Z" fill="#E2907B"/>
<path d="M111.396 133.848C111.396 133.848 125.618 123.402 126.677 121.46C127.736 119.519 130.03 118.001 133.277 117.472C136.524 116.943 141.747 114.202 143.3 117.367C144.853 120.531 139.103 122.903 136.1 123.578C133.162 124.238 130.336 125.017 130.336 125.017C130.336 125.017 117.303 140.001 113.138 141.165L111.396 133.848Z" fill="#E2907B"/>
<path d="M107.216 254.507C101.056 255.786 96.5579 249.193 94.8369 246.143C93.9611 247.002 93.538 248.226 93.2083 249.544C92.7714 251.29 93.4671 259.449 93.4671 259.449C94.2435 260.272 95.0199 259.472 95.0199 259.472C95.0199 259.472 95.3259 257.167 95.7018 254.719C96.0777 252.272 96.7379 253.355 97.6786 254.767C98.6193 256.179 98.6626 257.985 99.7627 258.947C102.996 261.758 108.931 261.073 111.4 260.632C111.512 260.612 111.616 260.563 111.701 260.488C111.786 260.414 111.85 260.318 111.885 260.211C111.921 260.104 111.926 259.989 111.901 259.878C111.877 259.768 111.823 259.666 111.745 259.584C110.691 258.473 108.766 256.397 107.216 254.507Z" fill="#08142D"/>
<path d="M107.216 254.507C104.59 251.306 101.731 247.571 101.655 246.395C101.514 244.207 106.102 228.396 106.808 225.996C107.513 223.596 109.913 214.067 110.337 210.645C110.761 207.224 109.123 196.842 109.123 196.842L107.278 195.76L98.1965 200.277C98.1965 200.277 102.526 206.958 100.832 212.606C99.1373 218.253 96.5493 236.04 95.9845 240.792C95.7178 243.037 95.3036 244.774 94.8372 246.144C96.5582 249.196 101.056 255.783 107.216 254.507Z" fill="#E2907B"/>
<path d="M93.0325 216.253C93.4665 213.723 93.7813 211.732 93.8197 210.866C93.9604 207.758 93.1644 201.362 93.1644 201.362L82.2419 200.562C82.2419 200.562 83.8675 202.286 84.2759 205.509C86.5588 205.563 92.2296 206.677 93.0325 216.253Z" fill="#E2907B"/>
<path d="M91.1379 250.347C89.163 246.872 89.8203 241.688 89.9138 236.607C89.9817 232.942 91.9094 222.794 93.0322 216.253C92.2292 206.677 86.5623 205.563 84.2744 205.509C84.4538 207.024 84.3625 208.56 84.0048 210.044C82.6764 215.798 81.9108 238.112 82.4757 243.008C83.0405 247.903 82.2405 249.831 82.2405 249.831L82.8988 250.395L90.5219 257.689L95.8356 257.219C95.8356 257.219 93.1129 253.822 91.1379 250.347Z" fill="#FEA587"/>
<path d="M89.5261 119.484C86.9854 119.484 86.2199 118.238 86.2199 118.238C86.2199 118.238 80.3916 118.602 78.338 121.178C76.062 124.031 77.3029 135.249 81.1149 144.471C84.9269 153.693 79.7501 160.057 78.2928 166.574C76.8355 173.09 77.0214 196.635 78.2928 201.682C78.2928 201.682 97.464 208.354 109.123 196.848C109.123 196.848 103.562 165.53 101.867 156.908C100.173 148.286 99.801 145.322 102.95 137.793C106.099 130.263 102.997 127.205 101.679 123.82C100.362 120.435 100.686 119.867 98.2856 118.785C96.173 117.832 93.1147 118.159 93.1147 118.159C93.1147 118.159 92.0195 119.484 89.5261 119.484Z" fill="#222E85"/>
<path d="M74.2735 152.398L77.7964 152.983C78.4448 153.091 79.0806 152.515 79.2165 151.698L84.114 122.228C84.2499 121.411 83.8344 120.661 83.186 120.553L79.663 119.968C79.0146 119.86 78.3789 120.435 78.243 121.253L73.3455 150.722C73.2096 151.54 73.6251 152.29 74.2735 152.398Z" fill="#FEA587"/>
<path d="M78.3382 146.259C78.3382 146.259 100.691 147.389 102.384 146.447C104.078 145.505 109.537 142.777 113.49 145.601C117.442 148.425 116.835 150.871 111.325 150.541C105.814 150.212 106.337 152.06 102.243 150.571C102.243 150.571 88.927 153.72 76.5503 152.716L78.3382 146.259Z" fill="#FEA587"/>
<path d="M95.928 257.217C89.4425 258.56 84.7104 251.625 82.896 248.415C81.9739 249.32 81.5282 250.608 81.1808 251.995C80.7213 253.835 81.4534 262.425 81.4534 262.425C82.2711 263.292 83.0878 262.45 83.0878 262.45C83.0878 262.45 83.4106 260.022 83.8062 257.446C84.2017 254.87 84.8964 256.009 85.8873 257.496C86.8782 258.983 86.9185 260.885 88.0816 261.897C91.4853 264.856 97.7337 264.136 100.333 263.668C100.451 263.647 100.56 263.594 100.65 263.516C100.74 263.438 100.807 263.337 100.844 263.224C100.882 263.111 100.888 262.99 100.861 262.874C100.835 262.757 100.778 262.65 100.696 262.564C99.5865 261.392 97.5605 259.206 95.928 257.217Z" fill="#08142D"/>
<path d="M93.0253 116.283C93.0031 115.443 93.0327 114.603 93.1138 113.766L86.6676 106.755L85.9385 106.943C85.9385 107.017 86.6991 111.671 86.5722 115.421C88.0915 115.245 90.3616 115.283 93.0253 116.283Z" fill="#E2907B"/>
<path d="M86.5722 115.421C86.5368 116.471 86.4315 117.449 86.22 118.238C86.22 118.238 86.8556 119.86 89.8913 119.86C92.9269 119.86 93.1139 118.238 93.1139 118.238C93.1139 118.238 93.044 117.374 93.0253 116.283C90.3616 115.283 88.0915 115.245 86.5722 115.421Z" fill="#FEA587"/>
<path d="M97.2782 98.3085C97.2782 98.3085 99.1636 103.765 98.2435 108.849C96.9732 115.866 90.9186 114.481 88.6987 112.187C86.4788 109.893 86.2387 107.66 86.2387 107.66C86.2387 107.66 83.5917 108.546 82.5683 105.719C81.545 102.892 83.5218 101.873 84.3691 102.225C84.3691 102.225 90.4502 99.9144 91.2571 94.2141C91.2551 94.2151 94.0556 97.2498 97.2782 98.3085Z" fill="#FEA587"/>
<path d="M348.947 265.942C364.345 265.942 376.828 263.03 376.828 259.438C376.828 255.846 364.345 252.934 348.947 252.934C333.549 252.934 321.066 255.846 321.066 259.438C321.066 263.03 333.549 265.942 348.947 265.942Z" fill="#99A1DB" fill-opacity="0.57"/>
<path d="M356.076 255.921C356.076 255.921 356.95 258.25 358.228 259.439C365.38 256.498 371.928 251.885 374.376 250.068C374.235 249.515 373.949 248.913 373.551 248.257C372.808 247.033 370.731 243.474 369.309 241.029C368.719 242.236 367.16 244.248 363.097 245.472C364.416 248.541 360.235 251.62 357.918 253.13C355.54 254.677 356.076 255.921 356.076 255.921Z" fill="#0E2354"/>
<path d="M361.224 241.928C361.224 241.928 361.338 242.088 362.984 245.233C363.025 245.312 363.063 245.39 363.095 245.469C367.158 244.246 368.718 242.234 369.308 241.027L367.884 238.573L361.224 241.928Z" fill="#E2907B"/>
<path d="M358.227 259.438C358.509 259.718 358.853 259.929 359.231 260.055C361.034 260.584 371.719 253.954 373.316 252.806C374.373 252.05 374.649 251.148 374.374 250.066C371.927 251.886 365.379 256.496 358.227 259.438Z" fill="#0E2354"/>
<path d="M322.62 255.375C322.62 255.375 322.374 257.85 322.994 259.483C330.708 260.007 338.622 258.766 341.621 258.218C341.739 257.66 341.749 256.993 341.682 256.23C341.558 254.804 341.268 250.693 341.075 247.867C340.011 248.688 337.722 249.804 333.537 249.104C333.364 252.44 328.253 253.352 325.506 253.682C322.691 254.024 322.62 255.375 322.62 255.375Z" fill="#0E2354"/>
<path d="M333.427 245.105C333.427 245.105 333.459 245.302 333.544 248.844C333.544 248.932 333.544 249.019 333.539 249.104C337.725 249.805 340.014 248.689 341.077 247.867C340.965 246.234 340.881 245.035 340.881 245.035L333.427 245.105Z" fill="#FEA587"/>
<path d="M322.996 259.484C323.126 259.86 323.341 260.202 323.624 260.482C325.007 261.753 337.522 260.531 339.462 260.208C340.741 259.998 341.389 259.311 341.627 258.219C338.623 258.767 330.71 260.007 322.996 259.484Z" fill="#0E2354"/>
<path d="M312.266 118.059L328.547 111.848L335.882 142.458L321.866 148.458L312.266 118.059Z" fill="#FFF4D7"/>
<path d="M339.56 91.4019C339.56 91.4019 339.277 101.284 340.83 103.966C342.383 106.649 344.712 105.731 345.7 102.766V93.0963L339.56 91.4019Z" fill="#FEA587"/>
<path d="M344.474 103.893C344.474 103.893 345.36 108.652 344.081 112.129C344.081 112.129 345.118 114.02 347.284 114.142C349.45 114.264 350.548 112.556 350.548 112.556C350.548 112.556 349.968 110.299 350.548 106.608L344.474 103.893Z" fill="#E2907B"/>
<path d="M359.181 133.965C359.181 133.965 363.181 138.196 361.487 140.881C359.792 143.566 358.005 146.905 358.005 146.905L358.334 154.292C358.334 154.292 367.464 144.411 368.076 141.117C368.688 137.824 366.57 133.729 364.547 130.623L359.181 133.965Z" fill="#E2907B"/>
<path d="M345.489 183.938V204.832C345.489 204.832 349.018 220.36 354.099 231.512C359.181 242.663 360.17 243.512 360.17 243.512C360.17 243.512 366.805 244.075 370.192 239.28C370.192 239.28 359.746 212.74 359.606 202.859C359.465 192.977 361.869 177.73 359.606 169.826C359.37 168.367 358.622 167.096 358.622 167.096L348.458 168.131L345.489 183.938Z" fill="#A4AEF9"/>
<path d="M359.918 173.177C359.918 173.177 354.298 187.325 353.657 196.289C353.016 205.252 352.234 219.569 355.191 233L343 205.688V182.103L347.883 170.958L358.533 169L359.918 173.177Z" fill="#717FE9"/>
<path d="M335.51 168.127L333.628 168.784C333.628 168.784 331.652 185.914 330.946 198.479C330.239 211.043 331.93 244.712 331.93 244.712C331.93 244.712 337.858 248.665 343.081 244.712C343.081 244.712 342.376 223.748 344.065 214.525C345.755 205.302 355.829 172.829 355.359 168.784L335.51 168.127Z" fill="#B7BFFB"/>
<path d="M342.593 167.958C342.593 167.958 343.735 173.262 341.069 185.021C338.402 196.78 337.133 205.519 337.007 215.168C336.88 224.818 338.53 246 338.53 246L342.593 245.284L356 170.809L350.461 160L342.593 167.958Z" fill="#8E99EB"/>
<path d="M338.713 88.9792C338.713 88.9792 338.383 92.6496 340.901 93.732C343.419 94.8144 343.489 96.684 343.041 98.4798C342.594 100.276 343.14 103.801 345.018 105.378C346.896 106.954 351.135 109.542 354.169 106.201C357.203 102.861 361.533 99.943 361.204 92.0375C360.874 84.132 358.005 80.7441 353.393 80.1793C348.781 79.6145 345.816 80.3672 344.499 81.4497C344.5 81.4497 338.478 81.92 338.713 88.9792Z" fill="#0E2354"/>
<path d="M344.078 112.132C344.078 112.132 335.621 115.371 334.775 119.748C333.929 124.125 333.63 168.783 333.63 168.783C333.63 168.783 339.56 173.397 349.159 172.362C358.758 171.327 359.324 167.754 359.324 167.754C359.324 167.754 359.417 137.732 358.852 135.381C358.852 135.381 363.747 135.381 366.287 130.91C366.287 130.91 360.934 118.181 358.994 114.674C356.57 110.299 350.544 111.493 350.544 111.493C350.544 111.493 348.56 115.189 344.078 112.132Z" fill="#242E78"/>
<path d="M338.699 119.754C338.699 119.754 341.112 118.389 341.63 120.695C342.148 123 345.315 140.46 339.539 147.656C333.763 154.852 332.077 152.502 330.595 148.456C329.113 144.41 334.731 122.059 338.699 119.754Z" fill="#0E1548"/>
<path d="M332.407 135.565C332.407 135.565 331.771 140.869 330.595 142.458C329.419 144.047 319.843 136.554 319.843 136.554C319.843 136.554 320.031 130.158 316.031 127.613C312.031 125.069 314.948 135.092 316.596 137.777C316.596 137.777 322.666 146.2 328.454 148.694C334.242 151.189 334.933 148.412 335.882 146.953C336.831 145.494 338.477 136.977 338.477 136.977L332.407 135.565Z" fill="#FEA587"/>
<path d="M330.596 134.882C330.596 134.882 331.869 124.273 333.49 120.946C335.11 117.619 338.995 117.887 340.171 120.946C341.347 124.006 341.155 137.319 341.155 137.319C341.155 137.319 334.689 140.529 330.596 134.882Z" fill="#242E78"/>
<path d="M398.312 70.2046H374.103V80.4158H398.312V70.2046Z" fill="#4B5FF7" fill-opacity="0.54" stroke="white" stroke-width="0.84" stroke-miterlimit="10"/>
<path d="M410.594 80.4158H386.384V90.6265H410.594V80.4158Z" fill="#A1A8DB" fill-opacity="0.88"/>
<path d="M139.982 23.3696H115.772V33.5808H139.982V23.3696Z" fill="#4B5FF7" fill-opacity="0.54" stroke="white" stroke-width="0.84" stroke-miterlimit="10"/>
<path d="M262.18 87.12C261.467 87.12 260.82 86.9667 260.24 86.66C259.667 86.3467 259.213 85.9167 258.88 85.37C258.553 84.8167 258.39 84.1933 258.39 83.5C258.39 82.8067 258.553 82.1867 258.88 81.64C259.213 81.0867 259.667 80.6567 260.24 80.35C260.82 80.0367 261.47 79.88 262.19 79.88C262.797 79.88 263.343 79.9867 263.83 80.2C264.323 80.4133 264.737 80.72 265.07 81.12L264.03 82.08C263.557 81.5333 262.97 81.26 262.27 81.26C261.837 81.26 261.45 81.3567 261.11 81.55C260.77 81.7367 260.503 82 260.31 82.34C260.123 82.68 260.03 83.0667 260.03 83.5C260.03 83.9333 260.123 84.32 260.31 84.66C260.503 85 260.77 85.2667 261.11 85.46C261.45 85.6467 261.837 85.74 262.27 85.74C262.97 85.74 263.557 85.4633 264.03 84.91L265.07 85.87C264.737 86.2767 264.323 86.5867 263.83 86.8C263.337 87.0133 262.787 87.12 262.18 87.12ZM269.165 87.12C268.165 87.12 267.385 86.8433 266.825 86.29C266.272 85.7367 265.995 84.9467 265.995 83.92V80H267.615V83.86C267.615 85.1133 268.135 85.74 269.175 85.74C269.682 85.74 270.069 85.59 270.335 85.29C270.602 84.9833 270.735 84.5067 270.735 83.86V80H272.335V83.92C272.335 84.9467 272.055 85.7367 271.495 86.29C270.942 86.8433 270.165 87.12 269.165 87.12ZM276.186 87.12C275.633 87.12 275.096 87.0467 274.576 86.9C274.063 86.7467 273.65 86.55 273.336 86.31L273.886 85.09C274.186 85.31 274.543 85.4867 274.956 85.62C275.37 85.7533 275.783 85.82 276.196 85.82C276.656 85.82 276.996 85.7533 277.216 85.62C277.436 85.48 277.546 85.2967 277.546 85.07C277.546 84.9033 277.48 84.7667 277.346 84.66C277.22 84.5467 277.053 84.4567 276.846 84.39C276.646 84.3233 276.373 84.25 276.026 84.17C275.493 84.0433 275.056 83.9167 274.716 83.79C274.376 83.6633 274.083 83.46 273.836 83.18C273.596 82.9 273.476 82.5267 273.476 82.06C273.476 81.6533 273.586 81.2867 273.806 80.96C274.026 80.6267 274.356 80.3633 274.796 80.17C275.243 79.9767 275.786 79.88 276.426 79.88C276.873 79.88 277.31 79.9333 277.736 80.04C278.163 80.1467 278.536 80.3 278.856 80.5L278.356 81.73C277.71 81.3633 277.063 81.18 276.416 81.18C275.963 81.18 275.626 81.2533 275.406 81.4C275.193 81.5467 275.086 81.74 275.086 81.98C275.086 82.22 275.21 82.4 275.456 82.52C275.71 82.6333 276.093 82.7467 276.606 82.86C277.14 82.9867 277.576 83.1133 277.916 83.24C278.256 83.3667 278.546 83.5667 278.786 83.84C279.033 84.1133 279.156 84.4833 279.156 84.95C279.156 85.35 279.043 85.7167 278.816 86.05C278.596 86.3767 278.263 86.6367 277.816 86.83C277.37 87.0233 276.826 87.12 276.186 87.12ZM281.566 81.32H279.326V80H285.426V81.32H283.186V87H281.566V81.32ZM289.54 87.12C288.813 87.12 288.156 86.9633 287.57 86.65C286.99 86.3367 286.533 85.9067 286.2 85.36C285.873 84.8067 285.71 84.1867 285.71 83.5C285.71 82.8133 285.873 82.1967 286.2 81.65C286.533 81.0967 286.99 80.6633 287.57 80.35C288.156 80.0367 288.813 79.88 289.54 79.88C290.266 79.88 290.92 80.0367 291.5 80.35C292.08 80.6633 292.536 81.0967 292.87 81.65C293.203 82.1967 293.37 82.8133 293.37 83.5C293.37 84.1867 293.203 84.8067 292.87 85.36C292.536 85.9067 292.08 86.3367 291.5 86.65C290.92 86.9633 290.266 87.12 289.54 87.12ZM289.54 85.74C289.953 85.74 290.326 85.6467 290.66 85.46C290.993 85.2667 291.253 85 291.44 84.66C291.633 84.32 291.73 83.9333 291.73 83.5C291.73 83.0667 291.633 82.68 291.44 82.34C291.253 82 290.993 81.7367 290.66 81.55C290.326 81.3567 289.953 81.26 289.54 81.26C289.126 81.26 288.753 81.3567 288.42 81.55C288.086 81.7367 287.823 82 287.63 82.34C287.443 82.68 287.35 83.0667 287.35 83.5C287.35 83.9333 287.443 84.32 287.63 84.66C287.823 85 288.086 85.2667 288.42 85.46C288.753 85.6467 289.126 85.74 289.54 85.74ZM300.907 87L300.897 82.8L298.837 86.26H298.107L296.057 82.89V87H294.537V80H295.877L298.497 84.35L301.077 80H302.407L302.427 87H300.907ZM309.458 85.7V87H304.038V80H309.328V81.3H305.648V82.82H308.898V84.08H305.648V85.7H309.458ZM315.157 87L313.807 85.05H313.727H312.317V87H310.697V80H313.727C314.347 80 314.883 80.1033 315.337 80.31C315.797 80.5167 316.15 80.81 316.397 81.19C316.643 81.57 316.767 82.02 316.767 82.54C316.767 83.06 316.64 83.51 316.387 83.89C316.14 84.2633 315.787 84.55 315.327 84.75L316.897 87H315.157ZM315.127 82.54C315.127 82.1467 315 81.8467 314.747 81.64C314.493 81.4267 314.123 81.32 313.637 81.32H312.317V83.76H313.637C314.123 83.76 314.493 83.6533 314.747 83.44C315 83.2267 315.127 82.9267 315.127 82.54Z" fill="black"/>
<path d="M265.48 59.908C265.48 64.6075 263.152 84.683 263.152 84.683C263.152 84.683 261.953 87.0141 256.94 84.2609C256.94 84.2609 258.986 63.8607 257.504 59.6974C256.498 56.8694 254.257 51.2104 252.918 47.8678V47.8156C252.622 46.748 252.517 45.5524 252.517 44.3795C252.517 41.4846 253.153 38.7806 253.153 38.7806C252.285 40.0303 251.746 42.259 251.262 44.3795C251.199 44.6639 251.132 44.9463 251.072 45.2228L227.313 45.087C227.282 44.8518 227.246 44.6147 227.202 44.3795C226.723 41.7778 225.637 39.2814 225.568 39.1289C225.918 40.8559 226.056 42.6192 225.978 44.3795C225.839 47.0944 225.151 48.6314 225.11 48.7219C225.109 48.7238 225.109 48.7259 225.11 48.7278C223.327 51.7467 220.999 55.7221 220.451 56.8389C219.533 58.7085 217.98 62.9397 221.792 61.2846C223.747 60.4354 227.451 58.0551 230.598 55.9375C233.594 53.9253 236.084 52.1452 236.084 52.1452C236.084 52.1452 239.416 52.8635 239.885 55.9375C239.885 55.9375 226.288 70.7782 217.816 70.9661C209.345 71.1541 209.534 60.6155 211.699 55.1553C213.864 49.6951 218.887 36.7772 224.228 34.571C225.93 33.8655 228.745 32.9199 231.634 33.2407C231.634 33.2407 233.464 37.9353 240.088 37.6972C246.712 37.4591 246.895 33.3765 246.895 33.3765C246.895 33.3765 252.257 33.1915 255.133 34.6399C258.651 36.419 265.48 55.2123 265.48 59.908Z" fill="#E0E4FF"/>
<path d="M128.053 72.9409H103.843V83.1517H128.053V72.9409Z" fill="#A1A8DB" fill-opacity="0.88"/>
<path d="M257.458 83.8191C257.458 83.8191 256.258 89.9729 256.352 94.025C256.445 98.077 256.942 98.3595 257.576 98.3358C258.209 98.3122 258.681 92.548 258.681 92.548C258.681 92.548 262.187 94.2661 263.623 92.548C265.058 90.83 262.705 84.1251 262.705 84.1251L257.458 83.8191Z" fill="#FEA587"/>
<path d="M258.023 85.7781C258.023 85.7781 259.802 86.6684 261.048 86.9722C262.294 87.276 261.316 92.7997 261.552 92.9208C261.788 93.0418 264.135 93.4471 263.994 89.9867C263.853 86.5262 262.718 84.1592 262.718 84.1592C262.718 84.1592 258.117 83.9366 258.04 84.0178C257.962 84.0991 258.023 85.7781 258.023 85.7781Z" fill="#E2907B"/>
<path d="M152.86 80C153.48 80 154.017 80.1033 154.47 80.31C154.93 80.5167 155.283 80.81 155.53 81.19C155.777 81.57 155.9 82.02 155.9 82.54C155.9 83.0533 155.777 83.5033 155.53 83.89C155.283 84.27 154.93 84.5633 154.47 84.77C154.017 84.97 153.48 85.07 152.86 85.07H151.45V87H149.83V80H152.86ZM152.77 83.75C153.257 83.75 153.627 83.6467 153.88 83.44C154.133 83.2267 154.26 82.9267 154.26 82.54C154.26 82.1467 154.133 81.8467 153.88 81.64C153.627 81.4267 153.257 81.32 152.77 81.32H151.45V83.75H152.77ZM161.265 85.5H158.015L157.395 87H155.735L158.855 80H160.455L163.585 87H161.885L161.265 85.5ZM160.755 84.27L159.645 81.59L158.535 84.27H160.755ZM168.721 87L167.371 85.05H167.291H165.881V87H164.261V80H167.291C167.911 80 168.448 80.1033 168.901 80.31C169.361 80.5167 169.715 80.81 169.961 81.19C170.208 81.57 170.331 82.02 170.331 82.54C170.331 83.06 170.205 83.51 169.951 83.89C169.705 84.2633 169.351 84.55 168.891 84.75L170.461 87H168.721ZM168.691 82.54C168.691 82.1467 168.565 81.8467 168.311 81.64C168.058 81.4267 167.688 81.32 167.201 81.32H165.881V83.76H167.201C167.688 83.76 168.058 83.6533 168.311 83.44C168.565 83.2267 168.691 82.9267 168.691 82.54ZM172.917 81.32H170.677V80H176.777V81.32H174.537V87H172.917V81.32ZM184.019 80V87H182.689L179.199 82.75V87H177.599V80H178.939L182.419 84.25V80H184.019ZM191.045 85.7V87H185.625V80H190.915V81.3H187.235V82.82H190.485V84.08H187.235V85.7H191.045ZM196.744 87L195.394 85.05H195.314H193.904V87H192.284V80H195.314C195.934 80 196.471 80.1033 196.924 80.31C197.384 80.5167 197.737 80.81 197.984 81.19C198.231 81.57 198.354 82.02 198.354 82.54C198.354 83.06 198.227 83.51 197.974 83.89C197.727 84.2633 197.374 84.55 196.914 84.75L198.484 87H196.744ZM196.714 82.54C196.714 82.1467 196.587 81.8467 196.334 81.64C196.081 81.4267 195.711 81.32 195.224 81.32H193.904V83.76H195.224C195.711 83.76 196.081 83.6533 196.334 83.44C196.587 83.2267 196.714 82.9267 196.714 82.54Z" fill="black"/>
</svg>
