<svg width="28" height="29" viewBox="0 0 28 29" fill="none" xmlns="http://www.w3.org/2000/svg">
<path d="M28.0002 14.3136C28.0002 13.1623 27.9049 12.3222 27.6986 11.4509H14.2859V16.6474H22.1589C22.0002 17.9388 21.143 19.8836 19.2382 21.1904L19.2115 21.3644L23.4524 24.5846L23.7462 24.6133C26.4446 22.1706 28.0002 18.5766 28.0002 14.3136Z" fill="#4285F4"/>
<path d="M14.2859 28.0051C18.1429 28.0051 21.381 26.7604 23.7461 24.6134L19.2382 21.1905C18.0319 22.0151 16.4128 22.5907 14.2859 22.5907C10.5081 22.5907 7.30178 20.1481 6.15882 16.772L5.99128 16.7859L1.58159 20.131L1.52393 20.2881C3.87311 24.8622 8.69851 28.0051 14.2859 28.0051Z" fill="#34A853"/>
<path d="M6.15868 16.7718C5.85709 15.9006 5.68256 14.967 5.68256 14.0024C5.68256 13.0378 5.85709 12.1043 6.14281 11.233L6.13482 11.0475L1.66986 7.64868L1.52377 7.71679C0.555562 9.61494 0 11.7465 0 14.0024C0 16.2584 0.555562 18.3898 1.52377 20.288L6.15868 16.7718Z" fill="#FBBC05"/>
<path d="M14.2859 5.41428C16.9684 5.41428 18.7778 6.55004 19.8096 7.49917L23.8414 3.64066C21.3652 1.3847 18.1429 0 14.2859 0C8.69851 0 3.87311 3.14277 1.52393 7.7169L6.14295 11.2331C7.30179 7.85698 10.5081 5.41428 14.2859 5.41428Z" fill="#EB4335"/>
</svg>
