<svg width="222" height="187" viewBox="0 0 222 187" fill="none" xmlns="http://www.w3.org/2000/svg">
<path d="M110.339 40.2623C108.718 40.2624 107.108 39.994 105.575 39.4681C97.8785 36.8351 93.7536 28.4214 96.3806 20.71C97.0053 18.8729 97.9853 17.1771 99.2645 15.7197C100.544 14.2622 102.097 13.0717 103.836 12.2162C105.574 11.3606 107.464 10.8568 109.397 10.7335C111.331 10.6103 113.269 10.87 115.102 11.4979C122.798 14.1309 126.923 22.5446 124.296 30.256C123.302 33.1743 121.422 35.7081 118.919 37.5025C116.417 39.2968 113.416 40.2618 110.339 40.2623Z" fill="#EA5D39"/>
<path d="M110.338 17.8399C111.954 17.839 113.528 18.3525 114.834 19.3061C116.14 20.2597 117.111 21.6043 117.605 23.1459C118.099 24.6876 118.092 26.3467 117.585 27.8842C117.077 29.4216 116.096 30.7578 114.782 31.7003C113.468 32.6427 111.889 33.1427 110.273 33.1281C108.657 33.1134 107.087 32.585 105.79 31.619C104.493 30.6529 103.536 29.2992 103.056 27.7528C102.576 26.2065 102.599 24.5475 103.121 23.015C103.632 21.5041 104.603 20.1919 105.898 19.2634C107.193 18.3349 108.745 17.837 110.338 17.8399ZM110.338 3.57062C104.841 3.56809 99.5445 5.63693 95.4998 9.3663C91.4552 13.0957 88.9582 18.2128 88.5048 23.7015C88.0514 29.1902 89.6748 34.649 93.0524 38.9939C96.4301 43.3389 101.315 46.2521 106.737 47.1551C112.159 48.0581 117.722 46.8848 122.321 43.8682C126.92 40.8517 130.218 36.2125 131.561 30.8719C132.904 25.5314 132.193 19.8801 129.57 15.0402C126.947 10.2004 122.603 6.52614 117.401 4.74698C115.127 3.96868 112.741 3.57123 110.338 3.57062Z" fill="#EA5D39"/>
<path d="M110.338 17.8399C111.954 17.8391 113.529 18.3525 114.835 19.3061C116.141 20.2597 117.111 21.6043 117.605 23.146C118.1 24.6876 118.093 26.3468 117.585 27.8842C117.078 29.4216 116.096 30.7578 114.782 31.7003C113.468 32.6427 111.889 33.1427 110.273 33.1281C108.657 33.1134 107.087 32.585 105.79 31.619C104.493 30.6529 103.536 29.2992 103.056 27.7528C102.577 26.2065 102.6 24.5475 103.122 23.0151C103.633 21.5044 104.604 20.1925 105.899 19.2641C107.193 18.3356 108.746 17.8376 110.338 17.8399ZM110.338 7.138C105.734 7.13553 101.297 8.86818 97.9086 11.9919C94.5203 15.1156 92.4285 19.4018 92.0485 23.9995C91.6684 28.5971 93.028 33.1698 95.8572 36.8094C98.6864 40.4491 102.778 42.8895 107.32 43.646C111.862 44.4026 116.522 43.4199 120.374 40.8931C124.226 38.3663 126.989 34.4803 128.114 30.0068C129.239 25.5332 128.644 20.7994 126.447 16.7453C124.249 12.6912 120.61 9.61349 116.253 8.12326C114.349 7.47138 112.35 7.1385 110.338 7.138Z" fill="#F2F2F2"/>
<path d="M110.337 17.8399C111.954 17.8391 113.528 18.3525 114.834 19.3061C116.14 20.2597 117.111 21.6043 117.605 23.146C118.099 24.6876 118.092 26.3468 117.585 27.8842C117.077 29.4216 116.096 30.7578 114.782 31.7002C113.467 32.6427 111.889 33.1426 110.273 33.128C108.657 33.1134 107.087 32.585 105.79 31.619C104.493 30.6529 103.536 29.2992 103.056 27.7528C102.576 26.2065 102.599 24.5475 103.121 23.0151C103.632 21.5044 104.604 20.1925 105.898 19.2641C107.193 18.3357 108.745 17.8376 110.337 17.8399ZM110.337 10.7053C106.628 10.7027 103.053 12.098 100.323 14.6142C97.5924 17.1305 95.9065 20.5835 95.5997 24.2877C95.293 27.9919 96.3878 31.6761 98.6668 34.6089C100.946 37.5416 104.242 39.5082 107.902 40.1182C111.561 40.7282 115.315 39.937 118.419 37.9016C121.523 35.8662 123.75 32.7355 124.656 29.1314C125.563 25.5272 125.084 21.7132 123.314 18.4468C121.544 15.1803 118.612 12.7004 115.101 11.4995C113.568 10.9743 111.958 10.706 110.337 10.7053Z" fill="#EA5D39"/>
<path d="M110.337 17.8399C111.953 17.8391 113.528 18.3525 114.834 19.3061C116.14 20.2597 117.11 21.6043 117.605 23.146C118.099 24.6876 118.092 26.3468 117.584 27.8842C117.077 29.4216 116.096 30.7578 114.781 31.7003C113.467 32.6427 111.888 33.1426 110.272 33.128C108.656 33.1134 107.087 32.585 105.79 31.619C104.493 30.6529 103.535 29.2992 103.056 27.7529C102.576 26.2065 102.599 24.5476 103.121 23.0151C103.632 21.5044 104.603 20.1925 105.898 19.2641C107.192 18.3357 108.745 17.8376 110.337 17.8399ZM110.337 14.2726C107.526 14.2706 104.817 15.3278 102.748 17.2345C100.679 19.1411 99.4013 21.7576 99.1686 24.5645C98.9359 27.3714 99.7652 30.1634 101.492 32.3859C103.219 34.6085 105.716 36.0992 108.489 36.5619C111.262 37.0246 114.107 36.4256 116.459 34.8837C118.812 33.3418 120.5 30.9699 121.187 28.239C121.875 25.508 121.513 22.6178 120.172 20.1422C118.832 17.6665 116.611 15.7866 113.951 14.8757C112.788 14.477 111.567 14.2733 110.337 14.2726Z" fill="#F2F2F2"/>
<path d="M111.142 25.7577L104.794 17.7457L105.105 22.0213L66.1862 8.71188L65.002 2.69502L63.4262 2.15567L64.6104 8.17253L63.0345 7.63404L61.8503 1.61718L60.2736 1.07784L61.4587 7.0947L59.8828 6.5562L58.6978 0.539343L57.1219 0L58.307 6.01686L56.7023 5.46817L55.6817 8.46301L57.2872 9.0117L52.6775 13.0479L54.2533 13.5863L58.8631 9.55104L60.4389 10.0895L55.8292 14.1257L57.4059 14.665L62.0148 10.6289L63.5906 11.1674L58.9817 15.2035L60.5576 15.7429L65.1664 11.7067L104.085 25.0153L101.23 28.2081L111.142 25.7577Z" fill="#333333"/>
<path d="M140.071 184.789C144.89 184.61 153.438 184.279 155.978 184.182L155.194 177.248H146.331C144.15 178.823 142.177 180.149 140.521 181.257C139.864 181.697 139.258 182.107 138.71 182.477C139.342 183.025 139.936 183.789 140.071 184.789Z" fill="#E6E6E6"/>
<path d="M140.071 184.789C139.935 183.789 139.342 183.025 138.71 182.477C134.174 185.569 133.619 186.44 141.181 186.214C151.955 185.897 156.154 185.738 156.154 185.738L155.978 184.178C153.438 184.28 144.89 184.608 140.071 184.789Z" fill="#4D4D4D"/>
<path d="M142.235 182.781C142 181.882 140.785 181.219 140.773 181.212L140.981 180.824C141.037 180.854 142.376 181.583 142.661 182.669L142.235 182.781Z" fill="#4D4D4D"/>
<path d="M144.353 181.608C143.989 180.589 142.794 179.85 142.782 179.843L143.01 179.465C143.064 179.498 144.35 180.288 144.768 181.46L144.353 181.608Z" fill="#4D4D4D"/>
<path d="M145.98 180.244C145.841 179.317 144.487 178.715 144.472 178.707L144.648 178.302C144.714 178.331 146.241 179.013 146.416 180.179L145.98 180.244Z" fill="#4D4D4D"/>
<path d="M179.287 184.789C174.469 184.61 165.92 184.279 163.381 184.182L164.165 177.248H173.028C175.209 178.823 177.182 180.149 178.838 181.257C179.494 181.697 180.101 182.107 180.649 182.477C180.016 183.025 179.423 183.789 179.287 184.789Z" fill="#E6E6E6"/>
<path d="M179.287 184.789C179.423 183.789 180.016 183.025 180.649 182.477C185.184 185.569 185.739 186.44 178.178 186.214C167.403 185.897 163.205 185.738 163.205 185.738L163.381 184.178C165.919 184.28 174.468 184.608 179.287 184.789Z" fill="#4D4D4D"/>
<path d="M177.123 182.781L176.699 182.669C176.985 181.583 178.323 180.854 178.38 180.824L178.588 181.212L178.484 181.018L178.588 181.212C178.573 181.219 177.362 181.882 177.123 182.781Z" fill="#4D4D4D"/>
<path d="M175.006 181.608L174.591 181.46C175.008 180.288 176.294 179.498 176.349 179.465L176.576 179.843C176.564 179.852 175.37 180.586 175.006 181.608Z" fill="#4D4D4D"/>
<path d="M173.378 180.244L172.944 180.179C173.118 179.013 174.646 178.331 174.71 178.302L174.886 178.707L174.802 178.505L174.886 178.707C174.872 178.713 173.517 179.32 173.378 180.244Z" fill="#4D4D4D"/>
<path d="M147.393 92.9462C144.153 149.147 146.291 176.533 145.816 177.724C153.659 178.2 155.578 177.724 155.578 177.724C155.578 177.724 160.918 118.427 162.875 107.234C164.833 96.0412 164.83 92.9462 164.83 92.9462H147.393Z" fill="#4D4D4D"/>
<g opacity="0.3">
<path opacity="0.3" d="M164.83 92.9462C164.83 92.9462 164.83 96.0412 162.875 107.234C160.92 118.427 155.577 177.728 155.577 177.728C155.277 177.788 154.973 177.826 154.668 177.845C155.071 165.218 156.645 117.548 157.771 107.405C158.8 98.1468 158.903 94.199 158.902 92.9504L164.83 92.9462Z" fill="black"/>
</g>
<path d="M172.187 92.9462C175.428 149.147 173.289 176.533 173.764 177.724C165.921 178.2 164.003 177.724 164.003 177.724C164.003 177.724 158.663 118.427 156.705 107.234C154.746 96.0412 154.751 92.9462 154.751 92.9462H172.187Z" fill="#4D4D4D"/>
<path d="M154.072 92.9462C154.235 94.165 154.345 95.3864 154.435 96.6086C154.524 97.8308 154.594 99.0539 154.645 100.277C154.696 101.5 154.73 102.726 154.734 103.951C154.738 105.177 154.734 106.403 154.669 107.631C154.505 106.412 154.395 105.191 154.305 103.968C154.215 102.746 154.146 101.524 154.096 100.3C154.046 99.076 154.011 97.8512 154.011 96.6256C154.011 95.4 154.008 94.1743 154.072 92.9462Z" fill="#353535"/>
<path d="M165.664 94.9303C165.887 95.2879 166.092 95.6531 166.298 96.0166C166.398 96.2009 166.503 96.3818 166.606 96.5628C166.709 96.7437 166.811 96.9271 166.912 97.1097C167.013 97.2924 167.114 97.475 167.216 97.6559L167.522 98.2012C167.621 98.3846 167.725 98.5647 167.829 98.7439L168.137 99.2866C168.561 100.004 168.977 100.72 169.431 101.41L169.777 101.926C169.898 102.095 170.013 102.265 170.141 102.429C170.269 102.593 170.395 102.756 170.529 102.914C170.598 102.992 170.666 103.071 170.74 103.144C170.775 103.182 170.813 103.218 170.852 103.252C170.89 103.288 170.93 103.322 170.972 103.353C170.782 103.259 170.605 103.141 170.444 103.003C170.282 102.867 170.126 102.721 169.978 102.571C169.83 102.421 169.692 102.26 169.549 102.103C169.407 101.946 169.281 101.776 169.148 101.611C168.641 100.938 168.176 100.234 167.756 99.5032C167.554 99.1355 167.344 98.7702 167.155 98.3991L166.874 97.8359L166.735 97.5531L166.604 97.266C166.435 96.883 166.261 96.5016 166.105 96.1109C165.949 95.7202 165.796 95.3286 165.664 94.9303Z" fill="#353535"/>
<path d="M157.167 110.289C157.84 112.8 158.476 115.319 159.116 117.837C159.441 119.094 159.756 120.353 160.088 121.609C160.419 122.864 160.744 124.12 161.094 125.37C161.444 126.619 161.795 127.867 162.18 129.107C162.565 130.347 162.977 131.57 163.444 132.776C163.678 133.378 163.934 133.971 164.214 134.552C164.353 134.843 164.501 135.129 164.659 135.408C164.818 135.688 164.985 135.962 165.168 136.225C165.531 136.751 165.955 137.245 166.484 137.602C166.749 137.782 167.043 137.914 167.353 137.991C167.668 138.065 167.993 138.08 168.314 138.036C167.993 138.103 167.663 138.11 167.34 138.057C167.015 137.995 166.703 137.876 166.42 137.706C165.85 137.366 165.392 136.873 164.993 136.353C164.794 136.09 164.613 135.816 164.441 135.537C164.269 135.257 164.109 134.972 163.956 134.682C163.65 134.104 163.381 133.507 163.126 132.906C162.117 130.496 161.371 127.994 160.667 125.489C160.328 124.234 160 122.976 159.683 121.714C159.375 120.451 159.068 119.188 158.782 117.92C158.205 115.384 157.666 112.84 157.167 110.289Z" fill="#353535"/>
<path d="M157.49 119.179C157.383 120.404 157.256 121.628 157.131 122.853L157.032 123.77L156.918 124.686L156.678 126.516C156.593 127.126 156.524 127.739 156.424 128.346L156.134 130.169L155.986 131.081C155.936 131.385 155.887 131.689 155.828 131.99L155.489 133.806L155.313 134.713L155.115 135.616L154.714 137.42C154.404 138.614 154.121 139.814 153.746 140.988L153.613 141.431C153.568 141.578 153.528 141.727 153.474 141.872L153.171 142.747C152.98 143.334 152.734 143.902 152.508 144.475C152.264 145.043 151.991 145.598 151.69 146.138C151.653 146.205 151.617 146.273 151.578 146.34L151.451 146.535L151.325 146.729C151.285 146.795 151.241 146.858 151.194 146.92L151.051 147.102C151.005 147.164 150.956 147.224 150.903 147.28L150.742 147.45C150.713 147.476 150.682 147.499 150.653 147.524L150.608 147.56C150.593 147.571 150.576 147.581 150.56 147.591C150.575 147.58 150.591 147.569 150.605 147.557L150.648 147.518C150.675 147.49 150.704 147.466 150.733 147.438L150.88 147.262C150.928 147.202 150.973 147.14 151.014 147.075L151.142 146.886C151.227 146.758 151.296 146.621 151.373 146.489L151.486 146.29C151.521 146.222 151.552 146.152 151.586 146.083C151.862 145.537 152.087 144.967 152.31 144.398C152.511 143.819 152.734 143.249 152.903 142.658L153.176 141.781C153.223 141.636 153.26 141.486 153.301 141.338L153.421 140.895C153.754 139.715 154.029 138.517 154.313 137.328L154.7 135.528L154.891 134.628L155.061 133.723L155.412 131.916C155.473 131.614 155.524 131.312 155.574 131.009L155.731 130.101L156.051 128.286C156.107 127.985 156.151 127.681 156.199 127.378L156.345 126.468L156.639 124.648L156.788 123.738L156.923 122.826C157.103 121.609 157.287 120.397 157.49 119.179Z" fill="#353535"/>
<path d="M153.288 148.574C153.013 149.321 152.687 150.047 152.311 150.748C151.938 151.453 151.522 152.134 151.063 152.786C150.606 153.449 150.074 154.056 149.477 154.595C149.173 154.868 148.83 155.094 148.46 155.265C148.271 155.349 148.071 155.402 147.866 155.423C147.663 155.442 147.459 155.408 147.273 155.324C147.464 155.36 147.66 155.352 147.848 155.303C148.03 155.251 148.205 155.174 148.366 155.073C148.688 154.867 148.984 154.621 149.246 154.342C149.779 153.776 150.268 153.17 150.71 152.53C151.163 151.893 151.594 151.238 152.018 150.577L153.288 148.574Z" fill="#353535"/>
<path d="M129.693 61.9871C126.517 52.8751 124.973 58.971 116.876 56.5894C108.779 54.2078 114.958 60.9559 119.632 61.9871C124.306 63.0182 123.593 61.2727 125.177 67.3058C126.762 73.3388 128.174 91.5125 147.67 73.5774C146.092 67.7033 143.478 65.9561 143.478 65.9561C143.478 65.9561 135.477 78.5776 129.693 61.9871Z" fill="#FCC0A9"/>
<path d="M147.67 73.5774C146.665 74.5024 145.709 75.3296 144.798 76.0686C143.442 72.9735 141.393 70.1383 140.606 69.1038C142.337 67.7576 143.479 65.9612 143.479 65.9612C143.479 65.9612 146.093 67.7032 147.67 73.5774Z" fill="#FC9A74"/>
<path d="M141.101 67.9411C144.191 72.2278 147.669 76.2758 147.669 76.2758C147.669 76.2758 153.489 68.8219 154.411 61.2728C155.333 53.7237 158.979 45.3702 153.486 50.7407C147.993 56.1112 142.923 67.6234 141.101 67.9411Z" fill="#EA5D39"/>
<g opacity="0.15">
<path opacity="0.15" d="M154.411 61.2727C153.489 68.8219 147.669 76.2758 147.669 76.2758C147.669 76.2758 146.807 75.2719 145.56 73.7345C147.051 71.6324 150.985 65.6028 151.728 59.5137C152.106 56.411 152.946 53.1716 153.423 50.8061C153.445 50.784 153.465 50.7628 153.487 50.7415C158.98 45.3702 155.333 53.7219 154.411 61.2727Z" fill="black"/>
</g>
<path d="M158.319 47.1438C148.776 52.2239 151.162 59.6855 150.604 64.2899C150.047 68.8942 146.088 75.2466 146.088 80.5627C146.088 85.8789 147.359 89.453 146.485 94.454C167.717 94.375 173.58 94.454 173.58 94.454C173.58 94.454 177.791 55.1159 168.96 49.5603C159.773 43.7795 158.319 47.1438 158.319 47.1438Z" fill="#EA5D39"/>
<g opacity="0.15">
<path opacity="0.15" d="M173.282 57.0931C176.04 70.7534 173.584 94.454 173.584 94.454C173.584 94.454 170.58 94.4132 161.088 94.42C161.726 90.2981 163.338 87.1155 164.345 82.4398C165.537 76.9087 163.088 69.4666 163.576 64.5607C163.754 62.7821 164.393 60.6952 164.746 58.4088L173.282 57.0931Z" fill="black"/>
</g>
<path d="M147.671 82.7215L135.056 84.918C133.923 85.1159 132.591 84.4033 132.081 83.3271L124.891 68.1483C124.383 67.0722 124.886 66.0402 126.019 65.8423L138.634 63.6459C139.767 63.448 141.099 64.1606 141.608 65.2367L148.796 80.4155C149.309 81.4959 148.804 82.5236 147.671 82.7215Z" fill="#5D1EB6"/>
<path d="M136.414 77.1328C137.926 77.1328 139.152 76.2445 139.152 75.1487C139.152 74.0529 137.926 73.1646 136.414 73.1646C134.903 73.1646 133.677 74.0529 133.677 75.1487C133.677 76.2445 134.903 77.1328 136.414 77.1328Z" fill="#F2F2F2"/>
<g opacity="0.3">
<path opacity="0.3" d="M147.671 82.7208L135.055 84.918C133.923 85.1159 132.591 84.4033 132.081 83.3272L131.054 81.1622C134.064 78.1843 139.186 76.1926 143.391 69.0037L148.795 80.4156C149.309 81.496 148.804 82.5237 147.671 82.7208Z" fill="black"/>
</g>
<path d="M137.945 78.7899C133.938 79.878 137.877 88.4879 148.647 87.2589C159.417 86.0299 169.386 89.6414 173.952 87.3914C178.519 85.1415 175.52 70.264 175.52 70.264C175.52 70.264 169.317 71.8235 167.204 71.8235C167.204 82.7505 171.958 80.6339 151.098 82.6146C139.686 83.6984 145.241 76.8092 137.945 78.7899Z" fill="#FCC0A9"/>
<path d="M176.365 76.5697C174.708 76.6674 169.544 76.9757 167.554 77.1371C167.469 76.3497 167.361 75.4103 167.288 74.2849H176.14C176.225 74.9933 176.304 75.7645 176.365 76.5697Z" fill="#FC9A74"/>
<path d="M139.51 78.4714C139.656 78.7262 139.783 78.9811 139.91 79.2359C140.037 79.4907 140.184 79.7353 140.317 79.9841C140.593 80.4718 140.898 80.9424 141.231 81.3932C141.558 81.8418 141.931 82.2549 142.345 82.6257C142.452 82.7106 142.556 82.8057 142.666 82.8898C142.776 82.9739 142.888 83.0597 143.005 83.1319C143.24 83.2915 143.492 83.4237 143.756 83.526C143.464 83.5091 143.177 83.4406 142.908 83.3238C142.772 83.2681 142.638 83.2043 142.509 83.1327C142.444 83.0981 142.381 83.0601 142.319 83.0189L142.132 82.8991C141.651 82.5551 141.228 82.1358 140.88 81.6574C140.532 81.1861 140.239 80.6759 140.008 80.137C139.902 79.8661 139.802 79.5926 139.712 79.3174C139.641 79.0329 139.564 78.7551 139.51 78.4714Z" fill="#FC9A74"/>
<path d="M137.945 78.7899C138.14 79.3577 138.364 79.9145 138.618 80.4581C138.866 80.9934 139.155 81.5088 139.481 81.9996C139.643 82.2438 139.818 82.4792 140.004 82.7046C140.094 82.8201 140.196 82.9254 140.291 83.0367C140.386 83.148 140.491 83.2507 140.599 83.351C141.027 83.7653 141.5 84.1321 142.007 84.4449C141.411 84.281 140.855 83.9979 140.372 83.6126C140.127 83.4219 139.9 83.2098 139.693 82.979C139.587 82.866 139.49 82.7437 139.392 82.6231C139.293 82.5025 139.205 82.3751 139.119 82.246C138.776 81.7308 138.502 81.1732 138.302 80.5872C138.096 80.0088 137.976 79.4033 137.945 78.7899Z" fill="#FC9A74"/>
<path d="M136.843 79.4813C136.928 79.7761 137.012 80.064 137.112 80.3468C137.212 80.6296 137.32 80.9065 137.437 81.1792C137.669 81.7211 137.948 82.2417 138.27 82.7352C138.309 82.7972 138.354 82.8567 138.393 82.917C138.431 82.9773 138.477 83.0376 138.521 83.0953C138.606 83.2151 138.699 83.3281 138.789 83.4427C138.976 83.6692 139.174 83.8858 139.383 84.0916C139.814 84.5061 140.282 84.8802 140.781 85.2094C140.19 85.0271 139.639 84.7365 139.155 84.3524L138.974 84.2054C138.915 84.1545 138.859 84.101 138.804 84.0483L138.72 83.9693L138.635 83.8844C138.581 83.8283 138.526 83.774 138.473 83.7145C138.265 83.4826 138.074 83.2357 137.902 82.9756C137.561 82.4556 137.296 81.8904 137.112 81.2964C136.925 80.71 136.834 80.097 136.843 79.4813Z" fill="#FC9A74"/>
<path d="M170.354 50.6201C179.683 65.3216 180.079 76.2758 180.079 76.2758L165.644 76.9944C165.644 76.9944 162.65 56.1172 165.185 52.9423C167.721 49.7674 170.354 50.6201 170.354 50.6201Z" fill="#EA5D39"/>
<path d="M159.137 37.0355C160.722 45.8204 161.772 46.0386 163.515 46.7767C154.431 58.1012 153.961 53.2819 153.486 50.7415C154.912 48.8899 154.437 45.8204 153.803 42.4866C157.395 37.0355 159.137 37.0355 159.137 37.0355Z" fill="#FCC0A9"/>
<path d="M157.843 37.6971C157.086 40.2902 155.693 42.6463 154.125 44.2864C154.03 43.6995 153.921 43.0973 153.804 42.4866C155.617 39.7347 156.96 38.3715 157.843 37.6971Z" fill="#FC9A74"/>
<path d="M159.561 29.0974C161.06 36.853 154.174 45.7679 150.16 44.1269C146.146 42.4859 148.153 28.621 148.311 27.5644C148.47 26.5077 157.976 20.8952 159.561 29.0974Z" fill="#FCC0A9"/>
<path d="M155.553 32.273C159.514 32.4319 157.342 36.5589 157.342 36.5589C157.342 36.5589 159.213 38.1659 159.853 40.674C163.046 37.4057 166.743 36.8239 165.159 34.8135C163.574 32.803 164.472 33.226 164.948 32.9083C165.423 32.5907 166.215 32.5907 165 31.2147C163.785 29.8388 163.89 29.9976 164.525 28.4637C165.159 26.9297 164.208 26.6112 162.834 26.1347C161.461 25.6582 160.933 26.8754 160.986 24.3358C161.04 21.7962 159.715 23.2775 157.765 23.4864C155.815 23.6954 156.022 24.1209 154.226 22.5869C152.43 21.053 152.43 21.9516 150.794 23.5391C149.157 25.1265 147.996 24.7061 146.432 25.9733C144.381 27.6381 145.829 30.683 148.522 29.6782C151.215 28.6734 150.159 30.7365 152.747 30.0486C155.335 29.3606 155.441 29.5194 155.494 30.1012C155.547 30.683 155.553 32.273 155.553 32.273Z" fill="#FC9A74"/>
<path d="M147.768 33.1853C147.763 33.2006 147.731 33.1853 147.74 33.1607C147.747 33.1461 147.757 33.1335 147.77 33.1242L147.822 33.0809C147.856 33.0524 147.892 33.0274 147.931 33.0061C148.007 32.9621 148.089 32.9282 148.173 32.905C148.344 32.8582 148.523 32.8475 148.698 32.8735C148.873 32.8996 149.041 32.9618 149.19 33.0562C149.343 33.1496 149.465 33.2854 149.541 33.447C149.359 33.4283 149.208 33.4011 149.061 33.3782L148.637 33.3102L148.213 33.249L147.985 33.2168L147.864 33.1981L147.8 33.187C147.793 33.186 147.785 33.1831 147.779 33.1785C147.766 33.1675 147.756 33.1853 147.768 33.1853Z" fill="#333333"/>
<path d="M151.513 33.5438C151.663 33.2844 151.869 33.0621 152.117 32.8932C152.364 32.7194 152.64 32.5911 152.932 32.5143C153.23 32.4287 153.544 32.4133 153.848 32.4693C154.003 32.5002 154.151 32.5601 154.284 32.646C154.414 32.7286 154.521 32.844 154.593 32.9807C154.351 32.8592 154.083 32.8008 153.813 32.8108C153.552 32.8233 153.295 32.8658 153.044 32.9373C152.784 33.0052 152.529 33.0903 152.281 33.1922C152.03 33.2967 151.782 33.4164 151.513 33.5438Z" fill="#333333"/>
<path d="M149.956 34.1145C150.14 34.2126 150.295 34.3569 150.406 34.5332C150.521 34.7142 150.6 34.9162 150.638 35.1278C150.705 35.5495 150.654 35.9817 150.491 36.3763C150.454 36.4731 150.412 36.5682 150.367 36.6608C150.323 36.7534 150.273 36.8417 150.226 36.925C150.134 37.0758 150.061 37.2372 150.008 37.4057C149.965 37.5646 149.98 37.734 150.052 37.8822C150.139 38.0538 150.243 38.2168 150.361 38.3688C150.176 38.2777 150.009 38.1523 149.871 37.9994C149.796 37.9132 149.738 37.8131 149.701 37.7047C149.666 37.5914 149.653 37.4722 149.663 37.3539C149.69 37.1388 149.753 36.9299 149.851 36.7364C149.935 36.5547 150.013 36.3924 150.078 36.2183C150.217 35.8844 150.29 35.5268 150.293 35.1651C150.293 34.7883 150.175 34.421 149.956 34.1145Z" fill="#333333"/>
<path d="M149.719 39.4783C149.929 39.6117 150.11 39.7603 150.287 39.8062C150.465 39.8529 150.654 39.8482 150.83 39.7926C150.923 39.7658 151.013 39.7308 151.1 39.6881C151.192 39.6407 151.282 39.5879 151.369 39.5301C151.551 39.4137 151.735 39.2694 151.954 39.1496C151.878 39.3861 151.755 39.6047 151.593 39.7926C151.51 39.8897 151.414 39.9754 151.308 40.0474C151.196 40.1229 151.073 40.1802 150.943 40.2173C150.809 40.2549 150.67 40.2676 150.532 40.2546C150.392 40.2433 150.257 40.1981 150.139 40.123C150.021 40.0478 149.923 39.9449 149.853 39.8231C149.792 39.7153 149.747 39.5991 149.719 39.4783Z" fill="#333333"/>
<path d="M155.4 35.4353C155.277 35.3364 155.126 35.2801 154.968 35.2747C154.549 35.2336 154.128 35.3226 153.761 35.5296C153.616 35.6064 153.49 35.7142 153.391 35.8455C153.342 35.9113 153.307 35.9866 153.288 36.0665C153.27 36.1465 153.268 36.2294 153.283 36.3101C153.306 36.3929 153.346 36.4698 153.401 36.5359C153.456 36.6019 153.524 36.6555 153.601 36.6932C153.755 36.7675 153.924 36.8089 154.095 36.8146C154.499 36.8428 154.905 36.7798 155.282 36.6303C155.434 36.5777 155.572 36.4925 155.688 36.3806C155.745 36.3243 155.789 36.2554 155.815 36.1793C155.841 36.1033 155.85 36.0222 155.84 35.9423C155.827 35.8626 155.787 35.79 155.726 35.7374C155.665 35.6848 155.587 35.6557 155.506 35.6553" fill="#FC9A74"/>
<path d="M147.732 35.8156C147.926 35.7847 148.124 35.7954 148.314 35.8471C148.416 35.8856 148.508 35.9447 148.587 36.0207C148.665 36.0967 148.727 36.1879 148.768 36.2888C148.85 36.4918 148.87 36.7146 148.827 36.9292C148.808 37.0531 148.765 37.1721 148.7 37.2791C148.635 37.386 148.549 37.4788 148.448 37.5518C148.238 37.686 147.934 37.6869 147.756 37.511" fill="#FC9A74"/>
<path d="M151.857 34.6539C151.875 34.536 151.911 34.4216 151.963 34.3141C152.02 34.1982 152.102 34.0962 152.202 34.0152C152.415 33.8546 152.679 33.778 152.944 33.8003C153.073 33.8103 153.2 33.8407 153.32 33.8903C153.435 33.9387 153.542 34.003 153.639 34.0814C153.827 34.2316 153.97 34.4305 154.053 34.6564C153.837 34.5545 153.649 34.4526 153.46 34.3778C153.285 34.304 153.1 34.2575 152.911 34.2402C152.731 34.2249 152.551 34.2487 152.381 34.3099C152.29 34.3454 152.205 34.3928 152.127 34.4509C152.043 34.5112 151.956 34.5859 151.857 34.6539Z" fill="#333333"/>
<path d="M148.142 34.7736C148.087 34.6748 148.054 34.5648 148.047 34.4517C148.043 34.3886 148.051 34.3252 148.07 34.2649C148.091 34.1992 148.123 34.1379 148.166 34.0839C148.254 33.98 148.369 33.9028 148.499 33.8612C148.628 33.8196 148.767 33.8153 148.899 33.8487C149.139 33.9109 149.346 34.0628 149.478 34.2734C149.595 34.4606 149.662 34.6751 149.673 34.8959C149.497 34.7609 149.359 34.6123 149.217 34.5018C149.095 34.398 148.952 34.3218 148.798 34.2785C148.733 34.2618 148.666 34.2578 148.599 34.2666C148.532 34.2747 148.468 34.2964 148.409 34.3303C148.344 34.3682 148.292 34.4246 148.258 34.4925C148.214 34.5839 148.176 34.6778 148.142 34.7736Z" fill="#333333"/>
<path d="M148.813 34.0653C148.783 34.0481 148.748 34.0406 148.713 34.0439C148.679 34.0473 148.646 34.0613 148.619 34.084C148.562 34.1343 148.522 34.2006 148.503 34.2743C148.458 34.4415 148.461 34.6182 148.512 34.7838C148.562 34.9453 148.637 35.0984 148.732 35.2382C148.757 35.2831 148.793 35.3206 148.836 35.3469C148.875 35.3598 148.918 35.3591 148.956 35.3449C148.995 35.3307 149.027 35.3039 149.048 35.2688C149.11 35.1761 149.14 35.0657 149.133 34.9545C149.126 34.8438 149.105 34.7344 149.072 34.6284C149.009 34.4017 148.935 34.1664 148.776 34.0127" fill="#333333"/>
<path d="M152.618 34.1018C152.621 34.094 152.622 34.0856 152.622 34.0772C152.622 34.0687 152.619 34.0605 152.615 34.0531C152.611 34.0457 152.605 34.0394 152.598 34.0346C152.591 34.0298 152.584 34.0266 152.575 34.0253C152.558 34.0264 152.541 34.0316 152.526 34.0407C152.512 34.0497 152.499 34.0622 152.49 34.0771C152.396 34.202 152.387 34.3829 152.399 34.5468C152.412 34.7323 152.445 34.9158 152.499 35.0938C152.525 35.1968 152.571 35.2937 152.635 35.3792C152.663 35.419 152.702 35.4508 152.746 35.4715C152.791 35.4922 152.84 35.501 152.889 35.4973C152.926 35.4903 152.962 35.4752 152.993 35.4531C153.147 35.3495 153.215 35.1244 153.195 34.9214C153.167 34.7226 153.092 34.5333 152.977 34.3693C152.885 34.2249 152.774 34.0848 152.623 34.0355C152.608 34.0281 152.59 34.0247 152.572 34.0256C152.555 34.0265 152.538 34.0316 152.523 34.0406" fill="#333333"/>
<g opacity="0.07">
<path opacity="0.07" d="M165.156 34.8126C166.74 36.8238 163.043 37.4057 159.85 40.6731C159.396 38.8895 158.318 37.5619 157.731 36.9436C157.843 35.0393 158.818 34.1577 157.87 33.7662C157.82 33.5265 157.719 33.3006 157.574 33.1041C157.428 32.9075 157.242 32.7451 157.027 32.628C156.672 32.4276 156.191 32.2976 155.546 32.2713C155.546 32.2713 155.546 31.292 155.516 30.5896C157.247 29.1176 158.015 30.3059 159.29 31.2334C160.715 32.2713 162.669 29.3733 163.145 29.8965C163.515 30.3033 164.364 31.5451 164.925 31.1323L164.996 31.2121C166.211 32.5881 165.42 32.5881 164.944 32.9058C164.467 33.2234 163.575 32.8021 165.156 34.8126Z" fill="black"/>
</g>
<g opacity="0.15">
<path opacity="0.15" d="M157.877 33.7681L157.034 32.6299C157.248 32.747 157.435 32.9095 157.58 33.106C157.726 33.3026 157.827 33.5285 157.877 33.7681Z" fill="black"/>
</g>
<path d="M157.026 36.2574C158.32 33.0665 159.824 32.8957 160.565 34.5163C161.305 36.1368 158.798 39.952 157.29 38.6228C156.392 37.8295 157.026 36.2574 157.026 36.2574Z" fill="#FDAF91"/>
<path d="M60.7684 147.401H53.3215C53.3461 149.802 53.3877 151.988 53.4402 153.99H60.0521C60.3887 150.076 60.7684 147.401 60.7684 147.401Z" fill="#FC9A74"/>
<path d="M60.3819 175.623C59.1307 168.975 59.5393 160.015 60.0547 153.99H53.4427C54.0582 177.479 56.1816 174.538 50.4758 180.185L50.2944 180.361C50.7912 180.862 51.2761 181.522 51.5032 182.327C55.6086 177.169 58.6195 175.849 60.3819 175.623Z" fill="#FCC0A9"/>
<path d="M60.3819 175.623C58.6204 175.849 55.6095 177.169 51.4999 182.329C51.2727 181.524 50.7878 180.864 50.2911 180.363C44.3514 186.276 43.4401 189.186 52.0619 184.313C57.1251 181.138 56.491 181.772 56.491 181.772C56.491 181.772 56.0952 184.52 56.0952 186.559H58.7883C58.7883 186.559 58.0754 182.011 61.0863 178.518C60.7969 177.567 60.5617 176.601 60.3819 175.623Z" fill="#4D4D4D"/>
<path d="M64.3862 147.401H71.8331C71.8085 149.802 71.767 151.988 71.7145 153.99H65.1025C64.766 150.076 64.3862 147.401 64.3862 147.401Z" fill="#FC9A74"/>
<path d="M64.7732 175.623C66.0244 168.975 65.6209 160.015 65.1012 153.99H71.7132C71.0969 177.479 68.9743 174.538 74.6801 180.185L74.8598 180.363C74.363 180.864 73.8782 181.524 73.6501 182.328C69.5457 177.169 66.5355 175.849 64.7732 175.623Z" fill="#FCC0A9"/>
<path d="M64.7732 175.623C66.5355 175.849 69.5456 177.169 73.6552 182.329C73.8833 181.524 74.3681 180.864 74.8649 180.363C80.8038 186.276 81.7151 189.186 73.0941 184.313C68.0308 181.138 68.664 181.772 68.664 181.772C68.664 181.772 69.0608 184.52 69.0608 186.559H66.3668C66.3668 186.559 67.0797 182.011 64.0696 178.518C64.3588 177.567 64.5937 176.601 64.7732 175.623Z" fill="#4D4D4D"/>
<path d="M52.6874 66.115C43.6562 76.9868 47.7759 79.0541 39.6949 69.052C36.6051 65.083 34.7233 68.2324 30.3467 66.115C23.216 62.6666 22.7404 67.2268 29.7915 70.8196C34.5029 73.2207 32.6439 68.1789 38.0309 78.4986C43.418 88.8183 44.9235 85.9602 55.3016 75.2439L52.6874 66.115Z" fill="#FCC0A9"/>
<path d="M55.3019 75.2439C44.9237 85.9603 43.4182 88.8183 38.0312 78.4987C37.6353 77.7393 37.281 77.0547 36.9631 76.4373C37.3514 76.8484 37.7752 77.2948 38.2347 77.7767C46.2241 86.1514 46.915 83.064 53.8176 70.0586L55.3019 75.2439Z" fill="#FC9A74"/>
<path d="M53.8029 70.1995L53.457 68.9943L53.9911 69.8436L53.9758 69.8716L53.9029 70.0075L53.8029 70.1995ZM53.7724 69.7026L53.8334 69.9124C53.8436 69.892 53.8546 69.8716 53.8656 69.8513L53.7724 69.7026Z" fill="#4D4D4D"/>
<path d="M76.2961 69.8462C78.8315 82.4677 78.8315 83.1812 83.426 80.8802C82.2392 77.5456 84.4559 75.7994 85.6444 74.6884C86.8328 73.5774 90.3185 72.8623 90.16 76.9112C90.0015 80.9601 90.3185 81.5945 88.4968 83.6585C86.6752 85.7224 73.2851 96.28 72.0967 78.0221L76.2961 69.8462Z" fill="#FCC0A9"/>
<path d="M85.1707 86.3195C80.5618 89.2565 72.9783 91.554 72.0967 78.0221L76.2962 69.8462C76.4233 70.4832 76.5451 71.0902 76.6615 71.6672L73.8556 75.0519C72.9156 86.8214 79.6344 87.6648 85.1707 86.3195Z" fill="#FC9A74"/>
<path d="M49.564 81.9911C49.564 81.9911 46.4275 75.006 45.7952 74.5295C51.4992 64.4485 56.3768 58.2567 64.2374 59.05C72.098 59.8433 75.9007 63.4165 78.9108 77.4666C76.2965 79.8448 72.0971 80.9592 72.0971 80.9592C72.0971 80.9592 72.0123 85.7861 76.9289 97.3756C81.8455 108.965 74.5554 149.147 74.6334 152.322C50.1531 151.926 50.2328 151.528 50.2328 151.528C50.2328 151.528 44.8458 108.98 47.3803 101.042C49.9149 93.1042 52.6097 89.7619 53.877 84.924C55.1443 80.086 55.3028 76.117 55.3028 76.117L49.564 81.9911Z" fill="#5D1EB6"/>
<path d="M54.6753 98.6395C55.5547 100.042 56.5564 101.363 57.6685 102.588C57.8007 102.745 57.9507 102.886 58.0923 103.034L58.5161 103.476L58.9629 103.9C59.1104 104.041 59.2562 104.184 59.4138 104.316L59.875 104.719L59.9903 104.82L60.1098 104.916L60.3497 105.107C60.5099 105.235 60.6659 105.362 60.8269 105.491L61.322 105.853L61.5678 106.036C61.6526 106.097 61.7373 106.15 61.8221 106.206L62.3307 106.545L62.457 106.63L62.5876 106.71L62.8486 106.87C63.0233 106.976 63.1962 107.085 63.3725 107.189C64.081 107.598 64.8095 107.972 65.5553 108.308C65.7435 108.393 65.9274 108.478 66.1173 108.563L66.6895 108.79L66.9752 108.906C67.0693 108.942 67.1617 108.974 67.2566 109.003C67.4462 109.064 67.6397 109.111 67.8356 109.146C68.2252 109.226 68.6268 109.228 69.0172 109.152C69.2109 109.112 69.3939 109.031 69.5538 108.914C69.6348 108.854 69.7077 108.784 69.7708 108.705C69.8327 108.623 69.8855 108.534 69.9285 108.44C69.9053 108.544 69.8691 108.644 69.8208 108.738C69.7696 108.834 69.706 108.922 69.6318 109.001C69.4759 109.157 69.2883 109.278 69.0817 109.356C68.8769 109.434 68.6625 109.485 68.4442 109.506C68.2277 109.529 68.0097 109.535 67.7923 109.522C67.5753 109.509 67.3595 109.48 67.1464 109.437C67.0404 109.417 66.9328 109.39 66.8294 109.361L66.5267 109.271L65.9215 109.087C65.7206 109.022 65.5239 108.946 65.3281 108.873L65.0306 108.763L64.8822 108.708C64.8331 108.688 64.7848 108.666 64.7364 108.646L64.1558 108.391C64.0591 108.348 63.9608 108.306 63.8659 108.261L63.5836 108.118L63.0173 107.83C62.8308 107.731 62.6503 107.62 62.4672 107.514L62.1925 107.355L62.0552 107.275L61.9221 107.19L61.3923 106.84C61.3076 106.781 61.2143 106.725 61.1287 106.663L60.8744 106.475L60.3658 106.096C60.1963 105.964 60.0369 105.828 59.8741 105.693C59.5435 105.428 59.235 105.138 58.9256 104.85C58.7687 104.708 58.6221 104.555 58.4746 104.403L58.0347 103.946C57.8939 103.789 57.7566 103.629 57.6184 103.469C57.4803 103.309 57.3387 103.152 57.2124 102.981C56.1572 101.668 55.3022 100.204 54.6753 98.6395Z" fill="#2291F2"/>
<path d="M61.4712 112.503C62.3248 112.632 63.153 112.768 63.9846 112.86C64.8161 112.953 65.6418 113.018 66.4708 113.045C67.2999 113.071 68.1297 113.062 68.9639 113.019C69.798 112.977 70.6355 112.899 71.495 112.826C70.7157 113.202 69.8886 113.47 69.0368 113.622C67.3239 113.936 65.5638 113.878 63.8752 113.452C63.0346 113.247 62.2258 112.927 61.4712 112.503Z" fill="#2291F2"/>
<path d="M57.8701 88.8855C58.8814 88.9296 59.8715 88.9577 60.8557 88.9203C61.836 88.8871 62.8136 88.7969 63.7836 88.6502C64.7531 88.5018 65.7134 88.2979 66.6598 88.0395C67.6117 87.7847 68.5484 87.4627 69.5029 87.1221C68.6933 87.7413 67.801 88.2437 66.8522 88.6145C64.9439 89.3716 62.8885 89.683 60.8421 89.5251C59.8265 89.4518 58.8262 89.2365 57.8701 88.8855Z" fill="#2291F2"/>
<path d="M61.4624 90.6861C61.8676 90.5858 62.2457 90.534 62.6187 90.4771L63.7207 90.3268C64.0852 90.2775 64.4506 90.23 64.8227 90.1841C65.1949 90.1382 65.5755 90.0932 65.9942 90.0856C65.7058 90.3763 65.3631 90.6072 64.9855 90.7651C64.2388 91.0889 63.4168 91.1975 62.6119 91.0785C62.2068 91.0242 61.8163 90.8909 61.4624 90.6861Z" fill="#2291F2"/>
<g opacity="0.3">
<path opacity="0.3" d="M53.5786 151.793C50.2523 151.637 50.232 151.531 50.232 151.528C50.232 151.526 44.8449 108.98 47.3795 101.042C47.4829 100.719 47.5863 100.404 47.6898 100.095C47.6779 113.242 52.2639 143.414 53.5786 151.793Z" fill="black"/>
</g>
<g opacity="0.3">
<path opacity="0.3" d="M57.5561 71.6027C57.5561 71.6027 56.3694 76.9086 55.0979 81.7465C54.854 82.7004 54.4816 83.6165 53.9908 84.4696C55.1521 79.8406 55.3005 76.117 55.3005 76.117L49.5625 81.9911L57.5561 71.6027Z" fill="black"/>
</g>
<path d="M91.7057 80.2925H79.8527C79.3288 80.2925 79.1101 79.8678 79.3636 79.3386L87.2181 63.0258C87.4724 62.4984 88.1022 62.0712 88.6261 62.0712H100.477C101.001 62.0712 101.22 62.4958 100.966 63.0258L93.112 79.3386C92.8594 79.8652 92.2295 80.2925 91.7057 80.2925Z" fill="#EA5D39"/>
<g opacity="0.3">
<path opacity="0.3" d="M96.9017 71.4736L93.1134 79.3412C92.8591 79.8686 92.2284 80.295 91.7054 80.295H79.8524C79.3285 80.295 79.1098 79.8703 79.3641 79.3412L80.6356 76.6988C88.0163 75.8138 93.973 73.0585 96.9017 71.4736Z" fill="black"/>
</g>
<path d="M66.7925 36.8095C60.306 36.1402 51.5774 43.3725 55.5895 43.7844C59.6016 44.1964 55.3292 46.11 53.0888 47.5573C50.8483 49.0046 48.2951 50.6057 51.4214 50.9675C54.5477 51.3293 54.2349 52.2076 51.0043 53.4476C47.7738 54.6877 49.0767 55.8259 64.3435 58.1497C80.5997 53.2412 80.392 53.344 77.2131 52.3112C74.0343 51.2784 74.5556 51.1739 75.6025 49.8302C76.6494 48.4865 77.2131 48.7456 74.6641 47.9701C72.1151 47.1946 73.8266 37.5331 66.7925 36.8095Z" fill="#4D4D4D"/>
<path d="M63.8574 49.6306C62.9597 54.5518 62.2197 57.6213 59.9487 59.3676C65.8639 66.0359 69.8785 60.5321 69.8785 60.5321C66.5505 56.7219 68.4518 52.9643 68.4518 52.9643L63.8574 49.6306Z" fill="#FCC0A9"/>
<path d="M67.9165 55.8649C67.1329 55.4776 66.3939 55.0056 65.7126 54.4575C64.8219 53.7539 64.0445 52.9171 63.4077 51.9765C63.5575 51.2467 63.7078 50.4647 63.8587 49.6306L68.4531 52.9643C68.4531 52.9643 67.853 54.1509 67.9165 55.8649Z" fill="#FC9A74"/>
<path d="M65.2316 38.1473C56.9921 42.1163 59.6962 49.3129 63.805 52.5413C67.9137 55.7698 70.5661 54.7106 72.0971 52.8055C73.628 50.9004 72.8269 41.7885 70.0906 39.1521C67.3543 36.5156 65.2316 38.1473 65.2316 38.1473Z" fill="#FCC0A9"/>
<path d="M65.8922 44.735C65.8837 44.7103 65.8786 44.6857 65.8718 44.6611V44.6543L65.8905 44.6382C66.0744 44.4734 66.3355 44.4122 66.5687 44.4004C66.6854 44.3952 66.8024 44.3978 66.9188 44.408C67.0408 44.4177 67.1616 44.4399 67.2791 44.4742C67.5249 44.5472 67.7432 44.6925 67.9056 44.8912C68.0584 45.0761 68.1674 45.2933 68.2243 45.5265C68.0209 45.3983 67.8496 45.2547 67.6758 45.1435C67.5164 45.0332 67.34 44.9497 67.1536 44.8963C67.0612 44.8692 66.9637 44.8479 66.8595 44.8275L66.5441 44.7596C66.3366 44.709 66.1235 44.6853 65.91 44.6891L65.9261 44.667C65.9134 44.69 65.9023 44.7129 65.8922 44.735Z" fill="#333333"/>
<path d="M67.4802 44.9354C67.4056 44.9046 67.3235 44.8961 67.2442 44.9112C67.1648 44.9263 67.0916 44.9642 67.0334 45.0204C66.919 45.1364 66.8524 45.2914 66.8469 45.4544C66.8371 45.6481 66.8877 45.8401 66.9918 46.0037C67.0959 46.1673 67.2482 46.2944 67.4276 46.3674C67.5591 46.4175 67.7227 46.4319 67.8261 46.3368C67.944 46.2289 67.927 46.0412 67.9007 45.8841C67.8414 45.5299 67.7566 45.135 67.4556 44.9405" fill="#333333"/>
<path d="M71.7551 43.6776C71.6415 43.8228 71.5406 43.9375 71.4508 44.053C71.3609 44.1685 71.2813 44.2781 71.2092 44.3927C71.1372 44.5074 71.0677 44.6263 70.9999 44.7554L70.7787 45.1852C70.6869 45.0287 70.6471 44.8469 70.6651 44.6662C70.6805 44.4839 70.7404 44.3082 70.8394 44.1545C70.9384 44.0008 71.0735 43.8737 71.233 43.7846C71.3915 43.695 71.5741 43.6575 71.7551 43.6776Z" fill="#333333"/>
<path d="M71.4158 44.3884C71.3632 44.3298 71.2658 44.3825 71.2166 44.4445C71.0555 44.6424 71.0106 44.9091 70.9894 45.1639C70.9722 45.2863 70.9786 45.4108 71.0081 45.5308C71.0233 45.5909 71.0529 45.6463 71.0944 45.6922C71.136 45.7381 71.1881 45.7731 71.2463 45.7941C71.3119 45.8091 71.3803 45.8056 71.444 45.784C71.5078 45.7624 71.5643 45.7236 71.6074 45.6718C71.6924 45.567 71.7475 45.4411 71.7667 45.3074C71.8135 45.0589 71.8013 44.8029 71.7311 44.56C71.6972 44.4436 71.6074 44.3052 71.4904 44.34" fill="#333333"/>
<path d="M69.7362 44.2558C69.7338 44.6511 69.7756 45.0454 69.8608 45.4313C69.9451 45.8026 70.0735 46.1624 70.2432 46.5032C70.3279 46.673 70.4271 46.8531 70.5102 47.0493C70.6008 47.2518 70.6545 47.469 70.6687 47.6905C70.6773 48.1196 70.5481 48.54 70.3 48.8898C70.3602 48.483 70.4025 48.0872 70.3246 47.733C70.2466 47.3788 70.0372 47.0756 69.849 46.6994C69.6591 46.3183 69.547 45.903 69.5192 45.478C69.4885 45.0588 69.5631 44.6386 69.7362 44.2558Z" fill="#FC9A74"/>
<path d="M66.2617 42.7269C66.3975 42.6123 66.5648 42.5415 66.7415 42.5239C66.9086 42.5026 67.0781 42.5087 67.2433 42.5418C67.4098 42.5741 67.5693 42.6353 67.7147 42.7227C67.8704 42.8092 67.9949 42.9426 68.0707 43.104C67.891 43.0819 67.7443 43.0683 67.5943 43.0471C67.4442 43.0259 67.301 43.0038 67.156 42.9741C67.0111 42.9443 66.8678 42.9104 66.722 42.8696C66.5762 42.8288 66.4346 42.7804 66.2617 42.7269Z" fill="#333333"/>
<path d="M70.2156 42.907C70.2122 42.772 70.2475 42.6387 70.3173 42.5231C70.3842 42.4087 70.4775 42.312 70.5894 42.2411C70.7073 42.1663 70.844 42.1265 70.9836 42.1264C71.055 42.1243 71.1259 42.1377 71.1916 42.1657C71.2574 42.1937 71.3162 42.2357 71.3642 42.2887C71.2604 42.3421 71.1594 42.4008 71.0616 42.4645L70.8225 42.6157C70.7428 42.6658 70.653 42.7159 70.5606 42.7669C70.4512 42.8265 70.3355 42.8735 70.2156 42.907Z" fill="#333333"/>
<path d="M68.4207 49.73C69.2359 50.0088 70.1188 50.0186 70.94 49.758C70.8985 50.1355 70.8105 50.5064 70.678 50.8622C70.5831 51.117 70.4373 51.3888 70.1779 51.4677C69.9185 51.5467 69.6481 51.404 69.4243 51.2503C68.8377 50.8452 68.3223 50.3161 68.0417 49.6561" fill="#EA5D39"/>
<path d="M66.6669 47.3256C66.4128 47.1201 66.1057 46.9911 65.7813 46.9533C65.457 46.9156 65.1286 46.9707 64.8342 47.1124C64.6953 47.1707 64.5801 47.2743 64.507 47.4062C64.4733 47.4935 64.4626 47.588 64.4762 47.6806C64.4897 47.7731 64.5269 47.8606 64.5842 47.9345C64.7014 48.0805 64.8512 48.1969 65.0216 48.2742C65.6014 48.5741 66.3117 48.6828 66.9102 48.4237C67.0611 48.3583 67.2145 48.2539 67.2492 48.0925C67.2874 47.9031 67.1416 47.7307 67.0068 47.5922" fill="#FC9A74"/>
<path d="M72.6432 45.8636C72.0972 46.127 71.8073 46.9305 71.8658 47.4096C71.8811 47.5429 71.9387 47.6975 72.0693 47.7239C72.1439 47.7314 72.2187 47.7127 72.2812 47.6712C72.4617 47.5693 72.6737 47.317 72.7898 47.1429" fill="#FC9A74"/>
<path d="M66.3837 41.5583C62.2122 43.2315 68.4181 42.9529 65.5809 44.4036C62.7437 45.8543 61.6205 46.3894 62.7437 46.9033C63.6032 47.2957 61.9011 47.029 60.4185 48.0074C59.1469 44.6746 59.8726 40.7276 65.2316 38.1472C65.2316 38.1472 66.7346 36.9794 68.8547 38.2042C68.8973 38.2833 68.9358 38.3647 68.97 38.4479C64.2212 39.7721 70.5543 39.8833 66.3837 41.5583Z" fill="#FC9A74"/>
<path d="M68.6821 38.1081C64.4394 39.3643 70.0986 39.4671 66.3713 41.0571C62.644 42.6471 68.1896 42.3804 65.6541 43.7564C63.1187 45.1323 62.1159 45.6403 63.1187 46.127C64.1215 46.6136 61.2173 46.0318 59.95 48.4134C57.2035 45.6615 56.3685 43.1211 59.8754 40.2111C63.3823 37.3012 67.5877 35.318 68.6821 38.1081Z" fill="#4D4D4D"/>
<path d="M83.4267 80.8802C82.24 77.5457 84.4567 75.7994 85.6451 74.6884C86.8336 73.5774 90.3193 72.8623 90.1607 76.9112C90.0022 80.9601 90.3193 81.5946 88.4976 83.6585" fill="#FCC0A9"/>
<path d="M83.6648 75.204C83.8648 75.3316 84.0469 75.4852 84.2065 75.6609C84.2463 75.7051 84.2912 75.7459 84.326 75.7934L84.4379 75.9319C84.5142 76.0236 84.5786 76.1238 84.6464 76.2215C84.9062 76.6203 85.1152 77.05 85.2686 77.5006L85.3746 77.8404C85.4085 77.9542 85.4314 78.0706 85.4593 78.1861C85.5118 78.4163 85.5509 78.6495 85.5763 78.8843C85.5941 79.0006 85.5967 79.1195 85.6034 79.2367C85.6102 79.354 85.6128 79.472 85.6153 79.5892C85.6085 79.8245 85.5958 80.0598 85.567 80.2925C85.4983 80.0649 85.4534 79.8381 85.3974 79.613C85.3678 79.5009 85.3398 79.3896 85.3127 79.2784C85.2856 79.1671 85.2644 79.055 85.2279 78.9454C85.166 78.7254 85.1177 78.5037 85.0474 78.2889C85.0143 78.181 84.9889 78.0706 84.9516 77.9644L84.8456 77.6433C84.6995 77.2171 84.5297 76.7994 84.337 76.3922C84.2861 76.2912 84.2412 76.1867 84.1861 76.0882L84.1073 75.937L84.0225 75.7883C83.9141 75.5871 83.7946 75.392 83.6648 75.204Z" fill="#FC9A74"/>
<path d="M85.1709 74.4506C85.5435 74.6484 85.8756 74.9146 86.15 75.2354C86.714 75.8724 87.0969 76.6494 87.2588 77.4853C87.2997 77.692 87.3246 77.9016 87.3334 78.1121C87.3398 78.2171 87.3398 78.3223 87.3334 78.4272C87.3283 78.5317 87.3224 78.6362 87.3105 78.7398C87.2732 78.6404 87.2427 78.5411 87.2122 78.4425C87.1817 78.344 87.1613 78.2446 87.1223 78.1495C87.0545 77.9567 87.0028 77.7639 86.9265 77.577C86.6588 76.8289 86.307 76.1136 85.8779 75.4452C85.6592 75.1019 85.4232 74.7699 85.1709 74.4506Z" fill="#FC9A74"/>
<path d="M87.2693 73.2988C87.5961 73.599 87.8812 73.9419 88.117 74.3181C88.3571 74.6927 88.5579 75.0912 88.7163 75.5072C88.8746 75.9269 88.9797 76.3649 89.0291 76.8109C89.0767 77.2567 89.0431 77.7073 88.9299 78.141C88.871 77.7125 88.7904 77.2873 88.6883 76.867C88.5773 76.4576 88.4552 76.055 88.3043 75.6584C88.1534 75.2617 87.9898 74.8701 87.8135 74.4794C87.6372 74.0887 87.4566 73.7014 87.2693 73.2988Z" fill="#FC9A74"/>
<path d="M192.559 45.3983C189.819 44.0356 187.442 42.0381 185.626 39.5714C183.809 37.1046 182.606 34.2397 182.115 31.214C180.397 20.6819 187.522 10.7546 198.03 9.03213C208.537 7.30963 218.449 14.451 220.171 24.9797C221.894 35.5083 214.765 45.4399 204.257 47.1615C202.331 47.479 200.369 47.5013 198.436 47.2278C196.366 51.1561 193.831 53.2752 185.382 52.4174C189.411 50.7399 192.621 48.2623 192.559 45.3983Z" fill="white"/>
<path d="M188.777 53.4043C187.614 53.3982 186.452 53.3336 185.295 53.2107L182.159 52.8922L185.073 51.6801C189.078 50.0154 191.47 47.9217 191.741 45.8696C189.004 44.4187 186.64 42.3523 184.834 39.8323C183.028 37.3124 181.829 34.4076 181.331 31.3456C180.658 27.192 181.304 22.9314 183.176 19.165C185.049 15.3987 188.055 12.3166 191.77 10.3536C195.485 8.39061 199.721 7.64585 203.881 8.22438C208.041 8.8029 211.914 10.6755 214.955 13.578C217.996 16.4805 220.05 20.2664 220.829 24.4015C221.607 28.5366 221.07 32.8122 219.293 36.6251C217.516 40.438 214.59 43.5957 210.926 45.6527C207.262 47.7097 203.046 48.5622 198.873 48.0899C196.974 51.4686 194.545 53.4043 188.777 53.4043ZM188.443 51.8075C190.795 51.8381 192.585 51.5391 193.959 50.8953C195.506 50.17 196.598 48.9995 197.727 46.8557L197.988 46.3597L198.543 46.4379C200.396 46.6999 202.277 46.6784 204.124 46.3742C214.182 44.7264 221.026 35.1864 219.382 25.1087C218.87 21.9791 217.564 19.0338 215.59 16.555C213.616 14.0762 211.039 12.147 208.107 10.9524C205.175 9.7577 201.986 9.33761 198.846 9.73236C195.705 10.1271 192.719 11.3235 190.172 13.2068C187.626 15.0901 185.604 17.5971 184.302 20.4878C183 23.3784 182.461 26.5556 182.737 29.715C183.012 32.8743 184.092 35.9098 185.875 38.5306C187.657 41.1514 190.081 43.2696 192.915 44.6822L193.346 44.8971L193.356 45.3779C193.407 47.7145 191.688 49.9432 188.443 51.8075Z" fill="#CCCCCC"/>
<path d="M189.249 34.2131C189.249 34.2131 203.261 34.6429 211.384 22.2023L189.249 34.2131Z" fill="white"/>
<path d="M189.249 34.2129C190.128 34.1006 191 33.9321 191.858 33.7084C192.712 33.4935 193.553 33.2327 194.373 32.944C195.193 32.6552 195.999 32.3231 196.78 31.957C197.56 31.5909 198.319 31.1926 199.052 30.7679C199.786 30.3432 200.493 29.8684 201.171 29.3801L201.672 29.003L201.797 28.9095L201.918 28.811L202.161 28.6148C202.487 28.36 202.794 28.0797 203.104 27.8096C204.307 26.7189 205.393 25.5066 206.347 24.1922L210.269 27.9795C208.759 29.2175 207.125 30.2963 205.395 31.1985C204.963 31.4134 204.538 31.6334 204.099 31.8245L203.773 31.9723L203.61 32.0453L203.445 32.1133L202.785 32.3834C201.9 32.7231 201.005 33.0323 200.108 33.2846C199.21 33.5368 198.3 33.7466 197.395 33.9131C196.491 34.0796 195.575 34.1993 194.666 34.28C193.758 34.3607 192.849 34.4006 191.945 34.3921C191.044 34.3896 190.143 34.3297 189.249 34.2129Z" fill="#EA5D39"/>
<path d="M203.349 23.0389L212.219 30.2508L211.383 22.2023L203.349 23.0389Z" fill="#EA5D39"/>
<path d="M32.3654 50.4544C34.899 48.6316 36.9626 46.2301 38.3853 43.449C39.808 40.6678 40.5488 37.587 40.5464 34.4618C40.5464 23.5832 31.7458 14.7643 20.8886 14.7643C10.0315 14.7643 1.22998 23.5832 1.22998 34.4618C1.22998 45.3404 10.0298 54.1593 20.8886 54.1593C22.8786 54.1611 24.8573 53.8601 26.7571 53.2666C29.485 56.8789 32.3849 58.5921 40.7439 56.3353C36.4114 55.3136 32.7715 53.349 32.3654 50.4544Z" fill="white"/>
<path d="M34.3992 57.9271C30.6329 57.9271 28.5018 56.4271 26.5437 53.9351C21.6793 55.3588 16.4593 54.907 11.9107 52.6687C7.36199 50.4303 3.81398 46.5674 1.96467 41.8399C0.115347 37.1124 0.0986064 31.8627 1.91774 27.1235C3.73687 22.3843 7.26017 18.4987 11.7945 16.2312C16.3288 13.9638 21.5458 13.4786 26.4191 14.8712C31.2924 16.2637 35.4693 19.4331 38.1279 23.7559C40.7864 28.0787 41.7343 33.2419 40.7849 38.2296C39.8356 43.2174 37.0578 47.6686 32.9979 50.7075C33.5396 52.8828 36.3811 54.7191 40.8814 55.7791L43.099 56.3023L40.8992 56.8968C38.2756 57.5993 36.159 57.9271 34.3992 57.9271ZM26.9718 52.5965L27.215 52.9193C28.7409 54.9357 30.065 55.9574 31.7925 56.4475C33.4938 56.93 35.6478 56.8841 38.4689 56.2929C37.0279 55.8139 35.769 55.2338 34.7662 54.5798C33.009 53.4331 32.0087 52.0725 31.7925 50.5351L31.7442 50.1954L32.0257 49.9915C34.4803 48.2171 36.4801 45.8848 37.861 43.186C39.2418 40.4872 39.9644 37.4988 39.9693 34.4661C39.9693 23.923 31.4077 15.3444 20.8854 15.3444C10.363 15.3444 1.80735 23.9187 1.80735 34.4618C1.80735 45.0049 10.369 53.5835 20.8913 53.5835C22.8232 53.5852 24.7442 53.2931 26.5886 52.7171L26.9718 52.5965Z" fill="#CCCCCC"/>
<path d="M20.8611 47.3374C18.5254 47.3378 16.2336 46.7008 14.2319 45.4949C12.2301 44.289 10.5938 42.5597 9.49869 40.4925C8.40355 38.4254 7.89088 36.0984 8.0157 33.7614C8.14051 31.4244 8.89811 29.1656 10.2072 27.2273C11.5162 25.2891 13.3274 23.7446 15.4461 22.7597C17.5649 21.7747 19.9114 21.3864 22.2338 21.6366C24.5561 21.8867 26.7667 22.7657 28.6281 24.1794C30.4896 25.593 31.9318 27.4878 32.7999 29.6606C33.578 31.616 33.8667 33.7326 33.6408 35.8255C33.4148 37.9185 32.6811 39.9242 31.5036 41.6677C30.326 43.4111 28.7405 44.8393 26.8855 45.8276C25.0304 46.8159 22.9621 47.3343 20.8611 47.3374ZM20.8611 22.8173C18.3769 22.815 15.9576 23.6114 13.9589 25.0895C11.9601 26.5676 10.4875 28.6492 9.7574 31.0284C9.02734 33.4075 9.07844 35.9586 9.90317 38.3065C10.7279 40.6544 12.2827 42.6752 14.3391 44.0717C16.3954 45.4682 18.8446 46.1668 21.3267 46.0647C23.8088 45.9625 26.1926 45.0651 28.1277 43.5044C30.0629 41.9436 31.4471 39.8019 32.0769 37.3942C32.7068 34.9864 32.5489 32.4397 31.6267 30.1286C30.7637 27.9737 29.2777 26.1264 27.3595 24.8236C25.4413 23.5209 23.1784 22.8222 20.8611 22.8173Z" fill="#2291F2"/>
<path d="M24.5885 46.6076C23.3035 46.6076 21.8293 45.7999 20.3298 44.2506C18.5361 42.3973 16.8636 39.6641 15.62 36.5495C14.3765 33.4349 13.7042 30.2999 13.7271 27.7162C13.7509 24.9422 14.5884 23.0846 16.0854 22.4841C17.5824 21.8836 19.4677 22.654 21.3953 24.6415C23.189 26.4948 24.8615 29.228 26.1051 32.3435C27.3486 35.4589 28.0208 38.5922 27.9988 41.1768C27.9742 43.9508 27.1367 45.8084 25.6397 46.4089C25.3053 46.542 24.9484 46.6095 24.5885 46.6076ZM17.1425 23.5467C16.9395 23.5442 16.738 23.5811 16.5491 23.6554C15.5709 24.047 14.9995 25.5325 14.98 27.7323C14.9588 30.1538 15.5997 33.1198 16.7839 36.0849C17.9681 39.05 19.5465 41.6389 21.2292 43.3775C22.755 44.9548 24.1918 45.6342 25.1701 45.2461C26.1483 44.8579 26.7196 43.3699 26.7383 41.1692C26.7595 38.7476 26.1195 35.7817 24.9353 32.8166C23.7485 29.8523 22.1726 27.2626 20.49 25.524C19.2498 24.2355 18.0664 23.5467 17.1425 23.5467Z" fill="#2291F2"/>
<path d="M9.72876 30.2212H9.63044L8.68188 30.2144L9.05826 29.3421C10.4044 26.2161 12.9309 23.7512 16.0855 22.4862C19.2401 21.2212 22.7663 21.259 25.8931 22.5913L26.7654 22.9634L26.0872 23.6233C24.2385 25.4129 21.5149 27.0828 18.42 28.3237C15.3616 29.5485 12.2811 30.2212 9.72876 30.2212ZM20.8639 22.8173C18.7695 22.8206 16.7149 23.3906 14.917 24.467C13.1191 25.5434 11.6446 27.0862 10.6493 28.9327C12.8533 28.7951 15.4031 28.1768 17.9504 27.155C20.4976 26.1332 22.7694 24.8184 24.4588 23.3957C23.2987 23.0133 22.0852 22.8181 20.8639 22.8173Z" fill="#2291F2"/>
<path d="M20.8611 47.3374C19.1322 47.3358 17.4214 46.9839 15.8317 46.3029L14.9595 45.9308L15.6376 45.2709C17.4873 43.4804 20.21 41.8114 23.3049 40.5705C26.3998 39.3296 29.5201 38.6578 32.0912 38.673L33.0397 38.6798L32.6642 39.5521C31.6674 41.8614 30.0189 43.8284 27.9214 45.2116C25.8238 46.5947 23.3687 47.3336 20.8577 47.3374H20.8611ZM17.266 45.4994C19.8506 46.3433 22.6489 46.2513 25.1727 45.2394C27.6965 44.2275 29.7856 42.3599 31.0756 39.9624C28.8717 40.1 26.3227 40.7183 23.7754 41.7401C21.2281 42.7619 18.9563 44.0767 17.266 45.4994Z" fill="#2291F2"/>
<path d="M31.9831 29.3116L9.2749 38.4169L9.74196 39.5863L32.4502 30.481L31.9831 29.3116Z" fill="#2291F2"/>
</svg>
