<svg width="24" height="24" viewBox="0 0 24 24" fill="none" xmlns="http://www.w3.org/2000/svg">
<path fill-rule="evenodd" clip-rule="evenodd" d="M21 7.64985C21 7.25467 20.7673 6.89654 20.4061 6.73604L17.1608 5.29365L9.6 9.49407V13.9057L7.6 12.9057V8.31726L14.8728 4.2768L12.4061 3.18049C12.1476 3.06557 11.8524 3.06557 11.5939 3.18049L3.59386 6.73604C3.23273 6.89654 3 7.25467 3 7.64985V16.4116C3 16.7747 3.19689 17.1094 3.51436 17.2857L11.5144 21.7302C11.8164 21.898 12.1836 21.898 12.4856 21.7302L20.4856 17.2857C20.8031 17.1094 21 16.7747 21 16.4116V7.64985Z" fill="#F9713D"/>
</svg>
