<svg width="24" height="24" viewBox="0 0 24 24" fill="none" xmlns="http://www.w3.org/2000/svg">
<path d="M12 4.56205L7.76825 9.64018C7.41468 10.0645 6.78412 10.1218 6.35984 9.76822C5.93556 9.41466 5.87824 8.78409 6.2318 8.35982L11.2318 2.35982C11.6316 1.88006 12.3685 1.88006 12.7682 2.35982L17.7682 8.35982C18.1218 8.78409 18.0645 9.41466 17.6402 9.76822C17.2159 10.1218 16.5854 10.0645 16.2318 9.64018L12 4.56205Z" fill="#F9713D"/>
<path fill-rule="evenodd" clip-rule="evenodd" d="M3.50006 9C2.78648 9 2.30253 9.72593 2.57699 10.3846L6.23083 19.1538C6.69664 20.2718 7.78896 21 9.00006 21H15.0001C16.2112 21 17.3035 20.2718 17.7693 19.1538L21.4231 10.3846C21.6976 9.72593 21.2136 9 20.5001 9H3.50006ZM14.0001 15C14.0001 16.1046 13.1046 17 12.0001 17C10.8955 17 10.0001 16.1046 10.0001 15C10.0001 13.8954 10.8955 13 12.0001 13C13.1046 13 14.0001 13.8954 14.0001 15Z" fill="#F9713D"/>
</svg>
