<svg width="158" height="42" viewBox="0 0 158 42" fill="none" xmlns="http://www.w3.org/2000/svg">
<path fill-rule="evenodd" clip-rule="evenodd" d="M22.6765 1H128.324C133.117 1 137 4.73419 137 9.34241V22.3749C137 26.9831 133.117 30.7173 128.324 30.7173H127.735C127.925 32.8633 128.699 35.7198 131.352 36.936C131.352 36.936 123.643 38.0778 122.18 30.7173H22.6765C17.8861 30.7173 14 26.9831 14 22.3749V9.34241C14 4.73419 17.8828 1 22.6765 1Z" fill="#E1E5FD"/>
<path d="M26.162 11.2H28.43V21H26.162V11.2ZM38.5446 13.356C39.4779 13.356 40.2293 13.636 40.7986 14.196C41.3773 14.756 41.6666 15.5867 41.6666 16.688V21H39.4826V17.024C39.4826 16.4267 39.3519 15.9833 39.0906 15.694C38.8293 15.3953 38.4513 15.246 37.9566 15.246C37.4059 15.246 36.9673 15.4187 36.6406 15.764C36.3139 16.1 36.1506 16.604 36.1506 17.276V21H33.9666V13.468H36.0526V14.35C36.3419 14.0327 36.7013 13.79 37.1306 13.622C37.5599 13.4447 38.0313 13.356 38.5446 13.356ZM50.8063 17.262C50.8063 17.29 50.7923 17.486 50.7643 17.85H45.0663C45.169 18.3167 45.4116 18.6853 45.7943 18.956C46.177 19.2267 46.653 19.362 47.2223 19.362C47.6143 19.362 47.9596 19.306 48.2583 19.194C48.5663 19.0727 48.851 18.886 49.1123 18.634L50.2743 19.894C49.565 20.706 48.529 21.112 47.1663 21.112C46.317 21.112 45.5656 20.9487 44.9123 20.622C44.259 20.286 43.755 19.824 43.4003 19.236C43.0456 18.648 42.8683 17.9807 42.8683 17.234C42.8683 16.4967 43.041 15.834 43.3863 15.246C43.741 14.6487 44.2216 14.1867 44.8283 13.86C45.4443 13.524 46.1303 13.356 46.8863 13.356C47.6236 13.356 48.291 13.5147 48.8883 13.832C49.4856 14.1493 49.9523 14.6067 50.2883 15.204C50.6336 15.792 50.8063 16.478 50.8063 17.262ZM46.9003 15.008C46.4056 15.008 45.9903 15.148 45.6543 15.428C45.3183 15.708 45.113 16.0907 45.0383 16.576H48.7483C48.6736 16.1 48.4683 15.722 48.1323 15.442C47.7963 15.1527 47.3856 15.008 46.9003 15.008ZM59.3383 17.262C59.3383 17.29 59.3243 17.486 59.2963 17.85H53.5983C53.701 18.3167 53.9437 18.6853 54.3263 18.956C54.709 19.2267 55.185 19.362 55.7543 19.362C56.1463 19.362 56.4917 19.306 56.7903 19.194C57.0983 19.0727 57.383 18.886 57.6443 18.634L58.8063 19.894C58.097 20.706 57.061 21.112 55.6983 21.112C54.849 21.112 54.0977 20.9487 53.4443 20.622C52.791 20.286 52.287 19.824 51.9323 19.236C51.5777 18.648 51.4003 17.9807 51.4003 17.234C51.4003 16.4967 51.573 15.834 51.9183 15.246C52.273 14.6487 52.7537 14.1867 53.3603 13.86C53.9763 13.524 54.6623 13.356 55.4183 13.356C56.1557 13.356 56.823 13.5147 57.4203 13.832C58.0177 14.1493 58.4843 14.6067 58.8203 15.204C59.1657 15.792 59.3383 16.478 59.3383 17.262ZM55.4323 15.008C54.9377 15.008 54.5223 15.148 54.1863 15.428C53.8503 15.708 53.645 16.0907 53.5703 16.576H57.2803C57.2057 16.1 57.0003 15.722 56.6643 15.442C56.3283 15.1527 55.9177 15.008 55.4323 15.008ZM68.1644 10.612V21H66.0784V20.132C65.537 20.7853 64.753 21.112 63.7264 21.112C63.017 21.112 62.373 20.9533 61.7944 20.636C61.225 20.3187 60.777 19.866 60.4504 19.278C60.1237 18.69 59.9604 18.0087 59.9604 17.234C59.9604 16.4593 60.1237 15.778 60.4504 15.19C60.777 14.602 61.225 14.1493 61.7944 13.832C62.373 13.5147 63.017 13.356 63.7264 13.356C64.6877 13.356 65.439 13.6593 65.9804 14.266V10.612H68.1644ZM64.1044 19.32C64.655 19.32 65.1124 19.1333 65.4764 18.76C65.8404 18.3773 66.0224 17.8687 66.0224 17.234C66.0224 16.5993 65.8404 16.0953 65.4764 15.722C65.1124 15.3393 64.655 15.148 64.1044 15.148C63.5444 15.148 63.0824 15.3393 62.7184 15.722C62.3544 16.0953 62.1724 16.5993 62.1724 17.234C62.1724 17.8687 62.3544 18.3773 62.7184 18.76C63.0824 19.1333 63.5444 19.32 64.1044 19.32ZM78.0026 13.356C78.7026 13.356 79.3372 13.5193 79.9066 13.846C80.4852 14.1633 80.9379 14.616 81.2646 15.204C81.5912 15.7827 81.7546 16.4593 81.7546 17.234C81.7546 18.0087 81.5912 18.69 81.2646 19.278C80.9379 19.8567 80.4852 20.3093 79.9066 20.636C79.3372 20.9533 78.7026 21.112 78.0026 21.112C77.0412 21.112 76.2852 20.8087 75.7346 20.202V23.716H73.5506V13.468H75.6366V14.336C76.1779 13.6827 76.9666 13.356 78.0026 13.356ZM77.6246 19.32C78.1846 19.32 78.6419 19.1333 78.9966 18.76C79.3606 18.3773 79.5426 17.8687 79.5426 17.234C79.5426 16.5993 79.3606 16.0953 78.9966 15.722C78.6419 15.3393 78.1846 15.148 77.6246 15.148C77.0646 15.148 76.6026 15.3393 76.2386 15.722C75.8839 16.0953 75.7066 16.5993 75.7066 17.234C75.7066 17.8687 75.8839 18.3773 76.2386 18.76C76.6026 19.1333 77.0646 19.32 77.6246 19.32ZM85.0026 14.462C85.2639 14.098 85.6139 13.8227 86.0526 13.636C86.5006 13.4493 87.0139 13.356 87.5926 13.356V15.372C87.3499 15.3533 87.1866 15.344 87.1026 15.344C86.4773 15.344 85.9873 15.5213 85.6326 15.876C85.2779 16.2213 85.1006 16.744 85.1006 17.444V21H82.9166V13.468H85.0026V14.462ZM88.5912 13.468H90.7752V21H88.5912V13.468ZM89.6832 12.418C89.2819 12.418 88.9552 12.3013 88.7032 12.068C88.4512 11.8347 88.3252 11.5453 88.3252 11.2C88.3252 10.8547 88.4512 10.5653 88.7032 10.332C88.9552 10.0987 89.2819 9.982 89.6832 9.982C90.0845 9.982 90.4112 10.094 90.6632 10.318C90.9152 10.542 91.0412 10.822 91.0412 11.158C91.0412 11.522 90.9152 11.8253 90.6632 12.068C90.4112 12.3013 90.0845 12.418 89.6832 12.418ZM97.0801 13.356C98.0135 13.356 98.7648 13.636 99.3341 14.196C99.9128 14.756 100.202 15.5867 100.202 16.688V21H98.0181V17.024C98.0181 16.4267 97.8875 15.9833 97.6261 15.694C97.3648 15.3953 96.9868 15.246 96.4921 15.246C95.9415 15.246 95.5028 15.4187 95.1761 15.764C94.8495 16.1 94.6861 16.604 94.6861 17.276V21H92.5021V13.468H94.5881V14.35C94.8775 14.0327 95.2368 13.79 95.6661 13.622C96.0955 13.4447 96.5668 13.356 97.0801 13.356ZM106.74 20.636C106.525 20.7947 106.259 20.916 105.942 21C105.634 21.0747 105.307 21.112 104.962 21.112C104.066 21.112 103.37 20.8833 102.876 20.426C102.39 19.9687 102.148 19.2967 102.148 18.41V15.316H100.986V13.636H102.148V11.802H104.332V13.636H106.208V15.316H104.332V18.382C104.332 18.6993 104.411 18.9467 104.57 19.124C104.738 19.292 104.971 19.376 105.27 19.376C105.615 19.376 105.909 19.2827 106.152 19.096L106.74 20.636ZM107.666 13.468H109.85V21H107.666V13.468ZM108.758 12.418C108.356 12.418 108.03 12.3013 107.778 12.068C107.526 11.8347 107.4 11.5453 107.4 11.2C107.4 10.8547 107.526 10.5653 107.778 10.332C108.03 10.0987 108.356 9.982 108.758 9.982C109.159 9.982 109.486 10.094 109.738 10.318C109.99 10.542 110.116 10.822 110.116 11.158C110.116 11.522 109.99 11.8253 109.738 12.068C109.486 12.3013 109.159 12.418 108.758 12.418ZM116.155 13.356C117.088 13.356 117.839 13.636 118.409 14.196C118.987 14.756 119.277 15.5867 119.277 16.688V21H117.093V17.024C117.093 16.4267 116.962 15.9833 116.701 15.694C116.439 15.3953 116.061 15.246 115.567 15.246C115.016 15.246 114.577 15.4187 114.251 15.764C113.924 16.1 113.761 16.604 113.761 17.276V21H111.577V13.468H113.663V14.35C113.952 14.0327 114.311 13.79 114.741 13.622C115.17 13.4447 115.641 13.356 116.155 13.356ZM128.808 13.468V19.74C128.808 21.1213 128.449 22.148 127.73 22.82C127.012 23.492 125.962 23.828 124.58 23.828C123.852 23.828 123.162 23.7393 122.508 23.562C121.855 23.3847 121.314 23.128 120.884 22.792L121.752 21.224C122.07 21.4853 122.471 21.6907 122.956 21.84C123.442 21.9987 123.927 22.078 124.412 22.078C125.168 22.078 125.724 21.9053 126.078 21.56C126.442 21.224 126.624 20.7107 126.624 20.02V19.698C126.055 20.3233 125.262 20.636 124.244 20.636C123.554 20.636 122.919 20.4867 122.34 20.188C121.771 19.88 121.318 19.4507 120.982 18.9C120.646 18.3493 120.478 17.7147 120.478 16.996C120.478 16.2773 120.646 15.6427 120.982 15.092C121.318 14.5413 121.771 14.1167 122.34 13.818C122.919 13.51 123.554 13.356 124.244 13.356C125.336 13.356 126.167 13.7153 126.736 14.434V13.468H128.808ZM124.678 18.844C125.257 18.844 125.728 18.676 126.092 18.34C126.466 17.9947 126.652 17.5467 126.652 16.996C126.652 16.4453 126.466 16.002 126.092 15.666C125.728 15.3207 125.257 15.148 124.678 15.148C124.1 15.148 123.624 15.3207 123.25 15.666C122.877 16.002 122.69 16.4453 122.69 16.996C122.69 17.5467 122.877 17.9947 123.25 18.34C123.624 18.676 124.1 18.844 124.678 18.844ZM131.367 21.112C130.985 21.112 130.663 20.9813 130.401 20.72C130.14 20.4587 130.009 20.132 130.009 19.74C130.009 19.3387 130.14 19.0167 130.401 18.774C130.663 18.522 130.985 18.396 131.367 18.396C131.75 18.396 132.072 18.522 132.333 18.774C132.595 19.0167 132.725 19.3387 132.725 19.74C132.725 20.132 132.595 20.4587 132.333 20.72C132.072 20.9813 131.75 21.112 131.367 21.112Z" fill="#434343"/>
</svg>
