<svg width="186" height="47" viewBox="0 0 186 47" fill="none" xmlns="http://www.w3.org/2000/svg">
<g clip-path="url(#clip0)">
<path d="M4.12003 4.684e-09H39.29V12.53C39.2874 13.1807 39.027 13.8038 38.566 14.263C38.1049 14.7222 37.4807 14.98 36.83 14.98H4.12003C3.58423 14.9787 3.05343 15.0829 2.55791 15.2867C2.0624 15.4906 1.61189 15.79 1.2321 16.1679C0.852306 16.5459 0.550673 16.9949 0.344421 17.4894C0.13817 17.9839 0.0313409 18.5142 0.0300293 19.05V4.05C0.0405705 2.97221 0.476128 1.94215 1.24201 1.18375C2.0079 0.42536 3.04219 -5.15429e-05 4.12003 4.684e-09Z" fill="url(#paint0_linear)"/>
<path d="M35.17 46.36H0V32.98C0.00264514 32.3293 0.262992 31.7062 0.724045 31.247C1.1851 30.7878 1.8093 30.53 2.46 30.53H35.17C35.7066 30.5313 36.2383 30.4268 36.7344 30.2223C37.2306 30.0179 37.6815 29.7175 38.0615 29.3386C38.4414 28.9596 38.7428 28.5093 38.9485 28.0137C39.1541 27.518 39.26 26.9866 39.26 26.45V42.28C39.2574 43.363 38.8253 44.4008 38.0585 45.1656C37.2918 45.9305 36.253 46.36 35.17 46.36Z" fill="url(#paint1_linear)"/>
<path d="M35.2 38.38L4.12003 24.85C2.05003 23.85 0.0300293 23.02 0.0300293 20.77V4.08002C0.0300293 6.33002 1.95003 7.20002 4.12003 8.16002L35.2 21.68C37.2 22.68 39.29 23.51 39.29 25.76V42.45C39.29 40.2 37.07 39.33 35.2 38.38Z" fill="url(#paint2_linear)"/>
</g>
<path d="M76.43 30.12C75.39 30.12 74.39 29.9533 73.43 29.62C72.4834 29.2867 71.75 28.8467 71.23 28.3L71.81 27.16C72.3167 27.6667 72.99 28.08 73.83 28.4C74.67 28.7067 75.5367 28.86 76.43 28.86C77.6834 28.86 78.6234 28.6333 79.25 28.18C79.8767 27.7133 80.19 27.1133 80.19 26.38C80.19 25.82 80.0167 25.3733 79.67 25.04C79.3367 24.7067 78.9234 24.4533 78.43 24.28C77.9367 24.0933 77.25 23.8933 76.37 23.68C75.3167 23.4133 74.4767 23.16 73.85 22.92C73.2234 22.6667 72.6834 22.2867 72.23 21.78C71.79 21.2733 71.57 20.5867 71.57 19.72C71.57 19.0133 71.7567 18.3733 72.13 17.8C72.5034 17.2133 73.0767 16.7467 73.85 16.4C74.6234 16.0533 75.5834 15.88 76.73 15.88C77.53 15.88 78.31 15.9933 79.07 16.22C79.8434 16.4333 80.51 16.7333 81.07 17.12L80.57 18.3C79.9834 17.9133 79.3567 17.6267 78.69 17.44C78.0234 17.24 77.37 17.14 76.73 17.14C75.5034 17.14 74.5767 17.38 73.95 17.86C73.3367 18.3267 73.03 18.9333 73.03 19.68C73.03 20.24 73.1967 20.6933 73.53 21.04C73.8767 21.3733 74.3034 21.6333 74.81 21.82C75.33 21.9933 76.0234 22.1867 76.89 22.4C77.9167 22.6533 78.7434 22.9067 79.37 23.16C80.01 23.4 80.55 23.7733 80.99 24.28C81.43 24.7733 81.65 25.4467 81.65 26.3C81.65 27.0067 81.4567 27.6533 81.07 28.24C80.6967 28.8133 80.1167 29.2733 79.33 29.62C78.5434 29.9533 77.5767 30.12 76.43 30.12ZM84.5747 19.48H85.9947V30H84.5747V19.48ZM85.2947 17.18C85.0014 17.18 84.7547 17.08 84.5547 16.88C84.3547 16.68 84.2547 16.44 84.2547 16.16C84.2547 15.8933 84.3547 15.66 84.5547 15.46C84.7547 15.26 85.0014 15.16 85.2947 15.16C85.5881 15.16 85.8347 15.26 86.0347 15.46C86.2347 15.6467 86.3347 15.8733 86.3347 16.14C86.3347 16.4333 86.2347 16.68 86.0347 16.88C85.8347 17.08 85.5881 17.18 85.2947 17.18ZM103.066 19.4C104.386 19.4 105.419 19.78 106.166 20.54C106.926 21.3 107.306 22.42 107.306 23.9V30H105.886V24.04C105.886 22.9467 105.619 22.1133 105.086 21.54C104.566 20.9667 103.826 20.68 102.866 20.68C101.772 20.68 100.912 21.02 100.286 21.7C99.6592 22.3667 99.3458 23.2933 99.3458 24.48V30H97.9258V24.04C97.9258 22.9467 97.6592 22.1133 97.1258 21.54C96.6058 20.9667 95.8592 20.68 94.8858 20.68C93.8058 20.68 92.9458 21.02 92.3058 21.7C91.6792 22.3667 91.3658 23.2933 91.3658 24.48V30H89.9458V19.48H91.3058V21.4C91.6792 20.76 92.1992 20.2667 92.8658 19.92C93.5325 19.5733 94.2992 19.4 95.1658 19.4C96.0458 19.4 96.8058 19.5867 97.4458 19.96C98.0992 20.3333 98.5858 20.8867 98.9058 21.62C99.2925 20.9267 99.8458 20.3867 100.566 20C101.299 19.6 102.132 19.4 103.066 19.4ZM116.577 19.4C117.563 19.4 118.457 19.6267 119.257 20.08C120.057 20.52 120.683 21.1467 121.137 21.96C121.59 22.7733 121.817 23.7 121.817 24.74C121.817 25.7933 121.59 26.7267 121.137 27.54C120.683 28.3533 120.057 28.9867 119.257 29.44C118.47 29.88 117.577 30.1 116.577 30.1C115.723 30.1 114.95 29.9267 114.257 29.58C113.577 29.22 113.017 28.7 112.577 28.02V33.88H111.157V19.48H112.517V21.56C112.943 20.8667 113.503 20.3333 114.197 19.96C114.903 19.5867 115.697 19.4 116.577 19.4ZM116.477 28.84C117.21 28.84 117.877 28.6733 118.477 28.34C119.077 27.9933 119.543 27.5067 119.877 26.88C120.223 26.2533 120.397 25.54 120.397 24.74C120.397 23.94 120.223 23.2333 119.877 22.62C119.543 21.9933 119.077 21.5067 118.477 21.16C117.877 20.8133 117.21 20.64 116.477 20.64C115.73 20.64 115.057 20.8133 114.457 21.16C113.87 21.5067 113.403 21.9933 113.057 22.62C112.723 23.2333 112.557 23.94 112.557 24.74C112.557 25.54 112.723 26.2533 113.057 26.88C113.403 27.5067 113.87 27.9933 114.457 28.34C115.057 28.6733 115.73 28.84 116.477 28.84ZM124.711 15.16H126.131V30H124.711V15.16ZM139.243 25.18H130.443C130.523 26.2733 130.943 27.16 131.703 27.84C132.463 28.5067 133.423 28.84 134.583 28.84C135.236 28.84 135.836 28.7267 136.383 28.5C136.929 28.26 137.403 27.9133 137.803 27.46L138.603 28.38C138.136 28.94 137.549 29.3667 136.843 29.66C136.149 29.9533 135.383 30.1 134.543 30.1C133.463 30.1 132.503 29.8733 131.663 29.42C130.836 28.9533 130.189 28.3133 129.723 27.5C129.256 26.6867 129.023 25.7667 129.023 24.74C129.023 23.7133 129.243 22.7933 129.683 21.98C130.136 21.1667 130.749 20.5333 131.523 20.08C132.309 19.6267 133.189 19.4 134.163 19.4C135.136 19.4 136.009 19.6267 136.783 20.08C137.556 20.5333 138.163 21.1667 138.603 21.98C139.043 22.78 139.263 23.7 139.263 24.74L139.243 25.18ZM134.163 20.62C133.149 20.62 132.296 20.9467 131.603 21.6C130.923 22.24 130.536 23.08 130.443 24.12H137.903C137.809 23.08 137.416 22.24 136.723 21.6C136.043 20.9467 135.189 20.62 134.163 20.62Z" fill="#172FE0"/>
<path d="M142.453 16H148.153C149.633 16 150.94 16.3 152.073 16.9C153.206 17.4867 154.086 18.3133 154.713 19.38C155.34 20.4333 155.653 21.64 155.653 23C155.653 24.36 155.34 25.5733 154.713 26.64C154.086 27.6933 153.206 28.52 152.073 29.12C150.94 29.7067 149.633 30 148.153 30H142.453V16ZM148.073 28.72C149.3 28.72 150.373 28.48 151.293 28C152.213 27.5067 152.926 26.8333 153.433 25.98C153.94 25.1133 154.193 24.12 154.193 23C154.193 21.88 153.94 20.8933 153.433 20.04C152.926 19.1733 152.213 18.5 151.293 18.02C150.373 17.5267 149.3 17.28 148.073 17.28H143.933V28.72H148.073ZM162.976 30.1C161.963 30.1 161.05 29.8733 160.236 29.42C159.423 28.9533 158.783 28.3133 158.316 27.5C157.85 26.6867 157.616 25.7667 157.616 24.74C157.616 23.7133 157.85 22.7933 158.316 21.98C158.783 21.1667 159.423 20.5333 160.236 20.08C161.05 19.6267 161.963 19.4 162.976 19.4C163.99 19.4 164.903 19.6267 165.716 20.08C166.53 20.5333 167.163 21.1667 167.616 21.98C168.083 22.7933 168.316 23.7133 168.316 24.74C168.316 25.7667 168.083 26.6867 167.616 27.5C167.163 28.3133 166.53 28.9533 165.716 29.42C164.903 29.8733 163.99 30.1 162.976 30.1ZM162.976 28.84C163.723 28.84 164.39 28.6733 164.976 28.34C165.576 27.9933 166.043 27.5067 166.376 26.88C166.71 26.2533 166.876 25.54 166.876 24.74C166.876 23.94 166.71 23.2267 166.376 22.6C166.043 21.9733 165.576 21.4933 164.976 21.16C164.39 20.8133 163.723 20.64 162.976 20.64C162.23 20.64 161.556 20.8133 160.956 21.16C160.37 21.4933 159.903 21.9733 159.556 22.6C159.223 23.2267 159.056 23.94 159.056 24.74C159.056 25.54 159.223 26.2533 159.556 26.88C159.903 27.5067 160.37 27.9933 160.956 28.34C161.556 28.6733 162.23 28.84 162.976 28.84ZM175.575 30.1C174.535 30.1 173.602 29.8733 172.775 29.42C171.962 28.9667 171.322 28.3333 170.855 27.52C170.389 26.6933 170.155 25.7667 170.155 24.74C170.155 23.7133 170.389 22.7933 170.855 21.98C171.322 21.1667 171.962 20.5333 172.775 20.08C173.602 19.6267 174.535 19.4 175.575 19.4C176.482 19.4 177.289 19.58 177.995 19.94C178.715 20.2867 179.282 20.8 179.695 21.48L178.635 22.2C178.289 21.68 177.849 21.2933 177.315 21.04C176.782 20.7733 176.202 20.64 175.575 20.64C174.815 20.64 174.129 20.8133 173.515 21.16C172.915 21.4933 172.442 21.9733 172.095 22.6C171.762 23.2267 171.595 23.94 171.595 24.74C171.595 25.5533 171.762 26.2733 172.095 26.9C172.442 27.5133 172.915 27.9933 173.515 28.34C174.129 28.6733 174.815 28.84 175.575 28.84C176.202 28.84 176.782 28.7133 177.315 28.46C177.849 28.2067 178.289 27.82 178.635 27.3L179.695 28.02C179.282 28.7 178.715 29.22 177.995 29.58C177.275 29.9267 176.469 30.1 175.575 30.1Z" fill="#121A5B"/>
<path d="M182.625 30.1C182.332 30.1 182.078 29.9933 181.865 29.78C181.665 29.5667 181.565 29.3067 181.565 29C181.565 28.6933 181.665 28.44 181.865 28.24C182.078 28.0267 182.332 27.92 182.625 27.92C182.918 27.92 183.172 28.0267 183.385 28.24C183.598 28.44 183.705 28.6933 183.705 29C183.705 29.3067 183.598 29.5667 183.385 29.78C183.172 29.9933 182.918 30.1 182.625 30.1Z" fill="#172FE0"/>
<defs>
<linearGradient id="paint0_linear" x1="14.31" y1="17.35" x2="24.82" y2="-0.849999" gradientUnits="userSpaceOnUse">
<stop offset="0.07" stop-color="#341E6E"/>
<stop offset="0.87" stop-color="#7542F6"/>
<stop offset="0.89" stop-color="#7743FA"/>
</linearGradient>
<linearGradient id="paint1_linear" x1="13.78" y1="47.99" x2="30.11" y2="19.7" gradientUnits="userSpaceOnUse">
<stop stop-color="#7743FA"/>
<stop offset="0.44" stop-color="#341E6E"/>
</linearGradient>
<linearGradient id="paint2_linear" x1="39.1" y1="23.27" x2="-0.969971" y2="23.27" gradientUnits="userSpaceOnUse">
<stop stop-color="#C5B4F0"/>
<stop offset="0.04" stop-color="#B39BEF"/>
<stop offset="0.1" stop-color="#A081EE"/>
<stop offset="0.17" stop-color="#916DEE"/>
<stop offset="0.25" stop-color="#875FED"/>
<stop offset="0.34" stop-color="#8157ED"/>
<stop offset="0.49" stop-color="#7F54ED"/>
<stop offset="0.64" stop-color="#8157ED"/>
<stop offset="0.73" stop-color="#875FED"/>
<stop offset="0.8" stop-color="#916DEE"/>
<stop offset="0.87" stop-color="#A081EE"/>
<stop offset="0.93" stop-color="#B39BEF"/>
<stop offset="0.97" stop-color="#C5B4F0"/>
</linearGradient>
<clipPath id="clip0">
<rect width="39.29" height="46.36" fill="white"/>
</clipPath>
</defs>
</svg>
