<svg width="355" height="404" viewBox="0 0 355 404" fill="none" xmlns="http://www.w3.org/2000/svg">
<path fill-rule="evenodd" clip-rule="evenodd" d="M174.309 403.657L174.273 402.157L174.236 400.658C172.612 400.697 170.982 400.717 169.347 400.717C167.713 400.717 166.083 400.697 164.458 400.658L164.422 402.157L164.385 403.657C166.034 403.697 167.688 403.717 169.347 403.717C171.006 403.717 172.66 403.697 174.309 403.657ZM154.613 401.679L154.504 403.175C151.199 402.933 147.916 402.611 144.657 402.211L144.84 400.722L145.023 399.233C148.233 399.627 151.467 399.945 154.723 400.183L154.613 401.679ZM135.127 399.284L134.871 400.762C131.609 400.196 128.373 399.551 125.167 398.83L125.496 397.367L125.826 395.903C128.984 396.614 132.17 397.249 135.383 397.806L135.127 399.284ZM115.973 394.974L115.571 396.419C112.384 395.534 109.229 394.572 106.107 393.535L106.58 392.112L107.053 390.688C110.127 391.709 113.235 392.657 116.374 393.529L115.973 394.974ZM97.3403 388.786L96.7975 390.185C93.7161 388.989 90.6713 387.719 87.6654 386.377L88.2767 385.007L88.8881 383.637C91.849 384.959 94.8481 386.21 97.8831 387.388L97.3403 388.786ZM79.4109 380.784L78.7326 382.122C75.7863 380.628 72.8816 379.064 70.0206 377.432L70.7639 376.129L71.5073 374.826C74.3256 376.434 77.187 377.975 80.0892 379.446L79.4109 380.784ZM62.3562 371.054L61.5497 372.318C58.766 370.543 56.0287 368.702 53.3399 366.796L54.2073 365.572L55.0747 364.348C57.7236 366.226 60.4204 368.04 63.1627 369.789L62.3562 371.054ZM46.3361 359.698L45.41 360.878C42.8143 358.841 40.2696 356.741 37.7783 354.581L38.7609 353.448L39.7435 352.314C42.1981 354.442 44.7051 356.511 47.2623 358.519L46.3361 359.698ZM31.4992 346.835L30.4625 347.919C28.0785 345.639 25.7501 343.302 23.4797 340.909L24.5678 339.876L25.656 338.844C27.893 341.202 30.187 343.505 32.5358 345.751L31.4992 346.835ZM17.9831 332.589L16.8461 333.567C14.6958 331.068 12.6055 328.515 10.5775 325.912L11.7609 324.99L12.9443 324.068C14.9423 326.633 17.0017 329.148 19.1202 331.611L17.9831 332.589ZM5.91612 317.097L4.68925 317.96C3.50954 316.283 2.35467 314.587 1.22518 312.873L4.62778 312.573C5.4529 313.803 6.29137 315.024 7.14299 316.234L5.91612 317.097ZM0.503906 91.9461C1.86179 89.8561 3.25722 87.7927 4.68925 85.7569L5.91612 86.6199L7.14299 87.4829C6.18423 88.8459 5.24212 90.2214 4.31696 91.6092L0.503906 91.9461ZM11.7609 78.727L10.5775 77.8052C12.6055 75.2017 14.6958 72.6491 16.8461 70.1497L17.9831 71.128L19.1202 72.1062C17.0017 74.5687 14.9423 77.0836 12.9443 79.6487L11.7609 78.727ZM24.5678 63.8407L23.4797 62.8082C25.7501 60.4152 28.0785 58.0777 30.4625 55.7982L31.4992 56.8823L32.5358 57.9665C30.187 60.2124 27.893 62.5153 25.656 64.8731L24.5678 63.8407ZM38.7609 50.2696L37.7783 49.1363C40.2696 46.9762 42.8143 44.8763 45.41 42.8387L46.3361 44.0186L47.2623 45.1985C44.7051 47.2059 42.1981 49.2748 39.7435 51.4029L38.7609 50.2696ZM54.2073 38.145L53.3399 36.9212C56.0287 35.0153 58.766 33.1737 61.5497 31.3987L62.3562 32.6635L63.1627 33.9282C60.4203 35.6768 57.7236 37.491 55.0747 39.3687L54.2073 38.145ZM70.7639 27.5883L70.0206 26.2855C72.8816 24.6531 75.7863 23.0889 78.7326 21.5952L79.4109 22.9331L80.0892 24.2709C77.187 25.7423 74.3256 27.2831 71.5073 28.8912L70.7639 27.5883ZM88.2767 18.7101L87.6653 17.3403C90.6713 15.9986 93.7161 14.7286 96.7975 13.5325L97.3403 14.9308L97.8831 16.3292C94.848 17.5073 91.849 18.7582 88.8881 20.0798L88.2767 18.7101ZM106.58 11.6056L106.107 10.182C109.229 9.1453 112.384 8.18319 115.571 7.2978L115.973 8.74306L116.374 10.1883C113.235 11.0604 110.127 12.008 107.053 13.0291L106.58 11.6056ZM125.496 6.35055L125.167 4.88713C128.373 4.16577 131.609 3.52123 134.871 2.95553L135.127 4.43347L135.383 5.91141C132.17 6.46861 128.984 7.10347 125.826 7.81397L125.496 6.35055ZM144.84 2.99537L144.657 1.50657C147.916 1.10607 151.199 0.783809 154.504 0.54172L154.613 2.03771L154.723 3.5337C151.467 3.77219 148.233 4.08966 145.023 4.48417L144.84 2.99537ZM169.347 0C167.688 0 166.034 0.0201685 164.385 0.0602729L164.422 1.55983L164.458 3.05939C166.083 3.01987 167.713 3 169.347 3C170.982 3 172.612 3.01987 174.236 3.05939L174.273 1.55983L174.309 0.0602725C172.66 0.0201684 171.006 0 169.347 0ZM184.081 2.03771L184.191 0.541719C187.496 0.783808 190.779 1.10607 194.037 1.50657L193.854 2.99537L193.671 4.48417C190.461 4.08966 187.228 3.77219 183.972 3.5337L184.081 2.03771ZM203.568 4.43347L203.824 2.95553C207.086 3.52122 210.321 4.16577 213.527 4.88712L213.198 6.35054L212.869 7.81396C209.711 7.10347 206.524 6.46861 203.311 5.91141L203.568 4.43347ZM222.722 8.74305L223.123 7.29779C226.31 8.18318 229.466 9.1453 232.587 10.182L232.115 11.6056L231.642 13.0291C228.567 12.008 225.459 11.0604 222.32 10.1883L222.722 8.74305ZM241.354 14.9308L241.897 13.5325C244.978 14.7286 248.023 15.9986 251.029 17.3403L250.418 18.7101L249.806 20.0798C246.846 18.7582 243.846 17.5073 240.811 16.3292L241.354 14.9308ZM259.284 22.933L259.962 21.5952C262.908 23.0889 265.813 24.6531 268.674 26.2855L267.931 27.5883L267.187 28.8912C264.369 27.2831 261.508 25.7423 258.605 24.2709L259.284 22.933ZM276.338 32.6634L277.145 31.3987C279.929 33.1737 282.666 35.0153 285.355 36.9212L284.487 38.145L283.62 39.3687C280.971 37.491 278.274 35.6768 275.532 33.9282L276.338 32.6634ZM292.358 44.0186L293.285 42.8387C295.88 44.8763 298.425 46.9762 300.916 49.1363L299.934 50.2696L298.951 51.4029C296.496 49.2748 293.989 47.2059 291.432 45.1985L292.358 44.0186ZM307.195 56.8823L308.232 55.7982C310.616 58.0777 312.944 60.4152 315.215 62.8082L314.127 63.8407L313.665 64.2788L312.565 64.3759C310.478 62.1914 308.342 60.0543 306.159 57.9665L307.195 56.8823ZM350.9 281.98L354.303 281.679C354.031 282.312 353.755 282.943 353.476 283.572L352.105 282.964L350.733 282.356C350.789 282.231 350.844 282.106 350.9 281.98ZM347.907 291.842L349.247 292.516C347.762 295.467 346.207 298.377 344.584 301.243L343.278 300.504L341.973 299.765C343.572 296.941 345.104 294.075 346.567 291.168L347.907 291.842ZM338.231 308.929L339.499 309.731C337.733 312.521 335.901 315.265 334.005 317.96L332.778 317.097L331.552 316.234C333.42 313.579 335.224 310.875 336.964 308.127L338.231 308.929ZM326.934 324.99L328.117 325.912C326.089 328.515 323.999 331.068 321.848 333.567L320.711 332.589L319.574 331.611C321.693 329.148 323.752 326.633 325.75 324.068L326.934 324.99ZM314.127 339.876L315.215 340.909C312.944 343.302 310.616 345.639 308.232 347.919L307.195 346.835L306.159 345.751C308.508 343.505 310.802 341.202 313.039 338.844L314.127 339.876ZM299.934 353.448L300.916 354.581C298.425 356.741 295.88 358.841 293.285 360.878L292.358 359.698L291.432 358.519C293.989 356.511 296.496 354.442 298.951 352.314L299.934 353.448ZM284.487 365.572L285.355 366.796C282.666 368.702 279.929 370.543 277.145 372.318L276.338 371.054L275.532 369.789C278.274 368.04 280.971 366.226 283.62 364.348L284.487 365.572ZM267.931 376.129L268.674 377.432C265.813 379.064 262.908 380.628 259.962 382.122L259.284 380.784L258.605 379.446C261.508 377.975 264.369 376.434 267.187 374.826L267.931 376.129ZM250.418 385.007L251.029 386.377C248.023 387.719 244.978 388.988 241.897 390.185L241.354 388.786L240.811 387.388C243.846 386.21 246.846 384.959 249.806 383.637L250.418 385.007ZM232.115 392.112L232.587 393.535C229.466 394.572 226.31 395.534 223.123 396.419L222.722 394.974L222.32 393.529C225.459 392.657 228.567 391.709 231.642 390.688L232.115 392.112ZM213.198 397.367L213.527 398.83C210.321 399.551 207.086 400.196 203.824 400.762L203.568 399.284L203.311 397.806C206.524 397.249 209.711 396.614 212.869 395.903L213.198 397.367ZM193.854 400.722L194.037 402.211C190.779 402.611 187.496 402.933 184.191 403.175L184.081 401.679L183.972 400.183C187.228 399.945 190.461 399.627 193.671 399.233L193.854 400.722Z" fill="#D8D8D8"/>
</svg>
