<svg width="45" height="58" viewBox="0 0 45 58" fill="none" xmlns="http://www.w3.org/2000/svg">
<path d="M30.652 57.1691C37.5985 57.1691 43.2297 54.5093 43.2297 51.2284C43.2297 47.9474 37.5985 45.2877 30.652 45.2877C23.7055 45.2877 18.0742 47.9474 18.0742 51.2284C18.0742 54.5093 23.7055 57.1691 30.652 57.1691Z" fill="#DADBEF"/>
<path d="M30.1648 39.0826C28.7552 29.0577 26.3156 19.2449 23.3338 9.6443C23.3338 9.6443 23.2254 9.27301 23.6049 9.27301C23.9301 9.37909 23.9301 9.90951 24.0928 10.2808C26.5867 18.5554 28.7552 26.936 30.1648 35.4227C30.219 30.3307 30.8696 25.2386 32.5502 20.4118C33.5261 17.6536 34.7188 14.7894 36.9958 12.8799C36.9958 12.8799 36.9958 12.7738 37.2127 12.8268C37.6464 12.9329 37.3211 13.2512 37.1043 13.5164C34.9357 15.638 33.6888 18.6084 32.7129 21.5788C30.9238 27.2012 30.4901 33.1949 30.707 39.1356C30.978 41.0452 31.1949 42.9547 31.3575 44.9172C31.3575 44.9172 31.3575 45.0764 31.3033 45.1294C31.1407 45.2885 30.9238 45.1824 30.8696 44.9703C30.8154 44.4929 30.7612 44.0155 30.707 43.5381C30.5985 43.2729 30.5443 43.0608 30.4359 42.7955C30.3817 42.7425 30.3275 42.6895 30.3275 42.5834V42.4773C27.6167 34.9453 22.7916 27.9968 15.7438 24.39C13.5752 23.2761 11.1355 22.3744 8.7501 22.1092C8.7501 22.1092 8.47903 22.1092 8.42481 21.897C8.3706 21.7379 8.53324 21.5788 8.7501 21.5788C11.2982 21.7909 13.7378 22.7457 16.0148 23.9126C22.6832 27.3603 27.4541 33.7784 30.2732 40.7799C30.219 40.1434 30.1648 39.613 30.1648 39.0826Z" fill="#294328"/>
<path d="M40.8986 41.2565C41.2239 40.0895 40.9528 38.8165 40.1938 37.8618C39.4348 36.907 38.2421 36.3235 36.9952 36.3235C33.0375 36.3235 27.6161 36.3235 23.6584 36.3235C22.4115 36.3235 21.2188 36.907 20.4598 37.8618C19.7008 38.8165 19.4297 40.0895 19.755 41.2565C20.2429 43.1129 20.8393 45.2876 21.4356 47.3032C22.5199 51.2283 26.1523 53.9335 30.3268 53.9335C34.5013 53.9335 38.1337 51.2283 39.218 47.3032C39.7601 45.2876 40.3565 43.1129 40.8986 41.2565Z" fill="#665AE1"/>
<path d="M41.7834 18.5818C43.3433 17.3477 42.5475 13.8543 40.0058 10.7791C37.4641 7.70386 34.139 6.21141 32.5791 7.44556C31.0191 8.67972 31.815 12.1731 34.3567 15.2483C36.8984 18.3235 40.2234 19.816 41.7834 18.5818Z" fill="#22A88E"/>
<path d="M11.0677 24.2565C13.6112 21.1828 14.408 17.6912 12.8473 16.4579C11.2866 15.2246 7.95954 16.7167 5.41605 19.7904C2.87256 22.8642 2.07582 26.3558 3.63649 27.5891C5.19716 28.8223 8.52424 27.3303 11.0677 24.2565Z" fill="#22A88E"/>
<path d="M25.9821 13.3611C30.3715 10.7259 32.838 6.84903 31.4913 4.70182C30.1446 2.55462 25.4946 2.95021 21.1052 5.5854C16.7159 8.2206 14.2494 12.0975 15.5961 14.2447C16.9428 16.3919 21.5928 15.9963 25.9821 13.3611Z" fill="#22A88E"/>
</svg>
