<svg width="23" height="19" viewBox="0 0 23 19" fill="none" xmlns="http://www.w3.org/2000/svg">
<path fill-rule="evenodd" clip-rule="evenodd" d="M19.2535 2.61014C19.9336 3.28735 20.5135 3.944 20.9928 4.58015C21.9908 5.90441 22.2889 7.73485 22.2194 7.78106C21.8409 8.03327 19.6764 6.57838 19.2535 5.39675C19 4.68834 19 3.75948 19.2535 2.61014Z" fill="#A1B8E3"/>
<path fill-rule="evenodd" clip-rule="evenodd" d="M1.11715 14.2272C6.09177 10.7889 8.69951 6.50523 8.94074 1.37608C10.247 1.17883 12.77 1.42494 19.1009 2.53934C19.6904 2.64312 19.7425 3.58992 19.2572 5.37976C21.3916 6.17213 22.3695 6.92695 22.1912 7.64415C20.6441 13.8623 18.5975 16.6973 15.5089 18.0295C11.9657 18.4849 7.16852 17.2175 1.11715 14.2272Z" fill="url(#paint0_linear)"/>
<defs>
<linearGradient id="paint0_linear" x1="10.399" y1="23.3865" x2="19.6705" y2="14.0424" gradientUnits="userSpaceOnUse">
<stop stop-color="#ACC1E3"/>
<stop offset="1" stop-color="#D6E3FA"/>
</linearGradient>
</defs>
</svg>
