<svg width="32" height="28" viewBox="0 0 32 28" fill="none" xmlns="http://www.w3.org/2000/svg">
<path fill-rule="evenodd" clip-rule="evenodd" d="M15.3633 0.548428C13.4503 5.93933 7.22244 9.0509 0.934686 10.2316C3.47434 14.2498 8.54345 20.7074 12.9472 25.3703C13.1567 25.5922 14.0053 25.9396 14.2285 26.1219C15.5777 27.2239 17.0219 26.601 17.7716 26.5903C21.4802 25.4152 24.772 24.9109 27.8584 22.0757C29.4409 20.6221 30.6164 19.2877 30.9897 18.6409C30.0675 15.7915 25.502 13.2957 15.3633 0.548428Z" fill="url(#paint0_linear)"/>
<path fill-rule="evenodd" clip-rule="evenodd" d="M16.8475 23.5665C16.9179 25.1456 14.1735 26.5916 12.6056 25.0407C14.287 26.6713 15.7826 26.9119 17.0231 26.908C18.2636 26.9039 24.0569 26.9183 30.966 18.6449C24.8531 25.3823 20.2193 27.1139 16.8475 23.5665Z" fill="#FF9600"/>
<defs>
<linearGradient id="paint0_linear" x1="10.7418" y1="-2.99411" x2="4.89667" y2="14.5449" gradientUnits="userSpaceOnUse">
<stop stop-color="#FF9D61"/>
<stop offset="1" stop-color="#FFD873"/>
</linearGradient>
</defs>
</svg>
