<svg width="91" height="40" viewBox="0 0 91 40" fill="none" xmlns="http://www.w3.org/2000/svg">
<rect width="91" height="40" rx="12" fill="#00CD98"/>
<path fill-rule="evenodd" clip-rule="evenodd" d="M24.9983 18.924C24.9983 16.4744 23.4282 13.521 20.3315 10.1459C20.2462 10.0529 20.126 10 20 10C19.8741 10 19.7539 10.0529 19.6686 10.1459C17.8054 12.1767 16.4815 14.0778 15.7336 15.7964C15.634 16.0255 15.7381 16.2923 15.9662 16.3924C16.1942 16.4924 16.4599 16.3879 16.5596 16.1589C17.2229 14.6346 18.3793 12.943 20 11.1256C22.6825 14.1352 24.097 16.8248 24.097 18.924C24.097 21.0336 23.1361 22.6091 21.4607 23.2466C21.2279 23.3352 21.1108 23.5965 21.1989 23.8301C21.2672 24.0111 21.4385 24.1225 21.6204 24.1225C21.6735 24.1225 21.7274 24.1131 21.78 24.093C23.7952 23.3263 24.9983 21.394 24.9983 18.924Z" fill="white"/>
<path fill-rule="evenodd" clip-rule="evenodd" d="M18.2863 19.7936C18.5689 20.1048 18.8104 20.4475 19.0038 20.8122C19.2851 21.3425 19.4583 21.9013 19.5186 22.4728C19.5653 22.9138 19.542 23.346 19.4491 23.7571C19.4444 23.7781 19.4395 23.7989 19.4344 23.8197L18.475 22.8562V21.625C18.475 21.3751 18.2732 21.1725 18.0243 21.1725C17.7754 21.1725 17.5737 21.3751 17.5737 21.625V21.9511L16.8382 21.2125L16.8591 20.0104C16.8634 19.7605 16.6651 19.5544 16.4163 19.5501C16.1684 19.5448 15.9622 19.7448 15.9578 19.9947L15.9522 20.3227L15.2944 19.6621C15.1183 19.4854 14.8331 19.4854 14.657 19.6621C14.481 19.8389 14.481 20.1254 14.657 20.3022L15.2962 20.944H15.0205C14.7715 20.944 14.5698 21.1466 14.5698 21.3965C14.5698 21.6465 14.7715 21.8491 15.0205 21.8491H16.1974L16.936 22.5908H16.6119C16.363 22.5908 16.1612 22.7934 16.1612 23.0434C16.1612 23.2934 16.363 23.496 16.6119 23.496L17.8373 23.496L18.7963 24.4591C17.7415 24.7168 16.5301 24.5026 15.4966 23.849C15.1803 23.6489 14.8842 23.4111 14.6165 23.1422C14.4657 22.9909 14.3236 22.8293 14.194 22.6617C13.2128 21.3935 12.9331 19.7635 13.4603 18.4599C14.9564 17.8468 16.8086 18.3019 18.1226 19.6213C18.176 19.6748 18.2311 19.7329 18.2863 19.7936Z" fill="#054438"/>
<path fill-rule="evenodd" clip-rule="evenodd" d="M22.3641 18.8666C22.3641 18.6167 22.5658 18.4141 22.8147 18.4141C23.0636 18.4141 23.2654 18.6167 23.2654 18.8666C23.2654 20.139 22.7771 21.1931 21.8906 21.8347C21.8108 21.8924 21.7187 21.9201 21.6275 21.9201C21.4875 21.9201 21.3495 21.8549 21.2614 21.7322C21.1159 21.5294 21.1616 21.2465 21.3636 21.1004C21.82 20.7701 22.3641 20.1145 22.3641 18.8666Z" fill="white"/>
<path fill-rule="evenodd" clip-rule="evenodd" d="M27.5752 24.9434C27.5752 25.7358 26.7635 26.3723 25.1624 26.8353C23.7774 27.2359 21.9439 27.4565 19.9998 27.4565C18.0558 27.4565 16.2224 27.2359 14.8373 26.8353C13.2363 26.3723 12.4245 25.7358 12.4245 24.9434C12.4245 24.6445 12.5463 24.3613 12.7864 24.1016C12.9559 23.9185 13.2409 23.9079 13.4233 24.078C13.6057 24.2481 13.6163 24.5345 13.4469 24.7176C13.3916 24.7773 13.3259 24.8649 13.3259 24.9434C13.3259 25.1208 13.6939 25.5627 15.0867 25.9655C16.393 26.3433 18.1379 26.5514 19.9998 26.5514C21.8619 26.5514 23.6067 26.3433 24.913 25.9655C26.3058 25.5627 26.6738 25.1208 26.6738 24.9434C26.6738 24.727 26.1727 24.2672 24.7921 23.8871C24.5521 23.821 24.4108 23.5721 24.4766 23.331C24.5423 23.09 24.7903 22.9481 25.0304 23.0142C26.6953 23.4725 27.5752 24.1396 27.5752 24.9434Z" fill="white"/>
<path fill-rule="evenodd" clip-rule="evenodd" d="M11.3101 22.7704C11.5096 22.621 11.792 22.6624 11.9408 22.8628C12.0895 23.0632 12.0483 23.3467 11.8488 23.4961C11.4165 23.8197 10.9013 24.3334 10.9013 24.9434C10.9013 25.7581 11.8175 26.5933 13.4149 27.2347C15.1666 27.9382 17.5052 28.3256 20 28.3256C22.4947 28.3256 24.8334 27.9382 26.5851 27.2347C28.1825 26.5933 29.0987 25.7581 29.0987 24.9434C29.0987 23.9848 27.852 23.0188 25.7638 22.3592C25.5264 22.2843 25.3944 22.0302 25.4691 21.7917C25.5437 21.5533 25.7968 21.4208 26.0342 21.4958C28.5545 22.2919 30 23.5484 30 24.9434C30 26.1653 28.906 27.2775 26.9197 28.0752C25.0641 28.8204 22.6066 29.2307 20 29.2307C17.3933 29.2307 14.9359 28.8204 13.0803 28.0752C11.094 27.2775 10 26.1653 10 24.9434C10 24.1634 10.453 23.412 11.3101 22.7704Z" fill="white"/>
<path d="M38.988 19.464H44.365V21.839H38.988V19.464ZM50.7919 12.7V26H47.7139V15.17H45.0539V12.7H50.7919ZM58.8023 26.228C57.7003 26.228 56.7187 25.9557 55.8573 25.411C54.996 24.8663 54.3183 24.081 53.8243 23.055C53.343 22.0163 53.1023 20.7813 53.1023 19.35C53.1023 17.9187 53.343 16.69 53.8243 15.664C54.3183 14.6253 54.996 13.8337 55.8573 13.289C56.7187 12.7443 57.7003 12.472 58.8023 12.472C59.9043 12.472 60.886 12.7443 61.7473 13.289C62.6087 13.8337 63.28 14.6253 63.7613 15.664C64.2553 16.69 64.5023 17.9187 64.5023 19.35C64.5023 20.7813 64.2553 22.0163 63.7613 23.055C63.28 24.081 62.6087 24.8663 61.7473 25.411C60.886 25.9557 59.9043 26.228 58.8023 26.228ZM58.8023 23.625C59.613 23.625 60.2463 23.2767 60.7023 22.58C61.171 21.8833 61.4053 20.8067 61.4053 19.35C61.4053 17.8933 61.171 16.8167 60.7023 16.12C60.2463 15.4233 59.613 15.075 58.8023 15.075C58.0043 15.075 57.371 15.4233 56.9023 16.12C56.4463 16.8167 56.2183 17.8933 56.2183 19.35C56.2183 20.8067 56.4463 21.8833 56.9023 22.58C57.371 23.2767 58.0043 23.625 58.8023 23.625ZM69.0758 19.882C68.1005 19.882 67.3025 19.5527 66.6818 18.894C66.0738 18.2227 65.7698 17.3297 65.7698 16.215C65.7698 15.1003 66.0738 14.2137 66.6818 13.555C67.3025 12.8837 68.1005 12.548 69.0758 12.548C70.0512 12.548 70.8428 12.8837 71.4508 13.555C72.0588 14.2137 72.3628 15.1003 72.3628 16.215C72.3628 17.3297 72.0588 18.2227 71.4508 18.894C70.8428 19.5527 70.0512 19.882 69.0758 19.882ZM76.9988 12.7H79.2598L70.1778 26H67.9168L76.9988 12.7ZM69.0758 18.324C69.5065 18.324 69.8422 18.1467 70.0828 17.792C70.3362 17.4373 70.4628 16.9117 70.4628 16.215C70.4628 15.5183 70.3362 14.9927 70.0828 14.638C69.8422 14.2833 69.5065 14.106 69.0758 14.106C68.6578 14.106 68.3222 14.2897 68.0688 14.657C67.8155 15.0117 67.6888 15.531 67.6888 16.215C67.6888 16.899 67.8155 17.4247 68.0688 17.792C68.3222 18.1467 68.6578 18.324 69.0758 18.324ZM78.1008 26.152C77.4675 26.152 76.8975 26.0063 76.3908 25.715C75.8968 25.411 75.5105 24.9803 75.2318 24.423C74.9532 23.8657 74.8138 23.2197 74.8138 22.485C74.8138 21.7503 74.9532 21.1043 75.2318 20.547C75.5105 19.9897 75.8968 19.5653 76.3908 19.274C76.8975 18.97 77.4675 18.818 78.1008 18.818C79.0762 18.818 79.8678 19.1537 80.4758 19.825C81.0965 20.4837 81.4068 21.3703 81.4068 22.485C81.4068 23.5997 81.0965 24.4927 80.4758 25.164C79.8678 25.8227 79.0762 26.152 78.1008 26.152ZM78.1008 24.594C78.5315 24.594 78.8672 24.4167 79.1078 24.062C79.3612 23.6947 79.4878 23.169 79.4878 22.485C79.4878 21.801 79.3612 21.2817 79.1078 20.927C78.8672 20.5597 78.5315 20.376 78.1008 20.376C77.6828 20.376 77.3472 20.5533 77.0938 20.908C76.8405 21.2627 76.7138 21.7883 76.7138 22.485C76.7138 23.1817 76.8405 23.7073 77.0938 24.062C77.3472 24.4167 77.6828 24.594 78.1008 24.594Z" fill="white"/>
</svg>
