<svg width="14" height="24" viewBox="0 0 14 24" fill="none" xmlns="http://www.w3.org/2000/svg">
<path fill-rule="evenodd" clip-rule="evenodd" d="M7.5395 10.5333C4.4192 9.74662 3.41579 8.94 3.41579 7.67331C3.41579 6.22 4.79723 5.2 7.12713 5.2C9.57384 5.2 10.4811 6.33331 10.5635 8H13.6014C13.512 5.7 12.0619 3.60669 9.18898 2.92V0H5.06527V2.88C2.39858 3.44669 0.254253 5.11331 0.254253 7.69331C0.254253 10.7733 2.88653 12.3066 6.71476 13.2C10.1581 14 10.8385 15.1667 10.8385 16.42C10.8385 17.3333 10.1718 18.8 7.12713 18.8C4.29549 18.8 3.17526 17.5667 3.03093 16H0C0.171843 18.92 2.41927 20.5533 5.06527 21.1067V24H9.18898V21.1333C11.8625 20.6333 14 19.1333 14 16.3933C14 12.62 10.6598 11.3267 7.5395 10.5333Z" fill="white"/>
</svg>
