<svg width="91" height="40" viewBox="0 0 91 40" fill="none" xmlns="http://www.w3.org/2000/svg">
<rect width="91" height="40" rx="12" fill="#00CD98"/>
<path d="M46.988 19.464H52.365V21.839H46.988V19.464ZM58.6301 17.697C60.5048 17.697 61.8854 18.0707 62.7721 18.818C63.6714 19.5653 64.1211 20.566 64.1211 21.82C64.1211 22.6307 63.9184 23.3717 63.5131 24.043C63.1078 24.7017 62.4871 25.2337 61.6511 25.639C60.8278 26.0317 59.8081 26.228 58.5921 26.228C57.6548 26.228 56.7301 26.1077 55.8181 25.867C54.9188 25.6137 54.1524 25.259 53.5191 24.803L54.7351 22.447C55.2418 22.827 55.8244 23.1247 56.4831 23.34C57.1418 23.5427 57.8194 23.644 58.5161 23.644C59.2888 23.644 59.8968 23.492 60.3401 23.188C60.7834 22.884 61.0051 22.4597 61.0051 21.915C61.0051 21.345 60.7708 20.9143 60.3021 20.623C59.8461 20.3317 59.0481 20.186 57.9081 20.186H54.5071L55.1911 12.7H63.3041V15.17H57.7561L57.5471 17.697H58.6301ZM68.2624 19.882C67.287 19.882 66.489 19.5527 65.8684 18.894C65.2604 18.2227 64.9564 17.3297 64.9564 16.215C64.9564 15.1003 65.2604 14.2137 65.8684 13.555C66.489 12.8837 67.287 12.548 68.2624 12.548C69.2377 12.548 70.0294 12.8837 70.6374 13.555C71.2454 14.2137 71.5494 15.1003 71.5494 16.215C71.5494 17.3297 71.2454 18.2227 70.6374 18.894C70.0294 19.5527 69.2377 19.882 68.2624 19.882ZM76.1854 12.7H78.4464L69.3644 26H67.1034L76.1854 12.7ZM68.2624 18.324C68.693 18.324 69.0287 18.1467 69.2694 17.792C69.5227 17.4373 69.6494 16.9117 69.6494 16.215C69.6494 15.5183 69.5227 14.9927 69.2694 14.638C69.0287 14.2833 68.693 14.106 68.2624 14.106C67.8444 14.106 67.5087 14.2897 67.2554 14.657C67.002 15.0117 66.8754 15.531 66.8754 16.215C66.8754 16.899 67.002 17.4247 67.2554 17.792C67.5087 18.1467 67.8444 18.324 68.2624 18.324ZM77.2874 26.152C76.654 26.152 76.084 26.0063 75.5774 25.715C75.0834 25.411 74.697 24.9803 74.4184 24.423C74.1397 23.8657 74.0004 23.2197 74.0004 22.485C74.0004 21.7503 74.1397 21.1043 74.4184 20.547C74.697 19.9897 75.0834 19.5653 75.5774 19.274C76.084 18.97 76.654 18.818 77.2874 18.818C78.2627 18.818 79.0544 19.1537 79.6624 19.825C80.283 20.4837 80.5934 21.3703 80.5934 22.485C80.5934 23.5997 80.283 24.4927 79.6624 25.164C79.0544 25.8227 78.2627 26.152 77.2874 26.152ZM77.2874 24.594C77.718 24.594 78.0537 24.4167 78.2944 24.062C78.5477 23.6947 78.6744 23.169 78.6744 22.485C78.6744 21.801 78.5477 21.2817 78.2944 20.927C78.0537 20.5597 77.718 20.376 77.2874 20.376C76.8694 20.376 76.5337 20.5533 76.2804 20.908C76.027 21.2627 75.9004 21.7883 75.9004 22.485C75.9004 23.1817 76.027 23.7073 76.2804 24.062C76.5337 24.4167 76.8694 24.594 77.2874 24.594Z" fill="white"/>
<path fill-rule="evenodd" clip-rule="evenodd" d="M25.6913 24.7316C25.7926 24.9819 25.6572 25.2615 25.3888 25.356C24.6975 25.5995 23.905 25.7282 23.0972 25.7282C21.0068 25.7282 19.1852 24.8639 18.6671 23.6264C18.5627 23.3772 18.6947 23.0962 18.962 22.9989C19.2291 22.9015 19.5303 23.0246 19.6347 23.274C19.995 24.1346 21.4512 24.7592 23.0971 24.7592C23.781 24.7592 24.4465 24.6521 25.0219 24.4494C25.2901 24.3548 25.59 24.4813 25.6913 24.7316Z" fill="white"/>
<path fill-rule="evenodd" clip-rule="evenodd" d="M16.7464 22.1293C16.4711 22.0555 16.183 22.2041 16.1039 22.4613C16.0227 22.7252 15.9814 22.9967 15.9814 23.2682C15.9814 24.4622 16.7556 25.5673 18.1612 26.3803C19.4895 27.1485 21.2449 27.5716 23.104 27.5716C24.9632 27.5716 26.7187 27.1485 28.0469 26.3803C29.4526 25.5674 30.2268 24.4622 30.2268 23.2682C30.2268 23.0006 29.9942 22.7837 29.7074 22.7837C29.4205 22.7837 29.188 23.0006 29.188 23.2682C29.188 24.1143 28.5883 24.927 27.4996 25.5567C26.3335 26.2311 24.7724 26.6025 23.104 26.6025C21.4357 26.6025 19.8747 26.2311 18.7087 25.5567C17.6199 24.9271 17.0203 24.1143 17.0203 23.2682C17.0203 23.0872 17.048 22.9057 17.1024 22.7287C17.1815 22.4716 17.0222 22.2032 16.7464 22.1293Z" fill="white"/>
<path fill-rule="evenodd" clip-rule="evenodd" d="M20.1783 14.8092C19.9775 15.0004 19.9811 15.3072 20.1862 15.4943L20.5279 15.8064C20.629 15.8987 20.7601 15.9446 20.8912 15.9446C21.026 15.9446 21.1607 15.896 21.2624 15.799C21.4632 15.6078 21.4596 15.301 21.2545 15.1138L20.9128 14.8018C20.7077 14.6147 20.3789 14.618 20.1783 14.8092Z" fill="#054438"/>
<path fill-rule="evenodd" clip-rule="evenodd" d="M19.6616 19.3238C19.8606 19.131 19.8545 18.8243 19.6479 18.6386L18.1943 17.3324C17.9878 17.1468 17.6589 17.1526 17.4598 17.3452C17.2608 17.5379 17.2669 17.8446 17.4735 18.0304L18.9271 19.3366C19.0279 19.4271 19.1578 19.4721 19.2874 19.4721C19.4236 19.4721 19.5597 19.4224 19.6616 19.3238Z" fill="#054438"/>
<path fill-rule="evenodd" clip-rule="evenodd" d="M16.2134 11.8525L17.0961 12.5579C17.1099 12.5694 17.1244 12.5829 17.1403 12.5972C17.2664 12.7115 17.5011 12.9242 17.8623 12.9686C18.2545 13.0167 18.6566 12.851 19.0586 12.4761C19.1445 12.396 19.3076 12.3907 19.4006 12.4651L19.932 12.8899L21.8303 14.5969C21.9311 14.6876 22.061 14.7327 22.1908 14.7327C22.3268 14.7327 22.4629 14.683 22.5647 14.5844C22.7638 14.3918 22.7578 14.085 22.5513 13.8993L20.6419 12.1824C20.6347 12.1759 20.6271 12.1695 20.6194 12.1634L20.0765 11.7294C19.5758 11.3291 18.7896 11.3566 18.324 11.791C18.121 11.9803 18.016 12.0046 17.998 12.0075C17.9668 11.9952 17.9005 11.9351 17.8643 11.9023C17.8341 11.8748 17.8058 11.8496 17.7796 11.8282C17.778 11.8269 17.7764 11.8256 17.7749 11.8243L16.8893 11.1166C16.6715 10.9426 16.3435 10.966 16.157 11.1693C15.9703 11.3725 15.9956 11.6783 16.2134 11.8525Z" fill="#054438"/>
<path fill-rule="evenodd" clip-rule="evenodd" d="M19.8432 16.4242L19.4982 16.1151C19.2913 15.9296 18.9625 15.9358 18.7637 16.1288C18.565 16.3217 18.5716 16.6284 18.7784 16.8139L19.1234 17.1231C19.2241 17.2133 19.3538 17.2582 19.4832 17.2582C19.6196 17.2582 19.7558 17.2083 19.8578 17.1093C20.0566 16.9163 20.05 16.6096 19.8432 16.4242Z" fill="#054438"/>
<path fill-rule="evenodd" clip-rule="evenodd" d="M32.6012 21.6389C32.3294 21.7244 32.1833 21.9992 32.2749 22.2528C32.4241 22.6657 32.4812 23.0895 32.4446 23.5128C32.328 24.8698 31.2732 26.1358 29.4742 27.0777C27.6009 28.0585 25.1711 28.5586 22.6298 28.4855C19.3861 28.3923 16.4064 27.3289 14.8536 25.7102C14.06 24.883 13.6828 23.9539 13.7627 23.0235C13.7992 22.5979 13.93 22.1758 14.1515 21.769C14.2814 21.5304 14.1794 21.2388 13.9236 21.1176C13.6679 20.9965 13.3552 21.0915 13.2253 21.3302C12.9421 21.8502 12.7745 22.394 12.7272 22.9462C12.624 24.1474 13.0916 25.3267 14.0795 26.3564C15.8418 28.1934 19.0262 29.3514 22.5979 29.4541C22.7704 29.4591 22.9425 29.4615 23.114 29.4615C25.6538 29.4615 28.0758 28.9211 29.9827 27.9227C32.093 26.8178 33.3351 25.2792 33.4801 23.5904C33.5281 23.0356 33.4538 22.4813 33.2593 21.9432C33.1677 21.6897 32.873 21.5534 32.6012 21.6389Z" fill="white"/>
<path fill-rule="evenodd" clip-rule="evenodd" d="M33.9536 13.1354C33.7508 12.9462 33.422 12.9461 33.2191 13.1354L31.5025 14.7367C31.4829 14.7549 31.4556 14.7778 31.4231 14.8052C31.1165 15.0648 30.4785 15.6051 30.4598 16.3284C30.4528 16.5953 30.5336 16.9966 30.958 17.3926C31.0229 17.453 30.9709 17.865 30.5178 18.3214L27.5697 20.9535L26.1874 22.1704C25.8204 22.4934 25.1854 22.5723 25.0171 22.4364C25.0026 22.4231 24.968 22.391 24.924 22.35L28.7326 18.9647C28.9403 18.7801 28.9482 18.4734 28.7503 18.2797C28.5524 18.086 28.2236 18.0786 28.0159 18.2631L23.674 22.1225C23.3067 22.4457 22.6708 22.5241 22.5017 22.3867C22.4828 22.3698 22.4214 22.314 22.3425 22.2422C22.4297 22.1864 22.5114 22.1255 22.586 22.0601L27.4284 17.7474C27.6359 17.5625 27.6435 17.2558 27.4454 17.0623C27.2472 16.8687 26.9186 16.8616 26.711 17.0464L21.8715 21.3566C21.5204 21.6647 20.8563 21.7464 20.6472 21.5734C20.6293 21.557 20.5787 21.5099 20.5162 21.4517L26.0219 16.4268C26.2269 16.2396 26.2305 15.9329 26.0299 15.7416C25.8294 15.5504 25.5005 15.5469 25.2954 15.7341L22.1047 18.6462L21.8081 18.4434C21.7608 18.411 21.6967 18.3542 21.6881 18.2347C21.6763 18.0713 21.7687 17.8756 21.9237 17.7363L26.2761 13.8222L26.8076 13.3974C26.9008 13.3231 27.0638 13.3283 27.1496 13.4083C27.5517 13.7835 27.9541 13.9493 28.3461 13.901C28.7073 13.8565 28.9419 13.6437 29.068 13.5294C29.0838 13.515 29.0983 13.5015 29.1122 13.4901L29.9948 12.7846C30.2126 12.6105 30.2379 12.3046 30.0512 12.1015C29.8646 11.8983 29.5367 11.8747 29.3188 12.0488L28.4333 12.7566C28.4318 12.7579 28.4301 12.7592 28.4285 12.7605C28.4024 12.7819 28.3742 12.8071 28.344 12.8345C28.3078 12.8673 28.2415 12.9274 28.2103 12.9397C28.1923 12.9368 28.0872 12.9125 27.8842 12.7231C27.4187 12.2889 26.6326 12.2613 26.1319 12.6615L25.5888 13.0955C25.581 13.1017 25.5735 13.1081 25.5662 13.1146L21.2029 17.0386C20.8253 17.3781 20.6192 17.8496 20.6518 18.2999C20.679 18.676 20.8716 19.0045 21.1942 19.2251L21.3522 19.3331L19.4152 21.1009C19.2163 21.2825 19.2061 21.578 19.3921 21.7711C19.4303 21.8108 19.9359 22.2796 19.939 22.2822C20.285 22.5805 20.7777 22.6741 21.2688 22.6181C21.4885 22.8189 21.7951 23.0969 21.7973 23.0988C22.3886 23.6058 23.4515 23.4654 24.1552 23.0028C24.2378 23.0797 24.3037 23.1408 24.3106 23.1467C24.571 23.37 24.9229 23.4678 25.2953 23.4678C25.8684 23.4678 26.4899 23.2363 26.9004 22.875L28.2855 21.6558L31.2469 19.0116C31.2538 19.0055 31.2605 18.9992 31.267 18.9927C32.0727 18.1898 32.2518 17.2286 31.6928 16.7072C31.494 16.5217 31.4973 16.3937 31.4984 16.3517C31.5064 16.0434 31.9374 15.6784 32.1215 15.5226C32.1675 15.4836 32.2059 15.4508 32.2355 15.4234L33.9539 13.8205C34.1565 13.6313 34.1565 13.3245 33.9536 13.1354Z" fill="#054438"/>
<path fill-rule="evenodd" clip-rule="evenodd" d="M14.0868 14.5903C14.2708 14.7461 14.7017 15.1111 14.7097 15.4192C14.7108 15.4613 14.714 15.5893 14.5151 15.7749C13.9562 16.2963 14.1353 17.2574 14.9408 18.0603C14.9471 18.0666 14.9536 18.0727 14.9602 18.0787L17.6719 20.5081C17.7727 20.5983 17.9022 20.6432 18.0317 20.6432C18.1681 20.6432 18.3044 20.5933 18.4063 20.4943C18.605 20.3013 18.5984 19.9946 18.3915 19.8092L15.6902 17.3892C15.237 16.9326 15.1849 16.5205 15.2496 16.4601C15.6741 16.0642 15.755 15.6628 15.7482 15.3959C15.7295 14.6727 15.0916 14.1325 14.785 13.8728C14.7525 13.8453 14.7252 13.8224 14.7072 13.8059L12.9888 12.2029C12.7859 12.0137 12.4571 12.0137 12.2542 12.2029C12.0513 12.3922 12.0513 12.699 12.2542 12.8882L13.9743 14.4927C14.0022 14.5184 14.0407 14.5513 14.0868 14.5903Z" fill="#054438"/>
</svg>
