<svg width="24" height="24" viewBox="0 0 24 24" fill="none" xmlns="http://www.w3.org/2000/svg">
<path fill-rule="evenodd" clip-rule="evenodd" d="M18.6875 2.6875V0H16V2.6875H18.6875ZM13.3125 2.6875V0H10.6875V2.6875H13.3125ZM24 2.6875C24 1.97917 23.7292 1.35417 23.1875 0.8125C22.6458 0.270833 22.0208 0 21.3125 0V2.6875H24ZM8 2.6875V0C7.25 0 6.61458 0.270833 6.09375 0.8125C5.57292 1.35417 5.3125 1.97917 5.3125 2.6875H8ZM18.6875 24V21.3125H2.6875V5.3125H0V21.3125C0 22.0208 0.260417 22.6458 0.78125 23.1875C1.30208 23.7292 1.9375 24 2.6875 24H18.6875ZM24 8V5.3125H21.3125V8H24ZM8 8V5.3125H5.3125V8H8ZM24 13.3125V10.6875H21.3125V13.3125H24ZM8 13.3125V10.6875H5.3125V13.3125H8ZM18.6875 18.6875V16H16V18.6875H18.6875ZM21.3125 18.6875C22.0208 18.6875 22.6458 18.4167 23.1875 17.875C23.7292 17.3333 24 16.7083 24 16H21.3125V18.6875ZM8 18.6875V16H5.3125C5.3125 16.7083 5.57292 17.3333 6.09375 17.875C6.61458 18.4167 7.25 18.6875 8 18.6875ZM13.3125 18.6875V16H10.6875V18.6875H13.3125Z" fill="white"/>
</svg>
