<svg width="21" height="17" viewBox="0 0 21 17" fill="none" xmlns="http://www.w3.org/2000/svg">
<path d="M19.0343 14.409C19.0343 14.5988 18.8669 14.7662 18.6772 14.7662H2.2486C2.05887 14.7662 1.89146 14.5988 1.89146 14.409V5.8376C2.12584 6.10546 2.38253 6.351 2.66155 6.57421C4.25753 7.80189 5.86468 9.05189 7.41602 10.3465C8.25307 11.0497 9.29102 11.909 10.4517 11.909H10.4629H10.4741C11.6348 11.909 12.6727 11.0497 13.5098 10.3465C15.0611 9.05189 16.6682 7.80189 18.2642 6.57421C18.5432 6.351 18.7999 6.10546 19.0343 5.8376V14.409ZM19.0343 2.67912C19.0343 3.62778 18.1191 4.86662 17.3937 5.43582C15.8982 6.60769 14.4026 7.79073 12.9182 8.97376C12.3267 9.45367 11.2553 10.4805 10.4741 10.4805H10.4629H10.4517C9.67048 10.4805 8.59905 9.45367 8.00753 8.97376C6.52316 7.79073 5.02762 6.60769 3.53209 5.43582C2.52762 4.64341 1.89146 3.5385 1.89146 2.26617C1.89146 2.07644 2.05887 1.90903 2.2486 1.90903H18.6772C19.1013 1.90903 19.0343 2.4001 19.0343 2.67912ZM20.4629 2.26617C20.4629 1.28403 19.6593 0.48046 18.6772 0.48046H2.2486C1.26646 0.48046 0.462891 1.28403 0.462891 2.26617V14.409C0.462891 15.3912 1.26646 16.1947 2.2486 16.1947H18.6772C19.6593 16.1947 20.4629 15.3912 20.4629 14.409V2.26617Z" fill="white"/>
</svg>
