<svg width="19" height="15" viewBox="0 0 19 15" fill="none" xmlns="http://www.w3.org/2000/svg">
<path d="M16.1772 8.90373C16.1772 8.88141 16.1772 8.85909 16.166 8.83677L9.74861 3.54659L3.33119 8.83677C3.33119 8.85909 3.32003 8.88141 3.32003 8.90373V14.2609C3.32003 14.6515 3.64369 14.9752 4.03432 14.9752H8.32003V10.6894H11.1772V14.9752H15.4629C15.8535 14.9752 16.1772 14.6515 16.1772 14.2609V8.90373ZM18.666 8.13364C18.7888 7.98855 18.7665 7.75418 18.6214 7.63141L16.1772 5.60016V1.04659C16.1772 0.845694 16.0209 0.689444 15.82 0.689444H13.6772C13.4763 0.689444 13.32 0.845694 13.32 1.04659V3.22293L10.5968 0.94614C10.1281 0.555515 9.36914 0.555515 8.90039 0.94614L0.875837 7.63141C0.730748 7.75418 0.708426 7.98855 0.831194 8.13364L1.52316 8.95953C1.57896 9.0265 1.66825 9.07114 1.75753 9.0823C1.85798 9.09346 1.94727 9.05998 2.02539 9.00418L9.74861 2.56444L17.4718 9.00418C17.5388 9.05998 17.6169 9.0823 17.7062 9.0823C17.7174 9.0823 17.7285 9.0823 17.7397 9.0823C17.829 9.07114 17.9182 9.0265 17.9741 8.95953L18.666 8.13364Z" fill="white"/>
</svg>
