<svg width="195" height="55" viewBox="0 0 195 55" fill="none" xmlns="http://www.w3.org/2000/svg">
<path d="M4.88425 0H46.6104V14.8492C46.6104 16.4533 45.3065 17.753 43.6974 17.753H4.88425C2.20372 17.753 0.0285645 19.9192 0.0285645 22.5912V4.83824C0.0285645 2.16623 2.2017 0 4.88425 0Z" fill="url(#paint0_linear)"/>
<path d="M41.7262 55H0V39.1251C0 37.5211 1.30388 36.2214 2.91301 36.2214H41.7262C44.4067 36.2214 46.5798 34.0551 46.5798 31.3811V50.1598C46.5798 52.8338 44.4067 55 41.7262 55Z" fill="url(#paint1_linear)"/>
<path d="M41.7545 45.5271L4.88401 29.4809C2.42584 28.3383 0.0283203 27.3146 0.0283203 24.6426V4.83826C0.0283203 7.51027 2.31062 8.53394 4.88401 9.6765L41.7565 25.7227C44.0995 26.8552 46.6102 27.8889 46.6102 30.563V50.3653C46.6102 47.6933 43.9822 46.6595 41.7545 45.5271Z" fill="url(#paint2_linear)"/>
<path d="M90.8964 18.986C89.6424 18.106 87.9924 17.688 85.9684 17.688C82.6464 17.688 80.8644 19.338 80.8644 21.912C80.8644 27.082 88.3444 25.762 88.3444 28.798C88.3444 29.964 87.3324 30.536 85.8584 30.536C84.2744 30.536 83.2844 30.294 81.9864 29.436L80.8204 31.768C82.0524 32.802 83.8564 33.242 85.8804 33.242C89.5544 33.242 91.4904 31.548 91.4904 28.842C91.4904 23.584 84.0324 24.728 84.0324 21.956C84.0324 21.01 84.7804 20.394 85.9464 20.394C87.5304 20.394 88.3664 20.614 89.7304 21.318L90.8964 18.986ZM93.371 18.942C93.371 19.888 94.053 20.548 94.999 20.548C95.945 20.548 96.627 19.888 96.627 18.942C96.627 17.996 95.945 17.292 94.999 17.292C94.053 17.292 93.371 17.996 93.371 18.942ZM93.459 33H96.517V21.956H93.459V33ZM101.987 26.796C101.987 25.234 102.317 24.222 103.989 24.222C105.155 24.222 105.683 24.86 105.683 26.356V33H108.433V26.4C108.433 24.992 108.961 24.222 110.567 24.222C111.645 24.222 112.327 24.706 112.327 26.268V33H115.407V25.652C115.407 22.924 113.603 21.692 111.623 21.692C110.127 21.692 108.433 22.176 107.663 23.254C107.113 22.176 106.101 21.692 104.979 21.692C103.857 21.692 102.713 22.132 101.987 23.188V21.956H98.9286V33H101.987V26.796ZM120.771 31.878C121.739 32.824 122.663 33.264 124.313 33.264C127.283 33.264 128.867 31.042 128.867 27.522C128.867 23.716 127.261 21.692 124.159 21.692C122.861 21.692 121.585 22.132 120.771 23.188V21.956H117.713V37.818H120.771V31.878ZM125.853 27.522C125.853 29.722 125.039 30.756 123.455 30.756C121.629 30.756 121.101 29.546 121.101 27.456C121.101 25.41 121.585 24.222 123.499 24.222C124.995 24.222 125.853 25.344 125.853 27.522ZM131.17 33H134.228V17.16H131.17V33ZM145.737 29.788C144.395 30.492 143.515 30.756 141.953 30.756C140.325 30.756 139.511 29.942 139.511 28.336H147.101C147.519 24.706 145.979 21.692 141.755 21.692C138.301 21.692 136.519 23.672 136.519 27.522C136.519 31.042 138.499 33.264 141.953 33.264C143.911 33.264 145.693 32.846 146.903 31.966L145.737 29.788ZM139.555 26.576C139.555 25.08 140.369 24.222 141.799 24.222C143.229 24.222 144.153 25.08 144.087 26.576H139.555ZM188.869 31.482C188.869 32.516 189.617 33.264 190.651 33.264C191.685 33.264 192.455 32.516 192.455 31.482C192.455 30.448 191.685 29.678 190.651 29.678C189.617 29.678 188.869 30.448 188.869 31.482Z" fill="#4B5FF7"/>
<path d="M154.154 33C159.28 33 161.942 30.47 161.942 25.476C161.942 20.482 159.28 17.952 154.154 17.952H149.644V33H154.154ZM154.484 20.526C157.41 20.526 158.84 22.11 158.84 25.476C158.84 28.754 157.322 30.404 154.484 30.404H152.68V20.526H154.484ZM169.296 33.264C172.772 33.264 174.686 31.042 174.686 27.522C174.686 23.672 172.882 21.692 169.296 21.692C165.666 21.692 163.884 23.672 163.884 27.522C163.884 31.042 165.798 33.264 169.296 33.264ZM169.274 30.756C167.756 30.756 166.986 29.678 166.986 27.544C166.986 25.454 167.8 24.398 169.296 24.398C170.77 24.398 171.584 25.454 171.584 27.544C171.584 29.744 170.77 30.756 169.274 30.756ZM185.695 29.788C184.507 30.492 183.803 30.756 182.417 30.756C180.723 30.756 179.799 29.744 179.799 27.544C179.799 25.366 180.657 24.222 182.395 24.222C183.759 24.222 184.507 24.464 185.695 25.168L186.839 22.99C185.695 22.11 183.979 21.692 182.065 21.692C178.435 21.692 176.631 23.672 176.631 27.522C176.631 31.042 178.545 33.264 182.065 33.264C184.001 33.264 185.695 32.846 186.839 31.966L185.695 29.788Z" fill="#5510B4"/>
<defs>
<linearGradient id="paint0_linear" x1="18.1028" y1="18.2023" x2="27.4973" y2="2.56654" gradientUnits="userSpaceOnUse">
<stop stop-color="#341E6E"/>
<stop offset="1" stop-color="#7743FA"/>
</linearGradient>
<linearGradient id="paint1_linear" x1="26.752" y1="38.5264" x2="15.9221" y2="58.5574" gradientUnits="userSpaceOnUse">
<stop stop-color="#7743FA"/>
<stop offset="0.0001" stop-color="#184E8F"/>
<stop offset="1" stop-color="#532FAD"/>
</linearGradient>
<linearGradient id="paint2_linear" x1="46.3881" y1="27.6028" x2="-1.15158" y2="27.6028" gradientUnits="userSpaceOnUse">
<stop stop-color="#BDFFF7"/>
<stop offset="0.00768578" stop-color="#C5B4F0"/>
<stop offset="0.162566" stop-color="#9875EE"/>
<stop offset="0.244792" stop-color="#7F54ED"/>
<stop offset="0.5" stop-color="#703FEC"/>
<stop offset="0.791667" stop-color="#7D51ED"/>
<stop offset="0.932292" stop-color="#A284EE"/>
<stop offset="1" stop-color="#C5B4F0"/>
</linearGradient>
</defs>
</svg>
