<svg width="10" height="15" viewBox="0 0 10 15" fill="none" xmlns="http://www.w3.org/2000/svg">
<path d="M5.64097 13.3829C5.64097 13.874 5.23919 14.2757 4.74812 14.2757C4.25705 14.2757 3.85526 13.874 3.85526 13.3829C3.85526 12.8918 4.25705 12.49 4.74812 12.49C5.23919 12.49 5.64097 12.8918 5.64097 13.3829ZM7.9624 11.5972C7.9624 11.7869 7.79499 11.9543 7.60526 11.9543H1.89097C1.70124 11.9543 1.53383 11.7869 1.53383 11.5972V3.74003C1.53383 3.5503 1.70124 3.38289 1.89097 3.38289H7.60526C7.79499 3.38289 7.9624 3.5503 7.9624 3.74003V11.5972ZM5.81955 2.13289C5.81955 2.23334 5.74142 2.31146 5.64097 2.31146H3.85526C3.75481 2.31146 3.67669 2.23334 3.67669 2.13289C3.67669 2.03244 3.75481 1.95432 3.85526 1.95432H5.64097C5.74142 1.95432 5.81955 2.03244 5.81955 2.13289ZM9.03383 1.95432C9.03383 1.17307 8.38651 0.525748 7.60526 0.525748H1.89097C1.10972 0.525748 0.462402 1.17307 0.462402 1.95432V13.3829C0.462402 14.1641 1.10972 14.8115 1.89097 14.8115H7.60526C8.38651 14.8115 9.03383 14.1641 9.03383 13.3829V1.95432Z" fill="white"/>
</svg>
