<svg width="64" height="64" viewBox="0 0 64 64" fill="none" xmlns="http://www.w3.org/2000/svg">
<path fill-rule="evenodd" clip-rule="evenodd" d="M32 64C49.6731 64 64 49.6731 64 32C64 14.3269 49.6731 0 32 0C14.3269 0 0 14.3269 0 32C0 49.6731 14.3269 64 32 64Z" fill="#E6F0FC"/>
<path fill-rule="evenodd" clip-rule="evenodd" d="M32 52C43.0457 52 52 43.0457 52 32C52 20.9543 43.0457 12 32 12C20.9543 12 12 20.9543 12 32C12 43.0457 20.9543 52 32 52Z" fill="#4B5FF7"/>
<path fill-rule="evenodd" clip-rule="evenodd" d="M32 12L32 52C20.9543 52 12 43.0457 12 32C12 20.9543 20.9543 12 32 12Z" fill="#F78C63"/>
<path fill-rule="evenodd" clip-rule="evenodd" d="M32 48C40.8366 48 48 40.8366 48 32C48 23.1634 40.8366 16 32 16C23.1634 16 16 23.1634 16 32C16 40.8366 23.1634 48 32 48Z" fill="white"/>
<path d="M28.2466 39.3424C27.8835 39.7585 27.9264 40.3902 28.3424 40.7534C28.7585 41.1166 29.3902 41.0737 29.7534 40.6576L36.7534 32.6376C37.0828 32.2602 37.0821 31.6972 36.7518 31.3206L29.7518 23.3406C29.3876 22.9254 28.7558 22.884 28.3406 23.2482C27.9254 23.6124 27.8841 24.2442 28.2483 24.6594L34.6712 31.9817L28.2466 39.3424Z" fill="#4B5FF7"/>
<path fill-rule="evenodd" clip-rule="evenodd" d="M53 32C53 43.598 43.598 53 32 53C20.402 53 11 43.598 11 32C11 20.402 20.402 11 32 11C43.598 11 53 20.402 53 32ZM13 32C13 42.4934 21.5066 51 32 51C42.4934 51 51 42.4934 51 32C51 21.5066 42.4934 13 32 13C21.5066 13 13 21.5066 13 32Z" fill="#154E84"/>
</svg>
