<svg width="64" height="64" viewBox="0 0 64 64" fill="none" xmlns="http://www.w3.org/2000/svg">
<path fill-rule="evenodd" clip-rule="evenodd" d="M32 0C14.3269 0 0 14.3269 0 32C0 49.6731 14.3269 64 32 64C49.6731 64 64 49.6731 64 32C64 14.3269 49.6731 0 32 0Z" fill="#E6F0FC"/>
<path fill-rule="evenodd" clip-rule="evenodd" d="M32 12C20.9543 12 12 20.9543 12 32C12 43.0457 20.9543 52 32 52C43.0457 52 52 43.0457 52 32C52 20.9543 43.0457 12 32 12Z" fill="#4B5FF7"/>
<path fill-rule="evenodd" clip-rule="evenodd" d="M32 52L32 12C43.0457 12 52 20.9543 52 32C52 43.0457 43.0457 52 32 52Z" fill="#F78C63"/>
<path fill-rule="evenodd" clip-rule="evenodd" d="M32 16C23.1634 16 16 23.1634 16 32C16 40.8366 23.1634 48 32 48C40.8366 48 48 40.8366 48 32C48 23.1634 40.8366 16 32 16Z" fill="white"/>
<path d="M35.7534 24.6576C36.1165 24.2415 36.0736 23.6098 35.6576 23.2466C35.2415 22.8834 34.6098 22.9263 34.2466 23.3424L27.2466 31.3624C26.9172 31.7398 26.9179 32.3027 27.2482 32.6794L34.2482 40.6594C34.6124 41.0746 35.2442 41.1159 35.6594 40.7517C36.0746 40.3876 36.1159 39.7557 35.7517 39.3406L29.3288 32.0183L35.7534 24.6576Z" fill="#4B5FF7"/>
<path fill-rule="evenodd" clip-rule="evenodd" d="M11 32C11 20.402 20.402 11 32 11C43.598 11 53 20.402 53 32C53 43.598 43.598 53 32 53C20.402 53 11 43.598 11 32ZM51 32C51 21.5066 42.4934 13 32 13C21.5066 13 13 21.5066 13 32C13 42.4934 21.5066 51 32 51C42.4934 51 51 42.4934 51 32Z" fill="#154E84"/>
</svg>
