<svg width="35" height="35" viewBox="0 0 35 35" fill="none" xmlns="http://www.w3.org/2000/svg">
<path fill-rule="evenodd" clip-rule="evenodd" d="M17.5 0C7.83502 0 0 7.83502 0 17.5C0 27.165 7.83502 35 17.5 35C27.165 35 35 27.165 35 17.5C35 7.83502 27.165 0 17.5 0Z" fill="#FCEAB4"/>
<path d="M23.3348 7.51566C23.5592 7.31349 23.5772 6.96769 23.375 6.74331C23.1729 6.51892 22.8271 6.50091 22.6027 6.70308L11.0575 17.1052C10.8163 17.3226 10.8165 17.7011 11.058 17.9182L22.6031 28.2973C22.8277 28.4992 23.1735 28.4808 23.3754 28.2562C23.5774 28.0316 23.559 27.6859 23.3344 27.4839L12.2411 17.5111L23.3348 7.51566Z" fill="#212B75"/>
</svg>
