<svg width="40" height="40" viewBox="0 0 40 40" fill="none" xmlns="http://www.w3.org/2000/svg">
<path fill-rule="evenodd" clip-rule="evenodd" d="M20 0C8.9543 0 0 8.9543 0 20C0 31.0457 8.9543 40 20 40C31.0457 40 40 31.0457 40 20C40 8.9543 31.0457 0 20 0Z" fill="#E6F0FC"/>
<path d="M8.16547 13.2627C7.9347 13.006 7.53953 12.985 7.28283 13.2158C7.02613 13.4465 7.00512 13.8417 7.23589 14.0984L19.0977 27.2928C19.3459 27.5688 19.7784 27.5691 20.0268 27.2934L31.915 14.0989C32.1461 13.8425 32.1255 13.4473 31.869 13.2162C31.6126 12.9852 31.2174 13.0058 30.9863 13.2622L19.563 25.9407L8.16547 13.2627Z" fill="#154E84"/>
</svg>
