<svg width="35" height="35" viewBox="0 0 35 35" fill="none" xmlns="http://www.w3.org/2000/svg">
<path fill-rule="evenodd" clip-rule="evenodd" d="M17.5 35C27.165 35 35 27.165 35 17.5C35 7.83502 27.165 0 17.5 0C7.83502 0 0 7.83502 0 17.5C0 27.165 7.83502 35 17.5 35Z" fill="#FCEAB4"/>
<path d="M11.6652 27.4843C11.4408 27.6865 11.4228 28.0323 11.625 28.2567C11.8271 28.4811 12.1729 28.4991 12.3973 28.2969L23.9425 17.8948C24.1837 17.6774 24.1835 17.2989 23.942 17.0818L12.3969 6.70269C12.1723 6.50077 11.8265 6.51915 11.6246 6.74376C11.4226 6.96837 11.441 7.31415 11.6656 7.51607L22.7589 17.4889L11.6652 27.4843Z" fill="#212B75"/>
</svg>
