<svg width="40" height="40" viewBox="0 0 40 40" fill="none" xmlns="http://www.w3.org/2000/svg">
<path fill-rule="evenodd" clip-rule="evenodd" d="M20 40C31.0457 40 40 31.0457 40 20C40 8.9543 31.0457 0 20 0C8.9543 0 0 8.9543 0 20C0 31.0457 8.9543 40 20 40Z" fill="#E6F0FC"/>
<path d="M31.8345 26.7373C32.0653 26.994 32.4605 27.015 32.7172 26.7842C32.9739 26.5535 32.9949 26.1583 32.7641 25.9016L20.9023 12.7072C20.6541 12.4312 20.2216 12.4309 19.9732 12.7066L8.08499 25.9011C7.85394 26.1575 7.87452 26.5527 8.13096 26.7838C8.3874 27.0148 8.7826 26.9942 9.01365 26.7378L20.437 14.0593L31.8345 26.7373Z" fill="#154E84"/>
</svg>
