<svg width="265" height="141" viewBox="0 0 265 141" fill="none" xmlns="http://www.w3.org/2000/svg">
<rect x="51" width="42" height="57" rx="5" fill="#EFF3FB"/>
<path d="M71.857 41.165C70.097 41.165 68.524 40.692 67.138 39.746C65.774 38.778 64.707 37.414 63.937 35.654C63.189 33.894 62.815 31.826 62.815 29.45C62.815 27.074 63.189 25.006 63.937 23.246C64.707 21.486 65.774 20.133 67.138 19.187C68.524 18.219 70.097 17.735 71.857 17.735C73.617 17.735 75.179 18.219 76.543 19.187C77.929 20.133 78.996 21.486 79.744 23.246C80.514 25.006 80.899 27.074 80.899 29.45C80.899 31.826 80.514 33.894 79.744 35.654C78.996 37.414 77.929 38.778 76.543 39.746C75.179 40.692 73.617 41.165 71.857 41.165ZM71.857 39.614C73.309 39.614 74.585 39.218 75.685 38.426C76.807 37.612 77.676 36.446 78.292 34.928C78.908 33.388 79.216 31.562 79.216 29.45C79.216 27.338 78.908 25.523 78.292 24.005C77.676 22.465 76.807 21.299 75.685 20.507C74.585 19.693 73.309 19.286 71.857 19.286C70.405 19.286 69.118 19.693 67.996 20.507C66.896 21.299 66.038 22.465 65.422 24.005C64.806 25.523 64.498 27.338 64.498 29.45C64.498 31.562 64.806 33.388 65.422 34.928C66.038 36.446 66.896 37.612 67.996 38.426C69.118 39.218 70.405 39.614 71.857 39.614Z" fill="#060E4F"/>
<rect x="99" width="42" height="57" rx="5" fill="#EFF3FB"/>
<path d="M118.778 17.735C121.77 17.735 124.058 18.758 125.642 20.804C127.248 22.828 128.051 25.666 128.051 29.318C128.051 31.87 127.622 34.037 126.764 35.819C125.928 37.579 124.74 38.91 123.2 39.812C121.66 40.714 119.856 41.165 117.788 41.165C115.61 41.165 113.861 40.769 112.541 39.977L113.234 38.624C114.334 39.328 115.852 39.68 117.788 39.68C120.45 39.68 122.54 38.822 124.058 37.106C125.598 35.368 126.368 32.86 126.368 29.582C126.368 28.57 126.302 27.646 126.17 26.81C125.708 28.306 124.806 29.472 123.464 30.308C122.144 31.144 120.593 31.562 118.811 31.562C117.293 31.562 115.94 31.287 114.752 30.737C113.586 30.165 112.684 29.362 112.046 28.328C111.408 27.272 111.089 26.062 111.089 24.698C111.089 23.312 111.419 22.091 112.079 21.035C112.739 19.979 113.652 19.165 114.818 18.593C115.984 18.021 117.304 17.735 118.778 17.735ZM119.042 30.11C120.274 30.11 121.374 29.868 122.342 29.384C123.332 28.9 124.091 28.24 124.619 27.404C125.169 26.568 125.444 25.633 125.444 24.599C125.444 23.675 125.18 22.795 124.652 21.959C124.146 21.123 123.398 20.452 122.408 19.946C121.418 19.44 120.23 19.187 118.844 19.187C117.04 19.187 115.577 19.693 114.455 20.705C113.333 21.695 112.772 23.015 112.772 24.665C112.772 26.315 113.333 27.635 114.455 28.625C115.577 29.615 117.106 30.11 119.042 30.11Z" fill="#060E4F"/>
<rect x="175" width="42" height="57" rx="5" fill="#EFF3FB"/>
<path d="M195.857 40.165C194.097 40.165 192.524 39.692 191.138 38.746C189.774 37.778 188.707 36.414 187.937 34.654C187.189 32.894 186.815 30.826 186.815 28.45C186.815 26.074 187.189 24.006 187.937 22.246C188.707 20.486 189.774 19.133 191.138 18.187C192.524 17.219 194.097 16.735 195.857 16.735C197.617 16.735 199.179 17.219 200.543 18.187C201.929 19.133 202.996 20.486 203.744 22.246C204.514 24.006 204.899 26.074 204.899 28.45C204.899 30.826 204.514 32.894 203.744 34.654C202.996 36.414 201.929 37.778 200.543 38.746C199.179 39.692 197.617 40.165 195.857 40.165ZM195.857 38.614C197.309 38.614 198.585 38.218 199.685 37.426C200.807 36.612 201.676 35.446 202.292 33.928C202.908 32.388 203.216 30.562 203.216 28.45C203.216 26.338 202.908 24.523 202.292 23.005C201.676 21.465 200.807 20.299 199.685 19.507C198.585 18.693 197.309 18.286 195.857 18.286C194.405 18.286 193.118 18.693 191.996 19.507C190.896 20.299 190.038 21.465 189.422 23.005C188.806 24.523 188.498 26.338 188.498 28.45C188.498 30.562 188.806 32.388 189.422 33.928C190.038 35.446 190.896 36.612 191.996 37.426C193.118 38.218 194.405 38.614 195.857 38.614Z" fill="#060E4F"/>
<rect x="223" width="42" height="57" rx="5" fill="#EFF3FB"/>
<path d="M243.857 40.165C242.097 40.165 240.524 39.692 239.138 38.746C237.774 37.778 236.707 36.414 235.937 34.654C235.189 32.894 234.815 30.826 234.815 28.45C234.815 26.074 235.189 24.006 235.937 22.246C236.707 20.486 237.774 19.133 239.138 18.187C240.524 17.219 242.097 16.735 243.857 16.735C245.617 16.735 247.179 17.219 248.543 18.187C249.929 19.133 250.996 20.486 251.744 22.246C252.514 24.006 252.899 26.074 252.899 28.45C252.899 30.826 252.514 32.894 251.744 34.654C250.996 36.414 249.929 37.778 248.543 38.746C247.179 39.692 245.617 40.165 243.857 40.165ZM243.857 38.614C245.309 38.614 246.585 38.218 247.685 37.426C248.807 36.612 249.676 35.446 250.292 33.928C250.908 32.388 251.216 30.562 251.216 28.45C251.216 26.338 250.908 24.523 250.292 23.005C249.676 21.465 248.807 20.299 247.685 19.507C246.585 18.693 245.309 18.286 243.857 18.286C242.405 18.286 241.118 18.693 239.996 19.507C238.896 20.299 238.038 21.465 237.422 23.005C236.806 24.523 236.498 26.338 236.498 28.45C236.498 30.562 236.806 32.388 237.422 33.928C238.038 35.446 238.896 36.612 239.996 37.426C241.118 38.218 242.405 38.614 243.857 38.614Z" fill="#060E4F"/>
<circle cx="158.5" cy="21.5" r="2.5" fill="#060E4F"/>
<circle cx="158.5" cy="36.5" r="2.5" fill="#060E4F"/>
<path d="M5.64 25.48C6.93333 25.48 7.92667 25.8133 8.62 26.48C9.31333 27.1333 9.66 28.1 9.66 29.38V36H8.7V34.14C8.36667 34.7533 7.88 35.2333 7.24 35.58C6.6 35.9133 5.83333 36.08 4.94 36.08C3.78 36.08 2.86 35.8067 2.18 35.26C1.51333 34.7133 1.18 33.9933 1.18 33.1C1.18 32.2333 1.48667 31.5333 2.1 31C2.72667 30.4533 3.72 30.18 5.08 30.18H8.66V29.34C8.66 28.3667 8.39333 27.6267 7.86 27.12C7.34 26.6133 6.57333 26.36 5.56 26.36C4.86667 26.36 4.2 26.48 3.56 26.72C2.93333 26.96 2.4 27.28 1.96 27.68L1.46 26.96C1.98 26.4933 2.60667 26.1333 3.34 25.88C4.07333 25.6133 4.84 25.48 5.64 25.48ZM5.08 35.26C5.94667 35.26 6.68 35.06 7.28 34.66C7.89333 34.26 8.35333 33.68 8.66 32.92V30.96H5.1C4.07333 30.96 3.32667 31.1467 2.86 31.52C2.40667 31.8933 2.18 32.4067 2.18 33.06C2.18 33.74 2.43333 34.28 2.94 34.68C3.44667 35.0667 4.16 35.26 5.08 35.26ZM18.9602 35.34C18.7068 35.58 18.3868 35.7667 18.0002 35.9C17.6268 36.02 17.2335 36.08 16.8202 36.08C15.9135 36.08 15.2135 35.8333 14.7202 35.34C14.2268 34.8333 13.9802 34.1333 13.9802 33.24V26.42H12.0602V25.56H13.9802V23.28H14.9802V25.56H18.3002V26.42H14.9802V33.14C14.9802 33.82 15.1402 34.34 15.4602 34.7C15.7935 35.0467 16.2802 35.22 16.9202 35.22C17.5735 35.22 18.1135 35.0267 18.5402 34.64L18.9602 35.34Z" fill="black"/>
<rect x="51" y="83" width="42" height="57" rx="5" fill="#EFF3FB"/>
<path d="M78.226 122.482V124H62.353V122.812L72.121 113.11C73.397 111.834 74.255 110.745 74.695 109.843C75.157 108.919 75.388 107.973 75.388 107.005C75.388 105.531 74.882 104.376 73.87 103.54C72.88 102.704 71.439 102.286 69.547 102.286C68.095 102.286 66.819 102.506 65.719 102.946C64.641 103.386 63.706 104.057 62.914 104.959L61.726 103.903C62.606 102.891 63.717 102.11 65.059 101.56C66.423 101.01 67.963 100.735 69.679 100.735C71.945 100.735 73.749 101.285 75.091 102.385C76.433 103.485 77.104 104.97 77.104 106.84C77.104 108.028 76.84 109.161 76.312 110.239C75.784 111.317 74.794 112.571 73.342 114.001L64.828 122.482H78.226Z" fill="#060E4F"/>
<rect x="99" y="83" width="42" height="57" rx="5" fill="#EFF3FB"/>
<path d="M124.19 111.922C125.774 112.34 126.995 113.044 127.853 114.034C128.733 115.024 129.173 116.234 129.173 117.664C129.173 119.688 128.392 121.283 126.83 122.449C125.268 123.593 123.123 124.165 120.395 124.165C117.689 124.165 115.555 123.593 113.993 122.449C112.453 121.283 111.683 119.688 111.683 117.664C111.683 116.212 112.101 115.002 112.937 114.034C113.795 113.044 115.016 112.34 116.6 111.922C115.28 111.482 114.268 110.822 113.564 109.942C112.86 109.062 112.508 107.984 112.508 106.708C112.508 104.86 113.223 103.408 114.653 102.352C116.083 101.274 117.997 100.735 120.395 100.735C122.793 100.735 124.718 101.274 126.17 102.352C127.622 103.43 128.348 104.882 128.348 106.708C128.348 107.962 127.985 109.04 127.259 109.942C126.555 110.822 125.532 111.482 124.19 111.922ZM114.191 106.741C114.191 108.127 114.73 109.227 115.808 110.041C116.908 110.855 118.437 111.262 120.395 111.262C122.353 111.262 123.882 110.866 124.982 110.074C126.104 109.26 126.665 108.16 126.665 106.774C126.665 105.366 126.093 104.255 124.949 103.441C123.827 102.605 122.309 102.187 120.395 102.187C118.481 102.187 116.963 102.594 115.841 103.408C114.741 104.222 114.191 105.333 114.191 106.741ZM120.395 122.713C122.617 122.713 124.355 122.262 125.609 121.36C126.863 120.458 127.49 119.226 127.49 117.664C127.49 116.124 126.863 114.903 125.609 114.001C124.355 113.099 122.617 112.648 120.395 112.648C118.195 112.648 116.468 113.099 115.214 114.001C113.982 114.903 113.366 116.124 113.366 117.664C113.366 119.226 113.982 120.458 115.214 121.36C116.446 122.262 118.173 122.713 120.395 122.713Z" fill="#060E4F"/>
<rect x="175" y="83" width="42" height="57" rx="5" fill="#EFF3FB"/>
<path d="M195.857 123.165C194.097 123.165 192.524 122.692 191.138 121.746C189.774 120.778 188.707 119.414 187.937 117.654C187.189 115.894 186.815 113.826 186.815 111.45C186.815 109.074 187.189 107.006 187.937 105.246C188.707 103.486 189.774 102.133 191.138 101.187C192.524 100.219 194.097 99.735 195.857 99.735C197.617 99.735 199.179 100.219 200.543 101.187C201.929 102.133 202.996 103.486 203.744 105.246C204.514 107.006 204.899 109.074 204.899 111.45C204.899 113.826 204.514 115.894 203.744 117.654C202.996 119.414 201.929 120.778 200.543 121.746C199.179 122.692 197.617 123.165 195.857 123.165ZM195.857 121.614C197.309 121.614 198.585 121.218 199.685 120.426C200.807 119.612 201.676 118.446 202.292 116.928C202.908 115.388 203.216 113.562 203.216 111.45C203.216 109.338 202.908 107.523 202.292 106.005C201.676 104.465 200.807 103.299 199.685 102.507C198.585 101.693 197.309 101.286 195.857 101.286C194.405 101.286 193.118 101.693 191.996 102.507C190.896 103.299 190.038 104.465 189.422 106.005C188.806 107.523 188.498 109.338 188.498 111.45C188.498 113.562 188.806 115.388 189.422 116.928C190.038 118.446 190.896 119.612 191.996 120.426C193.118 121.218 194.405 121.614 195.857 121.614Z" fill="#060E4F"/>
<rect x="223" y="83" width="42" height="57" rx="5" fill="#EFF3FB"/>
<path d="M240.458 109.569C243.824 109.569 246.266 110.163 247.784 111.351C249.302 112.517 250.061 114.178 250.061 116.334C250.061 117.654 249.753 118.831 249.137 119.865C248.543 120.877 247.641 121.68 246.431 122.274C245.221 122.868 243.736 123.165 241.976 123.165C240.304 123.165 238.731 122.879 237.257 122.307C235.805 121.735 234.672 120.987 233.858 120.063L234.716 118.776C235.442 119.612 236.443 120.294 237.719 120.822C239.017 121.35 240.425 121.614 241.943 121.614C244.011 121.614 245.595 121.141 246.695 120.195C247.817 119.249 248.378 117.984 248.378 116.4C248.378 114.662 247.74 113.342 246.464 112.44C245.21 111.538 243.087 111.087 240.095 111.087H235.409L236.63 99.9H248.873V101.418H238.049L237.158 109.569H240.458Z" fill="#060E4F"/>
<path d="M6.2 119.08C5.21333 119.08 4.32 118.853 3.52 118.4C2.73333 117.947 2.11333 117.32 1.66 116.52C1.20667 115.707 0.98 114.793 0.98 113.78C0.98 112.767 1.20667 111.86 1.66 111.06C2.11333 110.247 2.73333 109.613 3.52 109.16C4.32 108.707 5.21333 108.48 6.2 108.48C7.18667 108.48 8.07333 108.707 8.86 109.16C9.66 109.613 10.2867 110.247 10.74 111.06C11.1933 111.86 11.42 112.767 11.42 113.78C11.42 114.793 11.1933 115.707 10.74 116.52C10.2867 117.32 9.66 117.947 8.86 118.4C8.07333 118.853 7.18667 119.08 6.2 119.08ZM6.2 118.18C7 118.18 7.71333 117.993 8.34 117.62C8.98 117.247 9.48 116.727 9.84 116.06C10.2133 115.393 10.4 114.633 10.4 113.78C10.4 112.927 10.2133 112.167 9.84 111.5C9.48 110.833 8.98 110.313 8.34 109.94C7.71333 109.567 7 109.38 6.2 109.38C5.4 109.38 4.68 109.567 4.04 109.94C3.41333 110.313 2.91333 110.833 2.54 111.5C2.18 112.167 2 112.927 2 113.78C2 114.633 2.18 115.393 2.54 116.06C2.91333 116.727 3.41333 117.247 4.04 117.62C4.68 117.993 5.4 118.18 6.2 118.18ZM19.6223 108.48C20.929 108.48 21.9623 108.86 22.7223 109.62C23.4823 110.38 23.8623 111.473 23.8623 112.9V119H22.8623V112.98C22.8623 111.807 22.5623 110.913 21.9623 110.3C21.3757 109.687 20.549 109.38 19.4823 109.38C18.2557 109.38 17.289 109.747 16.5823 110.48C15.8757 111.213 15.5223 112.2 15.5223 113.44V119H14.5223V108.56H15.4823V110.82C15.8423 110.087 16.3757 109.513 17.0823 109.1C17.8023 108.687 18.649 108.48 19.6223 108.48Z" fill="black"/>
<rect x="163.414" y="84" width="2" height="57" rx="1" transform="rotate(11.5507 163.414 84)" fill="#060E4F"/>
</svg>
