<svg width="376" height="303" viewBox="0 0 376 303" fill="none" xmlns="http://www.w3.org/2000/svg">
<rect width="376" height="303" rx="6" fill="white"/>
<path d="M43.961 49.266C42.5677 49.266 41.3137 48.9747 40.199 48.392C39.097 47.7967 38.2293 46.9733 37.596 45.922C36.9627 44.8707 36.646 43.68 36.646 42.35C36.646 41.02 36.9627 39.8293 37.596 38.778C38.2293 37.7267 39.097 36.9097 40.199 36.327C41.3137 35.7317 42.5677 35.434 43.961 35.434C45.177 35.434 46.2727 35.6493 47.248 36.08C48.2233 36.5107 49.034 37.1313 49.68 37.942L47.286 40.108C46.4247 39.0693 45.3797 38.55 44.151 38.55C43.429 38.55 42.783 38.7083 42.213 39.025C41.6557 39.3417 41.2187 39.7913 40.902 40.374C40.598 40.944 40.446 41.6027 40.446 42.35C40.446 43.0973 40.598 43.7623 40.902 44.345C41.2187 44.915 41.6557 45.3583 42.213 45.675C42.783 45.9917 43.429 46.15 44.151 46.15C45.3797 46.15 46.4247 45.6307 47.286 44.592L49.68 46.758C49.034 47.5687 48.2233 48.1893 47.248 48.62C46.2727 49.0507 45.177 49.266 43.961 49.266ZM56.0389 49.171C54.9369 49.171 53.9426 48.943 53.0559 48.487C52.1692 48.031 51.4726 47.3977 50.9659 46.587C50.4719 45.7763 50.2249 44.858 50.2249 43.832C50.2249 42.8187 50.4719 41.9067 50.9659 41.096C51.4726 40.2853 52.1629 39.6583 53.0369 39.215C53.9236 38.759 54.9242 38.531 56.0389 38.531C57.1536 38.531 58.1542 38.759 59.0409 39.215C59.9276 39.6583 60.6179 40.2853 61.1119 41.096C61.6059 41.894 61.8529 42.806 61.8529 43.832C61.8529 44.858 61.6059 45.7763 61.1119 46.587C60.6179 47.3977 59.9276 48.031 59.0409 48.487C58.1542 48.943 57.1536 49.171 56.0389 49.171ZM56.0389 46.302C56.6722 46.302 57.1916 46.0867 57.5969 45.656C58.0022 45.2127 58.2049 44.6047 58.2049 43.832C58.2049 43.072 58.0022 42.4767 57.5969 42.046C57.1916 41.6153 56.6722 41.4 56.0389 41.4C55.4056 41.4 54.8862 41.6153 54.4809 42.046C54.0756 42.4767 53.8729 43.072 53.8729 43.832C53.8729 44.6047 54.0756 45.2127 54.4809 45.656C54.8862 46.0867 55.4056 46.302 56.0389 46.302ZM76.9392 38.531C78.2059 38.531 79.2129 38.911 79.9602 39.671C80.7202 40.431 81.1002 41.5773 81.1002 43.11V49H77.4902V43.699C77.4902 42.977 77.3509 42.445 77.0722 42.103C76.8062 41.761 76.4262 41.59 75.9322 41.59C75.3875 41.59 74.9505 41.78 74.6212 42.16C74.2919 42.54 74.1272 43.1163 74.1272 43.889V49H70.5172V43.699C70.5172 42.293 69.9979 41.59 68.9592 41.59C68.4019 41.59 67.9585 41.78 67.6292 42.16C67.2999 42.54 67.1352 43.1163 67.1352 43.889V49H63.5252V38.702H66.9642V39.785C67.3442 39.367 67.7939 39.0567 68.3132 38.854C68.8452 38.6387 69.4215 38.531 70.0422 38.531C70.7642 38.531 71.4102 38.664 71.9802 38.93C72.5502 39.196 73.0125 39.6013 73.3672 40.146C73.7725 39.6267 74.2855 39.2277 74.9062 38.949C75.5269 38.6703 76.2045 38.531 76.9392 38.531ZM89.8577 38.531C90.7951 38.531 91.6437 38.7527 92.4037 39.196C93.1764 39.6267 93.7844 40.2473 94.2277 41.058C94.6837 41.856 94.9117 42.787 94.9117 43.851C94.9117 44.915 94.6837 45.8523 94.2277 46.663C93.7844 47.461 93.1764 48.0817 92.4037 48.525C91.6437 48.9557 90.7951 49.171 89.8577 49.171C88.6544 49.171 87.6981 48.81 86.9887 48.088V52.686H83.3787V38.702H86.8177V39.728C87.4891 38.93 88.5024 38.531 89.8577 38.531ZM89.0977 46.302C89.7311 46.302 90.2504 46.0867 90.6557 45.656C91.0611 45.2127 91.2637 44.611 91.2637 43.851C91.2637 43.091 91.0611 42.4957 90.6557 42.065C90.2504 41.6217 89.7311 41.4 89.0977 41.4C88.4644 41.4 87.9451 41.6217 87.5397 42.065C87.1344 42.4957 86.9317 43.091 86.9317 43.851C86.9317 44.611 87.1344 45.2127 87.5397 45.656C87.9451 46.0867 88.4644 46.302 89.0977 46.302ZM96.5897 34.902H100.2V49H96.5897V34.902ZM113.072 43.87C113.072 43.8953 113.053 44.193 113.015 44.763H105.529C105.681 45.295 105.972 45.7067 106.403 45.998C106.846 46.2767 107.397 46.416 108.056 46.416C108.55 46.416 108.974 46.3463 109.329 46.207C109.696 46.0677 110.063 45.8397 110.431 45.523L112.331 47.499C111.33 48.6137 109.867 49.171 107.942 49.171C106.738 49.171 105.681 48.943 104.769 48.487C103.857 48.031 103.147 47.3977 102.641 46.587C102.147 45.7763 101.9 44.858 101.9 43.832C101.9 42.8187 102.14 41.913 102.622 41.115C103.116 40.3043 103.793 39.671 104.655 39.215C105.516 38.759 106.485 38.531 107.562 38.531C108.588 38.531 109.519 38.7463 110.355 39.177C111.191 39.595 111.849 40.2093 112.331 41.02C112.825 41.818 113.072 42.768 113.072 43.87ZM107.581 41.096C107.023 41.096 106.555 41.2543 106.175 41.571C105.807 41.8877 105.573 42.3183 105.472 42.863H109.69C109.588 42.3183 109.348 41.8877 108.968 41.571C108.6 41.2543 108.138 41.096 107.581 41.096ZM121.842 48.582C121.538 48.772 121.164 48.9177 120.721 49.019C120.29 49.1203 119.828 49.171 119.334 49.171C117.991 49.171 116.959 48.8417 116.237 48.183C115.515 47.5243 115.154 46.5427 115.154 45.238V41.78H113.653V39.082H115.154V36.403H118.764V39.082H121.12V41.78H118.764V45.2C118.764 45.5673 118.859 45.8587 119.049 46.074C119.252 46.2767 119.518 46.378 119.847 46.378C120.265 46.378 120.632 46.2703 120.949 46.055L121.842 48.582ZM133.463 43.87C133.463 43.8953 133.444 44.193 133.406 44.763H125.92C126.072 45.295 126.364 45.7067 126.794 45.998C127.238 46.2767 127.789 46.416 128.447 46.416C128.941 46.416 129.366 46.3463 129.72 46.207C130.088 46.0677 130.455 45.8397 130.822 45.523L132.722 47.499C131.722 48.6137 130.259 49.171 128.333 49.171C127.13 49.171 126.072 48.943 125.16 48.487C124.248 48.031 123.539 47.3977 123.032 46.587C122.538 45.7763 122.291 44.858 122.291 43.832C122.291 42.8187 122.532 41.913 123.013 41.115C123.507 40.3043 124.185 39.671 125.046 39.215C125.908 38.759 126.877 38.531 127.953 38.531C128.979 38.531 129.91 38.7463 130.746 39.177C131.582 39.595 132.241 40.2093 132.722 41.02C133.216 41.818 133.463 42.768 133.463 43.87ZM127.972 41.096C127.415 41.096 126.946 41.2543 126.566 41.571C126.199 41.8877 125.965 42.3183 125.863 42.863H130.081C129.98 42.3183 129.739 41.8877 129.359 41.571C128.992 41.2543 128.53 41.096 127.972 41.096ZM146.072 34.902V49H142.633V47.974C141.961 48.772 140.954 49.171 139.612 49.171C138.674 49.171 137.819 48.9557 137.047 48.525C136.274 48.0817 135.66 47.4547 135.204 46.644C134.76 45.8333 134.539 44.896 134.539 43.832C134.539 42.768 134.76 41.837 135.204 41.039C135.66 40.2283 136.274 39.6077 137.047 39.177C137.819 38.7463 138.674 38.531 139.612 38.531C140.84 38.531 141.79 38.8857 142.462 39.595V34.902H146.072ZM140.372 46.302C140.992 46.302 141.505 46.0867 141.911 45.656C142.316 45.2127 142.519 44.6047 142.519 43.832C142.519 43.072 142.316 42.4767 141.911 42.046C141.518 41.6153 141.005 41.4 140.372 41.4C139.738 41.4 139.219 41.6153 138.814 42.046C138.408 42.4767 138.206 43.072 138.206 43.832C138.206 44.6047 138.408 45.2127 138.814 45.656C139.219 46.0867 139.738 46.302 140.372 46.302ZM159.092 49.171C157.99 49.171 156.995 48.943 156.109 48.487C155.222 48.031 154.525 47.3977 154.019 46.587C153.525 45.7763 153.278 44.858 153.278 43.832C153.278 42.8187 153.525 41.9067 154.019 41.096C154.525 40.2853 155.216 39.6583 156.09 39.215C156.976 38.759 157.977 38.531 159.092 38.531C160.206 38.531 161.207 38.759 162.094 39.215C162.98 39.6583 163.671 40.2853 164.165 41.096C164.659 41.894 164.906 42.806 164.906 43.832C164.906 44.858 164.659 45.7763 164.165 46.587C163.671 47.3977 162.98 48.031 162.094 48.487C161.207 48.943 160.206 49.171 159.092 49.171ZM159.092 46.302C159.725 46.302 160.244 46.0867 160.65 45.656C161.055 45.2127 161.258 44.6047 161.258 43.832C161.258 43.072 161.055 42.4767 160.65 42.046C160.244 41.6153 159.725 41.4 159.092 41.4C158.458 41.4 157.939 41.6153 157.534 42.046C157.128 42.4767 156.926 43.072 156.926 43.832C156.926 44.6047 157.128 45.2127 157.534 45.656C157.939 46.0867 158.458 46.302 159.092 46.302ZM170.017 39.937C170.384 39.4683 170.859 39.12 171.442 38.892C172.037 38.6513 172.715 38.531 173.475 38.531V41.78C173.146 41.742 172.873 41.723 172.658 41.723C171.885 41.723 171.277 41.932 170.834 42.35C170.403 42.768 170.188 43.4077 170.188 44.269V49H166.578V38.702H170.017V39.937ZM185.816 34.902V49H182.377V47.974C181.706 48.772 180.699 49.171 179.356 49.171C178.419 49.171 177.564 48.9557 176.791 48.525C176.018 48.0817 175.404 47.4547 174.948 46.644C174.505 45.8333 174.283 44.896 174.283 43.832C174.283 42.768 174.505 41.837 174.948 41.039C175.404 40.2283 176.018 39.6077 176.791 39.177C177.564 38.7463 178.419 38.531 179.356 38.531C180.585 38.531 181.535 38.8857 182.206 39.595V34.902H185.816ZM180.116 46.302C180.737 46.302 181.25 46.0867 181.655 45.656C182.06 45.2127 182.263 44.6047 182.263 43.832C182.263 43.072 182.06 42.4767 181.655 42.046C181.262 41.6153 180.749 41.4 180.116 41.4C179.483 41.4 178.963 41.6153 178.558 42.046C178.153 42.4767 177.95 43.072 177.95 43.832C177.95 44.6047 178.153 45.2127 178.558 45.656C178.963 46.0867 179.483 46.302 180.116 46.302ZM198.664 43.87C198.664 43.8953 198.645 44.193 198.607 44.763H191.121C191.273 45.295 191.565 45.7067 191.995 45.998C192.439 46.2767 192.99 46.416 193.648 46.416C194.142 46.416 194.567 46.3463 194.921 46.207C195.289 46.0677 195.656 45.8397 196.023 45.523L197.923 47.499C196.923 48.6137 195.46 49.171 193.534 49.171C192.331 49.171 191.273 48.943 190.361 48.487C189.449 48.031 188.74 47.3977 188.233 46.587C187.739 45.7763 187.492 44.858 187.492 43.832C187.492 42.8187 187.733 41.913 188.214 41.115C188.708 40.3043 189.386 39.671 190.247 39.215C191.109 38.759 192.078 38.531 193.154 38.531C194.18 38.531 195.111 38.7463 195.947 39.177C196.783 39.595 197.442 40.2093 197.923 41.02C198.417 41.818 198.664 42.768 198.664 43.87ZM193.173 41.096C192.616 41.096 192.147 41.2543 191.767 41.571C191.4 41.8877 191.166 42.3183 191.064 42.863H195.282C195.181 42.3183 194.94 41.8877 194.56 41.571C194.193 41.2543 193.731 41.096 193.173 41.096ZM203.768 39.937C204.135 39.4683 204.61 39.12 205.193 38.892C205.788 38.6513 206.466 38.531 207.226 38.531V41.78C206.897 41.742 206.624 41.723 206.409 41.723C205.636 41.723 205.028 41.932 204.585 42.35C204.154 42.768 203.939 43.4077 203.939 44.269V49H200.329V38.702H203.768V39.937ZM212.477 49.171C211.616 49.171 210.767 49.076 209.931 48.886C209.095 48.6833 208.424 48.4237 207.917 48.107L209 45.637C209.469 45.9283 210.026 46.1627 210.672 46.34C211.318 46.5047 211.958 46.587 212.591 46.587C213.174 46.587 213.586 46.53 213.826 46.416C214.08 46.2893 214.206 46.112 214.206 45.884C214.206 45.656 214.054 45.4977 213.75 45.409C213.459 45.3077 212.99 45.2127 212.344 45.124C211.521 45.0227 210.818 44.8897 210.235 44.725C209.665 44.5603 209.171 44.2563 208.753 43.813C208.335 43.3697 208.126 42.749 208.126 41.951C208.126 41.2923 208.323 40.7097 208.715 40.203C209.108 39.6837 209.678 39.2783 210.425 38.987C211.185 38.683 212.091 38.531 213.142 38.531C213.89 38.531 214.631 38.607 215.365 38.759C216.1 38.911 216.714 39.1263 217.208 39.405L216.125 41.856C215.213 41.3493 214.225 41.096 213.161 41.096C212.591 41.096 212.173 41.1657 211.907 41.305C211.641 41.4317 211.508 41.6027 211.508 41.818C211.508 42.0587 211.654 42.2297 211.945 42.331C212.237 42.4197 212.718 42.5147 213.389 42.616C214.238 42.7427 214.941 42.8883 215.498 43.053C216.056 43.2177 216.537 43.5217 216.942 43.965C217.36 44.3957 217.569 45.0037 217.569 45.789C217.569 46.435 217.373 47.0177 216.98 47.537C216.588 48.0437 216.005 48.4427 215.232 48.734C214.472 49.0253 213.554 49.171 212.477 49.171Z" fill="#363565"/>
<rect x="312" y="26" width="32" height="32" rx="12" fill="#FFEDEF"/>
<path fill-rule="evenodd" clip-rule="evenodd" d="M332.096 39.75V38.1543H335.25V36.5957H332.096V35H330.5V39.75H332.096ZM328.904 38.1543V36.5957H321V38.1543H328.904ZM325.75 44.5V39.75H324.154V41.3457H321V42.9043H324.154V44.5H325.75ZM335.25 42.9043V41.3457H327.346V42.9043H335.25ZM328.904 49.25V47.6543H335.25V46.0957H328.904V44.5H327.346V49.25H328.904ZM325.75 47.6543V46.0957H321V47.6543H325.75Z" fill="#E95060"/>
<path d="M44.656 103.632C44.912 103.707 45.136 103.829 45.328 104C45.52 104.16 45.7067 104.389 45.888 104.688L47.04 106.56L45.312 107.392L43.76 104.88C43.4613 104.389 42.9547 104.144 42.24 104.144C41.1413 104.144 40.1867 103.909 39.376 103.44C38.576 102.971 37.9573 102.299 37.52 101.424C37.0827 100.549 36.864 99.5253 36.864 98.352C36.864 97.1787 37.0827 96.16 37.52 95.296C37.9573 94.4213 38.576 93.7493 39.376 93.28C40.1867 92.8107 41.1413 92.576 42.24 92.576C43.328 92.576 44.272 92.8107 45.072 93.28C45.8827 93.7493 46.5067 94.4213 46.944 95.296C47.3813 96.16 47.6 97.1787 47.6 98.352C47.6 99.632 47.344 100.731 46.832 101.648C46.3307 102.555 45.6053 103.216 44.656 103.632ZM42.24 102.496C43.2747 102.496 44.08 102.139 44.656 101.424C45.2427 100.709 45.536 99.6853 45.536 98.352C45.536 97.0187 45.2427 96 44.656 95.296C44.08 94.5813 43.2747 94.224 42.24 94.224C41.1947 94.224 40.3787 94.5813 39.792 95.296C39.216 96 38.928 97.0187 38.928 98.352C38.928 99.6853 39.216 100.709 39.792 101.424C40.3787 102.139 41.1947 102.496 42.24 102.496ZM56.6927 96.176V104H54.7408V102.8C54.4954 103.227 54.1648 103.557 53.7488 103.792C53.3328 104.016 52.8634 104.128 52.3408 104.128C50.4208 104.128 49.4608 103.051 49.4608 100.896V96.176H51.4608V100.912C51.4608 101.467 51.5728 101.877 51.7968 102.144C52.0208 102.411 52.3728 102.544 52.8528 102.544C53.4074 102.544 53.8501 102.363 54.1808 102C54.5221 101.627 54.6928 101.136 54.6928 100.528V96.176H56.6927ZM62.1344 95.984C63.233 95.984 64.049 96.2507 64.5824 96.784C65.1157 97.3173 65.3824 98.1387 65.3824 99.248V104H63.4784V102.8C63.297 103.216 63.009 103.541 62.6144 103.776C62.2304 104.011 61.7824 104.128 61.2704 104.128C60.7477 104.128 60.273 104.021 59.8464 103.808C59.4197 103.595 59.0837 103.301 58.8384 102.928C58.593 102.555 58.4704 102.139 58.4704 101.68C58.4704 101.104 58.6144 100.651 58.9024 100.32C59.201 99.9893 59.681 99.7493 60.3424 99.6C61.0037 99.4507 61.9157 99.376 63.0784 99.376H63.4784V99.008C63.4784 98.4747 63.361 98.0907 63.1264 97.856C62.9024 97.6213 62.5237 97.504 61.9904 97.504C61.5744 97.504 61.137 97.5787 60.6784 97.728C60.2304 97.8667 59.7877 98.064 59.3504 98.32L58.7904 96.944C59.2277 96.6667 59.7557 96.4373 60.3744 96.256C60.993 96.0747 61.5797 95.984 62.1344 95.984ZM61.6704 102.688C62.2037 102.688 62.6357 102.512 62.9664 102.16C63.3077 101.797 63.4784 101.333 63.4784 100.768V100.432H63.1904C62.4757 100.432 61.921 100.464 61.5264 100.528C61.1317 100.592 60.849 100.704 60.6784 100.864C60.5077 101.024 60.4224 101.243 60.4224 101.52C60.4224 101.861 60.5397 102.144 60.7744 102.368C61.009 102.581 61.3077 102.688 61.6704 102.688ZM71.959 95.984C72.8977 95.984 73.5963 96.2507 74.055 96.784C74.5137 97.3173 74.743 98.1227 74.743 99.2V104H72.743V99.312C72.743 98.704 72.6257 98.2613 72.391 97.984C72.167 97.7067 71.8097 97.568 71.319 97.568C70.743 97.568 70.279 97.7493 69.927 98.112C69.5857 98.4747 69.415 98.96 69.415 99.568V104H67.415V96.176H69.367V97.344C69.6337 96.9067 69.991 96.5707 70.439 96.336C70.887 96.1013 71.3937 95.984 71.959 95.984ZM84.3904 96.176V103.28C84.3904 104.507 84.049 105.435 83.3664 106.064C82.6944 106.693 81.697 107.008 80.3744 107.008C79.6917 107.008 79.0357 106.917 78.4064 106.736C77.777 106.565 77.2277 106.32 76.7584 106L77.3184 104.592C78.289 105.179 79.2917 105.472 80.3264 105.472C81.713 105.472 82.4064 104.789 82.4064 103.424V102.4C82.1717 102.837 81.8304 103.179 81.3824 103.424C80.9344 103.659 80.4224 103.776 79.8464 103.776C79.1637 103.776 78.5557 103.616 78.0224 103.296C77.4997 102.965 77.089 102.507 76.7904 101.92C76.4917 101.333 76.3424 100.656 76.3424 99.888C76.3424 99.12 76.4864 98.4427 76.7744 97.856C77.073 97.2587 77.489 96.8 78.0224 96.48C78.5557 96.1493 79.1637 95.984 79.8464 95.984C80.4224 95.984 80.9344 96.1067 81.3824 96.352C81.8304 96.5867 82.1717 96.9227 82.4064 97.36V96.176H84.3904ZM80.3744 102.224C81.0144 102.224 81.5104 102.016 81.8624 101.6C82.225 101.184 82.4064 100.613 82.4064 99.888C82.4064 99.152 82.225 98.576 81.8624 98.16C81.5104 97.744 81.0144 97.536 80.3744 97.536C79.745 97.536 79.249 97.744 78.8864 98.16C78.5237 98.576 78.3424 99.152 78.3424 99.888C78.3424 100.603 78.5237 101.173 78.8864 101.6C79.249 102.016 79.745 102.224 80.3744 102.224ZM100.806 92.72V104H98.7896V99.104H93.0136V104H90.9816V92.72H93.0136V97.44H98.7896V92.72H100.806ZM110.24 96.176V104H108.288V102.8C108.042 103.227 107.712 103.557 107.296 103.792C106.88 104.016 106.41 104.128 105.888 104.128C103.968 104.128 103.008 103.051 103.008 100.896V96.176H105.008V100.912C105.008 101.467 105.12 101.877 105.344 102.144C105.568 102.411 105.92 102.544 106.4 102.544C106.954 102.544 107.397 102.363 107.728 102C108.069 101.627 108.24 101.136 108.24 100.528V96.176H110.24ZM119.777 96.192L115.073 106.88H113.057L114.481 103.696L111.217 96.192H113.329L115.537 101.712L117.809 96.192H119.777Z" fill="#363565"/>
<path d="M40.896 119.723H38.979V121.631H38.421V119.723H36.504V119.156H38.421V117.239H38.979V119.156H40.896V119.723ZM45.1945 118.742C45.5665 118.856 45.8545 119.051 46.0585 119.327C46.2685 119.603 46.3735 119.933 46.3735 120.317C46.3735 120.863 46.1755 121.292 45.7795 121.604C45.3835 121.91 44.8225 122.063 44.0965 122.063C43.3705 122.063 42.8095 121.91 42.4135 121.604C42.0175 121.292 41.8195 120.863 41.8195 120.317C41.8195 119.927 41.9245 119.594 42.1345 119.318C42.3445 119.042 42.6355 118.85 43.0075 118.742C42.6895 118.622 42.4375 118.433 42.2515 118.175C42.0655 117.917 41.9725 117.614 41.9725 117.266C41.9725 116.75 42.1585 116.342 42.5305 116.042C42.9085 115.736 43.4305 115.583 44.0965 115.583C44.7625 115.583 45.2815 115.736 45.6535 116.042C46.0315 116.342 46.2205 116.75 46.2205 117.266C46.2205 117.614 46.1275 117.92 45.9415 118.184C45.7555 118.442 45.5065 118.628 45.1945 118.742ZM42.7015 117.32C42.7015 117.692 42.8185 117.977 43.0525 118.175C43.2925 118.373 43.6405 118.472 44.0965 118.472C44.5525 118.472 44.8975 118.373 45.1315 118.175C45.3715 117.977 45.4915 117.692 45.4915 117.32C45.4915 116.966 45.3715 116.69 45.1315 116.492C44.8975 116.294 44.5525 116.195 44.0965 116.195C43.6405 116.195 43.2925 116.294 43.0525 116.492C42.8185 116.69 42.7015 116.966 42.7015 117.32ZM44.0965 121.451C45.1285 121.451 45.6445 121.058 45.6445 120.272C45.6445 119.486 45.1285 119.093 44.0965 119.093C43.0645 119.093 42.5485 119.486 42.5485 120.272C42.5485 121.058 43.0645 121.451 44.0965 121.451ZM51.869 120.623H50.915V122H50.186V120.623H47.252V120.065L50.312 115.655H50.915V120.011H51.869V120.623ZM50.186 120.011V116.888L48.017 120.011H50.186ZM57.0118 115.583C57.7798 115.583 58.3708 115.85 58.7848 116.384C59.2048 116.918 59.4148 117.68 59.4148 118.67C59.4148 119.744 59.1988 120.581 58.7668 121.181C58.3348 121.775 57.7318 122.072 56.9578 122.072C56.5978 122.072 56.2438 122.006 55.8958 121.874C55.5478 121.736 55.2418 121.541 54.9778 121.289L55.2568 120.722C55.5568 120.974 55.8418 121.16 56.1118 121.28C56.3878 121.394 56.6668 121.451 56.9488 121.451C57.4948 121.451 57.9178 121.211 58.2178 120.731C58.5178 120.245 58.6678 119.561 58.6678 118.679V118.562C58.5298 118.898 58.3048 119.162 57.9928 119.354C57.6868 119.546 57.3388 119.642 56.9488 119.642C56.5648 119.642 56.2228 119.558 55.9228 119.39C55.6228 119.222 55.3888 118.985 55.2208 118.679C55.0528 118.373 54.9688 118.022 54.9688 117.626C54.9688 117.236 55.0558 116.885 55.2298 116.573C55.4038 116.261 55.6468 116.018 55.9588 115.844C56.2708 115.67 56.6218 115.583 57.0118 115.583ZM57.0568 119.021C57.4708 119.021 57.8068 118.892 58.0648 118.634C58.3288 118.37 58.4608 118.031 58.4608 117.617C58.4608 117.197 58.3288 116.858 58.0648 116.6C57.8068 116.336 57.4678 116.204 57.0478 116.204C56.6398 116.204 56.3128 116.333 56.0668 116.591C55.8208 116.849 55.6978 117.191 55.6978 117.617C55.6978 118.043 55.8208 118.385 56.0668 118.643C56.3188 118.895 56.6488 119.021 57.0568 119.021ZM63.4793 118.742C63.8513 118.85 64.1363 119.036 64.3343 119.3C64.5323 119.558 64.6313 119.885 64.6313 120.281C64.6313 120.833 64.4423 121.268 64.0643 121.586C63.6923 121.904 63.1853 122.063 62.5433 122.063C62.1353 122.063 61.7423 121.994 61.3643 121.856C60.9863 121.718 60.6683 121.526 60.4103 121.28L60.6893 120.713C61.2653 121.199 61.8773 121.442 62.5253 121.442C62.9753 121.442 63.3173 121.343 63.5513 121.145C63.7853 120.941 63.9023 120.644 63.9023 120.254C63.9023 119.48 63.4163 119.093 62.4443 119.093H61.7153V118.472H62.3003C62.7683 118.472 63.1283 118.37 63.3803 118.166C63.6323 117.956 63.7583 117.656 63.7583 117.266C63.7583 116.924 63.6563 116.663 63.4523 116.483C63.2483 116.297 62.9573 116.204 62.5793 116.204C61.9673 116.204 61.3673 116.447 60.7793 116.933L60.5002 116.366C60.7583 116.12 61.0733 115.928 61.4453 115.79C61.8173 115.652 62.2043 115.583 62.6063 115.583C63.1823 115.583 63.6383 115.73 63.9743 116.024C64.3163 116.312 64.4873 116.702 64.4873 117.194C64.4873 117.56 64.3973 117.881 64.2173 118.157C64.0433 118.427 63.7973 118.622 63.4793 118.742ZM70.1537 121.379V122H66.0677V121.442L68.2907 118.994C68.5907 118.658 68.8067 118.358 68.9387 118.094C69.0767 117.824 69.1457 117.554 69.1457 117.284C69.1457 116.936 69.0437 116.669 68.8397 116.483C68.6357 116.297 68.3477 116.204 67.9757 116.204C67.3637 116.204 66.7637 116.447 66.1757 116.933L65.8967 116.366C66.1487 116.126 66.4637 115.937 66.8417 115.799C67.2257 115.655 67.6097 115.583 67.9937 115.583C68.5757 115.583 69.0347 115.733 69.3707 116.033C69.7127 116.333 69.8837 116.738 69.8837 117.248C69.8837 117.614 69.7997 117.965 69.6317 118.301C69.4697 118.637 69.1997 119.012 68.8217 119.426L67.0217 121.379H70.1537ZM76.8175 118.742C77.1895 118.856 77.4775 119.051 77.6815 119.327C77.8915 119.603 77.9965 119.933 77.9965 120.317C77.9965 120.863 77.7985 121.292 77.4025 121.604C77.0065 121.91 76.4455 122.063 75.7195 122.063C74.9935 122.063 74.4325 121.91 74.0365 121.604C73.6405 121.292 73.4425 120.863 73.4425 120.317C73.4425 119.927 73.5475 119.594 73.7575 119.318C73.9675 119.042 74.2585 118.85 74.6305 118.742C74.3125 118.622 74.0605 118.433 73.8745 118.175C73.6885 117.917 73.5955 117.614 73.5955 117.266C73.5955 116.75 73.7815 116.342 74.1535 116.042C74.5315 115.736 75.0535 115.583 75.7195 115.583C76.3855 115.583 76.9045 115.736 77.2765 116.042C77.6545 116.342 77.8435 116.75 77.8435 117.266C77.8435 117.614 77.7505 117.92 77.5645 118.184C77.3785 118.442 77.1295 118.628 76.8175 118.742ZM74.3245 117.32C74.3245 117.692 74.4415 117.977 74.6755 118.175C74.9155 118.373 75.2635 118.472 75.7195 118.472C76.1755 118.472 76.5205 118.373 76.7545 118.175C76.9945 117.977 77.1145 117.692 77.1145 117.32C77.1145 116.966 76.9945 116.69 76.7545 116.492C76.5205 116.294 76.1755 116.195 75.7195 116.195C75.2635 116.195 74.9155 116.294 74.6755 116.492C74.4415 116.69 74.3245 116.966 74.3245 117.32ZM75.7195 121.451C76.7515 121.451 77.2675 121.058 77.2675 120.272C77.2675 119.486 76.7515 119.093 75.7195 119.093C74.6875 119.093 74.1715 119.486 74.1715 120.272C74.1715 121.058 74.6875 121.451 75.7195 121.451ZM80.918 115.583C81.686 115.583 82.277 115.85 82.691 116.384C83.111 116.918 83.321 117.68 83.321 118.67C83.321 119.744 83.105 120.581 82.673 121.181C82.241 121.775 81.638 122.072 80.864 122.072C80.504 122.072 80.15 122.006 79.802 121.874C79.454 121.736 79.148 121.541 78.884 121.289L79.163 120.722C79.463 120.974 79.748 121.16 80.018 121.28C80.294 121.394 80.573 121.451 80.855 121.451C81.401 121.451 81.824 121.211 82.124 120.731C82.424 120.245 82.574 119.561 82.574 118.679V118.562C82.436 118.898 82.211 119.162 81.899 119.354C81.593 119.546 81.245 119.642 80.855 119.642C80.471 119.642 80.129 119.558 79.829 119.39C79.529 119.222 79.295 118.985 79.127 118.679C78.959 118.373 78.875 118.022 78.875 117.626C78.875 117.236 78.962 116.885 79.136 116.573C79.31 116.261 79.553 116.018 79.865 115.844C80.177 115.67 80.528 115.583 80.918 115.583ZM80.963 119.021C81.377 119.021 81.713 118.892 81.971 118.634C82.235 118.37 82.367 118.031 82.367 117.617C82.367 117.197 82.235 116.858 81.971 116.6C81.713 116.336 81.374 116.204 80.954 116.204C80.546 116.204 80.219 116.333 79.973 116.591C79.727 116.849 79.604 117.191 79.604 117.617C79.604 118.043 79.727 118.385 79.973 118.643C80.225 118.895 80.555 119.021 80.963 119.021ZM88.5105 121.379V122H84.9825V121.379H86.3775V116.573L85.2615 117.275L84.9195 116.708L86.5845 115.655H87.1155V121.379H88.5105ZM94.0313 115.583C94.7993 115.583 95.3903 115.85 95.8043 116.384C96.2243 116.918 96.4343 117.68 96.4343 118.67C96.4343 119.744 96.2183 120.581 95.7863 121.181C95.3543 121.775 94.7513 122.072 93.9773 122.072C93.6173 122.072 93.2633 122.006 92.9153 121.874C92.5673 121.736 92.2613 121.541 91.9973 121.289L92.2763 120.722C92.5763 120.974 92.8613 121.16 93.1313 121.28C93.4073 121.394 93.6863 121.451 93.9683 121.451C94.5143 121.451 94.9373 121.211 95.2373 120.731C95.5373 120.245 95.6873 119.561 95.6873 118.679V118.562C95.5493 118.898 95.3243 119.162 95.0123 119.354C94.7063 119.546 94.3583 119.642 93.9683 119.642C93.5843 119.642 93.2423 119.558 92.9423 119.39C92.6423 119.222 92.4083 118.985 92.2403 118.679C92.0723 118.373 91.9883 118.022 91.9883 117.626C91.9883 117.236 92.0753 116.885 92.2493 116.573C92.4233 116.261 92.6663 116.018 92.9783 115.844C93.2903 115.67 93.6413 115.583 94.0313 115.583ZM94.0763 119.021C94.4903 119.021 94.8263 118.892 95.0843 118.634C95.3483 118.37 95.4803 118.031 95.4803 117.617C95.4803 117.197 95.3483 116.858 95.0843 116.6C94.8263 116.336 94.4873 116.204 94.0673 116.204C93.6593 116.204 93.3323 116.333 93.0863 116.591C92.8403 116.849 92.7173 117.191 92.7173 117.617C92.7173 118.043 92.8403 118.385 93.0863 118.643C93.3383 118.895 93.6683 119.021 94.0763 119.021ZM100.499 118.742C100.871 118.85 101.156 119.036 101.354 119.3C101.552 119.558 101.651 119.885 101.651 120.281C101.651 120.833 101.462 121.268 101.084 121.586C100.712 121.904 100.205 122.063 99.5628 122.063C99.1548 122.063 98.7618 121.994 98.3838 121.856C98.0058 121.718 97.6878 121.526 97.4298 121.28L97.7088 120.713C98.2848 121.199 98.8968 121.442 99.5448 121.442C99.9948 121.442 100.337 121.343 100.571 121.145C100.805 120.941 100.922 120.644 100.922 120.254C100.922 119.48 100.436 119.093 99.4638 119.093H98.7348V118.472H99.3198C99.7878 118.472 100.148 118.37 100.4 118.166C100.652 117.956 100.778 117.656 100.778 117.266C100.778 116.924 100.676 116.663 100.472 116.483C100.268 116.297 99.9768 116.204 99.5988 116.204C98.9868 116.204 98.3868 116.447 97.7988 116.933L97.5198 116.366C97.7778 116.12 98.0928 115.928 98.4648 115.79C98.8368 115.652 99.2238 115.583 99.6258 115.583C100.202 115.583 100.658 115.73 100.994 116.024C101.336 116.312 101.507 116.702 101.507 117.194C101.507 117.56 101.417 117.881 101.237 118.157C101.063 118.427 100.817 118.622 100.499 118.742ZM106.12 118.742C106.492 118.856 106.78 119.051 106.984 119.327C107.194 119.603 107.299 119.933 107.299 120.317C107.299 120.863 107.101 121.292 106.705 121.604C106.309 121.91 105.748 122.063 105.022 122.063C104.296 122.063 103.735 121.91 103.339 121.604C102.943 121.292 102.745 120.863 102.745 120.317C102.745 119.927 102.85 119.594 103.06 119.318C103.27 119.042 103.561 118.85 103.933 118.742C103.615 118.622 103.363 118.433 103.177 118.175C102.991 117.917 102.898 117.614 102.898 117.266C102.898 116.75 103.084 116.342 103.456 116.042C103.834 115.736 104.356 115.583 105.022 115.583C105.688 115.583 106.207 115.736 106.579 116.042C106.957 116.342 107.146 116.75 107.146 117.266C107.146 117.614 107.053 117.92 106.867 118.184C106.681 118.442 106.432 118.628 106.12 118.742ZM103.627 117.32C103.627 117.692 103.744 117.977 103.978 118.175C104.218 118.373 104.566 118.472 105.022 118.472C105.478 118.472 105.823 118.373 106.057 118.175C106.297 117.977 106.417 117.692 106.417 117.32C106.417 116.966 106.297 116.69 106.057 116.492C105.823 116.294 105.478 116.195 105.022 116.195C104.566 116.195 104.218 116.294 103.978 116.492C103.744 116.69 103.627 116.966 103.627 117.32ZM105.022 121.451C106.054 121.451 106.57 121.058 106.57 120.272C106.57 119.486 106.054 119.093 105.022 119.093C103.99 119.093 103.474 119.486 103.474 120.272C103.474 121.058 103.99 121.451 105.022 121.451Z" fill="#535272"/>
<path d="M231.588 109.752V111H226.368V109.752H228.204V104.304L226.752 105.18L226.14 104.052L228.648 102.54H229.752V109.752H231.588ZM236.323 105.576C236.819 105.576 237.263 105.692 237.655 105.924C238.047 106.148 238.351 106.468 238.567 106.884C238.791 107.292 238.903 107.76 238.903 108.288C238.903 108.832 238.783 109.32 238.543 109.752C238.303 110.176 237.967 110.508 237.535 110.748C237.103 110.988 236.615 111.108 236.071 111.108C234.999 111.108 234.171 110.748 233.587 110.028C233.011 109.3 232.723 108.264 232.723 106.92C232.723 105.992 232.859 105.192 233.131 104.52C233.411 103.84 233.811 103.324 234.331 102.972C234.851 102.612 235.467 102.432 236.179 102.432C236.683 102.432 237.175 102.52 237.655 102.696C238.135 102.864 238.551 103.104 238.903 103.416L238.387 104.544C237.643 103.96 236.927 103.668 236.239 103.668C235.623 103.668 235.143 103.932 234.799 104.46C234.455 104.98 234.275 105.736 234.259 106.728C234.443 106.368 234.719 106.088 235.087 105.888C235.455 105.68 235.867 105.576 236.323 105.576ZM235.999 109.884C236.439 109.884 236.787 109.744 237.043 109.464C237.307 109.184 237.439 108.808 237.439 108.336C237.439 107.872 237.307 107.5 237.043 107.22C236.779 106.94 236.427 106.8 235.987 106.8C235.547 106.8 235.187 106.944 234.907 107.232C234.635 107.512 234.499 107.88 234.499 108.336C234.499 108.8 234.635 109.176 234.907 109.464C235.187 109.744 235.551 109.884 235.999 109.884ZM241.719 105.132V106.788H240.039V105.132H241.719ZM241.719 109.344V111H240.039V109.344H241.719ZM245.967 111.108C244.967 111.108 244.203 110.74 243.675 110.004C243.147 109.26 242.883 108.18 242.883 106.764C242.883 105.364 243.147 104.296 243.675 103.56C244.203 102.824 244.967 102.456 245.967 102.456C246.967 102.456 247.731 102.824 248.259 103.56C248.787 104.296 249.051 105.364 249.051 106.764C249.051 108.172 248.787 109.248 248.259 109.992C247.731 110.736 246.967 111.108 245.967 111.108ZM245.967 109.896C246.511 109.896 246.907 109.648 247.155 109.152C247.403 108.648 247.527 107.852 247.527 106.764C247.527 105.684 247.403 104.9 247.155 104.412C246.907 103.916 246.511 103.668 245.967 103.668C245.423 103.668 245.027 103.916 244.779 104.412C244.531 104.9 244.407 105.684 244.407 106.764C244.407 107.852 244.531 108.648 244.779 109.152C245.027 109.648 245.423 109.896 245.967 109.896ZM256.151 109.752V111H250.931V109.752H252.767V104.304L251.315 105.18L250.703 104.052L253.211 102.54H254.315V109.752H256.151ZM266.58 109.752V111H260.892V109.86L263.772 106.764C264.108 106.396 264.352 106.06 264.504 105.756C264.664 105.444 264.744 105.136 264.744 104.832C264.744 104.448 264.632 104.16 264.408 103.968C264.192 103.768 263.872 103.668 263.448 103.668C262.688 103.668 261.924 103.96 261.156 104.544L260.64 103.416C260.976 103.12 261.404 102.884 261.924 102.708C262.452 102.524 262.98 102.432 263.508 102.432C264.356 102.432 265.028 102.64 265.524 103.056C266.02 103.472 266.268 104.032 266.268 104.736C266.268 105.224 266.164 105.684 265.956 106.116C265.748 106.54 265.396 107.016 264.9 107.544L262.824 109.752H266.58ZM271.279 105.588C271.807 105.588 272.271 105.704 272.671 105.936C273.079 106.16 273.391 106.476 273.607 106.884C273.831 107.292 273.943 107.76 273.943 108.288C273.943 108.848 273.815 109.34 273.559 109.764C273.303 110.188 272.939 110.516 272.467 110.748C272.003 110.98 271.455 111.096 270.823 111.096C270.295 111.096 269.771 111.008 269.251 110.832C268.739 110.648 268.315 110.408 267.979 110.112L268.495 108.984C269.263 109.568 270.047 109.86 270.847 109.86C271.375 109.86 271.779 109.728 272.059 109.464C272.339 109.2 272.479 108.824 272.479 108.336C272.479 107.864 272.335 107.492 272.047 107.22C271.767 106.94 271.383 106.8 270.895 106.8C270.567 106.8 270.255 106.864 269.959 106.992C269.671 107.112 269.411 107.288 269.179 107.52H268.255V102.54H273.559V103.74H269.767V106.02C270.175 105.732 270.679 105.588 271.279 105.588ZM286.844 102.54V111H285.476V105.408L283.244 109.632H282.212L279.968 105.468L279.98 111H278.612V102.54H279.836L282.74 108.072L285.632 102.54H286.844ZM291.066 104.988C291.89 104.988 292.502 105.188 292.902 105.588C293.302 105.988 293.502 106.604 293.502 107.436V111H292.074V110.1C291.938 110.412 291.722 110.656 291.426 110.832C291.138 111.008 290.802 111.096 290.418 111.096C290.026 111.096 289.67 111.016 289.35 110.856C289.03 110.696 288.778 110.476 288.594 110.196C288.41 109.916 288.318 109.604 288.318 109.26C288.318 108.828 288.426 108.488 288.642 108.24C288.866 107.992 289.226 107.812 289.722 107.7C290.218 107.588 290.902 107.532 291.774 107.532H292.074V107.256C292.074 106.856 291.986 106.568 291.81 106.392C291.642 106.216 291.358 106.128 290.958 106.128C290.646 106.128 290.318 106.184 289.974 106.296C289.638 106.4 289.306 106.548 288.978 106.74L288.558 105.708C288.886 105.5 289.282 105.328 289.746 105.192C290.21 105.056 290.65 104.988 291.066 104.988ZM290.718 110.016C291.118 110.016 291.442 109.884 291.69 109.62C291.946 109.348 292.074 109 292.074 108.576V108.324H291.858C291.322 108.324 290.906 108.348 290.61 108.396C290.314 108.444 290.102 108.528 289.974 108.648C289.846 108.768 289.782 108.932 289.782 109.14C289.782 109.396 289.87 109.608 290.046 109.776C290.222 109.936 290.446 110.016 290.718 110.016ZM298.89 106.236L298.014 106.32C297.022 106.424 296.526 106.928 296.526 107.832V111H295.026V105.132H296.454V106.164C296.758 105.46 297.386 105.076 298.338 105.012L298.794 104.976L298.89 106.236ZM302.179 111.096C301.563 111.096 301.027 110.972 300.571 110.724C300.123 110.476 299.779 110.124 299.539 109.668C299.299 109.212 299.179 108.68 299.179 108.072C299.179 107.464 299.303 106.928 299.551 106.464C299.807 105.992 300.167 105.628 300.631 105.372C301.095 105.116 301.631 104.988 302.239 104.988C302.655 104.988 303.059 105.056 303.451 105.192C303.851 105.32 304.171 105.496 304.411 105.72L303.979 106.776C303.731 106.576 303.467 106.424 303.187 106.32C302.915 106.216 302.643 106.164 302.371 106.164C301.851 106.164 301.447 106.328 301.159 106.656C300.871 106.976 300.727 107.44 300.727 108.048C300.727 108.648 300.871 109.112 301.159 109.44C301.447 109.76 301.851 109.92 302.371 109.92C302.643 109.92 302.915 109.868 303.187 109.764C303.467 109.66 303.731 109.508 303.979 109.308L304.411 110.352C304.155 110.584 303.827 110.768 303.427 110.904C303.027 111.032 302.611 111.096 302.179 111.096ZM308.77 104.988C309.474 104.988 309.998 105.188 310.342 105.588C310.686 105.988 310.858 106.592 310.858 107.4V111H309.358V107.484C309.358 107.028 309.27 106.696 309.094 106.488C308.926 106.28 308.658 106.176 308.29 106.176C307.858 106.176 307.51 106.312 307.246 106.584C306.99 106.856 306.862 107.22 306.862 107.676V111H305.362V102.54H306.862V105.948C307.062 105.636 307.326 105.4 307.654 105.24C307.99 105.072 308.362 104.988 308.77 104.988ZM321.423 109.752V111H315.735V109.86L318.615 106.764C318.951 106.396 319.195 106.06 319.347 105.756C319.507 105.444 319.587 105.136 319.587 104.832C319.587 104.448 319.475 104.16 319.251 103.968C319.035 103.768 318.715 103.668 318.291 103.668C317.531 103.668 316.767 103.96 315.999 104.544L315.483 103.416C315.819 103.12 316.247 102.884 316.767 102.708C317.295 102.524 317.823 102.432 318.351 102.432C319.199 102.432 319.871 102.64 320.367 103.056C320.863 103.472 321.111 104.032 321.111 104.736C321.111 105.224 321.007 105.684 320.799 106.116C320.591 106.54 320.239 107.016 319.743 107.544L317.667 109.752H321.423ZM325.666 111.108C324.666 111.108 323.902 110.74 323.374 110.004C322.846 109.26 322.582 108.18 322.582 106.764C322.582 105.364 322.846 104.296 323.374 103.56C323.902 102.824 324.666 102.456 325.666 102.456C326.666 102.456 327.43 102.824 327.958 103.56C328.486 104.296 328.75 105.364 328.75 106.764C328.75 108.172 328.486 109.248 327.958 109.992C327.43 110.736 326.666 111.108 325.666 111.108ZM325.666 109.896C326.21 109.896 326.606 109.648 326.854 109.152C327.102 108.648 327.226 107.852 327.226 106.764C327.226 105.684 327.102 104.9 326.854 104.412C326.606 103.916 326.21 103.668 325.666 103.668C325.122 103.668 324.726 103.916 324.478 104.412C324.23 104.9 324.106 105.684 324.106 106.764C324.106 107.852 324.23 108.648 324.478 109.152C324.726 109.648 325.122 109.896 325.666 109.896ZM335.826 109.752V111H330.138V109.86L333.018 106.764C333.354 106.396 333.598 106.06 333.75 105.756C333.91 105.444 333.99 105.136 333.99 104.832C333.99 104.448 333.878 104.16 333.654 103.968C333.438 103.768 333.118 103.668 332.694 103.668C331.934 103.668 331.17 103.96 330.402 104.544L329.886 103.416C330.222 103.12 330.65 102.884 331.17 102.708C331.698 102.524 332.226 102.432 332.754 102.432C333.602 102.432 334.274 102.64 334.77 103.056C335.266 103.472 335.514 104.032 335.514 104.736C335.514 105.224 335.41 105.684 335.202 106.116C334.994 106.54 334.642 107.016 334.146 107.544L332.07 109.752H335.826ZM340.069 111.108C339.069 111.108 338.305 110.74 337.777 110.004C337.249 109.26 336.985 108.18 336.985 106.764C336.985 105.364 337.249 104.296 337.777 103.56C338.305 102.824 339.069 102.456 340.069 102.456C341.069 102.456 341.833 102.824 342.361 103.56C342.889 104.296 343.153 105.364 343.153 106.764C343.153 108.172 342.889 109.248 342.361 109.992C341.833 110.736 341.069 111.108 340.069 111.108ZM340.069 109.896C340.613 109.896 341.009 109.648 341.257 109.152C341.505 108.648 341.629 107.852 341.629 106.764C341.629 105.684 341.505 104.9 341.257 104.412C341.009 103.916 340.613 103.668 340.069 103.668C339.525 103.668 339.129 103.916 338.881 104.412C338.633 104.9 338.509 105.684 338.509 106.764C338.509 107.852 338.633 108.648 338.881 109.152C339.129 109.648 339.525 109.896 340.069 109.896Z" fill="#363565"/>
<rect x="133" y="96" width="67" height="26" rx="6" fill="#22A88E"/>
<path d="M154.684 105.655H157.024C158.062 105.655 158.866 105.934 159.436 106.492C160.012 107.044 160.3 107.821 160.3 108.823C160.3 109.825 160.012 110.605 159.436 111.163C158.866 111.721 158.062 112 157.024 112H154.684V105.655ZM156.952 111.055C158.41 111.055 159.139 110.311 159.139 108.823C159.139 107.341 158.41 106.6 156.952 106.6H155.845V111.055H156.952ZM164.295 112.081C163.677 112.081 163.14 111.949 162.684 111.685C162.234 111.421 161.886 111.043 161.64 110.551C161.394 110.059 161.271 109.483 161.271 108.823C161.271 108.163 161.391 107.59 161.631 107.104C161.877 106.612 162.228 106.234 162.684 105.97C163.14 105.706 163.677 105.574 164.295 105.574C164.913 105.574 165.447 105.706 165.897 105.97C166.353 106.234 166.701 106.612 166.941 107.104C167.187 107.59 167.31 108.163 167.31 108.823C167.31 109.483 167.187 110.059 166.941 110.551C166.695 111.043 166.344 111.421 165.888 111.685C165.438 111.949 164.907 112.081 164.295 112.081ZM164.295 111.154C164.877 111.154 165.33 110.953 165.654 110.551C165.984 110.149 166.149 109.573 166.149 108.823C166.149 108.073 165.984 107.5 165.654 107.104C165.33 106.702 164.877 106.501 164.295 106.501C163.707 106.501 163.248 106.702 162.918 107.104C162.594 107.5 162.432 108.073 162.432 108.823C162.432 109.573 162.594 110.149 162.918 110.551C163.248 110.953 163.707 111.154 164.295 111.154ZM173.838 105.655V112H172.965L169.563 107.572V112H168.483V105.655H169.347L172.749 110.074V105.655H173.838ZM175.206 105.655H179.454V106.573H176.34V108.319H179.274V109.228H176.34V111.082H179.454V112H175.206V105.655Z" fill="white"/>
</svg>
