<svg width="10" height="10" viewBox="0 0 10 10" fill="none" xmlns="http://www.w3.org/2000/svg">
<path fill-rule="evenodd" clip-rule="evenodd" d="M8.125 3.25C9.02246 3.25 9.75 2.52246 9.75 1.625C9.75 0.727537 9.02246 0 8.125 0H7.0332C6.13574 0 5.4082 0.727537 5.4082 1.625C5.4082 2.52246 6.13574 3.25 7.0332 3.25H8.125ZM2.1709 5.4082C3.36985 5.4082 4.3418 4.43626 4.3418 3.2373V2.1709C4.3418 0.971944 3.36985 0 2.1709 0C0.971944 0 0 0.971944 0 2.1709V3.2373C0 4.43626 0.971944 5.4082 2.1709 5.4082ZM7.5791 9.75C8.77806 9.75 9.75 8.77806 9.75 7.5791V6.5127C9.75 5.31374 8.77806 4.3418 7.5791 4.3418C6.38015 4.3418 5.4082 5.31374 5.4082 6.5127V7.5791C5.4082 8.77806 6.38015 9.75 7.5791 9.75ZM2.7168 9.75C3.61426 9.75 4.3418 9.02246 4.3418 8.125C4.3418 7.22754 3.61426 6.5 2.7168 6.5H1.625C0.727537 6.5 0 7.22754 0 8.125C0 9.02246 0.727537 9.75 1.625 9.75H2.7168Z" fill="white"/>
</svg>
