<svg width="242" height="160" viewBox="0 0 242 160" fill="none" xmlns="http://www.w3.org/2000/svg">
<path d="M80.58 150.63H82.425V154.815C81.885 155.245 81.255 155.575 80.535 155.805C79.815 156.035 79.075 156.15 78.315 156.15C77.245 156.15 76.28 155.92 75.42 155.46C74.56 154.99 73.885 154.345 73.395 153.525C72.905 152.705 72.66 151.78 72.66 150.75C72.66 149.72 72.905 148.795 73.395 147.975C73.885 147.155 74.56 146.515 75.42 146.055C76.29 145.585 77.265 145.35 78.345 145.35C79.225 145.35 80.025 145.495 80.745 145.785C81.465 146.075 82.07 146.5 82.56 147.06L81.33 148.26C80.53 147.46 79.565 147.06 78.435 147.06C77.695 147.06 77.035 147.215 76.455 147.525C75.885 147.835 75.435 148.27 75.105 148.83C74.785 149.39 74.625 150.03 74.625 150.75C74.625 151.45 74.785 152.08 75.105 152.64C75.435 153.2 75.885 153.64 76.455 153.96C77.035 154.28 77.69 154.44 78.42 154.44C79.24 154.44 79.96 154.26 80.58 153.9V150.63ZM92.0469 152.04C92.0469 152.17 92.0369 152.355 92.0169 152.595H85.7319C85.8419 153.185 86.1269 153.655 86.5869 154.005C87.0569 154.345 87.6369 154.515 88.3269 154.515C89.2069 154.515 89.9319 154.225 90.5019 153.645L91.5069 154.8C91.1469 155.23 90.6919 155.555 90.1419 155.775C89.5919 155.995 88.9719 156.105 88.2819 156.105C87.4019 156.105 86.6269 155.93 85.9569 155.58C85.2869 155.23 84.7669 154.745 84.3969 154.125C84.0369 153.495 83.8569 152.785 83.8569 151.995C83.8569 151.215 84.0319 150.515 84.3819 149.895C84.7419 149.265 85.2369 148.775 85.8669 148.425C86.4969 148.075 87.2069 147.9 87.9969 147.9C88.7769 147.9 89.4719 148.075 90.0819 148.425C90.7019 148.765 91.1819 149.25 91.5219 149.88C91.8719 150.5 92.0469 151.22 92.0469 152.04ZM87.9969 149.4C87.3969 149.4 86.8869 149.58 86.4669 149.94C86.0569 150.29 85.8069 150.76 85.7169 151.35H90.2619C90.1819 150.77 89.9369 150.3 89.5269 149.94C89.1169 149.58 88.6069 149.4 87.9969 149.4ZM98.363 155.565C98.143 155.745 97.873 155.88 97.553 155.97C97.243 156.06 96.913 156.105 96.563 156.105C95.683 156.105 95.003 155.875 94.523 155.415C94.043 154.955 93.803 154.285 93.803 153.405V149.55H92.483V148.05H93.803V146.22H95.678V148.05H97.823V149.55H95.678V153.36C95.678 153.75 95.773 154.05 95.963 154.26C96.153 154.46 96.428 154.56 96.788 154.56C97.208 154.56 97.558 154.45 97.838 154.23L98.363 155.565ZM107.051 156.105C106.241 156.105 105.511 155.93 104.861 155.58C104.211 155.23 103.701 154.745 103.331 154.125C102.971 153.495 102.791 152.785 102.791 151.995C102.791 151.205 102.971 150.5 103.331 149.88C103.701 149.26 104.211 148.775 104.861 148.425C105.511 148.075 106.241 147.9 107.051 147.9C107.871 147.9 108.606 148.075 109.256 148.425C109.906 148.775 110.411 149.26 110.771 149.88C111.141 150.5 111.326 151.205 111.326 151.995C111.326 152.785 111.141 153.495 110.771 154.125C110.411 154.745 109.906 155.23 109.256 155.58C108.606 155.93 107.871 156.105 107.051 156.105ZM107.051 154.5C107.741 154.5 108.311 154.27 108.761 153.81C109.211 153.35 109.436 152.745 109.436 151.995C109.436 151.245 109.211 150.64 108.761 150.18C108.311 149.72 107.741 149.49 107.051 149.49C106.361 149.49 105.791 149.72 105.341 150.18C104.901 150.64 104.681 151.245 104.681 151.995C104.681 152.745 104.901 153.35 105.341 153.81C105.791 154.27 106.361 154.5 107.051 154.5ZM117.364 147.9C118.374 147.9 119.184 148.195 119.794 148.785C120.404 149.375 120.709 150.25 120.709 151.41V156H118.834V151.65C118.834 150.95 118.669 150.425 118.339 150.075C118.009 149.715 117.539 149.535 116.929 149.535C116.239 149.535 115.694 149.745 115.294 150.165C114.894 150.575 114.694 151.17 114.694 151.95V156H112.819V147.99H114.604V149.025C114.914 148.655 115.304 148.375 115.774 148.185C116.244 147.995 116.774 147.9 117.364 147.9ZM130.391 152.04C130.391 152.17 130.381 152.355 130.361 152.595H124.076C124.186 153.185 124.471 153.655 124.931 154.005C125.401 154.345 125.981 154.515 126.671 154.515C127.551 154.515 128.276 154.225 128.846 153.645L129.851 154.8C129.491 155.23 129.036 155.555 128.486 155.775C127.936 155.995 127.316 156.105 126.626 156.105C125.746 156.105 124.971 155.93 124.301 155.58C123.631 155.23 123.111 154.745 122.741 154.125C122.381 153.495 122.201 152.785 122.201 151.995C122.201 151.215 122.376 150.515 122.726 149.895C123.086 149.265 123.581 148.775 124.211 148.425C124.841 148.075 125.551 147.9 126.341 147.9C127.121 147.9 127.816 148.075 128.426 148.425C129.046 148.765 129.526 149.25 129.866 149.88C130.216 150.5 130.391 151.22 130.391 152.04ZM126.341 149.4C125.741 149.4 125.231 149.58 124.811 149.94C124.401 150.29 124.151 150.76 124.061 151.35H128.606C128.526 150.77 128.281 150.3 127.871 149.94C127.461 149.58 126.951 149.4 126.341 149.4ZM140.282 147.9C141.292 147.9 142.102 148.195 142.712 148.785C143.322 149.375 143.627 150.25 143.627 151.41V156H141.752V151.65C141.752 150.95 141.587 150.425 141.257 150.075C140.927 149.715 140.457 149.535 139.847 149.535C139.157 149.535 138.612 149.745 138.212 150.165C137.812 150.575 137.612 151.17 137.612 151.95V156H135.737V144.87H137.612V148.92C137.922 148.59 138.302 148.34 138.752 148.17C139.212 147.99 139.722 147.9 140.282 147.9ZM153.309 152.04C153.309 152.17 153.299 152.355 153.279 152.595H146.994C147.104 153.185 147.389 153.655 147.849 154.005C148.319 154.345 148.899 154.515 149.589 154.515C150.469 154.515 151.194 154.225 151.764 153.645L152.769 154.8C152.409 155.23 151.954 155.555 151.404 155.775C150.854 155.995 150.234 156.105 149.544 156.105C148.664 156.105 147.889 155.93 147.219 155.58C146.549 155.23 146.029 154.745 145.659 154.125C145.299 153.495 145.119 152.785 145.119 151.995C145.119 151.215 145.294 150.515 145.644 149.895C146.004 149.265 146.499 148.775 147.129 148.425C147.759 148.075 148.469 147.9 149.259 147.9C150.039 147.9 150.734 148.075 151.344 148.425C151.964 148.765 152.444 149.25 152.784 149.88C153.134 150.5 153.309 151.22 153.309 152.04ZM149.259 149.4C148.659 149.4 148.149 149.58 147.729 149.94C147.319 150.29 147.069 150.76 146.979 151.35H151.524C151.444 150.77 151.199 150.3 150.789 149.94C150.379 149.58 149.869 149.4 149.259 149.4ZM156.595 149.16C157.135 148.32 158.085 147.9 159.445 147.9V149.685C159.285 149.655 159.14 149.64 159.01 149.64C158.28 149.64 157.71 149.855 157.3 150.285C156.89 150.705 156.685 151.315 156.685 152.115V156H154.81V147.99H156.595V149.16ZM168.192 152.04C168.192 152.17 168.182 152.355 168.162 152.595H161.877C161.987 153.185 162.272 153.655 162.732 154.005C163.202 154.345 163.782 154.515 164.472 154.515C165.352 154.515 166.077 154.225 166.647 153.645L167.652 154.8C167.292 155.23 166.837 155.555 166.287 155.775C165.737 155.995 165.117 156.105 164.427 156.105C163.547 156.105 162.772 155.93 162.102 155.58C161.432 155.23 160.912 154.745 160.542 154.125C160.182 153.495 160.002 152.785 160.002 151.995C160.002 151.215 160.177 150.515 160.527 149.895C160.887 149.265 161.382 148.775 162.012 148.425C162.642 148.075 163.352 147.9 164.142 147.9C164.922 147.9 165.617 148.075 166.227 148.425C166.847 148.765 167.327 149.25 167.667 149.88C168.017 150.5 168.192 151.22 168.192 152.04ZM164.142 149.4C163.542 149.4 163.032 149.58 162.612 149.94C162.202 150.29 161.952 150.76 161.862 151.35H166.407C166.327 150.77 166.082 150.3 165.672 149.94C165.262 149.58 164.752 149.4 164.142 149.4Z" fill="#F78C63"/>
<path d="M4.40198 8.9H13.543C15.941 8.9 18.064 9.395 19.912 10.385C21.782 11.375 23.234 12.75 24.268 14.51C25.302 16.248 25.819 18.228 25.819 20.45C25.819 22.672 25.302 24.663 24.268 26.423C23.234 28.161 21.782 29.525 19.912 30.515C18.064 31.505 15.941 32 13.543 32H4.40198V8.9ZM13.411 30.482C15.545 30.482 17.426 30.064 19.054 29.228C20.682 28.37 21.936 27.182 22.816 25.664C23.696 24.146 24.136 22.408 24.136 20.45C24.136 18.492 23.696 16.754 22.816 15.236C21.936 13.718 20.682 12.541 19.054 11.705C17.426 10.847 15.545 10.418 13.411 10.418H6.08498V30.482H13.411ZM31.1376 14.774H32.7876V32H31.1376V14.774ZM31.9626 10.583C31.5886 10.583 31.2696 10.462 31.0056 10.22C30.7416 9.956 30.6096 9.637 30.6096 9.263C30.6096 8.889 30.7416 8.57 31.0056 8.306C31.2696 8.042 31.5886 7.91 31.9626 7.91C32.3366 7.91 32.6556 8.042 32.9196 8.306C33.1836 8.548 33.3156 8.856 33.3156 9.23C33.3156 9.604 33.1836 9.923 32.9196 10.187C32.6556 10.451 32.3366 10.583 31.9626 10.583ZM44.0981 32.132C42.7121 32.132 41.3921 31.923 40.1381 31.505C38.8841 31.087 37.9051 30.559 37.2011 29.921L37.9601 28.601C38.6641 29.195 39.5661 29.69 40.6661 30.086C41.7881 30.482 42.9541 30.68 44.1641 30.68C45.9021 30.68 47.1781 30.394 47.9921 29.822C48.8281 29.25 49.2461 28.458 49.2461 27.446C49.2461 26.72 49.0151 26.148 48.5531 25.73C48.1131 25.312 47.5631 25.004 46.9031 24.806C46.2431 24.608 45.3301 24.399 44.1641 24.179C42.8001 23.937 41.7001 23.673 40.8641 23.387C40.0281 23.101 39.3131 22.639 38.7191 22.001C38.1251 21.363 37.8281 20.483 37.8281 19.361C37.8281 17.997 38.3891 16.875 39.5111 15.995C40.6551 15.093 42.2721 14.642 44.3621 14.642C45.4621 14.642 46.5511 14.796 47.6291 15.104C48.7071 15.412 49.5871 15.819 50.2691 16.325L49.5101 17.645C48.8061 17.139 48.0031 16.754 47.1011 16.49C46.1991 16.226 45.2751 16.094 44.3291 16.094C42.7231 16.094 41.5131 16.391 40.6991 16.985C39.8851 17.579 39.4781 18.36 39.4781 19.328C39.4781 20.098 39.7091 20.703 40.1711 21.143C40.6331 21.561 41.1941 21.88 41.8541 22.1C42.5361 22.298 43.4821 22.518 44.6921 22.76C46.0341 23.002 47.1121 23.266 47.9261 23.552C48.7621 23.816 49.4661 24.256 50.0381 24.872C50.6101 25.488 50.8961 26.335 50.8961 27.413C50.8961 28.843 50.3021 29.987 49.1141 30.845C47.9261 31.703 46.2541 32.132 44.0981 32.132ZM62.3319 32.132C60.6599 32.132 59.1639 31.758 57.8439 31.01C56.5239 30.262 55.4899 29.228 54.7419 27.908C53.9939 26.566 53.6199 25.059 53.6199 23.387C53.6199 21.693 53.9939 20.186 54.7419 18.866C55.4899 17.524 56.5239 16.49 57.8439 15.764C59.1639 15.016 60.6599 14.642 62.3319 14.642C63.7179 14.642 64.9719 14.917 66.0939 15.467C67.2379 15.995 68.1619 16.776 68.8659 17.81L67.6449 18.701C67.0289 17.843 66.2589 17.205 65.3349 16.787C64.4329 16.347 63.4319 16.127 62.3319 16.127C60.9899 16.127 59.7799 16.435 58.7019 17.051C57.6459 17.645 56.8099 18.492 56.1939 19.592C55.5999 20.692 55.3029 21.957 55.3029 23.387C55.3029 24.817 55.5999 26.082 56.1939 27.182C56.8099 28.282 57.6459 29.14 58.7019 29.756C59.7799 30.35 60.9899 30.647 62.3319 30.647C63.4319 30.647 64.4329 30.438 65.3349 30.02C66.2589 29.58 67.0289 28.931 67.6449 28.073L68.8659 28.964C68.1619 29.998 67.2379 30.79 66.0939 31.34C64.9719 31.868 63.7179 32.132 62.3319 32.132ZM80.2476 32.132C78.6196 32.132 77.1456 31.758 75.8256 31.01C74.5276 30.262 73.5046 29.228 72.7566 27.908C72.0086 26.566 71.6346 25.059 71.6346 23.387C71.6346 21.715 72.0086 20.219 72.7566 18.899C73.5046 17.557 74.5276 16.512 75.8256 15.764C77.1456 15.016 78.6196 14.642 80.2476 14.642C81.8756 14.642 83.3386 15.016 84.6366 15.764C85.9566 16.512 86.9906 17.557 87.7386 18.899C88.4866 20.219 88.8606 21.715 88.8606 23.387C88.8606 25.059 88.4866 26.566 87.7386 27.908C86.9906 29.228 85.9566 30.262 84.6366 31.01C83.3386 31.758 81.8756 32.132 80.2476 32.132ZM80.2476 30.647C81.5676 30.647 82.7446 30.339 83.7786 29.723C84.8346 29.107 85.6596 28.249 86.2536 27.149C86.8696 26.049 87.1776 24.795 87.1776 23.387C87.1776 21.979 86.8696 20.725 86.2536 19.625C85.6596 18.525 84.8346 17.667 83.7786 17.051C82.7446 16.435 81.5676 16.127 80.2476 16.127C78.9276 16.127 77.7396 16.435 76.6836 17.051C75.6496 17.667 74.8246 18.525 74.2086 19.625C73.6146 20.725 73.3176 21.979 73.3176 23.387C73.3176 24.795 73.6146 26.049 74.2086 27.149C74.8246 28.249 75.6496 29.107 76.6836 29.723C77.7396 30.339 78.9276 30.647 80.2476 30.647ZM109.06 14.774V32H107.476V28.304C106.904 29.514 106.057 30.46 104.935 31.142C103.813 31.802 102.493 32.132 100.975 32.132C98.7314 32.132 96.9714 31.505 95.6954 30.251C94.4194 28.997 93.7814 27.193 93.7814 24.839V14.774H95.4314V24.707C95.4314 26.643 95.9264 28.117 96.9164 29.129C97.9064 30.141 99.3034 30.647 101.107 30.647C103.043 30.647 104.572 30.042 105.694 28.832C106.838 27.622 107.41 25.994 107.41 23.948V14.774H109.06ZM124.47 14.642C126.626 14.642 128.331 15.269 129.585 16.523C130.839 17.777 131.466 19.581 131.466 21.935V32H129.816V22.067C129.816 20.131 129.321 18.657 128.331 17.645C127.363 16.633 125.999 16.127 124.239 16.127C122.215 16.127 120.62 16.732 119.454 17.942C118.288 19.152 117.705 20.78 117.705 22.826V32H116.055V14.774H117.639V18.503C118.233 17.293 119.113 16.347 120.279 15.665C121.467 14.983 122.864 14.642 124.47 14.642ZM146.806 30.911C146.388 31.307 145.86 31.615 145.222 31.835C144.606 32.033 143.957 32.132 143.275 32.132C141.779 32.132 140.624 31.725 139.81 30.911C138.996 30.075 138.589 28.92 138.589 27.446V16.193H135.421V14.774H138.589V11.012H140.239V14.774H145.717V16.193H140.239V27.281C140.239 28.403 140.503 29.261 141.031 29.855C141.581 30.427 142.384 30.713 143.44 30.713C144.518 30.713 145.409 30.394 146.113 29.756L146.806 30.911ZM170.179 32.165C167.913 32.165 165.867 31.659 164.041 30.647C162.237 29.635 160.807 28.238 159.751 26.456C158.717 24.674 158.2 22.672 158.2 20.45C158.2 18.228 158.717 16.226 159.751 14.444C160.807 12.662 162.237 11.265 164.041 10.253C165.867 9.241 167.913 8.735 170.179 8.735C171.851 8.735 173.391 9.01 174.799 9.56C176.207 10.088 177.406 10.88 178.396 11.936L177.34 13.025C175.492 11.199 173.127 10.286 170.245 10.286C168.309 10.286 166.549 10.726 164.965 11.606C163.381 12.486 162.138 13.707 161.236 15.269C160.334 16.809 159.883 18.536 159.883 20.45C159.883 22.364 160.334 24.102 161.236 25.664C162.138 27.204 163.381 28.414 164.965 29.294C166.549 30.174 168.309 30.614 170.245 30.614C173.105 30.614 175.47 29.69 177.34 27.842L178.396 28.931C177.406 29.987 176.196 30.79 174.766 31.34C173.358 31.89 171.829 32.165 170.179 32.165ZM189.431 32.132C187.803 32.132 186.329 31.758 185.009 31.01C183.711 30.262 182.688 29.228 181.94 27.908C181.192 26.566 180.818 25.059 180.818 23.387C180.818 21.715 181.192 20.219 181.94 18.899C182.688 17.557 183.711 16.512 185.009 15.764C186.329 15.016 187.803 14.642 189.431 14.642C191.059 14.642 192.522 15.016 193.82 15.764C195.14 16.512 196.174 17.557 196.922 18.899C197.67 20.219 198.044 21.715 198.044 23.387C198.044 25.059 197.67 26.566 196.922 27.908C196.174 29.228 195.14 30.262 193.82 31.01C192.522 31.758 191.059 32.132 189.431 32.132ZM189.431 30.647C190.751 30.647 191.928 30.339 192.962 29.723C194.018 29.107 194.843 28.249 195.437 27.149C196.053 26.049 196.361 24.795 196.361 23.387C196.361 21.979 196.053 20.725 195.437 19.625C194.843 18.525 194.018 17.667 192.962 17.051C191.928 16.435 190.751 16.127 189.431 16.127C188.111 16.127 186.923 16.435 185.867 17.051C184.833 17.667 184.008 18.525 183.392 19.625C182.798 20.725 182.501 21.979 182.501 23.387C182.501 24.795 182.798 26.049 183.392 27.149C184.008 28.249 184.833 29.107 185.867 29.723C186.923 30.339 188.111 30.647 189.431 30.647ZM218.475 7.514V32H216.858V27.941C216.176 29.283 215.219 30.317 213.987 31.043C212.755 31.769 211.358 32.132 209.796 32.132C208.19 32.132 206.738 31.758 205.44 31.01C204.142 30.262 203.119 29.228 202.371 27.908C201.645 26.588 201.282 25.081 201.282 23.387C201.282 21.693 201.645 20.186 202.371 18.866C203.119 17.524 204.142 16.49 205.44 15.764C206.738 15.016 208.19 14.642 209.796 14.642C211.336 14.642 212.711 15.005 213.921 15.731C215.153 16.457 216.121 17.469 216.825 18.767V7.514H218.475ZM209.895 30.647C211.215 30.647 212.392 30.339 213.426 29.723C214.482 29.107 215.307 28.249 215.901 27.149C216.517 26.049 216.825 24.795 216.825 23.387C216.825 21.979 216.517 20.725 215.901 19.625C215.307 18.525 214.482 17.667 213.426 17.051C212.392 16.435 211.215 16.127 209.895 16.127C208.575 16.127 207.387 16.435 206.331 17.051C205.297 17.667 204.472 18.525 203.856 19.625C203.262 20.725 202.965 21.979 202.965 23.387C202.965 24.795 203.262 26.049 203.856 27.149C204.472 28.249 205.297 29.107 206.331 29.723C207.387 30.339 208.575 30.647 209.895 30.647ZM239.985 23.783H225.168C225.212 25.125 225.553 26.324 226.191 27.38C226.829 28.414 227.687 29.217 228.765 29.789C229.865 30.361 231.097 30.647 232.461 30.647C233.583 30.647 234.617 30.449 235.563 30.053C236.531 29.635 237.334 29.03 237.972 28.238L238.929 29.327C238.181 30.229 237.235 30.922 236.091 31.406C234.969 31.89 233.748 32.132 232.428 32.132C230.712 32.132 229.183 31.758 227.841 31.01C226.499 30.262 225.443 29.228 224.673 27.908C223.925 26.588 223.551 25.081 223.551 23.387C223.551 21.715 223.903 20.219 224.607 18.899C225.333 17.557 226.323 16.512 227.577 15.764C228.831 15.016 230.239 14.642 231.801 14.642C233.363 14.642 234.76 15.016 235.992 15.764C237.246 16.49 238.225 17.513 238.929 18.833C239.655 20.153 240.018 21.649 240.018 23.321L239.985 23.783ZM231.801 16.094C230.591 16.094 229.502 16.369 228.534 16.919C227.566 17.447 226.785 18.206 226.191 19.196C225.619 20.164 225.289 21.264 225.201 22.496H238.401C238.335 21.264 238.005 20.164 237.411 19.196C236.817 18.228 236.036 17.469 235.068 16.919C234.1 16.369 233.011 16.094 231.801 16.094Z" fill="#15181A"/>
<rect x="41" y="60" width="161" height="40" rx="5" fill="#B9BBC6"/>
<path d="M103.859 77.006C105.1 77.006 106.082 77.367 106.804 78.089C107.526 78.811 107.887 79.8497 107.887 81.205V87H106.937V81.281C106.937 80.1663 106.652 79.3177 106.082 78.735C105.525 78.1523 104.739 77.861 103.726 77.861C102.561 77.861 101.642 78.2093 100.971 78.906C100.3 79.6027 99.964 80.54 99.964 81.718V87H99.014V77.082H99.926V79.229C100.268 78.5323 100.775 77.9877 101.446 77.595C102.13 77.2023 102.934 77.006 103.859 77.006ZM115.693 87.076C114.755 87.076 113.907 86.8607 113.147 86.43C112.399 85.9993 111.81 85.404 111.38 84.644C110.949 83.8713 110.734 83.0037 110.734 82.041C110.734 81.0783 110.949 80.217 111.38 79.457C111.81 78.6843 112.399 78.0827 113.147 77.652C113.907 77.2213 114.755 77.006 115.693 77.006C116.63 77.006 117.472 77.2213 118.22 77.652C118.98 78.0827 119.575 78.6843 120.006 79.457C120.436 80.217 120.652 81.0783 120.652 82.041C120.652 83.0037 120.436 83.8713 120.006 84.644C119.575 85.404 118.98 85.9993 118.22 86.43C117.472 86.8607 116.63 87.076 115.693 87.076ZM115.693 86.221C116.453 86.221 117.13 86.0437 117.726 85.689C118.334 85.3343 118.809 84.8403 119.151 84.207C119.505 83.5737 119.683 82.8517 119.683 82.041C119.683 81.2303 119.505 80.5083 119.151 79.875C118.809 79.2417 118.334 78.7477 117.726 78.393C117.13 78.0383 116.453 77.861 115.693 77.861C114.933 77.861 114.249 78.0383 113.641 78.393C113.045 78.7477 112.57 79.2417 112.216 79.875C111.874 80.5083 111.703 81.2303 111.703 82.041C111.703 82.8517 111.874 83.5737 112.216 84.207C112.57 84.8403 113.045 85.3343 113.641 85.689C114.249 86.0437 114.933 86.221 115.693 86.221ZM128.444 77.006C129.685 77.006 130.667 77.367 131.389 78.089C132.111 78.811 132.472 79.8497 132.472 81.205V87H131.522V81.281C131.522 80.1663 131.237 79.3177 130.667 78.735C130.11 78.1523 129.324 77.861 128.311 77.861C127.146 77.861 126.227 78.2093 125.556 78.906C124.885 79.6027 124.549 80.54 124.549 81.718V87H123.599V77.082H124.511V79.229C124.853 78.5323 125.36 77.9877 126.031 77.595C126.715 77.2023 127.519 77.006 128.444 77.006ZM144.781 82.269H136.25C136.275 83.0417 136.471 83.732 136.839 84.34C137.206 84.9353 137.7 85.3977 138.321 85.727C138.954 86.0563 139.663 86.221 140.449 86.221C141.095 86.221 141.69 86.107 142.235 85.879C142.792 85.6383 143.254 85.29 143.622 84.834L144.173 85.461C143.742 85.9803 143.197 86.3793 142.539 86.658C141.893 86.9367 141.19 87.076 140.43 87.076C139.442 87.076 138.561 86.8607 137.789 86.43C137.016 85.9993 136.408 85.404 135.965 84.644C135.534 83.884 135.319 83.0163 135.319 82.041C135.319 81.0783 135.521 80.217 135.927 79.457C136.345 78.6843 136.915 78.0827 137.637 77.652C138.359 77.2213 139.169 77.006 140.069 77.006C140.968 77.006 141.772 77.2213 142.482 77.652C143.204 78.07 143.767 78.659 144.173 79.419C144.591 80.179 144.8 81.0403 144.8 82.003L144.781 82.269ZM140.069 77.842C139.372 77.842 138.745 78.0003 138.188 78.317C137.63 78.621 137.181 79.058 136.839 79.628C136.509 80.1853 136.319 80.8187 136.269 81.528H143.869C143.831 80.8187 143.641 80.1853 143.299 79.628C142.957 79.0707 142.507 78.6337 141.95 78.317C141.392 78.0003 140.765 77.842 140.069 77.842Z" fill="white"/>
</svg>
