<svg width="120" height="120" viewBox="0 0 120 120" fill="none" xmlns="http://www.w3.org/2000/svg">
<rect x="12" y="8" width="85" height="101" fill="#FFF2CC"/>
<path d="M39.3956 33.9377H69.4514C70.1685 33.9377 70.8198 34.2644 71.2913 34.7904C71.7628 35.3165 72.0555 36.0433 72.0555 36.8434V78.6939C72.0555 79.494 71.7628 80.2207 71.2912 80.7468C70.8198 81.2729 70.1685 81.5995 69.4514 81.5995H39.3956C38.6785 81.5995 38.0272 81.2729 37.5557 80.7468C37.0842 80.2207 36.7915 79.4941 36.7915 78.6939V36.8434C36.7915 36.0432 37.0842 35.3165 37.5557 34.7904C38.0272 34.2643 38.6785 33.9377 39.3956 33.9377L39.3956 33.9377ZM69.4514 36.1461H39.3956C39.2248 36.1461 39.0687 36.2249 38.955 36.3518C38.8413 36.4787 38.7707 36.6528 38.7707 36.8434V78.6939C38.7707 78.8844 38.8414 79.0586 38.9551 79.1855C39.0688 79.3123 39.2248 79.3911 39.3956 79.3911H69.4514C69.6221 79.3911 69.7782 79.3123 69.8919 79.1854C70.0056 79.0585 70.0763 78.8844 70.0763 78.6939V36.8434C70.0763 36.6528 70.0056 36.4787 69.8919 36.3518C69.7782 36.225 69.6222 36.1461 69.4514 36.1461V36.1461Z" fill="#333333"/>
<path d="M42.5127 63.6653V53.551H45.4485C46.5607 53.551 47.2867 53.6028 47.6244 53.704C48.1436 53.8548 48.5805 54.1844 48.9308 54.6931C49.2812 55.2018 49.4564 55.8588 49.4564 56.6618C49.4564 57.2835 49.3551 57.8063 49.1525 58.2278C48.9498 58.6517 48.6945 58.9837 48.3821 59.2263C48.0719 59.4665 47.7553 59.6266 47.4345 59.7043C46.9976 59.8009 46.3644 59.8503 45.535 59.8503H44.3425V63.6653H42.5127L42.5127 63.6653ZM44.3425 55.263V58.1313H45.3429C46.0648 58.1313 46.5481 58.0795 46.7908 57.9735C47.0335 57.8675 47.2234 57.7027 47.3627 57.4766C47.4999 57.2505 47.5695 56.9891 47.5695 56.6901C47.5695 56.3227 47.4725 56.0189 47.2783 55.7787C47.0863 55.5408 46.8393 55.3901 46.5438 55.3313C46.3243 55.2842 45.8853 55.263 45.2269 55.263H44.3425L44.3425 55.263ZM50.9528 53.551H54.298C55.0514 53.551 55.6255 53.6145 56.0223 53.7441C56.5541 53.9183 57.01 54.2292 57.3878 54.6766C57.7677 55.1217 58.0568 55.668 58.2552 56.3132C58.4515 56.9609 58.5507 57.7568 58.5507 58.7058C58.5507 59.5371 58.4578 60.2554 58.2721 60.8582C58.0463 61.593 57.7234 62.1888 57.3012 62.6433C56.9847 62.9894 56.5562 63.2579 56.0159 63.451C55.6128 63.5946 55.0725 63.6653 54.395 63.6653H50.9527V53.551L50.9528 53.551ZM52.7826 55.263V61.9604H54.1481C54.6589 61.9604 55.0282 61.9297 55.2561 61.8638C55.5516 61.7814 55.7986 61.6424 55.9948 61.4446C56.1911 61.2468 56.3494 60.9195 56.4739 60.4673C56.5963 60.0152 56.6596 59.3959 56.6596 58.614C56.6596 57.8322 56.5963 57.2341 56.4739 56.8149C56.3494 56.3957 56.1763 56.0684 55.9547 55.8352C55.731 55.5997 55.4482 55.442 55.1063 55.3595C54.8509 55.2936 54.3507 55.263 53.6036 55.263H52.7826L52.7826 55.263ZM60.1146 63.6653V53.551H66.3301V55.263H61.9465V57.6556H65.7307V59.3676H61.9465V63.6653H60.1146Z" fill="#333333"/>
<path fill-rule="evenodd" clip-rule="evenodd" d="M60.117 63.6651V53.5508H66.3325V55.2628H61.9489V57.6554H65.7331V59.3674H61.9489V63.6651H60.117ZM39.3959 79.391H69.4516C69.6224 79.391 69.7785 79.3121 69.8922 79.1852C70.0059 79.0584 70.0766 78.8842 70.0766 78.6937V36.8432C70.0766 36.6526 70.0059 36.4785 69.8922 36.3516C69.7785 36.2248 69.6224 36.1459 69.4516 36.1459H39.3959C39.2251 36.1459 39.069 36.2247 38.9553 36.3516C38.8416 36.4784 38.771 36.6526 38.771 36.8432V78.6937C38.771 78.8843 38.8416 79.0584 38.9553 79.1853C39.069 79.3121 39.2251 79.391 39.3959 79.391H39.3959ZM45.4508 53.5508C46.5631 53.5508 47.2891 53.6026 47.6268 53.7039C48.146 53.8546 48.5828 54.1843 48.9332 54.6929C49.2835 55.2016 49.4587 55.8586 49.4587 56.6616C49.4587 57.2833 49.3574 57.8061 49.1548 58.2277C48.9522 58.6515 48.6968 58.9836 48.3845 59.2261C48.0742 59.4663 47.7576 59.6265 47.4368 59.7042C47 59.8008 46.3668 59.8502 45.5374 59.8502H44.3449V63.6652H42.5151V53.5508H45.4508L45.4508 53.5508ZM50.9551 53.5508H54.3003C55.0538 53.5508 55.6278 53.6144 56.0246 53.7439C56.5565 53.9182 57.0124 54.229 57.3901 54.6765C57.77 55.1215 58.0592 55.6679 58.2576 56.3131C58.4538 56.9607 58.553 57.7567 58.553 58.7057C58.553 59.537 58.4602 60.2553 58.2745 60.8581C58.0486 61.5929 57.7257 62.1886 57.3036 62.6431C56.987 62.9893 56.5586 63.2578 56.0183 63.4509C55.6152 63.5945 55.0749 63.6652 54.3974 63.6652H50.9551V53.5508L50.9551 53.5508Z" fill="#F5CA45"/>
<path fill-rule="evenodd" clip-rule="evenodd" d="M56.4779 60.4669C56.6004 60.0148 56.6637 59.3954 56.6637 58.6136C56.6637 57.8318 56.6004 57.2336 56.4779 56.8145C56.3534 56.3953 56.1804 56.068 55.9587 55.8348C55.735 55.5993 55.4522 55.4416 55.1103 55.3591C54.855 55.2932 54.3547 55.2626 53.6076 55.2626H52.7866V61.9599H54.1521C54.6629 61.9599 55.0322 61.9293 55.2602 61.8634C55.5557 61.781 55.8026 61.642 55.9988 61.4442C56.1951 61.2464 56.3534 60.9191 56.4779 60.4669L56.4779 60.4669Z" fill="#F5CA45"/>
<path fill-rule="evenodd" clip-rule="evenodd" d="M46.7915 57.9731C47.0342 57.8671 47.2242 57.7023 47.3634 57.4762C47.5006 57.2501 47.5703 56.9887 47.5703 56.6897C47.5703 56.3223 47.4732 56.0185 47.279 55.7783C47.087 55.5404 46.84 55.3897 46.5445 55.3309C46.3251 55.2838 45.8861 55.2626 45.2276 55.2626H44.3433V58.1309H45.3437C46.0655 58.1309 46.5488 58.0791 46.7915 57.9731V57.9731Z" fill="#F5CA45"/>
<path d="M100.414 13.305V111.918H17.9678V110.302H98.7981V13.305H100.414ZM103.648 16.5375V115.15H21.2012V116.767H105.264V16.5375H103.648Z" fill="#E1DEFD"/>
<path d="M103.648 13.305V10.0716H98.7982V6.83813H90.7479C89.8263 2.92594 86.3023 0 82.0985 0C77.9116 0 74.3876 2.92594 73.4501 6.83813H11.502V110.301H14.7354V115.15H17.9688V120H108.499V13.305H103.648ZM98.7982 13.305H100.414V111.918H17.9679V110.302H98.7982V13.305ZM82.0985 3.23344C84.491 3.23344 86.5441 4.73719 87.3682 6.83813H76.8288C77.6529 4.73625 79.706 3.23344 82.0985 3.23344ZM14.7354 10.0716H87.7573V30.2147C87.7573 31.815 86.4476 33.1247 84.8473 33.1247C83.231 33.1247 81.9213 31.815 81.9213 30.2147V15.6H78.6879V30.2138C78.6879 33.6084 81.4526 36.3572 84.8473 36.3572C88.242 36.3572 90.9907 33.6094 90.9907 30.2138V10.0716H95.5657V107.067H14.7354V10.0716ZM105.264 116.767H21.2013V115.15H103.648V16.5375H105.264V116.767Z" fill="#242E78"/>
</svg>
