<svg width="86" height="86" viewBox="0 0 86 86" fill="none" xmlns="http://www.w3.org/2000/svg">
<path d="M69.8748 23.2917H39.4165V12.5417H68.0832C68.3199 12.5365 68.5551 12.5794 68.7748 12.6676C68.9945 12.7558 69.1941 12.8876 69.3615 13.055C69.5289 13.2224 69.6607 13.422 69.7489 13.6417C69.8371 13.8614 69.88 14.0966 69.8748 14.3333V23.2917Z" fill="#F6B445"/>
<path d="M39.4165 12.5416V23.2916H77.0415C78.9422 23.2916 80.7651 24.0467 82.1091 25.3907C83.4531 26.7347 84.2082 28.5576 84.2082 30.4583V77.0416C84.2082 78.9423 83.4531 80.7652 82.1091 82.1092C80.7651 83.4532 78.9422 84.2083 77.0415 84.2083H8.95817C7.05745 84.2083 5.23458 83.4532 3.89057 82.1092C2.54656 80.7652 1.7915 78.9423 1.7915 77.0416V8.95829C1.7915 8.95829 1.7915 1.79163 8.95817 1.79163H32.2498C32.2498 1.79163 39.4165 1.79163 39.4165 8.95829V12.5416Z" fill="#FED049"/>
<path d="M60.9167 84.2083C73.7803 84.2083 84.2083 73.7803 84.2083 60.9167C84.2083 48.053 73.7803 37.625 60.9167 37.625C48.053 37.625 37.625 48.053 37.625 60.9167C37.625 73.7803 48.053 84.2083 60.9167 84.2083Z" fill="#35DC86"/>
<path d="M55.5416 71.6667C55.0665 71.6666 54.6108 71.4777 54.2749 71.1417L48.8999 65.7667C48.5735 65.4288 48.393 64.9762 48.397 64.5064C48.4011 64.0367 48.5896 63.5873 48.9217 63.2551C49.2539 62.9229 49.7033 62.7345 50.1731 62.7304C50.6428 62.7263 51.0954 62.9069 51.4333 63.2333L55.5416 67.3416L70.3999 52.4833C70.7378 52.1569 71.1904 51.9763 71.6602 51.9804C72.1299 51.9845 72.5793 52.1729 72.9115 52.5051C73.2437 52.8373 73.4321 53.2867 73.4362 53.7564C73.4403 54.2262 73.2597 54.6788 72.9333 55.0167L56.8083 71.1417C56.4724 71.4777 56.0168 71.6666 55.5416 71.6667Z" fill="#F1F2F2"/>
</svg>
