<svg width="25" height="25" viewBox="0 0 25 25" fill="none" xmlns="http://www.w3.org/2000/svg">
<path fill-rule="evenodd" clip-rule="evenodd" d="M25 12.5C25 5.59644 19.4036 0 12.5 0C5.59644 0 0 5.59644 0 12.5C0 19.4036 5.59644 25 12.5 25C19.4036 25 25 19.4036 25 12.5Z" fill="#FFDDCF"/>
<path d="M16.7108 5.10348C16.8712 4.95925 16.8844 4.71227 16.7401 4.55183C16.5959 4.3914 16.3489 4.37826 16.1885 4.52249L7.94197 11.9361C7.76947 12.0912 7.76932 12.3616 7.94165 12.5168L16.1882 19.9469C16.3485 20.0913 16.5954 20.0785 16.7399 19.9182C16.8843 19.7579 16.8714 19.5109 16.7111 19.3665L8.78705 12.227L16.7108 5.10348Z" fill="#E45017"/>
</svg>
