<svg width="11" height="9" viewBox="0 0 11 9" fill="none" xmlns="http://www.w3.org/2000/svg">
<path fill-rule="evenodd" clip-rule="evenodd" d="M9.75 8.68359C10.0378 8.68359 10.2874 8.57357 10.499 8.35352C10.7106 8.13346 10.8164 7.87956 10.8164 7.5918V1.0918C10.8164 0.804036 10.7106 0.55013 10.499 0.330078C10.2874 0.110026 10.0378 0 9.75 0H1.06641C0.778646 0 0.528971 0.110026 0.317383 0.330078C0.105794 0.55013 0 0.804036 0 1.0918V7.5918C0 7.87956 0.105794 8.13346 0.317383 8.35352C0.528971 8.57357 0.778646 8.68359 1.06641 8.68359H9.75ZM5.4082 4.875L1.06641 2.18359V1.0918L5.4082 3.80859L9.75 1.0918V2.18359L5.4082 4.875Z" fill="#363565"/>
</svg>
