<svg width="14" height="14" viewBox="0 0 14 14" fill="none" xmlns="http://www.w3.org/2000/svg">
<path fill-rule="evenodd" clip-rule="evenodd" d="M12.6197 11.2066C12.9922 11.2066 13.3153 11.0642 13.5892 10.7793C13.8631 10.4945 14 10.1659 14 9.79343V1.38028C14 1.00782 13.8631 0.684663 13.5892 0.410798C13.3153 0.136933 12.9922 0 12.6197 0H4.20657C3.83412 0 3.50548 0.136933 3.22066 0.410798C2.93584 0.684663 2.79343 1.00782 2.79343 1.38028V9.79343C2.79343 10.1659 2.93584 10.4945 3.22066 10.7793C3.50548 11.0642 3.83412 11.2066 4.20657 11.2066H12.6197ZM11.8967 3.48357H4.89671V2.10329H11.8967V3.48357ZM11.2066 14V12.6197H1.38028V2.79343H0V12.6197C0 12.9922 0.136933 13.3153 0.410798 13.5892C0.684663 13.8631 1.00782 14 1.38028 14H11.2066ZM11.8967 6.30986H4.89671V4.89671H11.8967V6.30986ZM9.10329 9.10329H4.89671V7.69014H9.10329V9.10329Z" fill="white"/>
</svg>
