<svg width="11" height="11" viewBox="0 0 11 11" fill="none" xmlns="http://www.w3.org/2000/svg">
<path fill-rule="evenodd" clip-rule="evenodd" d="M9.75 8.6582C10.0378 8.6582 10.2874 8.54818 10.499 8.32812C10.7106 8.10807 10.8164 7.85417 10.8164 7.56641V1.06641C10.8164 0.778646 10.7106 0.528971 10.499 0.317383C10.2874 0.105794 10.0378 0 9.75 0H3.25C2.96224 0 2.70833 0.105794 2.48828 0.317383C2.26823 0.528971 2.1582 0.778646 2.1582 1.06641V7.56641C2.1582 7.85417 2.26823 8.10807 2.48828 8.32812C2.70833 8.54818 2.96224 8.6582 3.25 8.6582H9.75ZM9.19141 2.69141H3.7832V1.625H9.19141V2.69141ZM8.6582 10.8164V9.75H1.06641V2.1582H0V9.75C0 10.0378 0.105794 10.2874 0.317383 10.499C0.528971 10.7106 0.778646 10.8164 1.06641 10.8164H8.6582ZM9.19141 4.875H3.7832V3.7832H9.19141V4.875ZM7.0332 7.0332H3.7832V5.94141H7.0332V7.0332Z" fill="#363565"/>
</svg>
