<svg width="156" height="156" viewBox="0 0 156 156" fill="none" xmlns="http://www.w3.org/2000/svg">
<path d="M31.1477 135.598L20.3593 133.488L23.4732 116.03L7.37598 106.365L31.1465 66.8204V135.598H31.1477ZM75.4395 146.25L78.2646 147.951L87.7769 153.669L91.2138 147.951L91.7244 147.101L99.7901 148.683L105.184 149.738L108.724 150.419L112.177 151.099L112.483 149.55L113.129 146.249H75.4395V146.25ZM145.884 48.0188L141.682 45.4837L138.279 43.4423L132.222 39.8007L133.754 31.9739L122.966 29.8642V92.3118L125.689 87.7683L126.727 86.0669L138.281 66.8387L141.683 61.1727L144.1 57.1399L148.61 49.6531L145.884 48.0188ZM99.7548 20.2654L83.8793 10.7201L80.9702 8.96756L69.9271 2.33147L63.4104 13.171L60.6877 17.6975L58.3563 17.238L43.6374 14.3617L41.579 24.8771H107.412L99.7548 20.2654Z" fill="#E1DEFD"/>
<path d="M134.126 38.9318L135.742 30.6284L124.665 28.4676V23.1758H107.906L69.3472 0L63.953 8.96756L59.8531 15.8072L46.3932 13.1698L42.2921 12.3703L41.3391 17.2368L40.1825 23.1758H29.4453V66.3609L10.2183 98.3507L5.0459 106.944L8.17687 108.816L21.8403 117.034L18.3693 134.833L29.4465 136.994V147.951H73.2618L86.6522 156L90.0037 150.419L90.8544 148.99L93.7636 149.552L111.817 153.091L112.821 147.953H124.664V92.7871L150.953 49.0571L134.126 38.9318ZM29.4465 133.54L22.3509 132.144L25.2942 117.136L25.6342 115.35L29.4453 95.8498V133.54H29.4465ZM29.4465 78.1365L22.5386 113.495L9.72468 105.786L29.4453 72.98V78.1365H29.4465ZM66.8633 10.7201L70.505 4.68L101.27 23.1758H97.5941L82.7388 20.2666L63.4094 16.4885L66.8633 10.7201ZM61.5374 19.6024L79.8296 23.1758H43.6547L44.6931 17.901L44.9819 16.369L61.5374 19.6024ZM85.4956 151.338L81.0715 148.684L79.8637 147.953H85.5126L87.3164 148.31L86.4657 149.739L85.4956 151.338ZM109.131 149.109L103.209 147.953H109.351L109.131 149.109ZM121.262 144.549H32.8492V26.5785H121.263V144.549H121.262ZM124.666 31.9386L131.745 33.317L131.013 37.061L130.656 38.8647L128.87 48.0188L127.083 57.1387L124.666 69.5602V31.9386ZM133.429 42.5051L146.276 50.2308L125.006 85.6233L133.429 42.5051ZM41.8838 45.2278V46.9292H112.211V45.2278H41.8838ZM41.8838 55.4373V57.1387H112.211V55.4373H41.8838ZM41.8838 65.6468V67.3481H112.211V65.6468H41.8838ZM41.8838 75.8562V77.5576H112.211V75.8562H41.8838ZM41.8838 86.0657V87.7671H112.211V86.0657H41.8838ZM41.8838 96.2752V97.9765H112.211V96.2752H41.8838ZM41.8838 106.485V108.186H112.211V106.485H41.8838ZM41.8838 116.694V118.395H112.211V116.694H41.8838ZM41.8838 126.904V128.605H112.211V126.904H41.8838Z" fill="#242E78"/>
</svg>
