<svg width="626" height="274" viewBox="0 0 626 274" fill="none" xmlns="http://www.w3.org/2000/svg">
<g filter="url(#filter0_d)">
<rect x="40" y="20" width="566" height="214" rx="8" fill="white"/>
<path d="M311.146 71H338.001V80.5674C337.999 81.0643 337.8 81.5401 337.448 81.8907C337.096 82.2413 336.619 82.4381 336.122 82.4381H311.146C310.737 82.4371 310.332 82.5167 309.953 82.6724C309.575 82.828 309.231 83.0566 308.941 83.3452C308.651 83.6338 308.421 83.9766 308.263 84.3542C308.106 84.7318 308.024 85.1367 308.023 85.5458V74.0924C308.031 73.2695 308.364 72.4829 308.949 71.9039C309.533 71.3248 310.323 71 311.146 71Z" fill="url(#paint0_linear)"/>
<path d="M334.854 106.399H308V96.1822C308.002 95.6854 308.201 95.2096 308.553 94.859C308.905 94.5083 309.382 94.3115 309.878 94.3115H334.854C335.264 94.3125 335.67 94.2327 336.049 94.0766C336.428 93.9204 336.772 93.6911 337.062 93.4017C337.352 93.1124 337.582 92.7686 337.74 92.3901C337.897 92.0116 337.977 91.6059 337.977 91.1962V103.283C337.975 104.11 337.645 104.903 337.06 105.487C336.475 106.071 335.681 106.399 334.854 106.399Z" fill="url(#paint1_linear)"/>
<path d="M334.877 100.305L311.145 89.9745C309.565 89.211 308.022 88.5772 308.022 86.8592V74.1154C308.022 75.8334 309.488 76.4977 311.145 77.2307L334.877 87.554C336.404 88.3176 338 88.9514 338 90.6694V103.413C338 101.695 336.305 101.031 334.877 100.305Z" fill="url(#paint2_linear)"/>
<path d="M158.184 129.8V141H157.016V135.832H150.008V141H148.824V129.8H150.008V134.792H157.016V129.8H158.184ZM161.6 132.584H162.736V141H161.6V132.584ZM162.176 130.744C161.941 130.744 161.744 130.664 161.584 130.504C161.424 130.344 161.344 130.152 161.344 129.928C161.344 129.715 161.424 129.528 161.584 129.368C161.744 129.208 161.941 129.128 162.176 129.128C162.41 129.128 162.608 129.208 162.768 129.368C162.928 129.517 163.008 129.699 163.008 129.912C163.008 130.147 162.928 130.344 162.768 130.504C162.608 130.664 162.41 130.744 162.176 130.744ZM174.516 140.488C174.303 140.68 174.036 140.829 173.716 140.936C173.407 141.032 173.081 141.08 172.74 141.08C171.951 141.08 171.343 140.867 170.916 140.44C170.489 140.013 170.276 139.411 170.276 138.632V133.544H168.772V132.584H170.276V130.744H171.412V132.584H173.972V133.544H171.412V138.568C171.412 139.069 171.535 139.453 171.78 139.72C172.036 139.976 172.399 140.104 172.868 140.104C173.103 140.104 173.327 140.067 173.54 139.992C173.764 139.917 173.956 139.811 174.116 139.672L174.516 140.488ZM180.872 132.52C181.928 132.52 182.765 132.829 183.384 133.448C184.013 134.056 184.328 134.947 184.328 136.12V141H183.192V136.232C183.192 135.357 182.973 134.691 182.536 134.232C182.099 133.773 181.475 133.544 180.664 133.544C179.757 133.544 179.037 133.816 178.504 134.36C177.981 134.893 177.72 135.635 177.72 136.584V141H176.584V129.128H177.72V134.056C178.029 133.565 178.456 133.187 179 132.92C179.544 132.653 180.168 132.52 180.872 132.52ZM194.771 137.144H187.731C187.795 138.019 188.131 138.728 188.739 139.272C189.347 139.805 190.115 140.072 191.043 140.072C191.566 140.072 192.046 139.981 192.483 139.8C192.921 139.608 193.299 139.331 193.619 138.968L194.259 139.704C193.886 140.152 193.417 140.493 192.851 140.728C192.297 140.963 191.683 141.08 191.011 141.08C190.147 141.08 189.379 140.899 188.707 140.536C188.046 140.163 187.529 139.651 187.155 139C186.782 138.349 186.595 137.613 186.595 136.792C186.595 135.971 186.771 135.235 187.123 134.584C187.486 133.933 187.977 133.427 188.595 133.064C189.225 132.701 189.929 132.52 190.707 132.52C191.486 132.52 192.185 132.701 192.803 133.064C193.422 133.427 193.907 133.933 194.259 134.584C194.611 135.224 194.787 135.96 194.787 136.792L194.771 137.144ZM190.707 133.496C189.897 133.496 189.214 133.757 188.659 134.28C188.115 134.792 187.806 135.464 187.731 136.296H193.699C193.625 135.464 193.31 134.792 192.755 134.28C192.211 133.757 191.529 133.496 190.707 133.496ZM198.188 134.232C198.454 133.667 198.849 133.24 199.372 132.952C199.905 132.664 200.561 132.52 201.34 132.52V133.624L201.068 133.608C200.182 133.608 199.489 133.88 198.988 134.424C198.486 134.968 198.236 135.731 198.236 136.712V141H197.1V132.584H198.188V134.232ZM210.646 137.144H203.606C203.67 138.019 204.006 138.728 204.614 139.272C205.222 139.805 205.99 140.072 206.918 140.072C207.441 140.072 207.921 139.981 208.358 139.8C208.796 139.608 209.174 139.331 209.494 138.968L210.134 139.704C209.761 140.152 209.292 140.493 208.726 140.728C208.172 140.963 207.558 141.08 206.886 141.08C206.022 141.08 205.254 140.899 204.582 140.536C203.921 140.163 203.404 139.651 203.03 139C202.657 138.349 202.47 137.613 202.47 136.792C202.47 135.971 202.646 135.235 202.998 134.584C203.361 133.933 203.852 133.427 204.47 133.064C205.1 132.701 205.804 132.52 206.582 132.52C207.361 132.52 208.06 132.701 208.678 133.064C209.297 133.427 209.782 133.933 210.134 134.584C210.486 135.224 210.662 135.96 210.662 136.792L210.646 137.144ZM206.582 133.496C205.772 133.496 205.089 133.757 204.534 134.28C203.99 134.792 203.681 135.464 203.606 136.296H209.574C209.5 135.464 209.185 134.792 208.63 134.28C208.086 133.757 207.404 133.496 206.582 133.496ZM213.103 139.336C213.348 139.336 213.551 139.421 213.711 139.592C213.871 139.752 213.951 139.955 213.951 140.2C213.951 140.328 213.929 140.467 213.887 140.616C213.855 140.765 213.801 140.936 213.727 141.128L213.055 143.336H212.287L212.831 141.016C212.66 140.963 212.521 140.867 212.415 140.728C212.308 140.579 212.255 140.403 212.255 140.2C212.255 139.955 212.335 139.752 212.495 139.592C212.655 139.421 212.857 139.336 213.103 139.336ZM224.985 140.488C224.771 140.68 224.505 140.829 224.185 140.936C223.875 141.032 223.55 141.08 223.209 141.08C222.419 141.08 221.811 140.867 221.385 140.44C220.958 140.013 220.745 139.411 220.745 138.632V133.544H219.241V132.584H220.745V130.744H221.881V132.584H224.441V133.544H221.881V138.568C221.881 139.069 222.003 139.453 222.249 139.72C222.505 139.976 222.867 140.104 223.337 140.104C223.571 140.104 223.795 140.067 224.009 139.992C224.233 139.917 224.425 139.811 224.585 139.672L224.985 140.488ZM231.341 132.52C232.397 132.52 233.234 132.829 233.853 133.448C234.482 134.056 234.797 134.947 234.797 136.12V141H233.661V136.232C233.661 135.357 233.442 134.691 233.005 134.232C232.567 133.773 231.943 133.544 231.133 133.544C230.226 133.544 229.506 133.816 228.973 134.36C228.45 134.893 228.189 135.635 228.189 136.584V141H227.053V129.128H228.189V134.056C228.498 133.565 228.925 133.187 229.469 132.92C230.013 132.653 230.637 132.52 231.341 132.52ZM240.825 132.52C241.924 132.52 242.766 132.797 243.353 133.352C243.94 133.896 244.233 134.707 244.233 135.784V141H243.145V139.688C242.889 140.125 242.51 140.467 242.009 140.712C241.518 140.957 240.932 141.08 240.249 141.08C239.31 141.08 238.564 140.856 238.009 140.408C237.454 139.96 237.177 139.368 237.177 138.632C237.177 137.917 237.433 137.341 237.945 136.904C238.468 136.467 239.294 136.248 240.425 136.248H243.097V135.736C243.097 135.011 242.894 134.461 242.489 134.088C242.084 133.704 241.492 133.512 240.713 133.512C240.18 133.512 239.668 133.603 239.177 133.784C238.686 133.955 238.265 134.195 237.913 134.504L237.401 133.656C237.828 133.293 238.34 133.016 238.937 132.824C239.534 132.621 240.164 132.52 240.825 132.52ZM240.425 140.184C241.065 140.184 241.614 140.04 242.073 139.752C242.532 139.453 242.873 139.027 243.097 138.472V137.096H240.457C239.017 137.096 238.297 137.597 238.297 138.6C238.297 139.091 238.484 139.48 238.857 139.768C239.23 140.045 239.753 140.184 240.425 140.184ZM251.606 132.52C252.662 132.52 253.5 132.829 254.118 133.448C254.748 134.056 255.062 134.947 255.062 136.12V141H253.926V136.232C253.926 135.357 253.708 134.691 253.27 134.232C252.833 133.773 252.209 133.544 251.398 133.544C250.492 133.544 249.772 133.816 249.238 134.36C248.716 134.893 248.454 135.635 248.454 136.584V141H247.318V132.584H248.406V134.136C248.716 133.624 249.142 133.229 249.686 132.952C250.241 132.664 250.881 132.52 251.606 132.52ZM261.266 136.776L259.283 138.6V141H258.147V129.128H259.283V137.176L264.307 132.584H265.715L262.115 136.024L266.051 141H264.659L261.266 136.776ZM279.015 132.584L274.807 142.008C274.466 142.797 274.071 143.357 273.623 143.688C273.175 144.019 272.637 144.184 272.007 144.184C271.602 144.184 271.223 144.12 270.871 143.992C270.519 143.864 270.215 143.672 269.959 143.416L270.487 142.568C270.914 142.995 271.426 143.208 272.023 143.208C272.407 143.208 272.733 143.101 272.999 142.888C273.277 142.675 273.533 142.312 273.767 141.8L274.135 140.984L270.375 132.584H271.559L274.727 139.736L277.895 132.584H279.015ZM283.821 141.08C283.01 141.08 282.28 140.899 281.629 140.536C280.978 140.163 280.466 139.651 280.093 139C279.72 138.349 279.533 137.613 279.533 136.792C279.533 135.971 279.72 135.235 280.093 134.584C280.466 133.933 280.978 133.427 281.629 133.064C282.28 132.701 283.01 132.52 283.821 132.52C284.632 132.52 285.362 132.701 286.013 133.064C286.664 133.427 287.17 133.933 287.533 134.584C287.906 135.235 288.093 135.971 288.093 136.792C288.093 137.613 287.906 138.349 287.533 139C287.17 139.651 286.664 140.163 286.013 140.536C285.362 140.899 284.632 141.08 283.821 141.08ZM283.821 140.072C284.418 140.072 284.952 139.939 285.421 139.672C285.901 139.395 286.274 139.005 286.541 138.504C286.808 138.003 286.941 137.432 286.941 136.792C286.941 136.152 286.808 135.581 286.541 135.08C286.274 134.579 285.901 134.195 285.421 133.928C284.952 133.651 284.418 133.512 283.821 133.512C283.224 133.512 282.685 133.651 282.205 133.928C281.736 134.195 281.362 134.579 281.085 135.08C280.818 135.581 280.685 136.152 280.685 136.792C280.685 137.432 280.818 138.003 281.085 138.504C281.362 139.005 281.736 139.395 282.205 139.672C282.685 139.939 283.224 140.072 283.821 140.072ZM297.996 132.584V141H296.908V139.464C296.609 139.976 296.199 140.376 295.676 140.664C295.153 140.941 294.556 141.08 293.884 141.08C292.785 141.08 291.916 140.776 291.276 140.168C290.647 139.549 290.332 138.648 290.332 137.464V132.584H291.468V137.352C291.468 138.237 291.687 138.909 292.124 139.368C292.561 139.827 293.185 140.056 293.996 140.056C294.881 140.056 295.58 139.789 296.092 139.256C296.604 138.712 296.86 137.96 296.86 137V132.584H297.996ZM308.149 130.008C307.659 130.008 307.285 130.141 307.029 130.408C306.784 130.675 306.661 131.069 306.661 131.592V132.584H309.253V133.544H306.693V141H305.557V133.544H304.053V132.584H305.557V131.544C305.557 130.776 305.776 130.168 306.213 129.72C306.661 129.272 307.291 129.048 308.101 129.048C308.421 129.048 308.731 129.096 309.029 129.192C309.328 129.277 309.579 129.405 309.781 129.576L309.397 130.424C309.067 130.147 308.651 130.008 308.149 130.008ZM314.087 141.08C313.276 141.08 312.545 140.899 311.895 140.536C311.244 140.163 310.732 139.651 310.359 139C309.985 138.349 309.799 137.613 309.799 136.792C309.799 135.971 309.985 135.235 310.359 134.584C310.732 133.933 311.244 133.427 311.895 133.064C312.545 132.701 313.276 132.52 314.087 132.52C314.897 132.52 315.628 132.701 316.279 133.064C316.929 133.427 317.436 133.933 317.799 134.584C318.172 135.235 318.359 135.971 318.359 136.792C318.359 137.613 318.172 138.349 317.799 139C317.436 139.651 316.929 140.163 316.279 140.536C315.628 140.899 314.897 141.08 314.087 141.08ZM314.087 140.072C314.684 140.072 315.217 139.939 315.687 139.672C316.167 139.395 316.54 139.005 316.807 138.504C317.073 138.003 317.207 137.432 317.207 136.792C317.207 136.152 317.073 135.581 316.807 135.08C316.54 134.579 316.167 134.195 315.687 133.928C315.217 133.651 314.684 133.512 314.087 133.512C313.489 133.512 312.951 133.651 312.471 133.928C312.001 134.195 311.628 134.579 311.351 135.08C311.084 135.581 310.951 136.152 310.951 136.792C310.951 137.432 311.084 138.003 311.351 138.504C311.628 139.005 312.001 139.395 312.471 139.672C312.951 139.939 313.489 140.072 314.087 140.072ZM321.766 134.232C322.032 133.667 322.427 133.24 322.95 132.952C323.483 132.664 324.139 132.52 324.918 132.52V133.624L324.646 133.608C323.76 133.608 323.067 133.88 322.566 134.424C322.064 134.968 321.814 135.731 321.814 136.712V141H320.678V132.584H321.766V134.232ZM334.775 141.08C333.943 141.08 333.196 140.899 332.535 140.536C331.884 140.173 331.372 139.667 330.999 139.016C330.626 138.355 330.439 137.613 330.439 136.792C330.439 135.971 330.626 135.235 330.999 134.584C331.372 133.933 331.884 133.427 332.535 133.064C333.196 132.701 333.943 132.52 334.775 132.52C335.5 132.52 336.146 132.664 336.711 132.952C337.287 133.229 337.74 133.64 338.071 134.184L337.223 134.76C336.946 134.344 336.594 134.035 336.167 133.832C335.74 133.619 335.276 133.512 334.775 133.512C334.167 133.512 333.618 133.651 333.127 133.928C332.647 134.195 332.268 134.579 331.991 135.08C331.724 135.581 331.591 136.152 331.591 136.792C331.591 137.443 331.724 138.019 331.991 138.52C332.268 139.011 332.647 139.395 333.127 139.672C333.618 139.939 334.167 140.072 334.775 140.072C335.276 140.072 335.74 139.971 336.167 139.768C336.594 139.565 336.946 139.256 337.223 138.84L338.071 139.416C337.74 139.96 337.287 140.376 336.711 140.664C336.135 140.941 335.49 141.08 334.775 141.08ZM344.466 132.52C345.522 132.52 346.359 132.829 346.978 133.448C347.607 134.056 347.922 134.947 347.922 136.12V141H346.786V136.232C346.786 135.357 346.567 134.691 346.13 134.232C345.692 133.773 345.068 133.544 344.258 133.544C343.351 133.544 342.631 133.816 342.098 134.36C341.575 134.893 341.314 135.635 341.314 136.584V141H340.178V129.128H341.314V134.056C341.623 133.565 342.05 133.187 342.594 132.92C343.138 132.653 343.762 132.52 344.466 132.52ZM354.477 141.08C353.666 141.08 352.936 140.899 352.285 140.536C351.634 140.163 351.122 139.651 350.749 139C350.376 138.349 350.189 137.613 350.189 136.792C350.189 135.971 350.376 135.235 350.749 134.584C351.122 133.933 351.634 133.427 352.285 133.064C352.936 132.701 353.666 132.52 354.477 132.52C355.288 132.52 356.018 132.701 356.669 133.064C357.32 133.427 357.826 133.933 358.189 134.584C358.562 135.235 358.749 135.971 358.749 136.792C358.749 137.613 358.562 138.349 358.189 139C357.826 139.651 357.32 140.163 356.669 140.536C356.018 140.899 355.288 141.08 354.477 141.08ZM354.477 140.072C355.074 140.072 355.608 139.939 356.077 139.672C356.557 139.395 356.93 139.005 357.197 138.504C357.464 138.003 357.597 137.432 357.597 136.792C357.597 136.152 357.464 135.581 357.197 135.08C356.93 134.579 356.557 134.195 356.077 133.928C355.608 133.651 355.074 133.512 354.477 133.512C353.88 133.512 353.341 133.651 352.861 133.928C352.392 134.195 352.018 134.579 351.741 135.08C351.474 135.581 351.341 136.152 351.341 136.792C351.341 137.432 351.474 138.003 351.741 138.504C352.018 139.005 352.392 139.395 352.861 139.672C353.341 139.939 353.88 140.072 354.477 140.072ZM364.508 141.08C363.698 141.08 362.967 140.899 362.316 140.536C361.666 140.163 361.154 139.651 360.78 139C360.407 138.349 360.22 137.613 360.22 136.792C360.22 135.971 360.407 135.235 360.78 134.584C361.154 133.933 361.666 133.427 362.316 133.064C362.967 132.701 363.698 132.52 364.508 132.52C365.319 132.52 366.05 132.701 366.7 133.064C367.351 133.427 367.858 133.933 368.22 134.584C368.594 135.235 368.78 135.971 368.78 136.792C368.78 137.613 368.594 138.349 368.22 139C367.858 139.651 367.351 140.163 366.7 140.536C366.05 140.899 365.319 141.08 364.508 141.08ZM364.508 140.072C365.106 140.072 365.639 139.939 366.108 139.672C366.588 139.395 366.962 139.005 367.228 138.504C367.495 138.003 367.628 137.432 367.628 136.792C367.628 136.152 367.495 135.581 367.228 135.08C366.962 134.579 366.588 134.195 366.108 133.928C365.639 133.651 365.106 133.512 364.508 133.512C363.911 133.512 363.372 133.651 362.892 133.928C362.423 134.195 362.05 134.579 361.772 135.08C361.506 135.581 361.372 136.152 361.372 136.792C361.372 137.432 361.506 138.003 361.772 138.504C362.05 139.005 362.423 139.395 362.892 139.672C363.372 139.939 363.911 140.072 364.508 140.072ZM373.356 141.08C372.673 141.08 372.017 140.984 371.388 140.792C370.769 140.589 370.284 140.339 369.932 140.04L370.444 139.144C370.796 139.421 371.238 139.651 371.772 139.832C372.305 140.003 372.86 140.088 373.436 140.088C374.204 140.088 374.769 139.971 375.132 139.736C375.505 139.491 375.692 139.149 375.692 138.712C375.692 138.403 375.59 138.163 375.388 137.992C375.185 137.811 374.929 137.677 374.62 137.592C374.31 137.496 373.9 137.405 373.388 137.32C372.705 137.192 372.156 137.064 371.74 136.936C371.324 136.797 370.966 136.568 370.668 136.248C370.38 135.928 370.236 135.485 370.236 134.92C370.236 134.216 370.529 133.64 371.116 133.192C371.702 132.744 372.518 132.52 373.564 132.52C374.108 132.52 374.652 132.595 375.196 132.744C375.74 132.883 376.188 133.069 376.54 133.304L376.044 134.216C375.35 133.736 374.524 133.496 373.564 133.496C372.838 133.496 372.289 133.624 371.916 133.88C371.553 134.136 371.372 134.472 371.372 134.888C371.372 135.208 371.473 135.464 371.676 135.656C371.889 135.848 372.15 135.992 372.46 136.088C372.769 136.173 373.196 136.264 373.74 136.36C374.412 136.488 374.95 136.616 375.356 136.744C375.761 136.872 376.108 137.091 376.396 137.4C376.684 137.709 376.828 138.136 376.828 138.68C376.828 139.416 376.518 140.003 375.9 140.44C375.292 140.867 374.444 141.08 373.356 141.08ZM378.928 132.584H380.064V141H378.928V132.584ZM379.504 130.744C379.269 130.744 379.072 130.664 378.912 130.504C378.752 130.344 378.672 130.152 378.672 129.928C378.672 129.715 378.752 129.528 378.912 129.368C379.072 129.208 379.269 129.128 379.504 129.128C379.738 129.128 379.936 129.208 380.096 129.368C380.256 129.517 380.336 129.699 380.336 129.912C380.336 130.147 380.256 130.344 380.096 130.504C379.936 130.664 379.738 130.744 379.504 130.744ZM387.513 132.52C388.569 132.52 389.406 132.829 390.025 133.448C390.654 134.056 390.969 134.947 390.969 136.12V141H389.833V136.232C389.833 135.357 389.614 134.691 389.177 134.232C388.739 133.773 388.115 133.544 387.305 133.544C386.398 133.544 385.678 133.816 385.145 134.36C384.622 134.893 384.361 135.635 384.361 136.584V141H383.225V132.584H384.313V134.136C384.622 133.624 385.049 133.229 385.593 132.952C386.147 132.664 386.787 132.52 387.513 132.52ZM401.876 132.584V139.976C401.876 141.405 401.524 142.461 400.82 143.144C400.127 143.837 399.076 144.184 397.668 144.184C396.889 144.184 396.148 144.067 395.444 143.832C394.751 143.608 394.185 143.293 393.748 142.888L394.324 142.024C394.729 142.387 395.22 142.669 395.796 142.872C396.383 143.075 396.996 143.176 397.636 143.176C398.703 143.176 399.487 142.925 399.988 142.424C400.489 141.933 400.74 141.165 400.74 140.12V139.048C400.388 139.581 399.924 139.987 399.348 140.264C398.783 140.541 398.153 140.68 397.46 140.68C396.671 140.68 395.951 140.509 395.3 140.168C394.66 139.816 394.153 139.331 393.78 138.712C393.417 138.083 393.236 137.373 393.236 136.584C393.236 135.795 393.417 135.091 393.78 134.472C394.153 133.853 394.66 133.373 395.3 133.032C395.94 132.691 396.66 132.52 397.46 132.52C398.175 132.52 398.82 132.664 399.396 132.952C399.972 133.24 400.436 133.656 400.788 134.2V132.584H401.876ZM397.572 139.672C398.18 139.672 398.729 139.544 399.22 139.288C399.711 139.021 400.089 138.653 400.356 138.184C400.633 137.715 400.772 137.181 400.772 136.584C400.772 135.987 400.633 135.459 400.356 135C400.089 134.531 399.711 134.168 399.22 133.912C398.74 133.645 398.191 133.512 397.572 133.512C396.964 133.512 396.415 133.64 395.924 133.896C395.444 134.152 395.065 134.515 394.788 134.984C394.521 135.453 394.388 135.987 394.388 136.584C394.388 137.181 394.521 137.715 394.788 138.184C395.065 138.653 395.444 139.021 395.924 139.288C396.415 139.544 396.964 139.672 397.572 139.672ZM465.387 129.8H469.947C471.131 129.8 472.176 130.04 473.083 130.52C473.989 130.989 474.693 131.651 475.195 132.504C475.696 133.347 475.947 134.312 475.947 135.4C475.947 136.488 475.696 137.459 475.195 138.312C474.693 139.155 473.989 139.816 473.083 140.296C472.176 140.765 471.131 141 469.947 141H465.387V129.8ZM469.883 139.976C470.864 139.976 471.723 139.784 472.459 139.4C473.195 139.005 473.765 138.467 474.171 137.784C474.576 137.091 474.779 136.296 474.779 135.4C474.779 134.504 474.576 133.715 474.171 133.032C473.765 132.339 473.195 131.8 472.459 131.416C471.723 131.021 470.864 130.824 469.883 130.824H466.571V139.976H469.883ZM481.805 141.08C480.995 141.08 480.264 140.899 479.613 140.536C478.963 140.163 478.451 139.651 478.077 139C477.704 138.349 477.517 137.613 477.517 136.792C477.517 135.971 477.704 135.235 478.077 134.584C478.451 133.933 478.963 133.427 479.613 133.064C480.264 132.701 480.995 132.52 481.805 132.52C482.616 132.52 483.347 132.701 483.997 133.064C484.648 133.427 485.155 133.933 485.517 134.584C485.891 135.235 486.077 135.971 486.077 136.792C486.077 137.613 485.891 138.349 485.517 139C485.155 139.651 484.648 140.163 483.997 140.536C483.347 140.899 482.616 141.08 481.805 141.08ZM481.805 140.072C482.403 140.072 482.936 139.939 483.405 139.672C483.885 139.395 484.259 139.005 484.525 138.504C484.792 138.003 484.925 137.432 484.925 136.792C484.925 136.152 484.792 135.581 484.525 135.08C484.259 134.579 483.885 134.195 483.405 133.928C482.936 133.651 482.403 133.512 481.805 133.512C481.208 133.512 480.669 133.651 480.189 133.928C479.72 134.195 479.347 134.579 479.069 135.08C478.803 135.581 478.669 136.152 478.669 136.792C478.669 137.432 478.803 138.003 479.069 138.504C479.347 139.005 479.72 139.395 480.189 139.672C480.669 139.939 481.208 140.072 481.805 140.072ZM491.885 141.08C491.053 141.08 490.306 140.899 489.645 140.536C488.994 140.173 488.482 139.667 488.109 139.016C487.735 138.355 487.549 137.613 487.549 136.792C487.549 135.971 487.735 135.235 488.109 134.584C488.482 133.933 488.994 133.427 489.645 133.064C490.306 132.701 491.053 132.52 491.885 132.52C492.61 132.52 493.255 132.664 493.821 132.952C494.397 133.229 494.85 133.64 495.181 134.184L494.333 134.76C494.055 134.344 493.703 134.035 493.277 133.832C492.85 133.619 492.386 133.512 491.885 133.512C491.277 133.512 490.727 133.651 490.237 133.928C489.757 134.195 489.378 134.579 489.101 135.08C488.834 135.581 488.701 136.152 488.701 136.792C488.701 137.443 488.834 138.019 489.101 138.52C489.378 139.011 489.757 139.395 490.237 139.672C490.727 139.939 491.277 140.072 491.885 140.072C492.386 140.072 492.85 139.971 493.277 139.768C493.703 139.565 494.055 139.256 494.333 138.84L495.181 139.416C494.85 139.96 494.397 140.376 493.821 140.664C493.245 140.941 492.599 141.08 491.885 141.08ZM497.837 141.08C497.602 141.08 497.399 140.995 497.229 140.824C497.069 140.653 496.989 140.445 496.989 140.2C496.989 139.955 497.069 139.752 497.229 139.592C497.399 139.421 497.602 139.336 497.837 139.336C498.071 139.336 498.274 139.421 498.445 139.592C498.615 139.752 498.701 139.955 498.701 140.2C498.701 140.445 498.615 140.653 498.445 140.824C498.274 140.995 498.071 141.08 497.837 141.08Z" fill="#242E78"/>
<path d="M412.568 141.096C411.736 141.096 410.936 140.963 410.168 140.696C409.411 140.429 408.824 140.077 408.408 139.64L408.872 138.728C409.278 139.133 409.816 139.464 410.488 139.72C411.16 139.965 411.854 140.088 412.568 140.088C413.571 140.088 414.323 139.907 414.824 139.544C415.326 139.171 415.576 138.691 415.576 138.104C415.576 137.656 415.438 137.299 415.16 137.032C414.894 136.765 414.563 136.563 414.168 136.424C413.774 136.275 413.224 136.115 412.52 135.944C411.678 135.731 411.006 135.528 410.504 135.336C410.003 135.133 409.571 134.829 409.208 134.424C408.856 134.019 408.68 133.469 408.68 132.776C408.68 132.211 408.83 131.699 409.128 131.24C409.427 130.771 409.886 130.397 410.504 130.12C411.123 129.843 411.891 129.704 412.808 129.704C413.448 129.704 414.072 129.795 414.68 129.976C415.299 130.147 415.832 130.387 416.28 130.696L415.88 131.64C415.411 131.331 414.91 131.101 414.376 130.952C413.843 130.792 413.32 130.712 412.808 130.712C411.827 130.712 411.086 130.904 410.584 131.288C410.094 131.661 409.848 132.147 409.848 132.744C409.848 133.192 409.982 133.555 410.248 133.832C410.526 134.099 410.867 134.307 411.272 134.456C411.688 134.595 412.243 134.749 412.936 134.92C413.758 135.123 414.419 135.325 414.92 135.528C415.432 135.72 415.864 136.019 416.216 136.424C416.568 136.819 416.744 137.357 416.744 138.04C416.744 138.605 416.59 139.123 416.28 139.592C415.982 140.051 415.518 140.419 414.888 140.696C414.259 140.963 413.486 141.096 412.568 141.096ZM419.084 132.584H420.22V141H419.084V132.584ZM419.66 130.744C419.425 130.744 419.228 130.664 419.068 130.504C418.908 130.344 418.828 130.152 418.828 129.928C418.828 129.715 418.908 129.528 419.068 129.368C419.228 129.208 419.425 129.128 419.66 129.128C419.895 129.128 420.092 129.208 420.252 129.368C420.412 129.517 420.492 129.699 420.492 129.912C420.492 130.147 420.412 130.344 420.252 130.504C420.092 130.664 419.895 130.744 419.66 130.744ZM433.877 132.52C434.933 132.52 435.76 132.824 436.357 133.432C436.965 134.04 437.269 134.936 437.269 136.12V141H436.133V136.232C436.133 135.357 435.92 134.691 435.493 134.232C435.077 133.773 434.485 133.544 433.717 133.544C432.842 133.544 432.154 133.816 431.653 134.36C431.152 134.893 430.901 135.635 430.901 136.584V141H429.765V136.232C429.765 135.357 429.552 134.691 429.125 134.232C428.709 133.773 428.112 133.544 427.333 133.544C426.469 133.544 425.781 133.816 425.269 134.36C424.768 134.893 424.517 135.635 424.517 136.584V141H423.381V132.584H424.469V134.12C424.768 133.608 425.184 133.213 425.717 132.936C426.25 132.659 426.864 132.52 427.557 132.52C428.261 132.52 428.869 132.669 429.381 132.968C429.904 133.267 430.293 133.709 430.549 134.296C430.858 133.741 431.301 133.309 431.877 133C432.464 132.68 433.13 132.52 433.877 132.52ZM444.686 132.52C445.475 132.52 446.19 132.701 446.83 133.064C447.47 133.416 447.971 133.917 448.334 134.568C448.696 135.219 448.878 135.96 448.878 136.792C448.878 137.635 448.696 138.381 448.334 139.032C447.971 139.683 447.47 140.189 446.83 140.552C446.2 140.904 445.486 141.08 444.686 141.08C444.003 141.08 443.384 140.941 442.83 140.664C442.286 140.376 441.838 139.96 441.486 139.416V144.104H440.35V132.584H441.438V134.248C441.779 133.693 442.227 133.267 442.782 132.968C443.347 132.669 443.982 132.52 444.686 132.52ZM444.606 140.072C445.192 140.072 445.726 139.939 446.206 139.672C446.686 139.395 447.059 139.005 447.326 138.504C447.603 138.003 447.742 137.432 447.742 136.792C447.742 136.152 447.603 135.587 447.326 135.096C447.059 134.595 446.686 134.205 446.206 133.928C445.726 133.651 445.192 133.512 444.606 133.512C444.008 133.512 443.47 133.651 442.99 133.928C442.52 134.205 442.147 134.595 441.87 135.096C441.603 135.587 441.47 136.152 441.47 136.792C441.47 137.432 441.603 138.003 441.87 138.504C442.147 139.005 442.52 139.395 442.99 139.672C443.47 139.939 444.008 140.072 444.606 140.072ZM451.193 129.128H452.329V141H451.193V129.128ZM462.818 137.144H455.778C455.842 138.019 456.178 138.728 456.786 139.272C457.394 139.805 458.162 140.072 459.09 140.072C459.613 140.072 460.093 139.981 460.53 139.8C460.968 139.608 461.346 139.331 461.666 138.968L462.306 139.704C461.933 140.152 461.464 140.493 460.898 140.728C460.344 140.963 459.73 141.08 459.058 141.08C458.194 141.08 457.426 140.899 456.754 140.536C456.093 140.163 455.576 139.651 455.202 139C454.829 138.349 454.642 137.613 454.642 136.792C454.642 135.971 454.818 135.235 455.17 134.584C455.533 133.933 456.024 133.427 456.642 133.064C457.272 132.701 457.976 132.52 458.754 132.52C459.533 132.52 460.232 132.701 460.85 133.064C461.469 133.427 461.954 133.933 462.306 134.584C462.658 135.224 462.834 135.96 462.834 136.792L462.818 137.144ZM458.754 133.496C457.944 133.496 457.261 133.757 456.706 134.28C456.162 134.792 455.853 135.464 455.778 136.296H461.746C461.672 135.464 461.357 134.792 460.802 134.28C460.258 133.757 459.576 133.496 458.754 133.496Z" fill="#4B5FF7"/>
<path d="M226.336 170.048V174H224.256V170.08L219.856 162.8H222.08L225.36 168.256L228.672 162.8H230.72L226.336 170.048ZM234.777 174.112C233.913 174.112 233.134 173.925 232.441 173.552C231.748 173.179 231.204 172.661 230.809 172C230.425 171.328 230.233 170.571 230.233 169.728C230.233 168.885 230.425 168.133 230.809 167.472C231.204 166.811 231.748 166.293 232.441 165.92C233.134 165.547 233.913 165.36 234.777 165.36C235.652 165.36 236.436 165.547 237.129 165.92C237.822 166.293 238.361 166.811 238.745 167.472C239.14 168.133 239.337 168.885 239.337 169.728C239.337 170.571 239.14 171.328 238.745 172C238.361 172.661 237.822 173.179 237.129 173.552C236.436 173.925 235.652 174.112 234.777 174.112ZM234.777 172.4C235.513 172.4 236.121 172.155 236.601 171.664C237.081 171.173 237.321 170.528 237.321 169.728C237.321 168.928 237.081 168.283 236.601 167.792C236.121 167.301 235.513 167.056 234.777 167.056C234.041 167.056 233.433 167.301 232.953 167.792C232.484 168.283 232.249 168.928 232.249 169.728C232.249 170.528 232.484 171.173 232.953 171.664C233.433 172.155 234.041 172.4 234.777 172.4ZM249.522 165.456V174H247.618V172.912C247.298 173.296 246.898 173.595 246.418 173.808C245.938 174.011 245.42 174.112 244.866 174.112C243.724 174.112 242.823 173.797 242.162 173.168C241.511 172.528 241.186 171.584 241.186 170.336V165.456H243.186V170.064C243.186 170.832 243.356 171.408 243.698 171.792C244.05 172.165 244.546 172.352 245.186 172.352C245.9 172.352 246.466 172.133 246.882 171.696C247.308 171.248 247.522 170.608 247.522 169.776V165.456H249.522ZM254.044 166.704C254.62 165.808 255.633 165.36 257.084 165.36V167.264C256.913 167.232 256.759 167.216 256.62 167.216C255.841 167.216 255.233 167.445 254.796 167.904C254.359 168.352 254.14 169.003 254.14 169.856V174H252.14V165.456H254.044V166.704ZM267.121 174.112C266.257 174.112 265.478 173.925 264.785 173.552C264.091 173.179 263.547 172.661 263.153 172C262.769 171.328 262.577 170.571 262.577 169.728C262.577 168.885 262.769 168.133 263.153 167.472C263.547 166.811 264.091 166.293 264.785 165.92C265.478 165.547 266.257 165.36 267.121 165.36C267.995 165.36 268.779 165.547 269.473 165.92C270.166 166.293 270.705 166.811 271.089 167.472C271.483 168.133 271.681 168.885 271.681 169.728C271.681 170.571 271.483 171.328 271.089 172C270.705 172.661 270.166 173.179 269.473 173.552C268.779 173.925 267.995 174.112 267.121 174.112ZM267.121 172.4C267.857 172.4 268.465 172.155 268.945 171.664C269.425 171.173 269.665 170.528 269.665 169.728C269.665 168.928 269.425 168.283 268.945 167.792C268.465 167.301 267.857 167.056 267.121 167.056C266.385 167.056 265.777 167.301 265.297 167.792C264.827 168.283 264.593 168.928 264.593 169.728C264.593 170.528 264.827 171.173 265.297 171.664C265.777 172.155 266.385 172.4 267.121 172.4ZM275.497 166.704C276.073 165.808 277.087 165.36 278.537 165.36V167.264C278.367 167.232 278.212 167.216 278.073 167.216C277.295 167.216 276.687 167.445 276.249 167.904C275.812 168.352 275.593 169.003 275.593 169.856V174H273.593V165.456H275.497V166.704ZM288.524 162.128V174H286.604V172.896C286.273 173.301 285.862 173.605 285.372 173.808C284.892 174.011 284.358 174.112 283.772 174.112C282.95 174.112 282.209 173.931 281.548 173.568C280.897 173.205 280.385 172.693 280.012 172.032C279.638 171.36 279.452 170.592 279.452 169.728C279.452 168.864 279.638 168.101 280.012 167.44C280.385 166.779 280.897 166.267 281.548 165.904C282.209 165.541 282.95 165.36 283.772 165.36C284.337 165.36 284.854 165.456 285.324 165.648C285.793 165.84 286.193 166.128 286.524 166.512V162.128H288.524ZM284.012 172.4C284.492 172.4 284.924 172.293 285.308 172.08C285.692 171.856 285.996 171.541 286.22 171.136C286.444 170.731 286.556 170.261 286.556 169.728C286.556 169.195 286.444 168.725 286.22 168.32C285.996 167.915 285.692 167.605 285.308 167.392C284.924 167.168 284.492 167.056 284.012 167.056C283.532 167.056 283.1 167.168 282.716 167.392C282.332 167.605 282.028 167.915 281.804 168.32C281.58 168.725 281.468 169.195 281.468 169.728C281.468 170.261 281.58 170.731 281.804 171.136C282.028 171.541 282.332 171.856 282.716 172.08C283.1 172.293 283.532 172.4 284.012 172.4ZM299.172 169.776C299.172 169.915 299.161 170.112 299.14 170.368H292.436C292.553 170.997 292.857 171.499 293.348 171.872C293.849 172.235 294.468 172.416 295.204 172.416C296.143 172.416 296.916 172.107 297.524 171.488L298.596 172.72C298.212 173.179 297.727 173.525 297.14 173.76C296.553 173.995 295.892 174.112 295.156 174.112C294.217 174.112 293.391 173.925 292.676 173.552C291.961 173.179 291.407 172.661 291.012 172C290.628 171.328 290.436 170.571 290.436 169.728C290.436 168.896 290.623 168.149 290.996 167.488C291.38 166.816 291.908 166.293 292.58 165.92C293.252 165.547 294.009 165.36 294.852 165.36C295.684 165.36 296.425 165.547 297.076 165.92C297.737 166.283 298.249 166.8 298.612 167.472C298.985 168.133 299.172 168.901 299.172 169.776ZM294.852 166.96C294.212 166.96 293.668 167.152 293.22 167.536C292.783 167.909 292.516 168.411 292.42 169.04H297.268C297.183 168.421 296.921 167.92 296.484 167.536C296.047 167.152 295.503 166.96 294.852 166.96ZM302.997 166.704C303.573 165.808 304.587 165.36 306.037 165.36V167.264C305.867 167.232 305.712 167.216 305.573 167.216C304.795 167.216 304.187 167.445 303.749 167.904C303.312 168.352 303.093 169.003 303.093 169.856V174H301.093V165.456H302.997V166.704ZM307.734 165.456H309.734V174H307.734V165.456ZM308.742 164.048C308.379 164.048 308.075 163.936 307.83 163.712C307.585 163.477 307.462 163.189 307.462 162.848C307.462 162.507 307.585 162.224 307.83 162C308.075 161.765 308.379 161.648 308.742 161.648C309.105 161.648 309.409 161.76 309.654 161.984C309.899 162.197 310.022 162.469 310.022 162.8C310.022 163.152 309.899 163.451 309.654 163.696C309.419 163.931 309.115 164.048 308.742 164.048ZM317.207 165.36C318.284 165.36 319.148 165.675 319.799 166.304C320.45 166.933 320.775 167.867 320.775 169.104V174H318.775V169.36C318.775 168.613 318.599 168.053 318.247 167.68C317.895 167.296 317.394 167.104 316.743 167.104C316.007 167.104 315.426 167.328 314.999 167.776C314.572 168.213 314.359 168.848 314.359 169.68V174H312.359V165.456H314.263V166.56C314.594 166.165 315.01 165.867 315.511 165.664C316.012 165.461 316.578 165.36 317.207 165.36ZM331.87 165.456V172.704C331.87 175.712 330.334 177.216 327.262 177.216C326.441 177.216 325.662 177.109 324.926 176.896C324.19 176.693 323.582 176.395 323.102 176L323.998 174.496C324.371 174.805 324.841 175.051 325.406 175.232C325.982 175.424 326.563 175.52 327.15 175.52C328.089 175.52 328.777 175.307 329.214 174.88C329.651 174.453 329.87 173.803 329.87 172.928V172.48C329.529 172.853 329.113 173.136 328.622 173.328C328.131 173.52 327.593 173.616 327.006 173.616C326.195 173.616 325.459 173.445 324.798 173.104C324.147 172.752 323.63 172.261 323.246 171.632C322.873 171.003 322.686 170.283 322.686 169.472C322.686 168.661 322.873 167.947 323.246 167.328C323.63 166.699 324.147 166.213 324.798 165.872C325.459 165.531 326.195 165.36 327.006 165.36C327.625 165.36 328.185 165.461 328.686 165.664C329.198 165.867 329.625 166.176 329.966 166.592V165.456H331.87ZM327.31 171.92C328.067 171.92 328.686 171.696 329.166 171.248C329.657 170.789 329.902 170.197 329.902 169.472C329.902 168.757 329.657 168.176 329.166 167.728C328.686 167.28 328.067 167.056 327.31 167.056C326.542 167.056 325.913 167.28 325.422 167.728C324.942 168.176 324.702 168.757 324.702 169.472C324.702 170.197 324.942 170.789 325.422 171.248C325.913 171.696 326.542 171.92 327.31 171.92ZM338.921 165.456H340.921V174H338.921V165.456ZM339.929 164.048C339.567 164.048 339.263 163.936 339.017 163.712C338.772 163.477 338.649 163.189 338.649 162.848C338.649 162.507 338.772 162.224 339.017 162C339.263 161.765 339.567 161.648 339.929 161.648C340.292 161.648 340.596 161.76 340.841 161.984C341.087 162.197 341.209 162.469 341.209 162.8C341.209 163.152 341.087 163.451 340.841 163.696C340.607 163.931 340.303 164.048 339.929 164.048ZM346.186 174.112C345.493 174.112 344.816 174.021 344.154 173.84C343.493 173.659 342.965 173.429 342.57 173.152L343.338 171.632C343.722 171.888 344.181 172.096 344.714 172.256C345.258 172.405 345.792 172.48 346.314 172.48C347.509 172.48 348.106 172.165 348.106 171.536C348.106 171.237 347.952 171.029 347.642 170.912C347.344 170.795 346.858 170.683 346.186 170.576C345.482 170.469 344.906 170.347 344.458 170.208C344.021 170.069 343.637 169.829 343.306 169.488C342.986 169.136 342.826 168.651 342.826 168.032C342.826 167.221 343.162 166.576 343.834 166.096C344.517 165.605 345.434 165.36 346.586 165.36C347.173 165.36 347.76 165.429 348.346 165.568C348.933 165.696 349.413 165.872 349.786 166.096L349.018 167.616C348.293 167.189 347.477 166.976 346.57 166.976C345.984 166.976 345.536 167.067 345.226 167.248C344.928 167.419 344.778 167.648 344.778 167.936C344.778 168.256 344.938 168.485 345.258 168.624C345.589 168.752 346.096 168.875 346.778 168.992C347.461 169.099 348.021 169.221 348.458 169.36C348.896 169.499 349.269 169.733 349.578 170.064C349.898 170.395 350.058 170.864 350.058 171.472C350.058 172.272 349.712 172.912 349.018 173.392C348.325 173.872 347.381 174.112 346.186 174.112ZM364.571 162.128V174H362.651V172.896C362.32 173.301 361.909 173.605 361.419 173.808C360.939 174.011 360.405 174.112 359.819 174.112C358.997 174.112 358.256 173.931 357.595 173.568C356.944 173.205 356.432 172.693 356.059 172.032C355.685 171.36 355.499 170.592 355.499 169.728C355.499 168.864 355.685 168.101 356.059 167.44C356.432 166.779 356.944 166.267 357.595 165.904C358.256 165.541 358.997 165.36 359.819 165.36C360.384 165.36 360.901 165.456 361.371 165.648C361.84 165.84 362.24 166.128 362.571 166.512V162.128H364.571ZM360.059 172.4C360.539 172.4 360.971 172.293 361.355 172.08C361.739 171.856 362.043 171.541 362.267 171.136C362.491 170.731 362.603 170.261 362.603 169.728C362.603 169.195 362.491 168.725 362.267 168.32C362.043 167.915 361.739 167.605 361.355 167.392C360.971 167.168 360.539 167.056 360.059 167.056C359.579 167.056 359.147 167.168 358.763 167.392C358.379 167.605 358.075 167.915 357.851 168.32C357.627 168.725 357.515 169.195 357.515 169.728C357.515 170.261 357.627 170.731 357.851 171.136C358.075 171.541 358.379 171.856 358.763 172.08C359.147 172.293 359.579 172.4 360.059 172.4ZM371.027 174.112C370.163 174.112 369.384 173.925 368.691 173.552C367.998 173.179 367.454 172.661 367.059 172C366.675 171.328 366.483 170.571 366.483 169.728C366.483 168.885 366.675 168.133 367.059 167.472C367.454 166.811 367.998 166.293 368.691 165.92C369.384 165.547 370.163 165.36 371.027 165.36C371.902 165.36 372.686 165.547 373.379 165.92C374.072 166.293 374.611 166.811 374.995 167.472C375.39 168.133 375.587 168.885 375.587 169.728C375.587 170.571 375.39 171.328 374.995 172C374.611 172.661 374.072 173.179 373.379 173.552C372.686 173.925 371.902 174.112 371.027 174.112ZM371.027 172.4C371.763 172.4 372.371 172.155 372.851 171.664C373.331 171.173 373.571 170.528 373.571 169.728C373.571 168.928 373.331 168.283 372.851 167.792C372.371 167.301 371.763 167.056 371.027 167.056C370.291 167.056 369.683 167.301 369.203 167.792C368.734 168.283 368.499 168.928 368.499 169.728C368.499 170.528 368.734 171.173 369.203 171.664C369.683 172.155 370.291 172.4 371.027 172.4ZM382.348 165.36C383.425 165.36 384.289 165.675 384.94 166.304C385.59 166.933 385.916 167.867 385.916 169.104V174H383.916V169.36C383.916 168.613 383.74 168.053 383.388 167.68C383.036 167.296 382.534 167.104 381.884 167.104C381.148 167.104 380.566 167.328 380.14 167.776C379.713 168.213 379.5 168.848 379.5 169.68V174H377.5V165.456H379.404V166.56C379.734 166.165 380.15 165.867 380.652 165.664C381.153 165.461 381.718 165.36 382.348 165.36ZM396.563 169.776C396.563 169.915 396.552 170.112 396.531 170.368H389.827C389.944 170.997 390.248 171.499 390.739 171.872C391.24 172.235 391.859 172.416 392.595 172.416C393.533 172.416 394.307 172.107 394.915 171.488L395.987 172.72C395.603 173.179 395.117 173.525 394.531 173.76C393.944 173.995 393.283 174.112 392.547 174.112C391.608 174.112 390.781 173.925 390.067 173.552C389.352 173.179 388.797 172.661 388.403 172C388.019 171.328 387.827 170.571 387.827 169.728C387.827 168.896 388.013 168.149 388.387 167.488C388.771 166.816 389.299 166.293 389.971 165.92C390.643 165.547 391.4 165.36 392.243 165.36C393.075 165.36 393.816 165.547 394.467 165.92C395.128 166.283 395.64 166.8 396.003 167.472C396.376 168.133 396.563 168.901 396.563 169.776ZM392.243 166.96C391.603 166.96 391.059 167.152 390.611 167.536C390.173 167.909 389.907 168.411 389.811 169.04H394.659C394.573 168.421 394.312 167.92 393.875 167.536C393.437 167.152 392.893 166.96 392.243 166.96ZM398.228 162.8H400.596L400.196 170.288H398.612L398.228 162.8ZM399.412 174.112C399.039 174.112 398.729 173.995 398.484 173.76C398.239 173.515 398.116 173.216 398.116 172.864C398.116 172.512 398.239 172.219 398.484 171.984C398.729 171.749 399.039 171.632 399.412 171.632C399.775 171.632 400.073 171.749 400.308 171.984C400.553 172.219 400.676 172.512 400.676 172.864C400.676 173.216 400.553 173.515 400.308 173.76C400.073 173.995 399.775 174.112 399.412 174.112Z" fill="#242E78"/>
<path fill-rule="evenodd" clip-rule="evenodd" d="M428.667 167.333C428.667 171.936 424.936 175.667 420.333 175.667C415.731 175.667 412 171.936 412 167.333C412 162.731 415.731 159 420.333 159C424.936 159 428.667 162.731 428.667 167.333ZM425.485 163.807C425.149 163.493 424.621 163.512 424.307 163.848L419.019 169.514L416.709 167.534C416.36 167.234 415.833 167.275 415.534 167.624C415.234 167.974 415.275 168.5 415.624 168.799L418.541 171.299C418.88 171.59 419.388 171.562 419.693 171.235L425.526 164.985C425.84 164.649 425.822 164.121 425.485 163.807Z" fill="#00CD98"/>
<path d="M285.002 216.696C285.21 216.202 285.535 215.825 285.977 215.565C286.419 215.296 286.956 215.162 287.589 215.162V215.799L287.433 215.786C286.679 215.786 286.09 216.024 285.665 216.501C285.24 216.969 285.028 217.623 285.028 218.464V222H284.378V215.214H285.002V216.696ZM295.049 218.763H289.212C289.23 219.292 289.364 219.764 289.615 220.18C289.867 220.587 290.205 220.904 290.629 221.129C291.063 221.354 291.548 221.467 292.085 221.467C292.527 221.467 292.935 221.389 293.307 221.233C293.689 221.068 294.005 220.83 294.256 220.518L294.633 220.947C294.339 221.302 293.966 221.575 293.515 221.766C293.073 221.957 292.592 222.052 292.072 222.052C291.396 222.052 290.794 221.905 290.265 221.61C289.737 221.315 289.321 220.908 289.017 220.388C288.723 219.868 288.575 219.274 288.575 218.607C288.575 217.948 288.714 217.359 288.991 216.839C289.277 216.31 289.667 215.899 290.161 215.604C290.655 215.309 291.21 215.162 291.825 215.162C292.441 215.162 292.991 215.309 293.476 215.604C293.97 215.89 294.356 216.293 294.633 216.813C294.919 217.333 295.062 217.922 295.062 218.581L295.049 218.763ZM291.825 215.734C291.349 215.734 290.92 215.842 290.538 216.059C290.157 216.267 289.849 216.566 289.615 216.956C289.39 217.337 289.26 217.771 289.225 218.256H294.425C294.399 217.771 294.269 217.337 294.035 216.956C293.801 216.575 293.494 216.276 293.112 216.059C292.731 215.842 292.302 215.734 291.825 215.734ZM303.105 212.354V222H302.468V220.401C302.2 220.93 301.823 221.337 301.337 221.623C300.852 221.909 300.302 222.052 299.686 222.052C299.054 222.052 298.482 221.905 297.97 221.61C297.459 221.315 297.056 220.908 296.761 220.388C296.475 219.868 296.332 219.274 296.332 218.607C296.332 217.94 296.475 217.346 296.761 216.826C297.056 216.297 297.459 215.89 297.97 215.604C298.482 215.309 299.054 215.162 299.686 215.162C300.293 215.162 300.835 215.305 301.311 215.591C301.797 215.877 302.178 216.276 302.455 216.787V212.354H303.105ZM299.725 221.467C300.245 221.467 300.709 221.346 301.116 221.103C301.532 220.86 301.857 220.522 302.091 220.089C302.334 219.656 302.455 219.162 302.455 218.607C302.455 218.052 302.334 217.558 302.091 217.125C301.857 216.692 301.532 216.354 301.116 216.111C300.709 215.868 300.245 215.747 299.725 215.747C299.205 215.747 298.737 215.868 298.321 216.111C297.914 216.354 297.589 216.692 297.346 217.125C297.112 217.558 296.995 218.052 296.995 218.607C296.995 219.162 297.112 219.656 297.346 220.089C297.589 220.522 297.914 220.86 298.321 221.103C298.737 221.346 299.205 221.467 299.725 221.467ZM305.846 215.214H306.496V222H305.846V215.214ZM306.171 213.563C306.023 213.563 305.898 213.515 305.794 213.42C305.69 213.316 305.638 213.19 305.638 213.043C305.638 212.896 305.69 212.77 305.794 212.666C305.898 212.562 306.023 212.51 306.171 212.51C306.318 212.51 306.444 212.562 306.548 212.666C306.652 212.761 306.704 212.883 306.704 213.03C306.704 213.177 306.652 213.303 306.548 213.407C306.444 213.511 306.318 213.563 306.171 213.563ZM309.859 216.696C310.067 216.202 310.392 215.825 310.834 215.565C311.276 215.296 311.814 215.162 312.446 215.162V215.799L312.29 215.786C311.536 215.786 310.947 216.024 310.522 216.501C310.098 216.969 309.885 217.623 309.885 218.464V222H309.235V215.214H309.859V216.696ZM319.907 218.763H314.07C314.087 219.292 314.222 219.764 314.473 220.18C314.724 220.587 315.062 220.904 315.487 221.129C315.92 221.354 316.406 221.467 316.943 221.467C317.385 221.467 317.792 221.389 318.165 221.233C318.546 221.068 318.863 220.83 319.114 220.518L319.491 220.947C319.196 221.302 318.824 221.575 318.373 221.766C317.931 221.957 317.45 222.052 316.93 222.052C316.254 222.052 315.652 221.905 315.123 221.61C314.594 221.315 314.178 220.908 313.875 220.388C313.58 219.868 313.433 219.274 313.433 218.607C313.433 217.948 313.572 217.359 313.849 216.839C314.135 216.31 314.525 215.899 315.019 215.604C315.513 215.309 316.068 215.162 316.683 215.162C317.298 215.162 317.849 215.309 318.334 215.604C318.828 215.89 319.214 216.293 319.491 216.813C319.777 217.333 319.92 217.922 319.92 218.581L319.907 218.763ZM316.683 215.734C316.206 215.734 315.777 215.842 315.396 216.059C315.015 216.267 314.707 216.566 314.473 216.956C314.248 217.337 314.118 217.771 314.083 218.256H319.283C319.257 217.771 319.127 217.337 318.893 216.956C318.659 216.575 318.351 216.276 317.97 216.059C317.589 215.842 317.16 215.734 316.683 215.734ZM324.622 222.052C323.963 222.052 323.374 221.905 322.854 221.61C322.334 221.315 321.926 220.908 321.632 220.388C321.337 219.859 321.19 219.266 321.19 218.607C321.19 217.94 321.337 217.346 321.632 216.826C321.926 216.297 322.334 215.89 322.854 215.604C323.374 215.309 323.963 215.162 324.622 215.162C325.168 215.162 325.662 215.27 326.104 215.487C326.554 215.695 326.918 216.003 327.196 216.41L326.715 216.761C326.472 216.423 326.169 216.172 325.805 216.007C325.449 215.834 325.055 215.747 324.622 215.747C324.093 215.747 323.616 215.868 323.192 216.111C322.776 216.345 322.446 216.679 322.204 217.112C321.97 217.545 321.853 218.044 321.853 218.607C321.853 219.17 321.97 219.669 322.204 220.102C322.446 220.535 322.776 220.873 323.192 221.116C323.616 221.35 324.093 221.467 324.622 221.467C325.055 221.467 325.449 221.385 325.805 221.22C326.169 221.047 326.472 220.791 326.715 220.453L327.196 220.804C326.918 221.211 326.554 221.523 326.104 221.74C325.662 221.948 325.168 222.052 324.622 222.052ZM332.585 221.571C332.42 221.727 332.212 221.848 331.961 221.935C331.718 222.013 331.463 222.052 331.194 222.052C330.605 222.052 330.15 221.892 329.829 221.571C329.508 221.242 329.348 220.787 329.348 220.206V215.773H328.1V215.214H329.348V213.732H329.998V215.214H332.156V215.773H329.998V220.141C329.998 220.583 330.102 220.921 330.31 221.155C330.527 221.38 330.843 221.493 331.259 221.493C331.684 221.493 332.035 221.367 332.312 221.116L332.585 221.571ZM334.398 215.214H335.048V222H334.398V215.214ZM334.723 213.563C334.575 213.563 334.45 213.515 334.346 213.42C334.242 213.316 334.19 213.19 334.19 213.043C334.19 212.896 334.242 212.77 334.346 212.666C334.45 212.562 334.575 212.51 334.723 212.51C334.87 212.51 334.996 212.562 335.1 212.666C335.204 212.761 335.256 212.883 335.256 213.03C335.256 213.177 335.204 213.303 335.1 213.407C334.996 213.511 334.87 213.563 334.723 213.563ZM341.102 215.162C341.952 215.162 342.623 215.409 343.117 215.903C343.611 216.397 343.858 217.108 343.858 218.035V222H343.208V218.087C343.208 217.324 343.013 216.744 342.623 216.345C342.242 215.946 341.705 215.747 341.011 215.747C340.214 215.747 339.586 215.985 339.126 216.462C338.667 216.939 338.437 217.58 338.437 218.386V222H337.787V215.214H338.411V216.683C338.645 216.206 338.992 215.834 339.451 215.565C339.919 215.296 340.47 215.162 341.102 215.162ZM352.657 215.214V221.272C352.657 222.399 352.384 223.231 351.838 223.768C351.292 224.305 350.469 224.574 349.368 224.574C348.744 224.574 348.155 224.479 347.6 224.288C347.045 224.097 346.599 223.833 346.261 223.495L346.612 223.001C346.95 223.313 347.357 223.556 347.834 223.729C348.311 223.902 348.818 223.989 349.355 223.989C350.256 223.989 350.924 223.772 351.357 223.339C351.79 222.914 352.007 222.251 352.007 221.35V220.206C351.73 220.7 351.344 221.081 350.85 221.35C350.356 221.619 349.801 221.753 349.186 221.753C348.553 221.753 347.977 221.614 347.457 221.337C346.946 221.051 346.543 220.657 346.248 220.154C345.953 219.651 345.806 219.084 345.806 218.451C345.806 217.818 345.953 217.251 346.248 216.748C346.543 216.245 346.946 215.855 347.457 215.578C347.977 215.301 348.553 215.162 349.186 215.162C349.81 215.162 350.373 215.301 350.876 215.578C351.379 215.855 351.764 216.245 352.033 216.748V215.214H352.657ZM349.238 221.168C349.767 221.168 350.243 221.055 350.668 220.83C351.093 220.596 351.422 220.275 351.656 219.868C351.899 219.452 352.02 218.98 352.02 218.451C352.02 217.922 351.899 217.454 351.656 217.047C351.422 216.64 351.093 216.323 350.668 216.098C350.243 215.864 349.767 215.747 349.238 215.747C348.709 215.747 348.233 215.864 347.808 216.098C347.392 216.323 347.063 216.64 346.82 217.047C346.586 217.454 346.469 217.922 346.469 218.451C346.469 218.98 346.586 219.452 346.82 219.868C347.063 220.275 347.392 220.596 347.808 220.83C348.233 221.055 348.709 221.168 349.238 221.168ZM355.33 222.052C355.183 222.052 355.053 222 354.94 221.896C354.836 221.783 354.784 221.649 354.784 221.493C354.784 221.337 354.836 221.207 354.94 221.103C355.053 220.999 355.183 220.947 355.33 220.947C355.478 220.947 355.603 220.999 355.707 221.103C355.82 221.207 355.876 221.337 355.876 221.493C355.876 221.649 355.82 221.783 355.707 221.896C355.603 222 355.478 222.052 355.33 222.052ZM357.933 222.052C357.785 222.052 357.655 222 357.543 221.896C357.439 221.783 357.387 221.649 357.387 221.493C357.387 221.337 357.439 221.207 357.543 221.103C357.655 220.999 357.785 220.947 357.933 220.947C358.08 220.947 358.206 220.999 358.31 221.103C358.422 221.207 358.479 221.337 358.479 221.493C358.479 221.649 358.422 221.783 358.31 221.896C358.206 222 358.08 222.052 357.933 222.052ZM360.535 222.052C360.388 222.052 360.258 222 360.145 221.896C360.041 221.783 359.989 221.649 359.989 221.493C359.989 221.337 360.041 221.207 360.145 221.103C360.258 220.999 360.388 220.947 360.535 220.947C360.683 220.947 360.808 220.999 360.912 221.103C361.025 221.207 361.081 221.337 361.081 221.493C361.081 221.649 361.025 221.783 360.912 221.896C360.808 222 360.683 222.052 360.535 222.052Z" fill="#3B4BC4"/>
</g>
<defs>
<filter id="filter0_d" x="0" y="0" width="626" height="274" filterUnits="userSpaceOnUse" color-interpolation-filters="sRGB">
<feFlood flood-opacity="0" result="BackgroundImageFix"/>
<feColorMatrix in="SourceAlpha" type="matrix" values="0 0 0 0 0 0 0 0 0 0 0 0 0 0 0 0 0 0 127 0"/>
<feOffset dx="-10" dy="10"/>
<feGaussianBlur stdDeviation="15"/>
<feColorMatrix type="matrix" values="0 0 0 0 0.329167 0 0 0 0 0.325052 0 0 0 0 0.325052 0 0 0 0.5 0"/>
<feBlend mode="normal" in2="BackgroundImageFix" result="effect1_dropShadow"/>
<feBlend mode="normal" in="SourceGraphic" in2="effect1_dropShadow" result="shape"/>
</filter>
<linearGradient id="paint0_linear" x1="318.927" y1="84.2478" x2="326.952" y2="70.351" gradientUnits="userSpaceOnUse">
<stop offset="0.07" stop-color="#341E6E"/>
<stop offset="0.87" stop-color="#7542F6"/>
<stop offset="0.89" stop-color="#7743FA"/>
</linearGradient>
<linearGradient id="paint1_linear" x1="318.522" y1="107.643" x2="330.991" y2="86.0421" gradientUnits="userSpaceOnUse">
<stop stop-color="#7743FA"/>
<stop offset="0.44" stop-color="#341E6E"/>
</linearGradient>
<linearGradient id="paint2_linear" x1="337.855" y1="88.7681" x2="307.259" y2="88.7681" gradientUnits="userSpaceOnUse">
<stop stop-color="#C5B4F0"/>
<stop offset="0.04" stop-color="#B39BEF"/>
<stop offset="0.1" stop-color="#A081EE"/>
<stop offset="0.17" stop-color="#916DEE"/>
<stop offset="0.25" stop-color="#875FED"/>
<stop offset="0.34" stop-color="#8157ED"/>
<stop offset="0.49" stop-color="#7F54ED"/>
<stop offset="0.64" stop-color="#8157ED"/>
<stop offset="0.73" stop-color="#875FED"/>
<stop offset="0.8" stop-color="#916DEE"/>
<stop offset="0.87" stop-color="#A081EE"/>
<stop offset="0.93" stop-color="#B39BEF"/>
<stop offset="0.97" stop-color="#C5B4F0"/>
</linearGradient>
</defs>
</svg>
