<svg width="120" height="120" viewBox="0 0 120 120" fill="none" xmlns="http://www.w3.org/2000/svg">
<path d="M24.5649 101.443L39.5419 70.4369L41.239 66.9233L42.9185 70.4442L57.8956 101.844L54.5116 103.455L41.2141 75.5765L27.9341 103.069L24.5649 101.443Z" fill="#333333"/>
<path d="M27.0138 22.2946H85.7604C87.1181 22.2946 88.3511 22.8487 89.2435 23.7413C90.1361 24.6339 90.6903 25.8669 90.6903 27.2244V100.07C90.6903 101.428 90.1361 102.661 89.2435 103.553C88.3509 104.446 87.118 105 85.7604 105H27.0138C25.6562 105 24.4233 104.446 23.5307 103.553C22.6381 102.661 22.084 101.428 22.084 100.07V27.2244C22.084 25.8668 22.6381 24.6339 23.5307 23.7412C24.4232 22.8487 25.6561 22.2946 27.0138 22.2946ZM85.7604 26.0447H27.0138C26.6913 26.0447 26.3967 26.178 26.1821 26.3926C25.9674 26.6073 25.8341 26.9019 25.8341 27.2244V100.07C25.8341 100.393 25.9674 100.687 26.1821 100.902C26.3967 101.117 26.6913 101.25 27.0138 101.25H85.7604C86.0829 101.25 86.3775 101.117 86.5921 100.902C86.8068 100.687 86.9402 100.393 86.9402 100.07V27.2244C86.9402 26.902 86.8068 26.6074 86.5921 26.3927C86.3775 26.178 86.0829 26.0447 85.7604 26.0447Z" fill="#333333"/>
<path d="M32.1348 19.797C32.1348 18.4759 32.674 17.2762 33.5424 16.4076C34.411 15.5392 35.6107 15 36.9318 15H93.1242C94.4453 15 95.6451 15.5392 96.5135 16.4077C97.382 17.2762 97.9212 18.476 97.9212 19.797V89.4756C97.9212 90.7965 97.382 91.9963 96.5135 92.8648C95.6449 93.7333 94.4453 94.2726 93.1242 94.2726V90.5225C93.41 90.5225 93.6715 90.404 93.8621 90.2134C94.0527 90.0228 94.1711 89.7614 94.1711 89.4755V19.797C94.1711 19.5111 94.0527 19.2497 93.8621 19.0591C93.6715 18.8684 93.4101 18.7501 93.1242 18.7501H36.9318C36.6458 18.7501 36.3844 18.8684 36.1938 19.059C36.0032 19.2496 35.8849 19.511 35.8849 19.797H32.1348L32.1348 19.797Z" fill="#333333"/>
<path d="M53.8071 101.705L63.2313 59.0059L64.4041 53.6915L66.7469 58.603L87.3721 101.843L83.9881 103.455L65.7058 65.1259L57.4548 102.51L53.8071 101.705Z" fill="#333333"/>
<path fill-rule="evenodd" clip-rule="evenodd" d="M55.0747 95.9355L63.2255 59.0058L64.3984 53.6915L66.7412 58.603L86.788 100.631C86.8802 100.464 86.9328 100.272 86.9328 100.07V27.2241C86.9328 26.9016 86.7994 26.607 86.5847 26.3923C86.37 26.1777 86.0754 26.0443 85.753 26.0443H27.0063C26.6838 26.0443 26.3893 26.1776 26.1746 26.3923C25.96 26.607 25.8267 26.9016 25.8267 27.2241V98.824L39.5389 70.4364L41.236 66.9228L42.9154 70.4437L55.0747 95.9355H55.0747Z" fill="#95A1F9"/>
<path fill-rule="evenodd" clip-rule="evenodd" d="M65.7027 65.1262L57.73 101.25H82.9334L65.7027 65.1262Z" fill="#22A88E"/>
<path fill-rule="evenodd" clip-rule="evenodd" d="M53.4605 101.25L41.2147 75.5762L28.8135 101.25H53.4605Z" fill="#22A88E"/>
<path d="M35.8828 19.4761H32.1348V23.8798H35.8828V19.4761Z" fill="#333333"/>
<path d="M93.418 94.2748L93.418 90.5267L88.7197 90.5267L88.7197 94.2748L93.418 94.2748Z" fill="#333333"/>
<path fill-rule="evenodd" clip-rule="evenodd" d="M35.8779 22.2944H85.7531C87.1108 22.2944 88.3437 22.8486 89.2362 23.7412C90.1288 24.6338 90.6829 25.8667 90.6829 27.2243V90.5265H93.1194V90.5221C93.4052 90.5221 93.6666 90.4037 93.8572 90.2131C94.0478 90.0225 94.1662 89.7611 94.1662 89.4752V19.7967C94.1662 19.5108 94.0478 19.2493 93.8572 19.0588C93.6666 18.8681 93.4052 18.7498 93.1194 18.7498H36.927C36.6409 18.7498 36.3796 18.8681 36.189 19.0587C35.9984 19.2493 35.88 19.5107 35.88 19.7967H35.878V22.2944L35.8779 22.2944Z" fill="#F78C63"/>
</svg>
