<svg width="634" height="100" viewBox="0 0 634 100" fill="none" xmlns="http://www.w3.org/2000/svg">
<rect x="396" width="238" height="100" rx="10" fill="#F5CA45"/>
<path d="M473.25 28.5165L469.988 32.4309C469.715 32.758 469.229 32.8022 468.902 32.5296C468.575 32.2571 468.531 31.771 468.804 31.444L472.658 26.819C472.966 26.4492 473.534 26.4492 473.842 26.819L477.696 31.444C477.969 31.771 477.925 32.2571 477.598 32.5296C477.271 32.8022 476.785 32.758 476.512 32.4309L473.25 28.5165Z" fill="#F9713D"/>
<path fill-rule="evenodd" clip-rule="evenodd" d="M467.042 31.9375C466.328 31.9375 465.845 32.6634 466.119 33.3221L468.627 39.3413C469.093 40.4593 470.185 41.1875 471.396 41.1875H475.105C476.316 41.1875 477.408 40.4593 477.874 39.3413L480.382 33.3221C480.656 32.6634 480.172 31.9375 479.459 31.9375H467.042ZM474.792 36.5625C474.792 37.4139 474.102 38.1042 473.25 38.1042C472.399 38.1042 471.708 37.4139 471.708 36.5625C471.708 35.7111 472.399 35.0208 473.25 35.0208C474.102 35.0208 474.792 35.7111 474.792 36.5625Z" fill="#F9713D"/>
<rect x="494.062" y="33.4791" width="23.125" height="1.54167" rx="0.770833" fill="#697BFC"/>
<rect x="558.812" y="33.4791" width="23.125" height="1.54167" rx="0.770833" fill="#697BFC"/>
<path fill-rule="evenodd" clip-rule="evenodd" d="M595.542 30.8541C595.542 29.7496 596.437 28.8541 597.542 28.8541H608.958C610.063 28.8541 610.958 29.7496 610.958 30.8541V31.1667H595.542V33.4792H610.958V37.6458C610.958 38.7504 610.063 39.6458 608.958 39.6458H597.542C596.437 39.6458 595.542 38.7504 595.542 37.6458V30.8541ZM607.104 35.7917C606.678 35.7917 606.333 36.1368 606.333 36.5625C606.333 36.9882 606.678 37.3333 607.104 37.3333H608.646C609.072 37.3333 609.417 36.9882 609.417 36.5625C609.417 36.1368 609.072 35.7917 608.646 35.7917H607.104Z" fill="#697BFC"/>
<path fill-rule="evenodd" clip-rule="evenodd" d="M545.188 30.8968C545.188 30.5922 545.008 30.3162 544.73 30.1924L542.228 29.0806L536.4 32.3184V35.719L534.858 34.9482V31.4113L540.465 28.2968L538.563 27.4517C538.364 27.3631 538.136 27.3631 537.937 27.4517L531.77 30.1924C531.492 30.3162 531.312 30.5922 531.312 30.8968V37.6507C531.312 37.9306 531.464 38.1885 531.709 38.3245L537.876 41.7504C538.108 41.8798 538.392 41.8798 538.624 41.7504L544.791 38.3245C545.036 38.1885 545.188 37.9306 545.188 37.6507V30.8968Z" fill="#697BFC"/>
<path d="M467.23 58.425V69H465.49L460.225 62.265V69H458.05V58.425H459.775L465.04 65.13V58.425H467.23ZM469.329 58.425H476.619V60.24H471.609V62.715H476.319V64.53H471.609V67.185H476.619V69H469.329V58.425ZM478.221 58.425H485.511V60.24H480.501V62.715H485.211V64.53H480.501V67.185H485.511V69H478.221V58.425ZM487.113 58.425H491.223C492.373 58.425 493.363 58.635 494.193 59.055C495.023 59.475 495.658 60.08 496.098 60.87C496.538 61.66 496.758 62.605 496.758 63.705C496.758 64.805 496.538 65.755 496.098 66.555C495.668 67.345 495.038 67.95 494.208 68.37C493.378 68.79 492.383 69 491.223 69H487.113V58.425ZM491.058 67.11C493.308 67.11 494.433 65.975 494.433 63.705C494.433 61.445 493.308 60.315 491.058 60.315H489.453V67.11H491.058ZM507.707 69.135C506.637 69.135 505.702 68.91 504.902 68.46C504.112 68.01 503.502 67.375 503.072 66.555C502.652 65.735 502.442 64.785 502.442 63.705C502.442 62.625 502.652 61.675 503.072 60.855C503.502 60.035 504.112 59.405 504.902 58.965C505.702 58.515 506.637 58.29 507.707 58.29C508.407 58.29 509.077 58.4 509.717 58.62C510.357 58.83 510.882 59.125 511.292 59.505L510.542 61.17C510.082 60.82 509.622 60.565 509.162 60.405C508.712 60.245 508.242 60.165 507.752 60.165C506.812 60.165 506.087 60.465 505.577 61.065C505.077 61.665 504.827 62.545 504.827 63.705C504.827 64.865 505.077 65.75 505.577 66.36C506.087 66.96 506.812 67.26 507.752 67.26C508.242 67.26 508.712 67.18 509.162 67.02C509.622 66.86 510.082 66.605 510.542 66.255L511.292 67.92C510.882 68.3 510.357 68.6 509.717 68.82C509.077 69.03 508.407 69.135 507.707 69.135ZM517.549 69.135C516.499 69.135 515.584 68.915 514.804 68.475C514.034 68.025 513.439 67.395 513.019 66.585C512.599 65.765 512.389 64.805 512.389 63.705C512.389 62.605 512.599 61.65 513.019 60.84C513.439 60.02 514.034 59.39 514.804 58.95C515.584 58.51 516.499 58.29 517.549 58.29C518.599 58.29 519.509 58.51 520.279 58.95C521.059 59.39 521.659 60.02 522.079 60.84C522.499 61.65 522.709 62.605 522.709 63.705C522.709 64.805 522.499 65.765 522.079 66.585C521.659 67.395 521.059 68.025 520.279 68.475C519.509 68.915 518.599 69.135 517.549 69.135ZM517.549 67.32C518.429 67.32 519.119 67.01 519.619 66.39C520.129 65.77 520.384 64.875 520.384 63.705C520.384 62.535 520.134 61.645 519.634 61.035C519.134 60.415 518.439 60.105 517.549 60.105C516.659 60.105 515.964 60.415 515.464 61.035C514.974 61.645 514.729 62.535 514.729 63.705C514.729 64.875 514.979 65.77 515.479 66.39C515.979 67.01 516.669 67.32 517.549 67.32ZM533.675 58.425V69H531.935L526.67 62.265V69H524.495V58.425H526.22L531.485 65.13V58.425H533.675ZM535.775 58.425H542.915V60.27H538.085V62.7H542.615V64.545H538.085V69H535.775V58.425ZM544.359 58.425H546.699V69H544.359V58.425ZM557.977 69H555.427L553.597 65.625C553.447 65.365 553.267 65.18 553.057 65.07C552.847 64.95 552.582 64.89 552.262 64.89H551.107V69H548.797V58.425H553.657C554.897 58.425 555.832 58.7 556.462 59.25C557.102 59.79 557.422 60.575 557.422 61.605C557.422 62.405 557.197 63.075 556.747 63.615C556.307 64.155 555.682 64.51 554.872 64.68C555.422 64.82 555.887 65.215 556.267 65.865L557.977 69ZM553.312 63.12C553.982 63.12 554.467 63.005 554.767 62.775C555.067 62.535 555.217 62.165 555.217 61.665C555.217 61.155 555.067 60.785 554.767 60.555C554.467 60.325 553.982 60.21 553.312 60.21H551.077V63.12H553.312ZM569.815 58.425V69H567.76V62.73L565.33 67.26H563.83L561.4 62.79V69H559.345V58.425H561.19L564.595 64.89L568 58.425H569.815ZM579.007 66.66H574.087L573.082 69H570.727L575.587 58.425H577.462L582.322 69H580.012L579.007 66.66ZM578.242 64.89L576.547 60.93L574.852 64.89H578.242ZM584.304 60.33H580.989V58.425H589.959V60.33H586.644V69H584.304V60.33ZM591.19 58.425H593.53V69H591.19V58.425ZM600.488 69.135C599.438 69.135 598.523 68.915 597.743 68.475C596.973 68.025 596.378 67.395 595.958 66.585C595.538 65.765 595.328 64.805 595.328 63.705C595.328 62.605 595.538 61.65 595.958 60.84C596.378 60.02 596.973 59.39 597.743 58.95C598.523 58.51 599.438 58.29 600.488 58.29C601.538 58.29 602.448 58.51 603.218 58.95C603.998 59.39 604.598 60.02 605.018 60.84C605.438 61.65 605.648 62.605 605.648 63.705C605.648 64.805 605.438 65.765 605.018 66.585C604.598 67.395 603.998 68.025 603.218 68.475C602.448 68.915 601.538 69.135 600.488 69.135ZM600.488 67.32C601.368 67.32 602.058 67.01 602.558 66.39C603.068 65.77 603.323 64.875 603.323 63.705C603.323 62.535 603.073 61.645 602.573 61.035C602.073 60.415 601.378 60.105 600.488 60.105C599.598 60.105 598.903 60.415 598.403 61.035C597.913 61.645 597.668 62.535 597.668 63.705C597.668 64.875 597.918 65.77 598.418 66.39C598.918 67.01 599.608 67.32 600.488 67.32ZM616.615 58.425V69H614.875L609.61 62.265V69H607.435V58.425H609.16L614.425 65.13V58.425H616.615Z" fill="#F9713D"/>
<rect width="440" height="100" rx="8" fill="#697BFC"/>
<rect x="141" width="299" height="100" rx="8" fill="#00CD98"/>
<path d="M176.672 72.466H171.52L170.428 75H169.252L173.592 65.13H174.586L178.926 75H177.764L176.672 72.466ZM176.266 71.514L174.096 66.46L171.926 71.514H176.266ZM184.086 68.994L183.344 69.064C182.644 69.1293 182.135 69.3487 181.818 69.722C181.51 70.0953 181.356 70.5573 181.356 71.108V75H180.222V68.182H181.328V69.372C181.711 68.5787 182.462 68.1353 183.582 68.042L183.988 68.014L184.086 68.994ZM189.021 68.994L188.279 69.064C187.579 69.1293 187.071 69.3487 186.753 69.722C186.445 70.0953 186.291 70.5573 186.291 71.108V75H185.157V68.182H186.263V69.372C186.646 68.5787 187.397 68.1353 188.517 68.042L188.923 68.014L189.021 68.994ZM190.093 68.182H191.227V75H190.093V68.182ZM191.353 65.228V66.502H189.981V65.228H191.353ZM199.367 68.196L196.427 75H195.363L192.437 68.196H193.641L195.923 73.768L198.233 68.196H199.367ZM206.168 71.766H201.184C201.222 72.5593 201.436 73.1613 201.828 73.572C202.22 73.9733 202.776 74.174 203.494 74.174C204.288 74.174 205.016 73.9033 205.678 73.362L206.056 74.188C205.758 74.468 205.375 74.692 204.908 74.86C204.442 75.0187 203.966 75.098 203.48 75.098C202.416 75.098 201.576 74.7853 200.96 74.16C200.354 73.5347 200.05 72.6713 200.05 71.57C200.05 70.87 200.186 70.254 200.456 69.722C200.727 69.1807 201.105 68.7607 201.59 68.462C202.085 68.1633 202.645 68.014 203.27 68.014C204.176 68.014 204.885 68.3127 205.398 68.91C205.912 69.498 206.168 70.31 206.168 71.346V71.766ZM203.284 68.896C202.687 68.896 202.206 69.0827 201.842 69.456C201.488 69.8293 201.278 70.3567 201.212 71.038H205.174C205.156 70.3473 204.983 69.82 204.656 69.456C204.33 69.0827 203.872 68.896 203.284 68.896ZM213.996 66.11H210.566V65.13H218.602V66.11H215.158V75H213.996V66.11ZM219.816 68.182H220.95V75H219.816V68.182ZM221.076 65.228V66.502H219.704V65.228H221.076ZM230.658 68.014C232.17 68.014 232.926 68.9147 232.926 70.716V75H231.792V70.772C231.792 70.1467 231.68 69.6893 231.456 69.4C231.241 69.1107 230.891 68.966 230.406 68.966C229.836 68.966 229.388 69.1573 229.062 69.54C228.735 69.9227 228.572 70.4453 228.572 71.108V75H227.438V70.772C227.438 70.1373 227.326 69.68 227.102 69.4C226.878 69.1107 226.523 68.966 226.038 68.966C225.468 68.966 225.02 69.1573 224.694 69.54C224.367 69.9227 224.204 70.4453 224.204 71.108V75H223.07V68.182H224.19V69.26C224.395 68.8587 224.68 68.5507 225.044 68.336C225.408 68.1213 225.828 68.014 226.304 68.014C227.358 68.014 228.054 68.462 228.39 69.358C228.586 68.938 228.884 68.6113 229.286 68.378C229.687 68.1353 230.144 68.014 230.658 68.014ZM240.703 71.766H235.719C235.757 72.5593 235.971 73.1613 236.363 73.572C236.755 73.9733 237.311 74.174 238.029 74.174C238.823 74.174 239.551 73.9033 240.213 73.362L240.591 74.188C240.293 74.468 239.91 74.692 239.443 74.86C238.977 75.0187 238.501 75.098 238.015 75.098C236.951 75.098 236.111 74.7853 235.495 74.16C234.889 73.5347 234.585 72.6713 234.585 71.57C234.585 70.87 234.721 70.254 234.991 69.722C235.262 69.1807 235.64 68.7607 236.125 68.462C236.62 68.1633 237.18 68.014 237.805 68.014C238.711 68.014 239.42 68.3127 239.933 68.91C240.447 69.498 240.703 70.31 240.703 71.346V71.766ZM237.819 68.896C237.222 68.896 236.741 69.0827 236.377 69.456C236.023 69.8293 235.813 70.3567 235.747 71.038H239.709C239.691 70.3473 239.518 69.82 239.191 69.456C238.865 69.0827 238.407 68.896 237.819 68.896ZM254.926 75.18C253.219 75.18 251.912 74.56 251.006 73.32C250.112 72.08 249.666 70.2867 249.666 67.94C249.666 65.62 250.119 63.8467 251.026 62.62C251.932 61.38 253.232 60.76 254.926 60.76C256.619 60.76 257.919 61.38 258.826 62.62C259.732 63.8467 260.186 65.62 260.186 67.94C260.186 70.2867 259.732 72.08 258.826 73.32C257.932 74.56 256.632 75.18 254.926 75.18ZM254.926 72.8C255.699 72.8 256.259 72.4133 256.606 71.64C256.966 70.8667 257.146 69.6333 257.146 67.94C257.146 66.26 256.966 65.04 256.606 64.28C256.259 63.52 255.699 63.14 254.926 63.14C254.152 63.14 253.586 63.52 253.226 64.28C252.879 65.04 252.706 66.26 252.706 67.94C252.706 69.6333 252.879 70.8667 253.226 71.64C253.586 72.4133 254.152 72.8 254.926 72.8ZM266.438 60.72C268.265 60.72 269.678 61.3267 270.678 62.54C271.678 63.7533 272.178 65.4867 272.178 67.74C272.178 69.2867 271.938 70.62 271.458 71.74C270.991 72.8467 270.305 73.7 269.398 74.3C268.505 74.8867 267.445 75.18 266.218 75.18C265.351 75.18 264.511 75.0467 263.698 74.78C262.885 74.5 262.191 74.1067 261.618 73.6L262.618 71.38C263.845 72.2867 265.005 72.74 266.098 72.74C267.018 72.74 267.725 72.3733 268.218 71.64C268.725 70.9067 269.011 69.8267 269.078 68.4C268.771 68.9067 268.338 69.3133 267.778 69.62C267.218 69.9133 266.591 70.06 265.898 70.06C265.071 70.06 264.331 69.8667 263.678 69.48C263.038 69.0933 262.531 68.5533 262.158 67.86C261.798 67.1667 261.618 66.38 261.618 65.5C261.618 64.58 261.825 63.76 262.238 63.04C262.651 62.3067 263.225 61.74 263.958 61.34C264.691 60.9267 265.518 60.72 266.438 60.72ZM266.618 67.64C267.245 67.64 267.751 67.4333 268.138 67.02C268.525 66.6067 268.718 66.0667 268.718 65.4C268.718 64.7333 268.525 64.1933 268.138 63.78C267.751 63.3533 267.245 63.14 266.618 63.14C265.991 63.14 265.485 63.3467 265.098 63.76C264.725 64.1733 264.538 64.72 264.538 65.4C264.538 66.0667 264.725 66.6067 265.098 67.02C265.485 67.4333 265.991 67.64 266.618 67.64ZM277.13 65.18V68.38H273.89V65.18H277.13ZM277.13 71.8V75H273.89V71.8H277.13ZM284.105 75.18C282.399 75.18 281.092 74.56 280.185 73.32C279.292 72.08 278.845 70.2867 278.845 67.94C278.845 65.62 279.299 63.8467 280.205 62.62C281.112 61.38 282.412 60.76 284.105 60.76C285.799 60.76 287.099 61.38 288.005 62.62C288.912 63.8467 289.365 65.62 289.365 67.94C289.365 70.2867 288.912 72.08 288.005 73.32C287.112 74.56 285.812 75.18 284.105 75.18ZM284.105 72.8C284.879 72.8 285.439 72.4133 285.785 71.64C286.145 70.8667 286.325 69.6333 286.325 67.94C286.325 66.26 286.145 65.04 285.785 64.28C285.439 63.52 284.879 63.14 284.105 63.14C283.332 63.14 282.765 63.52 282.405 64.28C282.059 65.04 281.885 66.26 281.885 67.94C281.885 69.6333 282.059 70.8667 282.405 71.64C282.765 72.4133 283.332 72.8 284.105 72.8ZM296.098 75.18C294.391 75.18 293.084 74.56 292.178 73.32C291.284 72.08 290.838 70.2867 290.838 67.94C290.838 65.62 291.291 63.8467 292.198 62.62C293.104 61.38 294.404 60.76 296.098 60.76C297.791 60.76 299.091 61.38 299.998 62.62C300.904 63.8467 301.358 65.62 301.358 67.94C301.358 70.2867 300.904 72.08 299.998 73.32C299.104 74.56 297.804 75.18 296.098 75.18ZM296.098 72.8C296.871 72.8 297.431 72.4133 297.778 71.64C298.138 70.8667 298.318 69.6333 298.318 67.94C298.318 66.26 298.138 65.04 297.778 64.28C297.431 63.52 296.871 63.14 296.098 63.14C295.324 63.14 294.758 63.52 294.398 64.28C294.051 65.04 293.878 66.26 293.878 67.94C293.878 69.6333 294.051 70.8667 294.398 71.64C294.758 72.4133 295.324 72.8 296.098 72.8ZM314.643 73.336V75H307.059V73.48L310.899 69.352C311.347 68.8613 311.672 68.4133 311.875 68.008C312.088 67.592 312.195 67.1813 312.195 66.776C312.195 66.264 312.045 65.88 311.747 65.624C311.459 65.3573 311.032 65.224 310.467 65.224C309.453 65.224 308.435 65.6133 307.411 66.392L306.723 64.888C307.171 64.4933 307.741 64.1787 308.435 63.944C309.139 63.6987 309.843 63.576 310.547 63.576C311.677 63.576 312.573 63.8533 313.235 64.408C313.896 64.9627 314.227 65.7093 314.227 66.648C314.227 67.2987 314.088 67.912 313.811 68.488C313.533 69.0533 313.064 69.688 312.403 70.392L309.635 73.336H314.643ZM322.46 69.208C323.121 69.3893 323.628 69.72 323.98 70.2C324.343 70.68 324.524 71.2667 324.524 71.96C324.524 72.952 324.151 73.7307 323.404 74.296C322.657 74.8507 321.623 75.128 320.3 75.128C318.977 75.128 317.943 74.8507 317.196 74.296C316.449 73.7307 316.076 72.952 316.076 71.96C316.076 71.2667 316.257 70.68 316.62 70.2C316.983 69.7093 317.495 69.3787 318.156 69.208C317.591 68.9947 317.148 68.664 316.828 68.216C316.508 67.7573 316.348 67.224 316.348 66.616C316.348 65.6773 316.7 64.936 317.404 64.392C318.108 63.848 319.073 63.576 320.3 63.576C321.527 63.576 322.492 63.848 323.196 64.392C323.9 64.936 324.252 65.6773 324.252 66.616C324.252 67.2347 324.092 67.7733 323.772 68.232C323.452 68.6907 323.015 69.016 322.46 69.208ZM320.3 65.192C318.967 65.192 318.3 65.736 318.3 66.824C318.3 67.368 318.465 67.784 318.796 68.072C319.137 68.3493 319.639 68.488 320.3 68.488C320.961 68.488 321.457 68.3493 321.788 68.072C322.129 67.784 322.3 67.368 322.3 66.824C322.3 65.736 321.633 65.192 320.3 65.192ZM320.3 73.512C321.825 73.512 322.588 72.9413 322.588 71.8C322.588 70.6587 321.825 70.088 320.3 70.088C318.775 70.088 318.012 70.6587 318.012 71.8C318.012 72.9413 318.775 73.512 320.3 73.512ZM341.662 63.72V75H339.838V67.544L336.862 73.176H335.486L332.494 67.624L332.51 75H330.686V63.72H332.318L336.19 71.096L340.046 63.72H341.662ZM347.291 66.984C348.389 66.984 349.205 67.2507 349.739 67.784C350.272 68.3173 350.539 69.1387 350.539 70.248V75H348.635V73.8C348.453 74.216 348.165 74.5413 347.771 74.776C347.387 75.0107 346.939 75.128 346.427 75.128C345.904 75.128 345.429 75.0213 345.003 74.808C344.576 74.5947 344.24 74.3013 343.995 73.928C343.749 73.5547 343.627 73.1387 343.627 72.68C343.627 72.104 343.771 71.6507 344.059 71.32C344.357 70.9893 344.837 70.7493 345.499 70.6C346.16 70.4507 347.072 70.376 348.235 70.376H348.635V70.008C348.635 69.4747 348.517 69.0907 348.283 68.856C348.059 68.6213 347.68 68.504 347.147 68.504C346.731 68.504 346.293 68.5787 345.835 68.728C345.387 68.8667 344.944 69.064 344.507 69.32L343.947 67.944C344.384 67.6667 344.912 67.4373 345.531 67.256C346.149 67.0747 346.736 66.984 347.291 66.984ZM346.827 73.688C347.36 73.688 347.792 73.512 348.123 73.16C348.464 72.7973 348.635 72.3333 348.635 71.768V71.432H348.347C347.632 71.432 347.077 71.464 346.683 71.528C346.288 71.592 346.005 71.704 345.835 71.864C345.664 72.024 345.579 72.2427 345.579 72.52C345.579 72.8613 345.696 73.144 345.931 73.368C346.165 73.5813 346.464 73.688 346.827 73.688ZM360.027 67.192L355.323 77.88H353.307L354.731 74.696L351.467 67.192H353.579L355.787 72.712L358.059 67.192H360.027ZM373.049 73.336V75H365.465V73.48L369.305 69.352C369.753 68.8613 370.078 68.4133 370.281 68.008C370.494 67.592 370.601 67.1813 370.601 66.776C370.601 66.264 370.452 65.88 370.153 65.624C369.865 65.3573 369.438 65.224 368.873 65.224C367.86 65.224 366.841 65.6133 365.817 66.392L365.129 64.888C365.577 64.4933 366.148 64.1787 366.841 63.944C367.545 63.6987 368.249 63.576 368.953 63.576C370.084 63.576 370.98 63.8533 371.641 64.408C372.302 64.9627 372.633 65.7093 372.633 66.648C372.633 67.2987 372.494 67.912 372.217 68.488C371.94 69.0533 371.47 69.688 370.809 70.392L368.041 73.336H373.049ZM378.706 75.144C377.373 75.144 376.354 74.6533 375.65 73.672C374.946 72.68 374.594 71.24 374.594 69.352C374.594 67.4853 374.946 66.0613 375.65 65.08C376.354 64.0987 377.373 63.608 378.706 63.608C380.04 63.608 381.058 64.0987 381.762 65.08C382.466 66.0613 382.818 67.4853 382.818 69.352C382.818 71.2293 382.466 72.664 381.762 73.656C381.058 74.648 380.04 75.144 378.706 75.144ZM378.706 73.528C379.432 73.528 379.96 73.1973 380.29 72.536C380.621 71.864 380.786 70.8027 380.786 69.352C380.786 67.912 380.621 66.8667 380.29 66.216C379.96 65.5547 379.432 65.224 378.706 65.224C377.981 65.224 377.453 65.5547 377.122 66.216C376.792 66.8667 376.626 67.912 376.626 69.352C376.626 70.8027 376.792 71.864 377.122 72.536C377.453 73.1973 377.981 73.528 378.706 73.528ZM392.252 73.336V75H384.668V73.48L388.508 69.352C388.956 68.8613 389.281 68.4133 389.484 68.008C389.697 67.592 389.804 67.1813 389.804 66.776C389.804 66.264 389.655 65.88 389.356 65.624C389.068 65.3573 388.641 65.224 388.076 65.224C387.063 65.224 386.044 65.6133 385.02 66.392L384.332 64.888C384.78 64.4933 385.351 64.1787 386.044 63.944C386.748 63.6987 387.452 63.576 388.156 63.576C389.287 63.576 390.183 63.8533 390.844 64.408C391.505 64.9627 391.836 65.7093 391.836 66.648C391.836 67.2987 391.697 67.912 391.42 68.488C391.143 69.0533 390.673 69.688 390.012 70.392L387.244 73.336H392.252ZM397.909 75.144C396.576 75.144 395.557 74.6533 394.853 73.672C394.149 72.68 393.797 71.24 393.797 69.352C393.797 67.4853 394.149 66.0613 394.853 65.08C395.557 64.0987 396.576 63.608 397.909 63.608C399.243 63.608 400.261 64.0987 400.965 65.08C401.669 66.0613 402.021 67.4853 402.021 69.352C402.021 71.2293 401.669 72.664 400.965 73.656C400.261 74.648 399.243 75.144 397.909 75.144ZM397.909 73.528C398.635 73.528 399.163 73.1973 399.493 72.536C399.824 71.864 399.989 70.8027 399.989 69.352C399.989 67.912 399.824 66.8667 399.493 66.216C399.163 65.5547 398.635 65.224 397.909 65.224C397.184 65.224 396.656 65.5547 396.325 66.216C395.995 66.8667 395.829 67.912 395.829 69.352C395.829 70.8027 395.995 71.864 396.325 72.536C396.656 73.1973 397.184 73.528 397.909 73.528Z" fill="white"/>
<path d="M191.04 40V42H183.68V40H186.112V33.488L184.192 34.608L183.248 32.816L186.832 30.72H188.608V40H191.04ZM196.394 42.144C195.028 42.144 193.983 41.648 193.258 40.656C192.543 39.664 192.186 38.2293 192.186 36.352C192.186 34.496 192.548 33.0773 193.274 32.096C193.999 31.104 195.039 30.608 196.394 30.608C197.748 30.608 198.788 31.104 199.514 32.096C200.239 33.0773 200.602 34.496 200.602 36.352C200.602 38.2293 200.239 39.664 199.514 40.656C198.799 41.648 197.759 42.144 196.394 42.144ZM196.394 40.24C197.012 40.24 197.46 39.9307 197.738 39.312C198.026 38.6933 198.17 37.7067 198.17 36.352C198.17 35.008 198.026 34.032 197.738 33.424C197.46 32.816 197.012 32.512 196.394 32.512C195.775 32.512 195.322 32.816 195.034 33.424C194.756 34.032 194.618 35.008 194.618 36.352C194.618 37.7067 194.756 38.6933 195.034 39.312C195.322 39.9307 195.775 40.24 196.394 40.24ZM211.448 33.952C212.12 33.952 212.718 34.128 213.24 34.48C213.774 34.8213 214.184 35.3067 214.472 35.936C214.771 36.5547 214.92 37.2693 214.92 38.08C214.92 38.8907 214.771 39.6053 214.472 40.224C214.184 40.832 213.779 41.3013 213.256 41.632C212.734 41.9627 212.131 42.128 211.448 42.128C210.915 42.128 210.43 42.0213 209.992 41.808C209.566 41.584 209.235 41.2747 209 40.88V44.88H206.584V34.144H208.968V35.248C209.203 34.8427 209.539 34.528 209.976 34.304C210.414 34.0693 210.904 33.952 211.448 33.952ZM210.744 40.288C211.31 40.288 211.747 40.1013 212.056 39.728C212.366 39.344 212.52 38.7947 212.52 38.08C212.52 37.3547 212.366 36.7947 212.056 36.4C211.747 35.9947 211.31 35.792 210.744 35.792C210.179 35.792 209.742 35.9893 209.432 36.384C209.123 36.768 208.968 37.3227 208.968 38.048C208.968 38.7627 209.123 39.3173 209.432 39.712C209.742 40.096 210.179 40.288 210.744 40.288ZM219.885 33.952C221.058 33.952 221.922 34.2293 222.477 34.784C223.042 35.3387 223.325 36.1973 223.325 37.36V42H221.037V40.832C220.877 41.2373 220.61 41.5573 220.237 41.792C219.863 42.016 219.426 42.128 218.925 42.128C218.391 42.128 217.906 42.0213 217.469 41.808C217.042 41.5947 216.701 41.296 216.445 40.912C216.199 40.528 216.077 40.1013 216.077 39.632C216.077 39.056 216.221 38.6027 216.509 38.272C216.807 37.9413 217.282 37.7013 217.933 37.552C218.583 37.4027 219.474 37.328 220.605 37.328H221.021V37.04C221.021 36.5707 220.919 36.24 220.717 36.048C220.514 35.856 220.162 35.76 219.661 35.76C219.277 35.76 218.85 35.8293 218.381 35.968C217.911 36.1067 217.463 36.2987 217.037 36.544L216.397 34.928C216.845 34.6507 217.394 34.4213 218.045 34.24C218.706 34.048 219.319 33.952 219.885 33.952ZM219.453 40.464C219.922 40.464 220.301 40.3093 220.589 40C220.877 39.68 221.021 39.2693 221.021 38.768V38.496H220.749C219.885 38.496 219.277 38.5653 218.925 38.704C218.583 38.8427 218.413 39.0933 218.413 39.456C218.413 39.744 218.509 39.984 218.701 40.176C218.903 40.368 219.154 40.464 219.453 40.464ZM233.147 34.144V41.152C233.147 42.4213 232.784 43.3813 232.059 44.032C231.334 44.6827 230.262 45.008 228.843 45.008C228.139 45.008 227.462 44.9227 226.811 44.752C226.171 44.5813 225.606 44.3413 225.115 44.032L225.755 42.368C226.768 42.9227 227.776 43.2 228.779 43.2C230.102 43.2 230.763 42.576 230.763 41.328V40.464C230.539 40.8693 230.203 41.1893 229.755 41.424C229.307 41.6587 228.806 41.776 228.251 41.776C227.568 41.776 226.96 41.616 226.427 41.296C225.904 40.976 225.494 40.5227 225.195 39.936C224.896 39.3387 224.747 38.6507 224.747 37.872C224.747 37.0933 224.896 36.4107 225.195 35.824C225.494 35.2267 225.904 34.768 226.427 34.448C226.96 34.1173 227.568 33.952 228.251 33.952C228.795 33.952 229.286 34.0693 229.723 34.304C230.171 34.528 230.512 34.8427 230.747 35.248V34.144H233.147ZM228.955 39.936C229.52 39.936 229.958 39.7547 230.267 39.392C230.587 39.0293 230.747 38.5227 230.747 37.872C230.747 37.2213 230.587 36.7147 230.267 36.352C229.958 35.9787 229.52 35.792 228.955 35.792C228.39 35.792 227.947 35.9787 227.627 36.352C227.307 36.7147 227.147 37.2213 227.147 37.872C227.147 38.512 227.307 39.0187 227.627 39.392C227.947 39.7547 228.39 39.936 228.955 39.936ZM242.078 38.528H236.958C237.033 39.1573 237.235 39.616 237.566 39.904C237.907 40.1813 238.387 40.32 239.006 40.32C239.411 40.32 239.811 40.256 240.206 40.128C240.611 39.9893 240.979 39.7973 241.31 39.552L241.95 41.168C241.566 41.4667 241.097 41.7013 240.542 41.872C239.998 42.0427 239.449 42.128 238.894 42.128C237.571 42.128 236.526 41.7653 235.758 41.04C235.001 40.304 234.622 39.3067 234.622 38.048C234.622 37.248 234.787 36.5387 235.118 35.92C235.449 35.3013 235.907 34.8213 236.494 34.48C237.081 34.128 237.747 33.952 238.494 33.952C239.593 33.952 240.462 34.3093 241.102 35.024C241.753 35.7387 242.078 36.7093 242.078 37.936V38.528ZM238.558 35.616C238.099 35.616 237.731 35.7653 237.454 36.064C237.187 36.352 237.022 36.7733 236.958 37.328H240.046C240.014 36.7627 239.87 36.336 239.614 36.048C239.369 35.76 239.017 35.616 238.558 35.616ZM246.561 42.128C245.836 42.128 245.169 42.048 244.561 41.888C243.964 41.7173 243.447 41.4773 243.009 41.168L243.649 39.504C244.076 39.792 244.545 40.016 245.057 40.176C245.569 40.336 246.087 40.416 246.609 40.416C246.983 40.416 247.271 40.3573 247.473 40.24C247.687 40.112 247.793 39.9413 247.793 39.728C247.793 39.536 247.719 39.3867 247.569 39.28C247.431 39.1733 247.164 39.0773 246.769 38.992L245.489 38.704C244.732 38.5333 244.172 38.272 243.809 37.92C243.457 37.5573 243.281 37.0667 243.281 36.448C243.281 35.9573 243.42 35.5253 243.697 35.152C243.985 34.7787 244.385 34.4853 244.897 34.272C245.42 34.0587 246.012 33.952 246.673 33.952C247.239 33.952 247.788 34.0373 248.321 34.208C248.855 34.3787 249.335 34.6187 249.761 34.928L249.121 36.528C248.289 35.952 247.468 35.664 246.657 35.664C246.284 35.664 245.991 35.728 245.777 35.856C245.564 35.984 245.457 36.1653 245.457 36.4C245.457 36.5707 245.521 36.704 245.649 36.8C245.777 36.896 246.001 36.9867 246.321 37.072L247.649 37.376C248.449 37.5573 249.031 37.8347 249.393 38.208C249.767 38.5707 249.953 39.0667 249.953 39.696C249.953 40.4533 249.649 41.0507 249.041 41.488C248.444 41.9147 247.617 42.128 246.561 42.128ZM254.539 42.688L258.683 29.76L260.491 30.304L256.347 43.232L254.539 42.688ZM273.457 40V42H265.697V40.16L269.457 36.176C270.246 35.344 270.641 34.576 270.641 33.872C270.641 32.976 270.129 32.528 269.105 32.528C268.635 32.528 268.145 32.624 267.633 32.816C267.121 32.9973 266.619 33.264 266.129 33.616L265.345 31.84C265.793 31.456 266.369 31.152 267.073 30.928C267.777 30.6933 268.497 30.576 269.233 30.576C270.406 30.576 271.339 30.8587 272.033 31.424C272.737 31.9893 273.089 32.7467 273.089 33.696C273.089 34.3467 272.95 34.9493 272.673 35.504C272.406 36.0587 271.953 36.6773 271.313 37.36L268.801 40H273.457ZM275.29 36.768H280.234V38.656H275.29V36.768ZM285.405 42.128C284.68 42.128 284.013 42.048 283.405 41.888C282.808 41.7173 282.29 41.4773 281.853 41.168L282.493 39.504C282.92 39.792 283.389 40.016 283.901 40.176C284.413 40.336 284.93 40.416 285.453 40.416C285.826 40.416 286.114 40.3573 286.317 40.24C286.53 40.112 286.637 39.9413 286.637 39.728C286.637 39.536 286.562 39.3867 286.413 39.28C286.274 39.1733 286.008 39.0773 285.613 38.992L284.333 38.704C283.576 38.5333 283.016 38.272 282.653 37.92C282.301 37.5573 282.125 37.0667 282.125 36.448C282.125 35.9573 282.264 35.5253 282.541 35.152C282.829 34.7787 283.229 34.4853 283.741 34.272C284.264 34.0587 284.856 33.952 285.517 33.952C286.082 33.952 286.632 34.0373 287.165 34.208C287.698 34.3787 288.178 34.6187 288.605 34.928L287.965 36.528C287.133 35.952 286.312 35.664 285.501 35.664C285.128 35.664 284.834 35.728 284.621 35.856C284.408 35.984 284.301 36.1653 284.301 36.4C284.301 36.5707 284.365 36.704 284.493 36.8C284.621 36.896 284.845 36.9867 285.165 37.072L286.493 37.376C287.293 37.5573 287.874 37.8347 288.237 38.208C288.61 38.5707 288.797 39.0667 288.797 39.696C288.797 40.4533 288.493 41.0507 287.885 41.488C287.288 41.9147 286.461 42.128 285.405 42.128ZM290.178 34.144H292.594V42H290.178V34.144ZM292.69 30.368V32.624H290.098V30.368H292.69ZM302.396 30.72V42H299.996V40.832C299.761 41.2373 299.425 41.5573 298.988 41.792C298.561 42.016 298.076 42.128 297.532 42.128C296.86 42.128 296.257 41.9573 295.724 41.616C295.201 41.264 294.79 40.7787 294.492 40.16C294.204 39.5307 294.06 38.8107 294.06 38C294.06 37.1893 294.204 36.48 294.492 35.872C294.79 35.2533 295.201 34.7787 295.724 34.448C296.246 34.1173 296.849 33.952 297.532 33.952C298.065 33.952 298.545 34.064 298.972 34.288C299.409 34.512 299.745 34.8267 299.98 35.232V30.72H302.396ZM298.236 40.288C298.801 40.288 299.233 40.096 299.532 39.712C299.841 39.3173 299.996 38.7573 299.996 38.032C299.996 37.3067 299.841 36.752 299.532 36.368C299.233 35.984 298.801 35.792 298.236 35.792C297.67 35.792 297.233 35.984 296.924 36.368C296.614 36.7413 296.46 37.2853 296.46 38C296.46 38.7253 296.614 39.2907 296.924 39.696C297.233 40.0907 297.67 40.288 298.236 40.288ZM311.328 38.528H306.208C306.283 39.1573 306.485 39.616 306.816 39.904C307.157 40.1813 307.637 40.32 308.256 40.32C308.661 40.32 309.061 40.256 309.456 40.128C309.861 39.9893 310.229 39.7973 310.56 39.552L311.2 41.168C310.816 41.4667 310.347 41.7013 309.792 41.872C309.248 42.0427 308.699 42.128 308.144 42.128C306.821 42.128 305.776 41.7653 305.008 41.04C304.251 40.304 303.872 39.3067 303.872 38.048C303.872 37.248 304.037 36.5387 304.368 35.92C304.699 35.3013 305.157 34.8213 305.744 34.48C306.331 34.128 306.997 33.952 307.744 33.952C308.843 33.952 309.712 34.3093 310.352 35.024C311.003 35.7387 311.328 36.7093 311.328 37.936V38.528ZM307.808 35.616C307.349 35.616 306.981 35.7653 306.704 36.064C306.437 36.352 306.272 36.7733 306.208 37.328H309.296C309.264 36.7627 309.12 36.336 308.864 36.048C308.619 35.76 308.267 35.616 307.808 35.616ZM320.739 30.72V42H318.339V40.832C318.105 41.2373 317.769 41.5573 317.331 41.792C316.905 42.016 316.419 42.128 315.875 42.128C315.203 42.128 314.601 41.9573 314.067 41.616C313.545 41.264 313.134 40.7787 312.835 40.16C312.547 39.5307 312.403 38.8107 312.403 38C312.403 37.1893 312.547 36.48 312.835 35.872C313.134 35.2533 313.545 34.7787 314.067 34.448C314.59 34.1173 315.193 33.952 315.875 33.952C316.409 33.952 316.889 34.064 317.315 34.288C317.753 34.512 318.089 34.8267 318.323 35.232V30.72H320.739ZM316.579 40.288C317.145 40.288 317.577 40.096 317.875 39.712C318.185 39.3173 318.339 38.7573 318.339 38.032C318.339 37.3067 318.185 36.752 317.875 36.368C317.577 35.984 317.145 35.792 316.579 35.792C316.014 35.792 315.577 35.984 315.267 36.368C314.958 36.7413 314.803 37.2853 314.803 38C314.803 38.7253 314.958 39.2907 315.267 39.696C315.577 40.0907 316.014 40.288 316.579 40.288ZM325.805 42.688L329.949 29.76L331.757 30.304L327.613 43.232L325.805 42.688ZM346.818 30.72V42H344.962L339.346 34.816V42H337.026V30.72H338.866L344.482 37.872V30.72H346.818ZM352.641 42.128C351.81 42.128 351.079 41.9627 350.45 41.632C349.82 41.2907 349.335 40.816 348.993 40.208C348.652 39.5893 348.482 38.864 348.482 38.032C348.482 37.2 348.652 36.48 348.993 35.872C349.335 35.2533 349.82 34.7787 350.45 34.448C351.079 34.1173 351.81 33.952 352.641 33.952C353.474 33.952 354.204 34.1173 354.834 34.448C355.463 34.7787 355.948 35.2533 356.29 35.872C356.631 36.48 356.802 37.2 356.802 38.032C356.802 38.864 356.631 39.5893 356.29 40.208C355.948 40.816 355.463 41.2907 354.834 41.632C354.204 41.9627 353.474 42.128 352.641 42.128ZM352.641 40.288C353.815 40.288 354.402 39.536 354.402 38.032C354.402 37.2747 354.247 36.7093 353.938 36.336C353.639 35.9627 353.207 35.776 352.641 35.776C351.468 35.776 350.882 36.528 350.882 38.032C350.882 39.536 351.468 40.288 352.641 40.288ZM366.485 42.128C365.205 42.128 364.197 41.7653 363.461 41.04C362.725 40.3147 362.357 39.328 362.357 38.08C362.357 37.2587 362.533 36.5387 362.885 35.92C363.237 35.2907 363.733 34.8053 364.373 34.464C365.013 34.1227 365.754 33.952 366.597 33.952C367.173 33.952 367.727 34.0427 368.261 34.224C368.794 34.3947 369.226 34.6293 369.557 34.928L368.917 36.576C368.607 36.3307 368.266 36.144 367.893 36.016C367.53 35.8773 367.173 35.808 366.821 35.808C366.191 35.808 365.701 35.9947 365.349 36.368C365.007 36.7413 364.837 37.296 364.837 38.032C364.837 38.768 365.007 39.328 365.349 39.712C365.701 40.0853 366.191 40.272 366.821 40.272C367.173 40.272 367.53 40.208 367.893 40.08C368.266 39.9413 368.607 39.7493 368.917 39.504L369.557 41.168C369.205 41.4667 368.757 41.7013 368.213 41.872C367.669 42.0427 367.093 42.128 366.485 42.128ZM374.423 42.128C373.591 42.128 372.86 41.9627 372.231 41.632C371.601 41.2907 371.116 40.816 370.775 40.208C370.433 39.5893 370.263 38.864 370.263 38.032C370.263 37.2 370.433 36.48 370.775 35.872C371.116 35.2533 371.601 34.7787 372.231 34.448C372.86 34.1173 373.591 33.952 374.423 33.952C375.255 33.952 375.985 34.1173 376.615 34.448C377.244 34.7787 377.729 35.2533 378.071 35.872C378.412 36.48 378.583 37.2 378.583 38.032C378.583 38.864 378.412 39.5893 378.071 40.208C377.729 40.816 377.244 41.2907 376.615 41.632C375.985 41.9627 375.255 42.128 374.423 42.128ZM374.423 40.288C375.596 40.288 376.183 39.536 376.183 38.032C376.183 37.2747 376.028 36.7093 375.719 36.336C375.42 35.9627 374.988 35.776 374.423 35.776C373.249 35.776 372.663 36.528 372.663 38.032C372.663 39.536 373.249 40.288 374.423 40.288ZM380.053 30.72H382.469V42H380.053V30.72ZM388.095 42.128C387.263 42.128 386.532 41.9627 385.903 41.632C385.273 41.2907 384.788 40.816 384.447 40.208C384.105 39.5893 383.935 38.864 383.935 38.032C383.935 37.2 384.105 36.48 384.447 35.872C384.788 35.2533 385.273 34.7787 385.903 34.448C386.532 34.1173 387.263 33.952 388.095 33.952C388.927 33.952 389.657 34.1173 390.287 34.448C390.916 34.7787 391.401 35.2533 391.743 35.872C392.084 36.48 392.255 37.2 392.255 38.032C392.255 38.864 392.084 39.5893 391.743 40.208C391.401 40.816 390.916 41.2907 390.287 41.632C389.657 41.9627 388.927 42.128 388.095 42.128ZM388.095 40.288C389.268 40.288 389.855 39.536 389.855 38.032C389.855 37.2747 389.7 36.7093 389.391 36.336C389.092 35.9627 388.66 35.776 388.095 35.776C386.921 35.776 386.335 36.528 386.335 38.032C386.335 39.536 386.921 40.288 388.095 40.288ZM399.341 35.936L397.981 36.08C397.309 36.144 396.834 36.336 396.557 36.656C396.28 36.9653 396.141 37.3813 396.141 37.904V42H393.725V34.144H396.045V35.472C396.44 34.5653 397.256 34.0693 398.493 33.984L399.197 33.936L399.341 35.936Z" fill="white"/>
<path d="M26.33 23.605H29.294V34.587H35.279V37H26.33V23.605ZM45.3193 27.69L39.6953 40.42H36.7883L38.5743 36.487L34.7363 27.69H37.7193L40.0753 33.618L42.5073 27.69H45.3193ZM39.1253 26.455L40.9873 22.56H43.7993L40.9113 26.455H39.1253ZM63.2454 29.609V36.164C62.5994 36.4807 61.8394 36.7277 60.9654 36.905C60.0914 37.0823 59.192 37.171 58.2674 37.171C56.8487 37.171 55.62 36.8987 54.5814 36.354C53.5427 35.7967 52.7447 35.005 52.1874 33.979C51.63 32.9403 51.3514 31.7117 51.3514 30.293C51.3514 28.8997 51.6237 27.69 52.1684 26.664C52.7257 25.6253 53.5174 24.8273 54.5434 24.27C55.5694 23.7127 56.7664 23.434 58.1344 23.434C59.097 23.434 59.99 23.567 60.8134 23.833C61.6494 24.099 62.3397 24.4663 62.8844 24.935L61.9534 27.044C61.3327 26.6007 60.7247 26.284 60.1294 26.094C59.5467 25.8913 58.9134 25.79 58.2294 25.79C55.6454 25.79 54.3534 27.291 54.3534 30.293C54.3534 31.8383 54.689 32.991 55.3604 33.751C56.0317 34.511 57.045 34.891 58.4004 34.891C59.135 34.891 59.8634 34.796 60.5854 34.606V31.661H57.9634V29.609H63.2454ZM65.5307 27.671H68.3997V37H65.5307V27.671ZM68.5137 23.187V25.866H65.4357V23.187H68.5137ZM80.4761 26.018C80.4761 26.6767 80.3115 27.2593 79.9821 27.766C79.6655 28.26 79.2285 28.6083 78.6711 28.811C79.1145 29.229 79.4501 29.742 79.6781 30.35C79.9061 30.9453 80.0201 31.5977 80.0201 32.307C80.0201 33.2823 79.8175 34.1373 79.4121 34.872C79.0068 35.6067 78.4305 36.1703 77.6831 36.563C76.9358 36.9557 76.0681 37.152 75.0801 37.152C74.0921 37.152 73.2245 36.9557 72.4771 36.563C71.7298 36.1703 71.1535 35.6067 70.7481 34.872C70.3428 34.1373 70.1401 33.2823 70.1401 32.307C70.1401 31.319 70.3428 30.4577 70.7481 29.723C71.1535 28.9883 71.7235 28.4247 72.4581 28.032C73.1928 27.6393 74.0478 27.443 75.0231 27.443C75.3398 27.443 75.7261 27.481 76.1821 27.557L76.6001 27.595C77.0308 27.595 77.3728 27.462 77.6261 27.196C77.8795 26.9173 78.0061 26.4107 78.0061 25.676V25.296H80.4761V26.018ZM75.0801 34.967C76.4735 34.967 77.1701 34.074 77.1701 32.288C77.1701 31.3887 76.9865 30.7173 76.6191 30.274C76.2645 29.8307 75.7515 29.609 75.0801 29.609C73.6868 29.609 72.9901 30.502 72.9901 32.288C72.9901 34.074 73.6868 34.967 75.0801 34.967ZM74.1871 26.455L76.0491 22.56H78.8611L75.9731 26.455H74.1871ZM81.7661 27.671H84.6351V37H81.7661V27.671ZM84.7491 23.187V25.866H81.6711V23.187H84.7491ZM101.315 34.036H95.0831L93.8101 37H90.8271L96.9831 23.605H99.3581L105.514 37H102.588L101.315 34.036ZM100.346 31.794L98.1991 26.778L96.0521 31.794H100.346ZM112.259 27.443C113.373 27.443 114.203 27.7723 114.748 28.431C115.292 29.077 115.565 30.0587 115.565 31.376V37H112.696V31.509C112.696 30.8757 112.575 30.4133 112.335 30.122C112.107 29.8307 111.746 29.685 111.252 29.685C110.656 29.685 110.175 29.875 109.808 30.255C109.453 30.635 109.276 31.1417 109.276 31.775V37H106.407V27.671H109.2V29.001C109.529 28.4943 109.953 28.108 110.473 27.842C111.005 27.576 111.6 27.443 112.259 27.443Z" fill="white"/>
<path d="M71.8233 63.065C71.5199 63.065 71.2729 62.974 71.0823 62.792C70.9003 62.61 70.8093 62.3673 70.8093 62.064V55.486H68.7033C68.0619 55.486 67.7413 55.2087 67.7413 54.654C67.7413 54.108 68.0619 53.835 68.7033 53.835H74.9433C75.5846 53.835 75.9053 54.108 75.9053 54.654C75.9053 55.2087 75.5846 55.486 74.9433 55.486H72.8373V62.064C72.8373 62.3673 72.7463 62.61 72.5643 62.792C72.3823 62.974 72.1353 63.065 71.8233 63.065ZM77.7912 63.078C77.4792 63.078 77.2322 62.987 77.0502 62.805C76.8682 62.623 76.7772 62.376 76.7772 62.064V54.784C76.7772 54.4807 76.8595 54.2467 77.0242 54.082C77.1889 53.9173 77.4229 53.835 77.7262 53.835H80.9892C81.9859 53.835 82.7615 54.0863 83.3162 54.589C83.8709 55.0917 84.1482 55.7937 84.1482 56.695C84.1482 57.5963 83.8709 58.2983 83.3162 58.801C82.7615 59.3037 81.9859 59.555 80.9892 59.555H78.8052V62.064C78.8052 62.376 78.7142 62.623 78.5322 62.805C78.3502 62.987 78.1032 63.078 77.7912 63.078ZM80.7292 58.021C81.7432 58.021 82.2502 57.5833 82.2502 56.708C82.2502 55.824 81.7432 55.382 80.7292 55.382H78.8052V58.021H80.7292ZM85.5298 63.078C85.2092 63.078 84.9448 62.974 84.7368 62.766C84.5288 62.5493 84.4248 62.2807 84.4248 61.96C84.4248 61.6393 84.5288 61.375 84.7368 61.167C84.9448 60.9503 85.2092 60.842 85.5298 60.842C85.8505 60.842 86.1148 60.9503 86.3228 61.167C86.5308 61.375 86.6348 61.6393 86.6348 61.96C86.6348 62.2807 86.5308 62.5493 86.3228 62.766C86.1148 62.974 85.8505 63.078 85.5298 63.078ZM95.3288 53.77C95.6321 53.77 95.8748 53.861 96.0568 54.043C96.2388 54.225 96.3298 54.4677 96.3298 54.771V62.064C96.3298 62.3673 96.2388 62.6143 96.0568 62.805C95.8748 62.987 95.6321 63.078 95.3288 63.078C95.0255 63.078 94.7828 62.987 94.6008 62.805C94.4275 62.623 94.3408 62.376 94.3408 62.064V59.152H90.1158V62.064C90.1158 62.3673 90.0248 62.6143 89.8428 62.805C89.6608 62.987 89.4225 63.078 89.1278 63.078C88.8245 63.078 88.5818 62.987 88.3998 62.805C88.2178 62.623 88.1268 62.376 88.1268 62.064V54.771C88.1268 54.4677 88.2178 54.225 88.3998 54.043C88.5818 53.861 88.8245 53.77 89.1278 53.77C89.4311 53.77 89.6695 53.861 89.8428 54.043C90.0248 54.225 90.1158 54.4677 90.1158 54.771V57.54H94.3408V54.771C94.3408 54.4677 94.4275 54.225 94.6008 54.043C94.7828 53.861 95.0255 53.77 95.3288 53.77ZM102.368 63.117C101.467 63.117 100.678 62.9263 100.002 62.545C99.3261 62.1637 98.8061 61.6177 98.4421 60.907C98.0781 60.1963 97.8961 59.3643 97.8961 58.411C97.8961 57.4577 98.0781 56.63 98.4421 55.928C98.8061 55.2173 99.3261 54.6713 100.002 54.29C100.678 53.9087 101.467 53.718 102.368 53.718C103.503 53.718 104.483 54.03 105.306 54.654C105.436 54.758 105.527 54.862 105.579 54.966C105.631 55.07 105.657 55.2 105.657 55.356C105.657 55.5813 105.592 55.7763 105.462 55.941C105.341 56.097 105.189 56.175 105.007 56.175C104.886 56.175 104.777 56.162 104.682 56.136C104.595 56.1013 104.496 56.045 104.383 55.967C104.036 55.7417 103.716 55.5813 103.421 55.486C103.126 55.382 102.81 55.33 102.472 55.33C101.64 55.33 101.012 55.59 100.587 56.11C100.171 56.6213 99.9631 57.3883 99.9631 58.411C99.9631 60.4737 100.799 61.505 102.472 61.505C102.793 61.505 103.096 61.4573 103.382 61.362C103.668 61.258 104.002 61.0933 104.383 60.868C104.513 60.79 104.621 60.738 104.708 60.712C104.795 60.6773 104.894 60.66 105.007 60.66C105.189 60.66 105.341 60.7423 105.462 60.907C105.592 61.063 105.657 61.2537 105.657 61.479C105.657 61.635 105.627 61.7693 105.566 61.882C105.514 61.986 105.427 62.0857 105.306 62.181C104.483 62.805 103.503 63.117 102.368 63.117ZM115.105 53.77C115.391 53.77 115.62 53.8653 115.794 54.056C115.976 54.238 116.067 54.4763 116.067 54.771V62.155C116.067 62.441 115.984 62.6663 115.82 62.831C115.655 62.9957 115.438 63.078 115.17 63.078C114.91 63.078 114.697 62.9957 114.533 62.831C114.368 62.6663 114.286 62.441 114.286 62.155V57.566L112.44 61.037C112.318 61.2623 112.184 61.427 112.037 61.531C111.898 61.635 111.729 61.687 111.53 61.687C111.339 61.687 111.17 61.635 111.023 61.531C110.875 61.427 110.741 61.2623 110.62 61.037L108.774 57.631V62.155C108.774 62.4323 108.691 62.6577 108.527 62.831C108.362 62.9957 108.145 63.078 107.877 63.078C107.617 63.078 107.404 62.9957 107.24 62.831C107.075 62.6663 106.993 62.441 106.993 62.155V54.771C106.993 54.4763 107.079 54.238 107.253 54.056C107.435 53.8653 107.669 53.77 107.955 53.77C108.371 53.77 108.687 53.991 108.904 54.433L111.543 59.438L114.169 54.433C114.403 53.991 114.715 53.77 115.105 53.77Z" fill="white"/>
</svg>
