<svg width="25" height="25" viewBox="0 0 25 25" fill="none" xmlns="http://www.w3.org/2000/svg">
<path fill-rule="evenodd" clip-rule="evenodd" d="M0 12.5C0 19.4036 5.59644 25 12.5 25C19.4036 25 25 19.4036 25 12.5C25 5.59644 19.4036 0 12.5 0C5.59644 0 0 5.59644 0 12.5Z" fill="#FFDDCF"/>
<path d="M8.28919 19.8965C8.12876 20.0408 8.11562 20.2877 8.25985 20.4482C8.40409 20.6086 8.65107 20.6217 8.8115 20.4775L17.058 13.0639C17.2305 12.9088 17.2307 12.6384 17.0583 12.4832L8.81182 5.05306C8.65155 4.90865 8.40455 4.92151 8.26014 5.08179C8.11573 5.24207 8.1286 5.48906 8.28887 5.63347L16.213 12.773L8.28919 19.8965Z" fill="#E45017"/>
</svg>
