<svg width="10" height="9" viewBox="0 0 10 9" fill="none" xmlns="http://www.w3.org/2000/svg">
<path fill-rule="evenodd" clip-rule="evenodd" d="M9.75 2.18359V0H0V2.18359H9.75ZM9.75 4.3418V3.25H5.4082V4.3418H9.75ZM4.3418 4.3418V3.25H0V4.3418H4.3418ZM9.75 6.5V5.43359H7.0332V6.5H9.75ZM6.2207 6.5V5.43359H3.5293V6.5H6.2207ZM2.7168 6.5V5.43359H0V6.5H2.7168ZM9.75 8.68359V7.5918H8.6582V8.68359H9.75ZM7.5918 8.68359V7.5918H6.5V8.68359H7.5918ZM5.4082 8.68359V7.5918H4.3418V8.68359H5.4082ZM3.25 8.68359V7.5918H2.1582V8.68359H3.25ZM1.0918 8.68359V7.5918H0V8.68359H1.0918Z" fill="#363565"/>
</svg>
